<?xml version="1.0" encoding="utf-8"?>
<!-- Generator: Adobe Illustrator 19.0.0, SVG Export Plug-In . SVG Version: 6.00 Build 0)  -->
<svg version="1.1" id="Layer_1" xmlns="http://www.w3.org/2000/svg" xmlns:xlink="http://www.w3.org/1999/xlink" x="0px" y="0px"
	 viewBox="0 0 612 792" style="enable-background:new 0 0 612 792;" xml:space="preserve">
<style type="text/css">
	.st0{fill:#A13541;}
	.st1{fill:#F6C19C;}
	.st2{fill:#E29767;}
	.st3{fill:#5A4738;}
	.st4{fill:#47A7A3;}
	.st5{fill:#3A8C87;}
	.st6{fill:#5DC5C0;}
	.st7{fill:#FAE9BB;}
	.st8{fill:#7A6450;}
	.st9{fill:#E4D4B1;}
	.st10{fill:#C4B88E;}
	.st11{fill:#F5E4BF;}
	.st12{fill:#EEEAC8;}
	.st13{fill:#B2AE96;}
	.st14{fill:#F06E85;}
	.st15{fill:#F599A2;}
	.st16{fill:#E0647B;}
	.st17{fill:#FBFCF3;}
</style>
<g>
	<path class="st0" d="M307.9,257.5c-0.5,0-1,0-1.4,0c-5.1,0.1-9.9,1.1-14.4,2.8c-2.3,0.9-4.5,2-6.6,3.3c-2.1,1.3-4.1,2.9-5.9,4.7
		l-0.1,0.1c-0.1,0-0.3,0.1-0.3,0.2c-2.2,3.2-2.6,7.1-3,10.9c-0.1,0.7-0.2,1.5-0.3,2.2h0c-0.2,1.8-0.5,3.2-0.9,4.4
		c-0.2,0.7-0.5,1.4-0.7,2c-0.2,0.6-0.5,1.3-0.8,1.9c0,0,0,0.1,0,0.1c0,0,0,0.1,0,0.1c-1.2,2.7-2.5,5.4-3.8,8c-1.3,2.6-2.6,5.3-3.8,8
		c-1.9,4.5-4.1,10.5-3.6,16.7c0.2,2.6,0.9,5.2,2,7.7c0.9,2,2.3,4,4,5.8c1.5,1.6,3.2,3,5.4,4.4c1.8,1.2,3.9,2.3,6.3,3.3
		c4.5,1.9,9.2,3.3,13.5,4.5c3.4,0.9,6.7,1.7,9.8,2.3c3.3,0.6,6.7,1,10,1.2c1.7,0.1,3.4,0.2,5,0.2c5.1,0,10.1-0.5,14.9-1.5
		c3.3-0.7,6.6-1.6,9.9-2.8c1.6-0.6,3.1-1.2,4.5-1.9c1.2-0.5,2.4-1.2,3.6-1.9c2.2-1.3,4.3-2.9,6.3-4.7c1.8-1.7,3.5-3.6,5.1-5.8
		c3-4.1,5.2-9,6.4-14.1c0.6-2.5,1-5.1,1.1-7.8c0.1-1.4,0-2.8,0-3.8c0-1.3-0.1-2.5-0.3-3.6c-0.3-2.8-0.9-5.1-1.9-7
		c-0.5-1.1-1.2-2-2.1-2.9c-0.8-0.8-1.9-1.5-3.2-2.2c-1.3-0.6-2.8-1-4.2-1.4c-1.2-0.3-2.4-0.7-3.5-1.2c-0.6-0.2-1.1-0.5-1.6-0.8
		c-0.4-0.3-0.9-0.6-1.5-1c-1.1-0.8-2.1-1.7-3-2.7c-0.9-0.9-1.8-1.9-2.6-3c-2.8-3.6-4.9-7.8-6.9-11.8c-0.8-1.6-1.6-3.2-2.5-4.8
		c-0.1-0.2-0.3-0.2-0.4-0.2c-0.1,0-0.1,0-0.2,0c-1.1-0.8-2.4-1.6-3.8-2.2c-1.2-0.6-2.5-1.2-4.1-1.8c-2.7-1-5.1-1.8-7.4-2.4
		C316.8,258.1,312.3,257.5,307.9,257.5"/>
	<path class="st0" d="M277.4,272.2c-0.1,0.1-0.2,0.2-0.2,0.3c-0.2,0.7-0.3,1.4-0.4,2.2c-0.1,0.7,0,1.4,0,2.2c0,0.3,0.3,0.5,0.6,0.4
		c0.3,0,0.5-0.3,0.4-0.6c0-0.5-0.1-0.9,0-1.4c0-0.9,0.2-1.8,0.4-2.7c0.1-0.3-0.2-0.5-0.4-0.6c0,0-0.1,0-0.1,0
		C277.6,272.1,277.5,272.2,277.4,272.2"/>
	<path class="st0" d="M277.5,272.1c-0.1,0-0.2,0.1-0.3,0.3c-0.1,0.4-0.3,0.8-0.3,1.2c-0.1,0.4-0.1,0.9-0.2,1.3
		c-0.1,0.9-0.1,1.8-0.1,2.7c0,0.1,0.1,0.3,0.2,0.3c0.1,0.1,0.2,0.1,0.4,0.1c0.1,0,0.3-0.1,0.3-0.2c0.1-0.1,0.1-0.2,0.1-0.4
		c0-0.5,0-0.9,0-1.4c0,0,0,0,0,0c0,0,0,0,0-0.1c0,0,0,0,0-0.1v0c0-1,0.1-2,0.4-3c0,0,0,0.1,0,0.1c0-0.1,0.1-0.2,0.1-0.3
		c0-0.1,0.1-0.3,0-0.4c0-0.1-0.1-0.2-0.3-0.3c-0.1,0-0.1,0-0.2,0C277.6,272,277.5,272,277.5,272.1 M277.6,276
		C277.6,276,277.6,276,277.6,276C277.6,276,277.6,276,277.6,276L277.6,276z"/>
	<path class="st0" d="M276.9,272.6c-0.4,1.9-0.6,3.9-0.4,5.8c0,0.3,0.3,0.5,0.5,0.4c0.3,0,0.5-0.3,0.4-0.6c-0.1-0.6-0.1-1.2-0.1-1.8
		c0,0,0,0,0,0c0,0,0,0,0-0.1c0,0,0-0.1,0-0.1v0.1c0.1-1.2,0.2-2.5,0.5-3.7c0.1-0.3-0.1-0.5-0.4-0.6c0,0-0.1,0-0.1,0
		C277.1,272.2,276.9,272.4,276.9,272.6 M277.4,276.5L277.4,276.5L277.4,276.5C277.4,276.5,277.4,276.5,277.4,276.5"/>
	<path class="st0" d="M276.9,272.8c-0.6,2.9-0.8,5.8-0.5,8.7c0,0.3,0.3,0.5,0.6,0.4c0.3,0,0.5-0.3,0.4-0.6c-0.1-1.2-0.2-2.3-0.1-3.5
		c0.1-1.7,0.3-3.3,0.6-4.9c0.1-0.3-0.1-0.5-0.4-0.6c0,0-0.1,0-0.1,0C277.1,272.4,277,272.6,276.9,272.8 M277.3,277.8
		C277.3,277.8,277.3,277.8,277.3,277.8C277.3,277.8,277.3,277.8,277.3,277.8"/>
	<path class="st0" d="M276.7,274.8c-0.5,2.7-0.5,5.5-0.5,8.3c0,0.1,0.1,0.3,0.2,0.3c0.1,0.1,0.2,0.1,0.4,0.1c0.1,0,0.3-0.1,0.3-0.2
		c0.1-0.1,0.1-0.2,0.1-0.4c0-1.2,0-2.3,0.1-3.5c0.1-1.5,0.2-3,0.5-4.5c0.1-0.3-0.1-0.5-0.4-0.6c0,0-0.1,0-0.1,0
		C277,274.3,276.8,274.5,276.7,274.8"/>
	<path class="st1" d="M311.8,309.9c-0.5,0-1.1,0-1.8,0.1c-0.9,0.1-1.8,0.3-2.9,0.7c-0.8,0.3-1.6,0.6-2.4,1l-0.1,0l0,0
		c-0.1,0-0.2,0.1-0.3,0.2c-0.1,0.1-0.1,0.3-0.1,0.4l0,0c0,0,0,0,0,0s0,0,0,0c0.1,1.5,0,2.8-0.3,4c-0.2,0.9-0.5,1.7-0.9,2.4
		c-0.4,0.7-0.8,1.3-1.4,1.9l0,0c-0.6,0.6-1.2,1.1-2,1.6c-0.9,0.6-2,1.1-3.2,1.5v0c-1,0.3-2.1,0.6-3.1,0.7c-0.1,0-0.1,0-0.2,0
		c-0.1,0-0.2,0-0.3,0.1c-0.9,0.9-1.6,1.8-2.2,2.7c-0.6,0.9-1.1,1.9-1.5,3c-0.8,2.1-1.1,4.3-0.8,6.4c0.3,2.1,1.2,4.2,2.7,5.9
		c0.8,0.9,1.7,1.7,2.7,2.4c0.9,0.6,2,1.1,3.1,1.5c1.5,0.5,3,0.8,4.8,0.8c0.6,0,1.3,0,1.9-0.1c2.1-0.2,4.4-0.9,6.7-1.9
		c2.1-1,4-2.3,5.8-3.8c0.8-0.7,1.6-1.5,2.4-2.4c0.8-0.9,1.6-2,2.3-3.3c1.2-2.1,2.1-4.5,2.8-7.1c0-0.1,0-0.3,0-0.4
		c0-0.1,0-0.1,0.1-0.1c0.1-0.3,0-0.5-0.3-0.7c-0.4-0.2-0.9-0.4-1.3-0.6c-1.1-0.6-2-1.2-2.8-2c-0.7-0.7-1.4-1.4-1.9-2.2
		c-0.6-0.9-1-1.9-1.4-2.9h0c-0.4-1.1-0.6-2.3-0.7-3.5c0,0,0-0.1,0-0.1c0,0,0,0,0,0l0,0l0,0c0,0,0,0,0,0c0,0,0,0,0,0
		c0-1.4,0.1-2.9,0.4-4.4l0-0.1h0c0-0.1,0.1-0.2,0-0.3c0.1-0.2,0-0.5-0.2-0.6c-0.4-0.2-0.8-0.4-1.2-0.5c-0.5-0.2-1-0.2-1.3-0.3
		C312.6,309.9,312.2,309.9,311.8,309.9 M322.5,328.3c-0.2-0.1-0.3-0.2-0.5-0.3C322.2,328.1,322.4,328.2,322.5,328.3L322.5,328.3z"/>
	<path class="st2" d="M310,310c-0.9,0.1-1.8,0.4-2.9,0.7c-0.8,0.3-1.6,0.6-2.4,1l-0.1,0c-0.1,0-0.3,0.1-0.3,0.2
		c-0.1,0.1-0.1,0.3-0.1,0.4c0.1,1.5,0,2.8-0.3,4c-0.1,0.5-0.3,1-0.5,1.5c0.6,0.2,1.2,0.4,1.8,0.5c0,0,0,0,0,0
		c1.5,0.3,3.1,0.4,4.6,0.3c0.7,0,1.5-0.1,2.2-0.3c0.7-0.1,1.3-0.3,1.9-0.5c0,0,0,0,0,0c0,0,0,0,0,0h0h0c0,0,0,0,0,0c0,0,0,0,0,0
		c0,0,0,0,0,0c0,0,0,0,0,0c0.5-0.2,1-0.4,1.4-0.6c0-0.3-0.1-0.7-0.1-1.1l0-0.1c0-1.4,0.1-2.9,0.4-4.4l0-0.1c0-0.1,0.1-0.2,0-0.3
		c0.1-0.2,0-0.5-0.2-0.6c-0.4-0.2-0.8-0.4-1.2-0.5c-0.5-0.2-1-0.3-1.3-0.3c-0.4,0-0.7-0.1-1.1-0.1C311.3,309.8,310.7,309.9,310,310"
		/>
	<polyline class="st2" points="313.9,317.9 313.9,317.9 313.9,317.9 313.9,317.9 	"/>
	<line class="st2" x1="313.9" y1="317.9" x2="313.9" y2="317.9"/>
	<path class="st1" d="M305.6,258.9c-0.6,0-1.3,0-2,0.1c-0.6,0.1-1.2,0.2-1.7,0.3c-0.6,0.1-1.1,0.4-1.8,0.6c-2.1,0.9-4.1,2.3-6,4.3
		c-1.4,1.4-2.7,3.2-3.8,5.1c-1,1.6-1.8,3.4-2.5,5.3c-0.2,0-0.4,0.2-0.5,0.4c-0.3,1.8-0.7,3.6-1.1,5.3c-0.9,4-1.8,8.1-2,12.2
		c-0.2,3.1,0.1,6,0.9,8.6c0.4,1.4,0.9,2.8,1.7,4.2c0.4,0.8,0.9,1.7,1.5,2.4c2.2,2.7,5.3,4.8,9.4,6.2c1.8,0.6,3.8,1.1,5.9,1.3
		c1.2,0.1,2.3,0.2,3.5,0.2c0.9,0,1.7,0,2.6-0.1c3.2-0.3,6.1-1.1,8.6-2.5c0.6-0.3,1.2-0.7,1.7-1.1c0.6-0.4,1.2-0.9,1.9-1.6
		c0.8-0.7,1.5-1.6,2.1-2.4c0.5-0.7,0.9-1.5,1.2-2.4c0.8,0.5,1.6,0.8,2.5,1c0.6,0.1,1.1,0.2,1.7,0.2c0.4,0,0.7,0,1.1-0.1
		c1.8-0.2,3.6-1.1,4.9-2.4c0.6-0.6,1.2-1.4,1.5-2.2c0.4-0.8,0.6-1.7,0.6-2.7c0-1-0.2-2-0.7-3c-0.2-0.6-0.5-1-0.8-1.4
		c-0.3-0.4-0.8-0.8-1.3-1.2c-0.8-0.5-1.7-0.9-2.6-1c-0.2,0-0.5-0.1-0.7-0.1c-0.4,0-0.7,0-1.1,0.1c0.8-2.5,1.2-5.1,1.2-7.6
		c0-2.5-0.4-5-1.1-7.4c-0.8-2.4-2-4.7-3.5-6.8c-1.4-2-3.3-3.8-5.4-5.6c-2.1-1.7-4.3-3.1-6.6-4.2c-1.2-0.6-2.4-1-3.6-1.4
		c-1.2-0.4-2.5-0.6-3.8-0.8C306.8,258.9,306.2,258.9,305.6,258.9"/>
	<path class="st3" d="M291.6,292.3c1.3,0,2.4-1.4,2.4-3.2s-1.1-3.2-2.4-3.2s-2.4,1.4-2.4,3.2S290.2,292.3,291.6,292.3"/>
	<path class="st3" d="M311.2,292.4c1.3,0,2.4-1.4,2.4-3.2c0-1.8-1.1-3.2-2.4-3.2s-2.4,1.4-2.4,3.2
		C308.8,291,309.9,292.4,311.2,292.4"/>
	<path class="st3" d="M288.6,286c0,0.3,0.1,0.5,0.2,0.8c0.1,0.3,0.3,0.5,0.4,0.7c0.2,0.2,0.4,0.3,0.6,0.4c0.3,0.1,0.6,0.1,0.9,0.1
		c0.3,0,0.5-0.2,0.5-0.5c0-0.3-0.2-0.5-0.5-0.5c-0.1,0-0.2,0-0.3,0c-0.1,0-0.2,0-0.2-0.1c-0.1,0-0.1-0.1-0.2-0.1
		c-0.1,0-0.1-0.1-0.1-0.2c0-0.1-0.1-0.1-0.1-0.2c0-0.1-0.1-0.2-0.1-0.4c0,0,0,0,0-0.1c0-0.1,0-0.3-0.1-0.4c-0.1-0.1-0.2-0.1-0.4-0.1
		C288.9,285.5,288.6,285.8,288.6,286"/>
	<path class="st3" d="M313.7,286.2c0,0,0,0.1,0,0.1c0,0.1-0.1,0.2-0.1,0.3c-0.1,0.1-0.1,0.1-0.2,0.2c-0.1,0-0.1,0.1-0.2,0.1
		c-0.1,0.1-0.3,0.1-0.4,0.1c-0.3,0-0.4,0.4-0.3,0.6c0,0.1,0.1,0.2,0.2,0.3c0.1,0.1,0.3,0.1,0.4,0.1c0.4-0.1,0.7-0.2,1-0.5
		c0.2-0.1,0.3-0.3,0.4-0.5c0.1-0.2,0.2-0.4,0.3-0.6c0.1-0.3-0.1-0.5-0.4-0.6c0,0-0.1,0-0.1,0C313.9,285.8,313.7,286,313.7,286.2
		 M313.6,286.4C313.6,286.4,313.6,286.4,313.6,286.4C313.6,286.4,313.6,286.4,313.6,286.4 M313.4,286.7
		C313.3,286.7,313.3,286.8,313.4,286.7C313.3,286.8,313.3,286.7,313.4,286.7"/>
	<path class="st0" d="M291.1,278.6c-0.3,0.1-0.6,0.3-0.8,0.5c-0.3,0.2-0.5,0.4-0.7,0.6c-0.4,0.4-0.8,0.9-1.1,1.4
		c-0.4,0.5-0.7,1.1-1,1.6c-0.1,0.2,0,0.4,0.2,0.4c0.2,0.1,0.3,0,0.4-0.1c0.1-0.1,0.1-0.2,0.2-0.3c0,0,0,0-0.1,0.1
		c0.3-0.4,0.7-0.8,1.1-1.2c0.2-0.2,0.4-0.3,0.7-0.5c0.3-0.2,0.5-0.3,0.8-0.5c0.6-0.3,1.2-0.4,1.8-0.6c0.2,0,0.4-0.1,0.6-0.1
		c0.2,0,0.4-0.1,0.6-0.3c0.2-0.2,0.2-0.4,0.2-0.6c0-0.2-0.1-0.4-0.3-0.6c-0.2-0.2-0.4-0.2-0.6-0.2c0,0-0.1,0-0.1,0
		C292.2,278.2,291.7,278.4,291.1,278.6"/>
	<path class="st0" d="M309.8,277.9c-0.2,0-0.4,0.1-0.6,0.2c-0.3,0.1-0.5,0.2-0.7,0.4c-0.2,0.2-0.3,0.5-0.3,0.8
		c0,0.2,0.1,0.3,0.2,0.4c0.1,0.2,0.4,0.3,0.6,0.3c0.4,0,0.7-0.1,1.1-0.1c0.6,0,1.2,0,1.8,0.2c0.4,0.1,0.8,0.3,1.2,0.4
		c0.4,0.2,0.8,0.5,1.2,0.8c0.2,0.2,0.4,0.4,0.6,0.7c0.1,0.2,0.2,0.4,0.3,0.7c0.1,0.2,0.3,0.2,0.4,0.2c0.2-0.1,0.2-0.3,0.2-0.5
		c-0.5-1.4-1.4-2.6-2.6-3.5c-0.3-0.2-0.7-0.4-1-0.6c-0.4-0.2-0.8-0.3-1.1-0.3c-0.2,0-0.4,0-0.5,0C310.3,277.8,310,277.8,309.8,277.9
		 M313.1,280.4C313.1,280.4,313.1,280.4,313.1,280.4C313.1,280.4,313.1,280.4,313.1,280.4"/>
	<path class="st2" d="M300.4,286.9c0,0.2,0,0.3,0,0.5c0,0.3-0.1,0.6-0.2,0.9c-0.1,0.3-0.2,0.5-0.3,0.8c0,0,0,0,0,0c0,0,0,0,0,0
		c0,0,0,0,0,0c0,0,0,0,0,0c-0.5,1-1.1,1.9-1.7,2.8c-0.2,0.3-0.3,0.5-0.5,0.8c-0.1,0.2-0.2,0.4-0.3,0.6c-0.1,0.2-0.2,0.4-0.2,0.6
		c0,0.2-0.1,0.4-0.1,0.6c0,0.4,0,0.7,0.1,1.1c0.1,0.4,0.3,0.7,0.6,1c0.3,0.3,0.7,0.5,1.1,0.6c0.2,0.1,0.5,0.1,0.7,0.1
		c0.3,0,0.6,0,0.9,0c0.2,0,0.4-0.2,0.4-0.4c0-0.2-0.2-0.4-0.4-0.4c-0.2,0-0.5,0-0.7,0c-0.3,0-0.5-0.1-0.8-0.2
		c-0.2-0.1-0.3-0.2-0.5-0.3c-0.1-0.1-0.2-0.2-0.3-0.3c-0.1-0.1-0.2-0.2-0.2-0.4c-0.1-0.2-0.1-0.3-0.1-0.5c0-0.2,0-0.4,0-0.6
		c0.1-0.3,0.1-0.6,0.3-0.9c0.2-0.5,0.5-1,0.8-1.5c0.3-0.5,0.6-1,0.9-1.5c0.3-0.5,0.5-1,0.7-1.5c0.2-0.6,0.3-1.3,0.4-2
		c0-0.2-0.1-0.3-0.3-0.3C300.6,286.6,300.5,286.7,300.4,286.9 M298,294.8C298.1,294.9,298.1,294.9,298,294.8
		C298.1,294.9,298,294.9,298,294.8 M299.9,289.1C299.9,289.1,299.9,289.1,299.9,289.1C299.9,289.1,299.9,289.1,299.9,289.1
		C299.9,289.1,299.9,289.1,299.9,289.1"/>
	<path class="st2" d="M330.6,296.2c-0.2,0.1-0.2,0.3-0.1,0.5c0.1,0.1,0.1,0.3,0.2,0.4c0.1,0.3,0.2,0.6,0.3,0.9c0,0.4,0,0.8,0,1.2
		c0,0,0-0.1,0-0.1c-0.1,0.5-0.2,0.9-0.4,1.3c0,0,0,0,0,0c0,0,0,0,0,0.1c0,0,0,0,0,0c0,0,0,0,0,0c-0.2,0.4-0.4,0.7-0.6,1
		c-0.2,0.2-0.4,0.4-0.6,0.6c-0.2,0.1-0.3,0.2-0.5,0.3c-0.1,0.1-0.2,0.3-0.1,0.4c0.1,0.1,0.2,0.2,0.4,0.1c0.2-0.1,0.4-0.3,0.7-0.4
		c0.3-0.2,0.5-0.5,0.7-0.7c0.4-0.5,0.7-1.1,0.9-1.7c0.2-0.6,0.3-1.3,0.2-2c0-0.6-0.2-1.2-0.5-1.8c-0.1-0.1-0.2-0.2-0.3-0.2
		C330.8,296.1,330.7,296.1,330.6,296.2 M330.6,300.5L330.6,300.5L330.6,300.5C330.6,300.5,330.6,300.5,330.6,300.5"/>
	<path class="st2" d="M332.7,296c-0.2,0-0.4,0.1-0.6,0.2c-0.2,0.1-0.3,0.2-0.5,0.3c-0.2,0.2-0.3,0.4-0.4,0.6
		c-0.1,0.1-0.1,0.3,0.1,0.4c0.1,0.1,0.2,0.1,0.3,0.1c0.1,0,0.2,0,0.3-0.1c0.1-0.1,0.2-0.2,0.2-0.3c0.1-0.1,0.1-0.1,0.2-0.2
		c0.1-0.1,0.3-0.2,0.4-0.2c0.1-0.1,0.3-0.1,0.4-0.1c0.2,0,0.4,0,0.5,0c0.2,0,0.4,0.1,0.6,0.2c0.1,0.1,0.3,0.1,0.4,0.2
		c0.1,0.1,0.2,0.2,0.3,0.3c0.1,0.1,0.3,0.1,0.4,0c0.1-0.1,0.1-0.3,0-0.4c-0.3-0.3-0.6-0.5-0.9-0.7c-0.4-0.2-0.8-0.3-1.2-0.3
		c0,0-0.1,0-0.1,0C333,296,332.8,296,332.7,296"/>
	<path class="st3" d="M304.2,298.3c0,0.1,0,0.2,0,0.3c0,0.2-0.1,0.4-0.2,0.6c-0.1,0.2-0.2,0.4-0.3,0.5c-0.1,0.2-0.3,0.3-0.5,0.5
		c-0.2,0.2-0.5,0.3-0.7,0.4c-0.3,0.1-0.6,0.2-0.9,0.2c-0.3,0-0.6,0-0.9,0c-0.2,0-0.4-0.1-0.7-0.2c-0.2-0.1-0.4-0.2-0.5-0.3
		c-0.1-0.1-0.2-0.2-0.3-0.3c-0.1-0.2-0.2-0.3-0.3-0.5c-0.1-0.2-0.1-0.4-0.2-0.6c-0.1-0.3-0.4-0.4-0.6-0.3c-0.3,0.1-0.4,0.3-0.4,0.6
		c0.1,0.5,0.3,0.9,0.5,1.3c0.3,0.4,0.6,0.6,1,0.9c0.4,0.2,0.8,0.4,1.2,0.4c0.4,0.1,0.9,0.1,1.3,0c0.2,0,0.4-0.1,0.7-0.1
		c0.2-0.1,0.4-0.1,0.6-0.2c0.4-0.2,0.8-0.4,1.1-0.7c0.3-0.3,0.6-0.7,0.8-1c0.2-0.5,0.3-1,0.4-1.5c0-0.3-0.2-0.5-0.5-0.5
		C304.5,297.8,304.3,298.1,304.2,298.3 M304.2,298.7C304.2,298.7,304.2,298.7,304.2,298.7C304.2,298.7,304.2,298.7,304.2,298.7
		 M298.8,299.5C298.9,299.5,298.9,299.5,298.8,299.5C298.9,299.5,298.9,299.5,298.8,299.5 M303.8,299.7
		C303.8,299.7,303.8,299.8,303.8,299.7C303.8,299.8,303.8,299.7,303.8,299.7 M303.7,299.8C303.7,299.8,303.7,299.8,303.7,299.8
		C303.7,299.8,303.7,299.8,303.7,299.8 M301.7,300.9C301.7,300.9,301.7,300.9,301.7,300.9C301.7,300.9,301.7,300.9,301.7,300.9"/>
	<path class="st0" d="M309.5,252.8c-2.6,0-5.1,0.3-7.4,0.9c-3.1,0.8-5.7,2.3-7.3,4.3c-0.4-0.1-0.9-0.1-1.4-0.1c-1,0-2.2,0.2-3.3,0.5
		c-0.8,0.2-1.5,0.6-2.5,1c-0.8,0.4-1.6,0.9-2.4,1.4c-1.6,1.1-3,2.4-4.3,3.9c-1.3,1.5-2.3,3.1-3.1,4.8c-0.8,1.7-1.2,3.4-1.2,5.1
		c0,1.7,0.5,3.3,1.5,4.7c0.5,0.7,1,1.3,1.6,1.8c0.2,0.2,0.5,0.4,0.8,0.6c0.3,0.2,0.6,0.3,0.9,0.4c0.4,0.1,0.9,0.2,1.3,0.2
		c0.7,0,1.4-0.2,2.1-0.5c1.4-0.6,2.6-1.7,3.4-2.4c1-1,2-2.1,3.1-3.7c2-2.7,3.6-5.6,4.9-8.1l0.4-0.8c0.2-0.4,0.4-0.8,0.6-1.2
		c0.6,1.1,1.4,2.2,2.4,3.2c1.4,1.4,2.9,2.6,4.7,3.5c1.8,1,3.6,1.5,5.5,1.8c0.4,0.1,0.9,0.1,1.3,0.1c1.2,0,2.4-0.2,3.5-0.6
		c-0.1,1.7,0.1,3.5,0.6,5.5c0.5,2.2,1.4,4.3,2.5,6.4c1.1,2.1,2.5,3.9,4,5.4c0.8,0.8,1.6,1.4,2.4,2c0.9,0.6,1.8,1,2.7,1.2
		c0.6,0.2,1.3,0.2,2,0.2c0.1,0,0.2,0,0.3,0c0.4,0,0.8-0.1,1.2-0.1c0.4-0.1,0.8-0.2,1.3-0.3c1.6-0.5,3-1.6,3.8-2.9
		c0-0.1,0.1-0.1,0.1-0.2c0.8-1,1.5-2.1,2-3.2c0.6-1.1,1-2.3,1.4-3.7c0.7-2.4,0.9-5.1,0.8-8c-0.1-1.4-0.2-2.7-0.5-3.9
		c-0.2-1.2-0.6-2.3-1-3.4c-0.8-2.1-2.1-4-3.6-5.8c-0.8-0.9-1.6-1.7-2.5-2.4c-0.8-0.7-1.7-1.4-2.8-2.1c-1.8-1.2-3.9-2.2-6-3
		c-1.6-0.6-3.3-1-5.2-1.4c-2-0.4-4-0.7-6.2-0.8C311.1,252.8,310.3,252.8,309.5,252.8"/>
	<path class="st1" d="M259.4,404.6c-0.1,0-0.1,0-0.2,0c-0.1,0-0.1,0.1-0.1,0.2c0,0,0-0.1-0.1-0.1h0c-0.1,0-0.2,0-0.2,0
		c-0.2,0.1-0.4,0.2-0.6,0.4c-0.2,0.1-0.4,0.3-0.6,0.5c-0.3,0.3-0.6,0.8-0.9,1.3c-0.1,0.2-0.2,0.5-0.3,0.7c-0.1,0.3-0.1,0.5-0.2,0.8
		l0,0.1l0,0.1l0,0c-0.1,0.3-0.1,0.6-0.1,0.8c0,0.1,0,0.3,0,0.4c0,0.1,0.1,0.2,0.1,0.3c0.2,0.4,0.4,0.6,0.7,0.7
		c0.1,0,0.2,0.1,0.3,0.1c0.2,0,0.4-0.1,0.5-0.1c0.3-0.1,0.6-0.4,0.9-0.8c0.3-0.3,0.5-0.7,0.7-1.2c0.2-0.4,0.4-0.9,0.5-1.4
		c0.1-0.4,0.2-0.9,0.2-1.4c0-0.2,0-0.4-0.1-0.7c0-0.2-0.1-0.4-0.2-0.6C259.5,404.7,259.5,404.6,259.4,404.6"/>
	<path class="st1" d="M327,392.9c0,0.1,0.1,0.3,0.3,0.3c0.1,0,0.3-0.1,0.3-0.3c0-0.1-0.1-0.3-0.3-0.3
		C327.1,392.7,327,392.8,327,392.9"/>
	<path class="st4" d="M227.5,425.5c-0.1,0.1-0.1,0.2-0.1,0.3l-0.1,0.6l0,0.4l-0.1,0.7c-0.5,4.2-1.7,8.3-2.6,11.3
		c-1.2,4.1-2.5,8-3.9,11.7c-0.5,1.5-1.1,3-1.8,4.6c-0.2,0.3-0.3,0.8-0.5,1.2l-0.1,0.2l-0.2,0.5l-0.5,1.2c-0.4,1-0.9,2.1-1.4,3.2
		c-0.1,0.1-0.1,0.3,0,0.4c0,0.1,0,0.1,0.1,0.2c0.6,0.7,1.3,1.5,2.2,2.2c0.4,0.3,0.9,0.7,1.3,1l0.1,0.1l0.1,0.1
		c0.3,0.2,0.5,0.3,0.7,0.3l0.1,0l0.1,0c0,0,0,0-0.1,0l0.2,0.1c0,0,0.1,0,0.1,0c0.1,0,0.1,0,0.1,0l0.1,0c0.1-0.1,0.1-0.1,0.2-0.2
		c0.4-1,0.8-2.1,1.2-3.1l0.4-1.1l0.1-0.3l0.1-0.3l0.1-0.3l0.1-0.2c0.8-2,1.7-4.2,2.4-6.3c0.8-2,1.4-3.9,2.1-5.9l0.2-0.7l0.2-0.5
		c0.5-1.4,0.9-2.8,1.4-4.2c1.2-3.8,2.5-8.3,3-13c0-0.1,0-0.1,0-0.1c0,0,0-0.1-0.1-0.2l0,0l-0.1,0l-0.5-0.3c-0.6-0.4-1.2-0.8-1.8-1.3
		c-0.3-0.2-0.5-0.4-0.8-0.6c-0.7-0.6-1.4-1.1-2-1.6l-0.1-0.1l-0.1,0c-0.1,0-0.1,0-0.1,0C227.5,425.4,227.5,425.4,227.5,425.5"/>
	<path class="st5" d="M238.1,429.3c-0.2,0.5-0.3,0.9-0.4,1.3l-0.1,0.3l-0.1,0.2l0,0.1l0,0l0.1,0.1l0.2,0.1l0.2,0.1
		c0.4,0.2,0.7,0.3,1,0.5c1.5,0.6,3,1.2,4.6,1.8c2,0.8,4.4,1.6,7.2,2.5c1.7,0.6,3.4,1.1,5.1,1.7l0.5,0.2l0.7,0.2c0,0,0,0,0,0l0.1-0.1
		l0-0.2c0.1-0.5,0.2-0.9,0.3-1.2l0-0.2c0-0.2,0.1-0.4,0.1-0.6l0,0l-0.1-0.1c-0.2-0.1-0.3-0.1-0.4-0.1c0,0,0,0,0,0
		c-0.3-0.1-0.5-0.1-0.7-0.2c-0.1,0-0.2-0.1-0.3-0.1c-0.1,0-0.1,0-0.2-0.1c-1.3-0.4-2.5-0.9-3.7-1.3c-2-0.7-4-1.4-6-2.1l-1.4-0.5
		l-1.4-0.5l-1.1-0.4l-2-0.7l-1.1-0.4L238.1,429.3C238.1,429.3,238.1,429.3,238.1,429.3"/>
	<path class="st5" d="M227.7,425.3L227.7,425.3l0.2,0.2c0.6,0.5,1.2,1,2,1.6c0.3,0.2,0.5,0.4,0.8,0.6c0.6,0.5,1.2,0.9,1.8,1.3
		l0.5,0.3l0.1,0c0,0,0,0,0,0l0,0c0,0,0,0,0,0l0.2,0.1c0.4,0.2,0.7,0.3,1.1,0.5l0.1,0.1c0.1,0.1,0.3,0.1,0.4,0.2
		c0.3,0.1,0.6,0.3,1,0.4l0.1,0l0.3,0.1l0,0c0.1-0.2,0.1-0.3,0.2-0.5l0.1-0.4l0.1-0.2l0.1-0.5l0-0.3l0,0l-0.2-0.1
		c-0.1,0-0.3-0.1-0.4-0.1l0,0c0,0,0,0,0,0l-0.6-0.2l-0.6-0.3v0l-0.3-0.1l-0.3-0.1c-1.9-0.7-3.9-1.5-5.5-2.2l-0.4-0.2
		c0,0-0.1,0-0.1-0.1c-0.1,0-0.1,0-0.1,0l-0.3-0.1C227.9,425.3,227.8,425.3,227.7,425.3L227.7,425.3z"/>
	<path class="st5" d="M259,437l-0.1,0.3l-0.1,0.3l-0.1,0.3l-0.1,0.2l-0.1,0.4l0,0.3l0,0l0,0l0.4,0.2l0.8,0.2l0.3,0.1l1,0.3l0.5,0.1
		l1.4,0.4l0-0.1l0,0c-0.6-0.5-1.3-1-2.1-1.6C260.2,438,259.6,437.5,259,437L259,437C259,437,259,437,259,437"/>
	<path class="st6" d="M233.1,429.3L233.1,429.3c0,0.1,0,0.1,0.1,0.2c0,0,0,0.1,0,0.1c-0.5,4.7-1.8,9.2-3,13
		c-0.4,1.4-0.9,2.8-1.4,4.2l-0.2,0.5l-0.2,0.7c-0.6,1.9-1.3,3.9-2.1,5.9c-0.8,2.1-1.6,4.2-2.4,6.3l-0.1,0.2l-0.1,0.3l-0.1,0.3
		l-0.1,0.3l-0.4,1.1c-0.4,1-0.8,2.1-1.2,3.1c0,0.1-0.1,0.1-0.2,0.2l-0.1,0c0,0-0.1,0-0.1,0c-0.1,0-0.1,0-0.1,0l-0.2-0.1
		c0.4,0.3,0.9,0.5,1.6,0.7c0.4,0.1,0.7,0.3,1.1,0.4l0.1,0c0.6,0.2,1.2,0.4,1.8,0.6l0.7,0.2l0.5,0.2c1.2,0.4,2.4,0.8,3.6,1.2l1.2,0.4
		l1.1,0.4l1.7,0.5l1.3,0.4l0.7,0.2l0.7,0.2l0.2,0.1c0.5,0.1,0.9,0.3,1.4,0.4l2.8,0.9c4.1,1.3,8.4,2.6,12.7,3.3c0,0,0.1,0,0.1,0
		c0,0,0.1,0,0.1-0.1c0,0,0.1,0,0.1,0c0.1-0.1,0.2-0.2,0.2-0.3c0.1-1.1,0.2-2.1,0.3-3.1c0.1-0.9,0.3-1.9,0.5-3.1
		c0.4-2,0.8-3.9,1.3-6.1c0.4-1.6,0.7-3.1,1.1-4.7l0.3-1.4l0.1-0.4l0.1-0.4c0.2-0.7,0.3-1.4,0.5-2.2c0.2-1,0.5-2,0.8-3
		c0.7-2.8,1.5-5.3,2.4-7.7c0.3-0.8,0.6-1.6,0.9-2.4c0-0.1,0.1-0.2,0-0.3c0-0.2-0.1-0.4-0.2-0.5l-1.5-0.5l-0.5-0.1l-1-0.3l-0.3-0.1
		l-0.8-0.2l-0.4-0.2l-0.1,0.1l0,0l-0.1,0.5l0,0.2l0,0.1l0,0.2l0,0.2l0,0.1l-0.1,0.2l-0.1,0.2l0,0.2l-0.3,0.9l-0.3,0.9l-0.1,0.3
		l-0.1,0.2l0,0.1l0,0.1l0,0.1c-0.1,0.2-0.1,0.3-0.2,0.3c0,0-0.1,0.1-0.2,0.1c-0.1,0-0.3,0-0.4,0c-0.1,0-0.2-0.1-0.2-0.1
		c-0.1-0.1-0.2-0.2-0.2-0.4c0-0.1,0-0.2,0-0.3l0.1-0.2l0-0.1c0-0.1,0-0.2,0.1-0.2l0-0.1c0.2-0.7,0.4-1.4,0.6-2.1l0.1-0.3l0.1-0.2
		l0-0.1l0-0.1l0-0.1l0-0.1l0-0.2l0-0.2l0.1-0.2c0-0.1,0-0.1,0-0.2l-0.7-0.2l-0.5-0.2c-1.7-0.6-3.4-1.1-5.1-1.7
		c-2.9-1-5.2-1.8-7.2-2.5c-1.7-0.6-3.2-1.2-4.6-1.8c-0.3-0.1-0.6-0.3-1-0.5l-0.2-0.1l-0.2-0.1l-0.1,0l0,0.1c0,0.1-0.1,0.2-0.1,0.3
		l-0.1,0.2l-0.1,0.2c-0.1,0.5-0.3,1.1-0.4,1.7c-0.2,0.7-0.3,1.5-0.4,2.2c-0.1,0.2-0.1,0.3-0.3,0.5l-0.1,0c-0.1,0-0.2,0-0.3,0
		l-0.1-0.1c-0.1-0.1-0.3-0.2-0.4-0.3c0,0,0-0.1,0-0.1c0-0.1,0-0.2,0-0.3l0.2-0.8c0.1-0.4,0.2-0.9,0.3-1.3l0.1-0.3l0.1-0.3l0.1-0.2
		c0.1-0.6,0.3-1.2,0.4-1.7l0-0.2l-0.3-0.1l-0.1,0c-0.4-0.2-0.7-0.3-1-0.4c-0.1-0.1-0.2-0.1-0.4-0.2l-0.1-0.1
		c-0.4-0.2-0.7-0.3-1.1-0.5L233.1,429.3C233.1,429.3,233.1,429.3,233.1,429.3"/>
	<path class="st7" d="M250.7,403.6c-0.6,0.2-1.2,0.4-1.9,0.8c-1.2,0.7-2.4,1.7-3.6,3c-1,1.1-2,2.4-3,3.9c-1.7,2.6-3.3,5.7-4.7,9.2
		c-1,2.4-1.9,5-2.6,7.6l0.6,0.3l0.6,0.2c1.7-5.5,3.7-10.4,6-14.5c1.7-2.9,3.3-5,5.1-6.7c0.8-0.8,1.6-1.3,2.4-1.8l0.3-0.2
		c0.4-0.2,0.8-0.4,1.2-0.5l0.1,0l0.2-0.1c0.5-0.1,0.8-0.1,1.2-0.1c-0.3,0-0.7,0.1-1,0.2c-0.3,0.1-0.5,0.2-0.8,0.3l-0.1,0
		c-1.1,0.5-2.1,1.2-3,2.1c-0.8,0.7-1.4,1.5-2.1,2.3l-0.1,0.1l-0.2,0.3c-1.7,2.2-3.3,5-4.9,8.3c-1.4,3-2.6,6.4-3.6,10l-0.1,0.2
		l-0.1,0.2l0,0.3l-0.1,0.5l-0.1,0.2l-0.1,0.4c0,0.1-0.1,0.3-0.2,0.5l0,0.2c-0.2,0.6-0.3,1.2-0.4,1.7l-0.1,0.2l-0.1,0.3l-0.1,0.3
		c-0.1,0.4-0.2,0.9-0.3,1.3l-0.2,0.8c0,0.1,0,0.2,0,0.3c0,0,0,0.1,0,0.1c0.1,0.2,0.2,0.3,0.4,0.3l0.1,0.1c0.1,0,0.2,0,0.3,0l0.1-0.1
		c0.2-0.1,0.2-0.2,0.3-0.4c0.1-0.7,0.3-1.5,0.4-2.2c0.1-0.6,0.3-1.1,0.4-1.7l0-0.2l0.1-0.2c0-0.1,0.1-0.2,0.1-0.3l0-0.2l0.1-0.2
		l0.1-0.3c0.1-0.4,0.2-0.9,0.4-1.3c0.7-2.4,1.4-4.7,2.3-6.9c1.1-2.8,2.3-5.3,3.6-7.5c0.8-1.4,1.6-2.6,2.5-3.8l0.1-0.2l0.2-0.2
		c0.7-0.8,1.3-1.5,1.9-2c0.9-0.8,1.7-1.4,2.6-1.9l0.2-0.1l0.1,0c0.3-0.1,0.6-0.2,0.9-0.3c0.1,0,0.2-0.1,0.4-0.1l0.1,0l0.2,0l0.2,0
		c0.2,0,0.4,0,0.6,0c0.3,0,0.7,0.1,1,0.2c0.3,0.1,0.5,0.2,0.8,0.4c0.2,0.1,0.4,0.3,0.6,0.5l0.2,0.4l0.2,0.4c0.2,0.5,0.4,1,0.6,1.5
		c0.1,0.4,0.2,0.7,0.3,1.1l0,0.1c0.5,2.1,0.8,4.5,0.9,7.4c0,2.8-0.2,5.7-0.6,8.7c-0.2,1.7-0.6,3.5-1,5.3l0,0.1l-0.1,0.4
		c-0.1,0.4-0.2,0.9-0.3,1.3l-0.1,0.2l0,0.1c-0.1,0.2-0.1,0.4-0.1,0.6c0,0.1-0.1,0.2-0.1,0.3l0,0.1c0.2,0.2,0.3,0.2,0.5,0.3
		c0.2,0.1,0.5,0.1,0.7,0.2c0.1-0.4,0.2-0.8,0.3-1.2c0,0,0-0.1,0-0.1c0.2-0.7,0.3-1.3,0.4-1.9c0.4-1.8,0.7-3.6,1-5.3l0-0.2
		c0.3-2.4,0.5-4.5,0.6-6.6c0,3.4-0.3,6.8-0.9,10.6c-0.1,0.9-0.3,1.7-0.4,2.5c-0.1,0.5-0.2,1-0.3,1.6l-0.1,0.3l0,0.2l-0.1,0.3
		c0,0.2-0.1,0.4-0.1,0.6l0,0.2c-0.1,0.4-0.2,0.7-0.3,1.2l0,0.2l-0.1,0.1c0,0.1,0,0.1,0,0.2l-0.1,0.2l0,0.2l0,0.2l0,0.1l0,0.1l0,0.1
		l0,0.1l-0.1,0.2l-0.1,0.3c-0.2,0.7-0.4,1.4-0.6,2.1l0,0.2c0,0,0,0.1-0.1,0.2l0,0.1l-0.1,0.2c0,0.1,0,0.2,0,0.3
		c0,0.1,0.1,0.2,0.2,0.4c0.1,0.1,0.1,0.1,0.2,0.1c0.1,0,0.3,0,0.4,0c0.1,0,0.1,0,0.2-0.1c0.1-0.1,0.2-0.2,0.2-0.3l0-0.1l0-0.1l0-0.1
		l0.1-0.2l0.1-0.3l0.3-0.9l0.3-0.9l0-0.2l0.1-0.2l0.1-0.2l0-0.1l0-0.2l0-0.2l0-0.1l0-0.2l0.1-0.5l0.1-0.2l0-0.3l0.1-0.4l0.1-0.2
		l0.1-0.3l0.1-0.3l0.1-0.3c0.1-0.2,0.1-0.4,0.1-0.5l0-0.2l0.1-0.6c0.1-0.6,0.2-1.1,0.3-1.6c0.2-0.8,0.3-1.6,0.4-2.3
		c0.5-2.9,0.7-5.6,0.8-8.2c0.1-3.1,0-5.9-0.4-8.5c-0.2-1.1-0.4-2.2-0.7-3.1l-0.1-0.3c-0.1-0.4-0.3-0.8-0.4-1.3
		c-0.6-1.6-1.3-2.8-2.2-3.8c-0.1-0.2-0.2-0.4-0.4-0.6c-0.2-0.3-0.5-0.6-0.8-0.9c-0.2-0.2-0.5-0.5-0.9-0.8c-0.1-0.1-0.3-0.2-0.4-0.2
		c-0.2-0.1-0.4-0.2-0.6-0.3c-0.4-0.1-0.7-0.2-1.1-0.3c-0.6-0.1-1.2,0-1.9,0.1L250.7,403.6C250.8,403.6,250.7,403.6,250.7,403.6"/>
	<path class="st8" d="M252.7,407.1l-0.1,0.1l-0.1,0.1l-0.1,0c-0.7,0.4-1.3,1-2.1,1.6c-1.3,1.2-2.4,2.7-3.4,4.6
		c-0.8,1.5-1.6,3.2-2.2,5.1c-1.1,3.3-1.9,6.9-2.3,11c-0.3,2.8-0.4,5.6-0.3,8.4l0,0l0.9,0l0.9-0.1l0,0c-0.2-6,0.5-11.5,1.8-16.6
		c1-3.5,2.2-6.3,3.8-8.8l0-0.1c0.7-1.1,1.5-2,2.3-2.8l0.3-0.3c0.5-0.4,1-0.8,1.5-1.1l0.1,0c0.1-0.1,0.2-0.1,0.2-0.1l0.1,0
		c0.5-0.3,1-0.4,1.4-0.6l0.1,0l-0.1,0c-0.8,0.3-1.5,0.8-2.1,1.3l-0.1,0.1l-0.1,0.1c-1.1,1-2.1,2-3,3.3l0,0.1c-0.6,1-1.2,2-1.8,3.1
		l-0.1,0.1l-0.2,0.4c-1.3,3-2.3,6.3-2.9,10.2c-0.5,3.5-0.8,7.3-0.6,11.2l0,0.2l0,0.2l0,0l0.1,0.3l0,0.5l0,0.3l0,0.4
		c0,0.2,0,0.3,0,0.5c0,0,0,0,0,0l0,0l0,0.1l0,0.1c0.1,0.7,0.1,1.4,0.2,2.1l0,0.3l0,0.3c0.1,0.7,0.2,1.5,0.3,2.2
		c0,0.2,0.1,0.3,0.3,0.4c0.2,0.1,0.4,0.2,0.6,0.1l0.1,0c0,0,0.1,0,0.1,0c0.1,0,0.1,0,0.2-0.1c0.1,0,0.1-0.1,0.2-0.1
		c0-0.1,0.1-0.1,0.1-0.2c0.1-0.1,0.1-0.2,0.1-0.4c-0.1-0.8-0.2-1.5-0.3-2.3c-0.1-0.6-0.1-1.2-0.2-1.8c0-0.3,0-0.5,0-0.8c0,0,0,0,0,0
		c0,0,0,0,0,0c0,0,0,0,0,0l0-0.1l0-0.2l0-0.4c0-0.4-0.1-0.9,0-1.4c0,0,0,0,0,0c-0.1-2.5-0.1-5.1,0.1-7.6c0.3-3.2,0.8-6.1,1.5-8.8
		c0.5-1.7,1-3.3,1.7-4.8l0.1-0.2l0.1-0.3c0.5-1.1,1-2,1.6-2.8c0.8-1.2,1.6-2.2,2.5-3l0.1-0.1l0.1-0.1l0.1-0.1c0.5-0.4,0.9-0.7,1.4-1
		l0.1-0.1l0.3-0.1l0.1,0l0.2-0.1c0.3-0.1,0.5-0.2,0.7-0.3c0.4-0.1,0.9-0.2,1.3-0.2c0.4,0,0.8,0,1.3,0c0.3,0,0.7,0.1,1.1,0.2
		c0.1,0.1,0.3,0.2,0.4,0.3c0.2,0.1,0.3,0.2,0.5,0.3c0.5,0.4,0.9,0.8,1.4,1.2c0.3,0.3,0.6,0.6,0.8,0.9l0.1,0.1
		c1.6,1.8,2.9,3.9,4.1,6.6c1.1,2.7,2,5.5,2.7,8.6c0.4,1.8,0.7,3.7,1,5.5l0,0.1l0.1,0.4c0,0.5,0.1,0.9,0.1,1.4l0,0.2l0,0.2
		c0,0.2,0,0.4,0.1,0.6c0,0.1,0,0.3,0,0.4l0,0.1c0,0,0,0,0,0c0.5,0,1-0.1,1.6-0.2l0.1,0l0,0c0-0.4,0-0.8-0.1-1.2c0,0,0-0.1,0-0.1
		l0-0.1c0-0.6-0.1-1.3-0.2-1.9c-0.2-1.9-0.5-3.7-0.9-5.5l0-0.2c-0.6-2.7-1.4-5.1-2.3-7.4c0.1,0.1,0.1,0.3,0.2,0.4l0.1,0.2l0,0.1
		c1.4,3.2,2.5,6.7,3.3,10.6c0.2,0.9,0.3,1.7,0.4,2.6c0.1,0.6,0.2,1.1,0.2,1.6c0,0.2,0,0.4,0.1,0.6l0,0.3c0,0,0,0,0,0l0.1,0.5l0,0.1
		l0,0.2c0,0.4,0.1,0.8,0.1,1.3l0,0.2l0,0.2l0,0c0,0,0,0.1,0.1,0.3l0,0.2l0,0.2l0,0.2l0,0.1l0,0.1l0,0.1l0,0.1l0,0.2l0,0.3
		c0,0.8,0.1,1.5,0.1,2.3l0,0.2l0,0.2l0,0.2l0,0.1l0,0.1c0,0.2,0.2,0.4,0.5,0.5c0.2,0,0.2,0.1,0.3,0.1c0,0,0.1,0,0.1,0
		c0.1,0,0.1,0,0.2,0c0.2-0.1,0.4-0.2,0.5-0.3c0.1-0.1,0.1-0.2,0.1-0.3l0-0.1l0-0.1l0-0.1l0-0.1l0-0.3l0-0.3c0-0.7,0-1.3,0-2l0-0.2
		l0-0.2v-0.1l0-0.2l0-0.2l0-0.2l0-0.2l0-0.2l0-0.2l0-0.5l0-0.1l0-0.1l0,0l-0.1-0.3l-0.1-0.7l0-0.3l0-0.3l0-0.3l0,0
		c0-0.2,0-0.5-0.1-0.7c0,0,0-0.1,0-0.1l-0.1-0.6c0,0,0-0.1,0-0.1c-0.1-0.5-0.1-1.1-0.2-1.6c-0.1-0.8-0.3-1.6-0.4-2.4l0-0.1
		c-0.6-2.9-1.3-5.6-2.3-8.1c-1.1-3-2.4-5.6-3.9-7.9c-0.7-1-1.3-1.8-2.1-2.7l-0.2-0.3c-0.3-0.3-0.7-0.7-1.1-1
		c-1.4-1.2-2.9-2.1-4.4-2.5c-0.2-0.1-0.5-0.3-0.8-0.4c-0.4-0.2-0.9-0.4-1.4-0.5c-0.4-0.1-0.9-0.2-1.5-0.3c-0.2,0-0.4,0-0.6,0
		c-0.3,0-0.5,0-0.8,0c-0.5,0-1,0.1-1.5,0.3c-0.1,0-0.1,0-0.2,0.1C254.2,406.4,253.4,406.7,252.7,407.1"/>
	<path class="st9" d="M231.4,439c-0.1,0.1-0.1,0.2-0.1,0.3l0.2,0.7l0.3,1c1,4.3,1.2,8.6,1.3,12c0.1,4.5,0,8.8-0.2,12.9
		c-0.1,1.6-0.2,3.4-0.4,5.2l0-0.1l0,0c-0.1,0.5-0.2,1-0.3,1.4l0,0.2l-0.1,0.6l-0.2,1.3c-0.1,1.1-0.3,2.5-0.5,3.7
		c0,0.1,0,0.3,0.2,0.4c0,0.1,0.1,0.1,0.2,0.1c1,0.4,2.3,0.8,3.7,1c0.8,0.1,1.5,0.2,2.1,0.3c0.1,0,0.2,0,0.3,0l0.2,0c0.5,0,0.8,0,1,0
		l0.1,0l0,0h0l0,0l0.1,0l0.1,0l0.1,0l0.1-0.1l0.2,0c0.1,0,0.1,0,0.2-0.1c0.1-0.1,0.1-0.2,0.1-0.3c0.1-1.2,0.2-2.4,0.3-3.6l0.1-1.2
		l0-0.4l0-0.3l0-0.4l0-0.4c0.2-2.3,0.4-4.6,0.6-6.9c0.2-2.2,0.3-4.3,0.3-6.6l0-0.8l0-0.2c0-1.7,0.1-3.4,0.1-5.1
		c0-4.2-0.2-9-1.5-13.8l0-0.1l-0.1-0.1l0,0l-0.1,0l-0.1,0l-0.7-0.1c-0.8-0.1-1.7-0.2-2.5-0.3l-0.4-0.1l-0.2,0l-0.5-0.1l-0.6-0.1
		c-1.1-0.2-2.2-0.4-3-0.6l-0.1,0l-0.1,0l-0.2,0l0,0l0,0C231.5,438.9,231.4,438.9,231.4,439"/>
	<path class="st10" d="M246.5,437.7c0,0.5,0,1,0,1.4l0,0.4l0,0.2l0,0.1c0,0,0,0,0,0c0,0,0,0,0,0l0,0c0,0,0.1,0,0.1,0
		c0.1,0,0.2,0,0.3,0l0.4,0l0.1,0c0.5,0,1,0,1.5-0.1c2.3-0.1,4.4-0.3,6.7-0.5c2.7-0.2,6-0.5,10.4-1c2.4-0.3,4.8-0.5,7.3-0.8l0.7-0.1
		l1-0.1l0-0.2l0-0.2c0-0.5-0.1-0.9-0.1-1.3l0-0.2l0-0.1l-0.1-0.5c-0.3,0-0.6,0.1-0.8,0.1l-0.1,0c-0.6,0.1-1.1,0.2-1.6,0.2
		c-1.8,0.2-3.6,0.4-5.3,0.5c-2.9,0.3-5.8,0.5-8.6,0.8l-1.4,0.1l-2.8,0.3l-0.1,0l-1.5,0.1l-0.1,0l-2.8,0.3l-1.9,0.2L246.5,437.7
		C246.6,437.7,246.5,437.7,246.5,437.7"/>
	<path class="st10" d="M231.6,438.8L231.6,438.8L231.6,438.8l0.3,0l0.1,0l0.1,0c0.9,0.2,1.9,0.4,3,0.6l0.6,0.1l0.5,0.1l0.2,0
		l0.4,0.1c0.9,0.1,1.7,0.2,2.5,0.3l0.7,0.1l0.1,0l0.1,0l0,0l0,0c0,0,0,0,0,0l0.3,0l0.1,0c0.5,0,0.9,0,1.5,0l0.2,0l0.2,0l0.3,0
		c0.5,0,1,0,1.5-0.1l0.2,0l0.4,0c0-0.2,0-0.4,0-0.5l0-0.4l0-0.3l0-0.5l-0.1-0.3l-0.3,0c-0.2,0-0.4,0-0.5,0.1L243,438l-0.9,0l-0.4,0
		l-0.4,0c-2.8,0.2-5.6,0.4-8,0.5l-0.6,0l-0.1,0c-0.1,0-0.2,0-0.2,0l-0.5,0c0,0-0.1,0-0.1,0C231.7,438.7,231.6,438.7,231.6,438.8"/>
	<path class="st10" d="M276.7,435.1L276.7,435.1l0,0.3l0,0.3l0,0.3l0.1,0.7l0.1,0.3h0l0,0l0.2,0l0.6-0.1l1.1-0.1l0.5,0l0.2,0
		l1.2-0.1l0.1,0l0.5-0.1l2-0.2h0c0,0-0.1,0-0.1,0c-1-0.2-2.2-0.3-3.4-0.6C278.7,435.5,277.7,435.3,276.7,435.1L276.7,435.1z"/>
	<path class="st11" d="M240.1,440.1L240.1,440.1l0.2,0.2l0,0.1c1.3,4.7,1.5,9.6,1.5,13.8c0,1.7,0,3.4-0.1,5.1l0,0.2l0,0.8
		c0,2.2-0.1,4.4-0.3,6.6c-0.2,2.2-0.4,4.5-0.6,6.9l0,0.4l0,0.4l0,0.3l0,0.4l-0.1,1.2c-0.1,1.2-0.2,2.4-0.3,3.6c0,0.1,0,0.2-0.1,0.3
		c-0.1,0-0.1,0.1-0.2,0.1l-0.2,0l-0.1,0.1l-0.1,0l-0.1,0l-0.1,0l0,0c0.7,0,1.4,0,2.4-0.1c0.6,0,1.2-0.1,1.7-0.2
		c1.4-0.2,2.8-0.3,4.3-0.5c1.7-0.2,3.4-0.4,5.1-0.6l1.7-0.2l1.6-0.2l2.4-0.3l1.9-0.2l1-0.1l1-0.1l0.1,0l0.2,0c0.7-0.1,1.3-0.2,2-0.2
		l4-0.5c5.8-0.7,11.9-1.5,17.8-2.8c0.1,0,0.2-0.1,0.3-0.2c0,0,0,0,0,0c0.1,0,0.2-0.1,0.2-0.1c0.1-0.1,0.1-0.2,0.1-0.3
		c-0.3-1.2-0.6-2.1-0.8-3.1c-0.2-1-0.4-2-0.6-3.1c-0.3-2.1-0.6-4.1-0.8-6.4c-0.2-1.7-0.4-3.3-0.5-5l-0.1-1.5l0-0.5l0-0.4
		c-0.1-0.8-0.2-1.6-0.2-2.3c-0.1-1.1-0.2-2.1-0.2-3.2c-0.2-2.9-0.2-5.8-0.1-8.4c0-0.9,0.1-1.8,0.2-2.8c0-0.1,0-0.2-0.1-0.3
		c-0.1-0.2-0.3-0.3-0.5-0.3l-0.1,0l-2,0.2l-0.5,0.1l-0.1,0l-1.2,0.1l-0.2,0l-0.5,0l-1.1,0.1l-0.6,0.1l-0.2,0l-0.1,0.2l0,0.5l0,0.2
		l0,0.2l0,0.2l0,0.2l0,0.2l0,0.2l0,0.1l0,0.2l0,0.2c0,0.7,0,1.3,0,2l0,0.3l0,0.3l0,0.1l0,0.1l0,0.1l0,0.1c0,0.1,0,0.2-0.1,0.3
		c-0.1,0.1-0.3,0.2-0.5,0.3c-0.1,0-0.1,0-0.2,0c0,0-0.1,0-0.1,0c-0.1,0-0.1,0-0.3-0.1c-0.3-0.1-0.4-0.3-0.5-0.5l0-0.1l0-0.1l0-0.2
		l0-0.2l0-0.2c0-0.8,0-1.5-0.1-2.3l0-0.3l0-0.2l0-0.1l0-0.1l0-0.1l0-0.1l0-0.2l0-0.2l0-0.2c0-0.2,0-0.2-0.1-0.3l-1.1,0.1l-0.7,0.1
		c-2.5,0.3-4.9,0.6-7.3,0.8c-4.4,0.5-7.6,0.8-10.4,1c-2.2,0.2-4.4,0.3-6.7,0.4c-0.5,0-1,0-1.5,0.1l-0.1,0l-0.4,0c-0.1,0-0.2,0-0.3,0
		c0,0-0.1,0-0.1,0c0,0,0,0,0,0h0c0,0,0,0,0,0c0,0,0,0,0,0c0,0.3,0,0.5,0,0.8c0,0.6,0.1,1.2,0.2,1.8c0.1,0.8,0.2,1.5,0.3,2.3
		c0,0.2,0,0.3-0.1,0.4c0,0-0.1,0.1-0.1,0.2c0,0-0.1,0.1-0.2,0.1c-0.1,0-0.1,0.1-0.2,0.1c0,0-0.1,0-0.1,0l-0.1,0
		c-0.2,0-0.4,0-0.6-0.1c-0.2-0.1-0.2-0.2-0.3-0.4c-0.1-0.7-0.2-1.5-0.3-2.2l0-0.3l0-0.3c-0.1-0.7-0.1-1.4-0.2-2.1l0-0.1l0-0.1
		l-0.4,0l-0.2,0c-0.6,0-1.1,0.1-1.5,0.1l-0.3,0l-0.2,0l-0.2,0c-0.6,0-1.1,0-1.5,0l-0.1,0L240.1,440.1
		C240.1,440.1,240.1,440.1,240.1,440.1"/>
	<path class="st1" d="M320.8,433.8c-0.9,0-1.7,0-2.6,0.1c-2.2,0.1-4.3,0.4-6.3,0.8c-2.1,0.4-3.8,1-5.4,1.7c-0.1,0-0.1,0.1-0.2,0.1
		c-0.2,0.1-0.3,0.3-0.3,0.5c0.6,5.8,1.5,10.8,2.6,15.4c1.4,5.4,3.2,10.1,5.5,14.3c1.3,2.3,2.7,4.4,4.3,6.4c1.6,2,3.4,3.9,5.5,5.7
		c2,1.7,4.3,3.5,6.9,5.3c2.3,1.6,4.7,3.1,7.5,4.7c3.7,2.1,7.8,4.2,12.4,6.3c2,0.9,4,1.8,6.2,2.7c0.7,0.3,1.4,0.6,2.1,0.9
		c1.5,0.6,3,1.2,4.5,1.9c-0.1,0.4-0.3,0.7-0.4,1.1l-0.1,0.4c-0.3,0.8-0.6,1.6-0.8,2.4c-0.3,1-0.6,1.9-0.7,2.7
		c-0.2,1-0.3,1.8-0.3,2.5c0,0.8,0.1,1.4,0.4,2c0.3,0.5,0.9,0.9,1.5,1c0.1,0,0.2,0,0.3,0c0.3,0,0.5,0,0.7-0.1c0.3-0.1,0.6-0.3,1-0.6
		c0.7-0.6,1.3-1.3,1.7-1.9c1-1.5,1.8-3.2,2.5-4.9c0.1-0.3,0.2-0.5,0.4-0.8l0.3-0.6c0.4-0.8,0.7-1.6,1-2.3c0.3-0.8,0.6-1.6,0.7-2.4
		c0.2-0.8,0.3-1.6,0.3-2.5c0-0.1,0-0.2-0.1-0.2c0-0.2-0.1-0.3-0.2-0.4c-4.8-2.8-9.5-5.7-14-8.8c-2.4-1.6-4.6-3.3-6.6-5
		c-1.9-1.6-3.9-3.3-5.8-5.1l0,0c-4-3.9-7.1-7.8-9.5-11.7c-0.8-1.3-1.5-2.7-2.1-4c-0.6-1.4-1.2-2.8-1.6-4.5
		c-1.4-5.1-1.6-10.3-1.7-15.3l0,0.1c0-1.3,0-2.6,0-3.9l0-2.1c0.1-0.1,0.1-0.3,0-0.4c-0.1-0.1-0.2-0.2-0.3-0.3
		c-1.7-0.4-3.5-0.7-5.5-0.9C323.3,433.9,322.1,433.8,320.8,433.8"/>
	<path class="st2" d="M282.3,434.5c-0.2,0-0.3,0-0.5,0c-0.2,0-0.4,0-0.5,0c-0.3,0-0.5,0.3-0.5,0.6l0,0.1l-0.1,3.7
		c-0.3,12.1-0.7,24.2-1.1,36.2c-0.1,3.3-0.2,6.6-0.3,9.9l-0.1,3.1l0,0.5c-0.1,2.2-0.1,4.3-0.2,6.4c-0.1,5.2-0.2,10.5-0.2,15.6l0,0.3
		l0,0.3l0,3.7c0,4.7-0.1,9.3-0.2,14l-0.4,0.1l-0.7,0.2l-0.2,0.1c-0.7,0.2-1.4,0.4-2.1,0.7c-0.9,0.3-1.6,0.6-2.2,0.9
		c-0.8,0.4-1.4,0.7-1.9,1.1c-0.6,0.4-1,0.8-1.2,1.3c-0.1,0.2-0.2,0.5-0.2,0.8c0,0.3,0.1,0.5,0.3,0.8c0.2,0.3,0.4,0.5,0.6,0.7
		c0.4,0.3,0.8,0.6,1.1,0.7c0.8,0.4,1.7,0.7,2.9,0.9c0.8,0.1,1.7,0.2,2.7,0.2l0.5,0c1,0,2-0.1,3.3-0.2c2.1-0.2,4.1-0.6,6.5-1
		c0.1,0,0.3-0.2,0.3-0.3c0,0,0-0.1,0.1-0.1c0.2-0.1,0.2-0.2,0.2-0.4c0.3-1.3,0.5-2.7,0.8-4l0.1-0.4l0-0.1l0.1-0.3
		c0.1-0.7,0.3-1.5,0.4-2.2l0.2-1.1l0.3-1.6l0.9-4.9l0.9-4.8c1.2-6.5,2.4-13,3.7-19.6c0.6-3.3,1.2-6.5,1.9-9.8l0.7-3.7
		c0.4-2,0.8-4,1.2-6c1.3-6.8,2.5-13.8,3.5-19.5l0.6-3.6c0.8-4.7,1.6-9.3,2.5-14c0-0.2-0.1-0.4-0.3-0.5c-1.7-1.4-3.8-2.1-5.5-2.6
		c-2.3-0.6-4.7-0.9-6.9-1.2c-1-0.1-2.1-0.2-3.1-0.3l-0.2,0l-0.2,0l-0.2,0l-0.1,0c-0.1,0-0.2,0-0.3,0l-0.2,0l-0.6-0.1
		c-0.6-0.1-1.2-0.1-1.8-0.2l-0.4,0l-0.2,0C284.7,434.6,283.5,434.5,282.3,434.5"/>
	<path class="st12" d="M275.6,529.2C275.6,529.2,275.6,529.2,275.6,529.2c-0.9,0.1-1.6,0.3-2.4,0.5l-0.1,0c-1.4,0.3-2.9,0.6-4.3,1
		c-1.8,0.5-3.3,0.9-4.7,1.4c-1.2,0.4-2.5,1-3.8,1.8c-1.1,0.7-1.6,1.4-1.5,2.2c0,0.4,0.2,0.8,0.5,1.1c0.5,0.5,1.2,0.9,2.1,1.2
		c1,0.3,2.1,0.5,3,0.6c1.1,0.1,2.2,0.2,3.2,0.2c0.4,0,0.7,0,1.1,0l0.8,0l0.8,0c0.8,0,1.6,0,2.4,0c0.5,0,1.1,0,1.6,0
		c0.8,0,1.5,0,2.3,0c1.4,0,2.9,0,4.3,0c2.4-0.1,4.7-0.2,6.9-0.4c0.1,0,0.3-0.1,0.3-0.2c0,0,0.1-0.1,0.1-0.2c0.1-0.3,0.2-0.6,0.3-0.9
		c0.1-0.3,0.2-0.7,0.3-1.2c0-0.3,0.1-0.6,0.1-1c0-0.3,0-0.7-0.1-1.1c0-0.2-0.3-0.4-0.5-0.4l-0.1,0l0,0c-3.4,0.9-6,1.4-8.5,1.4l0.1,0
		l-0.3,0c-0.4,0-0.8,0-1.2,0c0-0.9-0.2-1.9-0.5-2.9c-0.4-1.2-1-2.2-1.8-2.9c0,0-0.1-0.1-0.1-0.1
		C275.9,529.3,275.8,529.2,275.6,529.2"/>
	<path class="st13" d="M259.4,537.3c0.5,0.5,1.2,0.9,2.1,1.2c1,0.3,2.1,0.5,3,0.6c1.1,0.1,2.2,0.1,3.2,0.2c0.4,0,0.7,0,1.1,0l0.8,0
		h0.8c0.8,0,1.6,0,2.4,0l0.9,0l0.7,0c0.8,0,1.6,0,2.3,0c1.4,0,2.9,0,4.3,0c2.4-0.1,4.6-0.2,6.9-0.4c0.1,0,0.3-0.1,0.3-0.2
		c0.1,0,0.1-0.1,0.1-0.2c0.1-0.3,0.2-0.6,0.3-0.8c-0.5,0.1-1,0.1-1.5,0.2c-0.6,0-1.2,0.1-1.8,0.1c-0.6,0-1.2,0.1-1.8,0.1
		c-1.4,0.1-2.9,0.2-4.3,0.2c-1.4,0.1-2.8,0.1-4.2,0.1c-2.8,0-5.6,0-8.4-0.2C264.1,537.8,261.7,537.6,259.4,537.3L259.4,537.3z"/>
	<path class="st12" d="M361.4,505.1C361.4,505.1,361.4,505.2,361.4,505.1c-0.2,0.8-0.3,1.6-0.5,2.4l0,0.1c-0.2,1.4-0.5,2.9-0.6,4.4
		c-0.2,1.8-0.4,3.4-0.4,4.9c0,1.2-0.1,2.7,0.2,4.1c0.2,1.2,0.7,2,1.5,2.2c0.4,0.1,0.8,0.1,1.3-0.1c0.6-0.3,1.2-0.8,1.9-1.5
		c0.7-0.8,1.2-1.8,1.6-2.5c0.5-1,1-2,1.3-2.9c0.1-0.3,0.3-0.7,0.4-1l0.3-0.7l0.3-0.7c0.3-0.8,0.6-1.5,0.9-2.3c0.2-0.5,0.4-1,0.6-1.5
		c0.3-0.7,0.6-1.4,0.9-2.1c0.5-1.3,1.1-2.7,1.6-4c0.8-2.3,1.6-4.4,2.2-6.5c0-0.1,0-0.3-0.1-0.4c0-0.1,0-0.1-0.1-0.2
		c-0.2-0.2-0.5-0.4-0.7-0.6c-0.3-0.2-0.6-0.5-1-0.7c-0.3-0.2-0.5-0.3-0.9-0.4c-0.3-0.1-0.6-0.2-1.1-0.3c-0.2,0-0.5,0.1-0.5,0.3
		l0,0.1l0,0c-0.4,3.5-1,6.1-1.8,8.4l0.1-0.1l-0.1,0.3c-0.2,0.4-0.3,0.7-0.5,1.1c-0.9-0.3-1.9-0.5-2.9-0.6c-1.2-0.1-2.4,0.1-3.3,0.6
		c0,0-0.1,0.1-0.1,0.1C361.5,504.9,361.4,505,361.4,505.1"/>
	<path class="st13" d="M362.8,523.3c0.6-0.3,1.2-0.8,1.9-1.5c0.7-0.8,1.2-1.8,1.6-2.5c0.5-1,1-2,1.3-2.9c0.1-0.3,0.3-0.7,0.4-1
		l0.3-0.7l0.3-0.7c0.3-0.8,0.6-1.5,0.9-2.3l0.3-0.8l0.3-0.7c0.3-0.8,0.6-1.4,0.9-2.1c0.5-1.3,1.1-2.7,1.6-4c0.8-2.3,1.5-4.4,2.2-6.5
		c0-0.1,0-0.3-0.1-0.4c0-0.1,0-0.2-0.1-0.2c-0.2-0.2-0.4-0.4-0.7-0.6c-0.1,0.5-0.2,1-0.4,1.5c-0.2,0.6-0.4,1.2-0.6,1.7
		c-0.2,0.6-0.4,1.1-0.6,1.7c-0.4,1.4-0.9,2.8-1.4,4.1c-0.5,1.3-0.9,2.6-1.4,3.9c-1,2.6-2.1,5.2-3.3,7.7
		C365.1,519,364,521.2,362.8,523.3L362.8,523.3z"/>
	<path class="st1" d="M358,406.2c0,0-0.1,0-0.1,0c-0.1,0-0.2,0.1-0.3,0.2c-0.1,0.1-0.1,0.3-0.1,0.4c0.1,0.3,0.1,0.6,0.2,0.9
		c0,0.5,0,1,0,1.5c0,0.5,0,1,0,1.5c0,0.5,0.1,0.9,0.3,1.3c0.1,0.2,0.2,0.5,0.3,0.7c0.1,0.2,0.3,0.4,0.5,0.6c0.3,0.3,0.6,0.6,0.9,0.8
		c0.3,0.2,0.6,0.3,1,0.3c0,0,0,0,0,0c0.3,0,0.6-0.1,0.8-0.2c0.1-0.1,0.3-0.2,0.4-0.3c0.1-0.1,0.2-0.3,0.3-0.4
		c0.1-0.1,0.1-0.3,0.2-0.4c0.1-0.2,0.1-0.4,0.2-0.5c0.1-0.4,0.1-0.8,0-1.3c0-0.3-0.1-0.6-0.3-1c-0.1-0.4-0.3-0.7-0.5-1.1
		c-0.2-0.4-0.4-0.7-0.6-0.9c-0.2-0.3-0.5-0.6-0.8-0.8c-0.3-0.2-0.7-0.4-1-0.4c-0.1,0-0.2,0-0.4,0c-0.2,0-0.3,0-0.5,0.1
		c0-0.2-0.1-0.3-0.1-0.5C358.5,406.4,358.3,406.2,358,406.2"/>
	<path class="st14" d="M343.9,439.8l0.1,0l0.1,0c0.8,0.1,1.8,0.1,2.9,0.2c0.4,0,0.8,0,1.1,0c0.9,0,1.7,0,2.6,0l0.6,0l0.1,0
		c0,0,0.1,0,0.1,0l0,0l0,0l0,0l0.1,0l0,0c0,0,0,0,0.1,0.1c0,0,0,0.1,0.1,0.1c1.6,4,2.3,8.3,2.7,12c0.2,1.5,0.3,3.1,0.5,4.6l0.1,0.7
		c0.2,1.9,0.3,3.8,0.4,5.8c0.1,2.2,0.2,4.5,0.2,6.4l0,0.1l0,0.3l0,0.3l0,0.3l0,1.1c0,1.1,0.1,2.1,0.1,3.2c0,0.1,0,0.1-0.1,0.2
		c0,0-0.1,0.1-0.1,0.1c-0.1,0-0.1,0-0.2,0.1c-0.1,0-0.1,0.1-0.2,0.1c-0.1,0-0.1,0-0.2,0l-0.1,0c0,0,0,0-0.1,0l-0.1,0h0
		c-0.2,0-0.5,0.1-0.8,0.1c-0.2,0-0.4,0-0.5,0c-0.6,0-1.2,0-1.9,0c-1.3-0.1-2.4-0.3-3.4-0.5c-0.1,0-0.1-0.1-0.2-0.1
		c-0.1-0.1-0.2-0.2-0.2-0.3c0.1-1.1,0.1-2.3,0.1-3.3l0-1.2l0-0.6l0-0.2c0-0.4,0-0.9,0-1.3l0,0.1c-0.1-1.6-0.1-3.2-0.2-4.6
		c-0.2-3.6-0.6-7.5-1.2-11.4c-0.4-2.9-1.1-6.8-2.4-10.5l0,0.1c-0.2-0.5-0.4-1-0.6-1.5c0-0.1,0-0.2,0-0.3
		C343.7,439.9,343.8,439.8,343.9,439.8C343.9,439.8,343.9,439.8,343.9,439.8"/>
	<path class="st15" d="M389.1,432.2c0.2,0,0.4,0.1,0.5,0.2c0.1,0.1,0.1,0.1,0.1,0.2c0,0.8,0.1,1.6,0.1,2.4c0.2,2.3,0.5,4.8,0.9,7.4
		c0.2,0.9,0.3,1.9,0.5,2.8c0.1,0.7,0.3,1.3,0.4,2l0.1,0.4l0.1,0.4l0.3,1.3c0.3,1.4,0.6,2.9,1,4.3c0.5,2.1,0.9,3.8,1.4,5.6
		c0.3,1,0.5,1.9,0.8,2.7c0.3,0.9,0.6,1.7,1,2.6c0,0.1,0,0.2-0.1,0.3c-0.1,0.1-0.1,0.1-0.2,0.1c0,0.1-0.1,0.1-0.2,0.2
		c-5,1.8-10.3,3.2-15.3,4.4l-3.5,0.8c-0.6,0.1-1.1,0.3-1.7,0.4l-0.2,0l-0.1,0l-0.9,0.2l-0.9,0.2l-1.6,0.4l-2.1,0.5l-1.4,0.3
		l-1.4,0.3l-0.1,0c-1.5,0.4-3,0.7-4.5,1.1c-1.2,0.3-2.5,0.6-3.7,0.9c-0.5,0.1-1,0.2-1.5,0.3c-0.9,0.2-1.5,0.3-2.1,0.3l0.1,0
		c0.1,0,0.1,0,0.2,0c0.1,0,0.1,0,0.2-0.1c0.1,0,0.1,0,0.2-0.1c0,0,0.1,0,0.1-0.1c0.1-0.1,0.1-0.2,0.1-0.2c0-1.1-0.1-2.1-0.1-3.2
		l0-1.1l0-0.3l0-0.3l0-0.3l0-0.1c0-1.9-0.1-4.2-0.2-6.4c-0.1-2-0.2-3.9-0.4-5.8l-0.1-0.7c-0.2-1.5-0.3-3.1-0.5-4.6
		c-0.4-3.7-1.1-7.9-2.7-12c0,0,0-0.1-0.1-0.1c0,0,0,0-0.1-0.1l0,0l-0.1,0l0.1,0l0.2,0l0.1,0c0.4,0,0.8-0.1,1.3-0.2l0.2,0
		c0.2,0,0.3,0,0.5-0.1c0.4,0,0.8-0.1,1.3-0.2l0.2,0l0.4-0.1v0l0,0.1l0,0.1c0.1,0.6,0.3,1.3,0.4,1.8l0.1,0.2l0.1,0.3
		c0.2,0.6,0.3,1.3,0.5,1.9c0,0.1,0.1,0.2,0.2,0.3c0.2,0.1,0.4,0.1,0.6,0.1l0.1,0c0.2,0,0.3-0.1,0.4-0.3c0.1-0.2,0.2-0.3,0.1-0.4
		l0-0.1c-0.2-0.7-0.4-1.3-0.5-2c-0.1-0.5-0.2-1.1-0.3-1.6c0-0.2-0.1-0.4-0.1-0.7l0.2,0c0,0,0.1,0,0.1,0l0.3-0.1l0.1,0
		c0.4-0.1,0.9-0.1,1.3-0.2c1.9-0.3,3.8-0.7,5.8-1.1c2.6-0.5,5.5-1.2,9-2c2.1-0.5,4.2-1,6.3-1.5l0.6-0.1l0.8-0.2l0.1,0v0
		c0,0,0,0.1,0.1,0.1l0,0.1l0,0.2l0,0.2l0,0.2l0,0.1l0,0.1l0,0.1l0,0.1l0,0.1l0,0.1l0.1,0.3c0.1,0.7,0.2,1.3,0.3,2l0,0.1
		c0,0,0,0.1,0,0.2c0,0,0,0.1,0,0.2l0,0.1l0,0l0,0c0.1,0.2,0.2,0.4,0.5,0.4c0.1,0,0.2,0,0.3,0c0,0,0.1,0,0.1,0c0.2,0,0.5-0.2,0.6-0.4
		c0.1-0.1,0.1-0.2,0.1-0.3l0-0.1l0-0.1l0-0.1l0-0.1l0-0.2l0-0.2c-0.1-0.6-0.2-1.2-0.2-1.7l0-0.1l0-0.1l0-0.1l0-0.1l0-0.1l0-0.1
		l0-0.1l0-0.2l0-0.2l0-0.1l0-0.2l-0.1-0.4l0-0.2l0.3-0.1c0.1,0,0.2-0.1,0.4-0.1l1-0.2l0.4-0.1c0.4-0.1,0.8-0.2,1.2-0.3l0.1,0
		l0.5-0.1l1.2-0.3L389.1,432.2L389.1,432.2z"/>
	<path class="st16" d="M381.5,431.8c0.1,0.2,0.1,0.5,0.2,0.7c0.1,0.3,0.2,0.7,0.2,1.1l0,0.1l0,0.1l0,0.1l-0.9,0.2l-0.6,0.1
		c-2.1,0.5-4.2,1-6.3,1.5c-3.5,0.8-6.5,1.4-9,2c-2,0.4-4,0.8-5.8,1.1c-0.4,0.1-0.9,0.1-1.3,0.2l-0.1,0l-0.3,0.1c-0.1,0-0.3,0-0.4,0
		c0,0,0,0,0,0l-0.1-0.1l0-0.2l0-0.2l0-0.1c-0.1-0.4-0.1-0.8-0.2-1.3c1-0.2,1.9-0.4,2.9-0.6l2.4-0.5l0.1,0l1.3-0.3l0.1,0
		c1.2-0.3,2.4-0.5,3.6-0.8c2.5-0.5,5-1.1,7.5-1.6c1.5-0.3,3-0.6,4.6-1l0,0c0.4-0.1,0.8-0.2,1.4-0.3l0.1,0c0,0,0,0,0,0c0,0,0,0,0,0v0
		C381.1,431.9,381.3,431.9,381.5,431.8L381.5,431.8L381.5,431.8z"/>
	<path class="st16" d="M344.7,439.5C344.7,439.5,344.8,439.5,344.7,439.5l0.6-0.1c2.1-0.4,4.6-0.8,7-1.3l0.3-0.1l0.3-0.1
		c0,0,0,0,0,0l0.8-0.1l0.8-0.2c0,0,0,0,0,0c0.2,0,0.3-0.1,0.5-0.1c0.1,0,0.2,0,0.3,0l0,0l0.1,0.3l0.1,0.5l0,0.2l0.1,0.4
		c0,0.2,0.1,0.3,0.1,0.5l-0.4,0.1l-0.2,0c-0.5,0.1-0.9,0.2-1.3,0.2c-0.2,0-0.3,0-0.5,0.1l-0.2,0c-0.5,0.1-0.9,0.1-1.3,0.2l-0.1,0
		l-0.2,0c0,0-0.1,0-0.1,0l-0.1,0l-0.6,0c-0.8,0-1.7,0-2.6,0c-0.4,0-0.8,0-1.1,0c-1,0-2-0.1-2.9-0.2l-0.1,0l-0.1,0c0,0-0.1,0-0.1,0
		c0.1-0.1,0.2-0.1,0.3-0.2l0.4-0.1C344.5,439.5,344.6,439.5,344.7,439.5L344.7,439.5z"/>
	<path class="st16" d="M385.9,432.1c1.1,0.1,2.1,0.1,3,0.2c0,0,0.1,0,0.1,0l-1.7,0.4l-0.5,0.1l-0.1,0c-0.4,0.1-0.8,0.2-1.2,0.3
		l-0.4,0.1l-1,0.2c-0.2,0-0.4,0.1-0.6,0.1l-0.1-0.3l-0.1-0.6l-0.1-0.3l-0.1-0.3l0-0.3C384,431.9,385,432,385.9,432.1"/>
	<path class="st8" d="M362.5,408.1c0.3-0.1,0.5-0.1,0.7-0.1c0.2,0,0.4,0,0.6,0c0.6,0,1,0,1.4,0.1c0.5,0.1,0.9,0.2,1.3,0.3
		c0.3,0.1,0.5,0.2,0.7,0.3c1.4,0.3,2.8,0.8,4.1,1.8c0.4,0.3,0.7,0.5,1.1,0.8l0.2,0.2c0.8,0.7,1.5,1.4,2.1,2.1c1.6,1.8,3,3.9,4.3,6.5
		c1.1,2.1,2,4.4,2.8,6.9l0,0.1c0.2,0.7,0.4,1.4,0.6,2.1c0.1,0.4,0.2,0.9,0.4,1.4c0,0,0,0.1,0,0.1l0.1,0.5c0,0,0,0,0,0.1
		c0,0.2,0.1,0.4,0.1,0.6l0,0.3l0.1,0.3l0.1,0.3l0.1,0.6l0.1,0.3l0,0.2l0.1,0.4l0,0.2l0,0.1l0,0.2l0,0.2l0,0.1l0,0.1l0,0.1l0,0.1
		l0,0.1l0,0.1l0,0.1c0.1,0.6,0.2,1.2,0.2,1.7l0,0.2l0,0.2l0,0.1l0,0.1l0,0.1l0,0.1c0,0.1,0,0.2-0.1,0.3c-0.1,0.2-0.3,0.3-0.6,0.4
		c0,0-0.1,0-0.1,0c-0.1,0-0.1,0-0.3,0c-0.2-0.1-0.4-0.2-0.5-0.4l0,0l0,0l0-0.1c0-0.1,0-0.1,0-0.2c0-0.1,0-0.1,0-0.2l0-0.1
		c-0.1-0.7-0.2-1.4-0.3-2l-0.1-0.3l0-0.1l0-0.1l0-0.1l0-0.1l0-0.1l0-0.1l0-0.2l0-0.2l0-0.2l0-0.1c0,0,0-0.1-0.1-0.1l0-0.1l0-0.1
		l0-0.1c-0.1-0.4-0.2-0.8-0.2-1.1c-0.1-0.2-0.1-0.4-0.2-0.7l-0.1-0.2c0-0.2-0.1-0.3-0.1-0.5c-0.1-0.5-0.2-0.9-0.4-1.4
		c-0.2-0.7-0.4-1.5-0.7-2.2c-1.1-3.4-2.4-6.3-4-9l0-0.1l-0.1-0.2c-0.1-0.1-0.1-0.2-0.2-0.3c1.1,1.9,2,3.9,2.8,6.3l0.1,0.2
		c0.5,1.5,1,3.1,1.4,4.7c0.1,0.5,0.3,1.1,0.4,1.7l0,0.1c0,0,0,0.1,0,0.1c0.1,0.4,0.1,0.7,0.2,1.1c-0.6,0.2-1,0.3-1.5,0.4l-0.1-0.1
		c0-0.1,0-0.2-0.1-0.4c0-0.2-0.1-0.4-0.1-0.6l0-0.1l0-0.2c-0.1-0.4-0.2-0.8-0.3-1.2l-0.1-0.4l0-0.1c-0.4-1.6-0.9-3.2-1.4-4.8
		c-0.9-2.7-2-5-3.3-7.3c-1.4-2.2-2.7-4-4.3-5.4l-0.1-0.1c-0.3-0.2-0.5-0.4-0.8-0.7c-0.4-0.3-0.9-0.6-1.3-0.9
		c-0.1-0.1-0.3-0.2-0.4-0.2c-0.1-0.1-0.3-0.1-0.4-0.2c-0.3-0.1-0.7-0.1-0.9-0.1c-0.4,0-0.8,0-1.1,0.1c-0.4,0.1-0.8,0.2-1.1,0.4
		c-0.2,0.1-0.4,0.2-0.6,0.3l-0.1,0.1l-0.1,0.1l-0.2,0.1l-0.1,0.1c-0.4,0.3-0.8,0.6-1.2,1l-0.1,0.1l-0.1,0.1l-0.1,0.1
		c-0.7,0.8-1.3,1.7-1.9,2.9c-0.4,0.8-0.7,1.6-1.1,2.7l-0.1,0.3l-0.1,0.2c-0.4,1.4-0.7,2.8-1,4.4c-0.4,2.5-0.5,5.1-0.4,7.9
		c0.1,2.3,0.3,4.5,0.7,6.7c0,0.5,0.1,0.9,0.2,1.3l0,0.1l0,0.2l0,0.2l0,0.1c0,0.3,0.1,0.5,0.1,0.7c0.1,0.5,0.2,1,0.3,1.6
		c0.2,0.7,0.3,1.3,0.5,2l0,0.1c0,0.1,0,0.3-0.1,0.5c-0.1,0.1-0.3,0.2-0.4,0.3l-0.1,0c-0.2,0-0.4,0-0.6-0.1c-0.1-0.1-0.2-0.2-0.2-0.3
		c-0.2-0.6-0.3-1.3-0.5-1.9l-0.1-0.3l-0.1-0.2c-0.1-0.6-0.3-1.2-0.4-1.8l0-0.1l0-0.1c0-0.2,0-0.3-0.1-0.5l-0.1-0.4l0-0.2l-0.1-0.5
		l-0.1-0.3l0-0.2l0-0.2c-0.5-3.4-0.8-6.8-0.6-9.9c0.1-3.5,0.6-6.5,1.5-9.3l0.1-0.3l0-0.1c0.4-1.1,0.8-2,1.2-2.9l0-0.1
		c0.6-1.2,1.4-2.3,2.3-3.2l0.1-0.1l0.1-0.1c0.5-0.5,1.1-1,1.7-1.4l0.1,0l-0.1,0c-0.4,0.2-0.8,0.4-1.2,0.7l-0.1,0
		c-0.1,0-0.1,0.1-0.2,0.2l-0.1,0c-0.4,0.3-0.8,0.7-1.2,1.1l-0.3,0.3c-0.6,0.8-1.2,1.6-1.7,2.7l0,0.1c-1.1,2.3-1.9,4.9-2.4,8.1
		c-0.7,4.6-0.6,9.5,0.1,14.8l-0.8,0.2L353,438c-0.4-2.5-0.6-5-0.7-7.4c-0.1-3.6,0.2-6.9,0.9-9.9c0.4-1.8,0.8-3.3,1.4-4.7
		c0.7-1.8,1.5-3.2,2.5-4.4c0.6-0.7,1.1-1.2,1.6-1.6l0.1,0l0.1-0.1l0.1-0.1c0.7-0.5,1.3-0.9,2-1.1C361.6,408.3,362,408.2,362.5,408.1
		"/>
	<path class="st1" d="M324,327.3c-0.3,0-0.5,0-0.8,0c-0.1,0-0.2,0.1-0.3,0.2c-0.1,0.1-0.1,0.3-0.1,0.4c0,0,0,0.1,0,0.1
		c-0.9,1.7-1.6,3.7-2,6.3c-0.4,2.3-0.5,4.8-0.5,7.5c0,1.2,0.1,2.3,0.2,3.2c0.1,0.7,0.3,1.5,0.6,2.4c0.4,1,0.8,1.8,1.4,2.5
		c0.6,0.7,1.3,1.2,2.1,1.3c0.1,0,0.2,0,0.3,0c0.2,0,0.3,0,0.5,0l0.3,0.4l0.2,0.2c0.3,0.3,0.6,0.7,1,1c0.4,0.4,0.7,0.8,1,1.4
		c1.3,2.2,2.1,4.6,2.9,6.9l0.3,0.8c0.5,1.5,1,2.9,1.5,4.1c0.6,1.4,1.1,2.9,1.7,4.3c2.4,5.8,5.2,11.3,8.1,16.6c1,1.8,2.1,3.6,3.4,5.6
		c1.3,2,2.4,3.7,3.5,5.3c2.8,3.9,5.4,6.9,8.1,9.3c0.1,0.2,0.3,0.4,0.5,0.5c0.3,0.2,0.6,0.4,0.8,0.6c0.2,0.1,0.4,0.2,0.6,0.3
		c0.3,0.2,0.7,0.4,1,0.6c0.2,0.1,0.3,0.3,0.5,0.5c0.1,0.2,0.2,0.3,0.3,0.5c0.1,0.2,0.1,0.4,0.2,0.6c0,0.5,0,1-0.1,1.5
		c0,0.2,0,0.3-0.1,0.5c0,0.4,0,0.7,0,1c0.1,0.3,0.2,0.6,0.4,1c0.1,0.2,0.3,0.4,0.4,0.5c0.2,0.2,0.4,0.3,0.6,0.4
		c0.1,0,0.3,0.1,0.4,0.1l0.1,0c0.2,0,0.4-0.1,0.7-0.2c0.2-0.1,0.3-0.2,0.4-0.3c0.2,0.2,0.4,0.3,0.6,0.4c0.2,0.1,0.3,0.1,0.5,0.1
		c0.1,0,0.2,0,0.4,0c0.2-0.1,0.5-0.2,0.7-0.5c0.1-0.1,0.2-0.2,0.3-0.3c0.2,0,0.3,0,0.5,0c0.1,0,0.2,0,0.3,0c0.3,0,0.6-0.1,0.8-0.3
		c0.4-0.2,0.7-0.6,0.9-1.2c0.1-0.3,0.1-0.6,0.2-0.8c0-0.3,0-0.6,0-0.9c0-0.6-0.1-1.2-0.3-1.9c-0.1-0.5-0.3-1.1-0.6-1.6
		c-0.1-0.2-0.2-0.4-0.4-0.6c-0.3-0.4-0.6-0.7-0.9-0.9c-0.7-0.6-1.6-1.1-2.6-1.5c-0.4-0.2-0.9-0.3-1.5-0.4c-0.3-0.1-0.6-0.1-0.9-0.2
		c-0.3,0-0.5-0.1-0.8-0.1c-0.7-0.9-1.3-1.9-1.9-2.9c-2.9-4.8-4.8-10.1-6.5-15.1c-0.6-1.7-1.1-3.5-1.7-5.2l-0.8-2.5
		c-0.3-0.9-0.6-1.9-0.9-2.8l-0.4-1.3l-1.5-4.6c-2.1-6.2-4.1-12.2-6.3-18.1c-1.1-3.1-2.3-6.1-3.6-8.9c-0.9-2.2-1.8-4.3-2.9-6.3
		c-1.5-2.9-3-5-4.7-6.6c-1-0.9-2.1-1.6-3.2-2.1C326.2,327.5,325.1,327.3,324,327.3"/>
	<path class="st2" d="M359.4,408.5c-0.1,0-0.3,0.1-0.3,0.3c0,0.1,0.1,0.3,0.3,0.3c0.1,0,0.2,0,0.2,0c0.1,0,0.2,0,0.2,0.1
		c0.1,0,0.2,0.1,0.3,0.1c0.1,0.1,0.2,0.1,0.2,0.2c0.1,0.2,0.2,0.4,0.3,0.6l0-0.1c0.2,0.5,0.3,1,0.4,1.5c0,0,0,0,0-0.1
		c0,0.3,0.1,0.7,0.1,1c0,0.1,0.1,0.3,0.3,0.3c0.1,0,0.3-0.1,0.3-0.3c0-0.4,0-0.8-0.1-1.2c-0.1-0.5-0.2-0.9-0.4-1.4
		c-0.2-0.4-0.4-0.7-0.7-1c-0.1-0.1-0.3-0.2-0.4-0.2c-0.1,0-0.2-0.1-0.3-0.1C359.7,408.6,359.6,408.5,359.4,408.5
		C359.4,408.5,359.4,408.5,359.4,408.5 M359.6,409.1C359.7,409.1,359.7,409.1,359.6,409.1C359.7,409.1,359.7,409.1,359.6,409.1"/>
	<path class="st1" d="M293.7,324.4c0.3,0,0.5,0,0.8,0c0.1,0,0.2,0.1,0.3,0.2c0.1,0.1,0.1,0.3,0.1,0.4c0,0,0,0.1,0,0.1
		c0.9,1.7,1.6,3.7,2,6.3c0.4,2.3,0.5,4.8,0.5,7.5c0,1.2-0.1,2.3-0.2,3.2c-0.1,0.7-0.3,1.5-0.6,2.4c-0.4,1-0.8,1.8-1.4,2.5
		c-0.6,0.7-1.3,1.2-2.1,1.3c-0.1,0-0.2,0-0.3,0c-0.2,0-0.3,0-0.5,0l-0.3,0.4l-0.2,0.2c-0.3,0.3-0.6,0.7-1,1c-0.4,0.4-0.7,0.8-1,1.4
		c-1.3,2.2-2.1,4.6-2.9,6.9l-0.3,0.8c-0.5,1.5-1,2.9-1.5,4.1c-0.6,1.4-1.1,2.9-1.7,4.3c-2.4,5.8-5.2,11.3-8.1,16.6
		c-1,1.8-2.1,3.6-3.4,5.6c-1.3,2-2.4,3.7-3.5,5.3c-2.8,3.9-5.4,6.9-8.1,9.3c-0.1,0.2-0.3,0.4-0.5,0.5c-0.3,0.2-0.6,0.4-0.8,0.6
		c-0.2,0.1-0.4,0.2-0.6,0.3c-0.3,0.2-0.7,0.4-1,0.6c-0.2,0.1-0.3,0.3-0.5,0.5c-0.1,0.2-0.2,0.3-0.3,0.5c-0.1,0.2-0.1,0.4-0.2,0.6
		c0,0.5,0,1,0.1,1.5c0,0.2,0,0.3,0.1,0.5c0,0.4,0,0.7,0,1c-0.1,0.3-0.2,0.6-0.4,1c-0.1,0.2-0.3,0.4-0.4,0.5
		c-0.2,0.2-0.4,0.3-0.6,0.4c-0.1,0-0.3,0.1-0.4,0.1l-0.1,0c-0.2,0-0.4-0.1-0.7-0.2c-0.2-0.1-0.3-0.2-0.4-0.3
		c-0.2,0.2-0.4,0.3-0.6,0.4c-0.2,0.1-0.3,0.1-0.5,0.1c-0.1,0-0.2,0-0.4,0c-0.2-0.1-0.5-0.2-0.7-0.5c-0.1-0.1-0.2-0.2-0.3-0.3
		c-0.2,0-0.3,0-0.5,0c-0.1,0-0.2,0-0.3,0c-0.3,0-0.6-0.1-0.8-0.3c-0.4-0.2-0.7-0.6-0.9-1.2c-0.1-0.3-0.1-0.6-0.2-0.8
		c0-0.3,0-0.6,0-0.9c0-0.6,0.1-1.2,0.3-1.9c0.1-0.5,0.3-1.1,0.6-1.6c0.1-0.2,0.2-0.4,0.4-0.6c0.3-0.4,0.6-0.7,0.9-0.9
		c0.7-0.6,1.6-1.1,2.6-1.5c0.4-0.2,0.9-0.3,1.5-0.4c0.3-0.1,0.6-0.1,0.9-0.2c0.3,0,0.5-0.1,0.8-0.1c0.7-0.9,1.3-1.9,1.9-2.9
		c2.9-4.8,4.8-10.1,6.5-15.1c0.6-1.7,1.1-3.5,1.7-5.2l0.8-2.5c0.3-0.9,0.6-1.9,0.9-2.8l0.4-1.3l1.5-4.6c2.1-6.2,4.1-12.2,6.3-18.1
		c1.1-3.1,2.3-6.1,3.6-8.9c0.9-2.2,1.8-4.3,2.9-6.3c1.5-2.9,3-5,4.7-6.6c1-0.9,2.1-1.6,3.2-2.1C291.5,324.6,292.6,324.4,293.7,324.4
		"/>
	<path class="st2" d="M258.3,405.7c0.1,0,0.3,0.1,0.3,0.3c0,0.1-0.1,0.3-0.3,0.3c-0.1,0-0.2,0-0.2,0c-0.1,0-0.2,0-0.2,0.1
		c-0.1,0-0.2,0.1-0.3,0.1c-0.1,0.1-0.2,0.1-0.2,0.2c-0.1,0.2-0.2,0.4-0.3,0.6l0-0.1c-0.2,0.5-0.3,1-0.4,1.5c0,0,0,0,0-0.1
		c0,0.3-0.1,0.7-0.1,1c0,0.1-0.1,0.3-0.3,0.3c-0.1,0-0.3-0.1-0.3-0.3c0-0.4,0-0.8,0.1-1.2c0.1-0.5,0.2-0.9,0.4-1.4
		c0.2-0.4,0.4-0.7,0.7-1c0.1-0.1,0.3-0.2,0.4-0.2c0.1,0,0.2-0.1,0.3-0.1C258.1,405.7,258.2,405.7,258.3,405.7
		C258.3,405.7,258.3,405.7,258.3,405.7 M258.1,406.2C258.1,406.2,258,406.2,258.1,406.2C258,406.2,258.1,406.2,258.1,406.2"/>
	<path class="st17" d="M295.1,323.3L295.1,323.3L295.1,323.3c-0.2,0-0.3,0.1-0.4,0.2c-2.6,3-5.1,6.2-7.5,9.3l-0.1,0.1l-0.2,0.3
		c-1.3,1.7-2.7,3.4-4.1,5.2c-0.2,0.3-0.4,0.5-0.6,0.8l-0.2,0.3l-0.5,0.6c-0.4,0.6-0.8,1.2-1.3,1.8c-0.7,1.1-1.3,2.3-1.7,3.6
		c-0.8,2.3-1.2,4.9-1.1,7.7c0.1,2.6,0.5,5.3,1.3,8.4c0.6,2.1,1.4,4.3,2,6c0.3,0.9,0.6,1.7,0.9,2.6c0.6,1.8,1.4,4.3,1.8,6.8
		c-0.2,1.8-0.5,3.6-0.9,5.6c-1.3,6-3.3,12-5.2,17.7l-0.1,0.3c-0.5,1.4-1,2.9-1.4,4.3l-0.2,0.5l-0.2,0.5c-1.4,4.3-2.9,8.7-4.4,13
		c-0.8,2.2-1.6,4.3-2.4,6.3c-0.8,2-1.6,4.1-2.7,6.1l0.1-0.1c-0.1,0.2-0.2,0.3-0.3,0.5l-0.2,0.3c-0.1,0.1-0.1,0.2-0.1,0.4
		c0,0.1,0,0.1,0.1,0.2c0,0.1,0.1,0.2,0.2,0.3c4.8,4,10.7,6,14.8,7.2c1.1,0.3,2.4,0.7,4,1.1c1.4,0.4,2.8,0.7,4.1,0.9
		c2.8,0.6,5.8,1,8.8,1.2c2,0.2,4.1,0.2,6,0.2c4,0,8-0.3,11.9-0.9c2.7-0.4,5.6-1,8.3-1.8c2.4-0.7,4.5-1.4,6.6-2.1
		c3.8-1.4,6.9-2.9,9.6-4.7c3.2-2.1,5.7-4.4,7.4-7c0.1-0.1,0.2-0.1,0.2-0.3c0-0.1,0-0.3,0-0.4c-2.3-6-5.6-11.5-8.6-16.2
		c-1-1.5-2-3-2.9-4.6c-0.7-1.1-1.4-2.2-2.1-3.2c-1.7-2.7-3.5-5.5-5.2-8.3c-0.8-1.3-1.6-2.7-2.4-4c-0.3-0.5-0.5-0.9-0.8-1.4
		c-0.5-0.9-1-1.7-1.5-2.6l-0.6-1c-1.3-2-2.6-4.1-3.4-6.4c-0.2-0.6-0.3-1.1-0.4-1.5c0-0.1-0.1-0.2-0.1-0.2c0-1,0.1-2,0.2-3.1
		c0.1-1,0.3-2,0.5-3l0-0.1c0.6-2.7,1.4-5.5,2.6-8.5c1-2.7,2.2-5.3,3.7-8.2l0.4-0.8c0.1-0.1,0.1-0.2,0.1-0.4c0-0.1-0.1-0.2-0.1-0.2
		c0-0.2,0-0.3-0.1-0.4l-0.2-0.3l0,0.1c-0.7-1.1-1.3-2.4-1.8-4c-0.2-0.7-0.4-1.4-0.7-2.2c-0.3-0.9-0.5-1.7-0.6-2.5
		c-0.3-1.6-0.5-3.2-0.7-5.1c-0.2-3.6,0.1-7.3,0.8-10.8c0-0.1,0-0.3-0.1-0.4l-0.1-0.1c-0.1-0.2-0.2-0.3-0.4-0.3h0
		c-0.2,0-0.3,0-0.4,0.1c-0.1,0.1-0.2,0.2-0.2,0.3c-0.2,0.9-0.5,1.7-0.7,2.5c-0.4,1.2-0.8,2.3-1.2,3.3c-0.5,1.2-0.9,2-1.4,2.8
		l-0.1,0.1l0.1-0.1c-0.6,0.8-1.1,1.4-1.7,1.9c-0.6,0.5-1.2,1-2,1.4c-0.9,0.4-1.9,0.8-3,1c-1.9,0.4-3.9,0.5-5.7,0.6
		c-0.7,0-1.4,0-2.1,0c-0.6,0-1.1,0-1.7,0c-2.9-0.1-5.2-0.5-7.3-1.1c-1.2-0.4-2.2-0.8-3-1.4c-0.5-0.4-0.9-0.7-1.3-1.1
		c-0.3-0.3-0.5-0.7-0.7-1c-0.2-0.4-0.3-0.7-0.4-1.1c-0.1-0.4-0.1-0.7-0.1-1.1c0-0.4,0.1-0.8,0.2-1.2c0.4-1.2,1-2.2,1.6-3
		c0.4-0.6,0.9-1.3,1.3-1.9l0.1-0.2l0.4-0.6c0.6-0.8,1.2-1.7,1.7-2.6c0.1-0.1,0.1-0.3,0-0.4c0-0.1,0-0.1,0-0.2c0-0.1-0.1-0.3-0.2-0.3
		C295.3,323.3,295.2,323.3,295.1,323.3"/>
	<path class="st3" d="M295.1,323.3c-0.1,0-0.2,0.1-0.3,0.2c-1.1,1.2-2.1,2.5-3.1,3.7c0.5,0.4,0.9,1,0.9,1.7c0,0,0,0,0,0
		c0.3-0.5,0.7-0.9,1-1.4l0.5-0.6c0.6-0.9,1.2-1.7,1.7-2.6c0.1-0.1,0.1-0.2,0-0.4c0-0.1,0-0.1,0-0.2c0-0.1-0.1-0.2-0.2-0.3
		C295.4,323.4,295.3,323.3,295.1,323.3L295.1,323.3z"/>
	<path class="st3" d="M323.2,326.8c-0.2,0-0.2,0-0.3,0.1c-0.1,0.1-0.2,0.2-0.2,0.3c-0.2,0.9-0.5,1.7-0.7,2.5
		c-0.4,1.2-0.8,2.3-1.2,3.3c-0.5,1.2-0.9,2-1.4,2.8v0l0,0h0l-0.1,0.1l0.1-0.1c-0.5,0.7-1,1.3-1.6,1.9c0.3,0.4,0.6,0.8,0.6,1.4
		c0,1.1-0.9,2-2,2c-0.9,0-1.7-0.6-1.9-1.4c-0.5,0.2-1.1,0.4-1.7,0.5c-1.9,0.4-3.9,0.5-5.7,0.6c-0.7,0-1.4,0-2.1,0
		c-0.6,0-1.1,0-1.7,0l0,0c-1.5-0.1-2.8-0.2-4.1-0.4c0,0.1,0,0.2,0,0.3c0,1.1-0.9,2-2,2s-2-0.9-2-2c0-0.4,0.2-0.9,0.4-1.2
		c-1-0.4-1.9-0.8-2.7-1.3h0c-0.5-0.3-0.9-0.7-1.3-1.1c-0.3-0.3-0.5-0.7-0.7-1c-0.2-0.4-0.3-0.7-0.4-1.1c-0.1-0.4-0.1-0.8-0.1-1.2
		c0-0.4,0.1-0.8,0.2-1.2c0.2-0.7,0.6-1.4,0.9-2c-0.3,0.1-0.6,0.2-0.9,0.2c-0.5,0-1-0.2-1.4-0.6c-0.7,0.8-1.3,1.7-2,2.5
		c-0.8,1-1.5,2-2.3,2.9c0.8,0.3,1.3,1,1.3,1.9c0,1.1-0.9,2-2,2c-0.7,0-1.3-0.4-1.7-0.9c-0.1,0.1-0.2,0.2-0.3,0.3
		c-0.3,0.3-0.5,0.6-0.8,0.9c-0.4,0.5-0.8,1.1-1.3,1.8c-0.7,1.1-1.3,2.3-1.7,3.6c-0.4,1.1-0.7,2.2-0.9,3.4c0.4-0.3,0.8-0.6,1.4-0.6
		c1.1,0,2,0.9,2,2c0,1.1-0.9,2-2,2c-0.7,0-1.3-0.3-1.6-0.9c0,0.6,0,1.1,0,1.7c0.1,2.6,0.5,5.3,1.3,8.4c0.3,1.1,0.7,2.3,1.1,3.4
		c0.4-0.4,0.9-0.6,1.4-0.6c1.1,0,2,0.9,2,2c0,1.1-0.9,2-2,2c-0.1,0-0.2,0-0.2,0c0.2,0.6,0.4,1.2,0.6,1.9v0c0.6,1.8,1.4,4.3,1.8,6.8
		c-0.2,1.9-0.6,3.7-0.9,5.6l0,0c-0.4,1.8-0.9,3.7-1.4,5.5c1,0.1,1.7,1,1.7,2c0,1.1-0.9,2-2,2c-0.3,0-0.6-0.1-0.8-0.2
		c-0.9,2.8-1.8,5.7-2.7,8.4l-0.1,0.3c-0.5,1.4-1,2.9-1.4,4.3c0,0,0,0,0,0c0.2-0.1,0.5-0.2,0.8-0.2c1.1,0,2,0.9,2,2c0,1.1-0.9,2-2,2
		c-0.7,0-1.4-0.4-1.7-1c-0.7,2.2-1.5,4.4-2.2,6.6c0.3-0.2,0.7-0.4,1.2-0.4c1.1,0,2,0.9,2,2c0,1.1-0.9,2-2,2c-0.9,0-1.7-0.6-1.9-1.4
		c-0.3,0.8-0.6,1.6-0.9,2.5c-0.7,2-1.5,4.1-2.2,6c0.1,0,0.2,0,0.3,0c1.1,0,2,0.9,2,2c0,1.1-0.9,2-2,2c-0.6,0-1.2-0.3-1.6-0.8
		c-0.5,1.1-1,2.2-1.5,3.2l0.1-0.1c-0.1,0.3-0.3,0.6-0.4,0.8c-0.1,0.1-0.1,0.2-0.1,0.4c0,0.1,0,0.1,0.1,0.2c0,0.1,0.1,0.2,0.2,0.3
		c1.8,1.5,3.7,2.7,5.6,3.7c0.2-0.8,1-1.4,1.9-1.4c1.1,0,2,0.9,2,2c0,0.4-0.1,0.8-0.3,1.1c2,0.8,3.9,1.4,5.6,1.9
		c1.2,0.3,2.4,0.7,4,1.1c1.5,0.4,2.8,0.7,4.1,0.9c1.5,0.3,3.1,0.6,4.7,0.8c0.3-0.8,1-1.3,1.9-1.3c1,0,1.8,0.8,2,1.7
		c0.1,0,0.2,0,0.3,0c2,0.2,4,0.2,6,0.2c2.4,0,4.8-0.1,7.2-0.3c-0.2-0.3-0.4-0.7-0.4-1.1c0-1.1,0.9-2,2-2c1.1,0,2,0.9,2,2
		c0,0.3-0.1,0.5-0.1,0.7c0.4-0.1,0.8-0.1,1.1-0.2c2.7-0.4,5.5-1,8.3-1.8c0.8-0.2,1.6-0.5,2.4-0.7c-0.2-0.3-0.3-0.6-0.3-1
		c0-1.1,0.9-2,2-2c1,0,1.8,0.8,2,1.7c0.2-0.1,0.3-0.1,0.5-0.2c2.8-1,5.2-2.1,7.4-3.3c-0.4-0.4-0.6-0.9-0.6-1.4c0-1.1,0.9-2,2-2
		c0.9,0,1.6,0.6,1.9,1.4c2.7-1.9,4.8-4,6.4-6.3c0.1-0.1,0.2-0.2,0.2-0.3c0-0.1,0-0.2,0-0.4c-0.7-1.9-1.6-3.7-2.4-5.5
		c-0.3,0.7-1,1.1-1.8,1.1c-1.1,0-2-0.9-2-2c0-1.1,0.9-2,2-2c0.1,0,0.2,0,0.3,0c-1.5-2.8-3.1-5.4-4.6-7.8c-0.6-1-1.2-1.9-1.8-2.9
		c-0.3,0.8-1,1.4-1.9,1.4c-1.1,0-2-0.9-2-2c0-1.1,0.9-2,2-2c0.1,0,0.1,0,0.2,0c-0.5-0.8-1-1.6-1.5-2.4c-1.7-2.7-3.5-5.5-5.2-8.3
		c-0.8-1.3-1.6-2.7-2.4-4c-0.1-0.2-0.2-0.3-0.3-0.5c-0.4,0.5-1,0.8-1.6,0.8c-1.1,0-2-0.9-2-2c0-1,0.8-1.9,1.8-2
		c-0.1-0.1-0.1-0.2-0.2-0.3l-0.6-1c-0.7-1.1-1.4-2.2-2-3.4c-0.3,0.2-0.7,0.3-1.1,0.3c-1.1,0-2-0.9-2-2c0-0.9,0.7-1.7,1.5-1.9
		c-0.1-0.3-0.2-0.6-0.2-0.9c0-0.1,0-0.1-0.1-0.2c0-1,0.1-2,0.2-3.1c0.1-1,0.3-2,0.5-3l0-0.1c0.6-2.7,1.4-5.5,2.6-8.5
		c0.3-0.8,0.6-1.6,1-2.5c-1-0.1-1.7-1-1.7-2c0-1.1,0.9-2,2-2c0.5,0,0.9,0.2,1.3,0.5c0.4-0.7,0.7-1.5,1.1-2.2
		c0.1-0.3,0.3-0.5,0.4-0.8c0.1-0.1,0.1-0.2,0.1-0.4c0-0.1-0.1-0.2-0.1-0.2c0-0.2,0-0.3-0.1-0.4l-0.2-0.3l0.1,0.1
		c-0.7-1.1-1.3-2.4-1.8-4v0c-0.2-0.7-0.4-1.4-0.7-2.2c-0.3-0.9-0.5-1.7-0.6-2.5c-0.3-1.6-0.6-3.3-0.7-5.1c0-0.9-0.1-1.8-0.1-2.7
		c-0.9-0.2-1.5-1-1.5-1.9c0-1,0.8-1.8,1.7-2c0.1-1.4,0.4-2.8,0.6-4.2c0-0.1,0-0.3-0.1-0.4l-0.1-0.1l0,0
		C323.5,327,323.4,326.8,323.2,326.8L323.2,326.8z M286.4,345.7c0-1.1,0.9-2,2-2s2,0.9,2,2c0,1.1-0.9,2-2,2S286.4,346.8,286.4,345.7
		 M306.7,346.3c0-1.1,0.9-2,2-2s2,0.9,2,2c0,1.1-0.9,2-2,2S306.7,347.4,306.7,346.3 M317.6,349c0-1.1,0.9-2,2-2s2,0.9,2,2
		s-0.9,2-2,2S317.6,350.1,317.6,349 M299.6,354c0-1.1,0.9-2,2-2s2,0.9,2,2c0,1.1-0.9,2-2,2S299.6,355.1,299.6,354 M288.2,356.8
		c0-1.1,0.9-2,2-2s2,0.9,2,2c0,1.1-0.9,2-2,2S288.2,357.9,288.2,356.8 M309.8,359.2c0-1.1,0.9-2,2-2s2,0.9,2,2c0,1.1-0.9,2-2,2
		S309.8,360.3,309.8,359.2 M302.6,364.7c0-1.1,0.9-2,2-2c1.1,0,2,0.9,2,2c0,1.1-0.9,2-2,2C303.5,366.7,302.6,365.8,302.6,364.7
		 M291.2,368.1c0-1.1,0.9-2,2-2s2,0.9,2,2c0,1.1-0.9,2-2,2S291.2,369.2,291.2,368.1 M312,370.3c0-1.1,0.9-2,2-2c1.1,0,2,0.9,2,2
		c0,1.1-0.9,2-2,2C312.9,372.3,312,371.3,312,370.3 M283.2,379.1c0-1.1,0.9-2,2-2c1.1,0,2,0.9,2,2c0,1.1-0.9,2-2,2
		C284.1,381.1,283.2,380.2,283.2,379.1 M299.1,379.3c0-1.1,0.9-2,2-2c1.1,0,2,0.9,2,2s-0.9,2-2,2
		C300.1,381.3,299.1,380.4,299.1,379.3 M309.8,384.7c0-1.1,0.9-2,2-2c1.1,0,2,0.9,2,2s-0.9,2-2,2
		C310.7,386.7,309.8,385.7,309.8,384.7 M291.7,387.2c0-1.1,0.9-2,2-2c1.1,0,2,0.9,2,2s-0.9,2-2,2
		C292.6,389.2,291.7,388.3,291.7,387.2 M301.8,395c0-1.1,0.9-2,2-2s2,0.9,2,2c0,1.1-0.9,2-2,2S301.8,396.1,301.8,395 M285.5,397.4
		c0-1.1,0.9-2,2-2s2,0.9,2,2s-0.9,2-2,2S285.5,398.5,285.5,397.4 M310.4,401.6c0-1.1,0.9-2,2-2s2,0.9,2,2c0,1.1-0.9,2-2,2
		S310.4,402.7,310.4,401.6 M292.1,404.7c0-1.1,0.9-2,2-2c1.1,0,2,0.9,2,2c0,1.1-0.9,2-2,2C293,406.7,292.1,405.8,292.1,404.7
		 M322.3,405.1c0-1.1,0.9-2,2-2s2,0.9,2,2c0,1.1-0.9,2-2,2S322.3,406.2,322.3,405.1 M302.7,411.6c0-1.1,0.9-2,2-2c1.1,0,2,0.9,2,2
		s-0.9,2-2,2C303.6,413.6,302.7,412.7,302.7,411.6 M328.9,413.6c0-1.1,0.9-2,2-2c1.1,0,2,0.9,2,2c0,1.1-0.9,2-2,2
		C329.8,415.6,328.9,414.7,328.9,413.6 M283,413.6c0-1.1,0.9-2,2-2c1.1,0,2,0.9,2,2c0,1.1-0.9,2-2,2
		C283.9,415.6,283,414.7,283,413.6 M314,414.4c0-1.1,0.9-2,2-2c1.1,0,2,0.9,2,2s-0.9,2-2,2C315,416.4,314,415.5,314,414.4
		 M293.8,417.3c0-1.1,0.9-2,2-2s2,0.9,2,2c0,1.1-0.9,2-2,2S293.8,418.4,293.8,417.3 M307.5,422.4c0-1.1,0.9-2,2-2s2,0.9,2,2
		c0,1.1-0.9,2-2,2S307.5,423.5,307.5,422.4 M322.5,423.4c0-1.1,0.9-2,2-2c1.1,0,2,0.9,2,2c0,1.1-0.9,2-2,2
		C323.4,425.4,322.5,424.4,322.5,423.4 M279.2,426.5c0-1.1,0.9-2,2-2s2,0.9,2,2c0,1.1-0.9,2-2,2S279.2,427.6,279.2,426.5
		 M333.1,427.2c0-1.1,0.9-2,2-2s2,0.9,2,2c0,1.1-0.9,2-2,2S333.1,428.2,333.1,427.2 M292,429.2c0-1.1,0.9-2,2-2c1.1,0,2,0.9,2,2
		c0,1.1-0.9,2-2,2C292.9,431.2,292,430.3,292,429.2 M316.1,433.3c0-1.1,0.9-2,2-2c1.1,0,2,0.9,2,2c0,1.1-0.9,2-2,2
		C317,435.3,316.1,434.4,316.1,433.3 M302.5,433.5c0-1.1,0.9-2,2-2c1.1,0,2,0.9,2,2c0,1.1-0.9,2-2,2
		C303.4,435.5,302.5,434.6,302.5,433.5 M283.9,435.8c0-1.1,0.9-2,2-2c1.1,0,2,0.9,2,2c0,1.1-0.9,2-2,2
		C284.8,437.8,283.9,436.8,283.9,435.8"/>
	<path class="st7" d="M358.5,447.1c8.2-1.7,16.4-3.4,24.6-5.1c0.7,3.5,1.5,7.1,2.2,10.6c-8.2,1.7-16.4,3.4-24.6,5.1
		C360,454.2,359.3,450.6,358.5,447.1"/>
</g>
</svg>
