<?xml version="1.0" encoding="utf-8"?>
<!-- Generator: Adobe Illustrator 23.1.0, SVG Export Plug-In . SVG Version: 6.00 Build 0)  -->
<svg version="1.1" id="Layer_1" xmlns="http://www.w3.org/2000/svg" xmlns:xlink="http://www.w3.org/1999/xlink" x="0px" y="0px"
	 viewBox="0 0 1366 768" style="enable-background:new 0 0 1366 768;" xml:space="preserve">
<style type="text/css">
	.st0{fill:#2471A3;stroke:#000000;stroke-miterlimit:10;}
</style>
<path class="st0" d="M-0.5,489.5c120.88-75.4,277.54-141.09,442-109c220.46,43.01,253.23,222.35,491,252
	c199.98,24.94,428.01-70.61,433-139c0.02-0.21,0.01-0.21,0-9c0,0-0.08-57.8,0-127c0.13-105.31,6.55-235.51,2-282
	c-0.83-8.48-2.15-15.48-2-28c0.32-26.38,6.7-37.36,0-44c-3.19-3.16-11.46-3.44-28-4c-12.24-0.41-20,0-20,0c-21.3,1.14-42.67,0-64,0
	c-127,0-254,0-381,0c-59.67,0-119.33,0-179,0c-133,0-266,0-399,0c-98.33,0-196.67,0-295,0"/>
</svg>
