<?xml version="1.0" encoding="utf-8"?>
<!-- Generator: Adobe Illustrator 19.0.0, SVG Export Plug-In . SVG Version: 6.00 Build 0)  -->
<svg version="1.1" id="Layer_1" xmlns="http://www.w3.org/2000/svg" xmlns:xlink="http://www.w3.org/1999/xlink" x="0px" y="0px"
	 viewBox="654 0 1920 792" style="enable-background:new 654 0 1920 792;" xml:space="preserve">
<style type="text/css">
	.st0{fill:#FAD7A0;stroke:#FAD7A0;stroke-miterlimit:10;}
</style>
<path id="XMLID_1_" class="st0" d="M654.3,0c0.6,90.1-0.2,159.3-1,207c-0.2,10.9-1.2,66.4-1,140c0.1,46.5,0.2,69.8,1,74
	c16,80.6,176.2,142,319,146c257.4,7.2,299.2-177.7,566-210c16.3-2,43-2.4,108.3,0.9c531.6,27.2,829.3,218.3,950.4,115.1
	c54.9-46.8,85.1-163.9-21.3-471.6C1935.2,0.9,1294.8,0.5,654.3,0z"/>
<path class="st0" d="M2288,281"/>
<path class="st0" d="M2306,304"/>
</svg>
