<?xml version="1.0" encoding="utf-8"?>
<!-- Generator: Adobe Illustrator 19.0.0, SVG Export Plug-In . SVG Version: 6.00 Build 0)  -->
<svg version="1.1" id="Layer_1" xmlns="http://www.w3.org/2000/svg" xmlns:xlink="http://www.w3.org/1999/xlink" x="0px" y="0px"
	 viewBox="0 0 300 300" style="enable-background:new 0 0 300 300;" xml:space="preserve">
<style type="text/css">
	.st0{fill:#F8E69E;stroke:#F8E69E;stroke-miterlimit:10;}
	.st1{fill:#736759;}
	.st2{fill:#A12A22;}
	.st3{fill:url(#XMLID_15_);}
	.st4{fill:#B63227;}
	.st5{fill:#BC3529;}
	.st6{fill:#EF4237;}
	.st7{fill:#471212;}
	.st8{fill:#5A4B43;}
	.st9{fill:#F7E59D;}
	.st10{font-family:'MyriadPro-Regular';}
	.st11{font-size:52.0676px;}
</style>
<rect id="XMLID_1_" class="st0" width="300" height="300"/>
<g id="XMLID_3_">
	<g id="XMLID_4_">
		<path id="XMLID_13_" class="st1" d="M179.3,47.4c0.2-11.4-4.5-23.5-20.9-24.2c-1.5-0.1-2.9-0.1-4.3-0.1
			c-14.6-0.2-21.6,4.7-24.4,13.3c-2.9,8.5-2.8,20.3-5.3,35.6l3.1,0.4c2.6-15.5,2.5-27.5,5.2-35.1c2.8-7.5,7.4-11.2,21.5-11.3
			c1.3,0,2.7,0,4.1,0.1c14.3,0.8,17.7,10.3,17.9,21.3c0,12.1-4.9,24.8-4.9,24.8l2.9,1C174.3,73.2,179.3,60.2,179.3,47.4z"/>
		<polygon id="XMLID_12_" class="st2" points="88.2,48.6 87.7,64.3 91.2,66.1 131.8,80.5 218.4,79.5 237.3,53.9 		"/>
		
			<linearGradient id="XMLID_15_" gradientUnits="userSpaceOnUse" x1="-78.4128" y1="92.6223" x2="-73.0756" y2="69.5181" gradientTransform="matrix(-1 0 0 1 6.2451 0)">
			<stop  offset="0" style="stop-color:#EF4237"/>
			<stop  offset="1" style="stop-color:#A21D26"/>
		</linearGradient>
		<polygon id="XMLID_11_" class="st3" points="81,56.1 63,58 68.4,69.1 88.9,64 88.2,48.6 		"/>
		<polygon id="XMLID_10_" class="st4" points="225.6,61.6 214.4,62.1 200.4,171.5 217.4,253.1 240.8,231.4 240.8,142.7 		"/>
		<polygon id="XMLID_9_" class="st5" points="237.3,53.9 225.6,61.6 240.8,231.4 261.4,225.4 		"/>
		<polygon id="XMLID_8_" class="st6" points="214.4,62.1 63,58 50.9,240.9 217.4,253.1 		"/>
		<path id="XMLID_7_" class="st7" d="M158.9,71.1c0,2,1.6,3.6,3.6,3.6c2,0,3.6-1.6,3.6-3.6c0-2-1.6-3.6-3.6-3.6
			C160.5,67.5,158.9,69.1,158.9,71.1z"/>
		<path id="XMLID_6_" class="st7" d="M111.9,70.2c0,2,1.6,3.6,3.6,3.6c2,0,3.6-1.6,3.6-3.6c0-2-1.6-3.6-3.6-3.6
			C113.5,66.6,111.9,68.2,111.9,70.2z"/>
		<path id="XMLID_5_" class="st8" d="M169,46.2c0.2-11.4-4.5-23.5-20.9-24.2c-1.5-0.1-2.9-0.1-4.3-0.1c-14.6-0.1-21.6,4.7-24.4,13.3
			c-2.8,8.2-2.8,19.6-5.1,34.2c-0.1,0.8,0.4,1.5,1.3,1.7l0,0c0.9,0.1,1.7-0.4,1.8-1.2c2.3-14.8,2.3-26.3,4.9-33.7
			c2.8-7.5,7.4-11.2,21.5-11.3c1.3,0,2.7,0,4.1,0.1c14.3,0.8,17.7,10.3,17.9,21.3c0,9.8-3.2,19.9-4.4,23.5c-0.3,0.7,0.2,1.5,1,1.8
			l0,0c0.8,0.3,1.7-0.1,2-0.9C165.7,66.9,169,56.5,169,46.2z"/>
	</g>
</g>
<text id="XMLID_2_" transform="matrix(0.5516 2.037071e-002 -3.690192e-002 0.9993 62.4411 156.198)" class="st9 st10 st11">ShoppingElf</text>
</svg>
