<?xml version="1.0" encoding="utf-8"?>
<!-- Generator: Adobe Illustrator 19.0.0, SVG Export Plug-In . SVG Version: 6.00 Build 0)  -->
<svg version="1.1" id="Layer_1" xmlns="http://www.w3.org/2000/svg" xmlns:xlink="http://www.w3.org/1999/xlink" x="0px" y="0px"
	 viewBox="0 0 200 200" style="enable-background:new 0 0 200 200;" xml:space="preserve">
<style type="text/css">
	.st0{fill:#74685A;}
	.st1{fill:#A22C23;}
	.st2{fill:url(#XMLID_14_);}
	.st3{fill:#B63427;}
	.st4{fill:#BC3729;}
	.st5{fill:#EF4338;}
	.st6{fill:#461616;}
	.st7{fill:#5B4C44;}
	.st8{fill:#F8E69E;}
	.st9{font-family:'MyriadPro-Regular';}
	.st10{font-size:39.236px;}
</style>
<g id="XMLID_3_">
	<g id="XMLID_4_">
		<path id="XMLID_13_" class="st0" d="M119.9,21.9c0.2-9.8-4.1-20.2-19.2-20.8C99.3,1,98,1,96.7,1c-13.4-0.2-19.8,4-22.4,11.4
			c-2.7,7.3-2.6,17.4-4.9,30.5l2.8,0.3c2.4-13.3,2.3-23.6,4.8-30.1c2.6-6.4,6.8-9.6,19.7-9.7c1.2,0,2.5,0,3.8,0.1
			c13.1,0.7,16.2,8.8,16.4,18.3c0,10.4-4.5,21.3-4.5,21.3l2.7,0.9C115.3,44,119.9,32.9,119.9,21.9z"/>
		<polygon id="XMLID_12_" class="st1" points="36.3,22.9 35.9,36.4 39.1,37.9 76.3,50.3 155.7,49.4 173,27.5 		"/>
		
			<linearGradient id="XMLID_14_" gradientUnits="userSpaceOnUse" x1="-1744.1917" y1="141.8666" x2="-1739.7037" y2="161.2948" gradientTransform="matrix(-1 0 0 -1 -1711.7549 202)">
			<stop  offset="0" style="stop-color:#EF4338"/>
			<stop  offset="1" style="stop-color:#A31D27"/>
		</linearGradient>
		<polygon id="XMLID_11_" class="st2" points="29.7,29.3 13.2,31 18.2,40.5 37,36.1 36.3,22.9 		"/>
		<polygon id="XMLID_10_" class="st3" points="162.3,34.1 152,34.5 139.2,128.3 154.8,198.3 176.2,179.7 176.2,103.6 		"/>
		<polygon id="XMLID_9_" class="st4" points="173,27.5 162.3,34.1 176.2,179.7 195.1,174.6 		"/>
		<polygon id="XMLID_8_" class="st5" points="152,34.5 13.2,31 2.1,187.9 154.8,198.3 		"/>
		<path id="XMLID_7_" class="st6" d="M101.1,42.2c0,1.7,1.5,3.1,3.3,3.1c1.8,0,3.3-1.4,3.3-3.1s-1.5-3.1-3.3-3.1
			C102.6,39.1,101.1,40.5,101.1,42.2z"/>
		<path id="XMLID_6_" class="st6" d="M58.1,41.4c0,1.7,1.5,3.1,3.3,3.1s3.3-1.4,3.3-3.1s-1.5-3.1-3.3-3.1S58.1,39.7,58.1,41.4z"/>
		<path id="XMLID_5_" class="st7" d="M110.4,20.8c0.2-9.8-4.1-20.2-19.2-20.8C89.9,0,88.6,0,87.3,0C73.9-0.1,67.5,4,64.9,11.4
			c-2.6,7-2.6,16.8-4.7,29.3c-0.1,0.7,0.4,1.3,1.2,1.5l0,0c0.8,0.1,1.6-0.3,1.7-1c2.1-12.7,2.1-22.6,4.5-28.9
			c2.6-6.4,6.8-9.6,19.7-9.7c1.2,0,2.5,0,3.8,0.1c13.1,0.7,16.2,8.8,16.4,18.3c0,8.4-2.9,17.1-4,20.2c-0.3,0.6,0.2,1.3,0.9,1.5l0,0
			c0.7,0.3,1.6-0.1,1.8-0.8C107.4,38.6,110.4,29.7,110.4,20.8z"/>
	</g>
</g>
<text id="XMLID_1_" transform="matrix(1.0374 6.574063e-002 -5.320319e-002 0.9986 14.2854 117.1809)" class="st8 st9 st10">My Bag</text>
</svg>
