<?xml version="1.0" encoding="utf-8"?>
<!-- Generator: Adobe Illustrator 23.1.0, SVG Export Plug-In . SVG Version: 6.00 Build 0)  -->
<svg version="1.1" id="Layer_1" xmlns="http://www.w3.org/2000/svg" xmlns:xlink="http://www.w3.org/1999/xlink" x="0px" y="0px"
	 viewBox="0 0 1920 1080" style="enable-background:new 0 0 1920 1080;" xml:space="preserve">
<style type="text/css">
	.st0{fill:#F0F3F4;}
</style>
<g>
	<path class="st0" d="M146,334.5c-15.2,0-27.5-12.4-27.5-27.5V52c0-15.2,12.4-27.5,27.5-27.5H401c15.2,0,27.5,12.4,27.5,27.5V307
		c0,15.2-12.4,27.5-27.5,27.5H146z"/>
	<path d="M401,25c14.9,0,27,12.1,27,27V307c0,14.9-12.1,27-27,27H146c-14.9,0-27-12.1-27-27V52c0-14.9,12.1-27,27-27H401 M401,24
		H146c-15.5,0-28,12.6-28,28V307c0,15.5,12.6,28,28,28H401c15.5,0,28-12.6,28-28V52C429,36.6,416.4,24,401,24L401,24z"/>
</g>
<image style="overflow:visible;" width="197" height="90" xlink:href="Black berry.jpg"  transform="matrix(0.9949 0 0 1.3222 176 52)">
</image>
</svg>
