<?xml version="1.0" encoding="utf-8"?>
<!-- Generator: Adobe Illustrator 23.1.0, SVG Export Plug-In . SVG Version: 6.00 Build 0)  -->
<svg version="1.1" xmlns="http://www.w3.org/2000/svg" xmlns:xlink="http://www.w3.org/1999/xlink" x="0px" y="0px"
	 viewBox="0 0 500 500" style="enable-background:new 0 0 500 500;" xml:space="preserve">
<style type="text/css">
	.st0{fill:#A6CCF3;}
	.st1{fill:#525D65;}
	.st2{fill:#FFFFFF;}
	.st3{fill:#CAD6DD;}
	.st4{fill:#384457;}

	.st2 {
		animation 
	}
	@key
</style>
<g id="BACKGROUND">
	<rect class="st0" width="500" height="500"/>
</g>
<g id="OBJECTS">
	<g>
		<g>
			<g id="XMLID_3_">
				<g>
					<path class="st1" d="M377.3,117.5c13.8,3.1,20,11.6,19.8,25.4c0,6.2,0,12.4-0.1,18.6c-0.3,26.7-1.2,53.5-1.2,80.2
						c-0.1,17,0,34-0.4,51c-19.3,0.2-38.6,0.5-58,0.4c-20.1-0.1-40.3-0.6-60.4-0.8c-40.3-0.3-80.5,0.1-120.8,0.1
						c-22.4,0-44.8-0.2-67.1,0.7c-0.6-16.4-0.4-32.9-0.7-49.4c-0.2-17.8-0.4-35.6-0.5-53.5c-0.1-9-0.1-18-0.2-27
						c0-7-0.3-14.2,0.7-21.2c0.9-5.9,2.6-12.1,6.9-16.5c5.2-5.3,12.8-5.8,19.7-6c35.9-0.9,71.8-1.2,107.7-1.8
						c35.8-0.6,71.7-1.1,107.5-1.7c9-0.1,18-0.2,27-0.3C364.1,115.9,370.8,116,377.3,117.5z M387.7,270.5c0.9-6.9,0.1-14.1,0-21
						c-0.2-8.1-0.4-16.3-0.6-24.4c-0.4-16-0.8-31.9-1.1-47.9c-0.2-7.6-0.3-15.3-0.6-22.9c-0.2-6.1-0.9-12.6-4.6-17.7
						c-7.4-10.2-22-9.2-33.3-9.4c-42.5-0.5-85.1-1.9-127.5-0.8c-5.3,0.1-10.6,0.1-16,0.1c-16.4-0.1-32.8-0.1-49.2-0.2
						c-7.8,0-15.6-0.2-23.4,0c-5.8,0.2-11.9,0.7-17.3,3c-5.1,2.1-9,5.8-11.2,10.9c-2.6,6-2.5,12.7-2.6,19.1
						c-0.2,16-0.4,32.1-0.7,48.1c-0.2,16-0.5,32.1-0.7,48.1c-0.1,6.2-0.7,13,2,18.8c2.5,5.4,7.7,8.2,13.4,9.2
						c6.6,1.1,13.5,0.6,20.2,0.6c8.4,0,16.7,0,25.1-0.1c16.4,0,32.8-0.1,49.2-0.1c33.1-0.1,66.3-0.1,99.4-0.2
						c16.4,0,32.8-0.1,49.2-0.1c4,0,8,0,12.1,0c3.3,0,6.7-0.1,9.8-1.2C384.6,280.3,387,275.6,387.7,270.5z"/>
					<path class="st2" d="M317.3,386.8c-3.2-3.5-9.5-3.1-13.8-3.4c-5.6-0.4-11.3-0.7-16.9-1c-22.1-1.1-44.2-1.3-66.3-0.6
						c-1.1,0-2.1,0.3-3.1,0.2c-1.6-0.2-3.2-0.5-4.8-0.7c-3.2-0.4-6.5-0.6-9.7-0.7c-6.5-0.1-13,0.4-19.4,1.6c-4.4,0.8-9,2.2-11.9,5.7
						c-1.4,1.8-2.2,4.5-0.8,6.2c1,1.3,2.8,1.6,4.5,1.8c8.1,1,16.2,1.3,24.4,1c4.1-0.2,8.2-0.5,12.3-1c3.4-0.4,7-1.5,10.4-0.9
						c3.1,0.5,6.5,0.1,9.6,0.1c22.3-0.1,44.6-0.2,66.9-0.3c4.8,0,9.9,0.5,14.6-0.3c1.8-0.3,4-0.9,5-2.5
						C319.4,390.2,318.6,388.2,317.3,386.8z"/>
					<path class="st3" d="M241.6,329.4c15.6,0.2,31.2,0.4,46.9,0.6c-0.8,3.2-0.5,7-0.6,10.2c-0.1,4.3-0.1,8.6-0.1,12.9
						c0,4.3,0,8.6,0.1,12.9c0,4-0.3,8.2,0,12.2c-21-1.1-42.1-1.3-63.1-0.7c-6.2,0.2-12.4,0.4-18.6,0.7c0.2-4.1-0.3-8.3-0.5-12.4
						c-0.2-4.5-0.4-8.9-0.6-13.4c-0.2-4.3-0.5-8.6-0.7-12.9c-0.2-3.3,0-7.2-0.7-10.5L241.6,329.4z"/>
					<path class="st2" d="M395.4,296.9c-0.2,6-0.8,12.2-3.5,17.5c-3.4,6.4-9.5,9.4-16.4,10.6c-7.4,1.3-15.2,0.7-22.7,0.6
						c-9-0.1-18.1-0.2-27.1-0.3c-17.9-0.2-35.9-0.4-53.8-0.6c-36-0.4-72-0.8-108.1-1.2c-8.9-0.1-17.8-0.2-26.6-0.3
						c-8.1-0.1-16.2,0.2-24.2-0.5c-6.5-0.6-13.3-2.2-17.8-7.3c-4.6-5.3-5.4-12.8-5.7-19.5c0-0.4,0-0.8,0-1.1c19.7,0.9,39.3,0.9,59,1
						c20.1,0.1,40.3,0.3,60.4,0.5c20.1,0.2,40.3,0.3,60.4,0.4c20.1,0.1,40.3-0.4,60.4-0.4C351.4,296.2,373.4,296.5,395.4,296.9z"/>
					<path class="st4" d="M396.5,122.1c-8-9.1-21.3-10.9-32.7-11.1c-8.6-0.1-17.2,0.3-25.8,0.4c-9.4,0.1-18.8,0.2-28.1,0.3
						c-18.8,0.2-37.5,0.5-56.3,0.7c-37.5,0.5-75,0.8-112.5,1.2c-9.1,0.1-18.3,0.1-27.5,0.3c-7.5,0.2-15.1,1.4-21,6.4
						c-10.4,8.8-10.1,24.6-9.9,37c0.6,37.5,1.2,75,1.5,112.4c0.1,8.8-0.1,17.7,0.3,26.5c0.3,6.9,1.2,14.2,5.1,20
						c8.6,12.8,25.9,11.6,39.4,11.7l71.3,0.9c-0.5,3.2-0.1,6.9,0,10c0.1,4.5,0.1,8.9,0.2,13.4c0.1,4.3,0.2,8.6,0.4,12.9
						c0.1,4.1,0,8.4,0.4,12.5c-3.4,0-6.8,0.1-10.2,0.4c-6.9,0.6-14.8,1.7-20.8,5.3c-5.3,3.2-6.1,9.5-0.8,13.2c2.8,2,6.3,2.1,9.6,2.3
						c4.3,0.3,8.6,0.4,12.8,0.5c4.6,0.1,9.2,0,13.8-0.2c1.1-0.1,2.2-0.1,3.3-0.2c2.2,0,4.4,0,6.6,0c26.2-0.1,52.3-0.1,78.5-0.1
						c6,0,12.1,0.4,18.1-0.2c3.9-0.4,8.2-1.6,10.1-5.3c2.1-4.1-0.2-8.9-3.7-11.3c-4.3-2.9-10.1-2.8-15.1-3.2
						c-3.7-0.3-7.3-0.5-11-0.7c0.3-4.1-0.1-8.4-0.1-12.5c0-4.3,0-8.6-0.1-12.9c-0.1-4.3-0.2-8.6-0.3-12.9c-0.1-3.1,0.1-6.9-0.7-10.2
						c21,0.3,42,0.5,63,0.8c14,0.2,31.4,1.7,40.7-11.2c4-5.6,5.3-12.9,5.8-19.7c0.5-8.5,0.2-17,0.2-25.5c0-18.9,0.1-37.8,0.1-56.7
						c0-17,0.2-33.9,0.8-50.9c0-1.2,0.1-2.5,0.2-3.8C403,149.2,406.2,133.1,396.5,122.1z M205.8,365.7c-0.2-4.5-0.4-8.9-0.6-13.4
						c-0.2-4.3-0.5-8.6-0.7-12.9c-0.2-3.3,0-7.2-0.7-10.5l37.9,0.4c15.6,0.2,31.2,0.4,46.9,0.6c-0.8,3.2-0.5,7-0.6,10.2
						c-0.1,4.3-0.1,8.6-0.1,12.9c0,4.3,0,8.6,0.1,12.9c0,4-0.3,8.2,0,12.2c-21-1.1-42.1-1.3-63.1-0.7c-5.7,0.2-11.5,0.4-17.2,0.7
						c-0.5,0-0.9-0.1-1.4-0.1C206.4,373.9,205.9,369.8,205.8,365.7z M303.5,383.3c4.3,0.3,10.6-0.1,13.8,3.4c1.3,1.4,2.1,3.4,1,5.2
						c-1,1.6-3.2,2.2-5,2.5c-4.7,0.8-9.8,0.3-14.6,0.3c-29.9,0.1-59.9-0.2-89.8,0.2c-5.3,0.1-10.6,0.6-15.9,0.6
						c-4.3,0-8.6-0.2-12.8-0.4c-2.8-0.2-9.7-0.1-9.7-4.4c0-3.4,5.2-4.6,7.7-5.3c9.2-2.9,19.3-2.4,28.8-2.8c10.5-0.5,21-1,31.6-1.1
						c15.2-0.1,30.3,0.1,45.5,0.8c0.9,0,1.8,0.1,2.7,0.1C292.2,382.6,297.9,382.9,303.5,383.3z M391.8,314.4
						c-3.4,6.4-9.5,9.4-16.4,10.6c-7.4,1.3-15.2,0.7-22.7,0.6c-9-0.1-18.1-0.2-27.1-0.3c-17.9-0.2-35.9-0.4-53.8-0.6
						c-36-0.4-72-0.8-108.1-1.2c-8.9-0.1-17.8-0.2-26.6-0.3c-8.1-0.1-16.2,0.2-24.2-0.5c-6.5-0.6-13.3-2.2-17.8-7.3
						c-4.6-5.3-5.4-12.8-5.7-19.5c0-0.4,0-0.8,0-1.1c19.7,0.9,39.3,0.9,59,1c20.1,0.1,40.3,0.3,60.4,0.5c20.1,0.2,40.3,0.3,60.4,0.4
						c20.1,0.1,40.3-0.4,60.4-0.4c22,0,43.9,0.4,65.9,0.8C395.2,302.8,394.6,309.1,391.8,314.4z M397.1,142.9c0,6.2,0,12.4-0.1,18.6
						c-0.3,26.7-1.2,53.5-1.2,80.2c-0.1,17,0,34-0.4,51c-19.3,0.2-38.6,0.5-58,0.4c-20.1-0.1-40.3-0.6-60.4-0.8
						c-40.3-0.3-80.5,0.1-120.8,0.1c-22.4,0-44.8-0.2-67.1,0.7c-0.6-16.4-0.4-32.9-0.7-49.4c-0.2-17.8-0.4-35.6-0.5-53.5
						c-0.1-9-0.1-18-0.2-27c0-7-0.3-14.2,0.7-21.2c0.9-5.9,2.6-12.1,6.9-16.5c5.2-5.3,12.8-5.8,19.7-6c35.9-0.9,71.8-1.2,107.7-1.8
						c35.8-0.6,71.7-1.1,107.5-1.7c9-0.1,18-0.2,27-0.3c6.6-0.1,13.4,0,19.9,1.5C391.2,120.6,397.4,129.1,397.1,142.9z"/>
					<path class="st4" d="M387.7,249.4c0.2,6.9,1,14.2,0,21c-0.7,5.1-3.1,9.9-8.3,11.8c-3.1,1.2-6.5,1.2-9.8,1.2c-4,0-8,0-12.1,0
						c-16.4,0-32.8,0.1-49.2,0.1c-33.1,0.1-66.3,0.1-99.4,0.2c-16.4,0-32.8,0.1-49.2,0.1c-8.4,0-16.7,0-25.1,0.1
						c-6.7,0-13.6,0.5-20.2-0.6c-5.7-1-10.9-3.8-13.4-9.2c-2.7-5.8-2.1-12.6-2-18.8c0.3-16,0.5-32.1,0.7-48.1
						c0.2-16,0.5-32.1,0.7-48.1c0.1-6.4,0-13,2.6-19.1c2.2-5.1,6-8.7,11.2-10.9c5.4-2.3,11.5-2.8,17.3-3c7.8-0.2,15.6,0,23.4,0
						c16.4,0.1,32.8,0.1,49.2,0.2c5.3,0,10.6,0,16-0.1c42.5-1.1,85.1,0.3,127.5,0.8c11.3,0.1,25.9-0.8,33.3,9.4
						c3.7,5.1,4.4,11.7,4.6,17.7c0.3,7.6,0.4,15.2,0.6,22.9c0.4,16,0.8,31.9,1.1,47.9C387.3,233.1,387.5,241.3,387.7,249.4z
						 M384.8,269.7c0.6-6.7,0-13.6-0.1-20.3c-0.5-30.6-1-61.3-1.6-91.9c-0.1-6.1-0.2-12.8-3.7-18.1c-3.6-5.4-10.1-7.5-16.3-8.2
						c-6.6-0.8-13.3-0.6-19.9-0.8c-8-0.2-16-0.3-24-0.5c-13.2-0.3-26.4-0.5-39.5-0.8c-31,0-62.1-0.3-93.1-0.5
						c-15.7-0.1-31.5-0.2-47.2-0.4c-11.1-0.1-26-0.6-32.6,10c-3.5,5.6-3.4,12.6-3.5,18.9c-0.2,7.9-0.4,15.7-0.5,23.6
						c-0.3,15.4-0.6,30.8-0.9,46.2c-0.2,7.5-0.3,15.1-0.5,22.6c-0.1,6.6-1.1,13.9,0.8,20.3c1.9,6.8,7.8,9.8,14.6,10.6
						c6.8,0.8,13.8,0.4,20.6,0.4c62.9,0.2,125.9,0.5,188.8,0.7l24.1,0.1c7.4,0,14.9,0.4,22.3,0c3.5-0.2,7.1-0.8,9.5-3.5
						C383.8,275.8,384.5,272.6,384.8,269.7z"/>
				</g>
			</g>
		</g>
	</g>
</g>
<g id="DESIGNED_BY_FREEPIK">
</g>
</svg>
