<?xml version="1.0" encoding="utf-8"?>
<!-- Generator: Adobe Illustrator 19.0.0, SVG Export Plug-In . SVG Version: 6.00 Build 0)  -->
<svg version="1.1" id="Layer_1" xmlns="http://www.w3.org/2000/svg" xmlns:xlink="http://www.w3.org/1999/xlink" x="0px" y="0px"
	 viewBox="0 0 10 10" style="enable-background:new 0 0 10 10;" xml:space="preserve">
<style type="text/css">
	.st0{opacity:0.4;}
	.st1{fill:#FFFFFF;}
	.st2{opacity:0.2;}
	.st3{opacity:0.1;}
	.st4{fill:#525352;}
	.st5{opacity:0.1;fill:#879D3B;}
	.st6{fill:#454490;}
	.st7{fill:#F58320;}
	.st8{opacity:0.6;fill:#AEE2FA;}
	.st9{opacity:0.3;}
	.st10{fill:#F8A47B;}
	.st11{fill:#8069AF;}
	.st12{fill:#183A65;}
	.st13{fill:#005292;}
	.st14{fill:#89D6F8;}
	.st15{fill:#4B4E7E;}
	.st16{fill:url(#XMLID_3_);}
	.st17{fill:#3B3B3B;}
	.st18{fill:url(#XMLID_4_);}
	.st19{fill:url(#XMLID_93_);}
	.st20{fill:#B79F83;}
	.st21{fill:#4755A5;}
	.st22{fill:#5C220C;}
	.st23{fill:#792B17;}
	.st24{fill:url(#XMLID_351_);}
	.st25{fill:url(#XMLID_352_);}
	.st26{fill:url(#XMLID_353_);}
</style>
<g id="XMLID_5_">
	<g id="XMLID_121_" class="st0">
		<g id="XMLID_349_">
			<path id="XMLID_350_" class="st1" d="M3.6,8.4C3.6,8.4,3.6,8.4,3.6,8.4C3.6,8.4,3.6,8.4,3.6,8.4C3.6,8.4,3.6,8.4,3.6,8.4
				C3.6,8.4,3.6,8.4,3.6,8.4C3.6,8.4,3.6,8.4,3.6,8.4C3.6,8.4,3.6,8.4,3.6,8.4C3.6,8.4,3.6,8.4,3.6,8.4C3.6,8.3,3.7,8.3,3.6,8.4
				C3.7,8.4,3.7,8.4,3.6,8.4C3.7,8.4,3.7,8.4,3.6,8.4C3.7,8.4,3.7,8.4,3.6,8.4C3.7,8.4,3.7,8.4,3.6,8.4C3.7,8.4,3.7,8.4,3.6,8.4
				C3.7,8.4,3.7,8.4,3.6,8.4C3.7,8.4,3.7,8.4,3.6,8.4C3.7,8.4,3.7,8.4,3.6,8.4z"/>
		</g>
		<g id="XMLID_124_">
			<path id="XMLID_125_" class="st1" d="M3.5,8.4L3.5,8.4L3.5,8.4C3.5,8.4,3.5,8.4,3.5,8.4L3.5,8.4C3.5,8.3,3.5,8.3,3.5,8.4L3.5,8.4
				C3.6,8.3,3.6,8.3,3.5,8.4L3.5,8.4C3.6,8.4,3.6,8.4,3.5,8.4L3.5,8.4C3.5,8.4,3.5,8.4,3.5,8.4z M3.4,8.4C3.4,8.4,3.4,8.3,3.4,8.4
				L3.4,8.4C3.4,8.3,3.4,8.3,3.4,8.4L3.4,8.4C3.5,8.3,3.5,8.3,3.4,8.4L3.4,8.4C3.5,8.4,3.4,8.4,3.4,8.4L3.4,8.4
				C3.4,8.4,3.4,8.4,3.4,8.4z M3.3,8.3C3.3,8.3,3.3,8.3,3.3,8.3L3.3,8.3C3.3,8.3,3.3,8.2,3.3,8.3L3.3,8.3C3.4,8.3,3.4,8.3,3.3,8.3
				L3.3,8.3C3.4,8.3,3.3,8.3,3.3,8.3L3.3,8.3C3.3,8.3,3.3,8.3,3.3,8.3z M3.2,8.3C3.2,8.3,3.2,8.3,3.2,8.3L3.2,8.3
				C3.2,8.2,3.2,8.2,3.2,8.3L3.2,8.3C3.2,8.2,3.3,8.3,3.2,8.3L3.2,8.3C3.3,8.3,3.2,8.3,3.2,8.3L3.2,8.3C3.2,8.3,3.2,8.3,3.2,8.3z
				 M3.1,8.3L3.1,8.3L3.1,8.3C3.1,8.3,3.1,8.2,3.1,8.3L3.1,8.3C3.1,8.2,3.1,8.2,3.1,8.3L3.1,8.3C3.1,8.2,3.2,8.2,3.1,8.3L3.1,8.3
				C3.1,8.3,3.1,8.3,3.1,8.3L3.1,8.3C3.1,8.3,3.1,8.3,3.1,8.3z M3,8.2L3,8.2L3,8.2C3,8.2,3,8.2,3,8.2L3,8.2C3,8.2,3,8.2,3,8.2L3,8.2
				C3,8.2,3,8.2,3,8.2L3,8.2C3,8.2,3,8.2,3,8.2L3,8.2C3,8.2,3,8.2,3,8.2z M2.9,8.2C2.9,8.2,2.9,8.2,2.9,8.2L2.9,8.2
				C2.9,8.1,2.9,8.1,2.9,8.2L2.9,8.2C2.9,8.1,2.9,8.2,2.9,8.2L2.9,8.2C2.9,8.2,2.9,8.2,2.9,8.2L2.9,8.2C2.9,8.2,2.9,8.2,2.9,8.2z
				 M2.8,8.2C2.8,8.2,2.8,8.2,2.8,8.2L2.8,8.2C2.8,8.1,2.8,8.1,2.8,8.2L2.8,8.2C2.8,8.1,2.8,8.1,2.8,8.2L2.8,8.2
				C2.8,8.2,2.8,8.2,2.8,8.2L2.8,8.2C2.8,8.2,2.8,8.2,2.8,8.2z M2.7,8.1C2.7,8.1,2.7,8.1,2.7,8.1L2.7,8.1C2.7,8.1,2.7,8.1,2.7,8.1
				L2.7,8.1C2.7,8.1,2.7,8.1,2.7,8.1L2.7,8.1C2.7,8.1,2.7,8.1,2.7,8.1L2.7,8.1C2.7,8.1,2.7,8.1,2.7,8.1z M2.6,8.1
				C2.6,8.1,2.6,8.1,2.6,8.1L2.6,8.1C2.6,8,2.6,8,2.6,8.1L2.6,8.1C2.6,8,2.6,8.1,2.6,8.1L2.6,8.1C2.6,8.1,2.6,8.1,2.6,8.1L2.6,8.1
				C2.6,8.1,2.6,8.1,2.6,8.1z M2.5,8.1C2.5,8.1,2.4,8.1,2.5,8.1L2.5,8.1C2.5,8,2.5,8,2.5,8.1L2.5,8.1C2.5,8,2.5,8,2.5,8.1L2.5,8.1
				C2.5,8.1,2.5,8.1,2.5,8.1L2.5,8.1C2.5,8.1,2.5,8.1,2.5,8.1z M7.1,8C7.1,8,7.1,8,7.1,8L7.1,8C7.1,8,7.1,8,7.1,8L7.1,8
				C7.1,8.1,7.1,8.1,7.1,8L7.1,8C7.1,8.1,7.1,8.1,7.1,8z M7.2,8C7.2,8,7.2,8,7.2,8L7.2,8C7.2,8,7.3,8,7.2,8L7.2,8
				C7.3,8.1,7.2,8.1,7.2,8L7.2,8L7.2,8L7.2,8C7.2,8.1,7.2,8.1,7.2,8L7.2,8C7.2,8.1,7.2,8.1,7.2,8z M7,8.1C7,8.1,7,8.1,7,8.1L7,8.1
				C7,8,7,8,7,8.1L7,8.1C7,8,7,8,7,8.1L7,8.1C7,8.1,7,8.1,7,8.1L7,8.1C7,8.1,7,8.1,7,8.1z M6.9,8.1C6.9,8.1,6.9,8.1,6.9,8.1L6.9,8.1
				C6.9,8,6.9,8,6.9,8.1L6.9,8.1C6.9,8,6.9,8,6.9,8.1L6.9,8.1C6.9,8.1,6.9,8.1,6.9,8.1L6.9,8.1C6.9,8.1,6.9,8.1,6.9,8.1z M7.3,8
				C7.3,8,7.3,8,7.3,8L7.3,8C7.4,8,7.4,8,7.3,8L7.3,8C7.4,8.1,7.4,8.1,7.3,8L7.3,8C7.3,8.1,7.3,8.1,7.3,8L7.3,8
				C7.3,8.1,7.3,8.1,7.3,8L7.3,8C7.3,8.1,7.3,8.1,7.3,8z M6.8,8.1C6.8,8.1,6.8,8,6.8,8.1L6.8,8.1C6.8,8,6.8,8,6.8,8.1L6.8,8.1
				C6.8,8,6.8,8,6.8,8.1L6.8,8.1C6.8,8.1,6.8,8.1,6.8,8.1L6.8,8.1C6.8,8.1,6.8,8.1,6.8,8.1z M7.4,8.1C7.4,8.1,7.4,8.1,7.4,8.1
				L7.4,8.1C7.4,8,7.4,8,7.4,8.1L7.4,8.1C7.5,8,7.5,8,7.4,8.1L7.4,8.1C7.5,8,7.5,8.1,7.4,8.1L7.4,8.1L7.4,8.1z M6.7,8.1
				C6.7,8.1,6.6,8,6.7,8.1L6.7,8.1C6.6,8,6.7,8,6.7,8.1L6.7,8.1C6.7,8,6.7,8,6.7,8.1L6.7,8.1C6.7,8,6.7,8.1,6.7,8.1L6.7,8.1
				C6.7,8.1,6.7,8.1,6.7,8.1z M7.5,8C7.5,8,7.5,8,7.5,8L7.5,8C7.6,8,7.6,8,7.5,8L7.5,8C7.6,8,7.6,8.1,7.5,8L7.5,8
				C7.6,8.1,7.6,8.1,7.5,8L7.5,8C7.5,8.1,7.5,8,7.5,8z M6.6,8.1C6.6,8.1,6.5,8,6.6,8.1L6.6,8.1C6.5,8,6.6,8,6.6,8.1L6.6,8.1
				C6.6,8,6.6,8,6.6,8.1L6.6,8.1C6.6,8,6.6,8.1,6.6,8.1L6.6,8.1C6.6,8.1,6.6,8.1,6.6,8.1z M2.4,8.1L2.4,8.1L2.4,8.1
				C2.4,8,2.3,8,2.4,8.1L2.4,8.1C2.3,8,2.4,8,2.4,8.1L2.4,8.1C2.4,8,2.4,8,2.4,8.1L2.4,8.1C2.4,8,2.4,8.1,2.4,8.1L2.4,8.1
				C2.4,8.1,2.4,8.1,2.4,8.1z M6.5,8.1C6.5,8.1,6.5,8.1,6.5,8.1L6.5,8.1C6.4,8.1,6.4,8,6.5,8.1L6.5,8.1C6.4,8,6.4,8,6.5,8.1L6.5,8.1
				C6.5,8,6.5,8,6.5,8.1L6.5,8.1C6.5,8,6.5,8.1,6.5,8.1L6.5,8.1C6.5,8.1,6.5,8.1,6.5,8.1z M7.6,8C7.6,8,7.6,8,7.6,8L7.6,8
				C7.7,8,7.7,8,7.6,8L7.6,8C7.7,8,7.7,8,7.6,8L7.6,8C7.7,8.1,7.7,8.1,7.6,8L7.6,8C7.7,8.1,7.7,8.1,7.6,8L7.6,8C7.6,8.1,7.6,8,7.6,8
				z M7.7,8C7.7,8,7.7,8,7.7,8L7.7,8C7.8,8,7.8,8,7.7,8L7.7,8C7.8,8,7.8,8,7.7,8L7.7,8C7.8,8,7.8,8,7.7,8L7.7,8C7.8,8,7.7,8,7.7,8z
				 M2.3,8L2.3,8L2.3,8C2.2,8,2.2,8,2.3,8L2.3,8C2.2,8,2.3,7.9,2.3,8L2.3,8C2.3,7.9,2.3,8,2.3,8L2.3,8C2.3,8,2.3,8,2.3,8L2.3,8
				C2.3,8,2.3,8,2.3,8z M7.8,8C7.8,8,7.9,7.9,7.8,8L7.8,8C7.9,7.9,7.9,8,7.8,8L7.8,8C7.9,8,7.9,8,7.8,8L7.8,8C7.9,8,7.9,8,7.8,8
				L7.8,8C7.9,8,7.9,8,7.8,8L7.8,8C7.9,8,7.8,8,7.8,8z M8,8C7.9,7.9,8,7.9,8,8L8,8C8,7.9,8,7.9,8,8L8,8C8,8,8,8,8,8L8,8C8,8,8,8,8,8
				L8,8C8,8,8,8,8,8z M2.2,8C2.1,8,2.1,8,2.2,8L2.2,8C2.1,7.9,2.2,7.9,2.2,8L2.2,8C2.2,7.9,2.2,7.9,2.2,8L2.2,8C2.2,8,2.2,8,2.2,8
				L2.2,8C2.2,8,2.2,8,2.2,8z M8.1,7.9C8.1,7.9,8.1,7.9,8.1,7.9L8.1,7.9C8.1,7.9,8.1,7.9,8.1,7.9L8.1,7.9C8.1,8,8.1,8,8.1,7.9
				L8.1,7.9C8.1,8,8.1,8,8.1,7.9L8.1,7.9C8.1,8,8.1,8,8.1,7.9z M2.1,8C2,8,2,7.9,2.1,8L2.1,8C2,7.9,2.1,7.9,2.1,8L2.1,8
				C2.1,7.9,2.1,7.9,2.1,8L2.1,8C2.1,7.9,2.1,8,2.1,8L2.1,8C2.1,8,2.1,8,2.1,8z M8.2,7.9C8.2,7.9,8.2,7.9,8.2,7.9L8.2,7.9
				C8.2,7.9,8.2,7.9,8.2,7.9L8.2,7.9C8.2,7.9,8.2,7.9,8.2,7.9L8.2,7.9L8.2,7.9L8.2,7.9C8.2,8,8.2,8,8.2,7.9L8.2,7.9
				C8.2,8,8.2,7.9,8.2,7.9z M1.9,7.9C1.9,7.9,1.9,7.9,1.9,7.9L1.9,7.9C1.9,7.9,1.9,7.8,1.9,7.9L1.9,7.9C2,7.9,2,7.9,1.9,7.9L1.9,7.9
				C2,7.9,2,7.9,1.9,7.9L1.9,7.9C2,7.9,1.9,7.9,1.9,7.9z M8.3,7.9C8.3,7.9,8.3,7.9,8.3,7.9L8.3,7.9C8.3,7.8,8.3,7.9,8.3,7.9L8.3,7.9
				C8.3,7.9,8.3,7.9,8.3,7.9L8.3,7.9L8.3,7.9L8.3,7.9C8.3,7.9,8.3,7.9,8.3,7.9L8.3,7.9C8.3,7.9,8.3,7.9,8.3,7.9z M1.8,7.9
				C1.8,7.9,1.8,7.9,1.8,7.9L1.8,7.9C1.8,7.9,1.8,7.9,1.8,7.9L1.8,7.9C1.8,7.8,1.8,7.8,1.8,7.9L1.8,7.9C1.9,7.8,1.9,7.8,1.8,7.9
				L1.8,7.9C1.9,7.9,1.9,7.9,1.8,7.9L1.8,7.9C1.8,7.9,1.8,7.9,1.8,7.9z M8.4,7.9C8.4,7.8,8.4,7.8,8.4,7.9L8.4,7.9
				C8.4,7.8,8.4,7.8,8.4,7.9L8.4,7.9C8.4,7.9,8.4,7.9,8.4,7.9L8.4,7.9C8.4,7.9,8.4,7.9,8.4,7.9L8.4,7.9C8.4,7.9,8.4,7.9,8.4,7.9
				L8.4,7.9C8.4,7.9,8.4,7.9,8.4,7.9z M1.7,7.9C1.7,7.9,1.7,7.8,1.7,7.9L1.7,7.9C1.7,7.8,1.7,7.8,1.7,7.9L1.7,7.9
				C1.8,7.8,1.8,7.8,1.7,7.9L1.7,7.9C1.8,7.9,1.8,7.9,1.7,7.9L1.7,7.9C1.7,7.9,1.7,7.9,1.7,7.9z M8.5,7.8C8.5,7.8,8.5,7.8,8.5,7.8
				L8.5,7.8C8.5,7.8,8.5,7.8,8.5,7.8L8.5,7.8C8.5,7.8,8.5,7.8,8.5,7.8L8.5,7.8C8.5,7.8,8.5,7.8,8.5,7.8L8.5,7.8
				C8.5,7.8,8.5,7.8,8.5,7.8z M1.6,7.8C1.6,7.8,1.6,7.8,1.6,7.8L1.6,7.8C1.6,7.8,1.6,7.7,1.6,7.8L1.6,7.8C1.7,7.8,1.7,7.8,1.6,7.8
				L1.6,7.8C1.7,7.8,1.7,7.8,1.6,7.8L1.6,7.8C1.6,7.8,1.6,7.8,1.6,7.8z M8.6,7.8C8.6,7.8,8.6,7.7,8.6,7.8L8.6,7.8
				C8.6,7.7,8.6,7.7,8.6,7.8L8.6,7.8C8.7,7.8,8.6,7.8,8.6,7.8L8.6,7.8C8.6,7.8,8.6,7.8,8.6,7.8L8.6,7.8C8.6,7.8,8.6,7.8,8.6,7.8
				L8.6,7.8C8.6,7.8,8.6,7.8,8.6,7.8z M1.5,7.8C1.5,7.8,1.5,7.8,1.5,7.8L1.5,7.8C1.5,7.7,1.5,7.7,1.5,7.8L1.5,7.8
				C1.6,7.7,1.6,7.7,1.5,7.8L1.5,7.8C1.6,7.8,1.5,7.8,1.5,7.8L1.5,7.8C1.5,7.8,1.5,7.8,1.5,7.8z M1.4,7.8C1.4,7.8,1.4,7.7,1.4,7.8
				L1.4,7.8C1.4,7.7,1.4,7.7,1.4,7.8L1.4,7.8C1.5,7.7,1.5,7.7,1.4,7.8L1.4,7.8C1.5,7.8,1.4,7.8,1.4,7.8L1.4,7.8
				C1.4,7.8,1.4,7.8,1.4,7.8z M8.7,7.7C8.7,7.7,8.7,7.7,8.7,7.7L8.7,7.7C8.7,7.7,8.7,7.7,8.7,7.7L8.7,7.7C8.8,7.7,8.7,7.7,8.7,7.7
				L8.7,7.7C8.7,7.8,8.7,7.8,8.7,7.7L8.7,7.7C8.7,7.8,8.7,7.7,8.7,7.7z M1.3,7.7C1.3,7.7,1.3,7.7,1.3,7.7L1.3,7.7
				C1.3,7.7,1.3,7.6,1.3,7.7L1.3,7.7C1.3,7.7,1.4,7.7,1.3,7.7L1.3,7.7C1.3,7.7,1.3,7.7,1.3,7.7L1.3,7.7C1.3,7.7,1.3,7.7,1.3,7.7z
				 M8.8,7.7C8.8,7.7,8.8,7.6,8.8,7.7L8.8,7.7C8.8,7.6,8.8,7.6,8.8,7.7L8.8,7.7C8.9,7.7,8.8,7.7,8.8,7.7L8.8,7.7L8.8,7.7L8.8,7.7
				C8.8,7.7,8.8,7.7,8.8,7.7L8.8,7.7C8.8,7.7,8.8,7.7,8.8,7.7z M1.2,7.7C1.2,7.7,1.2,7.7,1.2,7.7L1.2,7.7C1.2,7.6,1.2,7.6,1.2,7.7
				L1.2,7.7C1.2,7.6,1.3,7.6,1.2,7.7L1.2,7.7C1.2,7.7,1.2,7.7,1.2,7.7L1.2,7.7C1.2,7.7,1.2,7.7,1.2,7.7z M1.1,7.7L1.1,7.7L1.1,7.7
				C1.1,7.7,1.1,7.6,1.1,7.7L1.1,7.7C1.1,7.6,1.1,7.6,1.1,7.7L1.1,7.7C1.1,7.6,1.1,7.6,1.1,7.7L1.1,7.7C1.1,7.7,1.1,7.7,1.1,7.7
				L1.1,7.7C1.1,7.7,1.1,7.7,1.1,7.7z M8.9,7.6C8.9,7.6,8.9,7.6,8.9,7.6L8.9,7.6C8.9,7.6,8.9,7.6,8.9,7.6L8.9,7.6
				C8.9,7.6,8.9,7.6,8.9,7.6L8.9,7.6C8.9,7.6,8.9,7.6,8.9,7.6L8.9,7.6C8.9,7.6,8.9,7.6,8.9,7.6z M1,7.6C1,7.6,1,7.6,1,7.6L1,7.6
				C1,7.6,1,7.5,1,7.6L1,7.6C1,7.6,1,7.6,1,7.6L1,7.6C1,7.6,1,7.6,1,7.6L1,7.6C1,7.6,1,7.6,1,7.6z M0.9,7.6C0.9,7.6,0.9,7.6,0.9,7.6
				L0.9,7.6C0.9,7.5,0.9,7.5,0.9,7.6L0.9,7.6C0.9,7.5,0.9,7.5,0.9,7.6L0.9,7.6C0.9,7.6,0.9,7.6,0.9,7.6L0.9,7.6
				C0.9,7.6,0.9,7.6,0.9,7.6z M9,7.6C9,7.5,9,7.5,9,7.6L9,7.6C9,7.5,9,7.5,9,7.6L9,7.6C9,7.5,9,7.6,9,7.6L9,7.6C9,7.6,9,7.6,9,7.6
				L9,7.6C9,7.6,9,7.6,9,7.6z M0.8,7.5C0.8,7.5,0.8,7.5,0.8,7.5L0.8,7.5C0.8,7.5,0.8,7.5,0.8,7.5L0.8,7.5C0.8,7.5,0.8,7.5,0.8,7.5
				L0.8,7.5C0.8,7.5,0.8,7.5,0.8,7.5L0.8,7.5C0.8,7.5,0.8,7.5,0.8,7.5z M9.1,7.5C9.1,7.5,9.1,7.5,9.1,7.5L9.1,7.5
				C9.1,7.4,9.1,7.4,9.1,7.5L9.1,7.5C9.1,7.5,9.1,7.5,9.1,7.5L9.1,7.5C9.1,7.5,9.1,7.5,9.1,7.5L9.1,7.5C9.1,7.5,9.1,7.5,9.1,7.5z
				 M0.7,7.5C0.7,7.5,0.7,7.4,0.7,7.5L0.7,7.5C0.7,7.4,0.7,7.4,0.7,7.5L0.7,7.5C0.7,7.4,0.7,7.4,0.7,7.5L0.7,7.5
				C0.7,7.5,0.7,7.5,0.7,7.5L0.7,7.5C0.7,7.5,0.7,7.5,0.7,7.5z M9.2,7.4C9.2,7.4,9.2,7.4,9.2,7.4L9.2,7.4C9.2,7.4,9.2,7.4,9.2,7.4
				L9.2,7.4C9.2,7.4,9.2,7.4,9.2,7.4L9.2,7.4C9.2,7.4,9.2,7.4,9.2,7.4L9.2,7.4C9.2,7.4,9.2,7.4,9.2,7.4z M0.6,7.4L0.6,7.4L0.6,7.4
				C0.6,7.4,0.6,7.4,0.6,7.4L0.6,7.4C0.6,7.3,0.6,7.3,0.6,7.4L0.6,7.4C0.6,7.4,0.6,7.4,0.6,7.4L0.6,7.4C0.6,7.4,0.6,7.4,0.6,7.4
				L0.6,7.4C0.6,7.4,0.6,7.4,0.6,7.4z M9.3,7.3C9.2,7.3,9.2,7.3,9.3,7.3L9.3,7.3C9.3,7.3,9.3,7.3,9.3,7.3L9.3,7.3
				C9.3,7.3,9.3,7.3,9.3,7.3L9.3,7.3C9.3,7.4,9.3,7.4,9.3,7.3L9.3,7.3C9.3,7.4,9.3,7.4,9.3,7.3z M0.5,7.3C0.5,7.3,0.5,7.3,0.5,7.3
				L0.5,7.3C0.5,7.3,0.5,7.3,0.5,7.3L0.5,7.3C0.5,7.3,0.6,7.3,0.5,7.3L0.5,7.3C0.5,7.3,0.5,7.4,0.5,7.3L0.5,7.3
				C0.5,7.4,0.5,7.4,0.5,7.3z M9.3,7.3C9.3,7.3,9.3,7.2,9.3,7.3L9.3,7.3C9.4,7.2,9.4,7.2,9.3,7.3L9.3,7.3C9.4,7.2,9.4,7.3,9.3,7.3
				L9.3,7.3C9.4,7.3,9.4,7.3,9.3,7.3L9.3,7.3C9.4,7.3,9.3,7.3,9.3,7.3z M0.4,7.3C0.4,7.3,0.4,7.2,0.4,7.3L0.4,7.3
				C0.4,7.2,0.4,7.2,0.4,7.3L0.4,7.3C0.5,7.2,0.5,7.2,0.4,7.3L0.4,7.3C0.4,7.3,0.4,7.3,0.4,7.3L0.4,7.3C0.4,7.3,0.4,7.3,0.4,7.3z
				 M9.4,7.2C9.4,7.2,9.4,7.1,9.4,7.2L9.4,7.2C9.4,7.1,9.5,7.1,9.4,7.2L9.4,7.2C9.5,7.1,9.5,7.2,9.4,7.2L9.4,7.2
				C9.5,7.2,9.5,7.2,9.4,7.2L9.4,7.2C9.4,7.2,9.4,7.2,9.4,7.2z M0.3,7.2C0.3,7.2,0.3,7.1,0.3,7.2L0.3,7.2C0.3,7.1,0.4,7.1,0.3,7.2
				L0.3,7.2C0.4,7.1,0.4,7.2,0.3,7.2L0.3,7.2C0.4,7.2,0.4,7.2,0.3,7.2L0.3,7.2C0.3,7.2,0.3,7.2,0.3,7.2z M9.5,7.1
				C9.5,7.1,9.5,7,9.5,7.1L9.5,7.1C9.5,7,9.5,7,9.5,7.1L9.5,7.1C9.6,7,9.6,7.1,9.5,7.1L9.5,7.1L9.5,7.1L9.5,7.1
				C9.5,7.1,9.5,7.1,9.5,7.1L9.5,7.1C9.5,7.1,9.5,7.1,9.5,7.1z M0.3,7.1C0.2,7.1,0.2,7,0.3,7.1L0.3,7.1C0.3,7,0.3,7,0.3,7.1L0.3,7.1
				C0.3,7,0.3,7.1,0.3,7.1L0.3,7.1C0.3,7.1,0.3,7.1,0.3,7.1L0.3,7.1C0.3,7.1,0.3,7.1,0.3,7.1z M9.6,7C9.6,7,9.6,7,9.6,7L9.6,7
				C9.6,6.9,9.6,6.9,9.6,7L9.6,7C9.6,6.9,9.6,7,9.6,7L9.6,7C9.6,7,9.6,7,9.6,7L9.6,7C9.6,7,9.6,7,9.6,7z M0.2,7
				C0.2,6.9,0.2,6.9,0.2,7L0.2,7C0.2,6.9,0.2,6.9,0.2,7L0.2,7C0.3,6.9,0.2,7,0.2,7L0.2,7C0.2,7,0.2,7,0.2,7L0.2,7C0.2,7,0.2,7,0.2,7
				z M9.6,6.9C9.6,6.9,9.6,6.9,9.6,6.9L9.6,6.9C9.6,6.8,9.7,6.8,9.6,6.9L9.6,6.9C9.7,6.8,9.7,6.9,9.6,6.9L9.6,6.9L9.6,6.9L9.6,6.9
				C9.7,6.9,9.7,6.9,9.6,6.9L9.6,6.9C9.7,6.9,9.6,6.9,9.6,6.9z M0.1,6.8C0.1,6.8,0.1,6.8,0.1,6.8L0.1,6.8C0.2,6.8,0.2,6.8,0.1,6.8
				L0.1,6.8C0.2,6.8,0.2,6.8,0.1,6.8L0.1,6.8C0.2,6.9,0.2,6.9,0.1,6.8L0.1,6.8C0.2,6.9,0.1,6.9,0.1,6.8z M9.7,6.8
				C9.7,6.8,9.7,6.7,9.7,6.8L9.7,6.8C9.7,6.7,9.7,6.7,9.7,6.8L9.7,6.8C9.8,6.7,9.8,6.8,9.7,6.8L9.7,6.8L9.7,6.8L9.7,6.8
				C9.7,6.8,9.7,6.8,9.7,6.8L9.7,6.8C9.7,6.8,9.7,6.8,9.7,6.8z M0.1,6.7L0.1,6.7L0.1,6.7C0.1,6.7,0.1,6.7,0.1,6.7L0.1,6.7
				C0.1,6.7,0.2,6.7,0.1,6.7L0.1,6.7C0.2,6.7,0.2,6.7,0.1,6.7L0.1,6.7C0.1,6.7,0.1,6.7,0.1,6.7L0.1,6.7C0.1,6.7,0.1,6.7,0.1,6.7z
				 M9.8,6.7C9.7,6.7,9.7,6.6,9.8,6.7L9.8,6.7C9.8,6.6,9.8,6.6,9.8,6.7L9.8,6.7C9.8,6.6,9.8,6.6,9.8,6.7L9.8,6.7L9.8,6.7L9.8,6.7
				C9.8,6.7,9.8,6.7,9.8,6.7L9.8,6.7C9.8,6.7,9.8,6.7,9.8,6.7z M0.1,6.6L0.1,6.6L0.1,6.6C0.1,6.6,0.1,6.5,0.1,6.6L0.1,6.6
				C0.1,6.5,0.1,6.5,0.1,6.6L0.1,6.6C0.1,6.6,0.1,6.6,0.1,6.6L0.1,6.6C0.1,6.6,0.1,6.6,0.1,6.6L0.1,6.6C0.1,6.6,0.1,6.6,0.1,6.6z
				 M9.8,6.6C9.8,6.5,9.8,6.5,9.8,6.6L9.8,6.6C9.8,6.5,9.8,6.5,9.8,6.6L9.8,6.6C9.9,6.5,9.9,6.5,9.8,6.6L9.8,6.6
				C9.8,6.5,9.8,6.6,9.8,6.6L9.8,6.6C9.8,6.6,9.8,6.6,9.8,6.6z M0,6.4C0,6.4,0.1,6.4,0,6.4L0,6.4C0.1,6.4,0.1,6.4,0,6.4L0,6.4
				C0.1,6.5,0.1,6.5,0,6.4L0,6.4C0.1,6.5,0.1,6.5,0,6.4L0,6.4C0.1,6.5,0,6.5,0,6.4z M9.9,6.4C9.8,6.4,9.8,6.4,9.9,6.4L9.9,6.4
				C9.8,6.4,9.9,6.3,9.9,6.4L9.9,6.4C9.9,6.4,9.9,6.4,9.9,6.4L9.9,6.4L9.9,6.4L9.9,6.4C9.9,6.4,9.9,6.4,9.9,6.4L9.9,6.4
				C9.9,6.4,9.9,6.4,9.9,6.4z M0,6.3C0,6.3,0.1,6.3,0,6.3L0,6.3C0.1,6.3,0.1,6.3,0,6.3L0,6.3C0.1,6.3,0.1,6.3,0,6.3L0,6.3
				C0.1,6.3,0.1,6.3,0,6.3L0,6.3C0.1,6.3,0,6.3,0,6.3z M9.9,6.3C9.9,6.3,9.9,6.3,9.9,6.3L9.9,6.3C9.9,6.2,9.9,6.2,9.9,6.3L9.9,6.3
				C9.9,6.2,9.9,6.3,9.9,6.3L9.9,6.3C9.9,6.3,9.9,6.3,9.9,6.3L9.9,6.3C9.9,6.3,9.9,6.3,9.9,6.3z M0.1,6.2C0.1,6.2,0,6.2,0.1,6.2
				L0.1,6.2C0,6.2,0.1,6.1,0.1,6.2L0.1,6.2C0.1,6.1,0.1,6.2,0.1,6.2L0.1,6.2C0.1,6.2,0.1,6.2,0.1,6.2L0.1,6.2
				C0.1,6.2,0.1,6.2,0.1,6.2z M9.9,6.2C9.9,6.2,9.9,6.2,9.9,6.2L9.9,6.2C9.9,6.1,9.9,6.1,9.9,6.2L9.9,6.2C10,6.1,10,6.1,9.9,6.2
				L9.9,6.2L9.9,6.2L9.9,6.2C10,6.2,9.9,6.2,9.9,6.2L9.9,6.2C9.9,6.2,9.9,6.2,9.9,6.2z M0.1,6.1C0.1,6.1,0.1,6.1,0.1,6.1L0.1,6.1
				C0.1,6,0.1,6,0.1,6.1L0.1,6.1C0.1,6,0.1,6,0.1,6.1L0.1,6.1C0.1,6.1,0.1,6.1,0.1,6.1L0.1,6.1C0.1,6.1,0.1,6.1,0.1,6.1z M9.9,6.1
				C9.9,6,9.9,6,9.9,6.1L9.9,6.1C9.9,6,9.9,6,9.9,6.1L9.9,6.1C10,6,10,6,9.9,6.1L9.9,6.1C10,6,10,6.1,9.9,6.1L9.9,6.1
				C9.9,6.1,9.9,6.1,9.9,6.1z M0.1,6C0.1,6,0.1,5.9,0.1,6L0.1,6C0.1,5.9,0.1,5.9,0.1,6L0.1,6C0.1,5.9,0.1,5.9,0.1,6L0.1,6
				C0.1,5.9,0.1,6,0.1,6L0.1,6C0.1,6,0.1,6,0.1,6z M10,5.9C9.9,5.9,9.9,5.9,10,5.9L10,5.9C9.9,5.9,9.9,5.8,10,5.9L10,5.9
				C10,5.8,10,5.9,10,5.9L10,5.9C10,5.9,10,5.9,10,5.9L10,5.9C10,5.9,10,5.9,10,5.9z M0.1,5.8C0.1,5.8,0.1,5.8,0.1,5.8L0.1,5.8
				L0.1,5.8L0.1,5.8C0.1,5.8,0.1,5.7,0.1,5.8L0.1,5.8C0.2,5.8,0.2,5.8,0.1,5.8L0.1,5.8C0.2,5.8,0.2,5.8,0.1,5.8L0.1,5.8
				C0.1,5.8,0.1,5.8,0.1,5.8z M10,5.8C10,5.8,9.9,5.8,10,5.8L10,5.8C9.9,5.7,10,5.7,10,5.8L10,5.8C10,5.7,10,5.7,10,5.8L10,5.8
				C10,5.8,10,5.8,10,5.8L10,5.8C10,5.8,10,5.8,10,5.8z M0.2,5.7C0.2,5.7,0.2,5.7,0.2,5.7L0.2,5.7C0.2,5.6,0.2,5.6,0.2,5.7L0.2,5.7
				C0.2,5.6,0.2,5.7,0.2,5.7L0.2,5.7C0.2,5.7,0.2,5.7,0.2,5.7L0.2,5.7C0.2,5.7,0.2,5.7,0.2,5.7z M9.9,5.6C9.9,5.6,9.9,5.6,9.9,5.6
				L9.9,5.6C10,5.6,10,5.6,9.9,5.6L9.9,5.6C10,5.6,10,5.7,9.9,5.6L9.9,5.6C10,5.7,10,5.7,9.9,5.6L9.9,5.6C10,5.7,9.9,5.6,9.9,5.6z
				 M0.2,5.6C0.2,5.6,0.2,5.6,0.2,5.6L0.2,5.6C0.2,5.5,0.2,5.5,0.2,5.6L0.2,5.6C0.3,5.5,0.3,5.6,0.2,5.6L0.2,5.6
				C0.3,5.6,0.2,5.6,0.2,5.6L0.2,5.6C0.2,5.6,0.2,5.6,0.2,5.6z M9.9,5.5L9.9,5.5C9.9,5.5,9.9,5.5,9.9,5.5L9.9,5.5
				C10,5.4,10,5.5,9.9,5.5L9.9,5.5C10,5.5,10,5.5,9.9,5.5L9.9,5.5C10,5.5,10,5.5,9.9,5.5L9.9,5.5C9.9,5.5,9.9,5.5,9.9,5.5z M0.3,5.5
				C0.3,5.5,0.3,5.4,0.3,5.5L0.3,5.5L0.3,5.5L0.3,5.5C0.3,5.4,0.3,5.4,0.3,5.5L0.3,5.5C0.3,5.4,0.3,5.5,0.3,5.5L0.3,5.5
				C0.3,5.5,0.3,5.5,0.3,5.5L0.3,5.5C0.3,5.5,0.3,5.5,0.3,5.5z M9.9,5.4L9.9,5.4C9.9,5.3,9.9,5.3,9.9,5.4L9.9,5.4
				C10,5.3,10,5.3,9.9,5.4L9.9,5.4L9.9,5.4L9.9,5.4C10,5.4,10,5.4,9.9,5.4L9.9,5.4C9.9,5.4,9.9,5.4,9.9,5.4L9.9,5.4
				C9.9,5.4,9.9,5.4,9.9,5.4z M0.3,5.4C0.3,5.4,0.3,5.3,0.3,5.4L0.3,5.4C0.3,5.3,0.3,5.3,0.3,5.4L0.3,5.4C0.4,5.3,0.4,5.3,0.3,5.4
				L0.3,5.4C0.4,5.3,0.4,5.3,0.3,5.4L0.3,5.4C0.4,5.4,0.4,5.4,0.3,5.4L0.3,5.4C0.4,5.4,0.3,5.4,0.3,5.4z M0.4,5.3
				C0.4,5.3,0.4,5.2,0.4,5.3L0.4,5.3C0.4,5.2,0.4,5.2,0.4,5.3L0.4,5.3C0.5,5.2,0.5,5.3,0.4,5.3L0.4,5.3C0.5,5.3,0.4,5.3,0.4,5.3
				L0.4,5.3C0.4,5.3,0.4,5.3,0.4,5.3z M9.9,5.2C9.9,5.2,9.9,5.2,9.9,5.2L9.9,5.2C9.9,5.2,9.9,5.2,9.9,5.2L9.9,5.2
				C10,5.2,9.9,5.3,9.9,5.2L9.9,5.2C9.9,5.3,9.9,5.3,9.9,5.2L9.9,5.2C9.9,5.3,9.9,5.3,9.9,5.2z M0.5,5.2C0.5,5.2,0.5,5.1,0.5,5.2
				L0.5,5.2C0.5,5.1,0.5,5.1,0.5,5.2L0.5,5.2C0.6,5.1,0.6,5.2,0.5,5.2L0.5,5.2C0.5,5.2,0.5,5.2,0.5,5.2L0.5,5.2
				C0.5,5.2,0.5,5.2,0.5,5.2z M9.9,5.1L9.9,5.1C9.8,5.1,9.9,5.1,9.9,5.1L9.9,5.1C9.9,5.1,9.9,5.1,9.9,5.1L9.9,5.1L9.9,5.1L9.9,5.1
				C9.9,5.1,9.9,5.1,9.9,5.1L9.9,5.1C9.9,5.1,9.9,5.1,9.9,5.1L9.9,5.1C9.9,5.1,9.9,5.1,9.9,5.1z M0.6,5.1C0.6,5.1,0.6,5.1,0.6,5.1
				L0.6,5.1L0.6,5.1L0.6,5.1C0.6,5,0.6,5,0.6,5.1L0.6,5.1C0.6,5.1,0.6,5.1,0.6,5.1L0.6,5.1C0.6,5.1,0.6,5.1,0.6,5.1L0.6,5.1
				C0.6,5.1,0.6,5.1,0.6,5.1z M0.7,5C0.7,5,0.7,5,0.7,5L0.7,5C0.7,5,0.7,5,0.7,5L0.7,5C0.7,4.9,0.7,5,0.7,5L0.7,5C0.7,5,0.7,5,0.7,5
				L0.7,5C0.7,5,0.7,5,0.7,5L0.7,5C0.7,5,0.7,5,0.7,5z M9.8,5C9.8,5,9.8,5,9.8,5L9.8,5C9.8,4.9,9.9,4.9,9.8,5L9.8,5
				C9.9,5,9.9,5,9.8,5L9.8,5C9.9,5,9.9,5,9.8,5L9.8,5C9.8,5,9.8,5,9.8,5L9.8,5C9.8,5,9.8,5,9.8,5z M0.8,4.9C0.7,4.9,0.7,4.9,0.8,4.9
				L0.8,4.9C0.8,4.9,0.8,4.9,0.8,4.9L0.8,4.9C0.8,4.9,0.8,4.9,0.8,4.9L0.8,4.9C0.8,5,0.8,5,0.8,4.9L0.8,4.9C0.8,5,0.8,5,0.8,4.9z
				 M9.8,4.9L9.8,4.9C9.7,4.9,9.8,4.8,9.8,4.9L9.8,4.9C9.8,4.8,9.8,4.8,9.8,4.9L9.8,4.9C9.8,4.9,9.8,4.9,9.8,4.9L9.8,4.9
				C9.8,4.9,9.8,4.9,9.8,4.9L9.8,4.9C9.8,4.9,9.8,4.9,9.8,4.9z M0.8,4.9C0.8,4.9,0.8,4.8,0.8,4.9L0.8,4.9C0.9,4.8,0.9,4.8,0.8,4.9
				L0.8,4.9C0.9,4.9,0.9,4.9,0.8,4.9L0.8,4.9C0.9,4.9,0.9,4.9,0.8,4.9L0.8,4.9C0.9,4.9,0.9,4.9,0.8,4.9z M0.9,4.8
				C0.9,4.8,0.9,4.8,0.9,4.8L0.9,4.8C1,4.8,1,4.8,0.9,4.8L0.9,4.8C1,4.8,1,4.8,0.9,4.8L0.9,4.8C1,4.8,1,4.8,0.9,4.8L0.9,4.8
				C1,4.8,0.9,4.8,0.9,4.8z M9.7,4.8L9.7,4.8C9.7,4.8,9.7,4.7,9.7,4.8L9.7,4.8C9.7,4.7,9.7,4.7,9.7,4.8L9.7,4.8
				C9.8,4.8,9.8,4.8,9.7,4.8L9.7,4.8C9.7,4.8,9.7,4.8,9.7,4.8L9.7,4.8C9.7,4.8,9.7,4.8,9.7,4.8z M1,4.8C1,4.7,1,4.7,1,4.8L1,4.8
				L1,4.8L1,4.8C1.1,4.7,1.1,4.7,1,4.8L1,4.8C1.1,4.8,1.1,4.8,1,4.8L1,4.8C1.1,4.8,1.1,4.8,1,4.8L1,4.8C1.1,4.8,1,4.8,1,4.8z
				 M1.1,4.7C1.1,4.7,1.2,4.7,1.1,4.7L1.1,4.7C1.2,4.7,1.2,4.7,1.1,4.7L1.1,4.7C1.2,4.7,1.2,4.7,1.1,4.7L1.1,4.7
				C1.2,4.8,1.2,4.8,1.1,4.7L1.1,4.7C1.2,4.8,1.2,4.7,1.1,4.7z M1.3,4.7C1.2,4.7,1.3,4.6,1.3,4.7L1.3,4.7L1.3,4.7L1.3,4.7
				C1.3,4.6,1.3,4.6,1.3,4.7L1.3,4.7C1.3,4.7,1.3,4.7,1.3,4.7L1.3,4.7C1.3,4.7,1.3,4.7,1.3,4.7L1.3,4.7C1.3,4.7,1.3,4.7,1.3,4.7z
				 M9.6,4.7C9.6,4.7,9.6,4.6,9.6,4.7L9.6,4.7C9.6,4.6,9.7,4.6,9.6,4.7L9.6,4.7C9.7,4.7,9.7,4.7,9.6,4.7L9.6,4.7
				C9.7,4.7,9.7,4.7,9.6,4.7L9.6,4.7C9.6,4.7,9.6,4.7,9.6,4.7z M1.4,4.7C1.4,4.6,1.4,4.6,1.4,4.7L1.4,4.7L1.4,4.7L1.4,4.7
				C1.4,4.6,1.4,4.6,1.4,4.7L1.4,4.7C1.4,4.7,1.4,4.7,1.4,4.7L1.4,4.7C1.4,4.7,1.4,4.7,1.4,4.7L1.4,4.7C1.4,4.7,1.4,4.7,1.4,4.7z
				 M1.5,4.6C1.5,4.6,1.5,4.6,1.5,4.6L1.5,4.6C1.5,4.6,1.5,4.6,1.5,4.6L1.5,4.6C1.5,4.6,1.5,4.7,1.5,4.6L1.5,4.6
				C1.5,4.7,1.5,4.7,1.5,4.6L1.5,4.6C1.5,4.7,1.5,4.6,1.5,4.6z M1.6,4.6C1.6,4.6,1.6,4.6,1.6,4.6L1.6,4.6C1.6,4.6,1.6,4.6,1.6,4.6
				L1.6,4.6C1.6,4.6,1.6,4.6,1.6,4.6L1.6,4.6C1.6,4.6,1.6,4.6,1.6,4.6L1.6,4.6C1.6,4.6,1.6,4.6,1.6,4.6z M1.7,4.6
				C1.7,4.6,1.7,4.5,1.7,4.6L1.7,4.6C1.7,4.5,1.7,4.6,1.7,4.6L1.7,4.6C1.7,4.6,1.7,4.6,1.7,4.6L1.7,4.6C1.7,4.6,1.7,4.6,1.7,4.6
				L1.7,4.6C1.7,4.6,1.7,4.6,1.7,4.6z M9.6,4.6C9.5,4.6,9.5,4.6,9.6,4.6L9.6,4.6C9.6,4.5,9.6,4.5,9.6,4.6L9.6,4.6
				C9.6,4.6,9.6,4.6,9.6,4.6L9.6,4.6C9.6,4.6,9.6,4.6,9.6,4.6L9.6,4.6C9.6,4.6,9.6,4.6,9.6,4.6z M1.8,4.6C1.8,4.5,1.8,4.5,1.8,4.6
				L1.8,4.6C1.8,4.5,1.8,4.5,1.8,4.6L1.8,4.6C1.8,4.5,1.8,4.5,1.8,4.6L1.8,4.6C1.9,4.6,1.8,4.6,1.8,4.6L1.8,4.6
				C1.8,4.6,1.8,4.6,1.8,4.6L1.8,4.6C1.8,4.6,1.8,4.6,1.8,4.6z M1.9,4.6C1.9,4.5,1.9,4.5,1.9,4.6L1.9,4.6C1.9,4.5,2,4.5,1.9,4.6
				L1.9,4.6C2,4.6,1.9,4.6,1.9,4.6L1.9,4.6C1.9,4.6,1.9,4.6,1.9,4.6L1.9,4.6C1.9,4.6,1.9,4.6,1.9,4.6z M2,4.5C2,4.5,2,4.5,2,4.5
				L2,4.5C2,4.5,2.1,4.5,2,4.5L2,4.5C2.1,4.5,2.1,4.6,2,4.5L2,4.5C2,4.6,2,4.6,2,4.5L2,4.5C2,4.6,2,4.6,2,4.5z M2.1,4.5
				C2.1,4.5,2.1,4.5,2.1,4.5L2.1,4.5L2.1,4.5L2.1,4.5C2.2,4.5,2.2,4.5,2.1,4.5L2.1,4.5C2.2,4.5,2.2,4.5,2.1,4.5L2.1,4.5
				C2.1,4.5,2.1,4.5,2.1,4.5L2.1,4.5C2.1,4.5,2.1,4.5,2.1,4.5z M2.2,4.5C2.2,4.5,2.2,4.5,2.2,4.5L2.2,4.5C2.3,4.4,2.3,4.5,2.2,4.5
				L2.2,4.5C2.3,4.5,2.3,4.5,2.2,4.5L2.2,4.5C2.3,4.5,2.3,4.5,2.2,4.5L2.2,4.5C2.2,4.5,2.2,4.5,2.2,4.5z M9.5,4.5
				C9.5,4.5,9.5,4.5,9.5,4.5L9.5,4.5C9.5,4.4,9.5,4.4,9.5,4.5L9.5,4.5C9.5,4.5,9.5,4.5,9.5,4.5L9.5,4.5C9.5,4.5,9.5,4.5,9.5,4.5
				L9.5,4.5C9.5,4.5,9.5,4.5,9.5,4.5z M2.3,4.5C2.3,4.5,2.3,4.4,2.3,4.5L2.3,4.5C2.4,4.4,2.4,4.4,2.3,4.5L2.3,4.5
				C2.4,4.5,2.4,4.5,2.3,4.5L2.3,4.5C2.4,4.5,2.4,4.5,2.3,4.5L2.3,4.5C2.3,4.5,2.3,4.5,2.3,4.5z M2.4,4.4C2.4,4.4,2.4,4.4,2.4,4.4
				L2.4,4.4C2.5,4.4,2.5,4.4,2.4,4.4L2.4,4.4C2.5,4.5,2.5,4.5,2.4,4.4L2.4,4.4C2.5,4.5,2.5,4.5,2.4,4.4L2.4,4.4
				C2.4,4.5,2.4,4.5,2.4,4.4z M2.5,4.4C2.5,4.4,2.5,4.4,2.5,4.4L2.5,4.4C2.6,4.4,2.6,4.4,2.5,4.4L2.5,4.4C2.6,4.4,2.6,4.4,2.5,4.4
				L2.5,4.4C2.6,4.5,2.6,4.5,2.5,4.4L2.5,4.4C2.6,4.5,2.5,4.4,2.5,4.4z M9.4,4.4C9.4,4.4,9.4,4.4,9.4,4.4L9.4,4.4
				C9.4,4.4,9.4,4.4,9.4,4.4L9.4,4.4C9.4,4.4,9.4,4.4,9.4,4.4L9.4,4.4C9.4,4.4,9.4,4.4,9.4,4.4L9.4,4.4C9.4,4.4,9.4,4.4,9.4,4.4z
				 M2.6,4.4C2.6,4.4,2.6,4.3,2.6,4.4L2.6,4.4L2.6,4.4L2.6,4.4C2.7,4.3,2.7,4.3,2.6,4.4L2.6,4.4C2.7,4.4,2.7,4.4,2.6,4.4L2.6,4.4
				C2.7,4.4,2.7,4.4,2.6,4.4L2.6,4.4C2.7,4.4,2.6,4.4,2.6,4.4z M2.7,4.3C2.7,4.3,2.7,4.3,2.7,4.3L2.7,4.3C2.8,4.3,2.8,4.3,2.7,4.3
				L2.7,4.3C2.8,4.3,2.8,4.4,2.7,4.3L2.7,4.3C2.8,4.4,2.8,4.4,2.7,4.3L2.7,4.3C2.8,4.4,2.8,4.4,2.7,4.3z M9.3,4.4
				C9.3,4.3,9.3,4.3,9.3,4.4L9.3,4.4C9.3,4.3,9.3,4.3,9.3,4.4L9.3,4.4C9.4,4.3,9.4,4.3,9.3,4.4L9.3,4.4C9.3,4.4,9.3,4.4,9.3,4.4
				L9.3,4.4C9.3,4.4,9.3,4.4,9.3,4.4z M2.8,4.3C2.8,4.3,2.8,4.3,2.8,4.3L2.8,4.3C2.9,4.2,2.9,4.2,2.8,4.3L2.8,4.3
				C2.9,4.3,2.9,4.3,2.8,4.3L2.8,4.3C2.9,4.3,2.9,4.3,2.8,4.3L2.8,4.3C2.9,4.3,2.9,4.3,2.8,4.3z M9.2,4.3C9.2,4.3,9.2,4.3,9.2,4.3
				L9.2,4.3C9.2,4.2,9.2,4.2,9.2,4.3L9.2,4.3C9.2,4.2,9.2,4.2,9.2,4.3L9.2,4.3C9.3,4.2,9.3,4.3,9.2,4.3L9.2,4.3
				C9.2,4.3,9.2,4.3,9.2,4.3L9.2,4.3C9.2,4.3,9.2,4.3,9.2,4.3z M2.9,4.2C2.9,4.2,2.9,4.2,2.9,4.2L2.9,4.2C3,4.2,3,4.2,2.9,4.2
				L2.9,4.2C3,4.2,3,4.3,2.9,4.2L2.9,4.2C3,4.3,3,4.3,2.9,4.2L2.9,4.2C3,4.3,3,4.3,2.9,4.2z M9.1,4.2C9.1,4.2,9.1,4.2,9.1,4.2
				L9.1,4.2C9.1,4.2,9.1,4.1,9.1,4.2L9.1,4.2C9.2,4.2,9.2,4.2,9.1,4.2L9.1,4.2C9.2,4.2,9.1,4.2,9.1,4.2L9.1,4.2
				C9.1,4.2,9.1,4.2,9.1,4.2z M3,4.2C3,4.2,3,4.1,3,4.2L3,4.2C3.1,4.1,3.1,4.1,3,4.2L3,4.2C3.1,4.2,3.1,4.2,3,4.2L3,4.2
				C3.1,4.2,3.1,4.2,3,4.2L3,4.2C3.1,4.2,3,4.2,3,4.2z M9,4.2C9,4.2,9,4.1,9,4.2L9,4.2C9,4.1,9,4.1,9,4.2L9,4.2
				C9.1,4.1,9.1,4.1,9,4.2L9,4.2C9.1,4.2,9,4.2,9,4.2L9,4.2C9,4.2,9,4.2,9,4.2z M3.1,4.1C3.1,4.1,3.1,4.1,3.1,4.1L3.1,4.1
				C3.2,4,3.2,4,3.1,4.1L3.1,4.1C3.2,4.1,3.2,4.1,3.1,4.1L3.1,4.1C3.2,4.1,3.2,4.1,3.1,4.1L3.1,4.1C3.2,4.1,3.1,4.1,3.1,4.1z
				 M8.9,4.1C8.9,4.1,8.9,4.1,8.9,4.1L8.9,4.1C8.9,4,8.9,4,8.9,4.1L8.9,4.1C9,4,9,4.1,8.9,4.1L8.9,4.1C9,4.1,8.9,4.1,8.9,4.1
				L8.9,4.1C8.9,4.1,8.9,4.1,8.9,4.1z M8.8,4.1C8.8,4,8.8,4,8.8,4.1L8.8,4.1C8.8,4,8.8,4,8.8,4.1L8.8,4.1C8.9,4,8.9,4,8.8,4.1
				L8.8,4.1C8.9,4.1,8.9,4.1,8.8,4.1L8.8,4.1C8.8,4.1,8.8,4.1,8.8,4.1z M3.2,4C3.2,4,3.2,4,3.2,4L3.2,4C3.2,4,3.3,4,3.2,4L3.2,4
				C3.3,4,3.3,4,3.2,4L3.2,4C3.3,4,3.3,4,3.2,4L3.2,4C3.2,4,3.2,4,3.2,4z M8.7,4L8.7,4C8.7,4,8.7,4,8.7,4L8.7,4
				C8.7,3.9,8.7,3.9,8.7,4L8.7,4C8.8,3.9,8.8,3.9,8.7,4L8.7,4C8.8,3.9,8.8,4,8.7,4L8.7,4C8.8,4,8.8,4,8.7,4L8.7,4C8.7,4,8.7,4,8.7,4
				z M3.3,3.9C3.3,3.9,3.3,3.9,3.3,3.9L3.3,3.9C3.3,3.9,3.3,3.9,3.3,3.9L3.3,3.9C3.4,3.9,3.4,3.9,3.3,3.9L3.3,3.9
				C3.3,4,3.3,4,3.3,3.9L3.3,3.9C3.3,4,3.3,4,3.3,3.9z M8.6,3.9L8.6,3.9C8.6,3.9,8.6,3.9,8.6,3.9L8.6,3.9C8.6,3.9,8.6,3.9,8.6,3.9
				L8.6,3.9L8.6,3.9L8.6,3.9C8.7,3.9,8.7,3.9,8.6,3.9L8.6,3.9C8.7,3.9,8.7,3.9,8.6,3.9L8.6,3.9C8.6,3.9,8.6,3.9,8.6,3.9z M8.5,3.9
				C8.5,3.9,8.5,3.9,8.5,3.9L8.5,3.9C8.5,3.8,8.5,3.8,8.5,3.9L8.5,3.9L8.5,3.9L8.5,3.9C8.6,3.8,8.6,3.9,8.5,3.9L8.5,3.9
				C8.6,3.9,8.6,3.9,8.5,3.9L8.5,3.9C8.5,3.9,8.5,3.9,8.5,3.9z M3.4,3.9C3.4,3.8,3.4,3.8,3.4,3.9L3.4,3.9L3.4,3.9L3.4,3.9
				C3.4,3.8,3.4,3.8,3.4,3.9L3.4,3.9C3.4,3.8,3.4,3.8,3.4,3.9L3.4,3.9C3.4,3.9,3.4,3.9,3.4,3.9L3.4,3.9C3.4,3.9,3.4,3.9,3.4,3.9z
				 M8.4,3.8C8.4,3.8,8.4,3.8,8.4,3.8L8.4,3.8C8.4,3.8,8.4,3.7,8.4,3.8L8.4,3.8L8.4,3.8L8.4,3.8C8.5,3.8,8.5,3.8,8.4,3.8L8.4,3.8
				C8.5,3.8,8.5,3.8,8.4,3.8L8.4,3.8C8.4,3.8,8.4,3.8,8.4,3.8z M8.3,3.8C8.3,3.8,8.3,3.7,8.3,3.8L8.3,3.8C8.3,3.7,8.3,3.7,8.3,3.8
				L8.3,3.8C8.4,3.7,8.4,3.7,8.3,3.8L8.3,3.8C8.4,3.8,8.4,3.8,8.3,3.8L8.3,3.8C8.3,3.8,8.3,3.8,8.3,3.8z M3.5,3.8
				C3.4,3.7,3.4,3.7,3.5,3.8L3.5,3.8C3.5,3.7,3.5,3.7,3.5,3.8L3.5,3.8C3.5,3.7,3.5,3.7,3.5,3.8L3.5,3.8C3.5,3.8,3.5,3.8,3.5,3.8
				L3.5,3.8C3.5,3.8,3.5,3.8,3.5,3.8z M8.2,3.7C8.2,3.7,8.2,3.7,8.2,3.7L8.2,3.7C8.2,3.6,8.3,3.6,8.2,3.7L8.2,3.7
				C8.3,3.6,8.3,3.7,8.2,3.7L8.2,3.7C8.3,3.7,8.3,3.7,8.2,3.7L8.2,3.7C8.2,3.7,8.2,3.7,8.2,3.7z M3.5,3.7C3.5,3.6,3.5,3.6,3.5,3.7
				L3.5,3.7C3.5,3.6,3.5,3.6,3.5,3.7L3.5,3.7C3.6,3.6,3.6,3.6,3.5,3.7L3.5,3.7C3.6,3.7,3.5,3.7,3.5,3.7L3.5,3.7
				C3.5,3.7,3.5,3.7,3.5,3.7z M8.1,3.6C8.1,3.6,8.1,3.6,8.1,3.6L8.1,3.6C8.1,3.6,8.2,3.5,8.1,3.6L8.1,3.6L8.1,3.6L8.1,3.6
				C8.2,3.6,8.2,3.6,8.1,3.6L8.1,3.6C8.2,3.6,8.2,3.6,8.1,3.6L8.1,3.6C8.2,3.6,8.2,3.6,8.1,3.6z M8.1,3.5C8,3.5,8,3.5,8.1,3.5
				L8.1,3.5C8.1,3.5,8.1,3.5,8.1,3.5L8.1,3.5L8.1,3.5L8.1,3.5C8.1,3.5,8.1,3.5,8.1,3.5L8.1,3.5C8.1,3.5,8.1,3.6,8.1,3.5L8.1,3.5
				C8.1,3.6,8.1,3.6,8.1,3.5z M3.6,3.5C3.6,3.5,3.6,3.5,3.6,3.5L3.6,3.5C3.6,3.5,3.6,3.5,3.6,3.5L3.6,3.5C3.6,3.5,3.6,3.5,3.6,3.5
				L3.6,3.5C3.6,3.5,3.6,3.5,3.6,3.5L3.6,3.5C3.6,3.5,3.6,3.5,3.6,3.5z M8,3.5C8,3.4,8,3.4,8,3.5L8,3.5C8,3.4,8,3.4,8,3.5L8,3.5
				L8,3.5L8,3.5C8,3.4,8,3.4,8,3.5L8,3.5C8,3.5,8,3.5,8,3.5L8,3.5C8,3.5,8,3.5,8,3.5z M3.6,3.4C3.6,3.4,3.6,3.4,3.6,3.4L3.6,3.4
				C3.6,3.4,3.7,3.4,3.6,3.4L3.6,3.4C3.7,3.4,3.7,3.4,3.6,3.4L3.6,3.4C3.7,3.4,3.7,3.4,3.6,3.4L3.6,3.4C3.6,3.4,3.6,3.4,3.6,3.4z
				 M7.9,3.4L7.9,3.4C7.9,3.4,7.9,3.3,7.9,3.4L7.9,3.4C7.9,3.3,7.9,3.3,7.9,3.4L7.9,3.4C7.9,3.3,7.9,3.4,7.9,3.4L7.9,3.4
				C7.9,3.4,7.9,3.4,7.9,3.4L7.9,3.4C7.9,3.4,7.9,3.4,7.9,3.4z M3.7,3.3C3.7,3.3,3.7,3.3,3.7,3.3L3.7,3.3C3.7,3.2,3.7,3.2,3.7,3.3
				L3.7,3.3C3.7,3.3,3.7,3.3,3.7,3.3L3.7,3.3C3.7,3.3,3.7,3.3,3.7,3.3L3.7,3.3C3.7,3.3,3.7,3.3,3.7,3.3z M7.8,3.3
				C7.8,3.3,7.8,3.2,7.8,3.3L7.8,3.3C7.8,3.2,7.9,3.2,7.8,3.3L7.8,3.3C7.9,3.2,7.9,3.3,7.8,3.3L7.8,3.3C7.9,3.3,7.8,3.3,7.8,3.3
				L7.8,3.3C7.8,3.3,7.8,3.3,7.8,3.3z M3.7,3.2C3.7,3.2,3.7,3.2,3.7,3.2L3.7,3.2C3.7,3.1,3.8,3.1,3.7,3.2L3.7,3.2
				C3.8,3.1,3.8,3.2,3.7,3.2L3.7,3.2C3.8,3.2,3.8,3.2,3.7,3.2L3.7,3.2C3.8,3.2,3.7,3.2,3.7,3.2z M7.7,3.2L7.7,3.2
				C7.7,3.1,7.7,3.1,7.7,3.2L7.7,3.2C7.8,3.1,7.8,3.1,7.7,3.2L7.7,3.2C7.8,3.1,7.8,3.2,7.7,3.2L7.7,3.2C7.8,3.2,7.8,3.2,7.7,3.2
				L7.7,3.2C7.8,3.2,7.8,3.2,7.7,3.2z M3.8,3.1C3.8,3.1,3.8,3.1,3.8,3.1L3.8,3.1C3.8,3,3.8,3,3.8,3.1L3.8,3.1C3.8,3,3.8,3,3.8,3.1
				L3.8,3.1C3.8,3.1,3.8,3.1,3.8,3.1L3.8,3.1C3.8,3.1,3.8,3.1,3.8,3.1z M7.7,3C7.7,3,7.7,3,7.7,3L7.7,3C7.7,3,7.7,3,7.7,3L7.7,3
				C7.8,3,7.7,3.1,7.7,3L7.7,3C7.7,3.1,7.7,3.1,7.7,3L7.7,3C7.7,3.1,7.7,3.1,7.7,3z M3.8,3C3.8,3,3.8,2.9,3.8,3L3.8,3
				C3.8,2.9,3.9,2.9,3.8,3L3.8,3C3.9,2.9,3.9,2.9,3.8,3L3.8,3C3.9,3,3.9,3,3.8,3L3.8,3C3.9,3,3.8,3,3.8,3z M7.6,2.9L7.6,2.9
				C7.6,2.9,7.6,2.9,7.6,2.9L7.6,2.9C7.7,2.9,7.7,2.9,7.6,2.9L7.6,2.9C7.7,2.9,7.7,2.9,7.6,2.9L7.6,2.9C7.7,3,7.7,3,7.6,2.9L7.6,2.9
				C7.7,3,7.6,2.9,7.6,2.9z M3.9,2.8C3.9,2.8,3.9,2.8,3.9,2.8L3.9,2.8C3.9,2.8,3.9,2.8,3.9,2.8L3.9,2.8C3.9,2.8,3.9,2.8,3.9,2.8
				L3.9,2.8C3.9,2.8,3.9,2.8,3.9,2.8L3.9,2.8C3.9,2.8,3.9,2.8,3.9,2.8z M7.6,2.8L7.6,2.8C7.6,2.8,7.6,2.8,7.6,2.8L7.6,2.8
				C7.6,2.7,7.7,2.8,7.6,2.8L7.6,2.8L7.6,2.8L7.6,2.8C7.7,2.8,7.7,2.8,7.6,2.8L7.6,2.8C7.6,2.8,7.6,2.8,7.6,2.8L7.6,2.8
				C7.6,2.8,7.6,2.8,7.6,2.8z M3.9,2.7C3.9,2.7,3.9,2.7,3.9,2.7L3.9,2.7C3.9,2.7,3.9,2.6,3.9,2.7L3.9,2.7C4,2.7,4,2.7,3.9,2.7
				L3.9,2.7C4,2.7,4,2.7,3.9,2.7L3.9,2.7C3.9,2.7,3.9,2.7,3.9,2.7z M7.6,2.7L7.6,2.7C7.6,2.6,7.6,2.6,7.6,2.7L7.6,2.7
				C7.6,2.6,7.6,2.6,7.6,2.7L7.6,2.7L7.6,2.7L7.6,2.7C7.6,2.7,7.6,2.7,7.6,2.7L7.6,2.7C7.6,2.7,7.6,2.7,7.6,2.7L7.6,2.7
				C7.6,2.7,7.6,2.7,7.6,2.7z M4,2.6C4,2.6,4,2.6,4,2.6L4,2.6C4,2.5,4,2.5,4,2.6L4,2.6C4,2.5,4,2.6,4,2.6L4,2.6C4,2.6,4,2.6,4,2.6
				L4,2.6C4,2.6,4,2.6,4,2.6z M7.6,2.5C7.6,2.5,7.6,2.5,7.6,2.5L7.6,2.5C7.6,2.5,7.6,2.5,7.6,2.5L7.6,2.5C7.6,2.5,7.6,2.6,7.6,2.5
				L7.6,2.5C7.6,2.6,7.6,2.6,7.6,2.5L7.6,2.5C7.6,2.6,7.6,2.6,7.6,2.5z M4,2.5C4,2.5,4,2.5,4,2.5L4,2.5C4,2.4,4,2.4,4,2.5L4,2.5
				C4.1,2.4,4.1,2.4,4,2.5L4,2.5C4.1,2.5,4,2.5,4,2.5L4,2.5C4,2.5,4,2.5,4,2.5z M7.6,2.4C7.6,2.4,7.6,2.4,7.6,2.4L7.6,2.4
				C7.6,2.4,7.6,2.4,7.6,2.4L7.6,2.4C7.6,2.4,7.6,2.4,7.6,2.4L7.6,2.4C7.6,2.4,7.6,2.4,7.6,2.4L7.6,2.4C7.6,2.4,7.6,2.4,7.6,2.4
				L7.6,2.4C7.6,2.4,7.6,2.4,7.6,2.4z M4.1,2.4C4,2.4,4,2.3,4.1,2.4L4.1,2.4C4.1,2.3,4.1,2.3,4.1,2.4L4.1,2.4
				C4.1,2.3,4.1,2.3,4.1,2.4L4.1,2.4C4.1,2.4,4.1,2.4,4.1,2.4L4.1,2.4C4.1,2.4,4.1,2.4,4.1,2.4z M7.6,2.3C7.6,2.3,7.6,2.3,7.6,2.3
				L7.6,2.3C7.6,2.2,7.6,2.2,7.6,2.3L7.6,2.3C7.6,2.2,7.6,2.3,7.6,2.3L7.6,2.3C7.6,2.3,7.6,2.3,7.6,2.3L7.6,2.3
				C7.6,2.3,7.6,2.3,7.6,2.3z M4.1,2.2C4.1,2.2,4.1,2.2,4.1,2.2L4.1,2.2L4.1,2.2L4.1,2.2C4.1,2.2,4.1,2.2,4.1,2.2L4.1,2.2
				C4.2,2.2,4.2,2.2,4.1,2.2L4.1,2.2C4.1,2.2,4.1,2.2,4.1,2.2L4.1,2.2C4.1,2.2,4.1,2.2,4.1,2.2z M7.6,2.2C7.6,2.2,7.6,2.2,7.6,2.2
				L7.6,2.2C7.6,2.1,7.6,2.1,7.6,2.2L7.6,2.2C7.7,2.1,7.7,2.1,7.6,2.2L7.6,2.2C7.7,2.2,7.6,2.2,7.6,2.2L7.6,2.2
				C7.6,2.2,7.6,2.2,7.6,2.2z M4.2,2.1C4.1,2.1,4.1,2.1,4.2,2.1L4.2,2.1L4.2,2.1L4.2,2.1C4.1,2.1,4.2,2,4.2,2.1L4.2,2.1
				C4.2,2.1,4.2,2.1,4.2,2.1L4.2,2.1C4.2,2.1,4.2,2.1,4.2,2.1L4.2,2.1C4.2,2.1,4.2,2.1,4.2,2.1z M7.6,2C7.6,2,7.6,2,7.6,2L7.6,2
				C7.6,2,7.6,2,7.6,2L7.6,2C7.7,2,7.7,2,7.6,2L7.6,2C7.7,2,7.7,2,7.6,2L7.6,2C7.6,2,7.6,2,7.6,2z M4.2,2C4.2,2,4.2,2,4.2,2L4.2,2
				C4.2,1.9,4.2,1.9,4.2,2L4.2,2C4.2,1.9,4.3,2,4.2,2L4.2,2C4.2,2,4.2,2,4.2,2L4.2,2C4.2,2,4.2,2,4.2,2z M7.7,1.9
				C7.7,1.9,7.6,1.9,7.7,1.9L7.7,1.9C7.7,1.8,7.7,1.8,7.7,1.9L7.7,1.9C7.7,1.8,7.7,1.9,7.7,1.9L7.7,1.9C7.7,1.9,7.7,1.9,7.7,1.9
				L7.7,1.9C7.7,1.9,7.7,1.9,7.7,1.9z M4.3,1.9C4.2,1.9,4.2,1.9,4.3,1.9L4.3,1.9C4.3,1.8,4.3,1.8,4.3,1.9L4.3,1.9
				C4.3,1.8,4.3,1.9,4.3,1.9L4.3,1.9C4.3,1.9,4.3,1.9,4.3,1.9L4.3,1.9C4.3,1.9,4.3,1.9,4.3,1.9z M7.7,1.8C7.7,1.8,7.7,1.8,7.7,1.8
				L7.7,1.8C7.7,1.7,7.7,1.7,7.7,1.8L7.7,1.8C7.7,1.7,7.7,1.7,7.7,1.8L7.7,1.8C7.7,1.8,7.7,1.8,7.7,1.8L7.7,1.8
				C7.7,1.8,7.7,1.8,7.7,1.8z M4.3,1.8C4.3,1.8,4.3,1.7,4.3,1.8L4.3,1.8C4.3,1.7,4.3,1.7,4.3,1.8L4.3,1.8C4.4,1.7,4.4,1.7,4.3,1.8
				L4.3,1.8C4.3,1.8,4.3,1.8,4.3,1.8L4.3,1.8C4.3,1.8,4.3,1.8,4.3,1.8z M4.4,1.7C4.3,1.7,4.3,1.6,4.4,1.7L4.4,1.7
				C4.4,1.6,4.4,1.6,4.4,1.7L4.4,1.7C4.4,1.6,4.4,1.6,4.4,1.7L4.4,1.7C4.4,1.7,4.4,1.7,4.4,1.7L4.4,1.7C4.4,1.7,4.4,1.7,4.4,1.7z
				 M7.7,1.7C7.7,1.7,7.7,1.6,7.7,1.7L7.7,1.7C7.7,1.6,7.7,1.6,7.7,1.7L7.7,1.7C7.8,1.6,7.8,1.6,7.7,1.7L7.7,1.7
				C7.8,1.7,7.7,1.7,7.7,1.7L7.7,1.7C7.7,1.7,7.7,1.7,7.7,1.7z M4.4,1.6C4.4,1.5,4.4,1.5,4.4,1.6L4.4,1.6C4.4,1.5,4.4,1.5,4.4,1.6
				L4.4,1.6C4.5,1.5,4.5,1.5,4.4,1.6L4.4,1.6C4.5,1.6,4.5,1.6,4.4,1.6L4.4,1.6C4.4,1.6,4.4,1.6,4.4,1.6z M7.7,1.5
				C7.7,1.5,7.7,1.5,7.7,1.5L7.7,1.5C7.7,1.5,7.7,1.5,7.7,1.5L7.7,1.5C7.8,1.5,7.8,1.5,7.7,1.5L7.7,1.5L7.7,1.5L7.7,1.5
				C7.8,1.5,7.8,1.5,7.7,1.5L7.7,1.5C7.7,1.5,7.7,1.5,7.7,1.5z M4.5,1.4C4.5,1.4,4.5,1.4,4.5,1.4L4.5,1.4C4.5,1.4,4.5,1.4,4.5,1.4
				L4.5,1.4C4.5,1.4,4.5,1.4,4.5,1.4L4.5,1.4C4.5,1.5,4.5,1.5,4.5,1.4L4.5,1.4C4.5,1.5,4.5,1.5,4.5,1.4z M7.8,1.4
				C7.7,1.4,7.7,1.4,7.8,1.4L7.8,1.4C7.7,1.3,7.8,1.3,7.8,1.4L7.8,1.4C7.8,1.3,7.8,1.3,7.8,1.4L7.8,1.4L7.8,1.4L7.8,1.4
				C7.8,1.4,7.8,1.4,7.8,1.4L7.8,1.4C7.8,1.4,7.8,1.4,7.8,1.4z M4.6,1.3C4.5,1.3,4.5,1.3,4.6,1.3L4.6,1.3L4.6,1.3L4.6,1.3
				C4.6,1.3,4.6,1.3,4.6,1.3L4.6,1.3C4.6,1.3,4.6,1.3,4.6,1.3L4.6,1.3C4.6,1.3,4.6,1.4,4.6,1.3L4.6,1.3C4.6,1.4,4.6,1.4,4.6,1.3z
				 M7.8,1.3C7.8,1.3,7.7,1.3,7.8,1.3L7.8,1.3C7.7,1.2,7.8,1.2,7.8,1.3L7.8,1.3C7.8,1.2,7.8,1.2,7.8,1.3L7.8,1.3
				C7.8,1.3,7.8,1.3,7.8,1.3L7.8,1.3C7.8,1.3,7.8,1.3,7.8,1.3z M4.6,1.2C4.6,1.2,4.6,1.2,4.6,1.2L4.6,1.2C4.6,1.2,4.7,1.2,4.6,1.2
				L4.6,1.2C4.7,1.2,4.7,1.2,4.6,1.2L4.6,1.2C4.7,1.2,4.7,1.3,4.6,1.2L4.6,1.2C4.6,1.3,4.6,1.3,4.6,1.2z M4.7,1.1
				C4.7,1.1,4.7,1.1,4.7,1.1L4.7,1.1C4.7,1.1,4.7,1.1,4.7,1.1L4.7,1.1C4.8,1.1,4.8,1.1,4.7,1.1L4.7,1.1C4.7,1.2,4.7,1.2,4.7,1.1
				L4.7,1.1C4.7,1.2,4.7,1.2,4.7,1.1z M7.7,1.1C7.7,1.1,7.7,1.1,7.7,1.1L7.7,1.1C7.8,1.1,7.8,1.1,7.7,1.1L7.7,1.1
				C7.8,1.1,7.8,1.1,7.7,1.1L7.7,1.1C7.8,1.1,7.8,1.1,7.7,1.1L7.7,1.1C7.8,1.1,7.7,1.1,7.7,1.1z M4.8,1.1C4.8,1,4.8,1,4.8,1.1
				L4.8,1.1C4.8,1,4.8,1,4.8,1.1L4.8,1.1C4.8,1,4.8,1,4.8,1.1L4.8,1.1C4.8,1.1,4.8,1.1,4.8,1.1L4.8,1.1C4.8,1.1,4.8,1.1,4.8,1.1z
				 M7.7,1C7.7,1,7.7,0.9,7.7,1L7.7,1C7.8,0.9,7.8,0.9,7.7,1L7.7,1C7.8,1,7.8,1,7.7,1L7.7,1C7.8,1,7.8,1,7.7,1L7.7,1
				C7.7,1,7.7,1,7.7,1z M4.9,1C4.8,0.9,4.8,0.9,4.9,1L4.9,1C4.9,0.9,4.9,0.9,4.9,1L4.9,1C4.9,0.9,4.9,1,4.9,1L4.9,1
				C4.9,1,4.9,1,4.9,1L4.9,1C4.9,1,4.9,1,4.9,1z M4.9,0.9C4.9,0.9,4.9,0.8,4.9,0.9L4.9,0.9C5,0.8,5,0.8,4.9,0.9L4.9,0.9
				C5,0.8,5,0.9,4.9,0.9L4.9,0.9C5,0.9,5,0.9,4.9,0.9L4.9,0.9C5,0.9,4.9,0.9,4.9,0.9z M7.7,0.9L7.7,0.9C7.7,0.8,7.7,0.8,7.7,0.9
				L7.7,0.9C7.7,0.8,7.7,0.8,7.7,0.9L7.7,0.9C7.8,0.9,7.7,0.9,7.7,0.9L7.7,0.9C7.7,0.9,7.7,0.9,7.7,0.9L7.7,0.9
				C7.7,0.9,7.7,0.9,7.7,0.9z M5,0.8C5,0.8,5,0.8,5,0.8L5,0.8C5,0.7,5.1,0.7,5,0.8L5,0.8C5.1,0.8,5.1,0.8,5,0.8L5,0.8
				C5.1,0.8,5.1,0.8,5,0.8L5,0.8C5,0.8,5,0.8,5,0.8z M7.6,0.7C7.6,0.7,7.6,0.7,7.6,0.7L7.6,0.7C7.7,0.7,7.7,0.7,7.6,0.7L7.6,0.7
				L7.6,0.7L7.6,0.7C7.7,0.7,7.7,0.8,7.6,0.7L7.6,0.7C7.7,0.8,7.7,0.8,7.6,0.7L7.6,0.7C7.7,0.8,7.6,0.8,7.6,0.7z M5.1,0.7
				C5.1,0.7,5.1,0.7,5.1,0.7L5.1,0.7C5.1,0.6,5.2,0.7,5.1,0.7L5.1,0.7C5.2,0.7,5.2,0.7,5.1,0.7L5.1,0.7C5.1,0.7,5.1,0.7,5.1,0.7
				L5.1,0.7C5.1,0.7,5.1,0.7,5.1,0.7z M5.2,0.6C5.2,0.6,5.2,0.6,5.2,0.6L5.2,0.6L5.2,0.6L5.2,0.6C5.2,0.6,5.2,0.6,5.2,0.6L5.2,0.6
				C5.3,0.6,5.3,0.6,5.2,0.6L5.2,0.6C5.2,0.7,5.2,0.7,5.2,0.6L5.2,0.6C5.2,0.7,5.2,0.7,5.2,0.6z M7.6,0.6C7.6,0.6,7.6,0.6,7.6,0.6
				L7.6,0.6C7.6,0.6,7.6,0.6,7.6,0.6L7.6,0.6C7.6,0.6,7.6,0.6,7.6,0.6L7.6,0.6C7.6,0.7,7.6,0.7,7.6,0.6L7.6,0.6
				C7.6,0.7,7.6,0.7,7.6,0.6z M5.3,0.6C5.3,0.6,5.3,0.5,5.3,0.6L5.3,0.6C5.3,0.5,5.3,0.5,5.3,0.6L5.3,0.6C5.3,0.5,5.3,0.5,5.3,0.6
				L5.3,0.6C5.4,0.5,5.4,0.6,5.3,0.6L5.3,0.6C5.3,0.6,5.3,0.6,5.3,0.6L5.3,0.6C5.3,0.6,5.3,0.6,5.3,0.6z M7.5,0.5
				C7.5,0.5,7.5,0.5,7.5,0.5L7.5,0.5C7.5,0.5,7.6,0.5,7.5,0.5L7.5,0.5C7.6,0.5,7.6,0.5,7.5,0.5L7.5,0.5C7.6,0.5,7.6,0.5,7.5,0.5
				L7.5,0.5C7.6,0.6,7.6,0.6,7.5,0.5L7.5,0.5C7.5,0.6,7.5,0.6,7.5,0.5z M5.4,0.5C5.4,0.5,5.4,0.5,5.4,0.5L5.4,0.5
				C5.4,0.4,5.4,0.4,5.4,0.5L5.4,0.5C5.5,0.5,5.4,0.5,5.4,0.5L5.4,0.5C5.4,0.5,5.4,0.5,5.4,0.5L5.4,0.5C5.4,0.5,5.4,0.5,5.4,0.5z
				 M7.4,0.5C7.4,0.4,7.4,0.4,7.4,0.5L7.4,0.5C7.5,0.4,7.5,0.4,7.4,0.5L7.4,0.5C7.5,0.4,7.5,0.4,7.4,0.5L7.4,0.5
				C7.5,0.5,7.5,0.5,7.4,0.5L7.4,0.5C7.5,0.5,7.4,0.5,7.4,0.5z M5.5,0.4C5.5,0.4,5.5,0.4,5.5,0.4L5.5,0.4C5.5,0.4,5.5,0.4,5.5,0.4
				L5.5,0.4C5.5,0.4,5.5,0.4,5.5,0.4L5.5,0.4C5.5,0.5,5.5,0.5,5.5,0.4L5.5,0.4C5.5,0.5,5.5,0.5,5.5,0.4z M5.6,0.4
				C5.6,0.4,5.6,0.3,5.6,0.4L5.6,0.4L5.6,0.4L5.6,0.4C5.6,0.3,5.6,0.3,5.6,0.4L5.6,0.4C5.6,0.4,5.6,0.4,5.6,0.4L5.6,0.4
				C5.6,0.4,5.6,0.4,5.6,0.4L5.6,0.4C5.6,0.4,5.6,0.4,5.6,0.4z M7.4,0.4C7.3,0.4,7.3,0.3,7.4,0.4L7.4,0.4C7.4,0.3,7.4,0.3,7.4,0.4
				L7.4,0.4C7.4,0.3,7.4,0.3,7.4,0.4L7.4,0.4C7.4,0.4,7.4,0.4,7.4,0.4L7.4,0.4C7.4,0.4,7.4,0.4,7.4,0.4z M5.7,0.3
				C5.7,0.3,5.7,0.3,5.7,0.3L5.7,0.3L5.7,0.3L5.7,0.3C5.7,0.3,5.7,0.3,5.7,0.3L5.7,0.3C5.7,0.3,5.7,0.3,5.7,0.3L5.7,0.3
				C5.7,0.4,5.7,0.4,5.7,0.3L5.7,0.3C5.7,0.4,5.7,0.3,5.7,0.3z M7.3,0.3C7.3,0.3,7.2,0.3,7.3,0.3L7.3,0.3C7.3,0.2,7.3,0.2,7.3,0.3
				L7.3,0.3C7.3,0.2,7.3,0.3,7.3,0.3L7.3,0.3C7.3,0.3,7.3,0.3,7.3,0.3L7.3,0.3C7.3,0.3,7.3,0.3,7.3,0.3z M5.8,0.3
				C5.8,0.3,5.8,0.2,5.8,0.3L5.8,0.3C5.8,0.2,5.8,0.2,5.8,0.3L5.8,0.3C5.8,0.3,5.8,0.3,5.8,0.3L5.8,0.3C5.8,0.3,5.8,0.3,5.8,0.3
				L5.8,0.3C5.8,0.3,5.8,0.3,5.8,0.3z M5.9,0.2C5.9,0.2,5.9,0.2,5.9,0.2L5.9,0.2C5.9,0.2,5.9,0.2,5.9,0.2L5.9,0.2
				C5.9,0.2,5.9,0.3,5.9,0.2L5.9,0.2C5.9,0.3,5.9,0.3,5.9,0.2L5.9,0.2C5.9,0.3,5.9,0.3,5.9,0.2z M7.2,0.2L7.2,0.2
				C7.2,0.2,7.2,0.2,7.2,0.2L7.2,0.2C7.2,0.2,7.2,0.2,7.2,0.2L7.2,0.2L7.2,0.2L7.2,0.2C7.2,0.2,7.2,0.2,7.2,0.2L7.2,0.2
				C7.2,0.2,7.2,0.3,7.2,0.2L7.2,0.2C7.2,0.3,7.2,0.3,7.2,0.2z M6,0.2C6,0.2,6,0.2,6,0.2L6,0.2C6,0.1,6,0.2,6,0.2L6,0.2
				C6.1,0.2,6,0.2,6,0.2L6,0.2C6,0.2,6,0.2,6,0.2L6,0.2C6,0.2,6,0.2,6,0.2z M7.1,0.2C7.1,0.2,7.1,0.2,7.1,0.2L7.1,0.2
				C7.1,0.1,7.1,0.1,7.1,0.2L7.1,0.2C7.1,0.1,7.1,0.2,7.1,0.2L7.1,0.2C7.1,0.2,7.1,0.2,7.1,0.2L7.1,0.2C7.1,0.2,7.1,0.2,7.1,0.2z
				 M6.1,0.2C6.1,0.1,6.1,0.1,6.1,0.2L6.1,0.2C6.1,0.1,6.1,0.1,6.1,0.2L6.1,0.2C6.2,0.2,6.1,0.2,6.1,0.2L6.1,0.2
				C6.1,0.2,6.1,0.2,6.1,0.2L6.1,0.2C6.1,0.2,6.1,0.2,6.1,0.2z M7,0.2C7,0.2,6.9,0.1,7,0.2L7,0.2C7,0.1,7,0.1,7,0.2L7,0.2
				C7,0.1,7,0.1,7,0.2L7,0.2C7,0.2,7,0.2,7,0.2L7,0.2C7,0.2,7,0.2,7,0.2z M6.2,0.1C6.2,0.1,6.2,0.1,6.2,0.1L6.2,0.1
				C6.2,0.1,6.3,0.1,6.2,0.1L6.2,0.1C6.3,0.1,6.3,0.2,6.2,0.1L6.2,0.1C6.2,0.2,6.2,0.2,6.2,0.1L6.2,0.1C6.2,0.2,6.2,0.2,6.2,0.1z
				 M6.3,0.1C6.3,0.1,6.3,0.1,6.3,0.1L6.3,0.1C6.3,0.1,6.4,0.1,6.3,0.1L6.3,0.1C6.4,0.1,6.4,0.1,6.3,0.1L6.3,0.1
				C6.3,0.1,6.3,0.1,6.3,0.1L6.3,0.1C6.3,0.1,6.3,0.1,6.3,0.1z M6.9,0.1L6.9,0.1C6.9,0.1,6.8,0.1,6.9,0.1L6.9,0.1
				C6.8,0.1,6.9,0.1,6.9,0.1L6.9,0.1L6.9,0.1L6.9,0.1C6.9,0.1,6.9,0.1,6.9,0.1L6.9,0.1C6.9,0.1,6.9,0.1,6.9,0.1L6.9,0.1
				C6.9,0.1,6.9,0.1,6.9,0.1z M6.4,0.1C6.4,0.1,6.4,0.1,6.4,0.1L6.4,0.1C6.5,0,6.5,0.1,6.4,0.1L6.4,0.1C6.5,0.1,6.5,0.1,6.4,0.1
				L6.4,0.1C6.4,0.1,6.4,0.1,6.4,0.1L6.4,0.1C6.4,0.1,6.4,0.1,6.4,0.1z M6.8,0.1L6.8,0.1C6.7,0.1,6.7,0.1,6.8,0.1L6.8,0.1
				C6.7,0.1,6.8,0,6.8,0.1L6.8,0.1L6.8,0.1L6.8,0.1C6.8,0,6.8,0.1,6.8,0.1L6.8,0.1C6.8,0.1,6.8,0.1,6.8,0.1L6.8,0.1
				C6.8,0.1,6.8,0.1,6.8,0.1z M6.5,0.1C6.5,0.1,6.5,0,6.5,0.1L6.5,0.1C6.6,0,6.6,0.1,6.5,0.1L6.5,0.1C6.6,0.1,6.6,0.1,6.5,0.1
				L6.5,0.1C6.6,0.1,6.6,0.1,6.5,0.1L6.5,0.1C6.5,0.1,6.5,0.1,6.5,0.1z M6.7,0.1L6.7,0.1C6.6,0.1,6.6,0.1,6.7,0.1L6.7,0.1
				C6.6,0.1,6.6,0,6.7,0.1L6.7,0.1L6.7,0.1L6.7,0.1C6.7,0,6.7,0.1,6.7,0.1L6.7,0.1C6.7,0.1,6.7,0.1,6.7,0.1L6.7,0.1
				C6.7,0.1,6.7,0.1,6.7,0.1z"/>
		</g>
		<g id="XMLID_122_">
			<path id="XMLID_123_" class="st1" d="M6.4,8C6.3,8,6.3,8,6.4,8C6.3,8,6.3,8,6.4,8C6.3,8,6.3,8,6.4,8C6.3,8,6.3,8,6.4,8
				C6.3,8,6.3,8,6.4,8C6.3,8,6.3,8,6.4,8C6.3,8,6.3,8,6.4,8C6.3,8,6.3,8,6.4,8C6.3,8,6.4,8,6.4,8C6.4,8,6.4,8,6.4,8
				C6.4,8,6.4,8,6.4,8C6.4,8,6.4,8,6.4,8C6.4,8,6.4,8,6.4,8C6.4,8,6.4,8,6.4,8C6.4,8,6.4,8,6.4,8C6.4,8,6.4,8,6.4,8
				C6.4,8,6.4,8,6.4,8z"/>
		</g>
	</g>
	<g id="XMLID_119_">
		<path id="XMLID_120_" class="st2" d="M8.6,7.5C8.6,7.5,8.6,7.5,8.6,7.5C8.7,7.5,8.7,7.5,8.6,7.5C8.7,7.5,8.7,7.5,8.6,7.5
			C8.9,7.5,9,7.4,9.2,7.4c0,0,0,0,0,0c0,0,0,0,0,0"/>
	</g>
	<path id="XMLID_118_" class="st2" d="M8.3,7.4C8.5,7.3,8.6,7.1,8.7,7c0,0-0.1,0-0.1,0C8.4,7.1,8.3,7.2,8.2,7.3
		C8.1,7.4,7.9,7.6,7.7,7.6c-0.1,0-0.2-0.1-0.2-0.1c-0.1,0-0.2,0.1-0.3,0.2C7.1,7.7,7,7.9,7,8c0,0,0,0.1,0,0.1C7.5,8,8,7.8,8.3,7.4z"
		/>
	<path id="XMLID_117_" class="st2" d="M7.4,6.3C7.2,6.5,7.1,6.7,7,6.9C7,6.9,7,7,7,7c0.1-0.2,0.3-0.4,0.5-0.5C7.7,6.3,8,6.2,8.1,6
		c0.1-0.1,0.1-0.3,0-0.3C8.1,5.6,8,5.7,7.9,5.8C7.8,5.8,7.7,5.9,7.6,6c0,0,0,0-0.1,0.1C7.5,6.1,7.4,6.2,7.4,6.3z"/>
	<path id="XMLID_116_" class="st2" d="M2.8,5.7C2.8,5.7,2.7,5.7,2.8,5.7C2.7,5.8,2.7,6,2.7,6.2c0,0.2,0,0.4-0.1,0.5
		C2.5,6.8,2.4,6.8,2.3,6.9c0.4,0.3,0.9,0.4,1.3,0.5c0-0.2,0-0.3,0-0.5C3.4,6.4,3.1,6,2.8,5.7z"/>
	<g id="XMLID_110_">
		<path id="XMLID_115_" class="st1" d="M2.4,0.8h3.1h0.2h0.5C6,0.8,5.8,1,5.8,1.4V2H5H1.9V1.4C1.9,1,2.1,0.8,2.4,0.8z"/>
		<path id="XMLID_114_" class="st3" d="M2.4,0.8h3.1h0.2h0.5C6,0.8,5.8,1,5.8,1.4V2H5H1.9V1.4C1.9,1,2.1,0.8,2.4,0.8z"/>
		<path id="XMLID_113_" class="st3" d="M2.8,1.4V2H5h0.8V1.4c0-0.3,0.2-0.6,0.4-0.6c0,0-0.1,0-0.1,0H5.8H5.6H3.1H2.8H2.4
			c0,0-0.1,0-0.1,0C2.6,0.8,2.8,1.1,2.8,1.4z"/>
		<path id="XMLID_112_" class="st4" d="M2.9,2.9c0-0.2,0.2-0.4,0.4-0.4h3.4c0.2,0,0.4,0.2,0.4,0.4V9c0,0.2-0.2,0.4-0.4,0.4H3.3
			C3.1,9.4,2.9,9.2,2.9,9"/>
		<path id="XMLID_111_" class="st1" d="M6.4,0.8H3.2H3H2.5C2.8,0.8,3,1,3,1.4v1.5v1.5V9c0,0.2,0.1,0.3,0.2,0.3h3.4
			c0.1,0,0.2-0.1,0.2-0.3V4.4V2.9V1.4C6.9,1,6.7,0.8,6.4,0.8z"/>
	</g>
	<g id="XMLID_97_">
		<path id="XMLID_109_" class="st5" d="M6.3,3.2H3.7c-0.1,0-0.1-0.1-0.1-0.1l0,0c0-0.1,0-0.1,0.1-0.1h2.5c0.1,0,0.1,0.1,0.1,0.1l0,0
			C6.3,3.2,6.3,3.2,6.3,3.2z"/>
		<path id="XMLID_108_" class="st5" d="M6.3,3.7H3.7c-0.1,0-0.1-0.1-0.1-0.1l0,0c0-0.1,0-0.1,0.1-0.1h2.5c0.1,0,0.1,0.1,0.1,0.1l0,0
			C6.3,3.7,6.3,3.7,6.3,3.7z"/>
		<path id="XMLID_107_" class="st5" d="M6.3,4.2H3.7c-0.1,0-0.1-0.1-0.1-0.1l0,0C3.6,4,3.7,4,3.7,4h2.5C6.3,4,6.3,4,6.3,4.1l0,0
			C6.3,4.2,6.3,4.2,6.3,4.2z"/>
		<path id="XMLID_106_" class="st5" d="M6.3,4.7H3.7c-0.1,0-0.1-0.1-0.1-0.1l0,0c0-0.1,0-0.1,0.1-0.1h2.5c0.1,0,0.1,0.1,0.1,0.1l0,0
			C6.3,4.7,6.3,4.7,6.3,4.7z"/>
		<path id="XMLID_105_" class="st5" d="M6.3,5.2H3.7c-0.1,0-0.1-0.1-0.1-0.1l0,0C3.6,5,3.7,5,3.7,5h2.5C6.3,5,6.3,5,6.3,5.1l0,0
			C6.3,5.1,6.3,5.2,6.3,5.2z"/>
		<path id="XMLID_104_" class="st5" d="M6.2,5.7H3.8c-0.1,0-0.1-0.1-0.1-0.1v0c0-0.1,0.1-0.1,0.1-0.1h2.5c0.1,0,0.1,0.1,0.1,0.1l0,0
			C6.3,5.6,6.3,5.7,6.2,5.7z"/>
		<path id="XMLID_103_" class="st5" d="M6.3,6.2H3.7c-0.1,0-0.1-0.1-0.1-0.1l0,0c0-0.1,0-0.1,0.1-0.1h2.5c0.1,0,0.1,0.1,0.1,0.1l0,0
			C6.3,6.1,6.3,6.2,6.3,6.2z"/>
		<path id="XMLID_102_" class="st5" d="M6.3,6.7H3.7c-0.1,0-0.1-0.1-0.1-0.1l0,0c0-0.1,0-0.1,0.1-0.1h2.5c0.1,0,0.1,0.1,0.1,0.1l0,0
			C6.3,6.6,6.3,6.7,6.3,6.7z"/>
		<path id="XMLID_101_" class="st5" d="M6.3,7.2H3.7C3.7,7.2,3.6,7.1,3.6,7l0,0c0-0.1,0-0.1,0.1-0.1h2.5C6.3,6.9,6.3,7,6.3,7l0,0
			C6.3,7.1,6.3,7.2,6.3,7.2z"/>
		<path id="XMLID_100_" class="st5" d="M6.2,7.7H3.8c-0.1,0-0.1-0.1-0.1-0.1v0c0-0.1,0.1-0.1,0.1-0.1h2.5c0.1,0,0.1,0.1,0.1,0.1l0,0
			C6.3,7.6,6.3,7.7,6.2,7.7z"/>
		<path id="XMLID_99_" class="st5" d="M6.3,8.1H3.7C3.7,8.1,3.6,8.1,3.6,8l0,0c0-0.1,0-0.1,0.1-0.1h2.5C6.3,7.9,6.3,8,6.3,8l0,0
			C6.3,8.1,6.3,8.1,6.3,8.1z"/>
		<path id="XMLID_98_" class="st5" d="M6.3,8.6H3.7c-0.1,0-0.1-0.1-0.1-0.1l0,0c0-0.1,0-0.1,0.1-0.1h2.5c0.1,0,0.1,0.1,0.1,0.1l0,0
			C6.3,8.6,6.3,8.6,6.3,8.6z"/>
	</g>
	<path id="XMLID_96_" class="st2" d="M5.7,9.1H4.3c0,0-0.1,0-0.1-0.1l0,0c0,0,0-0.1,0.1-0.1h1.5C5.8,8.9,5.8,9,5.7,9.1L5.7,9.1
		C5.8,9,5.8,9.1,5.7,9.1z"/>
	<g id="XMLID_80_">
		<polygon id="XMLID_95_" class="st6" points="1.9,8.2 1.6,7.8 2.8,6.4 3.1,6.7 		"/>
		<path id="XMLID_94_" class="st2" d="M3,6.8C3,6.7,2.9,6.5,2.8,6.4l0,0L2.6,6.6C2.6,6.8,2.7,6.9,2.8,7c0,0,0,0,0,0L3,6.8
			C3.1,6.8,3.1,6.8,3,6.8z"/>
		<path id="XMLID_2_" class="st7" d="M0.9,9.3L0.7,9.1C0.6,9,0.6,8.8,0.7,8.7L2.1,7c0.1-0.1,0.2-0.1,0.3,0l0.2,0.2
			c0.1,0.1,0.1,0.3,0,0.4L1.2,9.3C1.1,9.4,1,9.4,0.9,9.3z"/>
		<path id="XMLID_92_" class="st2" d="M2.6,7.3L2.4,7.1c0.1,0.1,0.1,0.3,0,0.4L1,9.1c-0.1,0.1-0.2,0.1-0.3,0l0.2,0.2
			c0.1,0.1,0.2,0.1,0.3,0l1.4-1.7C2.7,7.5,2.7,7.4,2.6,7.3z"/>
		<path id="XMLID_89_" class="st6" d="M5.1,3.9c-0.6-0.8-1.7-0.8-2.3,0c-0.6,0.8-0.6,2,0,2.8c0.6,0.8,1.7,0.8,2.3,0S5.8,4.7,5.1,3.9
			z M3,6.5C2.5,5.8,2.5,4.8,3,4.2c0.5-0.6,1.4-0.6,1.9,0s0.5,1.6,0,2.3C4.4,7.1,3.5,7.1,3,6.5z"/>
		<path id="XMLID_86_" class="st2" d="M5,4.1c-0.6-0.7-1.5-0.7-2,0c-0.6,0.7-0.6,1.8,0,2.4s1.5,0.7,2,0S5.5,4.8,5,4.1z M3,6.5
			C2.5,5.8,2.5,4.8,3,4.2c0.5-0.6,1.4-0.6,1.9,0s0.5,1.6,0,2.3C4.4,7.1,3.5,7.1,3,6.5z"/>
		<ellipse id="XMLID_85_" class="st8" cx="4" cy="5.3" rx="1.3" ry="1.6"/>
		<path id="XMLID_84_" class="st3" d="M4,3.7c-0.4,0-0.8,0.2-1,0.6c0.2-0.2,0.5-0.4,0.8-0.4c0.7,0,1.3,0.7,1.3,1.6
			c0,0.4-0.1,0.7-0.3,1c0.3-0.3,0.5-0.7,0.5-1.2C5.3,4.5,4.7,3.7,4,3.7z"/>
		<g id="XMLID_81_" class="st9">
			<path id="XMLID_83_" class="st1" d="M3.1,4.1C2.9,4.3,2.8,4.6,2.7,4.9l1.7,2C4.6,6.8,4.8,6.6,5,6.3L3.1,4.1z"/>
			<path id="XMLID_82_" class="st1" d="M3.7,3.8C3.5,3.8,3.4,3.9,3.3,4l1.8,2.2C5.2,6,5.2,5.9,5.2,5.7L3.7,3.8z"/>
		</g>
	</g>
	<g id="XMLID_45_">
		<path id="XMLID_79_" class="st10" d="M6.8,3.5C6.7,3.5,6.7,3.5,6.8,3.5c0-0.1,0-0.1,0-0.2c0,0,0,0,0-0.1c0,0,0,0,0,0s0,0,0,0
			c0,0,0-0.1-0.1-0.1c0,0-0.1,0-0.1,0c0,0,0,0.1,0,0.1c0,0.1,0.1,0.2,0.1,0.3C6.7,3.6,6.7,3.5,6.8,3.5z"/>
		<path id="XMLID_78_" class="st11" d="M7.4,3.6C7.3,3.8,7.1,4,7,4.2C7,4,6.9,3.7,6.8,3.5c-0.1,0-0.2,0.1-0.2,0.1
			c0.1,0.2,0.1,0.5,0.2,0.7c0,0.1,0,0.2,0.1,0.2C6.9,4.6,7,4.6,7.1,4.6c0.1,0,0.2-0.1,0.2-0.1C7.5,4.3,7.5,3.9,7.4,3.6z"/>
		<path id="XMLID_77_" class="st3" d="M7.4,3.6C7.3,3.8,7.1,4,7,4.2C7,4,6.9,3.7,6.8,3.5c-0.1,0-0.2,0.1-0.2,0.1
			c0.1,0.2,0.1,0.5,0.2,0.7c0,0.1,0,0.2,0.1,0.2C6.9,4.6,7,4.6,7.1,4.6c0.1,0,0.2-0.1,0.2-0.1C7.5,4.3,7.5,3.9,7.4,3.6z"/>
		<path id="XMLID_76_" class="st12" d="M8.1,9.1C8.1,9.1,8.1,9.2,8.1,9.1C8,9.2,8,9.3,8,9.3c0,0,0,0.1,0,0.1h0.3c0-0.1,0-0.2,0-0.3
			C8.2,9.1,8.1,9.1,8.1,9.1z"/>
		<path id="XMLID_75_" class="st12" d="M7.6,9.1C7.6,9.1,7.5,9.2,7.6,9.1C7.5,9.2,7.5,9.2,7.4,9.2c0,0-0.1,0-0.1,0
			c0,0-0.1,0.1-0.1,0.1h0.5c0-0.1,0-0.2,0-0.3C7.7,9.1,7.6,9.1,7.6,9.1z"/>
		<path id="XMLID_74_" class="st13" d="M7.8,9.2c0-1.2,0-2.4,0.1-3.7c-0.2,0-0.3,0-0.5,0.1c0,0-0.1,0-0.1,0C7.4,6.7,7.4,8,7.5,9.2
			H7.8z"/>
		<path id="XMLID_73_" class="st13" d="M8.3,9.2c0-1.2,0-2.4,0-3.7c0,0-0.1,0-0.1,0c-0.2,0-0.3,0-0.5,0C7.9,6.7,8,7.9,8,9.2H8.3z"/>
		<path id="XMLID_72_" class="st3" d="M8.3,5.9c0-0.1,0-0.3,0-0.4c0,0-0.1,0-0.1,0c-0.1,0-0.2,0-0.3,0c0,0,0,0,0,0
			c-0.2,0-0.3,0-0.5,0.1c0,0-0.1,0-0.1,0c0,0,0,0.1,0,0.1C7.6,5.9,8,6,8.3,5.9z"/>
		<path id="XMLID_71_" class="st11" d="M7.6,3.4C7.5,3.5,7.3,3.7,7.2,3.9C7.2,4,7.2,4.2,7.1,4.4c0,0.4,0,0.8,0.1,1.2
			c0.4,0.1,0.8,0.1,1.2,0C8.3,5,8.5,4.5,8.4,3.9C8.3,3.6,7.9,3.3,7.6,3.4z"/>
		<path id="XMLID_70_" class="st3" d="M8.4,3.9C8.4,3.8,8.4,3.8,8.4,3.9c0-0.1-0.1-0.1-0.1-0.2c0-0.1-0.1,0-0.1,0c0,0,0,0,0,0.1
			c0,0,0.1,0,0.1,0c0,0,0,0.1,0,0.1c0,0,0,0,0,0.1c0,0,0,0,0,0c0,0,0,0,0,0C8.3,3.9,8.3,3.9,8.4,3.9c0,0.1,0,0.2,0,0.3c0,0,0,0,0,0
			c0,0,0,0,0,0.1c0,0-0.1,0.1-0.1,0c0,0,0,0,0,0c0,0-0.1,0-0.1,0C8.1,4.2,8,4.1,8,4c0,0,0,0,0,0c0,0,0,0,0,0c0,0,0,0-0.1,0
			c-0.1,0-0.1-0.1-0.1-0.2c0,0,0,0,0,0c0,0,0,0,0,0c0,0,0,0,0,0.1c0,0,0,0.1,0,0.1c0,0,0,0,0,0.1c0,0,0,0.1,0,0.1c0,0,0,0,0,0
			C7.9,4.4,8,4.7,8.2,4.9c0,0,0.1,0.1,0.1,0.1c0,0,0,0,0.1,0C8.4,4.6,8.4,4.2,8.4,3.9z"/>
		<path id="XMLID_69_" class="st10" d="M8,4.1C8,4,8,4,8,3.9c0,0-0.1-0.1-0.1-0.1c0,0,0,0,0,0c0,0,0,0,0,0c0,0,0,0,0,0.1
			c0,0,0,0.1,0,0.1c0,0,0,0,0.1,0.1C7.9,4.1,7.9,4.1,8,4.1C7.9,4.2,8,4.1,8,4.1z"/>
		<path id="XMLID_68_" class="st11" d="M8.1,3.7c0-0.1,0.1-0.1,0.1-0.1C8.3,3.7,8.5,3.9,8.5,4c0.1,0.2,0.1,0.5,0,0.7
			c0,0.1-0.1,0.1-0.1,0.1c0,0-0.1,0-0.1-0.1C8.1,4.6,8,4.4,7.9,4.1C7.9,4.1,8,4,8,4c0,0.1,0.1,0.1,0.1,0.2c0,0,0.1,0,0.1,0
			c0,0,0-0.1,0-0.1c0,0,0-0.1,0-0.1c0-0.1-0.1-0.2-0.1-0.2C8.1,3.8,8.1,3.7,8.1,3.7z"/>
		<path id="XMLID_67_" class="st11" d="M6.7,3C6.7,3.1,6.6,3.2,6.7,3.2c0,0.1,0.1,0,0.2,0C6.9,3.1,6.9,3.1,6.9,3C6.9,3,6.8,3,6.7,3z
			"/>
		<path id="XMLID_66_" class="st14" d="M6.7,3c0,0-0.1,0.1,0,0.1c0,0,0.1,0,0.1,0c0,0,0.1-0.1,0-0.1S6.8,3,6.7,3z"/>
		<path id="XMLID_65_" class="st11" d="M6.5,3.3L6.5,3.3C6.5,3.3,6.5,3.4,6.5,3.3l0.2-0.1c0,0,0,0,0,0l0,0c0,0,0,0,0,0L6.5,3.3
			C6.5,3.3,6.5,3.3,6.5,3.3z"/>
		<path id="XMLID_64_" class="st10" d="M6.5,3.2C6.5,3.2,6.6,3.2,6.5,3.2c0.1,0,0.1,0,0.2,0.1c0,0,0,0,0,0c0,0,0,0,0,0c0,0,0,0,0,0
			c0,0,0,0,0,0c0,0,0,0,0,0C6.5,3.3,6.5,3.3,6.5,3.2C6.5,3.2,6.5,3.2,6.5,3.2z"/>
		<path id="XMLID_63_" class="st15" d="M7.7,2.9c0,0-0.1-0.1-0.1,0c0,0-0.1,0-0.1,0c-0.1,0-0.2-0.1-0.2-0.2c0-0.1,0-0.2,0.1-0.2
			c0,0,0.1,0,0.1,0c0.1,0,0.1,0,0.2-0.1C8,2.3,8.1,2.5,8.1,2.6c0,0,0.1,0.1,0.1,0.1c0,0,0,0.1,0,0.1c0,0.2-0.1,0.3-0.2,0.4
			c0-0.1,0-0.2,0-0.3C7.9,2.9,7.8,2.9,7.7,2.9z"/>
		<path id="XMLID_62_" class="st10" d="M7.6,2.9C7.6,2.8,7.6,2.8,7.6,2.9C7.5,2.9,7.5,2.9,7.6,2.9C7.5,2.9,7.5,3,7.5,3
			c0,0,0,0.1,0.1,0.1C7.6,3,7.6,2.9,7.6,2.9z"/>
		<path id="XMLID_61_" class="st3" d="M7.6,2.9C7.6,2.8,7.6,2.8,7.6,2.9C7.5,2.9,7.5,2.9,7.6,2.9C7.5,2.9,7.5,3,7.5,3
			c0,0,0,0.1,0.1,0.1C7.6,3,7.6,2.9,7.6,2.9z"/>
		<path id="XMLID_60_" class="st3" d="M8.2,3.8c0,0,0.1,0,0.1-0.1c0,0,0,0-0.1-0.1C8.1,3.5,7.9,3.4,7.6,3.4c-0.1,0-0.1,0.1-0.2,0.1
			c0,0,0,0,0,0c0,0.1,0,0.2,0.1,0.2c0,0,0.1,0,0.2,0c0.1,0,0.1,0,0.2,0C8,3.7,8.1,3.8,8.2,3.8z"/>
		<path id="XMLID_59_" class="st10" d="M7.7,3.1c0,0.1,0,0.3,0,0.4c0.1,0.1,0.2,0.1,0.3,0c0-0.1,0-0.3,0-0.4
			C7.9,3.1,7.8,3.1,7.7,3.1z"/>
		<path id="XMLID_58_" class="st3" d="M8,3.4c0-0.1,0-0.2,0-0.3c-0.1,0-0.2,0-0.2,0c0,0,0,0,0,0c0,0.1,0,0.2,0,0.3c0,0,0,0,0.1,0
			C7.8,3.5,7.9,3.5,8,3.4C8,3.4,8,3.4,8,3.4z"/>
		<path id="XMLID_57_" class="st15" d="M7.5,2.8c0,0.1,0,0.2,0,0.3C7.6,3,7.6,2.9,7.5,2.8C7.6,2.8,7.6,2.8,7.5,2.8
			C7.6,2.8,7.6,2.8,7.5,2.8C7.6,2.8,7.5,2.8,7.5,2.8z"/>
		<path id="XMLID_56_" class="st10" d="M7.6,3.1c0,0.1,0.1,0.2,0.2,0.2c0.1,0,0.1,0,0.2,0S8,3.2,8,3.2c0.1-0.1,0.1-0.3,0-0.4
			c0-0.1-0.2-0.2-0.3-0.2C7.5,2.5,7.5,2.9,7.6,3.1z"/>
		<path id="XMLID_55_" class="st15" d="M7.5,2.8c0.1,0,0.2,0,0.4,0c0,0,0.1,0.1,0.1,0.1C8,3,8,3,8,3C8,3,8,3,8,3c0,0,0,0,0,0
			c0,0,0,0,0,0c0,0,0,0,0,0.1c0,0,0,0.1-0.1,0.1c0,0,0,0.1,0,0.1c0.1-0.1,0.2-0.3,0.1-0.5C8.1,2.6,7.9,2.5,7.8,2.5
			c-0.1,0-0.1,0-0.2,0.1C7.5,2.7,7.5,2.7,7.5,2.8z"/>
		<linearGradient id="XMLID_3_" gradientUnits="userSpaceOnUse" x1="7.6832" y1="3.1585" x2="7.6832" y2="3.0244">
			<stop  offset="0" style="stop-color:#F4847B"/>
			<stop  offset="1" style="stop-color:#F8A47B"/>
		</linearGradient>
		<path id="XMLID_54_" class="st16" d="M7.7,3.1C7.7,3.1,7.7,3.1,7.7,3.1C7.6,3.1,7.6,3.1,7.7,3.1C7.7,3.2,7.7,3.2,7.7,3.1
			C7.7,3.1,7.7,3.1,7.7,3.1C7.7,3.1,7.7,3.1,7.7,3.1C7.7,3,7.7,3,7.7,3.1C7.7,3,7.7,3.1,7.7,3.1z"/>
		<circle id="XMLID_53_" class="st17" cx="7.8" cy="3" r="0"/>
		<circle id="XMLID_52_" class="st17" cx="7.6" cy="3" r="0"/>
		<g id="XMLID_50_">
			<path id="XMLID_51_" class="st17" d="M7.9,2.9C7.9,2.9,7.9,2.9,7.9,2.9C7.9,2.9,7.9,2.9,7.9,2.9c-0.1,0-0.1,0-0.2,0c0,0,0,0,0,0
				c0,0,0,0,0,0C7.8,2.9,7.8,2.9,7.9,2.9C7.9,2.9,7.9,2.9,7.9,2.9C7.9,2.9,7.9,2.9,7.9,2.9C7.9,2.9,7.9,2.9,7.9,2.9z"/>
		</g>
		<g id="XMLID_48_">
			<path id="XMLID_49_" class="st17" d="M7.6,3C7.6,3,7.6,3,7.6,3C7.6,3,7.6,2.9,7.6,3C7.6,2.9,7.6,2.9,7.6,3c0.1-0.1,0.1,0,0.1,0
				c0,0,0,0,0,0c0,0,0,0,0,0C7.7,2.9,7.6,2.9,7.6,3C7.6,2.9,7.6,2.9,7.6,3C7.6,3,7.6,3,7.6,3z"/>
		</g>
		<linearGradient id="XMLID_4_" gradientUnits="userSpaceOnUse" x1="7.7807" y1="3.1419" x2="7.9406" y2="3.1419">
			<stop  offset="0" style="stop-color:#F4847B"/>
			<stop  offset="1" style="stop-color:#F8A47B"/>
		</linearGradient>
		<ellipse id="XMLID_47_" class="st18" cx="7.9" cy="3.1" rx="0.1" ry="0.1"/>
		<linearGradient id="XMLID_93_" gradientUnits="userSpaceOnUse" x1="7.5516" y1="3.1396" x2="7.6337" y2="3.1396">
			<stop  offset="0" style="stop-color:#F4847B"/>
			<stop  offset="1" style="stop-color:#F8A47B"/>
		</linearGradient>
		<path id="XMLID_46_" class="st19" d="M7.6,3.1C7.6,3.1,7.6,3.1,7.6,3.1C7.6,3.1,7.6,3.1,7.6,3.1c0,0.1,0,0.1,0,0.1
			C7.6,3.2,7.6,3.2,7.6,3.1C7.6,3.1,7.6,3.1,7.6,3.1z"/>
	</g>
	<g id="XMLID_31_">
		<ellipse id="XMLID_44_" class="st20" cx="7.5" cy="1.4" rx="0" ry="0.1"/>
		<circle id="XMLID_43_" class="st20" cx="3.3" cy="0.1" r="0"/>
		<ellipse id="XMLID_42_" class="st20" cx="1.5" cy="2" rx="0.1" ry="0.1"/>
		<ellipse id="XMLID_41_" class="st20" cx="1.1" cy="3.4" rx="0.1" ry="0.1"/>
		<ellipse id="XMLID_40_" class="st20" cx="2.5" cy="2.8" rx="0.1" ry="0.1"/>
		<ellipse id="XMLID_39_" class="st20" cx="9.1" cy="2.1" rx="0.1" ry="0.1"/>
		<ellipse id="XMLID_38_" class="st20" cx="9.2" cy="4" rx="0.1" ry="0.1"/>
		<ellipse id="XMLID_37_" class="st20" cx="6.7" cy="0.2" rx="0.1" ry="0.1"/>
		<path id="XMLID_36_" class="st20" d="M8.1,0.6L8.1,0.6c0,0.1,0.1,0.2,0.2,0.2l0,0l0,0C8.2,0.8,8.1,0.9,8.1,1l0,0l0,0
			C8.1,0.9,8,0.8,8,0.8h0h0C8,0.7,8.1,0.7,8.1,0.6L8.1,0.6z"/>
		<path id="XMLID_35_" class="st20" d="M1.3,0.4L1.3,0.4c0,0.1,0.1,0.1,0.1,0.1l0,0l0,0c-0.1,0-0.1,0.1-0.1,0.1l0,0l0,0
			c0-0.1-0.1-0.1-0.1-0.1l0,0l0,0C1.2,0.6,1.3,0.5,1.3,0.4L1.3,0.4z"/>
		<path id="XMLID_34_" class="st20" d="M4.8,0L4.8,0c0,0.1,0.1,0.1,0.1,0.1l0,0l0,0c-0.1,0-0.1,0.1-0.1,0.1l0,0l0,0
			c0-0.1-0.1-0.1-0.1-0.1h0h0C4.8,0.1,4.8,0.1,4.8,0L4.8,0z"/>
		<path id="XMLID_33_" class="st20" d="M9.8,3.1L9.8,3.1c0,0.1,0.1,0.1,0.1,0.1l0,0l0,0c-0.1,0-0.1,0.1-0.1,0.1l0,0l0,0
			c0-0.1-0.1-0.1-0.1-0.1l0,0l0,0C9.8,3.2,9.8,3.1,9.8,3.1L9.8,3.1z"/>
		<path id="XMLID_32_" class="st20" d="M0.6,2.7L0.6,2.7c0,0.1,0.1,0.1,0.1,0.1l0,0l0,0C0.6,2.9,0.6,2.9,0.6,3l0,0l0,0
			c0-0.1-0.1-0.1-0.1-0.1l0,0l0,0C0.5,2.8,0.6,2.8,0.6,2.7L0.6,2.7z"/>
	</g>
	<g id="XMLID_6_">
		<path id="XMLID_30_" class="st15" d="M1,6.3c-0.1,0.1-0.2,0-0.2-0.1c0,0-0.1,0-0.1-0.1c0,0,0-0.1,0-0.2c0,0-0.1-0.1-0.1-0.1
			c0-0.1,0-0.1,0.1-0.1c0-0.1,0-0.2,0.1-0.2c0,0,0-0.1,0.1-0.1c0,0,0-0.1,0.1-0.1c0,0,0.1,0,0.1,0.1c0-0.1,0.1-0.1,0.1-0.1
			c0,0,0.1,0,0.1,0.1c0,0,0.1,0,0.1,0.1c0,0,0.1,0.1,0,0.2c0,0.1,0,0.2-0.1,0.2c0,0,0,0.1,0,0.2c0,0.1-0.1,0.1-0.1,0.1
			c0,0,0,0.1,0,0.1c0,0-0.1,0-0.1,0C1.2,6.3,1.1,6.3,1,6.3C1.1,6.4,1,6.3,1,6.3z"/>
		<path id="XMLID_29_" class="st21" d="M1.4,6.5C1.6,6.7,1.8,7,1.9,7.3c0.1,0.3,0.1,0.7,0,1c0,0.2-0.2,0.3-0.4,0.3
			c0-0.5,0.1-1,0-1.5C1.4,6.9,1.4,6.7,1.4,6.5z"/>
		<path id="XMLID_28_" class="st3" d="M1.4,6.5C1.6,6.7,1.8,7,1.9,7.3c0.1,0.3,0.1,0.7,0,1c0,0.2-0.2,0.3-0.4,0.3c0-0.5,0.1-1,0-1.5
			C1.4,6.9,1.4,6.7,1.4,6.5z"/>
		<path id="XMLID_27_" class="st12" d="M2.2,9.1c0.1,0,0.2,0,0.3,0c0.1,0,0.2,0,0.3,0.1c0,0,0.1,0.1,0.1,0.2c0,0-0.1,0.1-0.1,0.1
			c-0.2,0.1-0.4,0.1-0.6,0C2.1,9.4,2.1,9.2,2.2,9.1z"/>
		<path id="XMLID_26_" class="st22" d="M1.5,8.4c0,0.1,0.1,0.2,0.2,0.2c0.1,0,0.2,0,0.3,0.1c0.1,0,0.2,0.1,0.2,0.2
			c0,0.1,0,0.2-0.1,0.3C2.1,9.3,2,9.4,1.9,9.4c-0.1,0-0.2,0-0.3,0c-0.1,0-0.3,0-0.4-0.1C1,9.2,0.9,9,0.9,8.9c0-0.2,0.1-0.3,0.2-0.4
			C1.2,8.3,1.3,8.4,1.5,8.4z"/>
		<path id="XMLID_25_" class="st23" d="M0.8,8.5c-0.1,0-0.3,0-0.4,0.1C0.2,8.7,0.1,8.9,0.1,9c0,0.2,0.2,0.3,0.4,0.4
			c0.4,0.1,0.7,0.1,1.1,0.1c0.1,0,0.2,0,0.3-0.1c0-0.1,0-0.2,0-0.3C1.9,9.1,1.8,9,1.8,9C1.6,8.8,1.4,8.6,1.2,8.5
			C1.1,8.5,0.9,8.5,0.8,8.5z"/>
		<path id="XMLID_24_" class="st23" d="M1.3,8.6C1.5,8.8,1.8,9,2.2,9c0.1,0,0.2,0.1,0.1,0.2c0,0,0,0.1,0,0.1c0,0.1-0.1,0.2-0.1,0.2
			c-0.1,0-0.1,0-0.2,0c-0.2,0-0.5,0-0.7-0.1C1.1,9.3,1.1,8.9,1.3,8.6z"/>
		<path id="XMLID_23_" class="st21" d="M1.2,6.4c0.2,0.1,0.3,0.2,0.4,0.4C1.7,7,1.7,7.2,1.7,7.4c0,0.4,0,0.8-0.1,1.2
			c-0.4,0.1-0.8,0.1-1.2,0c0.1-0.6-0.1-1.1,0-1.7C0.6,6.5,1,6.3,1.2,6.4z"/>
		<path id="XMLID_22_" class="st21" d="M0.6,6.6C0.5,6.8,0.3,7,0.3,7.3c-0.1,0.3-0.1,0.6,0,0.9c0.1,0.3,0.3,0.5,0.5,0.6
			c0.1,0,0.1,0,0.2-0.1c0-0.2-0.2-0.3-0.3-0.5c-0.1-0.2-0.1-0.5,0-0.8C0.7,7.2,0.8,7.1,0.9,7C0.9,6.8,0.8,6.6,0.6,6.6z"/>
		<path id="XMLID_21_" class="st10" d="M1.3,5.8C1.3,5.8,1.3,5.8,1.3,5.8C1.4,5.8,1.4,5.8,1.3,5.8C1.4,5.9,1.4,5.9,1.4,6
			c0,0,0,0.1-0.1,0.1C1.3,6,1.3,5.9,1.3,5.8z"/>
		<path id="XMLID_20_" class="st3" d="M1.3,5.8C1.3,5.8,1.3,5.8,1.3,5.8C1.4,5.8,1.4,5.8,1.3,5.8C1.4,5.9,1.4,5.9,1.4,6
			c0,0,0,0.1-0.1,0.1C1.3,6,1.3,5.9,1.3,5.8z"/>
		<path id="XMLID_19_" class="st3" d="M0.6,6.7c0,0-0.1,0-0.1-0.1c0,0,0,0,0.1-0.1C0.7,6.4,1,6.3,1.2,6.4c0.1,0,0.1,0.1,0.2,0.1
			c0,0,0,0,0,0c0,0.1,0,0.2-0.1,0.2c0,0-0.1,0-0.2,0c-0.1,0-0.1,0-0.2,0C0.9,6.7,0.8,6.8,0.6,6.7z"/>
		<path id="XMLID_18_" class="st10" d="M1.2,6.1c0,0.1,0,0.3,0,0.4C1.1,6.6,1,6.5,0.9,6.5c0-0.1,0-0.3,0-0.4C1,6.1,1.1,6.1,1.2,6.1z
			"/>
		<path id="XMLID_17_" class="st3" d="M0.9,6.3c0-0.1,0-0.2,0-0.3c0.1,0,0.2,0,0.2,0c0,0,0,0,0,0c0,0.1,0,0.2,0,0.3c0,0,0,0-0.1,0
			C1.1,6.5,1,6.4,0.9,6.3C0.9,6.4,0.9,6.3,0.9,6.3z"/>
		<path id="XMLID_16_" class="st15" d="M1.3,5.8c0,0.1,0,0.2,0,0.3C1.3,5.9,1.3,5.9,1.3,5.8C1.3,5.8,1.3,5.8,1.3,5.8
			C1.3,5.7,1.3,5.7,1.3,5.8C1.3,5.7,1.3,5.8,1.3,5.8z"/>
		<path id="XMLID_15_" class="st10" d="M1.3,6.1c0,0.1-0.1,0.2-0.2,0.2c-0.1,0-0.1,0-0.2,0c-0.1,0-0.1-0.1-0.1-0.2
			C0.8,6,0.8,5.8,0.8,5.7c0-0.1,0.2-0.2,0.3-0.2C1.3,5.5,1.4,5.9,1.3,6.1z"/>
		<path id="XMLID_14_" class="st15" d="M1.4,5.8c-0.1,0-0.2,0-0.4,0c0,0-0.1,0.1-0.1,0.1c0,0,0,0.1,0,0.1c0,0,0,0,0-0.1c0,0,0,0,0,0
			c0,0,0,0,0,0c0,0,0,0,0,0.1c0,0,0,0.1,0.1,0.1c0,0,0,0.1,0,0.1C0.8,6.1,0.7,5.9,0.8,5.7C0.8,5.6,1,5.4,1.1,5.4
			c0.1,0,0.1,0,0.2,0.1C1.4,5.6,1.4,5.7,1.4,5.8z"/>
		
			<linearGradient id="XMLID_351_" gradientUnits="userSpaceOnUse" x1="-371.0852" y1="6.1105" x2="-371.0852" y2="5.9765" gradientTransform="matrix(-1 0 0 1 -369.8885 0)">
			<stop  offset="0" style="stop-color:#F4847B"/>
			<stop  offset="1" style="stop-color:#F8A47B"/>
		</linearGradient>
		<path id="XMLID_13_" class="st24" d="M1.2,6C1.2,6.1,1.2,6.1,1.2,6C1.2,6.1,1.2,6.1,1.2,6C1.2,6.1,1.2,6.1,1.2,6
			C1.2,6.1,1.2,6.1,1.2,6C1.2,6.1,1.2,6,1.2,6C1.2,6,1.2,6,1.2,6C1.2,6,1.2,6,1.2,6z"/>
		<circle id="XMLID_12_" class="st17" cx="1.1" cy="6" r="0"/>
		<circle id="XMLID_11_" class="st17" cx="1.3" cy="6" r="0"/>
		
			<linearGradient id="XMLID_352_" gradientUnits="userSpaceOnUse" x1="-370.9877" y1="6.0939" x2="-370.8278" y2="6.0939" gradientTransform="matrix(-1 0 0 1 -369.8885 0)">
			<stop  offset="0" style="stop-color:#F4847B"/>
			<stop  offset="1" style="stop-color:#F8A47B"/>
		</linearGradient>
		<ellipse id="XMLID_10_" class="st25" cx="1" cy="6.1" rx="0.1" ry="0.1"/>
		
			<linearGradient id="XMLID_353_" gradientUnits="userSpaceOnUse" x1="-371.2168" y1="6.0917" x2="-371.1346" y2="6.0917" gradientTransform="matrix(-1 0 0 1 -369.8885 0)">
			<stop  offset="0" style="stop-color:#F4847B"/>
			<stop  offset="1" style="stop-color:#F8A47B"/>
		</linearGradient>
		<path id="XMLID_9_" class="st26" d="M1.3,6C1.3,6,1.3,6,1.3,6C1.3,6,1.3,6.1,1.3,6c0,0.1,0,0.1,0,0.1C1.3,6.1,1.2,6.1,1.3,6
			C1.2,6.1,1.3,6,1.3,6z"/>
		<path id="XMLID_8_" class="st15" d="M1,5.7C1,5.8,1,5.8,1,5.7c0.1,0.1,0.1,0.1,0.1,0.1c0,0,0.1,0,0.1,0c0,0,0,0,0.1,0
			c0,0,0,0,0.1-0.1c0,0,0-0.1,0-0.1c0,0-0.1,0-0.1,0c0,0-0.1,0-0.1,0C1.1,5.7,1,5.7,1,5.7C1,5.7,1,5.7,1,5.7z"/>
		<ellipse id="XMLID_7_" class="st3" cx="1.5" cy="8.4" rx="0.1" ry="0.1"/>
	</g>
</g>
</svg>
