<?xml version="1.0" encoding="utf-8"?>
<!-- Generator: Adobe Illustrator 19.0.0, SVG Export Plug-In . SVG Version: 6.00 Build 0)  -->
<svg version="1.1" id="Layer_1" xmlns="http://www.w3.org/2000/svg" xmlns:xlink="http://www.w3.org/1999/xlink" x="0px" y="0px"
	 viewBox="0 0 200 200" style="enable-background:new 0 0 200 200;" xml:space="preserve">
<style type="text/css">
	.st0{fill:#FDBA25;}
	.st1{fill:#4EAE87;}
	.st2{fill:#F15F6A;}
	.st3{fill:url(#XMLID_57_);}
	.st4{fill:url(#XMLID_58_);}
	.st5{fill:#5BADE0;}
	.st6{fill:none;stroke:#FFFFFF;stroke-linecap:round;stroke-linejoin:round;stroke-miterlimit:10;}
	.st7{fill:#EFAE95;}
	.st8{fill:#FBC4AE;}
	.st9{fill:#461B17;}
	.st10{fill:#FFFFFF;}
	.st11{fill:#121327;}
	.st12{fill:url(#XMLID_59_);}
	.st13{fill:url(#XMLID_60_);}
	.st14{fill:none;stroke:#B6C8E0;stroke-width:3;stroke-linecap:round;stroke-linejoin:round;stroke-miterlimit:10;}
	.st15{fill:none;stroke:#B6C8E0;stroke-linecap:round;stroke-linejoin:round;stroke-miterlimit:10;}
	.st16{fill:none;stroke:#B6C8E0;stroke-width:2;stroke-linecap:round;stroke-linejoin:round;stroke-miterlimit:10;}
	.st17{fill:url(#XMLID_61_);}
	.st18{fill:url(#XMLID_62_);}
	.st19{fill:#B6C8E0;}
	.st20{fill:url(#XMLID_63_);}
	.st21{fill:url(#XMLID_64_);}
</style>
<g>
	<g>
		<g>
			<path id="XMLID_55_" class="st0" d="M65.5,35.9c0,0-1-1.9,0.2-3.7c1.7-2.5,5.8-2,5.8-2l1.3-2.5c0,0-3.4-0.5-6.3,1.7
				c-3.9,3-3.1,7-3.1,7L65.5,35.9z"/>
			<path id="XMLID_54_" class="st0" d="M66.2,39.7c0,0-8.3-6.2-10.2-3.2c-1.9,3,2.8,8,4.7,7.8C62.8,44,66,41,66,41l-0.5,3.8
				c0,0-1.5,1-5.5,0.5c-4.2-0.5-7.2-6.1-5.1-8.7c2.3-3,11.1-2.6,11.1-2.6L66.2,39.7z"/>
			<path id="XMLID_53_" class="st0" d="M59.4,33.1c-2.9-1-6-1-7.7,0.2l-0.3-2.2c0,0,5.4-5.2,12.4,3.8l-1.2,0.8
				C62.6,35.7,62.8,34.3,59.4,33.1z"/>
			<path id="XMLID_52_" class="st0" d="M64.1,33.3c-0.5-4.2-1.3-8.2-0.1-9c1.2-0.8,4.2,4.4,1.4,11l4.1,2.7c0,0,0-6-2.8-11.8
				c-2.8-5.8-6.6-1.1-3.7,8.5L64.1,33.3z"/>
		</g>
		<polygon id="XMLID_51_" class="st1" points="82.2,33.3 50.9,50 65.6,76.3 96.9,59.6 		"/>
		<polygon id="XMLID_50_" class="st1" points="83.1,33 50.4,50.4 46.4,43.5 79.8,25.8 		"/>
		<polygon id="XMLID_49_" class="st0" points="84.3,66.4 80.1,68.6 61.2,35.6 65.4,33.4 		"/>
	</g>
	<g>
		<polygon id="XMLID_48_" class="st2" points="166.1,47.8 141.8,76 175.2,105.2 200,77.4 		"/>
		<polygon id="XMLID_47_" class="st0" points="156.3,59 152.3,63.8 186.2,93.2 190.4,88.6 		"/>
		<polygon id="XMLID_46_" class="st0" points="156.1,88.5 161.1,92.9 185.5,64.7 180.4,60.2 		"/>
	</g>
	<g>
		
			<linearGradient id="XMLID_57_" gradientUnits="userSpaceOnUse" x1="115.5953" y1="41.1506" x2="98.8388" y2="42.4563" gradientTransform="matrix(0.9162 0.4006 -0.4006 0.9162 57.7355 -50.1153)">
			<stop  offset="0" style="stop-color:#4986C6"/>
			<stop  offset="0.1097" style="stop-color:#4383C3"/>
			<stop  offset="0.6499" style="stop-color:#2879B9"/>
			<stop  offset="1" style="stop-color:#1876B6"/>
		</linearGradient>
		<polygon id="XMLID_45_" class="st3" points="137.6,54.5 110.9,42.8 126.9,3 153.6,14.7 		"/>
		
			<linearGradient id="XMLID_58_" gradientUnits="userSpaceOnUse" x1="83.8976" y1="58.0717" x2="100.6523" y2="58.0717" gradientTransform="matrix(0.9162 0.4006 -0.4006 0.9162 57.7355 -50.1153)">
			<stop  offset="0" style="stop-color:#4986C6"/>
			<stop  offset="0.1097" style="stop-color:#4383C3"/>
			<stop  offset="0.6499" style="stop-color:#2879B9"/>
			<stop  offset="1" style="stop-color:#1876B6"/>
		</linearGradient>
		<polygon id="XMLID_44_" class="st4" points="115.2,32.1 110.9,42.8 137.6,54.5 141.9,43.8 		"/>
		<polygon id="XMLID_43_" class="st5" points="127.9,50.2 101.1,38.5 119.9,-0.1 146.6,11.6 		"/>
		<polygon id="XMLID_42_" class="st5" points="106.2,28.2 101.1,38.5 127.9,50.2 132.9,39.9 		"/>
		<g>
			<path id="XMLID_41_" class="st6" d="M137.3,11.9l-0.9,2c-1.2,2.8-4.5,4.1-7.3,2.8l0,0c-2.8-1.2-4.1-4.5-2.8-7.3l0.9-2"/>
		</g>
	</g>
	<g>
		<g>
			<path id="XMLID_40_" class="st7" d="M73.9,139.3c0,0,13.5-19.7,15.8-23.2c2.3-3.5,5.1-5.9,9.2-4.8c4.1,1.1,25.5,11.3,34,14.2
				c4.2,1.5,8.3,2.1,11.4,2.4c3,0.2,5.4-1.6,5.4-1.6l-7,7.8c0,0-17.7-3.8-25.1-5.4c-7.3-1.7-18.2-6.4-18.2-6.4l-11.3,26.8
				L73.9,139.3z"/>
			<path id="XMLID_39_" class="st2" d="M139.9,133.2l5.5,5l1.3-0.3l-1.5-2.6l5.5-0.9l6.5-12.4l-7.5,4.3
				C149.7,126.3,145,132.6,139.9,133.2z"/>
			<path id="XMLID_38_" class="st8" d="M39.7,82.1c0.9,2.2,1.2,5.1,1.5,8.3c0.3,3.2,1.2,9.2-0.6,10.7c-0.7,0.6-4.3,0.8-5.5,2.6
				c-1,1.4-2.7-1.6-4.9-3.2c-5.5-4.3-12.4-8-7.4-14C27.9,80.4,39.7,82.1,39.7,82.1z"/>
			<path id="XMLID_37_" class="st9" d="M28.2,76.1c-2.9,0.5-5.4,1.7-7.5,3.5c-4.4,3.9-5.3,9.9-4.8,17.9c0.9,14.2-5.7,11-9.6,18.8
				c-4.6,9.2,4.8,19.3,16.4,15.1c7.2-2.6,10.6-8.5,5.8-25.4c-5.9-21,6.1-22.7,6.1-22.7L28.2,76.1z"/>
			<path id="XMLID_36_" class="st9" d="M37.8,79.1c1.3,1.9,3.7,3.1,2.7,5.5c-1,2.4-6.6,1.5-6.9,4c-0.3,2.4-0.5,3.7-0.5,3.7
				c-0.5-0.7-2-2.4-3.8-1c-1.8,1.4,0.4,4.9,4.1,5.2l-3.1,4.1c0,0-0.3,6.4-4,4.2c-3.8-2.1-7.4-6.5-7.6-14.5
				c-0.3-10.2,6-13.4,9.5-14.2C31.7,75.4,36.2,76.8,37.8,79.1z"/>
			<path id="XMLID_35_" class="st8" d="M35.4,101.1c0,4.1-0.2,6,1.4,7.2c0,0-2.4,0.9-5.4,0.9c-3,0-5.2-0.5-5.2-0.5l2.1-11.2l9.4,0.6
				L35.4,101.1z"/>
			<path id="XMLID_34_" class="st10" d="M28.4,109.4c0,0,1.6,7.7,5.8,8.3c4.2,0.6,5.6-4,5.6-4s-9-2.6-9.8-5.4L28.4,109.4z"/>
			<g>
				<path id="XMLID_33_" class="st8" d="M78.4,132.4c0,0,20-13.7,23.1-16.5c3.1-2.8,6.4-4.4,10.1-2.4c3.7,2,19.9,15.2,27.3,20.1
					c3.7,2.5,7.5,4.1,10.4,5.1c2.9,1,5.6-0.2,5.6-0.2l-8.7,5.8c0,0-15.2-7-21.9-10.4c-6.7-3.4-15-9.6-15-9.6l-19.6,21.2L78.4,132.4z
					"/>
				<path id="XMLID_32_" class="st2" d="M143.9,142.9l4.1,6.2h1.3l-0.8-2.9l5.6,0.5l9.3-10.4l-8.4,2.3
					C155,138.6,148.9,143.5,143.9,142.9z"/>
			</g>
			<path id="XMLID_31_" class="st11" d="M26.5,107.2c0,0-3.7,9.7,3.1,25.5c2.4,5.6,14.6,17.2,20,21.5c5.4,4.2,13.2,10.4,16.5,11.1
				c3.3,0.7,17.7-0.9,23.6-3.8c5.9-2.8,8-0.9,8-0.9s0.3-13.5-4.2-18.2c-4.5-4.7-12.9-13.4-12.9-13.4s-13.7,11.3-15.1,10.6
				c-1.4-0.7-13.2-19.6-14.4-21.8c-1.2-2.1-13.1-10.6-15.4-10.8C35.7,107,31.5,110.5,26.5,107.2z"/>
			<path id="XMLID_30_" class="st9" d="M32.5,97.5c-3.1,4.1-1.7,9.2,1.1,15.1s-5.6,11.6-16.8,12.9c-13.8,1.6,5-26.9,6.7-29.7
				C25.3,92.9,32.5,97.5,32.5,97.5z"/>
			<path id="XMLID_29_" class="st8" d="M41.2,90.4c0.1,1.4,1.7,3.9,1.3,4.8c-0.4,0.9-2,1.1-2,1.1L41.2,90.4z"/>
			<g>
				
					<linearGradient id="XMLID_59_" gradientUnits="userSpaceOnUse" x1="22.1255" y1="149.2062" x2="5.9284" y2="150.4683" gradientTransform="matrix(0.9456 -0.3251 0.3251 0.9456 18.3931 -30.7616)">
					<stop  offset="0" style="stop-color:#D03632"/>
					<stop  offset="0.59" style="stop-color:#BC2628"/>
					<stop  offset="1" style="stop-color:#B52025"/>
				</linearGradient>
				<polygon id="XMLID_28_" class="st12" points="94.5,124 67.8,133.2 53.2,94.4 79.8,85.2 				"/>
				
					<linearGradient id="XMLID_60_" gradientUnits="userSpaceOnUse" x1="-8.5072" y1="165.5522" x2="7.6732" y2="165.5522" gradientTransform="matrix(0.9456 -0.3251 0.3251 0.9456 18.3931 -30.7616)">
					<stop  offset="0" style="stop-color:#D03632"/>
					<stop  offset="0.59" style="stop-color:#BC2628"/>
					<stop  offset="1" style="stop-color:#B52025"/>
				</linearGradient>
				<polygon id="XMLID_27_" class="st13" points="63.9,122.8 67.8,133.2 94.5,124 90.6,113.6 				"/>
				<polygon id="XMLID_26_" class="st2" points="84.7,127.3 58.1,136.5 46.2,96.8 72.9,87.6 				"/>
				<polygon id="XMLID_25_" class="st2" points="54.9,125.9 58.1,136.5 84.7,127.3 81.6,116.7 				"/>
				<g>
					<path id="XMLID_24_" class="st6" d="M66.5,93.9l0.7,2c1,2.8-0.5,5.8-3.3,6.8l0,0c-2.8,1-5.8-0.5-6.8-3.3l-0.7-2"/>
				</g>
			</g>
		</g>
		<g>
			<g>
				<path id="XMLID_23_" class="st14" d="M25.8,119.1l84.3,4.9c0.4,0,0.7,0.4,0.5,0.8l-4.4,12.3l-8.5,23.4l-60.5,10.5l-15.5-68
					c-0.3-1.3-1.3-2.3-2.6-2.5L3.7,97.2"/>
				<line id="XMLID_22_" class="st15" x1="101.8" y1="123.6" x2="90.8" y2="161.8"/>
				<line id="XMLID_21_" class="st15" x1="92.7" y1="123" x2="83.9" y2="163"/>
				<line id="XMLID_20_" class="st15" x1="83.5" y1="122.4" x2="77.1" y2="164.2"/>
				<line id="XMLID_19_" class="st15" x1="74.3" y1="121.8" x2="70.3" y2="165.4"/>
				<line id="XMLID_18_" class="st15" x1="65" y1="121.2" x2="63.6" y2="166.5"/>
				<line id="XMLID_17_" class="st15" x1="55.7" y1="120.6" x2="56.9" y2="167.7"/>
				<line id="XMLID_16_" class="st15" x1="46.4" y1="120" x2="50.3" y2="168.8"/>
				<line id="XMLID_15_" class="st15" x1="33.8" y1="119.4" x2="43.8" y2="170"/>
			</g>
			<line id="XMLID_14_" class="st15" x1="29.9" y1="134.8" x2="106.2" y2="137.2"/>
			<line id="XMLID_13_" class="st15" x1="33.9" y1="155.3" x2="101.8" y2="150.3"/>
			<path id="XMLID_12_" class="st16" d="M37.3,171.1l-6.5,17.5c-0.5,1.1,0.3,2.4,1.5,2.4h56.1"/>
			<g>
				
					<linearGradient id="XMLID_61_" gradientUnits="userSpaceOnUse" x1="-14.0568" y1="195.3543" x2="-4.7721" y2="195.3543" gradientTransform="matrix(-1 0 0 1 78.6813 0)">
					<stop  offset="0" style="stop-color:#353B45"/>
					<stop  offset="8.374029e-002" style="stop-color:#303743"/>
					<stop  offset="0.3767" style="stop-color:#212B3D"/>
					<stop  offset="0.6785" style="stop-color:#172439"/>
					<stop  offset="1" style="stop-color:#142138"/>
				</linearGradient>
				<circle id="XMLID_11_" class="st17" cx="88.1" cy="195.4" r="4.6"/>
				
					<linearGradient id="XMLID_62_" gradientUnits="userSpaceOnUse" x1="-11.5889" y1="195.3543" x2="-7.24" y2="195.3543" gradientTransform="matrix(-1 0 0 1 78.6813 0)">
					<stop  offset="0" style="stop-color:#EEF4FB"/>
					<stop  offset="0.289" style="stop-color:#E4EDF8"/>
					<stop  offset="1" style="stop-color:#CFE1F3"/>
				</linearGradient>
				<circle id="XMLID_10_" class="st18" cx="88.1" cy="195.4" r="2.2"/>
			</g>
			<path id="XMLID_9_" class="st19" d="M88.1,196.5L88.1,196.5c1.3,0,2.4-0.9,2.7-2.1l1.1-4.2h-7.7l1.1,4.2
				C85.7,195.6,86.8,196.5,88.1,196.5z"/>
			<g>
				
					<linearGradient id="XMLID_63_" gradientUnits="userSpaceOnUse" x1="32.7998" y1="195.3543" x2="42.0847" y2="195.3543" gradientTransform="matrix(-1 0 0 1 78.6813 0)">
					<stop  offset="0" style="stop-color:#353B45"/>
					<stop  offset="8.374029e-002" style="stop-color:#303743"/>
					<stop  offset="0.3767" style="stop-color:#212B3D"/>
					<stop  offset="0.6785" style="stop-color:#172439"/>
					<stop  offset="1" style="stop-color:#142138"/>
				</linearGradient>
				<circle id="XMLID_8_" class="st20" cx="41.2" cy="195.4" r="4.6"/>
				
					<linearGradient id="XMLID_64_" gradientUnits="userSpaceOnUse" x1="35.2679" y1="195.3543" x2="39.6166" y2="195.3543" gradientTransform="matrix(-1 0 0 1 78.6813 0)">
					<stop  offset="0" style="stop-color:#EEF4FB"/>
					<stop  offset="0.289" style="stop-color:#E4EDF8"/>
					<stop  offset="1" style="stop-color:#CFE1F3"/>
				</linearGradient>
				<circle id="XMLID_7_" class="st21" cx="41.2" cy="195.4" r="2.2"/>
			</g>
			<path id="XMLID_6_" class="st19" d="M41.2,196.5L41.2,196.5c1.3,0,2.4-0.9,2.7-2.1l1.1-4.2h-7.7l1.1,4.2
				C38.9,195.6,40,196.5,41.2,196.5z"/>
			<polyline id="XMLID_5_" class="st16" points="36.4,175.2 93.7,164.2 97.8,160.6 			"/>
			<path id="XMLID_1_" class="st19" d="M1,99.2l11.4,1.5c0.4,0.1,0.8-0.2,0.9-0.7l0.3-1.9c0.1-0.4-0.2-0.8-0.7-0.9L1.5,95.7
				c-0.4-0.1-0.8,0.2-0.9,0.7l-0.3,1.9C0.3,98.7,0.6,99.1,1,99.2z"/>
		</g>
		<path id="XMLID_4_" class="st8" d="M78.2,113c0,0,2.5-5.1,3-6.5c0.5-1.5,2.5-3.6,2.5-3.6l0.8,1.5v1.3l2.6-2.3l1.3,1.6l1.3,2.5l1,3
			c0,0-2.1,2.3-3.6,3.4c-1.5,1.1-6.3,3.2-6.3,3.2L78.2,113z"/>
		<g>
			<path id="XMLID_3_" class="st8" d="M78.2,113c-2.2,1.6-4.7,4.1-8.1,6.9c-5.3,4.3-8.7,6.4-8.7,6.4s-15.7-11.5-17.7-12.6
				c-2.1-1.1-4.8-3.4-7.9-1.1c-2.1,1.5-1.2,4.4,2.2,8.1c3.4,3.7,23.4,14.7,25.2,15c1.5,0.3,13.7-14.5,17.7-18.7
				C79.9,115.7,79,114.4,78.2,113z"/>
		</g>
		<path id="XMLID_2_" class="st9" d="M32,83.9c1.1,1.1,2.4,4.7,2.4,4.7l7.8-3.2c0,0-0.1-6-4.4-6.3L32,83.9z"/>
	</g>
</g>
</svg>
