<?xml version="1.0" encoding="utf-8"?>
<!-- Generator: Adobe Illustrator 19.0.0, SVG Export Plug-In . SVG Version: 6.00 Build 0)  -->
<svg version="1.1" id="Layer_1" xmlns="http://www.w3.org/2000/svg" xmlns:xlink="http://www.w3.org/1999/xlink" x="0px" y="0px"
	 viewBox="0 0 250 250" style="enable-background:new 0 0 250 250;" xml:space="preserve">
<style type="text/css">
	.st0{opacity:0.5;fill:#020202;enable-background:new    ;}
	.st1{fill:#09AB93;}
	.st2{fill:#007F6D;}
	.st3{fill:#D16030;}
	.st4{fill:#F58458;}
	.st5{fill:#FFFFFF;}
	.st6{opacity:0.32;fill:#353A44;enable-background:new    ;}
	.st7{fill:#5A6578;}
	.st8{fill:#DAE5E8;}
	.st9{fill:#C0C9CC;}
	.st10{fill:#353A44;}
	.st11{fill:#FFFFFF;stroke:#010101;stroke-miterlimit:10;}

	 .motions  
	 {
		 animation : motion 4s infinite;

	 }
	 .moto
      {
		  animation : motion 3s infinite;
	  }

	 @keyframes motion 
	 {
		0%
		{
			 transform :translate(0px 0px);
		}
		50%
		{
			transform:translate(0px ,20px);

		}
		100%
		{
			transform:translate(0px 0px);
		}
	 }
	  @keyframes motion1 
	 {
		0%
		{
			 transform :translate(0px 0px);
		}
		50%
		{
			transform:translate(0px ,10px);

		}
		100%
		{
			transform:translate(0px 0px);
		}
	 }
</style>
<g id="XMLID_439_" class="motions" >
	<polygon id="XMLID_219_" class="st0" points="69.5,24.3 132.8,1.1 140.5,17.8 77.2,41 	"/>
	<polygon id="XMLID_218_" class="st1" points="69.5,23.6 132.8,0.4 140.5,17 77.2,40.2 	"/>
	<polygon id="XMLID_217_" class="st2" points="73.3,31.9 136.6,8.7 140.4,17.1 77.2,40.3 	"/>
	<polygon id="XMLID_216_" class="st3" points="75.1,31.3 81.7,28.8 82.2,29.7 75.5,32.2 	"/>
	<polygon id="XMLID_215_" class="st4" points="74.7,30.4 81.3,27.9 81.7,28.8 75.1,31.3 	"/>
	<polygon id="XMLID_214_" class="st3" points="128.2,11.7 134.8,9.3 135.2,10.2 128.6,12.6 	"/>
	<polygon id="XMLID_213_" class="st4" points="127.8,10.9 134.5,8.4 134.9,9.3 128.2,11.8 	"/>
	<ellipse id="XMLID_212_" class="st2" cx="76.2" cy="25.7" rx="2.9" ry="2.6"/>
	<polygon id="XMLID_211_" class="st2" points="79.1,21.8 89.4,17.9 91.7,22.9 81.3,26.6 	"/>
	<polygon id="XMLID_210_" class="st5" points="69.5,23.6 132.8,0.3 133.1,1 69.8,24.2 	"/>
</g>
<g id="XMLID_421_" class="motions">
	<path id="XMLID_434_" class="st6" d="M223,40.5l-6.7-1.3c1.2-6.3-2.6-11.8-9.3-13c-7.4-1.4-14.1,1.7-17.7,7.9l-6.7-1.3l-17.9,34.3
		h0.1l0,0l48.3,9.1L223,40.5z M211.8,43.5c0-0.1-0.1-0.1-0.1-0.1s-0.1-0.1-0.1-0.1c0-0.1-0.1-0.1-0.1-0.1c0-0.1,0-0.1-0.1-0.2
		c0-0.1,0-0.1,0-0.2s0-0.1,0-0.2c0-0.1,0-0.1,0-0.2l0,0c0-0.1,0-0.2,0.1-0.3c0.2-0.6,1-1.1,1.9-1.2c-0.1,0.1-0.1,0.2-0.2,0.3
		c-0.2,0.4,0.2,0.9,0.8,1c0.6,0.1,1.2-0.1,1.4-0.6c0-0.1,0.1-0.2,0.1-0.3c0.6,0.4,0.8,1,0.6,1.6c-0.1,0.1-0.1,0.2-0.2,0.3
		c0,0.1-0.1,0.1-0.1,0.1c0,0.1-0.1,0.1-0.1,0.1c-0.1,0.1-0.1,0.1-0.2,0.1c-0.1,0.1-0.1,0.1-0.2,0.1s-0.1,0.1-0.2,0.1
		c-0.1,0.1-0.1,0.1-0.2,0.1c-0.1,0-0.1,0.1-0.2,0.1s-0.2,0.1-0.2,0.1c-0.1,0-0.1,0.1-0.2,0.1s-0.2,0.1-0.2,0.1c-0.1,0-0.1,0-0.2,0
		s-0.2,0-0.3,0c-0.1,0-0.1,0-0.2,0c-0.2,0-0.3,0-0.5-0.1c-0.2-0.1-0.3-0.1-0.4-0.1c-0.1,0-0.1-0.1-0.2-0.1c-0.1-0.1-0.2-0.1-0.2-0.1
		c-0.1,0-0.1-0.1-0.2-0.1c-0.1-0.1-0.2-0.1-0.2-0.1C212,43.6,212,43.6,211.8,43.5C211.9,43.6,211.8,43.5,211.8,43.5z M188,36.6
		L188,36.6L188,36.6c-0.1,0.5,0.2,0.9,0.8,1c0.6,0.1,1.2-0.1,1.4-0.6c0.1-0.1,0.1-0.2,0.2-0.3c0.6,0.4,0.9,1,0.7,1.7
		c-0.1,0.1-0.1,0.2-0.2,0.3l0,0c0,0.1-0.1,0.1-0.1,0.1c0,0.1-0.1,0.1-0.1,0.1c-0.1,0.1-0.1,0.1-0.2,0.1c-0.1,0.1-0.1,0.1-0.2,0.1
		s-0.1,0.1-0.2,0.1c-0.1,0.1-0.1,0.1-0.2,0.1c-0.1,0-0.1,0.1-0.2,0.1s-0.2,0.1-0.2,0.1c-0.1,0-0.1,0.1-0.2,0.1s-0.2,0.1-0.2,0.1
		c-0.1,0-0.1,0-0.2,0s-0.2,0-0.3,0c-0.1,0-0.1,0-0.2,0c-0.2,0-0.3,0-0.5-0.1c-0.2-0.1-0.3-0.1-0.4-0.1c-0.1,0-0.1-0.1-0.2-0.1
		c-0.1-0.1-0.2-0.1-0.2-0.1c-0.1,0-0.1-0.1-0.2-0.1c-0.1-0.1-0.2-0.1-0.2-0.1c-0.1-0.1-0.1-0.1-0.2-0.1c-0.1-0.1-0.1-0.1-0.2-0.1
		c0-0.1-0.1-0.1-0.1-0.1c0-0.1-0.1-0.1-0.1-0.2s-0.1-0.1-0.1-0.1c0-0.1,0-0.1-0.1-0.2c0-0.1,0-0.1,0-0.2s0-0.1,0-0.2s0-0.1,0-0.2
		l0,0c0-0.1,0-0.2,0.1-0.3c0.2-0.6,1-1,1.8-1.2C188.1,36.4,188,36.5,188,36.6z M206.3,27.7c5.5,1,8.6,5.8,7.7,11.1l-22.6-4.3
		C194.5,29.2,200.1,26.6,206.3,27.7z"/>
	<path id="XMLID_430_" class="st1" d="M223,39.9l-40.5-7.7l-17.9,34.3l48.4,9.1L223,39.9z M188,38.8c-1.3-0.2-2.1-1.1-1.7-2.1
		c0.3-0.9,1.7-1.4,3-1.2c1.3,0.2,2.1,1.1,1.7,2.1C190.7,38.5,189.3,39.1,188,38.8z M213.2,43.6c-1.3-0.2-2.1-1.1-1.7-2.1
		s1.7-1.4,3-1.2c1.3,0.2,2.1,1.1,1.7,2.1C215.9,43.3,214.6,43.8,213.2,43.6z"/>
	<g id="XMLID_426_">
		<polygon id="XMLID_202_" class="st5" points="182.3,32.9 222.8,40.5 212.9,75.7 213,75.7 223,39.9 182.5,32.3 164.7,66.5 
			164.7,66.5 		"/>
		<path id="XMLID_201_" class="st5" d="M213,44.2c1.3,0.2,2.6-0.3,3-1.2c0.1-0.1,0.1-0.2,0.1-0.3c-0.5,0.7-1.7,1.1-2.8,0.9
			c-1.2-0.2-1.9-1-1.7-1.7c-0.1,0.1-0.2,0.2-0.2,0.3C210.9,43.1,211.7,44,213,44.2z"/>
		<path id="XMLID_200_" class="st5" d="M187.8,39.4c1.3,0.2,2.6-0.3,3-1.2c0.1-0.1,0.1-0.2,0.1-0.3c-0.5,0.7-1.7,1.1-2.8,0.9
			c-1.2-0.2-1.9-1-1.7-1.7c-0.1,0.1-0.2,0.2-0.2,0.3C185.8,38.3,186.5,39.2,187.8,39.4z"/>
	</g>
	<g id="XMLID_424_">
		<path id="XMLID_199_" class="st7" d="M214.1,41.7c-0.6-0.1-1-0.6-0.8-1c2.5-6.3-0.7-12.4-6.9-13.6c-7.1-1.4-13.2,2.2-16.1,9.3
			c-0.2,0.4-0.8,0.7-1.4,0.6c-0.6-0.1-1-0.6-0.8-1c3.1-7.9,10.6-11.9,18.9-10.3c7.7,1.5,11.5,8.3,8.6,15.6
			C215.4,41.5,214.7,41.8,214.1,41.7z"/>
	</g>
	<path id="XMLID_198_" class="st5" d="M206.7,26.2c7.5,1.4,11.3,8,8.8,15c0-0.1,0-0.1,0.1-0.1c2.9-7.3-0.9-14.1-8.6-15.6
		c-8.4-1.6-15.8,2.5-18.9,10.3v0.1C191.2,28.5,198.5,24.7,206.7,26.2z"/>
	<ellipse id="XMLID_197_" class="st3" cx="195.9" cy="53.8" rx="12.7" ry="8.7"/>
</g>
<g id="XMLID_410_" class="motions">
	<path id="XMLID_417_" class="st6" d="M83,61c0-0.2-0.1-0.4-0.1-0.6c-0.1-0.5-0.3-1-0.6-1.5c-0.2-0.3-0.4-0.6-0.7-0.9
		c-0.1-0.1-0.3-0.3-0.4-0.4c-0.4-0.4-0.9-0.7-1.4-1c-0.4-0.2-0.8-0.3-1.1-0.4l-13.5-3.5c3.3,0,7.9-0.9,8.3-1.9
		c0.1-0.1,0.2-0.6-0.4-0.9c-0.1-0.1-0.3-0.1-0.4-0.2c-2.2-0.6-8.1,1.5-9.4,2c-1.1-0.9-6.8-5.1-9.3-5.7c-0.3-0.1-0.4-0.1-0.6-0.1
		c-0.6,0-0.8,0.3-0.8,0.5c-0.1,0.3-0.2,0.8,4.1,3.2c1.3,0.7,2.6,1.4,3.8,2l-12.9-3.3c-0.6-0.2-1.2-0.2-1.8-0.2c0,0,0,0-0.1,0
		c-0.5,0-1.1,0.1-1.6,0.2c-1.2,0.3-2.3,1-3,1.8c-0.1,0.1-0.3,0.3-0.4,0.5c-0.3,0.5-0.6,1-0.8,1.5L38.9,55c-0.2-0.1-0.4,0.1-0.5,0.2
		c-0.1,0.2,0.1,0.4,0.3,0.5l-0.9,2.8c-0.9,3,0.9,6,4.2,6.9l15.2,3.9l0,0c-0.1,0.2,0.1,0.4,0.3,0.5c0.2,0.1,0.4-0.1,0.5-0.2l0,0
		l15.2,3.9c3.3,0.9,6.6-0.9,7.5-3.8l0.9-2.8c0.2,0.1,0.4-0.1,0.5-0.2c0.1-0.2-0.1-0.4-0.3-0.5l0.9-2.8c0.1-0.3,0.2-0.7,0.2-1.1
		C83.1,61.8,83.1,61.4,83,61z M53.5,46.9L53.5,46.9c1.6,0.4,4.5,2.4,6.6,3.8C57.5,49.5,54.5,47.7,53.5,46.9z M64.8,52.1
		c2.4-0.8,6.1-1.9,7.6-1.5c0.1,0,0.2,0.1,0.3,0.1h0.1C72.1,51.3,67.9,52.2,64.8,52.1z"/>
	<path id="XMLID_193_" class="st8" d="M41.8,64.4l32.4,8.4c2.9,0.7,5.9-0.8,6.7-3.4l2.3-7.5c0.8-2.6-0.9-5.4-3.8-6.1l-32.4-8.4
		c-2.9-0.7-5.9,0.8-6.7,3.4l-2.3,7.5C37.2,60.9,38.9,63.6,41.8,64.4z"/>
	<path id="XMLID_192_" class="st9" d="M42.5,64.5l31.1,8c3.3,0.9,6.6-0.9,7.5-3.8L38.3,57.7C37.4,60.6,39.3,63.7,42.5,64.5z"/>
	<path id="XMLID_411_" class="st1" d="M38.9,54.4c-0.1,0.2,0.1,0.4,0.3,0.5l21.1,5.5l-2.5,8.2c-0.1,0.2,0.1,0.4,0.3,0.5
		c0.2,0.1,0.4-0.1,0.5-0.2l2.5-8.2L82,66c0.2,0.1,0.4-0.1,0.5-0.2c0.1-0.2-0.1-0.4-0.3-0.5l-21.1-5.5l2.4-7.9
		c3.1,0.4,9.5-0.6,10.1-1.8c0.1-0.1,0.2-0.6-0.4-0.9c-0.1-0.1-0.3-0.1-0.4-0.2c-2.2-0.6-8.1,1.5-9.4,2c-1.1-0.9-6.8-5.1-9.3-5.7
		c-0.3-0.1-0.4-0.1-0.6-0.1c-0.6,0-0.8,0.3-0.8,0.5c-0.1,0.3-0.2,0.8,4.1,3.2c2.2,1.2,4.5,2.4,6,2.9l-2.4,7.9l-21.1-5.5
		C39.1,54.1,38.9,54.2,38.9,54.4z M60.4,49.9c-2.7-1.3-5.7-3-6.6-3.8c0,0,0,0,0.1,0C55.4,46.5,58.3,48.4,60.4,49.9z M65,51.3
		c2.4-0.8,6.1-1.9,7.6-1.5c0.1,0,0.2,0.1,0.3,0.1h0.1C72.3,50.5,68.1,51.4,65,51.3z"/>
</g>
<g id="XMLID_403_" class="motions">
	<polygon id="XMLID_188_" class="st6" points="97.8,48.1 146.4,35.6 159.9,66.4 111.4,78.9 	"/>
	<polygon id="XMLID_187_" class="st4" points="97.4,47.1 146,34.6 159.5,65.4 110.9,78 	"/>
	<polygon id="XMLID_186_" class="st5" points="97.4,47.1 146,34.6 146.3,35.1 97.6,47.6 	"/>
	<polygon id="XMLID_185_" class="st3" points="99.7,52.5 148.3,40 149.3,42.3 100.7,54.8 	"/>
	<polygon id="XMLID_184_" class="st3" points="101.1,55.5 149.7,43 150.6,45.2 102.1,57.7 	"/>
	<ellipse id="XMLID_183_" class="st3" cx="117.9" cy="68.8" rx="5.8" ry="4.5"/>
</g>
<g id="XMLID_156_" class="motions">
	<polygon id="XMLID_165_" class="st0" points="83,83.6 120.1,88 116.4,115.6 79.3,111.1 	"/>
	<polygon id="XMLID_164_" class="st1" points="83,83 120.1,87.4 116.4,115 79.3,110.5 	"/>
	<polygon id="XMLID_163_" class="st3" points="85.7,86.2 93.1,87.1 92.3,92.7 84.9,91.8 	"/>
	<polygon id="XMLID_162_" class="st3" points="82.8,107.2 103.5,109.7 103.3,110.6 82.7,108.1 	"/>
	<polygon id="XMLID_161_" class="st3" points="83.1,105.5 103.7,108 103.6,108.9 82.9,106.4 	"/>
	<polygon id="XMLID_160_" class="st3" points="83.3,103.8 103.9,106.4 103.8,107.2 83.2,104.7 	"/>
	<polygon id="XMLID_159_" class="st8" points="118.2,101.7 109.5,100.6 110.1,96 118.8,97 	"/>
	<polygon id="XMLID_158_" class="st9" points="118.2,101.6 109.5,100.6 109.8,98.3 118.5,99.3 	"/>
	<polygon id="XMLID_157_" class="st5" points="83,83 120.1,87.5 120,88 82.9,83.5 	"/>
</g>
<g id="XMLID_166_" class="motions">
	<polygon id="XMLID_176_" class="st6" points="125.5,123.8 173.2,93 184.1,104.8 136.4,135.6 	"/>
	<polygon id="XMLID_175_" class="st8" points="125,123.3 172.7,92.5 183.6,104.3 135.9,135 	"/>
	<polygon id="XMLID_174_" class="st9" points="130.5,129.1 178.2,98.4 183.6,104.3 135.9,135 	"/>
	<polygon id="XMLID_173_" class="st2" points="131.8,128.3 136.8,125 137.4,125.6 132.4,128.9 	"/>
	<polygon id="XMLID_172_" class="st1" points="131.2,127.7 136.2,124.4 136.8,125.1 131.8,128.3 	"/>
	<polygon id="XMLID_171_" class="st2" points="171.9,102.4 176.9,99.2 177.5,99.8 172.5,103 	"/>
	<polygon id="XMLID_170_" class="st1" points="171.3,101.8 176.4,98.5 176.9,99.2 171.9,102.4 	"/>
	<ellipse id="XMLID_169_" class="st4" cx="131.2" cy="123.6" rx="2.6" ry="2.2"/>
	<polygon id="XMLID_168_" class="st4" points="132.6,120 140.5,114.9 143.6,118.4 135.8,123.4 	"/>
	<polygon id="XMLID_167_" class="st5" points="125,123.2 172.7,92.5 173.1,92.9 125.4,123.7 	"/>
</g>
<g id="XMLID_3_" class="motion">
	<g id="XMLID_119_">
		<path id="XMLID_126_" class="st10" d="M176.7,145.4l-110.8-9.2c-0.7-0.1-1.4,0-2.2,0.1l-12.9-9.3c-0.7-0.5-1.5-0.7-2.4-0.7h-8.7
			c-0.4-0.6-0.9-1.1-1.5-1.5c-3-2.1-7.5-1.8-10,0.8c-2.5,2.6-2.1,6.5,0.9,8.6c3,2.1,7.5,1.8,10-0.8c0.2-0.2,0.4-0.5,0.6-0.7h6
			c0.8,0,1.7,0.3,2.4,0.7l10.2,7.4c-0.3,1-0.4,2-0.2,3.1l9.5,47.4c0.7,3.1,3.6,5.4,7,5.4h8.8l-8.6,9.4c-1.7,1.8-1,5.3,3.3,5.3h87.2
			c1.5,0,2.7-1.1,2.7-2.4s-1.2-2.4-2.7-2.4h-81c-1.6,0-2.6-0.9-1.2-2.6l6.3-7.5h72.8c3.1,0,5.8-1.8,6.8-4.5l13.7-38.1
			C184.3,150,181.3,145.8,176.7,145.4z M69.9,155.7l-2.3-11.6l2.3,0.2V155.7z M80.8,188.8h-4.2l-1.2-6v-4.4h5.5V188.8z M80.8,173.7
			h-5.5v-11.1h5.5V173.7z M80.8,158h-5.5v-13.1l5.5,0.4V158z M91.7,188.8h-5.5v-10.4h5.5V188.8z M91.7,173.7h-5.5v-11.1h5.5V173.7z
			 M91.7,158h-5.5v-12.2l5.5,0.4V158z M102.7,188.8h-5.5v-10.4h5.5V188.8z M102.7,173.7h-5.5v-11.1h5.5V173.7z M102.7,158h-5.5
			v-11.4l5.5,0.4V158z M113.6,188.8h-5.5v-10.4h5.5V188.8z M113.6,173.7h-5.5v-11.1h5.5V173.7z M113.6,158h-5.5v-10.4l5.5,0.4V158z
			 M124.5,188.8H119v-10.4h5.5V188.8z M124.5,173.7H119v-11.1h5.5V173.7z M124.5,158H119v-9.5l5.5,0.4V158z M135.4,188.8H130v-10.4
			h5.5V188.8z M135.4,173.7H130v-11.1h5.5V173.7z M135.4,158H130v-8.6l5.5,0.4V158z M146.3,188.8h-5.5v-10.4h5.5V188.8z
			 M146.3,173.7h-5.5v-11.1h5.5V173.7z M146.3,158h-5.5v-7.7l5.5,0.4V158z M157.3,188.8h-5.5v-10.4h5.5V188.8z M157.3,173.7h-5.5
			v-11.1h5.5V173.7z M157.3,158h-5.5v-6.8l5.5,0.4V158z M162.6,183.6v-5.3h1.9L162.6,183.6z M166.3,173.7h-3.6v-11.1h7.5
			L166.3,173.7z M171.9,158h-9.3v-5.9l11,0.9L171.9,158z"/>
		<path id="XMLID_123_" class="st10" d="M89.7,212.8c-6,0-10.8,4.1-10.8,9.3c0,5.1,4.8,9.3,10.8,9.3c6,0,10.8-4.1,10.8-9.3
			C100.4,216.9,95.6,212.8,89.7,212.8z M89.7,225.5c-2.2,0-4.1-1.6-4.1-3.5c0-1.9,1.8-3.5,4.1-3.5c2.2,0,4.1,1.6,4.1,3.5
			C93.7,224.1,91.9,225.5,89.7,225.5z"/>
		<path id="XMLID_120_" class="st10" d="M149.9,212.8c-6,0-10.8,4.1-10.8,9.3c0,5.1,4.8,9.3,10.8,9.3s10.8-4.1,10.8-9.3
			C160.7,216.9,155.9,212.8,149.9,212.8z M149.9,225.5c-2.2,0-4.1-1.6-4.1-3.5c0-1.9,1.8-3.5,4.1-3.5s4.1,1.6,4.1,3.5
			C154,224.1,152.1,225.5,149.9,225.5z"/>
	</g>
	<g id="XMLID_4_" class="motion">
		<g id="XMLID_82_" >
			<path id="XMLID_89_" class="st7" d="M176.7,144.6l-110.8-9.2c-0.7-0.1-1.4,0-2.2,0.1l-12.9-9.3c-0.7-0.5-1.5-0.7-2.4-0.7h-8.7
				c-0.4-0.6-0.9-1.1-1.5-1.5c-3-2.1-7.5-1.8-10,0.8c-2.5,2.6-2.1,6.5,0.9,8.6c3,2.1,7.5,1.8,10-0.8c0.2-0.2,0.4-0.5,0.6-0.7h6
				c0.8,0,1.7,0.3,2.4,0.7l10.2,7.4c-0.3,1-0.4,2-0.2,3.1l9.5,47.4c0.7,3.1,3.6,5.4,7,5.4h8.8l-8.6,9.4c-1.7,1.8-1,5.3,3.3,5.3h87.2
				c1.5,0,2.7-1.1,2.7-2.4s-1.2-2.4-2.7-2.4h-81c-1.6,0-2.6-0.9-1.2-2.6l6.3-7.5h72.8c3.1,0,5.8-1.8,6.8-4.5l13.7-38.1
				C184.3,149.1,181.3,144.9,176.7,144.6z M69.9,154.9l-2.3-11.6l2.3,0.2V154.9z M80.8,187.9h-4.2l-1.2-6v-4.4h5.5V187.9z
				 M80.8,172.9h-5.5v-11.1h5.5V172.9z M80.8,157.1h-5.5V144l5.5,0.4V157.1z M91.7,187.9h-5.5v-10.4h5.5V187.9z M91.7,172.9h-5.5
				v-11.1h5.5V172.9z M91.7,157.1h-5.5v-12.2l5.5,0.4V157.1z M102.7,187.9h-5.5v-10.4h5.5V187.9z M102.7,172.9h-5.5v-11.1h5.5V172.9
				z M102.7,157.1h-5.5v-11.4l5.5,0.4V157.1z M113.6,187.9h-5.5v-10.4h5.5V187.9z M113.6,172.9h-5.5v-11.1h5.5V172.9z M113.6,157.1
				h-5.5v-10.4l5.5,0.4V157.1z M124.5,187.9H119v-10.4h5.5V187.9z M124.5,172.9H119v-11.1h5.5V172.9z M124.5,157.1H119v-9.5l5.5,0.4
				V157.1z M135.4,187.9H130v-10.4h5.5V187.9z M135.4,172.9H130v-11.1h5.5V172.9z M135.4,157.1H130v-8.6l5.5,0.4V157.1z
				 M146.3,187.9h-5.5v-10.4h5.5V187.9z M146.3,172.9h-5.5v-11.1h5.5V172.9z M146.3,157.1h-5.5v-7.7l5.5,0.4V157.1z M157.3,187.9
				h-5.5v-10.4h5.5V187.9z M157.3,172.9h-5.5v-11.1h5.5V172.9z M157.3,157.1h-5.5v-6.8l5.5,0.4V157.1z M162.6,182.8v-5.3h1.9
				L162.6,182.8z M166.3,172.9h-3.6v-11.1h7.5L166.3,172.9z M171.9,157.1h-9.3v-5.9l11,0.9L171.9,157.1z"/>
			<path id="XMLID_86_" class="st7" d="M89.7,212c-6,0-10.8,4.1-10.8,9.3s4.8,9.3,10.8,9.3c6,0,10.8-4.1,10.8-9.3S95.6,212,89.7,212
				z M89.7,224.8c-2.2,0-4.1-1.6-4.1-3.5c0-1.9,1.8-3.5,4.1-3.5c2.2,0,4.1,1.6,4.1,3.5S91.9,224.8,89.7,224.8z"/>
			<path id="XMLID_83_" class="st7" d="M149.9,212c-6,0-10.8,4.1-10.8,9.3s4.8,9.3,10.8,9.3s10.8-4.1,10.8-9.3S155.9,212,149.9,212z
				 M149.9,224.8c-2.2,0-4.1-1.6-4.1-3.5c0-1.9,1.8-3.5,4.1-3.5s4.1,1.6,4.1,3.5C154,223.2,152.1,224.8,149.9,224.8z"/>
		</g>
		<g id="XMLID_50_" class="motion">
			<rect id="XMLID_81_" x="108.1" y="172.9" class="st5" width="5.5" height="0.9"/>
			<rect id="XMLID_80_" x="97.2" y="187.9" class="st5" width="5.5" height="0.9"/>
			<rect id="XMLID_79_" x="108.1" y="157.1" class="st5" width="5.5" height="0.9"/>
			<rect id="XMLID_78_" x="108.1" y="187.9" class="st5" width="5.5" height="0.9"/>
			<rect id="XMLID_77_" x="119" y="157.1" class="st5" width="5.5" height="0.9"/>
			<rect id="XMLID_76_" x="119" y="187.9" class="st5" width="5.5" height="0.9"/>
			<rect id="XMLID_75_" x="119" y="172.9" class="st5" width="5.5" height="0.9"/>
			<path id="XMLID_74_" class="st5" d="M58.3,140.7c-0.1,0.5-0.2,1.1-0.1,1.6c0-0.5,0.2-1,0.3-1.5L58.3,140.7z"/>
			<rect id="XMLID_73_" x="130" y="157.1" class="st5" width="5.5" height="0.9"/>
			<path id="XMLID_72_" class="st5" d="M83.6,195.8l-8.6,9.4c-0.7,0.7-1,1.6-0.8,2.6c0.1-0.6,0.4-1.2,0.8-1.7l9.4-10.3L83.6,195.8
				L83.6,195.8z"/>
			<path id="XMLID_71_" class="st5" d="M28.4,125.6c2.5-2.6,7-2.9,10-0.8c0.6,0.4,1.2,1,1.5,1.5h8.7c0.8,0,1.7,0.3,2.4,0.7l12.9,9.3
				c0.7-0.1,1.4-0.2,2.2-0.1l110.8,9.2c3.6,0.3,6.3,3,6.5,6.1c0.2-3.4-2.5-6.6-6.5-6.9L66,135.3c-0.7-0.1-1.4,0-2.2,0.1L51,126.2
				c-0.7-0.5-1.5-0.7-2.4-0.7h-8.7c-0.4-0.6-0.9-1.1-1.5-1.5c-3-2.1-7.5-1.8-10,0.8c-1.2,1.3-1.7,2.9-1.7,4.4
				C26.9,127.9,27.4,126.6,28.4,125.6z"/>
			<rect id="XMLID_70_" x="75.4" y="157.1" class="st5" width="5.5" height="0.9"/>
			<rect id="XMLID_69_" x="97.2" y="172.9" class="st5" width="5.5" height="0.9"/>
			<rect id="XMLID_68_" x="97.2" y="157.1" class="st5" width="5.5" height="0.9"/>
			<rect id="XMLID_67_" x="75.4" y="172.9" class="st5" width="5.5" height="0.9"/>
			<polygon id="XMLID_66_" class="st5" points="76.5,188.8 80.8,188.8 80.8,187.9 76.5,187.9 75.4,182 75.4,182.8 			"/>
			<rect id="XMLID_65_" x="130" y="187.9" class="st5" width="5.5" height="0.9"/>
			<polygon id="XMLID_64_" class="st5" points="166.3,173.7 170.3,162.7 169.9,162.7 166.3,172.9 162.6,172.9 162.6,173.7 			"/>
			<polygon id="XMLID_63_" class="st5" points="164.6,178.4 164.3,178.4 162.6,182.8 162.6,183.6 			"/>
			<rect id="XMLID_62_" x="86.3" y="172.9" class="st5" width="5.5" height="0.9"/>
			<rect id="XMLID_61_" x="86.3" y="157.1" class="st5" width="5.5" height="0.9"/>
			<path id="XMLID_60_" class="st5" d="M165.5,205.8h-81c-0.8,0-1.6-0.3-1.8-0.8c-0.1,0.5,0.7,1.6,3.1,1.6h79.8
				c1.3,0,2.5,0.9,2.6,1.9c0-0.1,0.1-0.3,0.1-0.4C168.3,206.8,167,205.8,165.5,205.8z"/>
			<rect id="XMLID_59_" x="86.3" y="187.9" class="st5" width="5.5" height="0.9"/>
			<rect id="XMLID_58_" x="140.9" y="187.9" class="st5" width="5.5" height="0.9"/>
			<polygon id="XMLID_57_" class="st5" points="171.9,158 173.7,153 173.4,153 171.9,157.1 162.6,157.1 162.6,158 			"/>
			<rect id="XMLID_56_" x="140.9" y="157.1" class="st5" width="5.5" height="0.9"/>
			<rect id="XMLID_55_" x="130" y="172.9" class="st5" width="5.5" height="0.9"/>
			<rect id="XMLID_54_" x="140.9" y="172.9" class="st5" width="5.5" height="0.9"/>
			<rect id="XMLID_53_" x="151.8" y="187.9" class="st5" width="5.5" height="0.9"/>
			<rect id="XMLID_52_" x="151.8" y="172.9" class="st5" width="5.5" height="0.9"/>
			<rect id="XMLID_51_" x="151.8" y="157.1" class="st5" width="5.5" height="0.9"/>
		</g>
		<g id="XMLID_47_" class="motion">
			<path id="XMLID_49_" class="st5" d="M89.7,212.8c5.8,0,10.5,3.9,10.8,8.9c0-0.1,0-0.3,0-0.4c0-5.1-4.8-9.3-10.8-9.3
				c-6,0-10.8,4.1-10.8,9.3c0,0.1,0,0.3,0,0.4C79.2,216.8,83.9,212.8,89.7,212.8z"/>
			<path id="XMLID_48_" class="st5" d="M89.7,225.5c2.2,0,4.1-1.6,4.1-3.5c0-0.1,0-0.3,0-0.4c-0.2,1.7-1.9,3.1-4,3.1
				c-2.1,0-3.8-1.4-4-3.1c0,0.1,0,0.3,0,0.4C85.6,224.1,87.4,225.5,89.7,225.5z"/>
		</g>
		<g id="XMLID_44_">
			<path id="XMLID_46_" class="st5" d="M149.9,212.8c5.8,0,10.5,3.9,10.8,8.9c0-0.1,0-0.3,0-0.4c0-5.1-4.8-9.3-10.8-9.3
				s-10.8,4.1-10.8,9.3c0,0.1,0,0.3,0,0.4C139.4,216.8,144.1,212.8,149.9,212.8z"/>
			<path id="XMLID_45_" class="st5" d="M149.9,225.5c2.2,0,4.1-1.6,4.1-3.5c0-0.1,0-0.3,0-0.4c-0.2,1.7-1.9,3.1-4,3.1
				s-3.8-1.4-4-3.1c0,0.1,0,0.3,0,0.4C145.9,224.1,147.7,225.5,149.9,225.5z"/>
		</g>
		<g id="XMLID_11_">
			<rect id="XMLID_43_" x="130" y="161" class="st7" width="5.5" height="0.9"/>
			<polygon id="XMLID_42_" class="st7" points="130,176.7 135.4,176.7 135.4,177.6 127.8,182 			"/>
			<polygon id="XMLID_41_" class="st7" points="130,147.7 130,148.5 135.4,149 135.4,148.1 			"/>
			<polygon id="XMLID_40_" class="st7" points="119,146.8 119,147.6 124.5,148.1 124.5,147.2 			"/>
			<rect id="XMLID_39_" x="119" y="176.7" class="st7" width="5.5" height="0.9"/>
			<polygon id="XMLID_38_" class="st7" points="140.9,148.6 140.9,149.4 146.3,149.9 146.3,149.1 			"/>
			<rect id="XMLID_37_" x="119" y="161" class="st7" width="5.5" height="0.9"/>
			<polygon id="XMLID_36_" class="st7" points="151.8,149.5 151.8,150.4 157.3,150.8 157.3,149.9 			"/>
			<rect id="XMLID_35_" x="151.8" y="176.7" class="st7" width="5.5" height="0.9"/>
			<polygon id="XMLID_34_" class="st7" points="162.6,150.4 162.6,151.3 173.4,152.1 173.7,151.4 			"/>
			<polygon id="XMLID_33_" class="st7" points="162.6,161 162.6,161.9 169.9,161.9 170.3,161 			"/>
			<rect id="XMLID_32_" x="140.9" y="176.7" class="st7" width="5.5" height="0.9"/>
			<rect id="XMLID_31_" x="140.9" y="161" class="st7" width="5.5" height="0.9"/>
			<rect id="XMLID_30_" x="108.1" y="176.7" class="st7" width="5.5" height="0.9"/>
			<rect id="XMLID_29_" x="151.8" y="161" class="st7" width="5.5" height="0.9"/>
			<polygon id="XMLID_28_" class="st7" points="162.6,176.7 162.6,177.6 164.3,177.6 164.6,176.7 			"/>
			<path id="XMLID_27_" class="st7" d="M58.5,139.1l-10.2-7.4c-0.7-0.5-1.5-0.7-2.4-0.7h-6c-0.2,0.3-0.4,0.5-0.6,0.7
				c-2.5,2.6-7,2.9-10,0.8c-1.6-1.1-2.4-2.6-2.6-4.3c-0.2,1.9,0.7,3.9,2.6,5.1c3,2.1,7.5,1.8,10-0.8c0.2-0.2,0.4-0.5,0.6-0.7h6
				c0.8,0,1.7,0.3,2.4,0.7l10,7.2C58.3,139.6,58.4,139.3,58.5,139.1z"/>
			<polygon id="XMLID_26_" class="st7" points="67.6,142.5 67.8,143.4 69.9,143.5 69.9,142.6 			"/>
			<polygon id="XMLID_25_" class="st7" points="75.4,143.1 75.4,144 80.8,144.4 80.8,143.6 			"/>
			<rect id="XMLID_24_" x="75.4" y="176.7" class="st7" width="5.5" height="0.9"/>
			<rect id="XMLID_23_" x="75.4" y="161" class="st7" width="5.5" height="0.9"/>
			<path id="XMLID_22_" class="st7" d="M182.8,152.3l-13.7,38.1c-1,2.7-3.7,4.5-6.8,4.5H89.5l-5.6,6.7c-0.9,1-1.2,2.1-1.2,2.5
				c0.1-0.3,0.2-0.6,0.6-0.9l6.3-7.5h72.8c3.1,0,5.8-1.8,6.8-4.5l13.7-38.1c0.3-0.8,0.4-1.6,0.3-2.4
				C183.2,151.2,183.1,151.7,182.8,152.3z"/>
			<path id="XMLID_21_" class="st7" d="M165.5,209.7H78.3c-2.6,0-3.9-0.7-4.1-1.9c0.1,0.9,1,2.8,4.1,2.8h87.2c1.5,0,2.7-1.1,2.7-2.4
				c0-0.1,0-0.3-0.1-0.4C167.9,208.8,166.9,209.7,165.5,209.7z"/>
			<path id="XMLID_20_" class="st7" d="M82.8,195.8l0.7-0.9h-8.8c-3.5,0-6.4-2.2-7-5.4l-9.5-47.4c-0.1-0.3-0.1-0.5-0.1-0.8
				c0,0.5,0,1.1,0.1,1.6l9.5,47.4c0.7,3.1,3.6,5.4,7,5.4H82.8L82.8,195.8z"/>
			<polygon id="XMLID_19_" class="st7" points="108.1,145.9 108.1,146.7 113.6,147.1 113.6,146.3 			"/>
			<rect id="XMLID_18_" x="97.2" y="161" class="st7" width="5.5" height="0.9"/>
			<rect id="XMLID_17_" x="97.2" y="176.7" class="st7" width="5.5" height="0.9"/>
			<rect id="XMLID_16_" x="108.1" y="161" class="st7" width="5.5" height="0.9"/>
			<polygon id="XMLID_15_" class="st7" points="86.3,144.1 86.3,144.9 91.7,145.4 91.7,144.5 			"/>
			<rect id="XMLID_14_" x="86.3" y="161" class="st7" width="5.5" height="0.9"/>
			<polygon id="XMLID_13_" class="st7" points="97.2,144.9 97.2,145.8 102.7,146.3 102.7,145.4 			"/>
			<rect id="XMLID_12_" x="86.3" y="176.7" class="st7" width="5.5" height="0.9"/>
		</g>
		<g id="XMLID_8_" >
			<path id="XMLID_10_" class="st7" d="M89.7,216.9c-2.2,0-4.1,1.6-4.1,3.5c0,0.1,0,0.3,0,0.4c0.2-1.7,1.9-3.1,4-3.1
				c2.1,0,3.8,1.4,4,3.1c0-0.1,0-0.3,0-0.4C93.7,218.5,91.9,216.9,89.7,216.9z"/>
			<path id="XMLID_9_" class="st7" d="M89.7,229.7c-5.8,0-10.5-3.9-10.8-8.9c0,0.1,0,0.3,0,0.4c0,5.1,4.8,9.3,10.8,9.3
				c6,0,10.8-4.1,10.8-9.3c0-0.1,0-0.3,0-0.4C100.2,225.8,95.5,229.7,89.7,229.7z"/>
		</g>
		<g id="XMLID_5_" >
			<path id="XMLID_7_" class="st7" d="M149.9,216.9c-2.2,0-4.1,1.6-4.1,3.5c0,0.1,0,0.3,0,0.4c0.2-1.7,1.9-3.1,4-3.1s3.8,1.4,4,3.1
				c0-0.1,0-0.3,0-0.4C154,218.5,152.1,216.9,149.9,216.9z"/>
			<path id="XMLID_6_" class="st7" d="M149.9,229.7c-5.8,0-10.5-3.9-10.8-8.9c0,0.1,0,0.3,0,0.4c0,5.1,4.8,9.3,10.8,9.3
				s10.8-4.1,10.8-9.3c0-0.1,0-0.3,0-0.4C160.4,225.8,155.7,229.7,149.9,229.7z"/>
		</g>
	</g>
</g>
<path id="XMLID_91_" class="st5" d="M171.7,88.2c2.2,0,4,1.4,4.2,3.3c0-0.1,0-0.3,0-0.4c0-2-1.9-3.7-4.3-3.7c-2.4,0-4.3,1.6-4.3,3.7
	c0,0.1,0,0.3,0,0.4C167.8,89.6,169.5,88.2,171.7,88.2z"/>
<ellipse id="XMLID_90_" class="st8" cx="208" cy="53.6" rx="4.3" ry="3.7"/>
<path id="XMLID_85_" class="st5" d="M60.5,110c2.2,0,4,1.4,4.2,3.3c0-0.1,0-0.3,0-0.4c0-2.1-1.9-3.7-4.3-3.7c-2.4,0-4.3,1.6-4.3,3.7
	c0,0.1,0,0.3,0,0.4C56.5,111.4,58.3,110,60.5,110z"/>
<path id="XMLID_2_" class="st5" d="M178.1,55.5c2.2,0,4,1.4,4.2,3.3c0-0.1,0-0.3,0-0.4c0-2-1.9-3.7-4.3-3.7c-2.4,0-4.3,1.6-4.3,3.7
	c0,0.1,0,0.3,0,0.4C174.1,57,176,55.5,178.1,55.5z"/>
<path id="XMLID_1_" class="st11" d="M141,160.2"/>
</svg>
