<?xml version="1.0" encoding="utf-8"?>
<!-- Generator: Adobe Illustrator 19.0.0, SVG Export Plug-In . SVG Version: 6.00 Build 0)  -->
<svg version="1.1" id="Layer_1" xmlns="http://www.w3.org/2000/svg" xmlns:xlink="http://www.w3.org/1999/xlink" x="0px" y="0px"
	 viewBox="0 0 1920 792" style="enable-background:new 0 0 1920 792;" xml:space="preserve">
<style type="text/css">
	.st0{fill:#F2F3F4;stroke:#ECF0F1;stroke-miterlimit:10;}
	.st1{fill:#D51D4E;stroke:#CC466C;stroke-miterlimit:10;}
	.st2{fill:#FFFFFF;stroke:#FFFFFF;stroke-miterlimit:10;}
	.st3{fill:#FFFFFF;stroke:#4F1F2D;stroke-miterlimit:10;}
	.st4{fill:#C43F65;stroke:#CC466C;stroke-miterlimit:10;}
</style>
<path id="XMLID_1_" class="st0" d="M2.9,56.3c205.2,36,371.4,40.9,484.2,39c99.8-1.7,128-8.3,491.8-39
	c214.4-18.1,321.6-27.7,384.7-29.3c234.8-5.6,427.8,12.5,556.9,29.3c0,227,0,454.1,0,681.1c-415.1-43.7-729.4-27.5-944-3.3
	c-108.4,12.2-278.1,36.3-518.8,35.3c-193.8-0.8-352.8-17.6-458.4-32C0.6,510.4,1.8,283.3,2.9,56.3z"/>
<path id="XMLID_4_" class="st1" d="M637.8,655.3"/>
<path id="XMLID_2_" class="st2" d="M596.6,712.9"/>
<path id="XMLID_3_" class="st3" d="M78.9,532.9"/>
<path id="XMLID_5_" class="st4" d="M1024.8,97.6"/>
<path id="XMLID_6_" class="st4" d="M920.1,415.3"/>
</svg>
