<?xml version="1.0" encoding="utf-8"?>
<!-- Generator: Adobe Illustrator 19.0.0, SVG Export Plug-In . SVG Version: 6.00 Build 0)  -->
<svg version="1.1" id="Layer_1" xmlns="http://www.w3.org/2000/svg" xmlns:xlink="http://www.w3.org/1999/xlink" x="0px" y="0px"
	 viewBox="370 -245 750 500" style="enable-background:new 370 -245 750 500;" xml:space="preserve">
<style type="text/css">
	.st0{fill:#FFFFFF;}
	.st1{fill:#EB984E;}
	.st2{fill:url(#SVGID_1_);}
	.st3{fill:none;stroke:#1DCEB4;stroke-width:1.0929;stroke-linecap:round;stroke-miterlimit:10;}
	.st4{fill:url(#SVGID_2_);}
	.st5{fill:url(#SVGID_3_);}
	.st6{fill:url(#SVGID_4_);}
	.st7{fill:url(#SVGID_5_);}
	.st8{fill:url(#SVGID_6_);}
	.st9{fill:url(#SVGID_7_);}
	.st10{fill:url(#SVGID_8_);}
	.st11{fill:#F5CBA7;}
	.st12{fill:#62A5E7;}
	.st13{fill:#C1C7D3;}
	.st14{fill:#A9B2BF;}
	.st15{fill:#91B6E0;}
	.st16{font-family:'MyriadPro-Regular';}
	.st17{font-size:41.8911px;}
	.st18{fill:none;stroke:#01004C;stroke-width:2.2654;stroke-linecap:round;stroke-linejoin:round;stroke-miterlimit:10;}
	.st19{fill:none;stroke:#01004C;stroke-width:1.1327;stroke-linecap:round;stroke-linejoin:round;stroke-miterlimit:10;}
	.st20{fill:#01004C;}
	.st21{fill:#F98091;}
	.st22{fill:#F995A6;}
	.st23{fill:none;stroke:#F98091;stroke-width:0.8495;stroke-miterlimit:10;}
	.st24{fill:#E4E9FF;}
	.st25{fill:#FCD98E;}
	.st26{fill:#E2697D;}
	.st27{fill:#33337C;}
	.st28{fill:#282766;}
	.st29{fill:#FFADB7;}
	.st30{fill:none;stroke:#EF8998;stroke-width:0.5663;stroke-linecap:round;stroke-miterlimit:10;}
	.st31{opacity:0.75;fill:url(#SVGID_9_);enable-background:new    ;}
	.st32{opacity:0.5;fill:url(#SVGID_10_);enable-background:new    ;}
</style>
<g id="BACKGROUND_1_">
	<rect x="370" y="-245" class="st0" width="750" height="500"/>
</g>
<g id="OBJECTS">
	<path class="st1" d="M470,253.3C500.6,119,406.9,57.5,425-26.5c18.2-83.9,70.3-138.5,161.4-114.4S715.1-44.3,830-73
		s173.5-6.9,178.2,59.2s-19.3,208.3-60,267.1H470z"/>
	<g>
		<g>
			<g>
				
					<linearGradient id="SVGID_1_" gradientUnits="userSpaceOnUse" x1="474.1814" y1="-123.2352" x2="429.6487" y2="-46.1022" gradientTransform="matrix(1 0 0 -1 0 10)">
					<stop  offset="0" style="stop-color:#148275"/>
					<stop  offset="9.360000e-002" style="stop-color:#148A7C"/>
					<stop  offset="0.4505" style="stop-color:#14A692"/>
					<stop  offset="0.7646" style="stop-color:#14B79F"/>
					<stop  offset="1" style="stop-color:#14BDA4"/>
				</linearGradient>
				<path class="st2" d="M459.1,142c-2.3-17.5,4.7-28.2-16.4-37.4c-21.1-9.2-32.2-19.8-26.4-36.2c5.9-16.4,36.6-17.2,47.2-3.4
					c10.6,13.8,17.9,29.9,16.7,53.2L459.1,142z"/>
				<path class="st3" d="M432,75.5c0,0,36.3-0.4,37.7,49.8"/>
			</g>
			<g>
				
					<linearGradient id="SVGID_2_" gradientUnits="userSpaceOnUse" x1="471.4951" y1="-103.4119" x2="456.4863" y2="-18.2925" gradientTransform="matrix(1 0 0 -1 0 10)">
					<stop  offset="0" style="stop-color:#148275"/>
					<stop  offset="9.360000e-002" style="stop-color:#148A7C"/>
					<stop  offset="0.4505" style="stop-color:#14A692"/>
					<stop  offset="0.7646" style="stop-color:#14B79F"/>
					<stop  offset="1" style="stop-color:#14BDA4"/>
				</linearGradient>
				<path class="st4" d="M477.5,112.3c0,0-1.7-37.9-20.8-47.4c-19.1-9.6-26.4-14.4-23.1-26.4c3.2-12.1,29.6-11.2,40.7,2.3
					c11.1,13.5,18.7,29,18.7,53.7L477.5,112.3z"/>
				<path class="st3" d="M442.8,40.2c0,0,36.1,0.5,42.6,58.4"/>
			</g>
			<g>
				
					<linearGradient id="SVGID_3_" gradientUnits="userSpaceOnUse" x1="494.4407" y1="-83.6662" x2="494.4407" y2="26.3477" gradientTransform="matrix(1 0 0 -1 0 10)">
					<stop  offset="0" style="stop-color:#148275"/>
					<stop  offset="9.360000e-002" style="stop-color:#148A7C"/>
					<stop  offset="0.4505" style="stop-color:#14A692"/>
					<stop  offset="0.7646" style="stop-color:#14B79F"/>
					<stop  offset="1" style="stop-color:#14BDA4"/>
				</linearGradient>
				<path class="st5" d="M489.8,93.7c0,0-4.1-22.1-13.2-46c-9.1-23.9-8.2-60.6,8.8-63.8c17-3.2,11.7,27.6,20.8,44.3
					c9.1,16.7,15.8,30.5,8.8,51.4L489.8,93.7z"/>
				<path class="st3" d="M485.4-8.8c-6.8,36.4,14.8,39.7,17,91.8"/>
			</g>
			<g>
				
					<linearGradient id="SVGID_4_" gradientUnits="userSpaceOnUse" x1="523.8636" y1="-68.7962" x2="537.0664" y2="6.0804" gradientTransform="matrix(1 0 0 -1 0 10)">
					<stop  offset="0" style="stop-color:#148275"/>
					<stop  offset="9.360000e-002" style="stop-color:#148A7C"/>
					<stop  offset="0.4505" style="stop-color:#14A692"/>
					<stop  offset="0.7646" style="stop-color:#14B79F"/>
					<stop  offset="1" style="stop-color:#14BDA4"/>
				</linearGradient>
				<path class="st6" d="M514.5,77.1c0,0-7.8-25-0.7-47.8c7-22.8,30.8-30,38.7-19.7c7.9,10.2-13.5,27.5-6.3,52.7L514.5,77.1z"/>
				<path class="st3" d="M543.2,13.2c0,0-25.2,20.3-14.7,53.3"/>
			</g>
		</g>
		<g>
			<g>
				
					<linearGradient id="SVGID_5_" gradientUnits="userSpaceOnUse" x1="813.8658" y1="-133.1003" x2="805.1266" y2="-83.5378" gradientTransform="matrix(1 0 0 -1 0 10)">
					<stop  offset="0" style="stop-color:#148275"/>
					<stop  offset="9.360000e-002" style="stop-color:#148A7C"/>
					<stop  offset="0.4505" style="stop-color:#14A692"/>
					<stop  offset="0.7646" style="stop-color:#14B79F"/>
					<stop  offset="1" style="stop-color:#14BDA4"/>
				</linearGradient>
				<path class="st7" d="M811,136.4c-4.9-7.9-26.4-19-23.8-32c2.5-13,26.6-14.6,36.3,2.7s10,32.6,10,32.6L811,136.4z"/>
				<path class="st3" d="M799.6,103.6c0,0,20.3,4.7,20.4,30.8"/>
			</g>
			<g>
				
					<linearGradient id="SVGID_6_" gradientUnits="userSpaceOnUse" x1="846.3135" y1="-129.6483" x2="846.3135" y2="-57.6289" gradientTransform="matrix(1 0 0 -1 0 10)">
					<stop  offset="0" style="stop-color:#148275"/>
					<stop  offset="9.360000e-002" style="stop-color:#148A7C"/>
					<stop  offset="0.4505" style="stop-color:#14A692"/>
					<stop  offset="0.7646" style="stop-color:#14B79F"/>
					<stop  offset="1" style="stop-color:#14BDA4"/>
				</linearGradient>
				<path class="st8" d="M831.3,135.6c-6.1-12.1-13.1-38.9-5.7-55.4s29.9-17.6,28.5,1.3c-1.4,19-5.7,39.9,16,58.1L831.3,135.6z"/>
				<path class="st3" d="M840.3,75.2c0,0-14.4,12.8,2.9,57.2"/>
			</g>
			<g>
				
					<linearGradient id="SVGID_7_" gradientUnits="userSpaceOnUse" x1="877.1968" y1="-135.4008" x2="877.1968" y2="-37.4115" gradientTransform="matrix(1 0 0 -1 0 10)">
					<stop  offset="0" style="stop-color:#148275"/>
					<stop  offset="9.360000e-002" style="stop-color:#148A7C"/>
					<stop  offset="0.4505" style="stop-color:#14A692"/>
					<stop  offset="0.7646" style="stop-color:#14B79F"/>
					<stop  offset="1" style="stop-color:#14BDA4"/>
				</linearGradient>
				<path class="st9" d="M863,143.7c-10-12.7-19.8-24.9-16.6-43.9c3.2-19,12.3-25.3,27.8-36.2c15.4-10.9,30.1-21.8,34.2-12.8
					s-25,29.1-27.6,46.4s14.5,48.3,14.5,48.3L863,143.7z"/>
				<path class="st3" d="M898.9,57.2c0,0-59.8,27-30.6,82.5"/>
			</g>
			<g>
				
					<linearGradient id="SVGID_8_" gradientUnits="userSpaceOnUse" x1="900.5467" y1="-139.6616" x2="913.7863" y2="-64.5758" gradientTransform="matrix(1 0 0 -1 0 10)">
					<stop  offset="0" style="stop-color:#148275"/>
					<stop  offset="9.360000e-002" style="stop-color:#148A7C"/>
					<stop  offset="0.4505" style="stop-color:#14A692"/>
					<stop  offset="0.7646" style="stop-color:#14B79F"/>
					<stop  offset="1" style="stop-color:#14BDA4"/>
				</linearGradient>
				<path class="st10" d="M883.5,142.5c-2.7-15.7-10.4-43.3,9.6-59.8c20.1-16.5,49-2.9,45.3,10.7c-3.7,13.6-25.6,9.9-31.1,26.8
					c-5.4,16.9,1.9,30.9,1.9,30.9L883.5,142.5z"/>
				<path class="st3" d="M929.1,89.9c0,0-50.6-6.6-36,46.9"/>
			</g>
		</g>
		<path class="st11" d="M444.1,255h494c0,0,55.7-109.8-85-122.6C712.5,119.5,738.9,54,612.9,47.7C486.9,41.4,426.6,142.7,444.1,255z
			"/>
	</g>
	<path class="st12" d="M912.6,254.9c-16.3-27.8-20.5-66.9,30.1-85.7c50.6-18.8,46-77.7,127.5-69.9s41.3,132.3,29.2,155.6
		L912.6,254.9L912.6,254.9z"/>
	<g>
		<g>
			<path class="st0" d="M820,1.3h-91.9c-1.5,0-2.6-1.2-2.6-2.6l0,0c0-1.4,1.2-2.6,2.6-2.6H820V1.3z"/>
			<path class="st13" d="M845.4-71.3v67.4H863L876.5-69c0.2-1.2-0.7-2.3-1.9-2.3H845.4z"/>
			<path class="st14" d="M860.3,1.3H820v-5.2h43v2.6C863,0.1,861.8,1.3,860.3,1.3z"/>
			<path class="st0" d="M775.6-71.3h97.3L858.8-3.9H759l13.5-65C772.8-70.3,774.1-71.3,775.6-71.3z"/>
			<path class="st15" d="M763.1-9l12.1-57.9c0.2-0.9,1-1.5,1.9-1.5h89.8c1.2,0,2.1,1.1,1.9,2.3L856.7-8.3c-0.2,0.9-1,1.5-1.9,1.5
				H765C763.7-6.8,762.8-7.9,763.1-9z"/>
			<text transform="matrix(0.37 0 0 1 775.8299 -23.8256)" class="st0 st16 st17">ShoppingElf</text>
		</g>
		<g>
			<g>
				<line class="st18" x1="729.3" y1="9.7" x2="716.9" y2="255"/>
				<line class="st18" x1="880.6" y1="9.7" x2="893.1" y2="255"/>
				<line class="st18" x1="725.2" y1="91.4" x2="884.9" y2="91.4"/>
			</g>
			<line class="st19" x1="778.6" y1="9.7" x2="775.8" y2="255"/>
			<rect x="728.9" y="13.4" class="st20" width="152.1" height="6.7"/>
			<path class="st12" d="M892,14.8H718c-3.8,0-6.9-3-6.9-6.8l0,0c0-3.7,3.1-6.8,6.9-6.8H892c3.8,0,6.9,3,6.9,6.8l0,0
				C898.9,11.8,895.8,14.8,892,14.8z"/>
		</g>
	</g>
	<g>
		<g>
			<path class="st21" d="M432.9-116.5h-58.4c-2.5,0-4.5-2-4.5-4.4v-36.4h62.9V-116.5z"/>
			<path class="st22" d="M373.8-161c-2.1,0-3.8,1.7-3.8,3.7s1.7,3.7,3.8,3.7h59v-7.5H373.8z"/>
			<line class="st23" x1="374.6" y1="-157.3" x2="432.9" y2="-157.3"/>
			<g>
				<path class="st24" d="M401.3-121.8v-2.1c-3.6-0.1-5.4-2.3-5.6-6.4l3.4-0.7c0.1,2.8,0.9,4.2,2.4,4.2c0.6,0,1-0.2,1.3-0.5
					c0.3-0.4,0.4-0.8,0.4-1.4c0-0.5-0.1-0.9-0.2-1.2c-0.1-0.4-0.3-0.7-0.5-1c-0.2-0.3-0.5-0.6-0.7-0.8c-0.2-0.2-0.5-0.5-1-0.9
					l-2.8-2.4c-0.8-0.7-1.5-1.5-1.9-2.2s-0.6-1.7-0.6-2.9c0-1.6,0.5-2.8,1.4-3.7s2.2-1.4,3.8-1.5v-2h1.1v2c0.8,0.1,1.6,0.3,2.2,0.6
					s1.1,0.8,1.4,1.3c0.3,0.5,0.6,1.1,0.8,1.7c0.2,0.6,0.3,1.3,0.3,2.1l-3.4,0.7c0-0.4-0.1-0.8-0.1-1.1c0-0.3-0.1-0.6-0.2-1
					c-0.1-0.3-0.2-0.6-0.4-0.8c-0.2-0.2-0.3-0.4-0.6-0.5s-0.5-0.2-0.9-0.1c-0.6,0-1,0.2-1.3,0.6c-0.3,0.3-0.5,0.8-0.5,1.4
					c0,0.7,0.1,1.2,0.4,1.7c0.3,0.4,0.7,0.9,1.3,1.4l2.8,2.4c0.5,0.4,0.9,0.8,1.2,1.2c0.4,0.4,0.7,0.8,1,1.3
					c0.3,0.5,0.6,1.1,0.7,1.7c0.2,0.6,0.2,1.2,0.2,1.9c0,1.4-0.4,2.6-1.3,3.5c-0.8,0.9-2,1.5-3.4,1.6v2.1L401.3-121.8L401.3-121.8z"
					/>
			</g>
		</g>
		<g>
			<rect x="544.5" y="-245" class="st19" width="75.2" height="48.7"/>
			<g>
				<polygon class="st15" points="602.7,-232 602.7,-234.3 598.4,-234.3 596.9,-234.3 596.1,-234.3 596.1,-213 563.6,-213 
					563.6,-210.7 569,-210.7 597.3,-210.7 602.7,-210.7 602.7,-213 598.4,-213 598.4,-232 				"/>
				<ellipse class="st15" cx="569" cy="-207.8" rx="2.9" ry="2.9"/>
				<ellipse class="st15" cx="597.3" cy="-207.8" rx="2.9" ry="2.9"/>
			</g>
			<polygon class="st15" points="593.3,-234.3 560.2,-234.3 563.6,-215.4 593.3,-215.4 			"/>
		</g>
		<g>
			<rect x="882.9" y="-229.5" class="st19" width="66.9" height="43.3"/>
			<path class="st21" d="M930.2-217c-4.2-7.8-13.8,1.7-13.8,1.7s-9.6-9.6-13.8-1.7c-6.1,11.3,13.8,21,13.8,21S936.3-205.8,930.2-217
				z"/>
		</g>
		<g>
			<path class="st12" d="M1044.5-100.2h-54.2c-3.1,0-5.6-2.5-5.6-5.6V-133c0-3.1,2.5-5.6,5.6-5.6h54.2c3.1,0,5.6,2.5,5.6,5.6v27.3
				C1050.1-102.7,1047.6-100.2,1044.5-100.2z"/>
			<rect x="984.7" y="-129.6" class="st25" width="65.4" height="4.4"/>
			<rect x="992" y="-113.6" class="st24" width="9" height="4.3"/>
			<rect x="1004.7" y="-113.6" class="st24" width="9" height="4.3"/>
			<rect x="1017.5" y="-113.6" class="st24" width="18.2" height="4.3"/>
			<line class="st19" x1="992" y1="-119.4" x2="1022.4" y2="-119.4"/>
		</g>
		<g>
			<polygon class="st26" points="823.3,-124.7 769.9,-124.7 775.9,-192.2 815.9,-192.2 			"/>
			<path class="st19" d="M777.8-191h25.6v-9.2c0-6.9-5.7-12.5-12.8-12.5l0,0c-7.1,0-12.8,5.6-12.8,12.5L777.8-191L777.8-191z"/>
			<polygon class="st21" points="813.1,-124.7 759.7,-124.7 765.7,-192.2 805.7,-192.2 			"/>
		</g>
		<g>
			<ellipse class="st19" cx="938.7" cy="-25.6" rx="22.3" ry="21.8"/>
			<g>
				<path class="st21" d="M931.5-24.2c-1.6,0-2.8-0.5-3.6-1.4c-0.7-0.9-1.1-2.2-1.1-4v-1.1c0-1.8,0.4-3.1,1.1-4
					c0.7-0.9,1.9-1.3,3.6-1.3s2.9,0.4,3.6,1.2c0.7,0.8,1.1,2.1,1.1,3.9v1.3c0,1.8-0.4,3.1-1.1,4C934.4-24.6,933.2-24.2,931.5-24.2z
					 M931.5-26.6c0.3,0,0.5-0.1,0.7-0.2c0.2-0.1,0.3-0.2,0.5-0.4c0.1-0.2,0.2-0.4,0.3-0.6c0.1-0.3,0.1-0.5,0.1-0.8
					c0-0.3,0-0.6,0-0.9v-1.1c0-0.4,0-0.7,0-0.9c0-0.2-0.1-0.5-0.1-0.7c-0.1-0.3-0.1-0.4-0.3-0.6c-0.1-0.1-0.3-0.3-0.5-0.3
					c-0.2-0.1-0.4-0.1-0.7-0.1s-0.5,0.1-0.7,0.1c-0.2,0.1-0.3,0.2-0.5,0.3c-0.1,0.1-0.2,0.3-0.2,0.6c-0.1,0.3-0.1,0.5-0.1,0.7
					c0,0.2,0,0.6,0,0.9v1.2c0,0.5,0,0.8,0.1,1.1c0,0.3,0.1,0.6,0.2,0.9c0.1,0.3,0.3,0.5,0.5,0.6C930.9-26.7,931.2-26.6,931.5-26.6z
					 M934.4-14.6l6.1-21.2h2.6l-6.1,21.2L934.4-14.6L934.4-14.6z M945.8-14.6c-1.6,0-2.8-0.5-3.6-1.4c-0.7-0.9-1.1-2.2-1.1-4v-1.1
					c0-1.8,0.4-3.1,1.1-4c0.7-0.9,1.9-1.3,3.6-1.3c1.7,0,2.9,0.4,3.6,1.2c0.7,0.8,1.1,2.1,1.1,3.9v1.3c0,1.8-0.4,3.1-1.1,4
					C948.7-15,947.5-14.6,945.8-14.6z M945.8-17.1c0.3,0,0.5-0.1,0.7-0.2s0.3-0.2,0.5-0.4s0.2-0.4,0.3-0.6c0.1-0.3,0.1-0.5,0.1-0.8
					s0-0.6,0-0.9v-1.1c0-0.4,0-0.7,0-0.9c0-0.2-0.1-0.5-0.1-0.7c-0.1-0.3-0.1-0.4-0.2-0.6c-0.1-0.1-0.3-0.3-0.5-0.3
					c-0.2-0.1-0.4-0.1-0.7-0.1c-0.3,0-0.5,0.1-0.7,0.1c-0.2,0.1-0.3,0.2-0.5,0.3c-0.1,0.1-0.2,0.3-0.3,0.6c-0.1,0.3-0.1,0.5-0.1,0.7
					c0,0.2,0,0.6,0,0.9v1.1c0,0.5,0,0.8,0.1,1.2c0,0.3,0.1,0.6,0.2,0.9c0.1,0.3,0.3,0.5,0.5,0.6C945.2-17.1,945.5-17.1,945.8-17.1z"
					/>
			</g>
		</g>
	</g>
	<g>
		<g>
			<path class="st27" d="M643,40.8c19.1,56.7,18.3,139.7,12.5,174.2l14,3.9c0,0,34.9-93.4,21.6-163.9L643,40.8z"/>
			<polygon class="st24" points="669.4,218.9 687.5,241.7 649.7,229 655.5,215 			"/>
		</g>
		<g>
			<g>
				<polygon class="st20" points="601.6,49.5 673.6,49.5 673.9,57.2 601.1,57.2 				"/>
				<line class="st18" x1="601.6" y1="47.7" x2="591.4" y2="255"/>
				<line class="st18" x1="673.5" y1="47.7" x2="683.6" y2="255"/>
				<line class="st18" x1="679.5" y1="169.8" x2="595.6" y2="169.8"/>
			</g>
			<path class="st12" d="M681.9,52h-88.8c-3.2,0-5.7-2.5-5.7-5.7v-2.1c0-3.1,2.6-5.7,5.7-5.7h88.8c3.2,0,5.7,2.5,5.7,5.7v2.1
				C687.6,49.4,685.1,52,681.9,52z"/>
		</g>
		<g>
			<path class="st20" d="M662.8-90.6c-15-32.2-22.8-88.8,23.6-94c0,0,14.1-10.9,30.5,4c16.5,15-5.5,52-3.2,79.9
				c2.3,27.9,33.4,53.5,13.5,77.9c-19.9,24.4-45.8,18.1-55.4-17.5C662.1-75.9,662.8-90.6,662.8-90.6z"/>
			<g>
				<path class="st28" d="M668,155.2l10.6,9.8c0,0,46.3-20.1,53.6-65.5s-24.9-80.8-46.6-97.2l-74.1-2c0,0-9.1,31.9,24.3,43.7
					c33.4,11.8,51.9,2.3,62.1,36.8C708.1,115.2,668,155.2,668,155.2z"/>
				<polygon class="st24" points="678.6,164.9 683.8,193.4 656.3,164.9 668,155.2 				"/>
			</g>
			<g>
				<path class="st29" d="M662.8-129.4l11.8,5.5l5.4-11.4c0,0,16.9,12.2,25.3-5c0,0,2.8,1.1,5.2,0c0,0-2-9.8,1.5-18.8
					c0,0-6.8-12.3-14.3-5.5c-4.8,4.4-9.5,7-11.2,5.1c-1.7-1.9,3.1-6.3-0.5-10c-3.1-3.2-8.7-2.8-11.2,0.9c-5.8,8.6,1.5,12.7,1.5,12.7
					L662.8-129.4z"/>
				<path class="st30" d="M699.5-156.8c0,0,3.2-0.1,5.3,3.3"/>
				<g>
					<path class="st30" d="M675.9-165c0.3-0.7,0.7-1.4,1.2-2.1c0.8-1.2,2.2-1.9,3.7-1.9c1.1,0,2.1,0.4,2.9,1"/>
					<path class="st30" d="M679.3-168.8c0,0-0.1,2.2,1,3.8"/>
				</g>
				
					<linearGradient id="SVGID_9_" gradientUnits="userSpaceOnUse" x1="675.367" y1="144.4933" x2="679.4543" y2="146.3991" gradientTransform="matrix(1 0 0 -1 0 10)">
					<stop  offset="0.2087" style="stop-color:#000000;stop-opacity:0"/>
					<stop  offset="1" style="stop-color:#000000"/>
				</linearGradient>
				<path class="st31" d="M678.1-131.3L678.1-131.3l1.9-4c-2.5-1.4-5-3.5-5-3.5S673.9-134,678.1-131.3z"/>
			</g>
			<g>
				<path class="st25" d="M694.1,9.2c-25.2,15.4-42.9,24.6-90.8,14.6c0,0,8.2-44.8,15.2-87.1c7-42.3,22.6-68.7,46-67
					c23.4,1.7,30.8,50.9,27,83.1C687.6-15,694.1,8,694.1,8"/>
				
					<linearGradient id="SVGID_10_" gradientUnits="userSpaceOnUse" x1="661.4535" y1="44.4172" x2="698.3658" y2="108.3511" gradientTransform="matrix(1 0 0 -1 0 10)">
					<stop  offset="5.300000e-002" style="stop-color:#000000;stop-opacity:0"/>
					<stop  offset="1" style="stop-color:#000000"/>
				</linearGradient>
				<path class="st32" d="M671.8-111.5c0.9,2-15.6,20.6-15.6,20.6c-0.2,23,8.3,65.7,34.2,71.9l0,0c-0.4-8.1-0.2-17.6,1-28.2
					c2.1-17.7,0.8-40.6-4.7-57.9C677.8-109.3,671.5-112.1,671.8-111.5z"/>
			</g>
			<g>
				<path class="st29" d="M760.4-14c0,0-13.7-5.6-35.7-22.6c-11.1-8.6-19-24.6-25.9-41.2l-31.2,15.6c25.9,39.8,86.6,58.4,86.6,58.4
					H785C783.3-16.1,760.4-14,760.4-14z"/>
				<path class="st25" d="M678.9-121.4c0,0-38.2,5-16.1,50.6c1.4,2.9,3,5.8,4.8,8.5c14.5-4,24.5-10,31.2-15.6
					C691.9-94.1,686-110.9,678.9-121.4z"/>
			</g>
		</g>
	</g>
</g>
<g id="DESIGNED_BY_FREEPIK">
</g>
</svg>
