<?xml version="1.0" encoding="utf-8"?>
<!-- Generator: Adobe Illustrator 23.1.0, SVG Export Plug-In . SVG Version: 6.00 Build 0)  -->
<svg version="1.1" xmlns="http://www.w3.org/2000/svg" xmlns:xlink="http://www.w3.org/1999/xlink" x="0px" y="0px"
	 viewBox="0 0 750 500" style="enable-background:new 0 0 750 500;" xml:space="preserve">
<style type="text/css">
	.st0{clip-path:url(#SVGID_2_);fill:#5C87C7;}
	.st1{clip-path:url(#SVGID_2_);fill:#6692D4;}
	.st2{clip-path:url(#SVGID_2_);fill:none;}
	.st3{fill:#5C87C7;}
	.st4{fill:#6A99DE;}
	.st5{fill:#C04FCB;}
	.st6{fill:#366DBF;}
	.st7{fill:#D4ECFF;}
	.st8{fill:#275CAB;}
	.st9{fill:#0B3E8A;}
	.st10{fill:#FFFFFF;}
	.st11{fill:#C9515B;}
	.st12{fill:#AFDDFD;}
	.st13{fill:#EDBC9C;}
	.st14{fill:#164FA6;}
	.st15{fill:#81C4EF;}
	.st16{opacity:0.62;fill:#DD9F80;}
	.st17{fill:#60B1E6;}
	.st18{fill:#DD9F80;}
	.st19{opacity:0.56;fill:#5C87C7;}
</style>
<g id="BACKGROUND">
	<g>
		<defs>
			<rect id="SVGID_1_" y="0" width="750" height="500"/>
		</defs>
		<clipPath id="SVGID_2_">
			<use xlink:href="#SVGID_1_"  style="overflow:visible;"/>
		</clipPath>
		<rect y="0" class="st0" width="750" height="500"/>
		<path class="st1" d="M798.79,158.33c-66.91,16.43-59.87,154.96-156.13,189s-268.83-56.35-493.04-62.22s-272.35,135-279.39,142.04
			c-7.04,7.04,96.26,180.78,96.26,180.78l972-71.61L798.79,158.33z"/>
		<rect y="0" class="st2" width="750" height="500"/>
		<rect y="0" class="st2" width="750" height="500"/>
	</g>
</g>
<g id="OBJECTS">
	<g>
		<g>
			<g>
				<g>
					<g>
						<path class="st3" d="M394.21,229.49L394.21,229.49c-2.18-3.87-1.24-8.65-1.07-13.09c0.17-4.44-1.2-9.79-5.45-11.11
							c-2.14-0.67-4.89-0.28-6.21-2.09c-1.92-2.65,1.62-6.44,0.43-9.49c-0.82-2.11-3.45-2.77-5.17-4.25
							c-2.22-1.92-2.78-5.15-2.6-8.08c0.18-2.93,0.96-5.83,0.82-8.76c-0.13-2.93-1.47-6.09-4.19-7.21
							c5.35,1.01,10.77,2.04,15.66,4.43c4.89,2.38,9.28,6.32,10.98,11.48c1.16,3.51,1.31,7.84,4.37,9.91
							c1.9,1.29,4.36,1.25,6.65,1.42c2.29,0.17,4.84,0.8,5.99,2.79c1.25,2.16,0.27,4.94,0.85,7.37c0.76,3.18,3.94,5.07,6.08,7.55
							c3.56,4.13,4.19,10.3,2.28,15.4c-1.87,4.97-6.4,10.8-12.16,10.56C405.66,236.07,397.35,235.07,394.21,229.49z"/>
					</g>
					<g>
						<path class="st4" d="M405.43,216.82c-0.43-5.3-0.17-10.63,0.8-15.85c0.03-0.18-0.24-0.24-0.27-0.06
							c-0.93,5.06-1.21,10.21-0.84,15.34c-0.37-0.81-0.74-1.62-1.1-2.44c-4.12-9.31-7.62-18.97-13.26-27.51
							c-0.1-0.15-0.2-0.29-0.3-0.44c0-0.01,0-0.01,0-0.02c-0.42-2.4-0.84-4.8-1.27-7.2c-0.03-0.18-0.3-0.09-0.27,0.08
							c0.39,2.19,0.77,4.38,1.16,6.57c0,0,0,0,0,0c-0.01-0.04-0.03-0.08-0.07-0.1c-2.92-4.21-6.38-8.04-10.53-11.08
							c-0.14-0.11-0.33,0.1-0.19,0.21c4.06,2.97,7.4,6.65,10.25,10.71c-2-0.68-4-1.36-5.99-2.05c-0.17-0.06-0.23,0.22-0.06,0.27
							c2.11,0.72,4.22,1.44,6.33,2.16c2.87,4.16,5.25,8.7,7.36,13.27c1.83,3.96,3.49,8.01,5.21,12.03
							c-4.08-4.68-8.84-8.72-14.13-11.98c-0.15-0.09-0.28,0.16-0.13,0.25c5.42,3.34,10.29,7.52,14.43,12.36
							c0.03,0.04,0.07,0.05,0.11,0.04c2.25,5.23,4.61,10.41,7.58,15.28c2.97,4.87,6.55,9.38,10.98,13c0.14,0.11,0.33-0.09,0.19-0.21
							c-7.28-5.95-12.07-14.14-15.99-22.56C405.43,216.88,405.43,216.85,405.43,216.82z"/>
					</g>
				</g>
			</g>
			<g>
				<g>
					<g>
						<path class="st3" d="M413.43,215.17L413.43,215.17c1.49-3.14,4.97-4.69,7.88-6.58c2.92-1.89,5.72-5.18,4.65-8.49
							c-0.54-1.67-2.02-3.25-1.46-4.91c0.82-2.42,4.85-1.87,6.26-4c0.98-1.48,0.21-3.45,0.39-5.22c0.22-2.28,2.04-4.1,3.99-5.31
							c1.95-1.2,4.15-2.01,5.97-3.42c1.81-1.41,3.23-3.68,2.72-5.92c1.76,3.87,3.54,7.8,4.23,12c0.68,4.2,0.14,8.77-2.39,12.19
							c-1.72,2.32-4.42,4.37-4.36,7.26c0.03,1.79,1.17,3.35,2.09,4.89c0.92,1.54,1.67,3.46,0.92,5.08
							c-0.82,1.77-3.03,2.39-4.32,3.86c-1.69,1.92-1.46,4.8-2.08,7.29c-1.03,4.13-4.69,7.32-8.82,8.39
							c-4.02,1.04-9.78,0.78-12.22-3.01C414.39,225.45,411.28,219.69,413.43,215.17z"/>
					</g>
					<g>
						<path class="st4" d="M426.58,216.63c3.19-2.66,6.71-4.89,10.49-6.63c0.13-0.06,0.04-0.26-0.09-0.2
							c-3.65,1.68-7.07,3.82-10.18,6.37c0.35-0.6,0.7-1.2,1.06-1.8c4.09-6.82,8.69-13.41,11.6-20.86c0.05-0.13,0.1-0.26,0.15-0.39
							c0,0,0.01-0.01,0.01-0.01c1.34-1.35,2.68-2.7,4.03-4.05c0.1-0.1-0.08-0.23-0.17-0.13c-1.23,1.23-2.45,2.47-3.68,3.7
							c0,0,0,0,0,0c0.02-0.02,0.04-0.05,0.03-0.09c1.38-3.76,2.27-7.7,2.33-11.72c0-0.14-0.22-0.17-0.22-0.03
							c-0.07,3.93-0.92,7.72-2.22,11.37c-0.46-1.58-0.93-3.17-1.39-4.75c-0.04-0.14-0.24-0.05-0.2,0.09
							c0.49,1.67,0.98,3.34,1.47,5.01c-1.36,3.71-3.2,7.27-5.17,10.68c-1.71,2.95-3.54,5.84-5.34,8.75
							c1.15-4.71,1.59-9.58,1.29-14.42c-0.01-0.14-0.23-0.11-0.22,0.03c0.31,4.97-0.17,9.96-1.4,14.79c-0.01,0.04,0,0.07,0.02,0.09
							c-2.33,3.79-4.57,7.63-6.35,11.73c-1.78,4.09-3.05,8.41-3.36,12.87c-0.01,0.14,0.21,0.17,0.22,0.03
							c0.52-7.33,3.6-14.08,7.21-20.38C426.54,216.65,426.56,216.65,426.58,216.63z"/>
					</g>
				</g>
			</g>
			<g>
				<g>
					<g>
						<path class="st5" d="M391.45,235.54"/>
					</g>
					<g>
						<path class="st4" d="M382.25,235.89L382.25,235.89c-10.35-5.2-18.91-14.18-24.11-24.81c11.04-1.71,22.64-0.05,33.02,4.71
							c8.19,3.76,16.28,9.61,21.92,16.95c7.04,9.14-11.49,8.36-15.87,7.77C392.05,239.82,386.97,238.26,382.25,235.89z"/>
					</g>
					<path class="st3" d="M417.71,238.17c-4.71-1.19-9.38-2.58-13.99-4.15c-1.37-2.06-2.41-4.28-3.11-6.69
						c-0.04-0.15-0.25-0.06-0.21,0.09c0.68,2.34,1.67,4.48,2.97,6.48c-3.35-1.15-6.67-2.4-9.95-3.75c-1.43-2.72-2.97-5.36-4.62-7.93
						c-0.08-0.13-0.26,0.02-0.18,0.15c1.6,2.48,3.08,5.02,4.47,7.64c-4.08-1.68-8.1-3.52-12.06-5.49c-1.58-2.76-3.16-5.52-4.74-8.28
						c-0.08-0.13-0.26,0.02-0.18,0.15c1.52,2.65,3.03,5.3,4.55,7.95c-6.15-3.09-12.16-6.52-17.97-10.31
						c-0.12-0.08-0.26,0.11-0.14,0.19c5.86,3.81,11.91,7.27,18.11,10.38c-2.62,0.75-5.28,1.15-7.99,1.22
						c-0.15,0-0.12,0.25,0.03,0.24c2.82-0.08,5.57-0.51,8.28-1.3c3.94,1.96,7.93,3.79,11.99,5.46c-3.3,1.33-6.72,2.12-10.24,2.39
						c-0.15,0.01-0.12,0.25,0.03,0.24c3.63-0.28,7.14-1.11,10.53-2.5c0.02,0.01,0.04,0.02,0.06,0.02c3.31,1.36,6.65,2.62,10.03,3.78
						c-1.91,1.39-3.93,2.56-6.06,3.51c-0.14,0.06-0.05,0.29,0.09,0.23c2.21-0.98,4.29-2.19,6.26-3.64c4.62,1.58,9.3,2.97,14.03,4.16
						C417.83,238.45,417.86,238.2,417.71,238.17z"/>
				</g>
			</g>
			<g>
				<g>
					<g>
						<path class="st5" d="M413.04,202.63"/>
					</g>
					<g>
						<path class="st4" d="M409.87,195.63L409.87,195.63c0.74-9.63,4.98-19.06,11.54-26.43c4.8,7.98,7.18,17.45,6.78,26.96
							c-0.32,7.5-2.28,15.59-6.16,22.26c-4.83,8.31-10.07-6.23-11.01-9.79C409.93,204.43,409.53,200.02,409.87,195.63z"/>
					</g>
					<path class="st3" d="M419.3,223.71c-0.57-4.01-0.97-8.05-1.21-12.11c1.16-1.71,2.54-3.21,4.18-4.51
						c0.1-0.08-0.04-0.21-0.14-0.13c-1.59,1.26-2.93,2.71-4.06,4.34c-0.17-2.95-0.25-5.9-0.25-8.86c1.65-1.96,3.2-3.98,4.66-6.06
						c0.07-0.11-0.1-0.2-0.17-0.09c-1.41,2.01-2.9,3.96-4.49,5.86c0.01-3.67,0.16-7.36,0.43-11.03c1.63-2.09,3.26-4.18,4.89-6.27
						c0.08-0.1-0.09-0.19-0.17-0.09c-1.56,2.01-3.13,4.01-4.69,6.02c0.44-5.72,1.2-11.44,2.28-17.12c0.02-0.12-0.17-0.17-0.19-0.04
						c-1.09,5.72-1.85,11.48-2.29,17.24c-1.4-1.79-2.55-3.71-3.46-5.78c-0.05-0.11-0.23-0.01-0.18,0.1
						c0.95,2.15,2.15,4.14,3.62,5.98c-0.27,3.66-0.42,7.32-0.43,10.97c-2.06-2.13-3.76-4.51-5.08-7.14
						c-0.06-0.11-0.23-0.01-0.18,0.1c1.36,2.71,3.11,5.16,5.25,7.33c0,0.02,0,0.03,0,0.05c0,2.98,0.08,5.96,0.25,8.93
						c-1.68-1.04-3.21-2.22-4.62-3.57c-0.09-0.09-0.23,0.05-0.15,0.14c1.46,1.39,3.04,2.62,4.78,3.68
						c0.24,4.06,0.65,8.11,1.22,12.14C419.12,223.89,419.32,223.84,419.3,223.71z"/>
				</g>
			</g>
		</g>
		<g>
			<path class="st3" d="M440.09,255.88h-72.94c-5.13,0-9.29,4.16-9.29,9.29V293c0,5.13,4.16,9.29,9.29,9.29h72.94
				c5.13,0,9.29-4.16,9.29-9.29v-27.84C449.38,260.04,445.22,255.88,440.09,255.88z"/>
			<rect x="357.87" y="270.77" class="st6" width="91.51" height="6.57"/>
			<g>
				<rect x="363.7" y="284.05" class="st7" width="20.72" height="2.63"/>
				<rect x="363.7" y="290.76" class="st7" width="14.74" height="2.63"/>
			</g>
		</g>
		<g>
			<g>
				<rect x="547.21" y="323.36" class="st3" width="40.04" height="47.89"/>
				<rect x="573.14" y="323.36" class="st6" width="14.11" height="47.89"/>
			</g>
			<g>
				<rect x="587.14" y="348.1" class="st3" width="22.17" height="23.15"/>
				<rect x="601.5" y="348.1" class="st6" width="7.81" height="23.15"/>
			</g>
			<g>
				<rect x="552.02" y="307.2" class="st4" width="30.39" height="16.14"/>
				<rect x="571.7" y="307.2" class="st3" width="10.71" height="16.14"/>
			</g>
			<g>
				<rect x="587.14" y="326.51" class="st4" width="29.68" height="21.63"/>
				<rect x="606.36" y="326.51" class="st3" width="10.46" height="21.63"/>
			</g>
			<g>
				<g>
					<path class="st8" d="M532.73,335.57c-0.49,0-0.91-0.26-1.06-0.73l-3.2-9.38c-1.48-4.36-5.45-7.06-10.36-7.06h-11.18
						c-0.74,0-1.24-0.6-1.1-1.34c0.13-0.74,0.84-1.34,1.58-1.34h11.18c5.91,0,10.7,3.26,12.49,8.51l3.2,9.38
						c0.22,0.66-0.18,1.47-0.9,1.81C533.16,335.52,532.94,335.57,532.73,335.57z"/>
					<path class="st8" d="M634.53,333.29c-0.18-0.39-0.56-0.63-1.02-0.63h-100.5c-0.46,0-0.93,0.24-1.25,0.63
						c-0.32,0.39-0.43,0.88-0.31,1.29l11.48,38.53c0.14,0.47,0.56,0.77,1.08,0.77h63.87c0.52,0,1.04-0.3,1.35-0.77l25.14-38.53
						C634.65,334.16,634.7,333.68,634.53,333.29z M615.36,359.15h-17.08l5.1-12.25l19.97,0.01L615.36,359.15z M597.06,359.15h-17.88
						l2.18-12.27l20.81,0.01L597.06,359.15z M538.09,346.86l19.88,0.01l0.71,12.28h-16.93L538.09,346.86z M559.31,346.87l20.79,0.01
						l-2.18,12.27h-17.9L559.31,346.87z M559.24,345.64l-0.6-10.3h23.51l-1.83,10.3L559.24,345.64z M577.7,360.43l-1.91,10.76
						h-15.06l-0.63-10.76H577.7z M578.95,360.43h17.58l-4.48,10.76h-15.01L578.95,360.43z M581.57,345.64l1.83-10.3h23.57
						l-4.29,10.3L581.57,345.64z M557.3,335.35l0.6,10.3l-20.17,0l-3.07-10.3H557.3z M542.13,360.43h16.63l0.63,10.76h-14.04
						L542.13,360.43z M607.51,371.19h-14.23l4.48-10.76h16.78L607.51,371.19z M624.18,345.64l-20.27,0l4.29-10.3h22.71
						L624.18,345.64z"/>
					<path class="st8" d="M609,403.94h-51.55c-3.18,0-5.74-1.88-6.52-4.78l-8.13-26.54c-0.2-0.67,0.42-1.64,1.15-1.96
						c0.73-0.32,1.23,0.02,1.43,0.69l8.19,26.68c0,0.01,0.01,0.02,0.01,0.03c0.52,1.95,2.22,3.2,4.35,3.2h51.55
						c0.74,0,1.24,0.6,1.1,1.34C610.45,403.34,609.74,403.94,609,403.94z"/>
				</g>
				<g>
					<path class="st9" d="M569.4,407.25c-0.01-3.96-3.22-7.16-7.18-7.16c-3.96,0-7.17,3.2-7.18,7.16H569.4z"/>
					<path class="st9" d="M567.27,407.27c0,2.79-2.26,5.05-5.05,5.05c-2.79,0-5.05-2.26-5.05-5.05c0-2.79,2.26-5.05,5.05-5.05
						C565.01,402.22,567.27,404.48,567.27,407.27z"/>
					<path class="st10" d="M562.22,409.96c-1.48,0-2.68-1.2-2.68-2.68c0-1.48,1.2-2.68,2.68-2.68c1.48,0,2.68,1.2,2.68,2.68
						C564.9,408.75,563.7,409.96,562.22,409.96z"/>
				</g>
				<g>
					<path class="st9" d="M605.11,407.25c-0.01-3.96-3.22-7.16-7.18-7.16c-3.96,0-7.17,3.2-7.18,7.16H605.11z"/>
					<path class="st9" d="M602.98,407.27c0,2.79-2.26,5.05-5.05,5.05s-5.05-2.26-5.05-5.05c0-2.79,2.26-5.05,5.05-5.05
						S602.98,404.48,602.98,407.27z"/>
					<path class="st10" d="M597.93,409.96c-1.48,0-2.68-1.2-2.68-2.68c0-1.48,1.2-2.68,2.68-2.68c1.48,0,2.68,1.2,2.68,2.68
						C600.61,408.75,599.41,409.96,597.93,409.96z"/>
				</g>
			</g>
		</g>
		<g>
			<g>
				<path class="st9" d="M523.49,363.77l-38.35-133.13c-1.78-6.18-8.24-11.2-14.42-11.2h-63.75c-6.18,0-9.75,5.01-7.97,11.2
					l38.35,133.13c1.78,6.18,8.24,11.2,14.42,11.2h63.75C521.71,374.96,525.27,369.95,523.49,363.77z"/>
				<g>
					<g>
						<g>
							<g>
								<path class="st6" d="M476.08,219.44h-63.75c-6.18,0-9.75,5.01-7.97,11.2l38.35,133.13c1.78,6.18,8.24,11.2,14.42,11.2h63.75
									c6.18,0,9.75-5.01,7.97-11.2L490.5,230.64C488.72,224.46,482.26,219.44,476.08,219.44z"/>
							</g>
						</g>
					</g>
					<path class="st10" d="M477.29,223.64h-9.35l-1.53,6.38c-0.57,2.38-2.62,3.88-5.31,3.88h-25.45c-2.7,0-5.6-1.49-7.55-3.88
						l-5.2-6.38h-9.35c-3.86,0-6.1,3.14-4.98,7l38.35,133.13c1.11,3.86,5.16,7,9.02,7h63.75c3.86,0,6.1-3.14,4.98-7L486.3,230.64
						C485.19,226.78,481.15,223.64,477.29,223.64z"/>
					<g>
						<path class="st10" d="M412.21,224.97h9.35l5.2,6.38c1.95,2.38,4.85,3.88,7.55,3.88h25.45c2.02,0,3.68-0.84,4.62-2.26
							c-0.9,0.6-2.02,0.94-3.29,0.94h-25.45c-2.7,0-5.6-1.49-7.55-3.88l-5.2-6.38h-9.35c-2,0-3.55,0.85-4.44,2.19
							C409.93,225.28,410.99,224.97,412.21,224.97z"/>
						<path class="st10" d="M524.66,363.77L486.3,230.64c-1.11-3.86-5.16-7-9.02-7h-9.35l-0.32,1.33h8.35c3.86,0,7.91,3.14,9.02,7
							l38.36,133.13c0.54,1.86,0.29,3.55-0.54,4.81C524.61,368.71,525.42,366.41,524.66,363.77z"/>
					</g>
					<path class="st11" d="M485.89,283.05h-44.68c-2.71,0-5.54-2.2-6.32-4.91l-8.23-28.18c-0.7-2.42,1.12-4.83,3.64-4.83h46.61
						c1.69,0,3.17,1.12,3.64,2.74l8.83,30.28C490.17,280.85,488.6,283.05,485.89,283.05z"/>
					<g>
						<path class="st10" d="M467.78,269.65h-17.82c-1.08,0-2.21-0.88-2.52-1.96l-2.69-9.21c-0.28-0.94,0.43-1.89,1.41-1.89
							l18.66-0.02c0.65,0,1.23,0.43,1.42,1.06l2.93,10.06C469.49,268.77,468.86,269.65,467.78,269.65z"/>
						<path class="st10" d="M467.42,255.32l-24.89,0.01c-0.84,0-1.72-0.68-1.96-1.52l-0.38-1.16c-0.22-0.75,0.35-1.5,1.13-1.5
							l25.49-0.01c0.52,0,0.98,0.35,1.13,0.85l0.57,1.81C468.74,254.64,468.26,255.32,467.42,255.32z"/>
					</g>
					<path class="st3" d="M493.5,309.95h-44.68c-2.71,0-5.54-2.2-6.32-4.91l-2.3-8.3c-0.7-2.42,1.12-4.83,3.64-4.83h46.61
						c1.69,0,3.17,1.12,3.64,2.74l2.9,10.4C497.77,307.75,496.2,309.95,493.5,309.95z"/>
					<path class="st3" d="M466.53,336.49l-11.15,0.13c-2.71,0-5.54-2.2-6.32-4.91l-2.3-8.3c-0.7-2.42,1.12-4.83,3.64-4.83
						l13.08-0.13c1.69,0,3.17,1.12,3.64,2.74l2.9,10.4C470.8,334.29,469.23,336.49,466.53,336.49z"/>
					<path class="st12" d="M499.25,321.85l-27.18,0.1c-0.43,0-0.88-0.35-1.01-0.78l-0.37-1.33c-0.11-0.39,0.18-0.77,0.58-0.77
						l27.49-0.1c0.27,0,0.51,0.18,0.58,0.44l0.46,1.66C499.93,321.5,499.68,321.85,499.25,321.85z"/>
					<path class="st12" d="M501.14,327.82l-27.18,0.1c-0.43,0-0.88-0.35-1.01-0.78l-0.37-1.33c-0.11-0.39,0.18-0.77,0.58-0.77
						l27.49-0.1c0.27,0,0.51,0.18,0.58,0.44l0.46,1.66C501.82,327.47,501.57,327.82,501.14,327.82z"/>
					<path class="st3" d="M472.79,361.55l-11.15,0.13c-2.71,0-5.54-2.2-6.32-4.91l-2.3-8.3c-0.7-2.42,1.12-4.83,3.64-4.83
						l13.08-0.13c1.69,0,3.17,1.12,3.64,2.74l2.9,10.4C477.06,359.35,475.5,361.55,472.79,361.55z"/>
					<path class="st12" d="M506.59,347.36l-27.18,0.1c-0.43,0-0.88-0.35-1.01-0.78l-0.37-1.33c-0.11-0.39,0.18-0.77,0.58-0.77
						l27.49-0.1c0.27,0,0.51,0.18,0.58,0.44l0.46,1.66C507.27,347.01,507.02,347.36,506.59,347.36z"/>
					<path class="st12" d="M495.81,354.18l-15.04,0.09c-0.43,0-0.88-0.35-1.01-0.78l-0.37-1.33c-0.11-0.39,0.18-0.77,0.58-0.77
						l15.35-0.09c0.27,0,0.51,0.18,0.58,0.44l0.46,1.66C496.49,353.83,496.24,354.18,495.81,354.18z"/>
					<path class="st12" d="M490.16,334.44l-14.8,0.05c-0.43,0-0.88-0.35-1.01-0.78l-0.37-1.33c-0.11-0.39,0.18-0.77,0.58-0.77
						l15.11-0.05c0.27,0,0.51,0.18,0.58,0.44l0.46,1.66C490.84,334.09,490.59,334.44,490.16,334.44z"/>
				</g>
			</g>
			<path class="st10" d="M479.65,275.2l-35.25-0.06c-0.41,0-0.84-0.33-0.96-0.74l-0.19-0.57c-0.11-0.37,0.17-0.73,0.55-0.73
				l35.54,0.06c0.26,0,0.48,0.17,0.55,0.41l0.28,0.88C480.3,274.87,480.06,275.2,479.65,275.2z"/>
			<g>
				<path class="st13" d="M518.05,344.12c0.42-1.25,1.2-2.63,1.8-4.22h-14.96c-2.9,12.57-3.96,23.92-3.96,23.92l3.4,42.38l6,0.07
					c0.5-5.86,0.59-24.75,2.41-41.54C513.7,355.8,516.8,347.85,518.05,344.12z"/>
				<g>
					<path class="st13" d="M529.92,344.12c0.31-1.18,0.55-2.63,0.75-4.22h-14.96c0.2,12.57,1.95,23.92,1.95,23.92l13.62,42.52
						l5.88-0.25c0.51-4.1-4.7-26.07-7.04-42.97C528.9,354.33,529.25,346.69,529.92,344.12z"/>
					<path class="st9" d="M537.25,406.08l0.47,4.08c0,1.2-0.87,2.17-1.95,2.17h-14.16c-0.76,0-1.06-1.1-0.42-1.56
						c1.87-1.34,8.06-3.27,10.02-4.61L537.25,406.08z"/>
				</g>
				<path class="st13" d="M530.35,302.52c-0.7-3.64-0.93-7.32,0.07-9.86c1.79-4.51,1.79-12.49,0.88-18.1
					c2.76,3.64,5.77,8.31,6.35,12.07C538.33,291.05,533.9,297.88,530.35,302.52z"/>
				<path class="st14" d="M534.1,354.5c-5.8,1.35-11.73,2.02-17.65,2.02c-5.14,0-10.27-0.51-15.33-1.52l-2.49-0.5
					c0,0,1.04-31.87,4.02-36.67c0,0,21.91,1.44,30.43-2.59c0.43,3.3,0.65,8.52-0.88,14.35C529.61,339.45,534.62,347.93,534.1,354.5z
					"/>
				<path class="st15" d="M510.83,267.95c0,0-4.28,5.67-5.84,8.87c-1.29,2.66-5.19,8.56,0.91,15.83c6.1,7.27-3.24,21.54-3.24,25.17
					c0,0,23.75,1.56,31.4-3.11c0,0-6.36-15.18-3.63-22.06c2.72-6.88,1.3-21.8-1.17-24.13C526.79,266.18,510.83,267.95,510.83,267.95
					z"/>
				<path class="st13" d="M505.69,250.84c0,0-4.54,12.59,5.2,12.58V268h8.66V251.8c0,0-6.94-2.76-7.14-2.76
					S505.69,250.84,505.69,250.84z"/>
				<path class="st16" d="M510.98,267.77h1.6c-0.03-1.58,0.01-3.03,0.23-3.37c0.53-0.81,1.52-2.08,1.52-2.08
					c-0.63,0.32-3.34,0.79-3.34,0.79V267.77z"/>
				<path class="st9" d="M503.09,355.36c-1.04-8.55,2.25-26.46,4.76-38.63l-5.19,1.09c-2.98,4.8-4.02,36.68-4.02,36.68l2.49,0.5
					C501.78,355.13,502.43,355.25,503.09,355.36z"/>
				<path class="st17" d="M515.07,282.88c3.07-4.11,1.38-9.04,1.38-9.04l-11.17,2.42c-0.1,0.19-0.2,0.38-0.29,0.56
					c-1.29,2.66-5.19,8.56,0.91,15.83s-3.24,21.54-3.24,25.17c0,0,1.96,0.13,4.92,0.2c1.38-6.76,2.58-12.01,2.8-13.37
					c0.65-3.96-0.11-9.23-1.92-12.52C506.64,288.85,512,286.99,515.07,282.88z"/>
				<path class="st13" d="M468.03,268.56l24.76,23.83c1.24,1.31,3.24,1.53,4.72,0.51c6.82-4.71,24.68-17.49,16.64-22.18
					c-4.9-2.86-20.83,12.49-20.83,12.49l-21.64-16.52c0,0-0.8-2.74-1.59-3.14c-0.79-0.4-8-0.91-7.46-0.32
					c0.54,0.59,4.3,1.48,4.3,1.48S466.46,268.01,468.03,268.56z"/>
				<path class="st16" d="M514.88,271.22c-0.21-0.18-0.45-0.34-0.73-0.5c-4.9-2.86-20.83,12.49-20.83,12.49l-21.64-16.52
					c0,0,20.31,18.43,21.84,18.43C494.93,285.11,507.17,271.71,514.88,271.22z"/>
				<path class="st9" d="M513.55,254.02c0,0,1.93-1.3,3.13,0.63c0.72,1.15-0.92,2.55-1.65,4.22c-0.73,1.67-0.89,4.05,2.34,5.14
					c3.23,1.09-5.01,8.42-1.39,14.19c4.2,6.7,11.75,6.85,15.66,0.96c3.91-5.89,0.42-9.62-1.56-12.54c-1.98-2.92-0.56-3-0.3-5.29
					c0.26-2.29-2.21-5.34-3.4-6.06c-1.2-0.73,1.09-8.07-3.29-10.51c-4.38-2.45-13.29-5.22-17.77,6.39
					C505.33,251.13,508.31,253.69,513.55,254.02z"/>
				<path class="st9" d="M510.48,406.08l0.47,4.08c0,1.2-0.87,2.17-1.95,2.17h-14.16c-0.76,0-1.06-1.1-0.42-1.56
					c1.87-1.34,8.06-3.27,10.02-4.61L510.48,406.08z"/>
				<path class="st16" d="M533.3,406.24l-2.03,0.08l-13.62-42.51c0,0-0.44-2.85-0.9-7.29c1.35-0.01,2.71-0.05,4.06-0.12
					c0,2.82,0.14,6.8,0.87,10.43C522.74,372.14,531.27,399.71,533.3,406.24z"/>
				<path class="st16" d="M529.51,356.91c-3.65,1.15-10.12,1.33-12.51,1.36c-0.09-0.79-0.15-0.81-0.25-1.75
					c4.23-0.02,8.46-0.38,12.66-1.08C529.44,356.19,529.45,356.12,529.51,356.91z"/>
				<path class="st18" d="M503.98,356.98c0,0-1.47,3.62-1.34,7.37c0.11,3.16,2.7,32.63,3.51,41.86l-1.84-0.02l-3.4-42.38
					c0,0,0.32-3.45,1.1-8.65c4.03,0.76,8.11,1.2,12.19,1.31c-0.12,0.45-0.22,0.92-0.33,1.39
					C511.52,357.75,505.49,357.41,503.98,356.98z"/>
			</g>
			<path class="st10" d="M475.23,279.69l-25.07-0.06c-0.41,0-0.84-0.33-0.96-0.74l-0.19-0.57c-0.11-0.37,0.17-0.73,0.55-0.73
				l25.36,0.06c0.26,0,0.48,0.17,0.55,0.41l0.28,0.88C475.88,279.36,475.64,279.69,475.23,279.69z"/>
			<g>
				<path class="st10" d="M451.69,295.37l-0.23-0.86h1.49l0.23,0.86c1.36,0.26,2.29,1.26,2.71,2.82l0.1,0.36h-1.72l-0.13-0.48
					c-0.22-0.83-0.64-1.14-1.22-1.14c-0.58,0-0.82,0.31-0.6,1.14c0.65,2.38,4.23,2.49,5.12,5.8c0.43,1.57,0.02,2.58-1.19,2.84
					l0.23,0.84H455l-0.23-0.84c-1.38-0.26-2.31-1.27-2.74-2.84l-0.22-0.79h1.72l0.25,0.91c0.22,0.83,0.67,1.12,1.25,1.12
					c0.58,0,0.86-0.3,0.64-1.12c-0.65-2.38-4.23-2.49-5.12-5.8C450.12,296.64,450.5,295.65,451.69,295.37z"/>
			</g>
			<g>
				<path class="st10" d="M461.84,303.22l-0.12-7.12h1.81l3.13,7.12h0.78l0.66,1.5h-0.78l0.84,1.91h-1.62l-0.84-1.91h-3.19
					L461.84,303.22z M464.79,302.69l-1.62-3.67l0.07,3.67H464.79z"/>
				<path class="st10" d="M469.69,303.23l0.43,0.98c0.33,0.75,0.78,1.02,1.31,1.02c0.53,0,0.74-0.27,0.41-1.02l-1.02-2.32
					c-0.33-0.75-0.79-1.04-1.31-1.04c-0.53,0-0.73,0.29-0.4,1.04l0.14,0.32h-1.56l-2.39-6.11h4.36l0.66,1.5h-2.87l0.97,2.51
					c0.08-0.5,0.44-0.77,1.11-0.77c1.22,0,2.21,0.86,2.9,2.41l1.03,2.35c0.74,1.69,0.32,2.65-1.3,2.65c-1.62,0-2.89-0.96-3.63-2.65
					l-0.38-0.87H469.69z"/>
				<path class="st10" d="M476.55,305.04l0.7,1.59h-1.59l-0.7-1.59H476.55z"/>
				<path class="st10" d="M476.85,297.49c-0.53,0-0.73,0.29-0.4,1.04l0.5,1.13h-1.56l-0.45-1.02c-0.74-1.68-0.32-2.65,1.3-2.65
					s2.89,0.96,3.63,2.65c1.46,3.31-1.29,4.54-0.53,6.27c0.03,0.08,0.07,0.15,0.11,0.23h3.13l0.66,1.5h-4.78l-0.57-1.29
					c-1.36-3.1,1.69-3.61,0.35-6.65C477.82,297.74,477.37,297.49,476.85,297.49z"/>
				<path class="st10" d="M484.4,303.23l0.43,0.98c0.33,0.75,0.78,1.02,1.31,1.02c0.53,0,0.74-0.27,0.41-1.02l-1.02-2.32
					c-0.33-0.75-0.79-1.04-1.31-1.04c-0.53,0-0.73,0.29-0.4,1.04l0.14,0.32h-1.56L480,296.1h4.36l0.66,1.5h-2.87l0.97,2.51
					c0.08-0.5,0.44-0.77,1.11-0.77c1.22,0,2.21,0.86,2.9,2.41l1.03,2.35c0.74,1.69,0.32,2.65-1.3,2.65c-1.62,0-2.89-0.96-3.63-2.65
					l-0.38-0.87H484.4z"/>
			</g>
		</g>
		<g>
			<g>
				<path class="st4" d="M402.05,387.72c-1.05-0.96-2.84,0.5-9.48-2.86c-9.67-4.89-16.24-34.52-16.24-34.52
					c13.57-4.04,15.76,26.6,21.64,31.28c2.65,2.12,4.02,4.28,4.72,6.03L402.05,387.72z"/>
				<path class="st3" d="M381.52,358.84c3.74,8.6,8.41,21.37,14.5,24.98c1.7,1.01,2.99,2.21,3.98,3.42
					c-1.39-0.12-3.6-0.45-7.43-2.39c-9.67-4.89-16.24-34.52-16.24-34.52S377.79,350.24,381.52,358.84z"/>
			</g>
			<g>
				<path class="st4" d="M407.56,388.19h-1.51c-0.98-2.49-1.29-7.17,1.98-15.76c6.06-15.9,9.12-36.52,4.89-42.59
					c0,0,14.46,12.32,11.17,25.14C421.02,367.02,405.48,375.03,407.56,388.19z"/>
				<path class="st3" d="M406.95,388.19h-0.89c-0.98-2.49-1.29-7.17,1.98-15.76c6.06-15.9,9.12-36.52,4.89-42.59
					c0,0,9.55,12.69,5.92,24.84C415.28,366.69,404.26,372.93,406.95,388.19z"/>
			</g>
			<g>
				<path class="st4" d="M419.25,383.76c-5.06,2.46-7.22,4.1-8.63,6.17h-1.77c1.33-4.8,2.12-9.93,5.23-13.8
					c3.54-4.4,17.16-11.65,17.63-12.49C432.17,362.8,426.07,380.44,419.25,383.76z"/>
				<path class="st3" d="M410.4,388.58c-0.11,0.38-0.26,0.85-0.44,1.36h-1.12c1.33-4.8,2.12-9.93,5.23-13.8
					c3.54-4.4,17.16-11.65,17.63-12.49c0,0-6.61,9.92-13.97,14.45C412.47,381.33,411.07,386.13,410.4,388.58z"/>
			</g>
			<g>
				<path class="st4" d="M403.39,380.66c0.19,3.15,0.78,5.66,1.41,7.54h-1.05c-3.61-5.58-9.17-16.4-8.13-29.04
					c1.52-18.47,3.17-41.62,3.17-41.62s20.33,18.43,10.33,38.88C404.13,366.61,403.04,374.74,403.39,380.66z"/>
				<g>
					<path class="st3" d="M402.36,346.59c-2.06,15.3-2.09,32.44,1.2,39.69c-0.6-0.51-1.24-1.04-1.9-1.58
						c-3.31-6.03-6.89-15.17-6.04-25.54c1.52-18.47,3.17-41.62,3.17-41.62S405.04,326.67,402.36,346.59z"/>
				</g>
			</g>
			<path class="st12" d="M418.08,387.26h-23.14c-2.05,0-3.61,1.85-3.26,3.87l2.96,17.03c0.46,2.42,2.57,4.17,5.04,4.17h13.67
				c2.46,0,4.58-1.75,5.04-4.17l2.96-17.03C421.69,389.11,420.14,387.26,418.08,387.26z"/>
			<path class="st19" d="M421.38,390.54c0-0.13-0.01-0.25-0.02-0.37c-0.01-0.11-0.03-0.21-0.05-0.32c-0.03-0.12-0.06-0.23-0.1-0.35
				c-0.04-0.1-0.08-0.2-0.12-0.3c-0.05-0.11-0.1-0.21-0.16-0.31c-0.06-0.1-0.12-0.19-0.19-0.28c-0.07-0.09-0.13-0.18-0.2-0.26
				c-0.08-0.09-0.17-0.17-0.26-0.25c-0.08-0.07-0.15-0.14-0.24-0.2c-0.1-0.08-0.22-0.14-0.33-0.21c-0.08-0.05-0.16-0.1-0.25-0.14
				c-0.14-0.06-0.28-0.11-0.43-0.15c-0.08-0.02-0.15-0.06-0.23-0.07c-0.23-0.05-0.47-0.08-0.72-0.08h-6.43h-16.71
				c-1.9,0-3.37,1.58-3.3,3.42h23.29c-0.01,0.15,0,0.3-0.03,0.45l-2.96,17.03c-0.46,2.42-2.57,4.17-5.04,4.17h6.44
				c2.46,0,4.58-1.75,5.04-4.17l2.96-17.03c0.03-0.15,0.02-0.3,0.03-0.45h0.02C421.39,390.63,421.38,390.59,421.38,390.54z"/>
		</g>
		<g>
			<g>
				<rect x="461.85" y="388.99" class="st10" width="13.51" height="2.69"/>
				<rect x="461.85" y="397.33" class="st10" width="13.51" height="2.69"/>
				<rect x="479.95" y="381.26" class="st3" width="11.16" height="31.07"/>
			</g>
			<g>
				<rect x="430.48" y="392.97" class="st3" width="21.37" height="19.36"/>
				<rect x="433.51" y="401.89" class="st10" width="9.78" height="2.53"/>
				<rect x="445.75" y="392.97" class="st6" width="6.11" height="19.36"/>
			</g>
		</g>
	</g>
</g>
</svg>
