<?xml version="1.0" encoding="utf-8"?>
<!-- Generator: Adobe Illustrator 23.1.0, SVG Export Plug-In . SVG Version: 6.00 Build 0)  -->
<svg version="1.1" xmlns="http://www.w3.org/2000/svg" xmlns:xlink="http://www.w3.org/1999/xlink" x="0px" y="0px"
	 viewBox="0 0 750 500" style="enable-background:new 0 0 750 500;" xml:space="preserve">
<style type="text/css">
	.st0{fill:#FFFFFF;}
	.st1{fill:url(#SVGID_1_);}
	.st2{fill:url(#SVGID_2_);}
	.st3{fill:none;stroke:#1DCEB4;stroke-width:1.0929;stroke-linecap:round;stroke-miterlimit:10;}
	.st4{fill:url(#SVGID_3_);}
	.st5{fill:url(#SVGID_4_);}
	.st6{fill:url(#SVGID_5_);}
	.st7{fill:url(#SVGID_6_);}
	.st8{fill:url(#SVGID_7_);}
	.st9{fill:url(#SVGID_8_);}
	.st10{fill:url(#SVGID_9_);}
	.st11{fill:#F98091;}
	.st12{fill:#62A5E7;}
	.st13{fill:#C1C7D3;}
	.st14{fill:#A9B2BF;}
	.st15{fill:#91B6E0;}
	.st16{fill:none;stroke:#01004C;stroke-width:2.2654;stroke-linecap:round;stroke-linejoin:round;stroke-miterlimit:10;}
	.st17{fill:none;stroke:#01004C;stroke-width:1.1327;stroke-linecap:round;stroke-linejoin:round;stroke-miterlimit:10;}
	.st18{fill:#01004C;}
	.st19{fill:#F995A6;}
	.st20{fill:none;stroke:#F98091;stroke-width:0.8495;stroke-miterlimit:10;}
	.st21{fill:#E4E9FF;}
	.st22{fill:#FCD98E;}
	.st23{fill:#E2697D;}
	.st24{fill:#33337C;}
	.st25{fill:#282766;}
	.st26{fill:#FFADB7;}
	.st27{opacity:0.51;fill:url(#SVGID_10_);}
	.st28{fill:none;stroke:#EF8998;stroke-width:0.5663;stroke-linecap:round;stroke-miterlimit:10;}
	.st29{opacity:0.75;fill:url(#SVGID_11_);}
	.st30{opacity:0.5;fill:url(#SVGID_12_);}
</style>
<g id="BACKGROUND_1_">
	<rect class="st0" width="750" height="500"/>
</g>
<g id="OBJECTS">
	<linearGradient id="SVGID_1_" gradientUnits="userSpaceOnUse" x1="299.6194" y1="438.8888" x2="299.6194" y2="121.1977">
		<stop  offset="0" style="stop-color:#A3CAE2"/>
		<stop  offset="0.5293" style="stop-color:#CBE4F7"/>
	</linearGradient>
	<path class="st1" d="M105.92,438.89c24.15-106.71-49.77-155.57-35.45-222.25c14.32-66.67,55.44-110.06,127.28-90.88
		c71.84,19.18,101.41,76.72,191.96,53.89c90.55-22.83,136.75-5.48,140.45,47.04c3.7,52.52-15.2,165.47-47.33,212.2H105.92z"/>
	<g>
		<g>
			<g>
				<linearGradient id="SVGID_2_" gradientUnits="userSpaceOnUse" x1="109.3864" y1="343.4599" x2="74.0601" y2="282.2729">
					<stop  offset="0" style="stop-color:#148275"/>
					<stop  offset="0.0936" style="stop-color:#148A7C"/>
					<stop  offset="0.4505" style="stop-color:#14A692"/>
					<stop  offset="0.7646" style="stop-color:#14B79F"/>
					<stop  offset="1" style="stop-color:#14BDA4"/>
				</linearGradient>
				<path class="st2" d="M97.32,350.43c-1.85-13.93,3.7-22.38-12.94-29.68c-16.63-7.31-25.41-15.76-20.79-28.77
					c4.62-13.02,28.88-13.7,37.19-2.74c8.32,10.96,14.09,23.75,13.17,42.24L97.32,350.43z"/>
				<path class="st3" d="M75.99,297.6c0,0,28.64-0.3,29.72,39.58"/>
			</g>
			<g>
				<linearGradient id="SVGID_3_" gradientUnits="userSpaceOnUse" x1="107.1592" y1="327.7393" x2="95.243" y2="260.1591">
					<stop  offset="0" style="stop-color:#148275"/>
					<stop  offset="0.0936" style="stop-color:#148A7C"/>
					<stop  offset="0.4505" style="stop-color:#14A692"/>
					<stop  offset="0.7646" style="stop-color:#14B79F"/>
					<stop  offset="1" style="stop-color:#14BDA4"/>
				</linearGradient>
				<path class="st4" d="M111.87,326.91c0,0-1.36-30.08-16.4-37.68c-15.04-7.59-20.79-11.42-18.25-21.01
					c2.54-9.59,23.33-8.91,32.11,1.83c8.78,10.73,14.78,23.06,14.78,42.7L111.87,326.91z"/>
				<path class="st3" d="M84.46,269.6c0,0,28.49,0.4,33.57,46.4"/>
			</g>
			<g>
				<linearGradient id="SVGID_4_" gradientUnits="userSpaceOnUse" x1="125.2045" y1="312.0663" x2="125.2045" y2="224.6614">
					<stop  offset="0" style="stop-color:#148275"/>
					<stop  offset="0.0936" style="stop-color:#148A7C"/>
					<stop  offset="0.4505" style="stop-color:#14A692"/>
					<stop  offset="0.7646" style="stop-color:#14B79F"/>
					<stop  offset="1" style="stop-color:#14BDA4"/>
				</linearGradient>
				<path class="st5" d="M121.57,312.07c0,0-3.23-17.58-10.4-36.53c-7.16-18.95-6.47-48.18,6.93-50.69
					c13.4-2.51,9.24,21.92,16.4,35.16c7.16,13.24,12.47,24.2,6.93,40.87L121.57,312.07z"/>
				<path class="st3" d="M118.03,230.63c-5.39,28.92,11.7,31.51,13.4,72.92"/>
			</g>
			<g>
				<linearGradient id="SVGID_5_" gradientUnits="userSpaceOnUse" x1="148.3642" y1="300.2393" x2="158.8471" y2="240.7879">
					<stop  offset="0" style="stop-color:#148275"/>
					<stop  offset="0.0936" style="stop-color:#148A7C"/>
					<stop  offset="0.4505" style="stop-color:#14A692"/>
					<stop  offset="0.7646" style="stop-color:#14B79F"/>
					<stop  offset="1" style="stop-color:#14BDA4"/>
				</linearGradient>
				<path class="st6" d="M140.98,298.94c0,0-6.12-19.88-0.58-37.97c5.54-18.09,24.26-23.8,30.49-15.69
					c6.24,8.11-10.63,21.81-4.97,41.9L140.98,298.94z"/>
				<path class="st3" d="M163.62,248.13c0,0-19.87,16.14-11.55,42.32"/>
			</g>
		</g>
		<g>
			<g>
				<linearGradient id="SVGID_6_" gradientUnits="userSpaceOnUse" x1="377.0431" y1="351.3193" x2="370.1071" y2="311.9829">
					<stop  offset="0" style="stop-color:#148275"/>
					<stop  offset="0.0936" style="stop-color:#148A7C"/>
					<stop  offset="0.4505" style="stop-color:#14A692"/>
					<stop  offset="0.7646" style="stop-color:#14B79F"/>
					<stop  offset="1" style="stop-color:#14BDA4"/>
				</linearGradient>
				<path class="st7" d="M374.75,346.01c-3.85-6.24-20.79-15.11-18.79-25.42c2-10.32,20.94-11.57,28.64,2.13
					c7.7,13.7,7.85,25.88,7.85,25.88L374.75,346.01z"/>
				<path class="st3" d="M365.74,319.99c0,0,16.02,3.72,16.09,24.5"/>
			</g>
			<g>
				<linearGradient id="SVGID_7_" gradientUnits="userSpaceOnUse" x1="402.5987" y1="348.6005" x2="402.5987" y2="291.3826">
					<stop  offset="0" style="stop-color:#148275"/>
					<stop  offset="0.0936" style="stop-color:#148A7C"/>
					<stop  offset="0.4505" style="stop-color:#14A692"/>
					<stop  offset="0.7646" style="stop-color:#14B79F"/>
					<stop  offset="1" style="stop-color:#14BDA4"/>
				</linearGradient>
				<path class="st8" d="M390.77,345.4c-4.77-9.59-10.32-30.9-4.47-43.99c5.85-13.09,23.56-14,22.48,1.07
					c-1.08,15.07-4.47,31.66,12.63,46.12L390.77,345.4z"/>
				<path class="st3" d="M397.85,297.38c0,0-11.32,10.2,2.31,45.44"/>
			</g>
			<g>
				<linearGradient id="SVGID_8_" gradientUnits="userSpaceOnUse" x1="426.9404" y1="353.1673" x2="426.9404" y2="275.3195">
					<stop  offset="0" style="stop-color:#148275"/>
					<stop  offset="0.0936" style="stop-color:#148A7C"/>
					<stop  offset="0.4505" style="stop-color:#14A692"/>
					<stop  offset="0.7646" style="stop-color:#14B79F"/>
					<stop  offset="1" style="stop-color:#14BDA4"/>
				</linearGradient>
				<path class="st9" d="M415.72,351.8c-7.85-10.05-15.61-19.79-13.12-34.86c2.49-15.07,9.73-20.09,21.9-28.77
					c12.17-8.68,23.72-17.35,26.95-10.2c3.23,7.15-19.71,23.14-21.79,36.84c-2.08,13.7,11.47,38.36,11.47,38.36L415.72,351.8z"/>
				<path class="st3" d="M444.05,283.07c0,0-47.11,21.46-24.13,65.53"/>
			</g>
			<g>
				<linearGradient id="SVGID_9_" gradientUnits="userSpaceOnUse" x1="445.2899" y1="356.5611" x2="455.8075" y2="296.9127">
					<stop  offset="0" style="stop-color:#148275"/>
					<stop  offset="0.0936" style="stop-color:#148A7C"/>
					<stop  offset="0.4505" style="stop-color:#14A692"/>
					<stop  offset="0.7646" style="stop-color:#14B79F"/>
					<stop  offset="1" style="stop-color:#14BDA4"/>
				</linearGradient>
				<path class="st10" d="M431.89,350.88c-2.16-12.48-8.23-34.4,7.59-47.49c15.82-13.09,38.61-2.28,35.69,8.52
					c-2.93,10.81-20.22,7.9-24.48,21.29c-4.27,13.4,1.5,24.57,1.5,24.57L431.89,350.88z"/>
				<path class="st3" d="M467.85,309.1c0,0-39.88-5.25-28.37,37.22"/>
			</g>
		</g>
		<path class="st11" d="M85.54,440.24h389.47c0,0,43.89-87.23-66.99-97.42c-110.88-10.2-90.09-62.26-189.42-67.28
			C119.26,270.51,71.68,351.04,85.54,440.24z"/>
	</g>
	<path class="st12" d="M454.83,440.2c-12.85-22.11-16.13-53.17,23.75-68.11c39.88-14.94,36.3-61.75,100.52-55.52
		s32.56,105.11,23,123.63H454.83z"/>
	<g>
		<g>
			<path class="st0" d="M381.84,238.69h-72.46c-1.15,0-2.08-0.92-2.08-2.06l0,0c0-1.13,0.93-2.06,2.08-2.06h72.46V238.69z"/>
			<path class="st13" d="M401.86,181v53.58h13.86l10.71-51.77c0.19-0.94-0.53-1.81-1.5-1.81H401.86z"/>
			<path class="st14" d="M413.64,238.69h-31.81v-4.11h33.88v2.04C415.72,237.77,414.79,238.69,413.64,238.69z"/>
			<path class="st0" d="M346.84,181h76.68l-11.09,53.58h-78.69l10.68-51.63C344.66,181.81,345.67,181,346.84,181z"/>
			<path class="st15" d="M336.98,230.47l9.51-45.96c0.14-0.7,0.77-1.2,1.49-1.2h70.82c0.96,0,1.69,0.87,1.49,1.81l-9.51,45.96
				c-0.14,0.7-0.77,1.2-1.49,1.2h-70.82C337.5,232.27,336.78,231.4,336.98,230.47z"/>
			<g>
				<g>
					<path class="st0" d="M375.69,226.53l0.27-2.54c-2.43-0.05-4.19-0.84-5.3-2.38c-1.01-1.39-1.51-3.24-1.51-5.54
						c0-0.23,0.01-0.46,0.02-0.7l3.73-0.97c-0.01,0.29-0.02,0.56-0.02,0.83c0.01,0.58,0.04,1.1,0.09,1.57
						c0.07,0.7,0.23,1.36,0.48,2.01c0.25,0.64,0.63,1.14,1.16,1.49c0.52,0.35,1.18,0.53,1.97,0.53c1.12,0,2-0.3,2.64-0.91
						c0.64-0.61,1.03-1.5,1.15-2.67c0.02-0.24,0.04-0.47,0.04-0.68c0-0.26-0.02-0.53-0.05-0.79c-0.07-0.47-0.17-0.87-0.3-1.21
						c-0.13-0.34-0.33-0.71-0.62-1.11c-0.29-0.4-0.54-0.72-0.77-0.98c-0.23-0.26-0.56-0.6-0.98-1.03l-4.61-4.5
						c-0.91-0.91-1.55-1.87-1.91-2.88c-0.25-0.71-0.38-1.52-0.38-2.43c0-0.4,0.02-0.81,0.07-1.24c0.22-2.09,1-3.73,2.33-4.92
						c1.33-1.19,3.06-1.83,5.17-1.92l0.25-2.5h1.27l-0.25,2.52c2.03,0.13,3.5,0.82,4.42,2.07c0.89,1.21,1.33,2.99,1.33,5.33
						c0,0.1,0,0.19,0,0.29l-3.55,0.94c0.01-0.28,0.02-0.55,0.02-0.81c0-0.52-0.02-0.98-0.07-1.39c-0.07-0.62-0.22-1.21-0.46-1.76
						c-0.23-0.55-0.59-0.96-1.09-1.22c-0.42-0.23-0.94-0.34-1.55-0.34c-0.11,0-0.22,0.01-0.35,0.02c-2.32,0.13-3.59,1.24-3.8,3.33
						c-0.02,0.23-0.04,0.44-0.04,0.65c0,0.59,0.09,1.1,0.27,1.55c0.24,0.6,0.69,1.23,1.33,1.89l4.64,4.48
						c1.21,1.19,2.14,2.45,2.77,3.8c0.5,1.06,0.75,2.23,0.75,3.51c0,0.34-0.02,0.68-0.05,1.04c-0.22,2-0.96,3.62-2.21,4.86
						c-1.26,1.24-2.83,1.96-4.72,2.16l-0.29,2.59H375.69z"/>
				</g>
			</g>
		</g>
		<g>
			<g>
				<line class="st16" x1="310.38" y1="245.39" x2="300.56" y2="440.24"/>
				<line class="st16" x1="429.65" y1="245.39" x2="439.47" y2="440.24"/>
				<line class="st16" x1="307.11" y1="310.28" x2="433.03" y2="310.28"/>
			</g>
			<line class="st17" x1="349.19" y1="245.39" x2="347.03" y2="440.24"/>
			<rect x="310" y="248.28" class="st18" width="119.89" height="5.33"/>
			<path class="st12" d="M438.62,249.43H301.41c-3,0-5.43-2.4-5.43-5.37l0,0c0-2.96,2.43-5.37,5.43-5.37h137.22
				c3,0,5.43,2.4,5.43,5.37l0,0C444.05,247.02,441.62,249.43,438.62,249.43z"/>
		</g>
	</g>
	<g>
		<g>
			<rect x="126.21" y="111.31" class="st17" width="166.18" height="70.57"/>
			<rect x="144.53" y="128.15" class="st11" width="41.81" height="4.17"/>
			<rect x="144.53" y="144.51" class="st15" width="132.75" height="4.17"/>
			<rect x="144.53" y="160.88" class="st15" width="132.75" height="4.17"/>
		</g>
		<g>
			<path class="st11" d="M76.64,145.11H30.62c-1.95,0-3.53-1.58-3.53-3.53v-28.9h49.55V145.11z"/>
			<path class="st19" d="M30.09,109.72c-1.66,0-3,1.33-3,2.97s1.34,2.97,3,2.97h46.55v-5.94H30.09z"/>
			<line class="st20" x1="30.71" y1="112.69" x2="76.64" y2="112.69"/>
			<g>
				<path class="st21" d="M51.8,140.9v-1.65c-2.81-0.09-4.28-1.8-4.43-5.12l2.71-0.56c0.06,2.23,0.7,3.34,1.93,3.34
					c0.47,0,0.82-0.14,1.05-0.43c0.23-0.28,0.34-0.67,0.34-1.15c0-0.36-0.04-0.68-0.12-0.97c-0.08-0.29-0.21-0.56-0.39-0.82
					c-0.18-0.26-0.36-0.48-0.55-0.67c-0.18-0.19-0.43-0.42-0.75-0.69l-2.23-1.92c-0.66-0.57-1.15-1.16-1.47-1.77
					c-0.32-0.61-0.48-1.38-0.48-2.3c0-1.24,0.36-2.23,1.08-2.95c0.72-0.72,1.71-1.12,2.96-1.19v-1.56h0.89v1.56
					c0.67,0.05,1.24,0.2,1.72,0.45c0.48,0.25,0.85,0.6,1.12,1.03c0.27,0.43,0.48,0.89,0.61,1.38c0.13,0.49,0.22,1.05,0.27,1.67
					l-2.66,0.52c-0.01-0.34-0.04-0.63-0.07-0.88c-0.03-0.25-0.08-0.5-0.16-0.76c-0.08-0.26-0.17-0.47-0.29-0.62
					c-0.12-0.16-0.27-0.29-0.47-0.38s-0.43-0.13-0.71-0.11c-0.46,0.03-0.81,0.18-1.05,0.45c-0.24,0.27-0.36,0.64-0.36,1.1
					c0,0.54,0.11,0.98,0.32,1.33c0.21,0.34,0.55,0.72,1.01,1.13l2.22,1.91c0.37,0.33,0.69,0.65,0.97,0.96
					c0.28,0.31,0.54,0.67,0.79,1.07c0.25,0.4,0.44,0.84,0.57,1.32c0.13,0.48,0.19,0.99,0.19,1.52c0,1.12-0.34,2.06-1.01,2.8
					c-0.67,0.74-1.56,1.18-2.68,1.3v1.67H51.8z"/>
			</g>
		</g>
		<g>
			<rect x="164.63" y="43.02" class="st17" width="59.31" height="38.67"/>
			<g>
				<polygon class="st15" points="210.53,53.37 210.53,51.55 207.18,51.55 205.93,51.55 205.33,51.55 205.33,68.44 179.69,68.44 
					179.69,70.27 183.96,70.27 206.25,70.27 210.53,70.27 210.53,68.44 207.18,68.44 207.18,53.37 				"/>
				<ellipse class="st15" cx="183.96" cy="72.55" rx="2.31" ry="2.28"/>
				<ellipse class="st15" cx="206.25" cy="72.55" rx="2.31" ry="2.28"/>
			</g>
			<polygon class="st15" points="203.13,51.55 177.03,51.55 179.69,66.56 203.13,66.56 			"/>
		</g>
		<g>
			<rect x="431.47" y="55.35" class="st17" width="52.77" height="34.4"/>
			<path class="st11" d="M468.75,65.24c-3.33-6.23-10.89,1.38-10.89,1.38s-7.56-7.61-10.89-1.38c-4.78,8.95,10.89,16.68,10.89,16.68
				S473.53,74.19,468.75,65.24z"/>
		</g>
		<g>
			<path class="st12" d="M558.85,158.08H516.1c-2.43,0-4.41-1.97-4.41-4.41v-21.71c0-2.43,1.97-4.41,4.41-4.41h42.75
				c2.43,0,4.41,1.97,4.41,4.41v21.71C563.26,156.1,561.28,158.08,558.85,158.08z"/>
			<rect x="511.69" y="134.7" class="st22" width="51.57" height="3.46"/>
			<rect x="517.42" y="147.4" class="st21" width="7.08" height="3.39"/>
			<rect x="527.49" y="147.4" class="st21" width="7.08" height="3.39"/>
			<rect x="537.56" y="147.4" class="st21" width="14.38" height="3.39"/>
			<line class="st17" x1="517.42" y1="142.82" x2="541.43" y2="142.82"/>
		</g>
		<g>
			<polygon class="st23" points="384.43,138.57 342.39,138.57 347.06,84.98 378.6,84.98 			"/>
			<path class="st17" d="M348.6,85.93h20.17v-7.27c0-5.51-4.52-9.97-10.09-9.97l0,0c-5.57,0-10.09,4.46-10.09,9.97V85.93z"/>
			<polygon class="st11" points="376.39,138.57 334.35,138.57 339.02,84.98 370.55,84.98 			"/>
		</g>
		<g>
			<ellipse class="st17" cx="475.42" cy="217.31" rx="17.56" ry="17.35"/>
			<g>
				<path class="st11" d="M469.79,218.47c-1.29,0-2.23-0.36-2.82-1.08c-0.59-0.72-0.88-1.78-0.88-3.19v-0.89
					c0-1.43,0.29-2.49,0.86-3.17c0.57-0.68,1.52-1.02,2.85-1.02c1.33,0,2.28,0.33,2.86,0.99s0.87,1.7,0.87,3.11v1.02
					c0,1.41-0.29,2.46-0.88,3.16C472.05,218.12,471.1,218.47,469.79,218.47z M469.79,216.5c0.21,0,0.39-0.04,0.55-0.12
					c0.15-0.08,0.27-0.18,0.36-0.31c0.09-0.13,0.16-0.29,0.21-0.5c0.05-0.21,0.08-0.42,0.1-0.62c0.01-0.21,0.02-0.46,0.02-0.75
					v-0.91c0-0.3-0.01-0.55-0.02-0.75c-0.01-0.19-0.04-0.39-0.09-0.58c-0.05-0.2-0.11-0.35-0.2-0.46c-0.09-0.11-0.21-0.2-0.36-0.27
					c-0.15-0.07-0.34-0.1-0.56-0.1s-0.41,0.04-0.56,0.11c-0.16,0.07-0.27,0.16-0.36,0.27c-0.09,0.11-0.15,0.26-0.19,0.47
					c-0.05,0.2-0.07,0.4-0.09,0.59s-0.02,0.44-0.02,0.74v0.92c0,0.37,0.01,0.67,0.04,0.91c0.03,0.24,0.08,0.48,0.16,0.71
					c0.08,0.23,0.21,0.39,0.38,0.5C469.32,216.45,469.53,216.5,469.79,216.5z M472.01,226.02l4.8-16.82h2.02l-4.8,16.82H472.01z
					 M481.03,226.09c-1.29,0-2.23-0.36-2.82-1.08c-0.59-0.72-0.88-1.78-0.88-3.19v-0.89c0-1.43,0.29-2.49,0.86-3.17
					c0.57-0.68,1.52-1.02,2.85-1.02c1.33,0,2.28,0.33,2.86,0.99c0.58,0.66,0.87,1.7,0.87,3.11v1.03c0,1.41-0.29,2.46-0.88,3.16
					C483.29,225.74,482.34,226.09,481.03,226.09z M481.03,224.11c0.22,0,0.4-0.04,0.55-0.12c0.15-0.08,0.27-0.18,0.36-0.31
					c0.09-0.13,0.16-0.29,0.21-0.5c0.05-0.21,0.08-0.42,0.09-0.62s0.02-0.45,0.02-0.74v-0.91c0-0.3-0.01-0.55-0.02-0.75
					c-0.01-0.19-0.04-0.39-0.09-0.59c-0.04-0.2-0.11-0.35-0.19-0.46c-0.09-0.11-0.21-0.2-0.36-0.27c-0.15-0.07-0.34-0.11-0.57-0.11
					c-0.22,0-0.4,0.04-0.56,0.11c-0.15,0.07-0.27,0.16-0.36,0.27c-0.09,0.11-0.15,0.27-0.2,0.47c-0.04,0.2-0.07,0.4-0.09,0.59
					c-0.01,0.19-0.02,0.44-0.02,0.74v0.91c0,0.37,0.01,0.67,0.04,0.92c0.03,0.25,0.08,0.48,0.16,0.7c0.08,0.22,0.21,0.39,0.37,0.5
					C480.56,224.06,480.77,224.11,481.03,224.11z"/>
			</g>
		</g>
	</g>
	<g>
		<g>
			<path class="st24" d="M242.31,270.05c15.09,45.06,14.46,111.02,9.84,138.42l11.01,3.08c0,0,27.51-74.21,17.04-130.23
				L242.31,270.05z"/>
			<polygon class="st21" points="263.15,411.55 277.43,429.68 247.59,419.58 252.15,408.47 			"/>
		</g>
		<g>
			<g>
				<polygon class="st18" points="209.66,277.02 266.42,277.02 266.7,283.07 209.3,283.07 				"/>
				<line class="st16" x1="209.66" y1="275.53" x2="201.65" y2="440.24"/>
				<line class="st16" x1="266.34" y1="275.53" x2="274.34" y2="440.24"/>
				<line class="st16" x1="271.05" y1="372.58" x2="204.94" y2="372.58"/>
			</g>
			<path class="st12" d="M272.98,278.96h-69.97c-2.5,0-4.52-2.02-4.52-4.52v-1.7c0-2.5,2.02-4.52,4.52-4.52h69.97
				c2.5,0,4.52,2.02,4.52,4.52v1.7C277.5,276.93,275.48,278.96,272.98,278.96z"/>
		</g>
		<g>
			<path class="st18" d="M257.89,165.7c-11.8-25.57-17.98-70.56,18.6-74.67c0,0,11.09-8.68,24.07,3.2s-4.35,41.33-2.5,63.48
				c1.85,22.15,26.33,42.47,10.63,61.88C292.98,239,272.6,234,265,205.67C257.4,177.35,257.89,165.7,257.89,165.7z"/>
			<g>
				<path class="st25" d="M262.02,360.93l8.32,7.76c0,0,36.5-15.98,42.27-52.06s-19.64-64.16-36.73-77.18l-58.44-1.6
					c0,0-7.16,25.35,19.17,34.71c26.33,9.36,40.89,1.83,48.97,29.23C293.67,329.19,262.02,360.93,262.02,360.93z"/>
				<polygon class="st21" points="270.34,368.69 274.5,391.3 252.78,368.69 262.02,360.93 				"/>
			</g>
			<g>
				<path class="st26" d="M257.89,134.84l9.33,4.37l4.24-9.04c0,0,13.36,9.72,19.98-3.98c0,0,2.18,0.86,4.08,0
					c0,0-1.56-7.82,1.21-14.96c0,0-5.39-9.79-11.26-4.34c-3.76,3.49-7.45,5.54-8.84,4.05c-1.37-1.47,2.41-5-0.4-7.92
					c-2.45-2.55-6.89-2.2-8.82,0.71c-4.56,6.86,1.16,10.05,1.16,10.05L257.89,134.84z"/>
				
					<radialGradient id="SVGID_10_" cx="293.1669" cy="129.1593" r="6.1331" gradientTransform="matrix(1.031 0 0 1.0191 -19.6933 -8.4296)" gradientUnits="userSpaceOnUse">
					<stop  offset="0" style="stop-color:#000000"/>
					<stop  offset="1" style="stop-color:#000000;stop-opacity:0"/>
				</radialGradient>
				<path class="st27" d="M288.9,123.2c0-3.45-2.83-6.25-6.32-6.25c-3.49,0-6.32,2.8-6.32,6.25s2.83,6.25,6.32,6.25
					C286.07,129.45,288.9,126.66,288.9,123.2z"/>
				<path class="st28" d="M286.82,113.11c0,0,2.54-0.08,4.16,2.59"/>
				<g>
					<path class="st28" d="M268.24,106.59c0.23-0.54,0.54-1.11,0.93-1.7c0.62-0.93,1.72-1.48,2.94-1.48c0.88,0,1.69,0.28,2.32,0.8"
						/>
					<path class="st28" d="M270.92,103.59c0,0-0.08,1.76,0.81,2.99"/>
				</g>
				<linearGradient id="SVGID_11_" gradientUnits="userSpaceOnUse" x1="267.8282" y1="130.8059" x2="271.0514" y2="129.303">
					<stop  offset="0.2087" style="stop-color:#000000;stop-opacity:0"/>
					<stop  offset="1" style="stop-color:#000000"/>
				</linearGradient>
				<path class="st29" d="M269.97,133.35L269.97,133.35l1.49-3.17c-1.99-1.13-3.98-2.75-3.98-2.75S266.66,131.19,269.97,133.35z"/>
			</g>
			<g>
				<path class="st22" d="M282.57,245c-19.86,12.27-33.84,19.57-71.6,11.58c0,0,6.47-35.62,12.01-69.19
					c5.54-33.57,17.79-54.57,36.27-53.2c18.48,1.37,24.25,40.42,21.25,65.99c-2.99,25.57,2.07,43.84,2.07,43.84"/>
				<linearGradient id="SVGID_12_" gradientUnits="userSpaceOnUse" x1="256.7698" y1="210.343" x2="286.0902" y2="159.5586">
					<stop  offset="0.053" style="stop-color:#000000;stop-opacity:0"/>
					<stop  offset="1" style="stop-color:#000000"/>
				</linearGradient>
				<path class="st30" d="M265,149.08c0.72,1.55-12.29,16.36-12.29,16.36c-0.15,18.3,6.53,52.21,26.99,57.13c0,0,0,0,0,0
					c-0.29-6.43-0.17-14.01,0.81-22.39c1.65-14.09,0.63-32.27-3.7-45.98C269.72,150.82,264.79,148.63,265,149.08z"/>
			</g>
			<g>
				<path class="st26" d="M334.87,226.52c0,0-10.78-4.41-28.18-17.96c-8.76-6.82-14.98-19.58-20.44-32.71l-24.58,12.36
					c20.41,31.58,68.27,46.38,68.27,46.38h24.33C352.88,224.84,334.87,226.52,334.87,226.52z"/>
				<path class="st22" d="M270.6,141.23c0,0-30.14,4-12.73,40.23c1.12,2.33,2.4,4.58,3.8,6.75c11.46-3.16,19.34-7.94,24.58-12.36
					C280.85,162.89,276.21,149.57,270.6,141.23z"/>
			</g>
		</g>
	</g>
</g>
<g id="DESIGNED_BY_FREEPIK">
</g>
</svg>
