<?xml version="1.0" encoding="utf-8"?>
<!-- Generator: Adobe Illustrator 19.0.0, SVG Export Plug-In . SVG Version: 6.00 Build 0)  -->
<svg version="1.1" id="Layer_1" xmlns="http://www.w3.org/2000/svg" xmlns:xlink="http://www.w3.org/1999/xlink" x="0px" y="0px"
	 viewBox="0 0 612 792" style="enable-background:new 0 0 612 792;" xml:space="preserve">
<style type="text/css">
	.st0{fill:#EC994E;}
	.st1{fill:url(#XMLID_114_);}
	.st2{fill:none;stroke:#46BFAC;stroke-width:1.0929;stroke-linecap:round;stroke-miterlimit:10;}
	.st3{fill:url(#XMLID_115_);}
	.st4{fill:url(#XMLID_116_);}
	.st5{fill:url(#XMLID_117_);}
	.st6{fill:url(#XMLID_118_);}
	.st7{fill:url(#XMLID_119_);}
	.st8{fill:url(#XMLID_120_);}
	.st9{fill:url(#XMLID_121_);}
	.st10{fill:#F5CCA8;}
	.st11{fill:#68A3D8;}
	.st12{fill:#FFFFFF;}
	.st13{fill:#C1C7D3;}
	.st14{fill:#A9B2BF;}
	.st15{fill:#91B6E0;}
	.st16{font-family:'ArialMT';}
	.st17{font-size:41.8911px;}
	.st18{fill:none;stroke:#151449;stroke-width:2.2654;stroke-linecap:round;stroke-linejoin:round;stroke-miterlimit:10;}
	.st19{fill:none;stroke:#151449;stroke-width:1.1327;stroke-linecap:round;stroke-linejoin:round;stroke-miterlimit:10;}
	.st20{fill:#151449;}
	.st21{fill:#F37F91;}
	.st22{fill:#F595A6;}
	.st23{fill:none;stroke:#F37F91;stroke-width:0.8495;stroke-miterlimit:10;}
	.st24{fill:#E5E8F5;}
	.st25{fill:#FCD98E;}
	.st26{fill:#E36A7E;}
	.st27{fill:#32347C;}
	.st28{fill:#292966;}
	.st29{fill:#F7ABB7;}
	.st30{fill:none;stroke:#EF8998;stroke-width:0.5663;stroke-linecap:round;stroke-miterlimit:10;}
	.st31{opacity:0.75;fill:url(#XMLID_122_);enable-background:new    ;}
	.st32{opacity:0.5;fill:url(#XMLID_123_);enable-background:new    ;}
	
	 .motions  
	 {
		 animation : motion 4s infinite;

	 }
	 

	 @keyframes motion 
	 {
		0%
		{
			 transform :translate(0px 0px);
		}
		50%
		{
			transform:translate(0px ,20px);

		}
		100%
		{
			transform:translate(0px 0px);
		}
	 }
</style>
<g id="OBJECTS">
	<path id="XMLID_113_" class="st0" d="M44.9,626.8C75.5,492.5-18.2,431-0.1,347c18.2-83.9,70.3-138.5,161.4-114.4
		s128.7,96.6,243.6,67.9c114.9-28.7,173.5-6.9,178.2,59.2s-19.3,208.3-60,267.1H44.9z"/>
	<g id="XMLID_85_" >
		<g id="XMLID_100_">
			<g id="XMLID_110_">
				
					<linearGradient id="XMLID_114_" gradientUnits="userSpaceOnUse" x1="49.12" y1="1288.7723" x2="4.5763" y2="1211.6202" gradientTransform="matrix(1 0 0 1 0 -782)">
					<stop  offset="0" style="stop-color:#178376"/>
					<stop  offset="9.360000e-002" style="stop-color:#168B7D"/>
					<stop  offset="0.4505" style="stop-color:#17A692"/>
					<stop  offset="0.7646" style="stop-color:#1AB79E"/>
					<stop  offset="1" style="stop-color:#27BAA2"/>
				</linearGradient>
				<path id="XMLID_112_" class="st1" d="M34,515.5c-2.3-17.5,4.7-28.2-16.4-37.4s-32.2-19.8-26.4-36.2c5.9-16.4,36.6-17.2,47.2-3.4
					c10.6,13.8,17.9,29.9,16.7,53.2L34,515.5z"/>
				<path id="XMLID_111_" class="st2" d="M6.9,449c0,0,36.3-0.4,37.7,49.8"/>
			</g>
			<g id="XMLID_107_" >
				
					<linearGradient id="XMLID_115_" gradientUnits="userSpaceOnUse" x1="46.3459" y1="1268.868" x2="31.3499" y2="1183.821" gradientTransform="matrix(1 0 0 1 0 -782)">
					<stop  offset="0" style="stop-color:#178376"/>
					<stop  offset="9.360000e-002" style="stop-color:#168B7D"/>
					<stop  offset="0.4505" style="stop-color:#17A692"/>
					<stop  offset="0.7646" style="stop-color:#1AB79E"/>
					<stop  offset="1" style="stop-color:#27BAA2"/>
				</linearGradient>
				<path id="XMLID_109_" class="st3" d="M52.4,485.8c0,0-1.7-37.9-20.8-47.4C12.5,428.8,5.2,424,8.5,412
					c3.2-12.1,29.6-11.2,40.7,2.3s18.7,29,18.7,53.7L52.4,485.8z"/>
				<path id="XMLID_108_" class="st2" d="M17.7,413.7c0,0,36.1,0.5,42.6,58.4"/>
			</g>
			<g id="XMLID_104_" class="motions" >
				
					<linearGradient id="XMLID_116_" gradientUnits="userSpaceOnUse" x1="69.2924" y1="1249.2" x2="69.2924" y2="1139.1688" gradientTransform="matrix(1 0 0 1 0 -782)">
					<stop  offset="0" style="stop-color:#178376"/>
					<stop  offset="9.360000e-002" style="stop-color:#168B7D"/>
					<stop  offset="0.4505" style="stop-color:#17A692"/>
					<stop  offset="0.7646" style="stop-color:#1AB79E"/>
					<stop  offset="1" style="stop-color:#27BAA2"/>
				</linearGradient>
				<path id="XMLID_106_" class="st4" d="M64.7,467.2c0,0-4.1-22.1-13.2-46c-9.1-23.9-8.2-60.6,8.8-63.8c17-3.2,11.7,27.6,20.8,44.3
					c9.1,16.7,15.8,30.5,8.8,51.4L64.7,467.2z"/>
				<path id="XMLID_105_" class="st2" d="M60.3,364.7c-6.8,36.4,14.8,39.7,17,91.8"/>
			</g>
			<g id="XMLID_101_">
				
					<linearGradient id="XMLID_117_" gradientUnits="userSpaceOnUse" x1="98.8416" y1="1234.2643" x2="112.0466" y2="1159.3752" gradientTransform="matrix(1 0 0 1 0 -782)">
					<stop  offset="0" style="stop-color:#178376"/>
					<stop  offset="9.360000e-002" style="stop-color:#168B7D"/>
					<stop  offset="0.4505" style="stop-color:#17A692"/>
					<stop  offset="0.7646" style="stop-color:#1AB79E"/>
					<stop  offset="1" style="stop-color:#27BAA2"/>
				</linearGradient>
				<path id="XMLID_103_" class="st5" d="M89.4,450.6c0,0-7.8-25-0.7-47.8c7-22.8,30.8-30,38.7-19.7c7.9,10.2-13.5,27.5-6.3,52.7
					L89.4,450.6z"/>
				<path id="XMLID_102_" class="st2" d="M118.1,386.7c0,0-25.2,20.3-14.7,53.3"/>
			</g>
		</g>
		<g id="XMLID_87_">
			<g id="XMLID_97_">
				
					<linearGradient id="XMLID_118_" gradientUnits="userSpaceOnUse" x1="388.7842" y1="1298.5977" x2="380.045" y2="1249.0352" gradientTransform="matrix(1 0 0 1 0 -782)">
					<stop  offset="0" style="stop-color:#178376"/>
					<stop  offset="9.360000e-002" style="stop-color:#168B7D"/>
					<stop  offset="0.4505" style="stop-color:#17A692"/>
					<stop  offset="0.7646" style="stop-color:#1AB79E"/>
					<stop  offset="1" style="stop-color:#27BAA2"/>
				</linearGradient>
				<path id="XMLID_99_" class="st6" d="M385.9,509.9c-4.9-7.9-26.4-19-23.8-32c2.5-13,26.6-14.6,36.3,2.7c9.7,17.3,10,32.6,10,32.6
					L385.9,509.9z"/>
				<path id="XMLID_98_" class="st2" d="M374.5,477.1c0,0,20.3,4.7,20.4,30.8"/>
			</g>
			<g id="XMLID_94_">
				
					<linearGradient id="XMLID_119_" gradientUnits="userSpaceOnUse" x1="421.1599" y1="1295.1" x2="421.1599" y2="1223.075" gradientTransform="matrix(1 0 0 1 0 -782)">
					<stop  offset="0" style="stop-color:#178376"/>
					<stop  offset="9.360000e-002" style="stop-color:#168B7D"/>
					<stop  offset="0.4505" style="stop-color:#17A692"/>
					<stop  offset="0.7646" style="stop-color:#1AB79E"/>
					<stop  offset="1" style="stop-color:#27BAA2"/>
				</linearGradient>
				<path id="XMLID_96_" class="st7" d="M406.2,509.1c-6.1-12.1-13.1-38.9-5.7-55.4s29.9-17.6,28.5,1.3c-1.4,19-5.7,39.9,16,58.1
					L406.2,509.1z"/>
				<path id="XMLID_95_" class="st2" d="M415.2,448.7c0,0-14.4,12.8,2.9,57.2"/>
			</g>
			<g id="XMLID_91_">
				
					<linearGradient id="XMLID_120_" gradientUnits="userSpaceOnUse" x1="452.1922" y1="1300.9008" x2="452.1922" y2="1202.8667" gradientTransform="matrix(1 0 0 1 0 -782)">
					<stop  offset="0" style="stop-color:#178376"/>
					<stop  offset="9.360000e-002" style="stop-color:#168B7D"/>
					<stop  offset="0.4505" style="stop-color:#17A692"/>
					<stop  offset="0.7646" style="stop-color:#1AB79E"/>
					<stop  offset="1" style="stop-color:#27BAA2"/>
				</linearGradient>
				<path id="XMLID_93_" class="st8" d="M437.9,517.2c-10-12.7-19.8-24.9-16.6-43.9s12.3-25.3,27.8-36.2
					c15.4-10.9,30.1-21.8,34.2-12.8s-25,29.1-27.6,46.4c-2.6,17.3,14.5,48.3,14.5,48.3L437.9,517.2z"/>
				<path id="XMLID_92_" class="st2" d="M473.8,430.7c0,0-59.8,27-30.6,82.5"/>
			</g>
			<g id="XMLID_88_">
				
					<linearGradient id="XMLID_121_" gradientUnits="userSpaceOnUse" x1="475.4813" y1="1305.1671" x2="488.7172" y2="1230.1025" gradientTransform="matrix(1 0 0 1 0 -782)">
					<stop  offset="0" style="stop-color:#178376"/>
					<stop  offset="9.360000e-002" style="stop-color:#168B7D"/>
					<stop  offset="0.4505" style="stop-color:#17A692"/>
					<stop  offset="0.7646" style="stop-color:#1AB79E"/>
					<stop  offset="1" style="stop-color:#27BAA2"/>
				</linearGradient>
				<path id="XMLID_90_" class="st9" d="M458.4,516c-2.7-15.7-10.4-43.3,9.6-59.8c20.1-16.5,49-2.9,45.3,10.7
					c-3.7,13.6-25.6,9.9-31.1,26.8c-5.4,16.9,1.9,30.9,1.9,30.9L458.4,516z"/>
				<path id="XMLID_89_" class="st2" d="M504,463.4c0,0-50.6-6.6-36,46.9"/>
			</g>
		</g>
		<path id="XMLID_86_" class="st10" d="M19,628.5h494c0,0,55.7-109.8-85-122.6c-140.6-12.9-114.2-78.4-240.2-84.7
			C61.8,414.9,1.5,516.2,19,628.5z"/>
	</g>
	<path id="XMLID_84_" class="st11" d="M487.5,628.4c-16.3-27.8-20.5-66.9,30.1-85.7s46-77.7,127.5-69.9
		c81.5,7.8,41.3,132.3,29.2,155.6H487.5L487.5,628.4z"/>
	<g id="XMLID_68_" class="motions">
		<g id="XMLID_77_">
			<path id="XMLID_83_" class="st12" d="M394.9,374.8H303c-1.5,0-2.6-1.2-2.6-2.6l0,0c0-1.4,1.2-2.6,2.6-2.6h91.9V374.8z"/>
			<path id="XMLID_82_" class="st13" d="M420.3,302.2v67.4h17.6l13.5-65.1c0.2-1.2-0.7-2.3-1.9-2.3H420.3z"/>
			<path id="XMLID_81_" class="st14" d="M435.2,374.8h-40.3v-5.2h43v2.6C437.9,373.6,436.7,374.8,435.2,374.8z"/>
			<path id="XMLID_80_" class="st12" d="M350.5,302.2h97.3l-14.1,67.4h-99.8l13.5-65C347.7,303.2,349,302.2,350.5,302.2z"/>
			<path id="XMLID_79_" class="st15" d="M338,364.5l12.1-57.9c0.2-0.9,1-1.5,1.9-1.5h89.8c1.2,0,2.1,1.1,1.9,2.3l-12.1,57.8
				c-0.2,0.9-1,1.5-1.9,1.5h-89.8C338.6,366.7,337.7,365.6,338,364.5z"/>
			<text id="XMLID_78_" transform="matrix(0.37 0 0 1 350.7332 349.6743)" class="st12 st16 st17">ShoppingElf</text>
		</g>
		<g id="XMLID_69_" >
			<g id="XMLID_73_">
				<line id="XMLID_76_" class="st18" x1="304.2" y1="383.2" x2="291.8" y2="628.5"/>
				<line id="XMLID_75_" class="st18" x1="455.5" y1="383.2" x2="468" y2="628.5"/>
				<line id="XMLID_74_" class="st18" x1="300.1" y1="464.9" x2="459.8" y2="464.9"/>
			</g>
			<line id="XMLID_72_" class="st19" x1="353.5" y1="383.2" x2="350.7" y2="628.5"/>
			<rect id="XMLID_71_" x="303.8" y="386.9" class="st20" width="152.1" height="6.7"/>
			<path id="XMLID_70_" class="st11" d="M466.9,388.3h-174c-3.8,0-6.9-3-6.9-6.8l0,0c0-3.7,3.1-6.8,6.9-6.8h174c3.8,0,6.9,3,6.9,6.8
				l0,0C473.8,385.3,470.7,388.3,466.9,388.3z"/>
		</g>
	</g>
	<g id="XMLID_31_" class="motions">
		<g id="XMLID_62_">
			<path id="XMLID_67_" class="st21" d="M7.8,257h-58.4c-2.5,0-4.5-2-4.5-4.4v-36.4H7.8V257z"/>
			<path id="XMLID_66_" class="st22" d="M-51.3,212.5c-2.1,0-3.8,1.7-3.8,3.7s1.7,3.7,3.8,3.7h59v-7.5h-59V212.5z"/>
			<line id="XMLID_65_" class="st23" x1="-50.5" y1="216.2" x2="7.8" y2="216.2"/>
			<g id="XMLID_63_">
				<path id="XMLID_64_" class="st24 " d="M-23.8,251.7v-2.1c-3.6-0.1-5.4-2.3-5.6-6.4l3.4-0.7c0.1,2.8,0.9,4.2,2.4,4.2
					c0.6,0,1-0.2,1.3-0.5c0.3-0.4,0.4-0.8,0.4-1.4c0-0.5-0.1-0.9-0.2-1.2c-0.1-0.4-0.3-0.7-0.5-1s-0.5-0.6-0.7-0.8s-0.5-0.5-1-0.9
					l-2.8-2.4c-0.8-0.7-1.5-1.5-1.9-2.2s-0.6-1.7-0.6-2.9c0-1.6,0.5-2.8,1.4-3.7s2.2-1.4,3.8-1.5v-2h1.1v2c0.8,0.1,1.6,0.3,2.2,0.6
					s1.1,0.8,1.4,1.3s0.6,1.1,0.8,1.7c0.2,0.6,0.3,1.3,0.3,2.1l-3.4,0.7c0-0.4-0.1-0.8-0.1-1.1s-0.1-0.6-0.2-1
					c-0.1-0.3-0.2-0.6-0.4-0.8c-0.2-0.2-0.3-0.4-0.6-0.5s-0.5-0.2-0.9-0.1c-0.6,0-1,0.2-1.3,0.6c-0.3,0.3-0.5,0.8-0.5,1.4
					c0,0.7,0.1,1.2,0.4,1.7c0.3,0.4,0.7,0.9,1.3,1.4l2.8,2.4c0.5,0.4,0.9,0.8,1.2,1.2c0.4,0.4,0.7,0.8,1,1.3s0.6,1.1,0.7,1.7
					c0.2,0.6,0.2,1.2,0.2,1.9c0,1.4-0.4,2.6-1.3,3.5c-0.8,0.9-2,1.5-3.4,1.6v2.1L-23.8,251.7L-23.8,251.7z"/>
			</g>
		</g>
		<g id="XMLID_55_" class="motions">
			<rect id="XMLID_61_" x="119.4" y="128.5" class="st19" width="75.2" height="48.7"/>
			<g id="XMLID_57_">
				<polygon id="XMLID_60_" class="st15" points="177.6,141.5 177.6,139.2 173.3,139.2 171.8,139.2 171,139.2 171,160.5 
					138.5,160.5 138.5,162.8 143.9,162.8 172.2,162.8 177.6,162.8 177.6,160.5 173.3,160.5 173.3,141.5 				"/>
				<ellipse id="XMLID_59_" class="st15" cx="143.9" cy="165.7" rx="2.9" ry="2.9"/>
				<ellipse id="XMLID_58_" class="st15" cx="172.2" cy="165.7" rx="2.9" ry="2.9"/>
			</g>
			<polygon id="XMLID_56_" class="st15" points="168.2,139.2 135.1,139.2 138.5,158.1 168.2,158.1 			"/>
		</g>
		<g id="XMLID_52_" class="motions">
			<rect id="XMLID_54_" x="457.8" y="144" class="st19" width="66.9" height="43.3"/>
			<path id="XMLID_53_" class="st21" d="M505.1,156.5c-4.2-7.8-13.8,1.7-13.8,1.7s-9.6-9.6-13.8-1.7c-6.1,11.3,13.8,21,13.8,21
				S511.2,167.7,505.1,156.5z"/>
		</g>
		<g id="XMLID_45_" class="motions">
			<path id="XMLID_51_" class="st11" d="M619.4,273.3h-54.2c-3.1,0-5.6-2.5-5.6-5.6v-27.2c0-3.1,2.5-5.6,5.6-5.6h54.2
				c3.1,0,5.6,2.5,5.6,5.6v27.3C625,270.8,622.5,273.3,619.4,273.3z"/>
			<rect id="XMLID_50_" x="559.6" y="243.9" class="st25" width="65.4" height="4.4"/>
			<rect id="XMLID_49_" x="566.9" y="259.9" class="st24" width="9" height="4.3"/>
			<rect id="XMLID_48_" x="579.6" y="259.9" class="st24" width="9" height="4.3"/>
			<rect id="XMLID_47_" x="592.4" y="259.9" class="st24" width="18.2" height="4.3"/>
			<line id="XMLID_46_" class="st19" x1="566.9" y1="254.1" x2="597.3" y2="254.1"/>
		</g>
		<g id="XMLID_41_" class="motions">
			<polygon id="XMLID_44_" class="st26" points="398.2,248.8 344.8,248.8 350.8,181.3 390.8,181.3 			"/>
			<path id="XMLID_43_" class="st19" d="M352.7,182.5h25.6v-9.2c0-6.9-5.7-12.5-12.8-12.5l0,0c-7.1,0-12.8,5.6-12.8,12.5V182.5
				L352.7,182.5z"/>
			<polygon id="XMLID_42_" class="st21" points="388,248.8 334.6,248.8 340.6,181.3 380.6,181.3 			"/>
		</g>
		<g id="XMLID_32_">
			<ellipse id="XMLID_40_" class="st19" cx="513.6" cy="347.9" rx="22.3" ry="21.8"/>
			<g id="XMLID_33_">
				<path id="XMLID_34_" class="st21" d="M506.4,349.3c-1.6,0-2.8-0.5-3.6-1.4c-0.7-0.9-1.1-2.2-1.1-4v-1.1c0-1.8,0.4-3.1,1.1-4
					c0.7-0.9,1.9-1.3,3.6-1.3s2.9,0.4,3.6,1.2c0.7,0.8,1.1,2.1,1.1,3.9v1.3c0,1.8-0.4,3.1-1.1,4
					C509.3,348.9,508.1,349.3,506.4,349.3z M506.4,346.9c0.3,0,0.5-0.1,0.7-0.2c0.2-0.1,0.3-0.2,0.5-0.4c0.1-0.2,0.2-0.4,0.3-0.6
					c0.1-0.3,0.1-0.5,0.1-0.8c0-0.3,0-0.6,0-0.9v-1.1c0-0.4,0-0.7,0-0.9s-0.1-0.5-0.1-0.7c-0.1-0.3-0.1-0.4-0.3-0.6
					c-0.1-0.1-0.3-0.3-0.5-0.3c-0.2-0.1-0.4-0.1-0.7-0.1s-0.5,0.1-0.7,0.1c-0.2,0.1-0.3,0.2-0.5,0.3c-0.1,0.1-0.2,0.3-0.2,0.6
					c-0.1,0.3-0.1,0.5-0.1,0.7s0,0.6,0,0.9v1.2c0,0.5,0,0.8,0.1,1.1c0,0.3,0.1,0.6,0.2,0.9c0.1,0.3,0.3,0.5,0.5,0.6
					C505.8,346.8,506.1,346.9,506.4,346.9z M509.3,358.9l6.1-21.2h2.6l-6.1,21.2H509.3L509.3,358.9z M520.7,358.9
					c-1.6,0-2.8-0.5-3.6-1.4c-0.7-0.9-1.1-2.2-1.1-4v-1.1c0-1.8,0.4-3.1,1.1-4c0.7-0.9,1.9-1.3,3.6-1.3c1.7,0,2.9,0.4,3.6,1.2
					c0.7,0.8,1.1,2.1,1.1,3.9v1.3c0,1.8-0.4,3.1-1.1,4C523.6,358.5,522.4,358.9,520.7,358.9z M520.7,356.4c0.3,0,0.5-0.1,0.7-0.2
					c0.2-0.1,0.3-0.2,0.5-0.4c0.2-0.2,0.2-0.4,0.3-0.6c0.1-0.3,0.1-0.5,0.1-0.8c0-0.3,0-0.6,0-0.9v-1.1c0-0.4,0-0.7,0-0.9
					s-0.1-0.5-0.1-0.7c-0.1-0.3-0.1-0.4-0.2-0.6c-0.1-0.1-0.3-0.3-0.5-0.3c-0.2-0.1-0.4-0.1-0.7-0.1s-0.5,0.1-0.7,0.1
					c-0.2,0.1-0.3,0.2-0.5,0.3c-0.1,0.1-0.2,0.3-0.3,0.6c-0.1,0.3-0.1,0.5-0.1,0.7s0,0.6,0,0.9v1.1c0,0.5,0,0.8,0.1,1.2
					c0,0.3,0.1,0.6,0.2,0.9c0.1,0.3,0.3,0.5,0.5,0.6C520.1,356.4,520.4,356.4,520.7,356.4z"/>
			</g>
		</g>
	</g>
	<g id="XMLID_2_" class="motions">
		<g id="XMLID_28_">
			<path id="XMLID_30_" class="st27" d="M217.9,414.3C237,471,236.2,554,230.4,588.5l14,3.9c0,0,34.9-93.4,21.6-163.9L217.9,414.3z"
				/>
			<polygon id="XMLID_29_" class="st24" points="244.3,592.4 262.4,615.2 224.6,602.5 230.4,588.5 			"/>
		</g>
		<g id="XMLID_21_">
			<g id="XMLID_23_">
				<polygon id="XMLID_27_" class="st20" points="176.5,423 248.5,423 248.8,430.7 176,430.7 				"/>
				<line id="XMLID_26_" class="st18" x1="176.5" y1="421.2" x2="166.3" y2="628.5"/>
				<line id="XMLID_25_" class="st18" x1="248.4" y1="421.2" x2="258.5" y2="628.5"/>
				<line id="XMLID_24_" class="st18" x1="254.4" y1="543.3" x2="170.5" y2="543.3"/>
			</g>
			<path id="XMLID_22_" class="st11" d="M256.8,425.5H168c-3.2,0-5.7-2.5-5.7-5.7v-2.1c0-3.1,2.6-5.7,5.7-5.7h88.8
				c3.2,0,5.7,2.5,5.7,5.7v2.1C262.5,422.9,260,425.5,256.8,425.5z"/>
		</g>
		<g id="XMLID_3_">
			<path id="XMLID_20_" class="st20" d="M237.7,282.9c-15-32.2-22.8-88.8,23.6-94c0,0,14.1-10.9,30.5,4c16.5,15-5.5,52-3.2,79.9
				c2.3,27.9,33.4,53.5,13.5,77.9c-19.9,24.4-45.8,18.1-55.4-17.5C237,297.6,237.7,282.9,237.7,282.9z"/>
			<g id="XMLID_17_">
				<path id="XMLID_19_" class="st28" d="M242.9,528.7l10.6,9.8c0,0,46.3-20.1,53.6-65.5s-24.9-80.8-46.6-97.2l-74.1-2
					c0,0-9.1,31.9,24.3,43.7c33.4,11.8,51.9,2.3,62.1,36.8C283,488.7,242.9,528.7,242.9,528.7z"/>
				<polygon id="XMLID_18_" class="st24" points="253.5,538.4 258.7,566.9 231.2,538.4 242.9,528.7 				"/>
			</g>
			<g id="XMLID_10_">
				<path id="XMLID_16_" class="st29" d="M237.7,244.1l11.8,5.5l5.4-11.4c0,0,16.9,12.2,25.3-5c0,0,2.8,1.1,5.2,0
					c0,0-2-9.8,1.5-18.8c0,0-6.8-12.3-14.3-5.5c-4.8,4.4-9.5,7-11.2,5.1s3.1-6.3-0.5-10c-3.1-3.2-8.7-2.8-11.2,0.9
					c-5.8,8.6,1.5,12.7,1.5,12.7L237.7,244.1z"/>
				<path id="XMLID_15_" class="st30" d="M274.4,216.7c0,0,3.2-0.1,5.3,3.3"/>
				<g id="XMLID_12_">
					<path id="XMLID_14_" class="st30" d="M250.8,208.5c0.3-0.7,0.7-1.4,1.2-2.1c0.8-1.2,2.2-1.9,3.7-1.9c1.1,0,2.1,0.4,2.9,1"/>
					<path id="XMLID_13_" class="st30" d="M254.2,204.7c0,0-0.1,2.2,1,3.8"/>
				</g>
				
					<linearGradient id="XMLID_122_" gradientUnits="userSpaceOnUse" x1="250.2682" y1="1021.0025" x2="254.3561" y2="1019.0964" gradientTransform="matrix(1 0 0 1 0 -782)">
					<stop  offset="0.2087" style="stop-color:#010101;stop-opacity:0"/>
					<stop  offset="1" style="stop-color:#010101"/>
				</linearGradient>
				<path id="XMLID_11_" class="st31" d="M253,242.2L253,242.2l1.9-4c-2.5-1.4-5-3.5-5-3.5S248.8,239.5,253,242.2z"/>
			</g>
			<g id="XMLID_7_">
				<path id="XMLID_9_" class="st25" d="M269,382.7c-25.2,15.4-42.9,24.6-90.8,14.6c0,0,8.2-44.8,15.2-87.1s22.6-68.7,46-67
					s30.8,50.9,27,83.1c-3.9,32.2,2.6,55.2,2.6,55.2"/>
				
					<linearGradient id="XMLID_123_" gradientUnits="userSpaceOnUse" x1="236.3524" y1="1121.0762" x2="273.2688" y2="1057.1351" gradientTransform="matrix(1 0 0 1 0 -782)">
					<stop  offset="5.300000e-002" style="stop-color:#010101;stop-opacity:0"/>
					<stop  offset="1" style="stop-color:#010101"/>
				</linearGradient>
				<path id="XMLID_8_" class="st32" d="M246.7,262c0.9,2-15.6,20.6-15.6,20.6c-0.2,23,8.3,65.7,34.2,71.9l0,0
					c-0.4-8.1-0.2-17.6,1-28.2c2.1-17.7,0.8-40.6-4.7-57.9C252.7,264.2,246.4,261.4,246.7,262z"/>
			</g>
			<g id="XMLID_4_">
				<path id="XMLID_6_" class="st29" d="M335.3,359.5c0,0-13.7-5.6-35.7-22.6c-11.1-8.6-19-24.6-25.9-41.2l-31.2,15.6
					c25.9,39.8,86.6,58.4,86.6,58.4h30.8C358.2,357.4,335.3,359.5,335.3,359.5z"/>
				<path id="XMLID_5_" class="st25" d="M253.8,252.1c0,0-38.2,5-16.1,50.6c1.4,2.9,3,5.8,4.8,8.5c14.5-4,24.5-10,31.2-15.6
					C266.8,279.4,260.9,262.6,253.8,252.1z"/>
			</g>
		</g>
	</g>
</g>
</svg>
