<?xml version="1.0" encoding="utf-8"?>
<!-- Generator: Adobe Illustrator 19.0.0, SVG Export Plug-In . SVG Version: 6.00 Build 0)  -->
<svg version="1.1" id="Layer_1" xmlns="http://www.w3.org/2000/svg" xmlns:xlink="http://www.w3.org/1999/xlink" x="0px" y="0px"
	 viewBox="-155 247 300 300" style="enable-background:new -155 247 300 300;" xml:space="preserve">
<style type="text/css">
	.st0{fill:#736759;}
	.st1{fill:#A12A22;}
	.st2{fill:url(#XMLID_2_);}
	.st3{fill:#B63227;}
	.st4{fill:#BC3529;}
	.st5{fill:#EF4237;}
	.st6{fill:#471212;}
	.st7{fill:#5A4B43;}
	.st8{fill:#F7DC6F;}
	.st9{font-family:'MyriadPro-Regular';}
	.st10{font-size:54.5321px;}
	.st11{fill:none;}
</style>
<g id="XMLID_3_">
	<g id="XMLID_4_">
		<path id="XMLID_13_" class="st0" d="M49.3,274.6c0.2-11.4-4.5-23.5-20.9-24.2c-1.5-0.1-2.9-0.1-4.3-0.1
			C9.5,250.1,2.5,255-0.3,263.6c-2.9,8.5-2.8,20.3-5.3,35.6l3.1,0.4c2.6-15.5,2.5-27.5,5.2-35.1c2.8-7.5,7.4-11.2,21.5-11.3
			c1.3,0,2.7,0,4.1,0.1c14.3,0.8,17.7,10.3,17.9,21.3c0,12.1-4.9,24.8-4.9,24.8l2.9,1C44.3,300.4,49.3,287.4,49.3,274.6z"/>
		<polygon id="XMLID_12_" class="st1" points="-41.8,275.8 -42.3,291.5 -38.8,293.3 1.8,307.7 88.4,306.7 107.3,281.1 		"/>
		
			<linearGradient id="XMLID_2_" gradientUnits="userSpaceOnUse" x1="-468.4373" y1="861.7675" x2="-463.1001" y2="838.6633" gradientTransform="matrix(-1 0 0 1 -513.7549 -542)">
			<stop  offset="0" style="stop-color:#EF4237"/>
			<stop  offset="1" style="stop-color:#A21D26"/>
		</linearGradient>
		<polygon id="XMLID_11_" class="st2" points="-49,283.3 -67,285.2 -61.6,296.3 -41.1,291.2 -41.8,275.8 		"/>
		<polygon id="XMLID_10_" class="st3" points="95.6,288.8 84.4,289.3 70.4,398.7 87.4,480.3 110.8,458.6 110.8,369.9 		"/>
		<polygon id="XMLID_9_" class="st4" points="107.3,281.1 95.6,288.8 110.8,458.6 131.4,452.6 		"/>
		<polygon id="XMLID_8_" class="st5" points="84.4,289.3 -67,285.2 -79.1,468.1 87.4,480.3 		"/>
		<path id="XMLID_7_" class="st6" d="M28.9,298.3c0,2,1.6,3.6,3.6,3.6s3.6-1.6,3.6-3.6s-1.6-3.6-3.6-3.6S28.9,296.3,28.9,298.3z"/>
		<path id="XMLID_6_" class="st6" d="M-18.1,297.4c0,2,1.6,3.6,3.6,3.6s3.6-1.6,3.6-3.6s-1.6-3.6-3.6-3.6S-18.1,295.4-18.1,297.4z"
			/>
		<path id="XMLID_5_" class="st7" d="M39,273.4c0.2-11.4-4.5-23.5-20.9-24.2c-1.5-0.1-2.9-0.1-4.3-0.1c-14.6-0.1-21.6,4.7-24.4,13.3
			c-2.8,8.2-2.8,19.6-5.1,34.2c-0.1,0.8,0.4,1.5,1.3,1.7l0,0c0.9,0.1,1.7-0.4,1.8-1.2c2.3-14.8,2.3-26.3,4.9-33.7
			c2.8-7.5,7.4-11.2,21.5-11.3c1.3,0,2.7,0,4.1,0.1c14.3,0.8,17.7,10.3,17.9,21.3c0,9.8-3.2,19.9-4.4,23.5c-0.3,0.7,0.2,1.5,1,1.8
			l0,0c0.8,0.3,1.7-0.1,2-0.9C35.7,294.1,39,283.7,39,273.4z"/>
	</g>
</g>
<text transform="matrix(0.7556 7.839597e-002 -0.1032 0.9947 -74.1856 389.5274)" class="st8 st9 st10">Loading....</text>
<rect x="25" y="388" class="st11" width="25" height="27"/>
</svg>
