<?xml version="1.0" encoding="utf-8"?>
<!-- Generator: Adobe Illustrator 19.0.0, SVG Export Plug-In . SVG Version: 6.00 Build 0)  -->
<svg version="1.1" id="Layer_1" xmlns="http://www.w3.org/2000/svg" xmlns:xlink="http://www.w3.org/1999/xlink" x="0px" y="0px"
	 viewBox="0 0 1920 792" style="enable-background:new 0 0 1920 792;" xml:space="preserve">
<style type="text/css">
	.st0{fill:#E57F80;stroke:#E57E80;stroke-miterlimit:10;}
	.st1{fill:#E89296;stroke:#E57E80;stroke-miterlimit:10;}
	.st2{fill:#F3AEB5;stroke:#EAB7BA;stroke-miterlimit:10;}
</style>
<path id="XMLID_1_" class="st0" d="M0.7,652.1c-1.2-40.8-2.4-81.6-3.5-122.4c-0.8-30.6-1.6-61.2-2.4-91.8
	C49.9,393.5,142.5,330,271.3,290.8c50.7-15.4,127.9-33.5,236.5-35.3c215.2-3.6,349.7,60,484.7,96.5
	c473.9,128,842.8-110.3,924.7,36.5c10.9,19.5,20.3,52.3,5,107.2c-1.3,4.3-2.6,8.5-3.9,12.8c18.6,109.2,10.4,139.6-2.4,144.7
	c-3.6,1.4-6.1,0.3-25.9,0c-21.5-0.3-35.2,0.8-44.7,1.2c-41.6,1.8-151.3-3.1-249.4-2.4c-122.3,0.9-180,10.1-231.8,2.4
	c-8.7-1.3-32.5-5.4-64.7-4.7c-20.4,0.4-27.2,2.4-50.6,3.5c-27.7,1.4-43.2-0.1-69.4-1.2c-34-1.4-48.2-0.4-97.6,0
	c-76.1,0.7-121-0.8-212.9-1.2c-93.5-0.4-98,0.9-276.5,2.4c-17.9,0.1-132.5,1.1-240,1.2C268.5,654.6,148.3,654.2,0.7,652.1z"/>
<path id="XMLID_4_" class="st0" d="M836.6,863.5"/>
<path id="XMLID_5_" class="st1" d="M-1.7,637.4c83.4-19.4,228.6-49.1,411.6-63.5c344.6-27.1,539.3,22.4,1039,50.6
	c105.8,6,273,13.7,481.6,15.3c0,56.1,0,112.2,0,168.2c-645.2-1.2-1290.5-2.4-1935.7-3.5"/>
<path id="XMLID_6_" class="st0" d="M202.5,482.4"/>
<path id="XMLID_7_" class="st2" d="M-9.8,734.3c93.1-11.7,189.5-22,289.1-30.6c622.3-53.8,1185.2-24.5,1651.2,32.8
	c-0.8,29-1.6,57.9-2.4,86.9C1281.8,816.2,635.4,809.1-11,802"/>
</svg>
