<?xml version="1.0" encoding="utf-8"?>
<!-- Generator: Adobe Illustrator 19.0.0, SVG Export Plug-In . SVG Version: 6.00 Build 0)  -->
<svg version="1.1" id="Layer_1" xmlns="http://www.w3.org/2000/svg" xmlns:xlink="http://www.w3.org/1999/xlink" x="0px" y="0px"
	 viewBox="6 -96 612 792" style="enable-background:new 6 -96 612 792;" xml:space="preserve">
<style type="text/css">
	.st0{fill:#F8E69E;stroke:#FFFFFF;stroke-miterlimit:10;}
	.st1{fill:#4B4748;}
	.st2{fill:#EDEDED;}
	.st3{fill:#D3D3D3;}
	.st4{fill:#FFFFFF;}
	.st5{fill:none;stroke:#4B4748;stroke-miterlimit:10;}
	.st6{fill:none;}
	.st7{fill:#CEE3C1;}
	.st8{fill:#FEF6DF;}
</style>
<rect id="XMLID_1_" x="6.3" y="-102.3" class="st0" width="612" height="798.3"/>
<g id="XMLID_25_">
	<path id="XMLID_56_" class="st1" d="M552.3,528.3c0,15.9-12.9,28.9-28.9,28.9H131.7c-15.9,0-28.9-12.9-28.9-28.9V50
		c0-15.9,12.9-28.9,28.9-28.9h391.7c15.9,0,28.9,12.9,28.9,28.9L552.3,528.3L552.3,528.3z"/>
	<rect id="XMLID_55_" x="517.1" y="52.2" class="st2" width="8.1" height="474.3"/>
	<rect id="XMLID_54_" x="525.2" y="56.7" class="st3" width="8.1" height="467"/>
	<rect id="XMLID_53_" x="129" y="43.8" class="st4" width="397.3" height="480.7"/>
	<circle id="XMLID_52_" class="st1" cx="142.2" cy="82.9" r="9.6"/>
	<circle id="XMLID_51_" class="st1" cx="142.2" cy="150" r="9.6"/>
	<circle id="XMLID_50_" class="st1" cx="142.2" cy="217" r="9.6"/>
	<circle id="XMLID_49_" class="st1" cx="142.2" cy="284.1" r="9.6"/>
	<circle id="XMLID_48_" class="st1" cx="142.2" cy="351.2" r="9.6"/>
	<circle id="XMLID_47_" class="st1" cx="142.2" cy="418.3" r="9.6"/>
	<circle id="XMLID_46_" class="st1" cx="142.2" cy="485.4" r="9.6"/>
	<rect id="XMLID_45_" x="467.9" y="64.3" class="st5" width="27.7" height="27.7"/>
	<rect id="XMLID_44_" x="432" y="64.3" class="st5" width="27.7" height="27.7"/>
	<rect id="XMLID_43_" x="396.2" y="64.3" class="st5" width="27.7" height="27.7"/>
	<g id="XMLID_40_">
		<line id="XMLID_42_" class="st6" x1="385.4" y1="78.1" x2="171.6" y2="78.1"/>
		<path id="XMLID_41_" class="st1" d="M385.4,78.7H171.6c-0.3,0-0.6-0.2-0.6-0.6s0.2-0.6,0.6-0.6h213.8c0.3,0,0.6,0.2,0.6,0.6
			S385.7,78.7,385.4,78.7z"/>
	</g>
	<g id="XMLID_38_">
		<path id="XMLID_39_" class="st7" d="M140.2,89H95.8c-3.4,0-6.1-2.7-6.1-6.1c0-3.4,2.7-6.1,6.1-6.1h44.4c3.4,0,6.1,2.7,6.1,6.1
			C146.3,86.3,143.6,89,140.2,89z"/>
	</g>
	<g id="XMLID_36_">
		<path id="XMLID_37_" class="st7" d="M140.2,155.9H95.8c-3.4,0-6.1-2.7-6.1-6.1c0-3.4,2.7-6.1,6.1-6.1h44.4c3.4,0,6.1,2.7,6.1,6.1
			C146.3,153.2,143.6,155.9,140.2,155.9z"/>
	</g>
	<g id="XMLID_34_">
		<path id="XMLID_35_" class="st7" d="M140.2,223.1H95.8c-3.4,0-6.1-2.7-6.1-6.1s2.7-6.1,6.1-6.1h44.4c3.4,0,6.1,2.7,6.1,6.1
			S143.6,223.1,140.2,223.1z"/>
	</g>
	<g id="XMLID_32_">
		<path id="XMLID_33_" class="st7" d="M140.2,290.2H95.8c-3.4,0-6.1-2.7-6.1-6.1s2.7-6.1,6.1-6.1h44.4c3.4,0,6.1,2.7,6.1,6.1
			C146.3,287.5,143.6,290.2,140.2,290.2z"/>
	</g>
	<g id="XMLID_30_">
		<path id="XMLID_31_" class="st7" d="M140.2,357.4H95.8c-3.4,0-6.1-2.7-6.1-6.1s2.7-6.1,6.1-6.1h44.4c3.4,0,6.1,2.7,6.1,6.1
			C146.3,354.6,143.6,357.4,140.2,357.4z"/>
	</g>
	<g id="XMLID_28_">
		<path id="XMLID_29_" class="st7" d="M140.2,425.1H95.8c-3.4,0-6.1-2.7-6.1-6.1c0-3.4,2.7-6.1,6.1-6.1h44.4c3.4,0,6.1,2.7,6.1,6.1
			C146.3,422.3,143.6,425.1,140.2,425.1z"/>
	</g>
	<g id="XMLID_26_">
		<path id="XMLID_27_" class="st7" d="M140.2,491.4H95.8c-3.4,0-6.1-2.7-6.1-6.1c0-3.4,2.7-6.1,6.1-6.1h44.4c3.4,0,6.1,2.7,6.1,6.1
			C146.3,488.6,143.6,491.4,140.2,491.4z"/>
	</g>
</g>
<path class="st8" d="M121.1,39.7C121.1,39.7,121,39.7,121.1,39.7C121,39.8,121.1,39.8,121.1,39.7z"/>
</svg>
