<?xml version="1.0" encoding="utf-8"?>
<!-- Generator: Adobe Illustrator 19.0.0, SVG Export Plug-In . SVG Version: 6.00 Build 0)  -->
<svg version="1.1" id="Layer_1" xmlns="http://www.w3.org/2000/svg" xmlns:xlink="http://www.w3.org/1999/xlink" x="0px" y="0px"
	 viewBox="0 0 612 792" style="enable-background:new 0 0 612 792;" xml:space="preserve">
<style type="text/css">
	.st0{fill:#C4D9E8;}
	.st1{fill:#5793CE;}
	.st2{fill:#D4EAF9;}
	.st3{fill:#1F3F7A;}
	.st4{fill:#FFFFFF;}
	.st5{fill:#3B6DAB;}
	.st6{fill:#D3D1D0;}
	.st7{fill:#F3F3F3;}
	.st8{fill:#FBC1B1;}
	.st9{fill:#EA9C92;}
	.st10{fill:#ED3995;}
	.st11{fill:#28508A;}
	.st12{fill:#D0118B;}
     
	 .motion 
	 {
		 animation : motion1 3s infinite;
		
		  
	 }

		  @keyframes motion1 
	 {
		0%
		{
			 transform :translate(0px 0px);
		}
		50%
		{
			transform:translate(0px ,40px);

		}
		100%
		{
			transform:translate(0px 0px);
		}
	 }
</style>
<g>
	<path class="st0" d="M258.9,188.6l-113.4,81.8c-28.7-10.8-65.4-7.5-89.5,9.9c-29.4,21.2-29.2,55.2,0.4,75.9
		c6.7,4.6,14.2,8.2,22.3,10.8c5.7,1.8,11.7,3,17.7,3.8c23.6,2.8,48.7-2.3,66.9-15.4c22-15.9,27.4-38.8,16.4-58.1l15.6-11.3
		l-0.4-12.2l16.5-0.1l-0.4-11.4l16.5-0.1l-0.4-11.4l16.5-0.1l-0.4-11.4l16.5-0.1l-0.4-11.4l17.6-0.2l5.4-3.9l5.9-30L258.9,188.6z
		 M99.4,345.2c-7.7,5.5-20.1,5.6-27.8,0.2c-7.7-5.4-7.8-14.2-0.1-19.8c7.7-5.5,20.1-5.6,27.8-0.2C107,330.8,107,339.6,99.4,345.2z"
		/>
	<path id="XMLID_82_" class="st0 " d="M320.9,706.1L168,598c-10.3-7.3-9-20.1,2.9-28.5l148.4-105.4c11.9-8.4,29.9-9.4,40.2-2
		l152.9,108.1c10.3,7.3,9,20.1-2.9,28.5L361.1,704C349.2,712.5,331.2,713.4,320.9,706.1z"/>
	<g class="motion">
		<g>
			<path id="XMLID_81_" class="st1" d="M500.2,461l-26.4-18.8l97.5-69.2c4.6-3.3,4.6-8.6,0-11.9l-99.6-70.7
				c-4.6-3.3-12.1-3.3-16.7,0l-97.5,69.2L331,340.9l97.5-69.2c19.2-13.6,50.4-13.6,69.6,0l99.6,70.7c19.2,13.6,19.2,35.8,0,49.4
				L500.2,461z"/>
		</g>
		<g>
			<path id="XMLID_80_" class="st2" d="M542.8,469.2c0-17.4-8.6-37.6-19.2-45.1L347,298.8c-4.7-3.4-9.1-3.6-12.4-1.3l0,0
				L123.8,448.1L327.6,637l207.7-148.3c0.6-0.4,1.3-0.8,1.8-1.3l0,0l0,0C540.7,484.2,542.8,477.9,542.8,469.2z"/>
			<path id="XMLID_79_" class="st3" d="M327.6,637l207.7-148.3c0.6-0.4,1.3-0.8,1.8-1.3l0,0l0,0c3.5-3.2,5.6-9.6,5.6-18.3
				c0-8.3-2-17.2-5.2-25.1L300.9,612.2L327.6,637z"/>
			<path id="XMLID_78_" class="st1" d="M314.4,636.4L137.8,511c-10.6-7.5-19.2-27.7-19.2-45.1l0,0c0-17.4,8.6-25.4,19.2-17.8
				l176.6,125.4c10.6,7.5,19.2,27.7,19.2,45.1l0,0C333.6,635.9,325,643.9,314.4,636.4z"/>
		</g>
		<path id="XMLID_77_" class="st4" d="M287.9,594.1L266.7,579c-2.1-1.5-3.8-5.5-3.8-9l0,0c0-3.5,1.7-5.1,3.8-3.6l21.2,15.1
			c2.1,1.5,3.8,5.5,3.8,9l0,0C291.7,594,290,595.6,287.9,594.1z"/>
	</g>
	<g class="motion">
		<g>
			<polygon id="XMLID_76_" class="st5" points="128.5,152.6 164.8,178 201.8,151.2 201.7,139.6 201.4,139.9 201.4,139 217.8,138.9 
				217.7,127.4 233.9,127.3 233.8,115.9 249.9,115.7 249.8,104.3 266,104.2 265.9,92.7 283.1,92.6 288.5,88.7 294.4,58.7 294.3,47 
				291.5,58.2 265.3,53.9 			"/>
			<g>
				<g>
					<g>
						<g>
							<g>
								<polygon id="XMLID_75_" class="st2" points="164.7,166.3 201.7,139.6 201.3,127.4 217.7,127.3 217.3,115.8 233.8,115.7 
									233.4,104.3 249.8,104.1 249.4,92.7 265.9,92.5 265.5,81.1 283,80.9 288.4,77.1 294.3,47 265.2,42.3 128.4,141 								"/>
							</g>
						</g>
						<g>
							<g>
								<path id="XMLID_74_" class="st5" d="M189.3,148.5c-3.7-6.5-9.3-12.6-16.8-17.8c-5.3-3.7-11.2-6.7-17.4-9L128.4,141
									l36.3,25.3L189.3,148.5z"/>
							</g>
						</g>
						<g>
							<g>
								<polygon id="XMLID_73_" class="st1" points="293.3,52.1 294.3,47 289.4,46.2 173.8,129.7 179.9,133.9 								"/>
							</g>
						</g>
						<g>
							<g>
								<polygon id="XMLID_72_" class="st6" points="40.8,189.3 40.4,172.7 44.7,183.9 								"/>
							</g>
						</g>
						<path class="st5" d="M63.2,226.4c29.6,20.7,77.5,20.3,106.9-0.9c14.7-10.6,22-24.5,21.9-38.3l0,0l-0.4-17.5l-2.4,3.3
							c-3.4-8.6-9.9-16.7-19.5-23.5c-29.6-20.7-77.5-20.3-106.9,0.9C33.3,171.7,33.5,205.7,63.2,226.4z M106,195.5
							c7.7,5.4,7.8,14.2,0.1,19.8c-7.7,5.5-20.1,5.6-27.8,0.2c-7.7-5.4-7.8-14.2-0.1-19.8C85.8,190.2,98.3,190.1,106,195.5z"/>
						<g>
							<g>
								<path class="st7" d="M62.8,209.9c29.6,20.7,77.5,20.3,106.9-0.9c29.4-21.2,29.2-55.2-0.4-75.9
									c-29.6-20.7-77.5-20.3-106.9,0.9C32.9,155.2,33.1,189.2,62.8,209.9z M105.6,179c7.7,5.4,7.8,14.2,0.1,19.8
									c-7.7,5.5-20.1,5.6-27.8,0.2c-7.7-5.4-7.8-14.2-0.1-19.8C85.4,173.7,97.9,173.6,105.6,179z"/>
							</g>
						</g>
						<path id="XMLID_67_" class="st1" d="M97.1,219c-6.5,1.3-13.7,0.2-18.9-3.4c-5.5-3.9-7.1-9.5-4.7-14.4L60.1,188
							c0,0-7-9.7-14-19.4c-10.8,19.4-5.1,42.3,17,57.8c9.8,6.8,20.7,10.7,33.1,13L97.1,219z"/>
						<g >
							<g>
								<path class="st2" d="M62.8,209.9c6.7,4.6,14.2,8.2,22.3,10.8c5.7,1.8,11.7,3,17.7,3.8c23.6,2.8,48.7-2.3,66.9-15.4
									c29.4-21.2,29.2-55.2-0.4-75.9c-29.6-20.7-77.5-20.3-106.9,0.9C32.9,155.2,33.1,189.2,62.8,209.9z M105.6,179
									c7.7,5.4,7.8,14.2,0.1,19.8c-7.7,5.5-20.1,5.6-27.8,0.2c-7.7-5.4-7.8-14.2-0.1-19.8C85.4,173.7,97.9,173.6,105.6,179z"/>
							</g>
						</g>
						<g>
							<g>
								<g>
									<path id="XMLID_64_" class="st5" d="M48.8,172.3c1.4-10.6,7.8-20.9,19.2-29.1c26.2-18.9,68.7-19.2,95.1-0.8
										c13.1,9.2,19.7,21.2,19.9,33.4c1.9-13.8-4.6-28-19.6-38.4c-26.4-18.4-69-18.1-95.1,0.8C55.1,147.6,48.6,160,48.8,172.3z"/>
								</g>
							</g>
						</g>
					</g>
					<g>
						<g>
							<g>
								<g>
									<path class="st5" d="M30.9,322.5c-5.3,0-10.3-1.6-14.8-4.7c-10.6-7.4-16.5-22.3-16.6-41.9c-0.2-35.8,20.1-79.7,45.2-97.8
										c13.8-9.9,27.2-11.3,37.8-3.9c4.5,3.2,8.2,7.7,11,13.5c3.7,7.7,5.6,17.3,5.6,28.4c0.2,35.8-20.1,79.7-45.2,97.8
										C46,319.7,38.2,322.5,30.9,322.5z M67.6,182.6c-5.3,0-11.3,2.3-17.6,6.8c-22.2,16-40.1,54.8-39.9,86.4
										c0.1,14.7,4.1,25.6,11.2,30.6c7.2,5,16.8,3.6,27.1-3.8c22.2-16,40.1-54.8,39.9-86.4c0-8.7-1.5-16.2-4.2-21.9l0,0
										c-1.8-3.8-4.2-6.7-7.1-8.8C74.4,183.6,71.1,182.6,67.6,182.6z"/>
								</g>
							</g>
						</g>
					</g>
				</g>
			</g>
		</g>
		<path id="XMLID_61_" class="st2" d="M81.6,211.7l21.1,6.4l3-19.3c-7.7,5.5-20.1,5.6-27.8,0.2L81.6,211.7z"/>
		<path id="XMLID_60_" class="st2" d="M62.8,209.9c6.7,4.6,14.2,8.2,22.3,10.8c5.7,1.8,11.7,3,17.7,3.8c23.6,2.8,48.7-2.3,66.9-15.4
			l-85.9-2.4L62.8,209.9z"/>
		<path id="XMLID_59_" class="st5" d="M94.5,223.3c0,0-9.1-1.8-18.7-5.9v16.2c4.5,1.9,12,4.8,18.4,5.8
			C114,242.6,94.5,223.3,94.5,223.3z"/>
	</g>
	<path id="XMLID_58_" class="st1" d="M80.8,219.3c-3.9-1.4-8.2-3.2-12.2-5.5c-11.5-6.6,3,17.9,3,17.9s3.9,1.9,9.1,3.9V219.3z"/>
</g>
<polygon id="XMLID_57_" class="st1" points="311.7,451.2 295,477.6 286.8,474.3 306.7,450.8 "/>
<g class="motion">
	<g>
		<path id="XMLID_56_" class="st3" d="M291.5,584.4c0,0-4.8-5.9-7.8,2.9c-3,8.9-7.2,29.8-7.3,43.9c-0.1,14.1,4.6,13.2,7.4,9.8
			c2.8-3.3,10.9-32.3,11.4-38c0.5-5.7-0.6-13.3-1.4-14.8C293,586.7,291.5,584.4,291.5,584.4z"/>
		<path id="XMLID_55_" class="st1" d="M292.5,581.6l0.2,12.2c0,2.6-0.5,5.1-1.4,6.4c-0.8,1.2-2.1,2.1-3.7,1.4c-3.6-1.4-4-4-4.2-16.2
			C283.1,573.2,292.5,581.6,292.5,581.6z"/>
		<g>
			<path id="XMLID_54_" class="st3" d="M273.8,561c0,0-4.8-5.9-7.8,2.9c-3,8.9-7.2,29.8-7.3,43.9c-0.1,14.1,4.6,13.2,7.4,9.8
				c2.8-3.3,10.9-32.3,11.4-38c0.5-5.7-0.6-13.3-1.4-14.8C275.4,563.2,273.8,561,273.8,561z"/>
			<path id="XMLID_53_" class="st1" d="M274.9,558.1l0.2,12.2c0,2.6-0.5,5.1-1.4,6.4c-0.8,1.2-2.1,2.1-3.7,1.4
				c-3.6-1.4-4-4-4.2-16.2C265.5,549.7,274.9,558.1,274.9,558.1z"/>
			<path id="XMLID_52_" class="st2" d="M317.8,333.9c-1.4-56.8-25.1,8.4-25.1,8.4l-16.2,38.9l-14.6,39.3c-2.9,7.7-4.2,18-3.6,28.3
				l5.9,110.1c0.3,5.4,2.2,9.4,4.4,9.4c0.6,0,1.4-0.2,2.2-0.5c5.3-2,4.9-14.3,4.9-14.3l-1.1-103l30.7-45.3
				C305.3,405.2,319.3,390.6,317.8,333.9z"/>
		</g>
		<path id="XMLID_51_" class="st1" d="M286.3,431l-4.4-3.9c-0.1,0-7.4,17.3-7.4,23.4l3.3,2.6l8.2-19.6L286.3,431z"/>
		<path id="XMLID_50_" class="st1" d="M311.7,451.2c0,0,18.2-25.5,20.4-36.2c0.9-4.2,2.2-8.6-3.1-14.9l-24.3,42.4l1.1,14.6
			L311.7,451.2z"/>
		<path id="XMLID_49_" class="st2" d="M335.5,355.8c-1.5-56.8-25.1,8.4-25.1,8.4L294.2,403l-14.6,39.3c-2.9,7.7-4.2,18-3.6,28.3
			l5.9,110.1c0.3,5.4,2.2,9.4,4.4,9.4c0.6,0,1.4-0.2,2.2-0.5c5.3-2,4.9-14.3,4.9-14.3l-1.1-103l30.7-45.3
			C322.9,427.1,336.9,407.7,335.5,355.8z"/>
		<path id="XMLID_48_" class="st1 " d="M321.5,173.2c18,18.2,17.6,44.2,17.6,44.2s-3.5,95.3-2.3,158.9c0.5,26.6-57.7,28.6-49-42.3
			c10.2-83.7,6.4-151.4,11.2-161.7C303.7,162.2,316.8,168.5,321.5,173.2z"/>
		<path id="XMLID_47_" class="st8" d="M327.2,196.3c-0.9,8.9-5.7,13.6-10.7,10.5s-8.2-12.9-7.3-21.8c0.9-8.9,5.7-13.6,10.7-10.5
			C324.9,177.6,328.2,187.3,327.2,196.3z"/>
		<path class="st4" d="M319.6,209.8c-1.1,0-2.1-0.3-3.2-1c-2.6-1.6-4.8-5-6.3-9.4c-1.5-4.7-2.1-10-1.6-14.9c1.1-10,6.3-15.4,11.7-12
			c2.6,1.6,4.8,5,6.3,9.4c1.6,4.7,2.1,10,1.6,14.9C327.2,204.8,323.7,209.8,319.6,209.8z M316.9,175.6c-3.3,0-6.1,3.8-6.8,9.9
			c-0.4,3.7,0.1,7.6,1.3,11.2c1.3,3.8,3.2,6.6,5.4,8c4.5,2.8,8.8-1.2,9.6-9c0.4-3.7-0.1-7.6-1.3-11.2c-1.3-3.8-3.2-6.6-5.4-8
			C318.8,175.9,317.8,175.6,316.9,175.6z"/>
		<path id="XMLID_44_" class="st8" d="M314.3,171.2c0,0,0.2,1.8-0.2,15.7c-0.1,4.4,6.2,8.5,7.8,4.5c1.6-4,1-8.1,1.4-23
			C323.6,153.5,314.3,171.2,314.3,171.2z"/>
		<path id="XMLID_43_" class="st9" d="M323.3,168.4c0,0-1.5,13.8-9.1,19.1l0.1-12.6L323.3,168.4z"/>
		<path id="XMLID_42_" class="st8" d="M328.1,133.3c1.9,18.1-2.5,36.6-9.9,41.2c-7.4,4.7-14.9-6.2-16.8-24.3
			c-1.9-18.1,2.5-36.6,9.9-41.2C318.6,104.3,326.2,115.2,328.1,133.3z"/>
		<path id="XMLID_41_" class="st9" d="M317.9,143c0,0-7.6,8-12.9,8.1c-5.3,0.1-4.1-10.7-4.1-10.7l15.6-5.5L317.9,143z"/>
		<path id="XMLID_40_" class="st10" d="M303.4,145.1c0,0,6.6-6.9,12.4-4c1.4,0.7,2.6,2.5,3.5,5.1c0.3,0.9,0.7,1.7,1.1,1.9
			c1,0.6,2.7-9.9,4.7-10.1c2-0.2,3.3,3.2,1.7,9.7c-1.6,6.4-1.1,13.7-0.3,14.7c0.8,1,8.8-14,1.7-48.3c-7.1-34.3-25-15.8-27.8-8.9
			c0,0-2.9,6.3-5.3,0.7C295,105.8,292.4,155.1,303.4,145.1z"/>
		<path id="XMLID_39_" class="st8" d="M329,287.1v25.7c0,3-0.5,5.8-1.4,7.8L306,368.8l2.5,9.2l28.5-50.7c1.3-2.4,2.2-6,2.4-10
			l1.9-44.9L329,287.1z"/>
		<path id="XMLID_38_" class="st1" d="M337.5,204.6c0,0,6.6,24.1,9,87.7c0,0-11.2,8.9-17.5,3.8C322.6,291,337.5,204.6,337.5,204.6z"
			/>
		<path id="XMLID_37_" class="st5" d="M327.8,235.1c0,0-2.6,33.6-2.7,49.4c0,4.3,1,8.3,2.7,9.7l0,0V235.1z"/>
	</g>
	<g>
		<path id="XMLID_36_" class="st3" d="M322.2,402.3l-4.8-1.5l-30.8-43.6c-1-1.4-2.7-1.2-3.9,0.4l-21.8,30.9l-2.9-0.9v7l0,0
			c0,0.9,0.2,1.8,0.7,2.5l34.9,49.4c1,1.4,2.7,1.2,3.9-0.4l23.8-33.6c0.6-0.9,1-2.1,0.9-3.2h0V402.3z"/>
		<path id="XMLID_35_" class="st5" d="M299,374.7l-2.2-3.1h-24.1l-11.9,16.8l-2.9-0.9v7l0,0c0,0.9,0.2,1.8,0.7,2.5l34.9,49.4
			c0.5,0.7,1.3,1,2,0.9L299,374.7z"/>
		<path id="XMLID_34_" class="st1" d="M259.3,387.9l-1.3-0.4v7l0,0c0,0.9,0.2,1.8,0.7,2.5l0.6,0.9V387.9z"/>
		<path id="XMLID_33_" class="st11" d="M294,446.8c0.9,0.9,2.3,0.7,3.3-0.5v-12H294V446.8z"/>
		<path id="XMLID_32_" class="st4" d="M293.6,439.3L258.7,390c-1-1.4-0.9-3.8,0.3-5.4l23.8-33.6c1.1-1.6,2.9-1.8,3.9-0.4l34.9,49.4
			c1,1.4,0.9,3.8-0.3,5.4L297.5,439C296.3,440.6,294.6,440.7,293.6,439.3z"/>
		<path id="XMLID_31_" class="st2" d="M293,431.9l-29-41.1c-0.8-1.2-0.7-3.2,0.2-4.5l12.7-17.5c0.9-1.3,2.4-1.5,3.2-0.3l29,41.1
			c0.8,1.2,0.7,3.2-0.2,4.5l-12.7,17.5C295.3,432.9,293.8,433,293,431.9z"/>
	</g>
	<path id="XMLID_30_" class="st8" d="M284.1,349.3l-0.4,5.9c-0.3,5-0.3,10.1,0.2,15.1l0.4,5.2c0.2,2.9,1.2,5.2,2.4,5.7l0,0
		c0.9,0.4,1.8-1.2,1.9-3.5l0.6-12.6c0,0,1.3,4.2,2,4.2c0.6,0-0.7-12.6-2.2-19.8C287.6,342.4,284.1,349.3,284.1,349.3z"/>
	<path id="XMLID_29_" class="st8" d="M295.9,255.5l-3.7,18.2c-0.9,4.3-1.4,9-1.5,13.8l-1.6,62.1l-4.9-0.3l-2.2-69.8
		c-0.1-2.2,0-4.3,0.1-6.4l2.6-35.4L295.9,255.5z"/>
	<g>
		<path id="XMLID_28_" class="st3" d="M292.4,444.1l-2.9-9.4l-30.8-43.7c-1-1.4-1.8-5.1-1.8-8.4l0-61.7l-1.8-5.7l1.7-2.4l0,0
			c0.3-0.5,0.7-0.5,1.2,0.2l34.9,49.5c1,1.4,1.8,5.1,1.8,8.4l0,67.2c0,1.8-0.3,3.1-0.7,3.6h0L292.4,444.1z"/>
		<path id="XMLID_27_" class="st5" d="M271.1,408.7l-2.2-3.1l-12-51.1l0-33.6l-1.8-5.7l1.7-2.4l0,0c0.3-0.5,0.7-0.5,1.2,0.2
			l34.9,49.5c0.5,0.7,1,2.1,1.3,3.8L271.1,408.7z"/>
		<path id="XMLID_26_" class="st1" d="M256,317.8l-0.8-2.5l1.7-2.4l0,0c0.3-0.5,0.7-0.5,1.2,0.2l0.6,0.9L256,317.8z"/>
		<path id="XMLID_25_" class="st11" d="M293.3,363.1c0.8,1.6,1.4,4.5,1.5,7.2l-3.4,4.8l-1.6-7L293.3,363.1z"/>
		<path id="XMLID_24_" class="st1" d="M291.3,364.9l-34.9-49.5c-1-1.4-1.8,0.1-1.8,3.3l0,67.2c0,3.2,0.8,7,1.8,8.4l34.9,49.5
			c1,1.4,1.8-0.1,1.8-3.3l0-67.2C293.1,370.1,292.3,366.3,291.3,364.9z"/>
	</g>
	<path id="XMLID_23_" class="st8" d="M308.4,378l-0.6,2.8c-0.6,3.3-1.7,6-2.9,7.9l-3.5,5.2c-1.1,1.6-2.4,1.8-3.5,0.2
		c0-0.1-0.1-0.1-0.1-0.2c-1.1-1.7-1.2-5.6-0.3-7.8l3.6-9.1c0,0-2,3.8-2.6,2.3c-0.4-1.1,2-6.6,3.8-6.8c1.8-0.2,3.6-3.7,3.6-3.7
		L308.4,378z"/>
	<path id="XMLID_22_" class="st1" d="M299.3,172.2c0,0-13.3,35.4-18.6,67.9c0,0,4.5,20,15.7,27.9
		C307.4,275.9,299.3,172.2,299.3,172.2z"/>
	<path id="XMLID_21_" class="st5" d="M293.8,265.9l2.2-50.9l-5.1,47.7C291.8,263.8,292.7,264.9,293.8,265.9z"/>
	<path id="XMLID_20_" class="st4" d="M309.2,165.1l-3.6-2.4c0,0,1.7,6.6,4.2,8.2c2.5,1.7,2.9-3.5,2.9-3.5L309.2,165.1z"/>
</g>
<path class="st2" d="M241.5,86.9c-5.5,0-10-11-10-24.5c0-13.5,4.5-24.5,10-24.5s10,11,10,24.5C251.5,75.9,247,86.9,241.5,86.9z
	 M241.5,43.3c-4.3,0-7.8,8.6-7.8,19.1c0,10.6,3.5,19.1,7.8,19.1c4.3,0,7.8-8.6,7.8-19.1C249.3,51.8,245.8,43.3,241.5,43.3z"/>
<path class="st1" d="M443.6,263.3c-3.9,0-7.1-7.8-7.1-17.4s3.2-17.4,7.1-17.4s7.1,7.8,7.1,17.4S447.5,263.3,443.6,263.3z
	 M443.6,233.9c-2.7,0-4.9,5.4-4.9,12c0,6.6,2.2,12,4.9,12c2.7,0,4.9-5.4,4.9-12C448.5,239.3,446.3,233.9,443.6,233.9z"/>
<path class="st1" d="M211.1,625.7l-4.8-26.1l9.8-12.8l4.8,26.1L211.1,625.7z M209.2,602.3l2.9,15.7l5.9-7.7l-2.9-15.7L209.2,602.3z"
	/>
<path class="st1" d="M353.2,205.4l-4.8-24l9.8-11.8l4.8,24L353.2,205.4z M351.3,183.9l2.9,14.4l5.9-7.1l-2.9-14.4L351.3,183.9z"/>
<polygon id="XMLID_11_" class="st1" points="200.2,441.8 195.7,447.2 193.5,436.2 198,430.7 "/>
<g>
	<g>
		<path id="XMLID_10_" class="st12" d="M374.3,75.4l-26.7-37.8c-0.5-0.7-1-0.8-1.4-0.3c0,0,0,0,0,0l-2.6,3.7c0,0,1.1,1,1.8,1.6v47.7
			c0,3.9,1,8.4,2.2,10.1l25.6,36.1v5.6l2.6-3.7l0,0c0.4-0.7,0.7-2.1,0.7-4.2V85.5C376.5,81.6,375.5,77.1,374.3,75.4z"/>
		<path id="XMLID_9_" class="st10" d="M371.7,141.9l-26.7-37.8c-1.2-1.7-2.2-6.2-2.2-10.1V45.3c0-3.9,1-5.7,2.2-4l26.7,37.8
			c1.2,1.7,2.2,6.2,2.2,10.1v48.7C373.8,141.8,372.9,143.6,371.7,141.9z"/>
	</g>
	<g>
		<path id="XMLID_8_" class="st4" d="M353.9,87.3c0,2.8-0.8,4-1.8,2.6c-1-1.4-1.8-4.8-1.8-7.7s0.8-4,1.8-2.6
			C353.1,81.1,353.9,84.5,353.9,87.3z"/>
		<path id="XMLID_7_" class="st4" d="M359.4,95c0,2.8-0.8,4-1.8,2.6c-1-1.4-1.8-4.8-1.8-7.7c0-2.8,0.8-4,1.8-2.6
			C358.6,88.8,359.4,92.2,359.4,95z"/>
		<path id="XMLID_6_" class="st4" d="M364.9,102.8c0,2.8-0.8,4-1.8,2.6c-1-1.4-1.8-4.8-1.8-7.7s0.8-4,1.8-2.6
			C364,96.5,364.9,99.9,364.9,102.8z"/>
	</g>
</g>
<g>
	<g>
		<path id="XMLID_5_" class="st1" d="M189.5,489.6l-26.2-37.1c-0.5-0.7-1-0.8-1.4-0.3c0,0,0,0,0,0l-2.5,3.6c0,0,1.1,1,1.8,1.6v46.8
			c0,3.8,0.9,8.2,2.1,9.9l25.1,35.4v5.5l2.6-3.6l0,0c0.4-0.6,0.7-2.1,0.7-4.1v-47.8C191.6,495.7,190.6,491.3,189.5,489.6z"/>
		<path id="XMLID_4_" class="st2" d="M186.9,554.9l-26.2-37.1c-1.2-1.6-2.1-6.1-2.1-9.9v-47.8c0-3.8,0.9-5.6,2.1-3.9l26.2,37.1
			c1.2,1.6,2.1,6.1,2.1,9.9v47.8C189,554.7,188,556.5,186.9,554.9z"/>
	</g>
	<g>
		<path id="XMLID_3_" class="st4" d="M169.5,501.3c0,2.8-0.8,3.9-1.8,2.5c-1-1.4-1.8-4.7-1.8-7.5c0-2.8,0.8-3.9,1.8-2.5
			C168.7,495.2,169.5,498.5,169.5,501.3z"/>
		<path id="XMLID_2_" class="st4" d="M174.8,508.9c0,2.8-0.8,3.9-1.8,2.5c-1-1.4-1.8-4.7-1.8-7.5c0-2.8,0.8-3.9,1.8-2.5
			C174,502.8,174.8,506.1,174.8,508.9z"/>
		<path id="XMLID_1_" class="st4" d="M180.2,516.5c0,2.8-0.8,3.9-1.8,2.5c-1-1.4-1.8-4.7-1.8-7.5c0-2.8,0.8-3.9,1.8-2.5
			C179.4,510.3,180.2,513.7,180.2,516.5z"/>
	</g>
</g>
</svg>
