<?xml version="1.0" encoding="utf-8"?>
<!-- Generator: Adobe Illustrator 19.0.0, SVG Export Plug-In . SVG Version: 6.00 Build 0)  -->
<svg version="1.1" xmlns="http://www.w3.org/2000/svg" xmlns:xlink="http://www.w3.org/1999/xlink" x="0px" y="0px"
	 viewBox="0 0 500 500" style="enable-background:new 0 0 500 500;" xml:space="preserve">
<style type="text/css">
	.st0{fill:#FFFFFF;}
	.st1{fill:#004FC7;}
	.st2{fill:#F5B041;}
	.st3{fill:#F8C471;}
	.st4{fill:#FAD7A0;}
	.st5{fill:#D3E8EE;}
	.st6{fill:#DC7633;}
	.st7{fill:#0034AE;}
	.st8{fill:#FC5F2D;}
	.st9{fill:#133643;}
	.st10{fill:#000B17;}
	.st11{fill:#0172D2;}
	.st12{opacity:0.3;fill:#FFFFFF;}
	.st13{fill:#D53E2F;}
	.st14{fill:#335464;}
	.st15{fill:#FFAA95;}
	.st16{fill:#FF8B6B;}
	.st17{fill:#D85C48;}
	.st18{fill:#ED3915;}
	.st19{fill:#F1F1F1;}
	.st20{fill:#D8D8D8;}
</style>
<g id="BACKGROUND">
	<rect class="st0" width="500" height="500"/>
</g>
<g id="OBJECTS">
	<g>
		<g>
			<g>
				<g>
					<path class="st1" d="M29.5,376"/>
				</g>
			</g>
		</g>
	</g>
	<path class="st1" d="M27.5,379"/>
	<path class="st1" d="M27.5,379"/>
	<g>
		<path class="st2" d="M176.1,42.3"/>
	</g>
	<g>
		<path class="st3" d="M393.4,43.2"/>
		<path class="st3" d="M437.5,45.3"/>
	</g>
	<path class="st1" d="M28.5,378"/>
	<path class="st1" d="M28.5,378"/>
	<path class="st2" d="M174.1,45.3"/>
	<path class="st2" d="M174.1,45.3"/>
	<path class="st3" d="M391.4,46.2"/>
	<path class="st3" d="M391.4,46.2"/>
	<path class="st1" d="M26.5,381"/>
	<path class="st2" d="M174.1,45.3"/>
	<path class="st2" d="M174.1,45.3"/>
	<path class="st3" d="M391.4,46.2"/>
	<path class="st3" d="M391.4,46.2"/>
	<path class="st1" d="M26.5,381"/>
	<rect class="st4" width="500" height="500"/>
	<path class="st1" d="M32.2,328.8"/>
	<path class="st3" d="M31,377.4"/>
	<path class="st3" d="M31,377.4"/>
	<path class="st1" d="M32.2,328.8"/>
	<path class="st3" d="M31,377.4"/>
	<path class="st3" d="M31,377.4"/>
	<ellipse class="st5" cx="252.7" cy="443" rx="213.6" ry="11.8"/>
	<path class="st6" d="M233.3,123.3C216.4,62,140.2,42.3,96.6,88.1c-0.6,0.7-1.3,1.3-1.9,2c-62.6,68-33,235.7,97.6,278.2
		c130.6,42.5,266.5-35.1,274.1-104.5c7.6-69.4-52.6-91.2-146.1-71.8C267.4,203,243.8,161.5,233.3,123.3z"/>
	<path class="st2" d="M176.1,42.3c-6.3-1.2-10.8,4-8.4,9.9c0.8,2,2.4,3.9,5.1,5.7c10.4,6.7,19.4,3.3,18.5-6
		C190.7,46.2,182.4,43.5,176.1,42.3"/>
	<g>
		<path class="st3" d="M88.2,107.1c4.2,14,18.2,13.6,17.9,24.9c-0.3,11.4,6.8,20,16.7,17.9c9.8-2.1,16.9-4.2,21.4,7.1
			c4.5,11.3,18.8,17,24.4,8c1.4-2.2,2.9-4.6,4.4-7c0.4-0.6,0.8-1.3,1.2-1.9c0.1-0.1,0.2-0.3,0.3-0.4c6-9.5,4-22.1-4.8-29
			c-3.6-2.8-7.8-4.4-12.7-3c-15.2,4.5-9.7-10.8-18.8-17.3c-10.4-7.4-19.3,1-26.5-5.4C101.8,92.3,84,93,88.2,107.1z"/>
		<g>
			<path class="st7" d="M106.3,113.1l66.7,45c0.4-0.6,0.8-1.3,1.2-1.9l-66.6-44.9c-0.5-0.4-1.2-0.2-1.6,0.3
				C105.6,112.1,105.8,112.8,106.3,113.1z"/>
		</g>
	</g>
	<g>
		<path class="st3" d="M420.3,315c-5.8,13.6-19.8,11.6-20.7,23.1c-1,11.5-9.1,19.3-18.8,16.1c-9.6-3.2-16.6-6.1-22.3,4.8
			c-5.8,10.9-20.8,14.9-25.4,5.3c-1.2-2.4-2.4-5-3.7-7.5c-0.3-0.7-0.7-1.4-1-2.1c-0.1-0.2-0.2-0.3-0.2-0.5
			c-5-10.2-1.6-22.7,8.1-28.7c3.9-2.4,8.4-3.5,13.1-1.6c14.8,6.2,11-9.8,20.8-15.2c11.3-6.3,19.3,3.2,27.2-2.4
			C408.3,298.6,426,301.4,420.3,315z"/>
		<g>
			<path class="st7" d="M401.4,319.1l-72,37.7c-0.3-0.7-0.7-1.4-1-2.1l72-37.7c0.6-0.3,1.3-0.1,1.5,0.5
				C402.2,318.1,402,318.8,401.4,319.1z"/>
		</g>
	</g>
	<g>
		<path class="st3" d="M395.4,257.4c1.7,13.7-10.6,18.6-6.1,28.3c4.5,9.7,1.6,19.9-7.7,21.8c-9.3,1.9-16.2,2.8-15.9,14.2
			c0.4,11.5-9.9,21.7-18.1,16.1c-2.1-1.4-4.3-2.9-6.5-4.4c-0.6-0.4-1.2-0.8-1.8-1.2c-0.1-0.1-0.3-0.2-0.4-0.3
			c-8.8-6-11.8-17.6-6.8-27c2-3.8,5.1-6.8,9.9-7.3c14.8-1.8,4.3-13,9.7-22c6.2-10.4,17.1-6.4,20.9-14.6
			C378.1,249.8,393.8,243.8,395.4,257.4z"/>
		<g>
			<path class="st1" d="M382,269.5l-40.8,64c-0.6-0.4-1.2-0.8-1.8-1.2l40.8-64c0.3-0.5,1-0.6,1.5-0.3
				C382.2,268.3,382.3,269,382,269.5z"/>
		</g>
	</g>
	<g>
		<path class="st3" d="M110.2,53.9c-1.7,14.3,11.1,19.4,6.3,29.5c-4.7,10.2-1.7,20.8,8,22.7c9.7,2,16.9,2.9,16.5,14.9
			c-0.4,12,10.3,22.7,18.9,16.8c2.1-1.5,4.5-3,6.7-4.6c0.6-0.4,1.2-0.8,1.8-1.3c0.1-0.1,0.3-0.2,0.4-0.3c9.1-6.2,12.3-18.4,7-28.1
			c-2.1-3.9-5.4-7-10.3-7.7c-15.5-1.9-4.5-13.6-10.2-22.9c-6.5-10.8-17.9-6.7-21.8-15.2C128.2,45.9,111.9,39.6,110.2,53.9z"/>
		<g>
			<path class="st1" d="M124.2,66.5l42.6,66.8c0.6-0.4,1.2-0.8,1.8-1.3L126,65.3c-0.3-0.5-1-0.7-1.5-0.3
				C124,65.2,123.8,65.9,124.2,66.5z"/>
		</g>
	</g>
	<path class="st3" d="M393.4,43.2c-7.1-3.8-7.5,9.7-5.7,22.2c1.3,9.5,0,16-1,19.2l-25,26.8c13-22.1,16.7-53.9,5.5-59.9
		c-11.2-6-11.8,15.5-9.1,35.2c2.1,14.9,0,25.2-1.6,30.3l-5,5.3c0.8,1,1.6,2,2.4,3l29.8-31.9c3.6-0.9,8.7-1.6,15.4-1.2
		c12.5,0.8,26-0.5,21.7-7.3c-3.7-5.9-19-3.9-31.7,2.7l10.3-11c3.8-2.9,9.1-7,16-9.9c16-6.7,29.9-15.9,22.2-21.5"/>
	<path class="st3" d="M437.5,45.3c-7.7-5.6-31.4,10.8-42.3,30.2l-5.3,5.7c8.2-13.9,10.6-34.1,3.5-37.9"/>
	<path class="st8" d="M91.7,295.3c-16.6-5-31.4-12.7-24.3-19c7.1-6.3,32.4,7.5,45.3,25.6l5.9,5.1c-9.6-13-14.1-32.8-7.5-37.3
		c6.6-4.5,8.4,8.9,8,21.5c-0.3,9.5,1.7,15.9,3,19l27.7,24.1c-15.2-20.6-22.3-51.8-11.7-59c10.5-7.2,13.4,14.1,12.8,34
		c-0.5,15,2.6,25,4.7,30l5.5,4.8c-0.7,1.1-1.4,2.2-2.1,3.3l-32.9-28.6c-3.6-0.5-8.8-0.7-15.5,0.4c-12.4,2.1-25.9,2.2-22.4-5
		c3.1-6.3,18.5-5.8,31.8-0.7l-11.4-9.9C104.6,300.9,98.9,297.4,91.7,295.3z"/>
	<g>
		<g>
			<path class="st9" d="M354.1,93.4v330.7c0,10.4-8.4,18.8-18.8,18.8H170.7c-5.2,0-9.9-2.1-13.3-5.5c-3.4-3.4-5.4-8.1-5.4-13.2V93.4
				c0-10.4,8.4-18.8,18.8-18.8h164.7c3.1,0,6,0.7,8.5,2C350,79.8,354.1,86.1,354.1,93.4z"/>
			<path class="st10" d="M354.1,93.4v330.7c0,10.4-8.4,18.8-18.8,18.8H170.7c-5.2,0-9.9-2.1-13.3-5.5L343.9,76.7
				C350,79.8,354.1,86.1,354.1,93.4z"/>
		</g>
		<g>
			<path class="st10" d="M151.3,207.6h-0.4c-3.2,0-5.9-2.6-5.9-5.9v-32c0-3.2,2.6-5.9,5.9-5.9h0.4c0.3,0,0.6,0.3,0.6,0.6V207
				C151.9,207.4,151.7,207.6,151.3,207.6z"/>
			<path class="st10" d="M354.6,207.6h0.4c3.2,0,5.9-2.6,5.9-5.9v-32c0-3.2-2.6-5.9-5.9-5.9h-0.4c-0.3,0-0.6,0.3-0.6,0.6V207
				C354,207.4,354.2,207.6,354.6,207.6z"/>
			<path class="st10" d="M151.3,257.2h-0.4c-3.2,0-5.9-2.6-5.9-5.9v-32c0-3.2,2.6-5.9,5.9-5.9h0.4c0.3,0,0.6,0.3,0.6,0.6v42.5
				C151.9,257,151.7,257.2,151.3,257.2z"/>
		</g>
		<g>
			<path class="st0" d="M344.8,94.2v329c0,5.6-4.6,10.2-10.2,10.2h-163c-4,0-7.5-2.3-9.2-5.7c0,0,0,0,0,0c-0.7-1.4-1-2.9-1-4.5v-329
				c0-5.6,4.6-10.2,10.2-10.2h163c1.8,0,3.4,0.4,4.9,1.2c0,0,0,0,0,0C342.6,87,344.8,90.3,344.8,94.2z"/>
			<g>
				<path class="st5" d="M326.1,193h-146c-6.2,0-11.2-5-11.2-11.2v-1.5c0-6.2,5-11.2,11.2-11.2h146c6.2,0,11.2,5,11.2,11.2v1.5
					C337.3,188,332.3,193,326.1,193z"/>
				<g>
					<path class="st5" d="M332.1,310.9h-158c-2.9,0-5.2-2.3-5.2-5.2l0,0c0-2.9,2.3-5.2,5.2-5.2h158c2.9,0,5.2,2.3,5.2,5.2l0,0
						C337.3,308.6,335,310.9,332.1,310.9z"/>
					<path class="st5" d="M332.1,333.4h-158c-2.9,0-5.2-2.3-5.2-5.2l0,0c0-2.9,2.3-5.2,5.2-5.2h158c2.9,0,5.2,2.3,5.2,5.2l0,0
						C337.3,331.1,335,333.4,332.1,333.4z"/>
					<path class="st5" d="M332.1,355.9h-158c-2.9,0-5.2-2.3-5.2-5.2l0,0c0-2.9,2.3-5.2,5.2-5.2h158c2.9,0,5.2,2.3,5.2,5.2l0,0
						C337.3,353.6,335,355.9,332.1,355.9z"/>
				</g>
				<path class="st5" d="M297,363.2h-6.9c-0.5,0-0.9,0.3-1.1,0.8l-1,3.7h-63.5c-0.3,0-0.6,0.1-0.8,0.4c-0.2,0.2-0.3,0.6-0.3,0.9
					l1,7.3c0,0.1,0,0.2,0,0.3c0,0.2,0.1,0.4,0.1,0.6l1.3,9.2l0.3,2.2l1.2,8.7l0.3,2.2l1.1,7.7c0.1,0.5,0.5,0.9,1.1,0.9h47l-1.5,5.5
					c-0.7,2.6-3.1,4.4-5.8,4.4H236c-0.6,0-1.1,0.4-1.1,1c-0.1,0.7,0.4,1.2,1.1,1.2h4.2c-1.2,0.8-2,2.1-2,3.6c0,2.4,1.9,4.3,4.3,4.3
					c2.4,0,4.3-1.9,4.3-4.3c0-1.5-0.8-2.9-2-3.6h18.9c-1.2,0.8-2,2.1-2,3.6c0,2.4,1.9,4.3,4.3,4.3c2.4,0,4.3-1.9,4.3-4.3
					c0-1.5-0.8-2.9-2-3.6h1.2c3.7,0,6.9-2.5,7.9-6l1.9-6.8c0,0,0,0,0,0l0,0c0,0,0-0.1,0-0.1l2.2-7.8l0.6-2.2l2.4-8.7l0.6-2.2l2.5-9
					l0.3-1.1v0l2-7.1c0,0,0-0.1,0-0.1l1-3.6h6.1c0.6,0,1.1-0.5,1.1-1.1C298.1,363.7,297.6,363.2,297,363.2z M278.9,400.3
					L278.9,400.3c0,0.1,0,0.1-0.1,0.1l-1.5,5.4h-46.7l-0.9-6.5h49.4L278.9,400.3z M279.8,397.2h-50.3l-1.2-8.7h53.9L279.8,397.2z
					 M282.8,386.3H228l-1.2-8.7h58.5L282.8,386.3z M285.9,375.4h-59.4l-0.8-5.5h61.7L285.9,375.4z"/>
				<g>
					<path class="st5" d="M298.4,283.7h-4.8c-20,0-36.4-16.4-36.4-36.4v-4.8c0-20,16.4-36.4,36.4-36.4h4.8c20,0,36.4,16.4,36.4,36.4
						v4.8C334.9,267.3,318.5,283.7,298.4,283.7z"/>
					<g>
						<g>
							<g>
								<path class="st11" d="M319.3,269.1c-2.2-2.8-9.5-12.6-10.5-21c-0.4-3.2-0.3-6.4,0.4-9.1c1.6-5.8,3.4-9.9,3.5-10
									c0,0-3.6-5.9-3.4-17.3l-0.8-0.3c-1.2-0.4-2.5,0.3-2.8,1.5c-0.9,3.3-3.2,7.2-7.5,7.2c-4.6,0-6.9-4-8.1-7.4
									c-0.4-1.3-2-1.7-3.1-0.9l-1.5,1.1c0.6,3.4,1.7,11.9-2.2,17.1c0,0,6.2,11.1,4,18c-2.2,6.8-12.5,21.3-12.5,21.3
									s8.3,9.3,22.6,9.3c15.8,0,22.6-8.8,22.6-8.8S319.7,269.6,319.3,269.1z"/>
							</g>
						</g>
					</g>
				</g>
				<g>
					<path class="st5" d="M210.2,283.7h-4.8c-20,0-36.4-16.4-36.4-36.4v-4.8c0-20,16.4-36.4,36.4-36.4h4.8c20,0,36.4,16.4,36.4,36.4
						v4.8C246.6,267.3,230.2,283.7,210.2,283.7z"/>
					<g>
						<g>
							<path class="st8" d="M221,240.6c0.4,12.4,0.5,27.6,0.4,31.3c-9.8,2.5-19.5,2.5-29.2,0c-0.1-3.8-0.1-19.3,0.2-31.7
								c0-0.1,0-0.2,0-0.4v0c-2.1-0.1-3.8-1-5-1.9c-1-0.7-1.5-1.4-1.5-1.4c2.1-5.4,6.7-11.6,7.7-12.8c0,0,0,0,0,0c0,0,0,0,0,0
								c0.6-0.9,3-2.4,5.5-3.8c0.4-0.3,0.9-0.5,1.4-0.6c0.5-0.1,1-0.2,1.5-0.2c0.3,0,0.5,0.2,0.5,0.5v0c0,2.6,2.1,4.7,4.8,4.6
								c2.5-0.1,4.4-2.2,4.4-4.7c0,0,0,0,0,0c0-0.2,0.2-0.4,0.4-0.4c0.8,0,1.6,0.2,2.3,0.6c2.3,1.4,4.6,2.8,5.3,3.8
								c0.9,1.2,5.6,7.8,7.8,13C226.3,238.3,222.9,240.2,221,240.6z"/>
						</g>
					</g>
				</g>
			</g>
			<path class="st12" d="M344.8,94.2v329c0,5.6-4.6,10.2-10.2,10.2h-163c-4,0-7.5-2.3-9.2-5.7c0,0,0,0,0,0L339.4,85.2c0,0,0,0,0,0
				C342.6,87,344.8,90.3,344.8,94.2z"/>
			<g>
				<path class="st0" d="M368.6,136.3v24h-231v-24h0c27.8-5.1,36.7-52.3,36.7-52.3h157.5C331.9,84,340.8,131.2,368.6,136.3z"/>
				<rect x="137.6" y="136.3" class="st5" width="231" height="24"/>
				<path class="st8" d="M203.7,84c0,0-8.9,47.2-36.7,52.3v24h-29.3v-24c27.8-5.1,36.7-52.3,36.7-52.3H203.7z"/>
				<path class="st8" d="M368.6,136.3v24h-29.3v-24c-27.8-5.1-36.7-52.3-36.7-52.3h29.3C331.9,84,340.8,131.2,368.6,136.3z"/>
				<path class="st8" d="M232.5,136.5v23.8H205l-0.7-24c17.5-13.4,18.9-52.3,18.9-52.3h18.1C242.2,112.1,232.5,136.5,232.5,136.5z"
					/>
				<path class="st8" d="M298.6,136.3l-0.7,24h-27.5v-23.8c0,0-9.6-24.4-8.8-52.5h18.1C279.8,84,281.1,122.9,298.6,136.3z"/>
				<rect x="137.6" y="136.3" class="st13" width="29.3" height="24"/>
				<polygon class="st13" points="368.6,136.3 368.6,160.3 339.3,160.3 339.3,136.3 368.6,136.3 				"/>
				<path class="st13" d="M232.6,136.3c0,0.1-0.1,0.2-0.1,0.2v23.8H205l-0.7-24H232.6z"/>
				<path class="st13" d="M298.6,136.3l-0.7,24h-27.5v-23.8c0,0,0-0.1-0.1-0.2H298.6z"/>
			</g>
		</g>
		<g>
			<path class="st9" d="M300.8,100.5h-95.6c-4.9,0-8.9-4-8.9-8.9v-1.2c0-4.9,4-8.9,8.9-8.9h95.6c4.9,0,8.9,4,8.9,8.9v1.2
				C309.8,96.5,305.7,100.5,300.8,100.5z"/>
			<path class="st10" d="M280.1,92.1h-63.6c-1.2,0-2.2-1-2.2-2.2v-0.3c0-1.2,1-2.2,2.2-2.2h63.6c1.2,0,2.2,1,2.2,2.2v0.3
				C282.3,91.1,281.3,92.1,280.1,92.1z"/>
			<circle class="st14" cx="296.1" cy="89.6" r="2.8"/>
		</g>
	</g>
	<g>
		<path class="st15" d="M146.4,330.9c-0.3,5.4-0.6,11.3-1,17.3c-2,35.6-4.8,79.5-5.6,96.6l-6.5,0.4c0,0-3.9-46.3-3.8-62.2
			c0-6.6-0.6-16.8-1.5-28.2c-0.6-7.7-1.2-16-1.9-24.1L146.4,330.9z"/>
		<path class="st16" d="M146.4,330.9c-0.3,5.4-0.7,12.3-1,18.4c-4,2.3-10.7,4.5-17.4,5.6c-0.6-7.7-1.2-16-1.9-24.1L146.4,330.9z"/>
		<g>
			<g>
				<path class="st8" d="M135.8,441.3c0,0,3.9-0.9,4.9-0.8c1.1,0.1,7.8,8.3,10.2,8.9c4.3,1,4,7.8,1.3,8c-7.7,0.6-20.6-3.2-20.6-3.2
					s-0.8-8.7-0.2-11.4C132.2,440.1,133.7,442,135.8,441.3z"/>
				<g>
					<g>
						<path class="st0" d="M141.8,449c-0.1,0-0.3,0-0.4-0.1c-0.2-0.2-0.3-0.5-0.1-0.7c0.1-0.1,1.4-1.9,3.1-2.5
							c2.2-0.8,3.6,0.6,3.7,0.6c0.2,0.2,0.2,0.5,0,0.7c-0.2,0.2-0.5,0.2-0.7,0c0,0-1.1-1-2.6-0.4c-1.3,0.5-2.6,2.1-2.6,2.2
							C142.1,448.9,142,449,141.8,449z"/>
					</g>
					<g>
						<path class="st0" d="M140.4,447.3c-0.1,0-0.3,0-0.4-0.1c-0.2-0.2-0.3-0.5-0.1-0.7c0.1-0.1,1.4-1.9,3.1-2.5
							c2.2-0.8,3.6,0.6,3.7,0.6c0.2,0.2,0.2,0.5,0,0.7c-0.2,0.2-0.5,0.2-0.7,0c0,0-1.1-1-2.6-0.4c-1.3,0.5-2.6,2.1-2.6,2.2
							C140.7,447.2,140.6,447.3,140.4,447.3z"/>
					</g>
					<g>
						<path class="st0" d="M143.8,450.4c-0.1,0-0.3,0-0.4-0.1c-0.2-0.2-0.3-0.5-0.1-0.7c0.1-0.1,1.4-1.9,3.1-2.5
							c2.2-0.8,3.6,0.6,3.7,0.6c0.2,0.2,0.2,0.5,0,0.7c-0.2,0.2-0.5,0.2-0.7,0c0,0-1.1-1-2.6-0.4c-1.3,0.5-2.6,2.1-2.6,2.2
							C144.1,450.3,143.9,450.4,143.8,450.4z"/>
					</g>
				</g>
			</g>
		</g>
	</g>
	<g>
		<path class="st15" d="M122.4,330.8c-0.7,8-1.3,16.3-1.9,24.1c0,0.1,0,0.1,0,0.2c0,0.4-0.1,0.7-0.1,1.1
			c-0.8,10.8-1.4,20.5-1.4,26.9c0,15.9-3.8,62.2-3.8,62.2l-7.6-0.5c-0.8-15.8-2.8-54.7-4.5-88.7c0-0.4,0-0.8-0.1-1.2
			c0-0.3,0-0.7,0-1c-0.4-8.2-0.8-16-1.1-23.1L122.4,330.8z"/>
		<path class="st16" d="M122.4,330.8c-0.7,8-1.3,16.3-1.9,24.1c0,0.1,0,0.1,0,0.2c-4.9,0.3-12.3-0.1-17.4-1.2
			c-0.4-8.2-0.8-16-1.1-23.1L122.4,330.8z"/>
		<g>
			<g>
				<path class="st8" d="M108.6,443.4c0,0-1.7-2.5-3.2-2.4c-1.4,0.1-12.6,8.6-16.4,9.2c-3.8,0.6-3.1,3.4-2.5,4.9
					c0.7,1.4,30.1,0.1,30.1,0.1s1-8.7,0.1-11.4C115.9,441.1,111.6,444.1,108.6,443.4z"/>
				<g>
					<g>
						<path class="st0" d="M102.4,449.4c0.1,0,0.3,0,0.4,0c0.3-0.1,0.4-0.5,0.2-0.7c0-0.1-1.2-2.1-2.7-2.9c-2-1.1-3.7,0-3.7,0.1
							c-0.2,0.2-0.3,0.5-0.1,0.7c0.2,0.2,0.5,0.3,0.7,0.1c0,0,1.2-0.8,2.6,0c1.3,0.7,2.2,2.5,2.3,2.5
							C102.2,449.3,102.3,449.4,102.4,449.4z"/>
					</g>
					<g>
						<path class="st0" d="M104,447.9c0.1,0,0.3,0,0.4,0c0.3-0.1,0.4-0.5,0.2-0.7c0-0.1-1.2-2.1-2.7-2.9c-2-1.1-3.7,0-3.7,0.1
							c-0.2,0.2-0.3,0.5-0.1,0.7c0.2,0.2,0.5,0.3,0.7,0.1c0,0,1.2-0.8,2.6,0c1.3,0.7,2.2,2.5,2.3,2.5
							C103.8,447.8,103.9,447.9,104,447.9z"/>
					</g>
					<g>
						<path class="st0" d="M100.2,450.6c0.1,0,0.3,0,0.4,0c0.3-0.1,0.4-0.5,0.2-0.7c0-0.1-1.2-2.1-2.7-2.9c-2-1.1-3.7,0-3.7,0.1
							c-0.2,0.2-0.3,0.5-0.1,0.7c0.2,0.2,0.5,0.3,0.7,0.1c0,0,1.2-0.8,2.6,0c1.3,0.7,2.2,2.5,2.3,2.5
							C100,450.4,100.1,450.5,100.2,450.6z"/>
					</g>
				</g>
			</g>
		</g>
	</g>
	<path class="st9" d="M99.8,234.8c5.4,4.8,11.8,2.7,19.9-1.5c8.1-4.1,2.9,4,10.9,5.4c8,1.4,7-18.4,7.6-28.2c0.3-6.2,2.8-14,2.8-17.1
		v0c0-0.5,0.1-1,0.1-1.5c0.1-7.5-4.6-21.2-20.8-19c0,0-13.5,1.5-15,14.7c0,0-0.6,6.1-1.1,10.5c-1.2,12.5-5.8,6-4.3,21.2
		C100.3,224.3,93.4,229.2,99.8,234.8z"/>
	<g>
		<g>
			<path class="st13" d="M149.3,225.1c0,0,2.9,24.4,6.2,36.1c0,0,4.7-2.2,10.8-5.1c6.6-3.2,16.2-9,16.2-9l2.4,5.8
				c0,0-24.6,23.2-32.8,24.5c-8.2,1.3-13.2-27.9-13.2-27.9L149.3,225.1z"/>
			<path class="st15" d="M181.9,247.7c0,0-0.7-3.2,0.8-5.4c1.4-2.2,3.7-6.3,6.2-7.2c2.2-0.7-1,2.9-1.1,5.3c0,0,3.2-0.4,5.6-1.2
				c2-0.7,6.1-1.5,8-1.9c0.5-0.1,0.8,0.5,0.4,0.9c-0.6,0.6-2,1.3-4.7,1.9c0,0,6.7-1.3,7.4-0.2c0.7,1-7.8,2.5-7.8,2.5
				s6.6-0.4,6.7,0.6c0.1,0.6-6.7,2.1-6.7,2.1s6.2,0.2,4.7,1.1c-0.4,0.3-12.4,1.6-16.6,6.6C184.8,252.8,182,249.9,181.9,247.7z"/>
		</g>
		<g>
			<g>
				<path class="st1" d="M177.6,249.6c-0.3,0.3-0.7,0.6-1,0.9c-0.8-0.3-1.7-0.4-2.5-0.3c-0.6,0.1-1.3,0.3-2,0.7
					c-2.6,1.4-4.3,4-5.4,7.3c-1.7,5.1-1.8,11.7-1.5,17.4c0.4,6.8,1.4,11.9,1.4,12l-1.2,0.1c-0.1-0.5-1-4.9-1.4-11.1
					c-0.4-5.5-0.3-11.9,1.1-17.3c1.1-4.2,3.1-7.8,6.4-9.5c1.7-0.9,3.5-1.1,5.1-0.5C177,249.4,177.3,249.5,177.6,249.6z"/>
				<path class="st1" d="M190.6,277l-1.2,0.2c0-0.2-3-13.6-7.7-21.5c0.4-0.5,0.7-0.6,1-0.9C187.7,262.8,190.5,276.2,190.6,277z"/>
			</g>
			<g>
				<path class="st11" d="M177.7,249.8c-0.4,0.2-0.8,0.5-1.1,0.7c0,0,0,0,0,0c0,0,0,0,0,0c-0.5,0.1-1.1,0.3-1.7,0.6
					c-1.6,0.8-2.9,2.2-3.9,3.9c-2.7,4.5-3.3,11.5-3.1,17.9c0.2,8,1.6,15.2,1.6,15.3l-1.2,0.2c-0.1-0.6-1.3-6.9-1.6-14.3
					c-0.2-5.9,0.2-12.6,2.2-17.6c1.1-2.8,2.8-5,5.2-6.3c0.1-0.1,0.2-0.1,0.3-0.2c0.8-0.4,1.6-0.7,2.3-0.8c0.5-0.1,1.3,0.1,1.7,0.1
					C178.3,249.5,178,249.6,177.7,249.8z"/>
				<path class="st11" d="M193.4,277.2l-1.2,0.2c0-0.2-3.2-15.9-8.8-23.3c0.4-0.4,0.5-0.4,0.9-0.8
					C190.3,260.8,193.3,276.4,193.4,277.2z"/>
			</g>
			<polygon class="st1" points="209.8,321.5 207.9,323.6 172.9,335 164.2,288.2 166.1,286.4 166.8,286.9 190.4,274.9 206,318.4 			
				"/>
			<polygon class="st3" points="166.1,286.1 192.3,272.8 209.8,321.5 174.8,332.9 			"/>
		</g>
	</g>
	<g>
		<g>
			<path class="st13" d="M53.9,295.6c-0.3,0.1-0.6,0.3-0.9,0.5c-3.2,1.9-5,5.5-5.9,9.9c-1.1,5.4-0.8,11.9-0.1,17.3
				c0.8,6.2,1.9,10.5,2,11l1.2-0.2c0-0.1-1.3-5.2-2.1-11.9c-0.6-5.7-0.9-12.3,0.5-17.4c0.8-2.9,2.1-5.4,4.1-7
				c0.2-0.3,0.4-0.6,0.7-0.8c0.2-0.1,0.3-0.2,0.5-0.3V295.6z"/>
			<path class="st13" d="M73.5,322.1l-1.1,0.3c0-0.2-3.3-13-8.4-20.6c0.2-0.4,0.5-0.7,0.7-1C70.1,308.4,73.3,321.4,73.5,322.1z"/>
		</g>
		<g>
			<path class="st8" d="M51.9,300.3c-0.1,0.9-0.1,1.9,0,2.9c-1.6,4.6-1.7,10.6-1.3,16.2c0.6,8,2.4,15,2.5,15.2l-1.1,0.3
				c-0.1-0.6-1.7-6.8-2.4-14.2c-0.6-5.9-0.5-12.6,1.2-17.7C51,302,51.4,301.1,51.9,300.3z"/>
			<path class="st8" d="M76.3,322.2l-1.1,0.3c0-0.2-3.9-15.5-9.9-22.6c0.2-0.4,0.5-0.7,0.7-1C72.3,306.1,76.1,321.4,76.3,322.2z"/>
		</g>
		<g>
			<polygon class="st13" points="96.1,366.3 94.1,368.6 57.5,383.1 45.2,333.6 47.2,331.6 47.9,332.1 76.6,320.3 91.8,363.3 			"/>
			<polygon class="st8" points="47.2,331.6 76.6,320.3 96.1,366.3 59.4,380.7 			"/>
		</g>
	</g>
	<g>
		<path class="st13" d="M98.3,223.4c0,0-5.1,38.3-9.9,46.9c0,0-15.2,19.7-23.3,26.4c1.1,3.2,2.9,5.5,5.5,6.9
			c0,0,22.5-16.9,28.1-26.1c6.2-10,9.1-26.8,9.3-33.6C108.1,243.8,104.3,232.8,98.3,223.4z"/>
		<path class="st15" d="M62.7,304.2c0.2,0.1-0.6,0.5-0.5,1.9c0.1,1,6,0.8,8.4-2.6l-5.5-6.9c0,0-7.9-2.5-11.1-1.4
			c-3.3,1.1-4.8,8.9-3.2,10.7c0,0,0.1,0.3,0.9,0c0,0,0.7,1.4,1.9,1.4c1.2,0.1,1.8-1.2,1.8-1.2s0.2,1.5,1.4,1.7
			c1.2,0.2,1.7-1.7,1.7-1.7s0.8,1.9,1.9,1.7C62.2,307.6,62,303.8,62.7,304.2z"/>
	</g>
	<g>
		<path class="st1" d="M59,295.3c-1.9-0.3-3.7-0.4-5,0c-0.3,0.1-0.6,0.3-0.9,0.5c-2.4,0.8-4.5,2.7-6.2,5.2c-3,4.4-5,10.7-6.3,16.3
			c-1.5,6.6-2,11.8-2,12l-1.2-0.2c0-0.5,0.4-5,1.8-11.1c1.2-5.4,3-11.6,5.8-16.3c2.3-3.8,5.1-6.6,8.8-7.3
			C55.9,294,57.6,294.3,59,295.3z"/>
		<path class="st1" d="M64.7,325.7l-1.2-0.1c0-0.2,1.2-12.3-1.2-21.3c0.4-0.8,1-0.9,1.3-0.8C66.3,312.6,64.8,325,64.7,325.7z"/>
	</g>
	<g>
		<path class="st11" d="M51.5,298c-0.4,0.8-0.7,1.8-1,2.7c-3,3.8-5.1,9.4-6.6,14.8c-2.1,7.8-2.7,15-2.7,15.1l-1.2-0.1
			c0.1-0.6,0.6-7,2.4-14.2c1.4-5.8,3.7-12.1,7-16.3C50.2,299.3,50.8,298.6,51.5,298z"/>
		<path class="st11" d="M67.4,326.7l-1.2-0.1c0-0.2,1.5-15.9-1.9-24.6c0.3-0.6,0.6-0.7,1-0.7C68.9,310.2,67.4,325.9,67.4,326.7z"/>
	</g>
	<polyline class="st1" points="28.5,378 33.2,327.8 36.8,326 37.3,326.7 68.2,325.1 68.4,370.7 71.4,374.9 68.8,376.5 28.5,378 	"/>
	<polygon class="st3" points="36.8,326 68.2,325.1 71.4,374.9 32,376.4 	"/>
	<g>
		<g>
			<path class="st8" d="M148.7,313.4l0.1,0.5c-10.7,7.3-50.8,2.3-50.8,2.3c0.1-0.8,0.2-1.7,0.3-2.6c0.1-1,0.3-2.1,0.5-3.2
				c0.5-2.9,1.1-6.1,1.9-9.3c0.2-1,0.5-2.1,0.7-3.1c0.7-3.1,1.5-6.2,2.2-9.3c0.3-1.1,0.5-2.1,0.7-3.1c0.3-1.4,0.7-2.8,1-4.2
				c0.4-1.8,0.7-3.6,1-5.2c0.2-1.1,0.4-2.2,0.5-3.2c0.2-1.1,0.3-2.1,0.3-3c-0.6-2.4-1.2-4.7-1.8-6.9c-0.3-1.1-0.5-2.3-0.8-3.4
				c-0.8-3.5-1.5-6.9-2.2-10c-0.2-1.1-0.4-2.3-0.6-3.3c-0.7-3.7-1.3-7.1-1.7-10c-0.2-1.2-0.3-2.3-0.5-3.3c-0.2-1.1-0.3-2.2-0.4-3.1
				c-0.5-4.2-0.7-6.5-0.7-6.5c0.1-0.1,0.2-0.1,0.3-0.2c1.2-0.9,3.1-1.7,5.2-2.4c2.2-0.8,4.7-1.4,6.9-2c0.3-0.1,0.7-0.2,1-0.2
				c2.9-0.7,5-1.1,5-1.1c9.7,2,12.5,0.7,12.5,0.7l4.9,1.5l0.6,0.2l3.6,1.3l0.1,0.1l6.5,2.3l4.3,1.5l-1.7,7.7l-0.7,3.4l-2.2,10.2
				l-0.7,3.4l-2.2,10.1l-0.7,3.3l-1.8,8.4l0.4,1.6l0.7,3.1l1.1,4.9l1,4.5l0.7,3.1l2.1,9.3l0.7,3.1l2.1,9.2L148.7,313.4z"/>
			<path class="st15" d="M134.7,220c-1,6.1-3.6,14.2-9.7,14.9c-7.4,0.8-11.7-10.5-13.3-16.2c2.9-0.7,5.8-1.3,5.8-1.3
				c9.7,2,11.6,0.8,11.6,0.8l5,1.7L134.7,220z"/>
			<g>
				<path class="st0" d="M123.9,227.7c-7.8,0-9.6-9.6-9.6-9.7c0-0.2,0.1-0.4,0.3-0.4c0.2,0,0.4,0.1,0.4,0.3c0.1,0.4,1.8,9.4,9.3,9
					c6.6-0.3,6.9-7.6,7-7.9c0-0.2,0.2-0.4,0.4-0.4c0.2,0,0.4,0.2,0.4,0.4c0,0.1-0.4,8.3-7.7,8.7C124.2,227.7,124,227.7,123.9,227.7z
					"/>
			</g>
			<circle class="st13" cx="108.1" cy="225.1" r="1.9"/>
			<circle class="st13" cx="104.3" cy="234.3" r="1.9"/>
			<circle class="st13" cx="116.4" cy="238.7" r="1.9"/>
			<circle class="st13" cx="108.1" cy="244.6" r="1.9"/>
			<circle class="st13" cx="124.3" cy="247.4" r="1.9"/>
			<circle class="st13" cx="136.4" cy="251.3" r="1.9"/>
			<circle class="st13" cx="138.9" cy="227" r="1.9"/>
			<circle class="st13" cx="125.1" cy="259.5" r="1.9"/>
			<circle class="st13" cx="113.4" cy="265.3" r="1.9"/>
			<circle class="st13" cx="112.1" cy="254.6" r="1.9"/>
			<circle class="st13" cx="130.7" cy="239.2" r="1.9"/>
			<circle class="st13" cx="141.2" cy="236.8" r="1.9"/>
			<circle class="st13" cx="134.5" cy="262.6" r="1.9"/>
			<circle class="st13" cx="135" cy="277.6" r="1.9"/>
			<circle class="st13" cx="125.5" cy="272" r="1.9"/>
			<circle class="st13" cx="112.6" cy="277.6" r="1.9"/>
		</g>
		<path class="st8" d="M153.2,339.9c-17.2,10.8-43.3,9.7-58.4,2.6l0.5-3.7l0.4-3.2l1.2-9.4l0.4-3.2l0.8-6.8l13-0.6l35.2-1.6l2.7-0.1
			l1.5,8.7l0.5,3.1l1.5,9.2l0.5,3.2L153.2,339.9z"/>
		<g>
			<path class="st11" d="M153.2,339.9c-17.2,10.8-43.3,9.7-58.4,2.6l0.4-3.7l0.1-1.1l0.3-2.1l0.1-0.5l0.2-1.5l0.9-7.4l0.1-0.6
				l0.2-1.5l0.1-1.1l0.8-6.8c0-0.1,0-0.1,0-0.2c0-0.5,0.1-1,0.1-1.5c0-0.3,0.1-0.6,0.1-0.9c0.1-1,0.3-2.1,0.4-3.2
				c0.2-1.3,0.4-2.6,0.7-3.9c0.1-0.5,0.2-1,0.3-1.4c0.3-1.3,0.6-2.6,0.9-4c0.2-1,0.5-2.1,0.7-3.1c0.1-0.3,0.1-0.5,0.2-0.7
				c0.1-0.5,0.2-1,0.3-1.5c0.6-2.4,1.1-4.8,1.7-7.1c0.1-0.2,0.1-0.5,0.2-0.7c0.1-0.5,0.2-1,0.4-1.5c0.1-0.3,0.1-0.6,0.2-0.9
				c0.3-1.4,0.7-2.8,1-4.2c6.7,1.5,21.9,4,36.1-0.2l0.9,4l0.1,0.5l0.2,1l0.5,2.1l1.3,5.7l0.3,1.5l0.5,2.1l0.7,3.1l0.6,2.6l0.3,1.5
				l1.2,5.2l0.6,2.6l0.1,0.4l0.1,0.5l0.1,0.6l1.3,8l0,0.2l0.2,1.3l0.3,1.8l1,6.2l0.3,1.5l0.3,1.5l0,0.2l0.5,2.9L153.2,339.9z"/>
			<g>
				<g>
					<path class="st1" d="M142.6,286.6c-5.9,2.5-12.9,3.3-19.5,3.3c-8,0-15.3-1.2-19.4-2c0.1-0.5,0.2-1,0.4-1.5
						c7.4,1.4,25.8,4.1,38.2-1.3l0.1,0.5L142.6,286.6z"/>
				</g>
				<g>
					<path class="st1" d="M144.8,295.9c-6.9,2.9-14.6,3.8-21.8,3.8c-9,0-17.2-1.5-21.5-2.5c0.1-0.5,0.2-1,0.3-1.5
						c7.7,1.7,27.6,5,42.6-1.3L144.8,295.9z"/>
				</g>
				<g>
					<path class="st1" d="M146.9,305.2c-7.7,3.1-16.2,4.2-23.9,4.2c-10,0-18.8-1.7-23.5-2.8c0.1-0.5,0.2-1,0.3-1.4
						c8,1.9,29.3,5.8,46.8-1.4L146.9,305.2z"/>
				</g>
				<g>
					<path class="st1" d="M148.9,314.5c-8.7,3.5-17.9,4.6-26.2,4.6c-10.5,0-19.7-1.8-24.7-3.1c0-0.5,0.1-1,0.1-1.5
						c8.7,2.2,30.8,6.4,50.5-1.5l0.1,0.4l0.1,0.5L148.9,314.5z"/>
				</g>
				<g>
					<path class="st1" d="M150.5,324c-9.5,3.7-19.3,4.9-28,4.9c-10.9,0-20.2-1.9-25.6-3.3l0.2-1.5c9.5,2.5,32,6.7,53.2-1.6l0,0.2
						L150.5,324z"/>
				</g>
				<g>
					<path class="st1" d="M152.1,333.4c-10.3,3.8-20.7,5.1-29.8,5.1c-11.2,0-20.8-1.9-26.6-3.5l0.2-1.5c10.3,2.7,33.1,6.9,56-1.7
						L152.1,333.4z"/>
				</g>
			</g>
			<path class="st1" d="M153.2,339.9c-17.2,10.8-43.3,9.7-58.4,2.6l0.5-3.7l0.1-1.1c4.1,1.8,13.5,4.9,28.6,4.8
				c14.3-0.1,23.8-4.5,28.4-7.3l0.5,2.9L153.2,339.9z"/>
		</g>
	</g>
	<g>
		<g>
			<g>
				<path class="st16" d="M135.5,194.3c0,0,2.3-2.9,4.1-0.5c1.7,2.4-0.7,9.6-4.9,7.9L135.5,194.3z"/>
				<circle class="st0" cx="137.2" cy="201.2" r="0.8"/>
				<g>
					<path class="st17" d="M135.5,199.4c0.2,0,0.3-0.1,0.3-0.2c0.7-2.2,3.1-3.1,3.1-3.1c0.2-0.1,0.3-0.3,0.2-0.4
						c-0.1-0.2-0.3-0.3-0.5-0.2c-0.1,0-2.8,1-3.5,3.6C135.1,199.2,135.2,199.4,135.5,199.4C135.4,199.4,135.5,199.4,135.5,199.4z"/>
				</g>
				<g>
					<path class="st17" d="M137.9,198.3c0.1,0,0.1,0,0.2-0.1c0.2-0.1,0.2-0.3,0.1-0.5c0,0-0.4-0.6-1.3-1c-0.2-0.1-0.4,0-0.5,0.2
						c-0.1,0.2,0,0.4,0.2,0.4c0.7,0.3,1,0.8,1,0.8C137.7,198.3,137.8,198.3,137.9,198.3z"/>
				</g>
			</g>
			<path class="st15" d="M117.5,209.4v8.8c0,0,4.1,3.2,7.3,3.4c3.2,0.3,4.3-3.5,4.3-3.5v-8.2L117.5,209.4z"/>
			<path class="st16" d="M117.5,210.2v3.5c2.1,2.4,6,3.2,11.6,2.4l0-5.4L117.5,210.2z"/>
			<path class="st15" d="M136.9,197.7c-0.1,0.9-0.2,1.7-0.4,2.6c-1,5.7-4.6,11.9-9.2,13c-9.9,2.2-14-5.5-15.6-11.3
				c-0.2-0.6,0.2-1.4,0-2.1c-0.3-1.8-1-3.8-1.2-5.8c-0.1-1.4-0.2-2.8-0.3-4c-0.2-3.5,1.9-6.7,5-7.9c4.5-1.8,11.5-3.2,18,0.6
				c2.4,1.4,3.9,4,4,6.9C137.3,191.8,137.2,194.7,136.9,197.7z"/>
			<g>
				<g>
					<g>
						<path class="st16" d="M124.8,202.1c-0.2,0-0.3-0.1-0.4-0.3c0-0.2,0.1-0.4,0.3-0.4l1.3-0.2l-1.8-4.8c-0.1-0.2,0-0.4,0.2-0.5
							c0.2-0.1,0.4,0,0.5,0.2l2.1,5.7L124.8,202.1C124.8,202.1,124.8,202.1,124.8,202.1z"/>
					</g>
				</g>
			</g>
			<path class="st9" d="M133,188c3.9,1.8,2.6,6.4,3.9,8.7c0.1,0.1,0.2,0.2,0.3,0.1c0.4-3.1,0.4-6,0.4-8.2c-0.1-2.9-1.7-5.6-4.2-7
				c-6.9-3.9-14.2-2.5-19-0.6c-3.3,1.3-5.5,4.5-5.3,8.1c0.1,1.3,0.1,2.7,0.3,4.1c0.6,0.4,2.2,0.6,2.3,1.6c0.2,2.7,0.3,4.6,0.9,4.4
				c1-0.3,1.6-3.6,0.5-5.7c0,0,0.9-1.4,4.5-2.8c4.6-1.8,9.1-4.4,9.1-4.4s1.8-1.1,2.4-2.2C129,183.9,130.1,186.6,133,188z"/>
			<ellipse class="st9" cx="130.3" cy="195.7" rx="1" ry="1.5"/>
			<ellipse class="st9" cx="119.7" cy="195.7" rx="1" ry="1.5"/>
			<path class="st9" d="M132.9,191.7c-0.8-0.2-2.4-0.4-4.1-0.3c-0.4,0-0.8,0.4-0.7,0.7l0,0c0,0.3,0.4,0.5,0.7,0.4
				c1.2-0.1,4.2-0.1,5.6,0.3c0-0.2-0.1-0.4-0.3-0.6C133.8,191.9,133.3,191.8,132.9,191.7z"/>
			<path class="st9" d="M117.2,191.9c0.8-0.2,2.4-0.4,4.1-0.4c0.4,0,0.8,0.3,0.7,0.7l0,0c0,0.3-0.3,0.5-0.7,0.5
				c-1.2-0.1-4.2,0-5.6,0.4c0-0.2,0.1-0.4,0.3-0.6C116.3,192.1,116.8,191.9,117.2,191.9z"/>
			<path class="st0" d="M129,204.4c-0.3,1.3-1.2,3.8-4.4,3.8c-3.2,0-4.1-2.3-4.4-3.8H129z"/>
			<g>
				<path class="st16" d="M124.7,210.5c0.9,0,1.7-0.5,1.8-0.5c0.2-0.1,0.2-0.3,0.1-0.5c-0.1-0.2-0.3-0.2-0.5-0.1l0,0
					c0,0-0.7,0.4-1.4,0.4c-0.8,0-1.4-0.4-1.4-0.4c-0.2-0.1-0.4,0-0.5,0.1c-0.1,0.2-0.1,0.4,0.1,0.5
					C122.9,210,123.7,210.5,124.7,210.5z"/>
			</g>
		</g>
		<g>
			<path class="st15" d="M111.6,194.3c0,0-2.7-3.3-4.3-0.9c-1.6,2.4,0.7,9.4,4.6,7.6L111.6,194.3z"/>
			<circle class="st0" cx="110.2" cy="201.2" r="0.8"/>
			<g>
				<path class="st16" d="M111,198.9c-0.1,0-0.3-0.1-0.3-0.2c-0.6-2.2-2.8-3-2.9-3c-0.2-0.1-0.3-0.3-0.2-0.4
					c0.1-0.2,0.3-0.3,0.4-0.2c0.1,0,2.6,1,3.3,3.5C111.4,198.6,111.3,198.8,111,198.9C111.1,198.8,111.1,198.9,111,198.9z"/>
			</g>
			<g>
				<g>
					<g>
						<path class="st16" d="M108.8,197.8c-0.1,0-0.1,0-0.2-0.1c-0.2-0.1-0.2-0.3-0.1-0.5c0,0,0.4-0.6,1.2-1c0.2-0.1,0.4,0,0.4,0.2
							c0.1,0.2,0,0.4-0.2,0.4c-0.6,0.3-1,0.7-1,0.8C109,197.7,108.9,197.8,108.8,197.8z"/>
					</g>
				</g>
			</g>
		</g>
	</g>
	<g>
		<g>
			<polygon class="st8" points="439.4,440.3 359.1,440.3 370.2,350.9 428.3,350.9 			"/>
			<g>
				<circle class="st18" cx="386.5" cy="355.4" r="2.7"/>
				<circle class="st18" cx="414.5" cy="355.4" r="2.7"/>
				<g>
					<path class="st0" d="M386.6,355.1L386.6,355.1c-0.6,0-1.1-0.6-1.1-1.2c0.1-2.8,0.6-10.1,2.1-17.4c2.7-12.8,7.1-19.3,13.2-19.3
						c6.1,0,10.5,6.5,12.9,19.3c1.4,7.3,1.7,14.6,1.8,17.4c0,0.6-0.5,1.2-1.1,1.2l0,0c-0.6,0-1.1-0.5-1.2-1.1
						c-0.3-10.6-2.9-34.5-12.4-34.5c-9.6,0-12.6,23.9-13.1,34.5C387.7,354.6,387.2,355.1,386.6,355.1z"/>
				</g>
			</g>
		</g>
		<g>
			<polygon class="st3" points="433.2,447.2 310.8,447.2 322,389.8 422,389.8 			"/>
			<g>
				<g>
					<circle class="st1" cx="347.8" cy="395" r="2.7"/>
					<circle class="st1" cx="395.6" cy="395" r="2.7"/>
				</g>
				<g>
					<path class="st0" d="M347.8,394.7L347.8,394.7c-0.7,0-1.3-0.7-1.2-1.4c0.2-2.4,0.9-7.7,3.4-13.1c4.3-9.6,12-14.7,22.2-14.7
						c10.2,0,17.7,5.1,21.8,14.7c2.3,5.4,2.8,10.7,3,13.1c0,0.7-0.5,1.4-1.3,1.4l0,0c-0.7,0-1.2-0.5-1.3-1.2
						c-0.1-2.2-0.7-7.3-2.8-12.3c-3.7-8.7-10.2-13.1-19.4-13.1c-9.2,0-15.9,4.4-19.8,13.2c-2.3,5-2.9,10-3.1,12.3
						C349,394.2,348.4,394.7,347.8,394.7z"/>
				</g>
			</g>
		</g>
		<g>
			<rect x="150.8" y="397.3" class="st3" width="68.1" height="51.8"/>
			<rect x="148.5" y="394.7" class="st3" width="72.7" height="8.6"/>
			<rect x="150.8" y="403.3" class="st1" width="68.1" height="4.7"/>
			<rect x="181.9" y="394.7" class="st0" width="6" height="54.4"/>
			<rect x="181.9" y="407.7" class="st19" width="6" height="41.4"/>
			<rect x="181.9" y="403.3" class="st20" width="6" height="4.7"/>
		</g>
	</g>
	<ellipse class="st5" cx="250.7" cy="446" rx="213.6" ry="11.8"/>
	<path class="st6" d="M231.3,126.3C214.4,65,138.2,45.3,94.6,91.1c-0.6,0.7-1.3,1.3-1.9,2c-62.6,68-33,235.7,97.6,278.2
		c130.6,42.5,266.5-35.1,274.1-104.5c7.6-69.4-52.6-91.2-146.1-71.8C265.4,206,241.8,164.5,231.3,126.3z"/>
	<path class="st2" d="M174.1,45.3c-6.3-1.2-10.8,4-8.4,9.9c0.8,2,2.4,3.9,5.1,5.7c10.4,6.7,19.4,3.3,18.5-6
		C188.7,49.2,180.4,46.5,174.1,45.3"/>
	<g>
		<path class="st3" d="M86.2,110.1c4.2,14,18.2,13.6,17.9,24.9c-0.3,11.4,6.8,20,16.7,17.9c9.8-2.1,16.9-4.2,21.4,7.1
			c4.5,11.3,18.8,17,24.4,8c1.4-2.2,2.9-4.6,4.4-7c0.4-0.6,0.8-1.3,1.2-1.9c0.1-0.1,0.2-0.3,0.3-0.4c6-9.5,4-22.1-4.8-29
			c-3.6-2.8-7.8-4.4-12.7-3c-15.2,4.5-9.7-10.8-18.8-17.3c-10.4-7.4-19.3,1-26.5-5.4C99.8,95.3,82,96,86.2,110.1z"/>
		<g>
			<path class="st7" d="M104.3,116.1l66.7,45c0.4-0.6,0.8-1.3,1.2-1.9l-66.6-44.9c-0.5-0.4-1.2-0.2-1.6,0.3
				C103.6,115.1,103.8,115.8,104.3,116.1z"/>
		</g>
	</g>
	<g>
		<path class="st3" d="M418.3,318c-5.8,13.6-19.8,11.6-20.7,23.1c-1,11.5-9.1,19.3-18.8,16.1c-9.6-3.2-16.6-6.1-22.3,4.8
			c-5.8,10.9-20.8,14.9-25.4,5.3c-1.2-2.4-2.4-5-3.7-7.5c-0.3-0.7-0.7-1.4-1-2.1c-0.1-0.2-0.2-0.3-0.2-0.5
			c-5-10.2-1.6-22.7,8.1-28.7c3.9-2.4,8.4-3.5,13.1-1.6c14.8,6.2,11-9.8,20.8-15.2c11.3-6.3,19.3,3.2,27.2-2.4
			C406.3,301.6,424,304.4,418.3,318z"/>
		<g>
			<path class="st7" d="M399.4,322.1l-72,37.7c-0.3-0.7-0.7-1.4-1-2.1l72-37.7c0.6-0.3,1.3-0.1,1.5,0.5
				C400.2,321.1,400,321.8,399.4,322.1z"/>
		</g>
	</g>
	<g>
		<path class="st3" d="M393.4,260.4c1.7,13.7-10.6,18.6-6.1,28.3c4.5,9.7,1.6,19.9-7.7,21.8c-9.3,1.9-16.2,2.8-15.9,14.2
			c0.4,11.5-9.9,21.7-18.1,16.1c-2.1-1.4-4.3-2.9-6.5-4.4c-0.6-0.4-1.2-0.8-1.8-1.2c-0.1-0.1-0.3-0.2-0.4-0.3
			c-8.8-6-11.8-17.6-6.8-27c2-3.8,5.1-6.8,9.9-7.3c14.8-1.8,4.3-13,9.7-22c6.2-10.4,17.1-6.4,20.9-14.6
			C376.1,252.8,391.8,246.8,393.4,260.4z"/>
		<g>
			<path class="st1" d="M380,272.5l-40.8,64c-0.6-0.4-1.2-0.8-1.8-1.2l40.8-64c0.3-0.5,1-0.6,1.5-0.3
				C380.2,271.3,380.3,272,380,272.5z"/>
		</g>
	</g>
	<g>
		<path class="st3" d="M108.2,56.9c-1.7,14.3,11.1,19.4,6.3,29.5c-4.7,10.2-1.7,20.8,8,22.7c9.7,2,16.9,2.9,16.5,14.9
			c-0.4,12,10.3,22.7,18.9,16.8c2.1-1.5,4.5-3,6.7-4.6c0.6-0.4,1.2-0.8,1.8-1.3c0.1-0.1,0.3-0.2,0.4-0.3c9.1-6.2,12.3-18.4,7-28.1
			c-2.1-3.9-5.4-7-10.3-7.7c-15.5-1.9-4.5-13.6-10.2-22.9c-6.5-10.8-17.9-6.7-21.8-15.2C126.2,48.9,109.9,42.6,108.2,56.9z"/>
		<g>
			<path class="st1" d="M122.2,69.5l42.6,66.8c0.6-0.4,1.2-0.8,1.8-1.3L124,68.3c-0.3-0.5-1-0.7-1.5-0.3
				C122,68.2,121.8,68.9,122.2,69.5z"/>
		</g>
	</g>
	<path class="st3" d="M391.4,46.2c-7.1-3.8-7.5,9.7-5.7,22.2c1.3,9.5,0,16-1,19.2l-25,26.8c13-22.1,16.7-53.9,5.5-59.9
		c-11.2-6-11.8,15.5-9.1,35.2c2.1,14.9,0,25.2-1.6,30.3l-5,5.3c0.8,1,1.6,2,2.4,3l29.8-31.9c3.6-0.9,8.7-1.6,15.4-1.2
		c12.5,0.8,26-0.5,21.7-7.3c-3.7-5.9-19-3.9-31.7,2.7l10.3-11c3.8-2.9,9.1-7,16-9.9c16-6.7,29.9-15.9,22.2-21.5"/>
	<path class="st3" d="M435.5,48.3c-7.7-5.6-31.4,10.8-42.3,30.2l-5.3,5.7c8.2-13.9,10.6-34.1,3.5-37.9"/>
	<path class="st8" d="M89.7,298.3c-16.6-5-31.4-12.7-24.3-19c7.1-6.3,32.4,7.5,45.3,25.6l5.9,5.1c-9.6-13-14.1-32.8-7.5-37.3
		c6.6-4.5,8.4,8.9,8,21.5c-0.3,9.5,1.7,15.9,3,19l27.7,24.1c-15.2-20.6-22.3-51.8-11.7-59c10.5-7.2,13.4,14.1,12.8,34
		c-0.5,15,2.6,25,4.7,30l5.5,4.8c-0.7,1.1-1.4,2.2-2.1,3.3l-32.9-28.6c-3.6-0.5-8.8-0.7-15.5,0.4c-12.4,2.1-25.9,2.2-22.4-5
		c3.1-6.3,18.5-5.8,31.8-0.7l-11.4-9.9C102.6,303.9,96.9,300.4,89.7,298.3z"/>
	<g>
		<g>
			<path class="st9" d="M352.1,96.4v330.7c0,10.4-8.4,18.8-18.8,18.8H168.7c-5.2,0-9.9-2.1-13.3-5.5c-3.4-3.4-5.4-8.1-5.4-13.2V96.4
				c0-10.4,8.4-18.8,18.8-18.8h164.7c3.1,0,6,0.7,8.5,2C348,82.8,352.1,89.1,352.1,96.4z"/>
			<path class="st10" d="M352.1,96.4v330.7c0,10.4-8.4,18.8-18.8,18.8H168.7c-5.2,0-9.9-2.1-13.3-5.5L341.9,79.7
				C348,82.8,352.1,89.1,352.1,96.4z"/>
		</g>
		<g>
			<path class="st10" d="M149.3,210.6h-0.4c-3.2,0-5.9-2.6-5.9-5.9v-32c0-3.2,2.6-5.9,5.9-5.9h0.4c0.3,0,0.6,0.3,0.6,0.6V210
				C149.9,210.4,149.7,210.6,149.3,210.6z"/>
			<path class="st10" d="M352.6,210.6h0.4c3.2,0,5.9-2.6,5.9-5.9v-32c0-3.2-2.6-5.9-5.9-5.9h-0.4c-0.3,0-0.6,0.3-0.6,0.6V210
				C352,210.4,352.2,210.6,352.6,210.6z"/>
			<path class="st10" d="M149.3,260.2h-0.4c-3.2,0-5.9-2.6-5.9-5.9v-32c0-3.2,2.6-5.9,5.9-5.9h0.4c0.3,0,0.6,0.3,0.6,0.6v42.5
				C149.9,260,149.7,260.2,149.3,260.2z"/>
		</g>
		<g>
			<path class="st0" d="M342.8,97.2v329c0,5.6-4.6,10.2-10.2,10.2h-163c-4,0-7.5-2.3-9.2-5.7c0,0,0,0,0,0c-0.7-1.4-1-2.9-1-4.5v-329
				c0-5.6,4.6-10.2,10.2-10.2h163c1.8,0,3.4,0.4,4.9,1.2c0,0,0,0,0,0C340.6,90,342.8,93.3,342.8,97.2z"/>
			<g>
				<path class="st5" d="M324.1,196h-146c-6.2,0-11.2-5-11.2-11.2v-1.5c0-6.2,5-11.2,11.2-11.2h146c6.2,0,11.2,5,11.2,11.2v1.5
					C335.3,191,330.3,196,324.1,196z"/>
				<g>
					<path class="st5" d="M330.1,313.9h-158c-2.9,0-5.2-2.3-5.2-5.2l0,0c0-2.9,2.3-5.2,5.2-5.2h158c2.9,0,5.2,2.3,5.2,5.2l0,0
						C335.3,311.6,333,313.9,330.1,313.9z"/>
					<path class="st5" d="M330.1,336.4h-158c-2.9,0-5.2-2.3-5.2-5.2l0,0c0-2.9,2.3-5.2,5.2-5.2h158c2.9,0,5.2,2.3,5.2,5.2l0,0
						C335.3,334.1,333,336.4,330.1,336.4z"/>
					<path class="st5" d="M330.1,358.9h-158c-2.9,0-5.2-2.3-5.2-5.2l0,0c0-2.9,2.3-5.2,5.2-5.2h158c2.9,0,5.2,2.3,5.2,5.2l0,0
						C335.3,356.6,333,358.9,330.1,358.9z"/>
				</g>
				<path class="st5" d="M295,366.2h-6.9c-0.5,0-0.9,0.3-1.1,0.8l-1,3.7h-63.5c-0.3,0-0.6,0.1-0.8,0.4c-0.2,0.2-0.3,0.6-0.3,0.9
					l1,7.3c0,0.1,0,0.2,0,0.3c0,0.2,0.1,0.4,0.1,0.6l1.3,9.2l0.3,2.2l1.2,8.7l0.3,2.2l1.1,7.7c0.1,0.5,0.5,0.9,1.1,0.9h47l-1.5,5.5
					c-0.7,2.6-3.1,4.4-5.8,4.4H234c-0.6,0-1.1,0.4-1.1,1c-0.1,0.7,0.4,1.2,1.1,1.2h4.2c-1.2,0.8-2,2.1-2,3.6c0,2.4,1.9,4.3,4.3,4.3
					c2.4,0,4.3-1.9,4.3-4.3c0-1.5-0.8-2.9-2-3.6h18.9c-1.2,0.8-2,2.1-2,3.6c0,2.4,1.9,4.3,4.3,4.3c2.4,0,4.3-1.9,4.3-4.3
					c0-1.5-0.8-2.9-2-3.6h1.2c3.7,0,6.9-2.5,7.9-6l1.9-6.8c0,0,0,0,0,0l0,0c0,0,0-0.1,0-0.1l2.2-7.8l0.6-2.2l2.4-8.7l0.6-2.2l2.5-9
					l0.3-1.1v0l2-7.1c0,0,0-0.1,0-0.1l1-3.6h6.1c0.6,0,1.1-0.5,1.1-1.1C296.1,366.7,295.6,366.2,295,366.2z M276.9,403.3
					L276.9,403.3c0,0.1,0,0.1-0.1,0.1l-1.5,5.4h-46.7l-0.9-6.5h49.4L276.9,403.3z M277.8,400.2h-50.3l-1.2-8.7h53.9L277.8,400.2z
					 M280.8,389.3H226l-1.2-8.7h58.5L280.8,389.3z M283.9,378.4h-59.4l-0.8-5.5h61.7L283.9,378.4z"/>
				<g>
					<path class="st5" d="M296.4,286.7h-4.8c-20,0-36.4-16.4-36.4-36.4v-4.8c0-20,16.4-36.4,36.4-36.4h4.8c20,0,36.4,16.4,36.4,36.4
						v4.8C332.9,270.3,316.5,286.7,296.4,286.7z"/>
					<g>
						<g>
							<g>
								<path class="st11" d="M317.3,272.1c-2.2-2.8-9.5-12.6-10.5-21c-0.4-3.2-0.3-6.4,0.4-9.1c1.6-5.8,3.4-9.9,3.5-10
									c0,0-3.6-5.9-3.4-17.3l-0.8-0.3c-1.2-0.4-2.5,0.3-2.8,1.5c-0.9,3.3-3.2,7.2-7.5,7.2c-4.6,0-6.9-4-8.1-7.4
									c-0.4-1.3-2-1.7-3.1-0.9l-1.5,1.1c0.6,3.4,1.7,11.9-2.2,17.1c0,0,6.2,11.1,4,18c-2.2,6.8-12.5,21.3-12.5,21.3
									s8.3,9.3,22.6,9.3c15.8,0,22.6-8.8,22.6-8.8S317.7,272.6,317.3,272.1z"/>
							</g>
						</g>
					</g>
				</g>
				<g>
					<path class="st5" d="M208.2,286.7h-4.8c-20,0-36.4-16.4-36.4-36.4v-4.8c0-20,16.4-36.4,36.4-36.4h4.8c20,0,36.4,16.4,36.4,36.4
						v4.8C244.6,270.3,228.2,286.7,208.2,286.7z"/>
					<g>
						<g>
							<path class="st8" d="M219,243.6c0.4,12.4,0.5,27.6,0.4,31.3c-9.8,2.5-19.5,2.5-29.2,0c-0.1-3.8-0.1-19.3,0.2-31.7
								c0-0.1,0-0.2,0-0.4v0c-2.1-0.1-3.8-1-5-1.9c-1-0.7-1.5-1.4-1.5-1.4c2.1-5.4,6.7-11.6,7.7-12.8c0,0,0,0,0,0c0,0,0,0,0,0
								c0.6-0.9,3-2.4,5.5-3.8c0.4-0.3,0.9-0.5,1.4-0.6c0.5-0.1,1-0.2,1.5-0.2c0.3,0,0.5,0.2,0.5,0.5v0c0,2.6,2.1,4.7,4.8,4.6
								c2.5-0.1,4.4-2.2,4.4-4.7c0,0,0,0,0,0c0-0.2,0.2-0.4,0.4-0.4c0.8,0,1.6,0.2,2.3,0.6c2.3,1.4,4.6,2.8,5.3,3.8
								c0.9,1.2,5.6,7.8,7.8,13C224.3,241.3,220.9,243.2,219,243.6z"/>
						</g>
					</g>
				</g>
			</g>
			<path class="st12" d="M342.8,97.2v329c0,5.6-4.6,10.2-10.2,10.2h-163c-4,0-7.5-2.3-9.2-5.7c0,0,0,0,0,0L337.4,88.2c0,0,0,0,0,0
				C340.6,90,342.8,93.3,342.8,97.2z"/>
			<g>
				<path class="st0" d="M366.6,139.3v24h-231v-24h0c27.8-5.1,36.7-52.3,36.7-52.3h157.5C329.9,87,338.8,134.2,366.6,139.3z"/>
				<rect x="135.6" y="139.3" class="st5" width="231" height="24"/>
				<path class="st8" d="M201.7,87c0,0-8.9,47.2-36.7,52.3v24h-29.3v-24c27.8-5.1,36.7-52.3,36.7-52.3H201.7z"/>
				<path class="st8" d="M366.6,139.3v24h-29.3v-24c-27.8-5.1-36.7-52.3-36.7-52.3h29.3C329.9,87,338.8,134.2,366.6,139.3z"/>
				<path class="st8" d="M230.5,139.5v23.8H203l-0.7-24c17.5-13.4,18.9-52.3,18.9-52.3h18.1C240.2,115.1,230.5,139.5,230.5,139.5z"
					/>
				<path class="st8" d="M296.6,139.3l-0.7,24h-27.5v-23.8c0,0-9.6-24.4-8.8-52.5h18.1C277.8,87,279.1,125.9,296.6,139.3z"/>
				<rect x="135.6" y="139.3" class="st13" width="29.3" height="24"/>
				<polygon class="st13" points="366.6,139.3 366.6,163.3 337.3,163.3 337.3,139.3 366.6,139.3 				"/>
				<path class="st13" d="M230.6,139.3c0,0.1-0.1,0.2-0.1,0.2v23.8H203l-0.7-24H230.6z"/>
				<path class="st13" d="M296.6,139.3l-0.7,24h-27.5v-23.8c0,0,0-0.1-0.1-0.2H296.6z"/>
			</g>
		</g>
		<g>
			<path class="st9" d="M298.8,103.5h-95.6c-4.9,0-8.9-4-8.9-8.9v-1.2c0-4.9,4-8.9,8.9-8.9h95.6c4.9,0,8.9,4,8.9,8.9v1.2
				C307.8,99.5,303.7,103.5,298.8,103.5z"/>
			<path class="st10" d="M278.1,95.1h-63.6c-1.2,0-2.2-1-2.2-2.2v-0.3c0-1.2,1-2.2,2.2-2.2h63.6c1.2,0,2.2,1,2.2,2.2v0.3
				C280.3,94.1,279.3,95.1,278.1,95.1z"/>
			<circle class="st14" cx="294.1" cy="92.6" r="2.8"/>
		</g>
	</g>
	<g>
		<path class="st15" d="M144.4,333.9c-0.3,5.4-0.6,11.3-1,17.3c-2,35.6-4.8,79.5-5.6,96.6l-6.5,0.4c0,0-3.9-46.3-3.8-62.2
			c0-6.6-0.6-16.8-1.5-28.2c-0.6-7.7-1.2-16-1.9-24.1L144.4,333.9z"/>
		<path class="st16" d="M144.4,333.9c-0.3,5.4-0.7,12.3-1,18.4c-4,2.3-10.7,4.5-17.4,5.6c-0.6-7.7-1.2-16-1.9-24.1L144.4,333.9z"/>
		<g>
			<g>
				<path class="st8" d="M133.8,444.3c0,0,3.9-0.9,4.9-0.8c1.1,0.1,7.8,8.3,10.2,8.9c4.3,1,4,7.8,1.3,8c-7.7,0.6-20.6-3.2-20.6-3.2
					s-0.8-8.7-0.2-11.4C130.2,443.1,131.7,445,133.8,444.3z"/>
				<g>
					<g>
						<path class="st0" d="M139.8,452c-0.1,0-0.3,0-0.4-0.1c-0.2-0.2-0.3-0.5-0.1-0.7c0.1-0.1,1.4-1.9,3.1-2.5
							c2.2-0.8,3.6,0.6,3.7,0.6c0.2,0.2,0.2,0.5,0,0.7c-0.2,0.2-0.5,0.2-0.7,0c0,0-1.1-1-2.6-0.4c-1.3,0.5-2.6,2.1-2.6,2.2
							C140.1,451.9,140,452,139.8,452z"/>
					</g>
					<g>
						<path class="st0" d="M138.4,450.3c-0.1,0-0.3,0-0.4-0.1c-0.2-0.2-0.3-0.5-0.1-0.7c0.1-0.1,1.4-1.9,3.1-2.5
							c2.2-0.8,3.6,0.6,3.7,0.6c0.2,0.2,0.2,0.5,0,0.7c-0.2,0.2-0.5,0.2-0.7,0c0,0-1.1-1-2.6-0.4c-1.3,0.5-2.6,2.1-2.6,2.2
							C138.7,450.2,138.6,450.3,138.4,450.3z"/>
					</g>
					<g>
						<path class="st0" d="M141.8,453.4c-0.1,0-0.3,0-0.4-0.1c-0.2-0.2-0.3-0.5-0.1-0.7c0.1-0.1,1.4-1.9,3.1-2.5
							c2.2-0.8,3.6,0.6,3.7,0.6c0.2,0.2,0.2,0.5,0,0.7c-0.2,0.2-0.5,0.2-0.7,0c0,0-1.1-1-2.6-0.4c-1.3,0.5-2.6,2.1-2.6,2.2
							C142.1,453.3,141.9,453.4,141.8,453.4z"/>
					</g>
				</g>
			</g>
		</g>
	</g>
	<g>
		<path class="st15" d="M120.4,333.8c-0.7,8-1.3,16.3-1.9,24.1c0,0.1,0,0.1,0,0.2c0,0.4-0.1,0.7-0.1,1.1
			c-0.8,10.8-1.4,20.5-1.4,26.9c0,15.9-3.8,62.2-3.8,62.2l-7.6-0.5c-0.8-15.8-2.8-54.7-4.5-88.7c0-0.4,0-0.8-0.1-1.2
			c0-0.3,0-0.7,0-1c-0.4-8.2-0.8-16-1.1-23.1L120.4,333.8z"/>
		<path class="st16" d="M120.4,333.8c-0.7,8-1.3,16.3-1.9,24.1c0,0.1,0,0.1,0,0.2c-4.9,0.3-12.3-0.1-17.4-1.2
			c-0.4-8.2-0.8-16-1.1-23.1L120.4,333.8z"/>
		<g>
			<g>
				<path class="st8" d="M106.6,446.4c0,0-1.7-2.5-3.2-2.4c-1.4,0.1-12.6,8.6-16.4,9.2c-3.8,0.6-3.1,3.4-2.5,4.9
					c0.7,1.4,30.1,0.1,30.1,0.1s1-8.7,0.1-11.4C113.9,444.1,109.6,447.1,106.6,446.4z"/>
				<g>
					<g>
						<path class="st0" d="M100.4,452.4c0.1,0,0.3,0,0.4,0c0.3-0.1,0.4-0.5,0.2-0.7c0-0.1-1.2-2.1-2.7-2.9c-2-1.1-3.7,0-3.7,0.1
							c-0.2,0.2-0.3,0.5-0.1,0.7c0.2,0.2,0.5,0.3,0.7,0.1c0,0,1.2-0.8,2.6,0c1.3,0.7,2.2,2.5,2.3,2.5
							C100.2,452.3,100.3,452.4,100.4,452.4z"/>
					</g>
					<g>
						<path class="st0" d="M102,450.9c0.1,0,0.3,0,0.4,0c0.3-0.1,0.4-0.5,0.2-0.7c0-0.1-1.2-2.1-2.7-2.9c-2-1.1-3.7,0-3.7,0.1
							c-0.2,0.2-0.3,0.5-0.1,0.7c0.2,0.2,0.5,0.3,0.7,0.1c0,0,1.2-0.8,2.6,0c1.3,0.7,2.2,2.5,2.3,2.5
							C101.8,450.8,101.9,450.9,102,450.9z"/>
					</g>
					<g>
						<path class="st0" d="M98.2,453.6c0.1,0,0.3,0,0.4,0c0.3-0.1,0.4-0.5,0.2-0.7c0-0.1-1.2-2.1-2.7-2.9c-2-1.1-3.7,0-3.7,0.1
							c-0.2,0.2-0.3,0.5-0.1,0.7c0.2,0.2,0.5,0.3,0.7,0.1c0,0,1.2-0.8,2.6,0c1.3,0.7,2.2,2.5,2.3,2.5
							C98,453.4,98.1,453.5,98.2,453.6z"/>
					</g>
				</g>
			</g>
		</g>
	</g>
	<path class="st9" d="M97.8,237.8c5.4,4.8,11.8,2.7,19.9-1.5c8.1-4.1,2.9,4,10.9,5.4c8,1.4,7-18.4,7.6-28.2c0.3-6.2,2.8-14,2.8-17.1
		v0c0-0.5,0.1-1,0.1-1.5c0.1-7.5-4.6-21.2-20.8-19c0,0-13.5,1.5-15,14.7c0,0-0.6,6.1-1.1,10.5c-1.2,12.5-5.8,6-4.3,21.2
		C98.3,227.3,91.4,232.2,97.8,237.8z"/>
	<g>
		<g>
			<path class="st13" d="M147.3,228.1c0,0,2.9,24.4,6.2,36.1c0,0,4.7-2.2,10.8-5.1c6.6-3.2,16.2-9,16.2-9l2.4,5.8
				c0,0-24.6,23.2-32.8,24.5c-8.2,1.3-13.2-27.9-13.2-27.9L147.3,228.1z"/>
			<path class="st15" d="M179.9,250.7c0,0-0.7-3.2,0.8-5.4c1.4-2.2,3.7-6.3,6.2-7.2c2.2-0.7-1,2.9-1.1,5.3c0,0,3.2-0.4,5.6-1.2
				c2-0.7,6.1-1.5,8-1.9c0.5-0.1,0.8,0.5,0.4,0.9c-0.6,0.6-2,1.3-4.7,1.9c0,0,6.7-1.3,7.4-0.2c0.7,1-7.8,2.5-7.8,2.5
				s6.6-0.4,6.7,0.6c0.1,0.6-6.7,2.1-6.7,2.1s6.2,0.2,4.7,1.1c-0.4,0.3-12.4,1.6-16.6,6.6C182.8,255.8,180,252.9,179.9,250.7z"/>
		</g>
		<g>
			<g>
				<path class="st1" d="M175.6,252.6c-0.3,0.3-0.7,0.6-1,0.9c-0.8-0.3-1.7-0.4-2.5-0.3c-0.6,0.1-1.3,0.3-2,0.7
					c-2.6,1.4-4.3,4-5.4,7.3c-1.7,5.1-1.8,11.7-1.5,17.4c0.4,6.8,1.4,11.9,1.4,12l-1.2,0.1c-0.1-0.5-1-4.9-1.4-11.1
					c-0.4-5.5-0.3-11.9,1.1-17.3c1.1-4.2,3.1-7.8,6.4-9.5c1.7-0.9,3.5-1.1,5.1-0.5C175,252.4,175.3,252.5,175.6,252.6z"/>
				<path class="st1" d="M188.6,280l-1.2,0.2c0-0.2-3-13.6-7.7-21.5c0.4-0.5,0.7-0.6,1-0.9C185.7,265.8,188.5,279.2,188.6,280z"/>
			</g>
			<g>
				<path class="st11" d="M175.7,252.8c-0.4,0.2-0.8,0.5-1.1,0.7c0,0,0,0,0,0c0,0,0,0,0,0c-0.5,0.1-1.1,0.3-1.7,0.6
					c-1.6,0.8-2.9,2.2-3.9,3.9c-2.7,4.5-3.3,11.5-3.1,17.9c0.2,8,1.6,15.2,1.6,15.3l-1.2,0.2c-0.1-0.6-1.3-6.9-1.6-14.3
					c-0.2-5.9,0.2-12.6,2.2-17.6c1.1-2.8,2.8-5,5.2-6.3c0.1-0.1,0.2-0.1,0.3-0.2c0.8-0.4,1.6-0.7,2.3-0.8c0.5-0.1,1.3,0.1,1.7,0.1
					C176.3,252.5,176,252.6,175.7,252.8z"/>
				<path class="st11" d="M191.4,280.2l-1.2,0.2c0-0.2-3.2-15.9-8.8-23.3c0.4-0.4,0.5-0.4,0.9-0.8
					C188.3,263.8,191.3,279.4,191.4,280.2z"/>
			</g>
			<polygon class="st1" points="207.8,324.5 205.9,326.6 170.9,338 162.2,291.2 164.1,289.4 164.8,289.9 188.4,277.9 204,321.4 			
				"/>
			<polygon class="st3" points="164.1,289.1 190.3,275.8 207.8,324.5 172.8,335.9 			"/>
		</g>
	</g>
	<g>
		<g>
			<path class="st13" d="M51.9,298.6c-0.3,0.1-0.6,0.3-0.9,0.5c-3.2,1.9-5,5.5-5.9,9.9c-1.1,5.4-0.8,11.9-0.1,17.3
				c0.8,6.2,1.9,10.5,2,11l1.2-0.2c0-0.1-1.3-5.2-2.1-11.9c-0.6-5.7-0.9-12.3,0.5-17.4c0.8-2.9,2.1-5.4,4.1-7
				c0.2-0.3,0.4-0.6,0.7-0.8c0.2-0.1,0.3-0.2,0.5-0.3V298.6z"/>
			<path class="st13" d="M71.5,325.1l-1.1,0.3c0-0.2-3.3-13-8.4-20.6c0.2-0.4,0.5-0.7,0.7-1C68.1,311.4,71.3,324.4,71.5,325.1z"/>
		</g>
		<g>
			<path class="st8" d="M49.9,303.3c-0.1,0.9-0.1,1.9,0,2.9c-1.6,4.6-1.7,10.6-1.3,16.2c0.6,8,2.4,15,2.5,15.2l-1.1,0.3
				c-0.1-0.6-1.7-6.8-2.4-14.2c-0.6-5.9-0.5-12.6,1.2-17.7C49,305,49.4,304.1,49.9,303.3z"/>
			<path class="st8" d="M74.3,325.2l-1.1,0.3c0-0.2-3.9-15.5-9.9-22.6c0.2-0.4,0.5-0.7,0.7-1C70.3,309.1,74.1,324.4,74.3,325.2z"/>
		</g>
		<g>
			<polygon class="st13" points="94.1,369.3 92.1,371.6 55.5,386.1 43.2,336.6 45.2,334.6 45.9,335.1 74.6,323.3 89.8,366.3 			"/>
			<polygon class="st8" points="45.2,334.6 74.6,323.3 94.1,369.3 57.4,383.7 			"/>
		</g>
	</g>
	<g>
		<path class="st13" d="M96.3,226.4c0,0-5.1,38.3-9.9,46.9c0,0-15.2,19.7-23.3,26.4c1.1,3.2,2.9,5.5,5.5,6.9
			c0,0,22.5-16.9,28.1-26.1c6.2-10,9.1-26.8,9.3-33.6C106.1,246.8,102.3,235.8,96.3,226.4z"/>
		<path class="st15" d="M60.7,307.2c0.2,0.1-0.6,0.5-0.5,1.9c0.1,1,6,0.8,8.4-2.6l-5.5-6.9c0,0-7.9-2.5-11.1-1.4
			c-3.3,1.1-4.8,8.9-3.2,10.7c0,0,0.1,0.3,0.9,0c0,0,0.7,1.4,1.9,1.4c1.2,0.1,1.8-1.2,1.8-1.2s0.2,1.5,1.4,1.7
			c1.2,0.2,1.7-1.7,1.7-1.7s0.8,1.9,1.9,1.7C60.2,310.6,60,306.8,60.7,307.2z"/>
	</g>
	<g>
		<path class="st1" d="M57,298.3c-1.9-0.3-3.7-0.4-5,0c-0.3,0.1-0.6,0.3-0.9,0.5c-2.4,0.8-4.5,2.7-6.2,5.2c-3,4.4-5,10.7-6.3,16.3
			c-1.5,6.6-2,11.8-2,12l-1.2-0.2c0-0.5,0.4-5,1.8-11.1c1.2-5.4,3-11.6,5.8-16.3c2.3-3.8,5.1-6.6,8.8-7.3
			C53.9,297,55.6,297.3,57,298.3z"/>
		<path class="st1" d="M62.7,328.7l-1.2-0.1c0-0.2,1.2-12.3-1.2-21.3c0.4-0.8,1-0.9,1.3-0.8C64.3,315.6,62.8,328,62.7,328.7z"/>
	</g>
	<g>
		<path class="st11" d="M49.5,301c-0.4,0.8-0.7,1.8-1,2.7c-3,3.8-5.1,9.4-6.6,14.8c-2.1,7.8-2.7,15-2.7,15.1l-1.2-0.1
			c0.1-0.6,0.6-7,2.4-14.2c1.4-5.8,3.7-12.1,7-16.3C48.2,302.3,48.8,301.6,49.5,301z"/>
		<path class="st11" d="M65.4,329.7l-1.2-0.1c0-0.2,1.5-15.9-1.9-24.6c0.3-0.6,0.6-0.7,1-0.7C66.9,313.2,65.4,328.9,65.4,329.7z"/>
	</g>
	<polyline class="st1" points="31.2,330.8 34.8,329 35.3,329.7 66.2,328.1 66.4,373.7 69.4,377.9 66.8,379.5 26.5,381 	"/>
	<polyline class="st3" points="30,379.4 34.8,329 66.2,328.1 69.4,377.9 30,379.4 	"/>
	<g>
		<g>
			<path class="st8" d="M146.7,316.4l0.1,0.5c-10.7,7.3-50.8,2.3-50.8,2.3c0.1-0.8,0.2-1.7,0.3-2.6c0.1-1,0.3-2.1,0.5-3.2
				c0.5-2.9,1.1-6.1,1.9-9.3c0.2-1,0.5-2.1,0.7-3.1c0.7-3.1,1.5-6.2,2.2-9.3c0.3-1.1,0.5-2.1,0.7-3.1c0.3-1.4,0.7-2.8,1-4.2
				c0.4-1.8,0.7-3.6,1-5.2c0.2-1.1,0.4-2.2,0.5-3.2c0.2-1.1,0.3-2.1,0.3-3c-0.6-2.4-1.2-4.7-1.8-6.9c-0.3-1.1-0.5-2.3-0.8-3.4
				c-0.8-3.5-1.5-6.9-2.2-10c-0.2-1.1-0.4-2.3-0.6-3.3c-0.7-3.7-1.3-7.1-1.7-10c-0.2-1.2-0.3-2.3-0.5-3.3c-0.2-1.1-0.3-2.2-0.4-3.1
				c-0.5-4.2-0.7-6.5-0.7-6.5c0.1-0.1,0.2-0.1,0.3-0.2c1.2-0.9,3.1-1.7,5.2-2.4c2.2-0.8,4.7-1.4,6.9-2c0.3-0.1,0.7-0.2,1-0.2
				c2.9-0.7,5-1.1,5-1.1c9.7,2,12.5,0.7,12.5,0.7l4.9,1.5l0.6,0.2l3.6,1.3l0.1,0.1l6.5,2.3l4.3,1.5l-1.7,7.7l-0.7,3.4l-2.2,10.2
				l-0.7,3.4l-2.2,10.1l-0.7,3.3l-1.8,8.4l0.4,1.6l0.7,3.1l1.1,4.9l1,4.5l0.7,3.1l2.1,9.3l0.7,3.1l2.1,9.2L146.7,316.4z"/>
			<path class="st15" d="M132.7,223c-1,6.1-3.6,14.2-9.7,14.9c-7.4,0.8-11.7-10.5-13.3-16.2c2.9-0.7,5.8-1.3,5.8-1.3
				c9.7,2,11.6,0.8,11.6,0.8l5,1.7L132.7,223z"/>
			<g>
				<path class="st0" d="M121.9,230.7c-7.8,0-9.6-9.6-9.6-9.7c0-0.2,0.1-0.4,0.3-0.4c0.2,0,0.4,0.1,0.4,0.3c0.1,0.4,1.8,9.4,9.3,9
					c6.6-0.3,6.9-7.6,7-7.9c0-0.2,0.2-0.4,0.4-0.4c0.2,0,0.4,0.2,0.4,0.4c0,0.1-0.4,8.3-7.7,8.7C122.2,230.7,122,230.7,121.9,230.7z
					"/>
			</g>
			<circle class="st13" cx="106.1" cy="228.1" r="1.9"/>
			<circle class="st13" cx="102.3" cy="237.3" r="1.9"/>
			<circle class="st13" cx="114.4" cy="241.7" r="1.9"/>
			<circle class="st13" cx="106.1" cy="247.6" r="1.9"/>
			<circle class="st13" cx="122.3" cy="250.4" r="1.9"/>
			<circle class="st13" cx="134.4" cy="254.3" r="1.9"/>
			<circle class="st13" cx="136.9" cy="230" r="1.9"/>
			<circle class="st13" cx="123.1" cy="262.5" r="1.9"/>
			<circle class="st13" cx="111.4" cy="268.3" r="1.9"/>
			<circle class="st13" cx="110.1" cy="257.6" r="1.9"/>
			<circle class="st13" cx="128.7" cy="242.2" r="1.9"/>
			<circle class="st13" cx="139.2" cy="239.8" r="1.9"/>
			<circle class="st13" cx="132.5" cy="265.6" r="1.9"/>
			<circle class="st13" cx="133" cy="280.6" r="1.9"/>
			<circle class="st13" cx="123.5" cy="275" r="1.9"/>
			<circle class="st13" cx="110.6" cy="280.6" r="1.9"/>
		</g>
		<path class="st8" d="M151.2,342.9c-17.2,10.8-43.3,9.7-58.4,2.6l0.5-3.7l0.4-3.2l1.2-9.4l0.4-3.2l0.8-6.8l13-0.6l35.2-1.6l2.7-0.1
			l1.5,8.7l0.5,3.1l1.5,9.2l0.5,3.2L151.2,342.9z"/>
		<g>
			<path class="st11" d="M151.2,342.9c-17.2,10.8-43.3,9.7-58.4,2.6l0.4-3.7l0.1-1.1l0.3-2.1l0.1-0.5l0.2-1.5l0.9-7.4l0.1-0.6
				l0.2-1.5l0.1-1.1l0.8-6.8c0-0.1,0-0.1,0-0.2c0-0.5,0.1-1,0.1-1.5c0-0.3,0.1-0.6,0.1-0.9c0.1-1,0.3-2.1,0.4-3.2
				c0.2-1.3,0.4-2.6,0.7-3.9c0.1-0.5,0.2-1,0.3-1.4c0.3-1.3,0.6-2.6,0.9-4c0.2-1,0.5-2.1,0.7-3.1c0.1-0.3,0.1-0.5,0.2-0.7
				c0.1-0.5,0.2-1,0.3-1.5c0.6-2.4,1.1-4.8,1.7-7.1c0.1-0.2,0.1-0.5,0.2-0.7c0.1-0.5,0.2-1,0.4-1.5c0.1-0.3,0.1-0.6,0.2-0.9
				c0.3-1.4,0.7-2.8,1-4.2c6.7,1.5,21.9,4,36.1-0.2l0.9,4l0.1,0.5l0.2,1l0.5,2.1l1.3,5.7l0.3,1.5l0.5,2.1l0.7,3.1l0.6,2.6l0.3,1.5
				l1.2,5.2l0.6,2.6l0.1,0.4l0.1,0.5l0.1,0.6l1.3,8l0,0.2l0.2,1.3l0.3,1.8l1,6.2l0.3,1.5l0.3,1.5l0,0.2l0.5,2.9L151.2,342.9z"/>
			<g>
				<g>
					<path class="st1" d="M140.6,289.6c-5.9,2.5-12.9,3.3-19.5,3.3c-8,0-15.3-1.2-19.4-2c0.1-0.5,0.2-1,0.4-1.5
						c7.4,1.4,25.8,4.1,38.2-1.3l0.1,0.5L140.6,289.6z"/>
				</g>
				<g>
					<path class="st1" d="M142.8,298.9c-6.9,2.9-14.6,3.8-21.8,3.8c-9,0-17.2-1.5-21.5-2.5c0.1-0.5,0.2-1,0.3-1.5
						c7.7,1.7,27.6,5,42.6-1.3L142.8,298.9z"/>
				</g>
				<g>
					<path class="st1" d="M144.9,308.2c-7.7,3.1-16.2,4.2-23.9,4.2c-10,0-18.8-1.7-23.5-2.8c0.1-0.5,0.2-1,0.3-1.4
						c8,1.9,29.3,5.8,46.8-1.4L144.9,308.2z"/>
				</g>
				<g>
					<path class="st1" d="M146.9,317.5c-8.7,3.5-17.9,4.6-26.2,4.6c-10.5,0-19.7-1.8-24.7-3.1c0-0.5,0.1-1,0.1-1.5
						c8.7,2.2,30.8,6.4,50.5-1.5l0.1,0.4l0.1,0.5L146.9,317.5z"/>
				</g>
				<g>
					<path class="st1" d="M148.5,327c-9.5,3.7-19.3,4.9-28,4.9c-10.9,0-20.2-1.9-25.6-3.3l0.2-1.5c9.5,2.5,32,6.7,53.2-1.6l0,0.2
						L148.5,327z"/>
				</g>
				<g>
					<path class="st1" d="M150.1,336.4c-10.3,3.8-20.7,5.1-29.8,5.1c-11.2,0-20.8-1.9-26.6-3.5l0.2-1.5c10.3,2.7,33.1,6.9,56-1.7
						L150.1,336.4z"/>
				</g>
			</g>
			<path class="st1" d="M151.2,342.9c-17.2,10.8-43.3,9.7-58.4,2.6l0.5-3.7l0.1-1.1c4.1,1.8,13.5,4.9,28.6,4.8
				c14.3-0.1,23.8-4.5,28.4-7.3l0.5,2.9L151.2,342.9z"/>
		</g>
	</g>
	<g>
		<g>
			<g>
				<path class="st16" d="M133.5,197.3c0,0,2.3-2.9,4.1-0.5c1.7,2.4-0.7,9.6-4.9,7.9L133.5,197.3z"/>
				<circle class="st0" cx="135.2" cy="204.2" r="0.8"/>
				<g>
					<path class="st17" d="M133.5,202.4c0.2,0,0.3-0.1,0.3-0.2c0.7-2.2,3.1-3.1,3.1-3.1c0.2-0.1,0.3-0.3,0.2-0.4
						c-0.1-0.2-0.3-0.3-0.5-0.2c-0.1,0-2.8,1-3.5,3.6C133.1,202.2,133.2,202.4,133.5,202.4C133.4,202.4,133.5,202.4,133.5,202.4z"/>
				</g>
				<g>
					<path class="st17" d="M135.9,201.3c0.1,0,0.1,0,0.2-0.1c0.2-0.1,0.2-0.3,0.1-0.5c0,0-0.4-0.6-1.3-1c-0.2-0.1-0.4,0-0.5,0.2
						c-0.1,0.2,0,0.4,0.2,0.4c0.7,0.3,1,0.8,1,0.8C135.7,201.3,135.8,201.3,135.9,201.3z"/>
				</g>
			</g>
			<path class="st15" d="M115.5,212.4v8.8c0,0,4.1,3.2,7.3,3.4c3.2,0.3,4.3-3.5,4.3-3.5v-8.2L115.5,212.4z"/>
			<path class="st16" d="M115.5,213.2v3.5c2.1,2.4,6,3.2,11.6,2.4l0-5.4L115.5,213.2z"/>
			<path class="st15" d="M134.9,200.7c-0.1,0.9-0.2,1.7-0.4,2.6c-1,5.7-4.6,11.9-9.2,13c-9.9,2.2-14-5.5-15.6-11.3
				c-0.2-0.6,0.2-1.4,0-2.1c-0.3-1.8-1-3.8-1.2-5.8c-0.1-1.4-0.2-2.8-0.3-4c-0.2-3.5,1.9-6.7,5-7.9c4.5-1.8,11.5-3.2,18,0.6
				c2.4,1.4,3.9,4,4,6.9C135.3,194.8,135.2,197.7,134.9,200.7z"/>
			<g>
				<g>
					<g>
						<path class="st16" d="M122.8,205.1c-0.2,0-0.3-0.1-0.4-0.3c0-0.2,0.1-0.4,0.3-0.4l1.3-0.2l-1.8-4.8c-0.1-0.2,0-0.4,0.2-0.5
							c0.2-0.1,0.4,0,0.5,0.2l2.1,5.7L122.8,205.1C122.8,205.1,122.8,205.1,122.8,205.1z"/>
					</g>
				</g>
			</g>
			<path class="st9" d="M131,191c3.9,1.8,2.6,6.4,3.9,8.7c0.1,0.1,0.2,0.2,0.3,0.1c0.4-3.1,0.4-6,0.4-8.2c-0.1-2.9-1.7-5.6-4.2-7
				c-6.9-3.9-14.2-2.5-19-0.6c-3.3,1.3-5.5,4.5-5.3,8.1c0.1,1.3,0.1,2.7,0.3,4.1c0.6,0.4,2.2,0.6,2.3,1.6c0.2,2.7,0.3,4.6,0.9,4.4
				c1-0.3,1.6-3.6,0.5-5.7c0,0,0.9-1.4,4.5-2.8c4.6-1.8,9.1-4.4,9.1-4.4s1.8-1.1,2.4-2.2C127,186.9,128.1,189.6,131,191z"/>
			<ellipse class="st9" cx="128.3" cy="198.7" rx="1" ry="1.5"/>
			<ellipse class="st9" cx="117.7" cy="198.7" rx="1" ry="1.5"/>
			<path class="st9" d="M130.9,194.7c-0.8-0.2-2.4-0.4-4.1-0.3c-0.4,0-0.8,0.4-0.7,0.7l0,0c0,0.3,0.4,0.5,0.7,0.4
				c1.2-0.1,4.2-0.1,5.6,0.3c0-0.2-0.1-0.4-0.3-0.6C131.8,194.9,131.3,194.8,130.9,194.7z"/>
			<path class="st9" d="M115.2,194.9c0.8-0.2,2.4-0.4,4.1-0.4c0.4,0,0.8,0.3,0.7,0.7l0,0c0,0.3-0.3,0.5-0.7,0.5
				c-1.2-0.1-4.2,0-5.6,0.4c0-0.2,0.1-0.4,0.3-0.6C114.3,195.1,114.8,194.9,115.2,194.9z"/>
			<path class="st0" d="M127,207.4c-0.3,1.3-1.2,3.8-4.4,3.8c-3.2,0-4.1-2.3-4.4-3.8H127z"/>
			<g>
				<path class="st16" d="M122.7,213.5c0.9,0,1.7-0.5,1.8-0.5c0.2-0.1,0.2-0.3,0.1-0.5c-0.1-0.2-0.3-0.2-0.5-0.1l0,0
					c0,0-0.7,0.4-1.4,0.4c-0.8,0-1.4-0.4-1.4-0.4c-0.2-0.1-0.4,0-0.5,0.1c-0.1,0.2-0.1,0.4,0.1,0.5
					C120.9,213,121.7,213.5,122.7,213.5z"/>
			</g>
		</g>
		<g>
			<path class="st15" d="M109.6,197.3c0,0-2.7-3.3-4.3-0.9c-1.6,2.4,0.7,9.4,4.6,7.6L109.6,197.3z"/>
			<circle class="st0" cx="108.2" cy="204.2" r="0.8"/>
			<g>
				<path class="st16" d="M109,201.9c-0.1,0-0.3-0.1-0.3-0.2c-0.6-2.2-2.8-3-2.9-3c-0.2-0.1-0.3-0.3-0.2-0.4
					c0.1-0.2,0.3-0.3,0.4-0.2c0.1,0,2.6,1,3.3,3.5C109.4,201.6,109.3,201.8,109,201.9C109.1,201.8,109.1,201.9,109,201.9z"/>
			</g>
			<g>
				<g>
					<g>
						<path class="st16" d="M106.8,200.8c-0.1,0-0.1,0-0.2-0.1c-0.2-0.1-0.2-0.3-0.1-0.5c0,0,0.4-0.6,1.2-1c0.2-0.1,0.4,0,0.4,0.2
							c0.1,0.2,0,0.4-0.2,0.4c-0.6,0.3-1,0.7-1,0.8C107,200.7,106.9,200.8,106.8,200.8z"/>
					</g>
				</g>
			</g>
		</g>
	</g>
	<g>
		<g>
			<polygon class="st8" points="437.4,443.3 357.1,443.3 368.2,353.9 426.3,353.9 			"/>
			<g>
				<circle class="st18" cx="384.5" cy="358.4" r="2.7"/>
				<circle class="st18" cx="412.5" cy="358.4" r="2.7"/>
				<g>
					<path class="st0" d="M384.6,358.1L384.6,358.1c-0.6,0-1.1-0.6-1.1-1.2c0.1-2.8,0.6-10.1,2.1-17.4c2.7-12.8,7.1-19.3,13.2-19.3
						c6.1,0,10.5,6.5,12.9,19.3c1.4,7.3,1.7,14.6,1.8,17.4c0,0.6-0.5,1.2-1.1,1.2l0,0c-0.6,0-1.1-0.5-1.2-1.1
						c-0.3-10.6-2.9-34.5-12.4-34.5c-9.6,0-12.6,23.9-13.1,34.5C385.7,357.6,385.2,358.1,384.6,358.1z"/>
				</g>
			</g>
		</g>
		<g>
			<polygon class="st3" points="431.2,450.2 308.8,450.2 320,392.8 420,392.8 			"/>
			<g>
				<g>
					<circle class="st1" cx="345.8" cy="398" r="2.7"/>
					<circle class="st1" cx="393.6" cy="398" r="2.7"/>
				</g>
				<g>
					<path class="st0" d="M345.8,397.7L345.8,397.7c-0.7,0-1.3-0.7-1.2-1.4c0.2-2.4,0.9-7.7,3.4-13.1c4.3-9.6,12-14.7,22.2-14.7
						c10.2,0,17.7,5.1,21.8,14.7c2.3,5.4,2.8,10.7,3,13.1c0,0.7-0.5,1.4-1.3,1.4l0,0c-0.7,0-1.2-0.5-1.3-1.2
						c-0.1-2.2-0.7-7.3-2.8-12.3c-3.7-8.7-10.2-13.1-19.4-13.1c-9.2,0-15.9,4.4-19.8,13.2c-2.3,5-2.9,10-3.1,12.3
						C347,397.2,346.4,397.7,345.8,397.7z"/>
				</g>
			</g>
		</g>
		<g>
			<rect x="148.8" y="400.3" class="st3" width="68.1" height="51.8"/>
			<rect x="146.5" y="397.7" class="st3" width="72.7" height="8.6"/>
			<rect x="148.8" y="406.3" class="st1" width="68.1" height="4.7"/>
			<rect x="179.9" y="397.7" class="st0" width="6" height="54.4"/>
			<rect x="179.9" y="410.7" class="st19" width="6" height="41.4"/>
			<rect x="179.9" y="406.3" class="st20" width="6" height="4.7"/>
		</g>
	</g>
	<ellipse class="st5" cx="250.7" cy="446" rx="213.6" ry="11.8"/>
	<path class="st6" d="M231.3,126.3C214.4,65,138.2,45.3,94.6,91.1c-0.6,0.7-1.3,1.3-1.9,2c-62.6,68-33,235.7,97.6,278.2
		c130.6,42.5,266.5-35.1,274.1-104.5c7.6-69.4-52.6-91.2-146.1-71.8C265.4,206,241.8,164.5,231.3,126.3z"/>
	<path class="st2" d="M174.1,45.3c-6.3-1.2-10.8,4-8.4,9.9c0.8,2,2.4,3.9,5.1,5.7c10.4,6.7,19.4,3.3,18.5-6
		C188.7,49.2,180.4,46.5,174.1,45.3"/>
	<g>
		<path class="st3" d="M86.2,110.1c4.2,14,18.2,13.6,17.9,24.9c-0.3,11.4,6.8,20,16.7,17.9c9.8-2.1,16.9-4.2,21.4,7.1
			c4.5,11.3,18.8,17,24.4,8c1.4-2.2,2.9-4.6,4.4-7c0.4-0.6,0.8-1.3,1.2-1.9c0.1-0.1,0.2-0.3,0.3-0.4c6-9.5,4-22.1-4.8-29
			c-3.6-2.8-7.8-4.4-12.7-3c-15.2,4.5-9.7-10.8-18.8-17.3c-10.4-7.4-19.3,1-26.5-5.4C99.8,95.3,82,96,86.2,110.1z"/>
		<g>
			<path class="st7" d="M104.3,116.1l66.7,45c0.4-0.6,0.8-1.3,1.2-1.9l-66.6-44.9c-0.5-0.4-1.2-0.2-1.6,0.3
				C103.6,115.1,103.8,115.8,104.3,116.1z"/>
		</g>
	</g>
	<g>
		<path class="st3" d="M418.3,318c-5.8,13.6-19.8,11.6-20.7,23.1c-1,11.5-9.1,19.3-18.8,16.1c-9.6-3.2-16.6-6.1-22.3,4.8
			c-5.8,10.9-20.8,14.9-25.4,5.3c-1.2-2.4-2.4-5-3.7-7.5c-0.3-0.7-0.7-1.4-1-2.1c-0.1-0.2-0.2-0.3-0.2-0.5
			c-5-10.2-1.6-22.7,8.1-28.7c3.9-2.4,8.4-3.5,13.1-1.6c14.8,6.2,11-9.8,20.8-15.2c11.3-6.3,19.3,3.2,27.2-2.4
			C406.3,301.6,424,304.4,418.3,318z"/>
		<g>
			<path class="st7" d="M399.4,322.1l-72,37.7c-0.3-0.7-0.7-1.4-1-2.1l72-37.7c0.6-0.3,1.3-0.1,1.5,0.5
				C400.2,321.1,400,321.8,399.4,322.1z"/>
		</g>
	</g>
	<g>
		<path class="st3" d="M393.4,260.4c1.7,13.7-10.6,18.6-6.1,28.3c4.5,9.7,1.6,19.9-7.7,21.8c-9.3,1.9-16.2,2.8-15.9,14.2
			c0.4,11.5-9.9,21.7-18.1,16.1c-2.1-1.4-4.3-2.9-6.5-4.4c-0.6-0.4-1.2-0.8-1.8-1.2c-0.1-0.1-0.3-0.2-0.4-0.3
			c-8.8-6-11.8-17.6-6.8-27c2-3.8,5.1-6.8,9.9-7.3c14.8-1.8,4.3-13,9.7-22c6.2-10.4,17.1-6.4,20.9-14.6
			C376.1,252.8,391.8,246.8,393.4,260.4z"/>
		<g>
			<path class="st1" d="M380,272.5l-40.8,64c-0.6-0.4-1.2-0.8-1.8-1.2l40.8-64c0.3-0.5,1-0.6,1.5-0.3
				C380.2,271.3,380.3,272,380,272.5z"/>
		</g>
	</g>
	<g>
		<path class="st3" d="M108.2,56.9c-1.7,14.3,11.1,19.4,6.3,29.5c-4.7,10.2-1.7,20.8,8,22.7c9.7,2,16.9,2.9,16.5,14.9
			c-0.4,12,10.3,22.7,18.9,16.8c2.1-1.5,4.5-3,6.7-4.6c0.6-0.4,1.2-0.8,1.8-1.3c0.1-0.1,0.3-0.2,0.4-0.3c9.1-6.2,12.3-18.4,7-28.1
			c-2.1-3.9-5.4-7-10.3-7.7c-15.5-1.9-4.5-13.6-10.2-22.9c-6.5-10.8-17.9-6.7-21.8-15.2C126.2,48.9,109.9,42.6,108.2,56.9z"/>
		<g>
			<path class="st1" d="M122.2,69.5l42.6,66.8c0.6-0.4,1.2-0.8,1.8-1.3L124,68.3c-0.3-0.5-1-0.7-1.5-0.3
				C122,68.2,121.8,68.9,122.2,69.5z"/>
		</g>
	</g>
	<path class="st3" d="M391.4,46.2c-7.1-3.8-7.5,9.7-5.7,22.2c1.3,9.5,0,16-1,19.2l-25,26.8c13-22.1,16.7-53.9,5.5-59.9
		c-11.2-6-11.8,15.5-9.1,35.2c2.1,14.9,0,25.2-1.6,30.3l-5,5.3c0.8,1,1.6,2,2.4,3l29.8-31.9c3.6-0.9,8.7-1.6,15.4-1.2
		c12.5,0.8,26-0.5,21.7-7.3c-3.7-5.9-19-3.9-31.7,2.7l10.3-11c3.8-2.9,9.1-7,16-9.9c16-6.7,29.9-15.9,22.2-21.5"/>
	<path class="st3" d="M435.5,48.3c-7.7-5.6-31.4,10.8-42.3,30.2l-5.3,5.7c8.2-13.9,10.6-34.1,3.5-37.9"/>
	<path class="st8" d="M89.7,298.3c-16.6-5-31.4-12.7-24.3-19c7.1-6.3,32.4,7.5,45.3,25.6l5.9,5.1c-9.6-13-14.1-32.8-7.5-37.3
		c6.6-4.5,8.4,8.9,8,21.5c-0.3,9.5,1.7,15.9,3,19l27.7,24.1c-15.2-20.6-22.3-51.8-11.7-59c10.5-7.2,13.4,14.1,12.8,34
		c-0.5,15,2.6,25,4.7,30l5.5,4.8c-0.7,1.1-1.4,2.2-2.1,3.3l-32.9-28.6c-3.6-0.5-8.8-0.7-15.5,0.4c-12.4,2.1-25.9,2.2-22.4-5
		c3.1-6.3,18.5-5.8,31.8-0.7l-11.4-9.9C102.6,303.9,96.9,300.4,89.7,298.3z"/>
	<g>
		<g>
			<path class="st9" d="M352.1,96.4v330.7c0,10.4-8.4,18.8-18.8,18.8H168.7c-5.2,0-9.9-2.1-13.3-5.5c-3.4-3.4-5.4-8.1-5.4-13.2V96.4
				c0-10.4,8.4-18.8,18.8-18.8h164.7c3.1,0,6,0.7,8.5,2C348,82.8,352.1,89.1,352.1,96.4z"/>
			<path class="st10" d="M352.1,96.4v330.7c0,10.4-8.4,18.8-18.8,18.8H168.7c-5.2,0-9.9-2.1-13.3-5.5L341.9,79.7
				C348,82.8,352.1,89.1,352.1,96.4z"/>
		</g>
		<g>
			<path class="st10" d="M149.3,210.6h-0.4c-3.2,0-5.9-2.6-5.9-5.9v-32c0-3.2,2.6-5.9,5.9-5.9h0.4c0.3,0,0.6,0.3,0.6,0.6V210
				C149.9,210.4,149.7,210.6,149.3,210.6z"/>
			<path class="st10" d="M352.6,210.6h0.4c3.2,0,5.9-2.6,5.9-5.9v-32c0-3.2-2.6-5.9-5.9-5.9h-0.4c-0.3,0-0.6,0.3-0.6,0.6V210
				C352,210.4,352.2,210.6,352.6,210.6z"/>
			<path class="st10" d="M149.3,260.2h-0.4c-3.2,0-5.9-2.6-5.9-5.9v-32c0-3.2,2.6-5.9,5.9-5.9h0.4c0.3,0,0.6,0.3,0.6,0.6v42.5
				C149.9,260,149.7,260.2,149.3,260.2z"/>
		</g>
		<g>
			<path class="st0" d="M342.8,97.2v329c0,5.6-4.6,10.2-10.2,10.2h-163c-4,0-7.5-2.3-9.2-5.7c0,0,0,0,0,0c-0.7-1.4-1-2.9-1-4.5v-329
				c0-5.6,4.6-10.2,10.2-10.2h163c1.8,0,3.4,0.4,4.9,1.2c0,0,0,0,0,0C340.6,90,342.8,93.3,342.8,97.2z"/>
			<g>
				<path class="st5" d="M324.1,196h-146c-6.2,0-11.2-5-11.2-11.2v-1.5c0-6.2,5-11.2,11.2-11.2h146c6.2,0,11.2,5,11.2,11.2v1.5
					C335.3,191,330.3,196,324.1,196z"/>
				<g>
					<path class="st5" d="M330.1,313.9h-158c-2.9,0-5.2-2.3-5.2-5.2l0,0c0-2.9,2.3-5.2,5.2-5.2h158c2.9,0,5.2,2.3,5.2,5.2l0,0
						C335.3,311.6,333,313.9,330.1,313.9z"/>
					<path class="st5" d="M330.1,336.4h-158c-2.9,0-5.2-2.3-5.2-5.2l0,0c0-2.9,2.3-5.2,5.2-5.2h158c2.9,0,5.2,2.3,5.2,5.2l0,0
						C335.3,334.1,333,336.4,330.1,336.4z"/>
					<path class="st5" d="M330.1,358.9h-158c-2.9,0-5.2-2.3-5.2-5.2l0,0c0-2.9,2.3-5.2,5.2-5.2h158c2.9,0,5.2,2.3,5.2,5.2l0,0
						C335.3,356.6,333,358.9,330.1,358.9z"/>
				</g>
				<path class="st5" d="M295,366.2h-6.9c-0.5,0-0.9,0.3-1.1,0.8l-1,3.7h-63.5c-0.3,0-0.6,0.1-0.8,0.4c-0.2,0.2-0.3,0.6-0.3,0.9
					l1,7.3c0,0.1,0,0.2,0,0.3c0,0.2,0.1,0.4,0.1,0.6l1.3,9.2l0.3,2.2l1.2,8.7l0.3,2.2l1.1,7.7c0.1,0.5,0.5,0.9,1.1,0.9h47l-1.5,5.5
					c-0.7,2.6-3.1,4.4-5.8,4.4H234c-0.6,0-1.1,0.4-1.1,1c-0.1,0.7,0.4,1.2,1.1,1.2h4.2c-1.2,0.8-2,2.1-2,3.6c0,2.4,1.9,4.3,4.3,4.3
					c2.4,0,4.3-1.9,4.3-4.3c0-1.5-0.8-2.9-2-3.6h18.9c-1.2,0.8-2,2.1-2,3.6c0,2.4,1.9,4.3,4.3,4.3c2.4,0,4.3-1.9,4.3-4.3
					c0-1.5-0.8-2.9-2-3.6h1.2c3.7,0,6.9-2.5,7.9-6l1.9-6.8c0,0,0,0,0,0l0,0c0,0,0-0.1,0-0.1l2.2-7.8l0.6-2.2l2.4-8.7l0.6-2.2l2.5-9
					l0.3-1.1v0l2-7.1c0,0,0-0.1,0-0.1l1-3.6h6.1c0.6,0,1.1-0.5,1.1-1.1C296.1,366.7,295.6,366.2,295,366.2z M276.9,403.3
					L276.9,403.3c0,0.1,0,0.1-0.1,0.1l-1.5,5.4h-46.7l-0.9-6.5h49.4L276.9,403.3z M277.8,400.2h-50.3l-1.2-8.7h53.9L277.8,400.2z
					 M280.8,389.3H226l-1.2-8.7h58.5L280.8,389.3z M283.9,378.4h-59.4l-0.8-5.5h61.7L283.9,378.4z"/>
				<g>
					<path class="st5" d="M296.4,286.7h-4.8c-20,0-36.4-16.4-36.4-36.4v-4.8c0-20,16.4-36.4,36.4-36.4h4.8c20,0,36.4,16.4,36.4,36.4
						v4.8C332.9,270.3,316.5,286.7,296.4,286.7z"/>
					<g>
						<g>
							<g>
								<path class="st11" d="M317.3,272.1c-2.2-2.8-9.5-12.6-10.5-21c-0.4-3.2-0.3-6.4,0.4-9.1c1.6-5.8,3.4-9.9,3.5-10
									c0,0-3.6-5.9-3.4-17.3l-0.8-0.3c-1.2-0.4-2.5,0.3-2.8,1.5c-0.9,3.3-3.2,7.2-7.5,7.2c-4.6,0-6.9-4-8.1-7.4
									c-0.4-1.3-2-1.7-3.1-0.9l-1.5,1.1c0.6,3.4,1.7,11.9-2.2,17.1c0,0,6.2,11.1,4,18c-2.2,6.8-12.5,21.3-12.5,21.3
									s8.3,9.3,22.6,9.3c15.8,0,22.6-8.8,22.6-8.8S317.7,272.6,317.3,272.1z"/>
							</g>
						</g>
					</g>
				</g>
				<g>
					<path class="st5" d="M208.2,286.7h-4.8c-20,0-36.4-16.4-36.4-36.4v-4.8c0-20,16.4-36.4,36.4-36.4h4.8c20,0,36.4,16.4,36.4,36.4
						v4.8C244.6,270.3,228.2,286.7,208.2,286.7z"/>
					<g>
						<g>
							<path class="st8" d="M219,243.6c0.4,12.4,0.5,27.6,0.4,31.3c-9.8,2.5-19.5,2.5-29.2,0c-0.1-3.8-0.1-19.3,0.2-31.7
								c0-0.1,0-0.2,0-0.4v0c-2.1-0.1-3.8-1-5-1.9c-1-0.7-1.5-1.4-1.5-1.4c2.1-5.4,6.7-11.6,7.7-12.8c0,0,0,0,0,0c0,0,0,0,0,0
								c0.6-0.9,3-2.4,5.5-3.8c0.4-0.3,0.9-0.5,1.4-0.6c0.5-0.1,1-0.2,1.5-0.2c0.3,0,0.5,0.2,0.5,0.5v0c0,2.6,2.1,4.7,4.8,4.6
								c2.5-0.1,4.4-2.2,4.4-4.7c0,0,0,0,0,0c0-0.2,0.2-0.4,0.4-0.4c0.8,0,1.6,0.2,2.3,0.6c2.3,1.4,4.6,2.8,5.3,3.8
								c0.9,1.2,5.6,7.8,7.8,13C224.3,241.3,220.9,243.2,219,243.6z"/>
						</g>
					</g>
				</g>
			</g>
			<path class="st12" d="M342.8,97.2v329c0,5.6-4.6,10.2-10.2,10.2h-163c-4,0-7.5-2.3-9.2-5.7c0,0,0,0,0,0L337.4,88.2c0,0,0,0,0,0
				C340.6,90,342.8,93.3,342.8,97.2z"/>
			<g>
				<path class="st0" d="M366.6,139.3v24h-231v-24h0c27.8-5.1,36.7-52.3,36.7-52.3h157.5C329.9,87,338.8,134.2,366.6,139.3z"/>
				<rect x="135.6" y="139.3" class="st5" width="231" height="24"/>
				<path class="st8" d="M201.7,87c0,0-8.9,47.2-36.7,52.3v24h-29.3v-24c27.8-5.1,36.7-52.3,36.7-52.3H201.7z"/>
				<path class="st8" d="M366.6,139.3v24h-29.3v-24c-27.8-5.1-36.7-52.3-36.7-52.3h29.3C329.9,87,338.8,134.2,366.6,139.3z"/>
				<path class="st8" d="M230.5,139.5v23.8H203l-0.7-24c17.5-13.4,18.9-52.3,18.9-52.3h18.1C240.2,115.1,230.5,139.5,230.5,139.5z"
					/>
				<path class="st8" d="M296.6,139.3l-0.7,24h-27.5v-23.8c0,0-9.6-24.4-8.8-52.5h18.1C277.8,87,279.1,125.9,296.6,139.3z"/>
				<rect x="135.6" y="139.3" class="st13" width="29.3" height="24"/>
				<polygon class="st13" points="366.6,139.3 366.6,163.3 337.3,163.3 337.3,139.3 366.6,139.3 				"/>
				<path class="st13" d="M230.6,139.3c0,0.1-0.1,0.2-0.1,0.2v23.8H203l-0.7-24H230.6z"/>
				<path class="st13" d="M296.6,139.3l-0.7,24h-27.5v-23.8c0,0,0-0.1-0.1-0.2H296.6z"/>
			</g>
		</g>
		<g>
			<path class="st9" d="M298.8,103.5h-95.6c-4.9,0-8.9-4-8.9-8.9v-1.2c0-4.9,4-8.9,8.9-8.9h95.6c4.9,0,8.9,4,8.9,8.9v1.2
				C307.8,99.5,303.7,103.5,298.8,103.5z"/>
			<path class="st10" d="M278.1,95.1h-63.6c-1.2,0-2.2-1-2.2-2.2v-0.3c0-1.2,1-2.2,2.2-2.2h63.6c1.2,0,2.2,1,2.2,2.2v0.3
				C280.3,94.1,279.3,95.1,278.1,95.1z"/>
			<circle class="st14" cx="294.1" cy="92.6" r="2.8"/>
		</g>
	</g>
	<g>
		<path class="st15" d="M144.4,333.9c-0.3,5.4-0.6,11.3-1,17.3c-2,35.6-4.8,79.5-5.6,96.6l-6.5,0.4c0,0-3.9-46.3-3.8-62.2
			c0-6.6-0.6-16.8-1.5-28.2c-0.6-7.7-1.2-16-1.9-24.1L144.4,333.9z"/>
		<path class="st16" d="M144.4,333.9c-0.3,5.4-0.7,12.3-1,18.4c-4,2.3-10.7,4.5-17.4,5.6c-0.6-7.7-1.2-16-1.9-24.1L144.4,333.9z"/>
		<g>
			<g>
				<path class="st8" d="M133.8,444.3c0,0,3.9-0.9,4.9-0.8c1.1,0.1,7.8,8.3,10.2,8.9c4.3,1,4,7.8,1.3,8c-7.7,0.6-20.6-3.2-20.6-3.2
					s-0.8-8.7-0.2-11.4C130.2,443.1,131.7,445,133.8,444.3z"/>
				<g>
					<g>
						<path class="st0" d="M139.8,452c-0.1,0-0.3,0-0.4-0.1c-0.2-0.2-0.3-0.5-0.1-0.7c0.1-0.1,1.4-1.9,3.1-2.5
							c2.2-0.8,3.6,0.6,3.7,0.6c0.2,0.2,0.2,0.5,0,0.7c-0.2,0.2-0.5,0.2-0.7,0c0,0-1.1-1-2.6-0.4c-1.3,0.5-2.6,2.1-2.6,2.2
							C140.1,451.9,140,452,139.8,452z"/>
					</g>
					<g>
						<path class="st0" d="M138.4,450.3c-0.1,0-0.3,0-0.4-0.1c-0.2-0.2-0.3-0.5-0.1-0.7c0.1-0.1,1.4-1.9,3.1-2.5
							c2.2-0.8,3.6,0.6,3.7,0.6c0.2,0.2,0.2,0.5,0,0.7c-0.2,0.2-0.5,0.2-0.7,0c0,0-1.1-1-2.6-0.4c-1.3,0.5-2.6,2.1-2.6,2.2
							C138.7,450.2,138.6,450.3,138.4,450.3z"/>
					</g>
					<g>
						<path class="st0" d="M141.8,453.4c-0.1,0-0.3,0-0.4-0.1c-0.2-0.2-0.3-0.5-0.1-0.7c0.1-0.1,1.4-1.9,3.1-2.5
							c2.2-0.8,3.6,0.6,3.7,0.6c0.2,0.2,0.2,0.5,0,0.7c-0.2,0.2-0.5,0.2-0.7,0c0,0-1.1-1-2.6-0.4c-1.3,0.5-2.6,2.1-2.6,2.2
							C142.1,453.3,141.9,453.4,141.8,453.4z"/>
					</g>
				</g>
			</g>
		</g>
	</g>
	<g>
		<path class="st15" d="M120.4,333.8c-0.7,8-1.3,16.3-1.9,24.1c0,0.1,0,0.1,0,0.2c0,0.4-0.1,0.7-0.1,1.1
			c-0.8,10.8-1.4,20.5-1.4,26.9c0,15.9-3.8,62.2-3.8,62.2l-7.6-0.5c-0.8-15.8-2.8-54.7-4.5-88.7c0-0.4,0-0.8-0.1-1.2
			c0-0.3,0-0.7,0-1c-0.4-8.2-0.8-16-1.1-23.1L120.4,333.8z"/>
		<path class="st16" d="M120.4,333.8c-0.7,8-1.3,16.3-1.9,24.1c0,0.1,0,0.1,0,0.2c-4.9,0.3-12.3-0.1-17.4-1.2
			c-0.4-8.2-0.8-16-1.1-23.1L120.4,333.8z"/>
		<g>
			<g>
				<path class="st8" d="M106.6,446.4c0,0-1.7-2.5-3.2-2.4c-1.4,0.1-12.6,8.6-16.4,9.2c-3.8,0.6-3.1,3.4-2.5,4.9
					c0.7,1.4,30.1,0.1,30.1,0.1s1-8.7,0.1-11.4C113.9,444.1,109.6,447.1,106.6,446.4z"/>
				<g>
					<g>
						<path class="st0" d="M100.4,452.4c0.1,0,0.3,0,0.4,0c0.3-0.1,0.4-0.5,0.2-0.7c0-0.1-1.2-2.1-2.7-2.9c-2-1.1-3.7,0-3.7,0.1
							c-0.2,0.2-0.3,0.5-0.1,0.7c0.2,0.2,0.5,0.3,0.7,0.1c0,0,1.2-0.8,2.6,0c1.3,0.7,2.2,2.5,2.3,2.5
							C100.2,452.3,100.3,452.4,100.4,452.4z"/>
					</g>
					<g>
						<path class="st0" d="M102,450.9c0.1,0,0.3,0,0.4,0c0.3-0.1,0.4-0.5,0.2-0.7c0-0.1-1.2-2.1-2.7-2.9c-2-1.1-3.7,0-3.7,0.1
							c-0.2,0.2-0.3,0.5-0.1,0.7c0.2,0.2,0.5,0.3,0.7,0.1c0,0,1.2-0.8,2.6,0c1.3,0.7,2.2,2.5,2.3,2.5
							C101.8,450.8,101.9,450.9,102,450.9z"/>
					</g>
					<g>
						<path class="st0" d="M98.2,453.6c0.1,0,0.3,0,0.4,0c0.3-0.1,0.4-0.5,0.2-0.7c0-0.1-1.2-2.1-2.7-2.9c-2-1.1-3.7,0-3.7,0.1
							c-0.2,0.2-0.3,0.5-0.1,0.7c0.2,0.2,0.5,0.3,0.7,0.1c0,0,1.2-0.8,2.6,0c1.3,0.7,2.2,2.5,2.3,2.5
							C98,453.4,98.1,453.5,98.2,453.6z"/>
					</g>
				</g>
			</g>
		</g>
	</g>
	<path class="st9" d="M97.8,237.8c5.4,4.8,11.8,2.7,19.9-1.5c8.1-4.1,2.9,4,10.9,5.4c8,1.4,7-18.4,7.6-28.2c0.3-6.2,2.8-14,2.8-17.1
		v0c0-0.5,0.1-1,0.1-1.5c0.1-7.5-4.6-21.2-20.8-19c0,0-13.5,1.5-15,14.7c0,0-0.6,6.1-1.1,10.5c-1.2,12.5-5.8,6-4.3,21.2
		C98.3,227.3,91.4,232.2,97.8,237.8z"/>
	<g>
		<g>
			<path class="st13" d="M147.3,228.1c0,0,2.9,24.4,6.2,36.1c0,0,4.7-2.2,10.8-5.1c6.6-3.2,16.2-9,16.2-9l2.4,5.8
				c0,0-24.6,23.2-32.8,24.5c-8.2,1.3-13.2-27.9-13.2-27.9L147.3,228.1z"/>
			<path class="st15" d="M179.9,250.7c0,0-0.7-3.2,0.8-5.4c1.4-2.2,3.7-6.3,6.2-7.2c2.2-0.7-1,2.9-1.1,5.3c0,0,3.2-0.4,5.6-1.2
				c2-0.7,6.1-1.5,8-1.9c0.5-0.1,0.8,0.5,0.4,0.9c-0.6,0.6-2,1.3-4.7,1.9c0,0,6.7-1.3,7.4-0.2c0.7,1-7.8,2.5-7.8,2.5
				s6.6-0.4,6.7,0.6c0.1,0.6-6.7,2.1-6.7,2.1s6.2,0.2,4.7,1.1c-0.4,0.3-12.4,1.6-16.6,6.6C182.8,255.8,180,252.9,179.9,250.7z"/>
		</g>
		<g>
			<g>
				<path class="st1" d="M175.6,252.6c-0.3,0.3-0.7,0.6-1,0.9c-0.8-0.3-1.7-0.4-2.5-0.3c-0.6,0.1-1.3,0.3-2,0.7
					c-2.6,1.4-4.3,4-5.4,7.3c-1.7,5.1-1.8,11.7-1.5,17.4c0.4,6.8,1.4,11.9,1.4,12l-1.2,0.1c-0.1-0.5-1-4.9-1.4-11.1
					c-0.4-5.5-0.3-11.9,1.1-17.3c1.1-4.2,3.1-7.8,6.4-9.5c1.7-0.9,3.5-1.1,5.1-0.5C175,252.4,175.3,252.5,175.6,252.6z"/>
				<path class="st1" d="M188.6,280l-1.2,0.2c0-0.2-3-13.6-7.7-21.5c0.4-0.5,0.7-0.6,1-0.9C185.7,265.8,188.5,279.2,188.6,280z"/>
			</g>
			<g>
				<path class="st11" d="M175.7,252.8c-0.4,0.2-0.8,0.5-1.1,0.7c0,0,0,0,0,0c0,0,0,0,0,0c-0.5,0.1-1.1,0.3-1.7,0.6
					c-1.6,0.8-2.9,2.2-3.9,3.9c-2.7,4.5-3.3,11.5-3.1,17.9c0.2,8,1.6,15.2,1.6,15.3l-1.2,0.2c-0.1-0.6-1.3-6.9-1.6-14.3
					c-0.2-5.9,0.2-12.6,2.2-17.6c1.1-2.8,2.8-5,5.2-6.3c0.1-0.1,0.2-0.1,0.3-0.2c0.8-0.4,1.6-0.7,2.3-0.8c0.5-0.1,1.3,0.1,1.7,0.1
					C176.3,252.5,176,252.6,175.7,252.8z"/>
				<path class="st11" d="M191.4,280.2l-1.2,0.2c0-0.2-3.2-15.9-8.8-23.3c0.4-0.4,0.5-0.4,0.9-0.8
					C188.3,263.8,191.3,279.4,191.4,280.2z"/>
			</g>
			<polygon class="st1" points="207.8,324.5 205.9,326.6 170.9,338 162.2,291.2 164.1,289.4 164.8,289.9 188.4,277.9 204,321.4 			
				"/>
			<polygon class="st3" points="164.1,289.1 190.3,275.8 207.8,324.5 172.8,335.9 			"/>
		</g>
	</g>
	<g>
		<g>
			<path class="st13" d="M51.9,298.6c-0.3,0.1-0.6,0.3-0.9,0.5c-3.2,1.9-5,5.5-5.9,9.9c-1.1,5.4-0.8,11.9-0.1,17.3
				c0.8,6.2,1.9,10.5,2,11l1.2-0.2c0-0.1-1.3-5.2-2.1-11.9c-0.6-5.7-0.9-12.3,0.5-17.4c0.8-2.9,2.1-5.4,4.1-7
				c0.2-0.3,0.4-0.6,0.7-0.8c0.2-0.1,0.3-0.2,0.5-0.3V298.6z"/>
			<path class="st13" d="M71.5,325.1l-1.1,0.3c0-0.2-3.3-13-8.4-20.6c0.2-0.4,0.5-0.7,0.7-1C68.1,311.4,71.3,324.4,71.5,325.1z"/>
		</g>
		<g>
			<path class="st8" d="M49.9,303.3c-0.1,0.9-0.1,1.9,0,2.9c-1.6,4.6-1.7,10.6-1.3,16.2c0.6,8,2.4,15,2.5,15.2l-1.1,0.3
				c-0.1-0.6-1.7-6.8-2.4-14.2c-0.6-5.9-0.5-12.6,1.2-17.7C49,305,49.4,304.1,49.9,303.3z"/>
			<path class="st8" d="M74.3,325.2l-1.1,0.3c0-0.2-3.9-15.5-9.9-22.6c0.2-0.4,0.5-0.7,0.7-1C70.3,309.1,74.1,324.4,74.3,325.2z"/>
		</g>
		<g>
			<polygon class="st13" points="94.1,369.3 92.1,371.6 55.5,386.1 43.2,336.6 45.2,334.6 45.9,335.1 74.6,323.3 89.8,366.3 			"/>
			<polygon class="st8" points="45.2,334.6 74.6,323.3 94.1,369.3 57.4,383.7 			"/>
		</g>
	</g>
	<g>
		<path class="st13" d="M96.3,226.4c0,0-5.1,38.3-9.9,46.9c0,0-15.2,19.7-23.3,26.4c1.1,3.2,2.9,5.5,5.5,6.9
			c0,0,22.5-16.9,28.1-26.1c6.2-10,9.1-26.8,9.3-33.6C106.1,246.8,102.3,235.8,96.3,226.4z"/>
		<path class="st15" d="M60.7,307.2c0.2,0.1-0.6,0.5-0.5,1.9c0.1,1,6,0.8,8.4-2.6l-5.5-6.9c0,0-7.9-2.5-11.1-1.4
			c-3.3,1.1-4.8,8.9-3.2,10.7c0,0,0.1,0.3,0.9,0c0,0,0.7,1.4,1.9,1.4c1.2,0.1,1.8-1.2,1.8-1.2s0.2,1.5,1.4,1.7
			c1.2,0.2,1.7-1.7,1.7-1.7s0.8,1.9,1.9,1.7C60.2,310.6,60,306.8,60.7,307.2z"/>
	</g>
	<g>
		<path class="st1" d="M57,298.3c-1.9-0.3-3.7-0.4-5,0c-0.3,0.1-0.6,0.3-0.9,0.5c-2.4,0.8-4.5,2.7-6.2,5.2c-3,4.4-5,10.7-6.3,16.3
			c-1.5,6.6-2,11.8-2,12l-1.2-0.2c0-0.5,0.4-5,1.8-11.1c1.2-5.4,3-11.6,5.8-16.3c2.3-3.8,5.1-6.6,8.8-7.3
			C53.9,297,55.6,297.3,57,298.3z"/>
		<path class="st1" d="M62.7,328.7l-1.2-0.1c0-0.2,1.2-12.3-1.2-21.3c0.4-0.8,1-0.9,1.3-0.8C64.3,315.6,62.8,328,62.7,328.7z"/>
	</g>
	<g>
		<path class="st11" d="M49.5,301c-0.4,0.8-0.7,1.8-1,2.7c-3,3.8-5.1,9.4-6.6,14.8c-2.1,7.8-2.7,15-2.7,15.1l-1.2-0.1
			c0.1-0.6,0.6-7,2.4-14.2c1.4-5.8,3.7-12.1,7-16.3C48.2,302.3,48.8,301.6,49.5,301z"/>
		<path class="st11" d="M65.4,329.7l-1.2-0.1c0-0.2,1.5-15.9-1.9-24.6c0.3-0.6,0.6-0.7,1-0.7C66.9,313.2,65.4,328.9,65.4,329.7z"/>
	</g>
	<polyline class="st1" points="31.2,330.8 34.8,329 35.3,329.7 66.2,328.1 66.4,373.7 69.4,377.9 66.8,379.5 26.5,381 	"/>
	<polyline class="st3" points="30,379.4 34.8,329 66.2,328.1 69.4,377.9 30,379.4 	"/>
	<g>
		<g>
			<path class="st8" d="M146.7,316.4l0.1,0.5c-10.7,7.3-50.8,2.3-50.8,2.3c0.1-0.8,0.2-1.7,0.3-2.6c0.1-1,0.3-2.1,0.5-3.2
				c0.5-2.9,1.1-6.1,1.9-9.3c0.2-1,0.5-2.1,0.7-3.1c0.7-3.1,1.5-6.2,2.2-9.3c0.3-1.1,0.5-2.1,0.7-3.1c0.3-1.4,0.7-2.8,1-4.2
				c0.4-1.8,0.7-3.6,1-5.2c0.2-1.1,0.4-2.2,0.5-3.2c0.2-1.1,0.3-2.1,0.3-3c-0.6-2.4-1.2-4.7-1.8-6.9c-0.3-1.1-0.5-2.3-0.8-3.4
				c-0.8-3.5-1.5-6.9-2.2-10c-0.2-1.1-0.4-2.3-0.6-3.3c-0.7-3.7-1.3-7.1-1.7-10c-0.2-1.2-0.3-2.3-0.5-3.3c-0.2-1.1-0.3-2.2-0.4-3.1
				c-0.5-4.2-0.7-6.5-0.7-6.5c0.1-0.1,0.2-0.1,0.3-0.2c1.2-0.9,3.1-1.7,5.2-2.4c2.2-0.8,4.7-1.4,6.9-2c0.3-0.1,0.7-0.2,1-0.2
				c2.9-0.7,5-1.1,5-1.1c9.7,2,12.5,0.7,12.5,0.7l4.9,1.5l0.6,0.2l3.6,1.3l0.1,0.1l6.5,2.3l4.3,1.5l-1.7,7.7l-0.7,3.4l-2.2,10.2
				l-0.7,3.4l-2.2,10.1l-0.7,3.3l-1.8,8.4l0.4,1.6l0.7,3.1l1.1,4.9l1,4.5l0.7,3.1l2.1,9.3l0.7,3.1l2.1,9.2L146.7,316.4z"/>
			<path class="st15" d="M132.7,223c-1,6.1-3.6,14.2-9.7,14.9c-7.4,0.8-11.7-10.5-13.3-16.2c2.9-0.7,5.8-1.3,5.8-1.3
				c9.7,2,11.6,0.8,11.6,0.8l5,1.7L132.7,223z"/>
			<g>
				<path class="st0" d="M121.9,230.7c-7.8,0-9.6-9.6-9.6-9.7c0-0.2,0.1-0.4,0.3-0.4c0.2,0,0.4,0.1,0.4,0.3c0.1,0.4,1.8,9.4,9.3,9
					c6.6-0.3,6.9-7.6,7-7.9c0-0.2,0.2-0.4,0.4-0.4c0.2,0,0.4,0.2,0.4,0.4c0,0.1-0.4,8.3-7.7,8.7C122.2,230.7,122,230.7,121.9,230.7z
					"/>
			</g>
			<circle class="st13" cx="106.1" cy="228.1" r="1.9"/>
			<circle class="st13" cx="102.3" cy="237.3" r="1.9"/>
			<circle class="st13" cx="114.4" cy="241.7" r="1.9"/>
			<circle class="st13" cx="106.1" cy="247.6" r="1.9"/>
			<circle class="st13" cx="122.3" cy="250.4" r="1.9"/>
			<circle class="st13" cx="134.4" cy="254.3" r="1.9"/>
			<circle class="st13" cx="136.9" cy="230" r="1.9"/>
			<circle class="st13" cx="123.1" cy="262.5" r="1.9"/>
			<circle class="st13" cx="111.4" cy="268.3" r="1.9"/>
			<circle class="st13" cx="110.1" cy="257.6" r="1.9"/>
			<circle class="st13" cx="128.7" cy="242.2" r="1.9"/>
			<circle class="st13" cx="139.2" cy="239.8" r="1.9"/>
			<circle class="st13" cx="132.5" cy="265.6" r="1.9"/>
			<circle class="st13" cx="133" cy="280.6" r="1.9"/>
			<circle class="st13" cx="123.5" cy="275" r="1.9"/>
			<circle class="st13" cx="110.6" cy="280.6" r="1.9"/>
		</g>
		<path class="st8" d="M151.2,342.9c-17.2,10.8-43.3,9.7-58.4,2.6l0.5-3.7l0.4-3.2l1.2-9.4l0.4-3.2l0.8-6.8l13-0.6l35.2-1.6l2.7-0.1
			l1.5,8.7l0.5,3.1l1.5,9.2l0.5,3.2L151.2,342.9z"/>
		<g>
			<path class="st11" d="M151.2,342.9c-17.2,10.8-43.3,9.7-58.4,2.6l0.4-3.7l0.1-1.1l0.3-2.1l0.1-0.5l0.2-1.5l0.9-7.4l0.1-0.6
				l0.2-1.5l0.1-1.1l0.8-6.8c0-0.1,0-0.1,0-0.2c0-0.5,0.1-1,0.1-1.5c0-0.3,0.1-0.6,0.1-0.9c0.1-1,0.3-2.1,0.4-3.2
				c0.2-1.3,0.4-2.6,0.7-3.9c0.1-0.5,0.2-1,0.3-1.4c0.3-1.3,0.6-2.6,0.9-4c0.2-1,0.5-2.1,0.7-3.1c0.1-0.3,0.1-0.5,0.2-0.7
				c0.1-0.5,0.2-1,0.3-1.5c0.6-2.4,1.1-4.8,1.7-7.1c0.1-0.2,0.1-0.5,0.2-0.7c0.1-0.5,0.2-1,0.4-1.5c0.1-0.3,0.1-0.6,0.2-0.9
				c0.3-1.4,0.7-2.8,1-4.2c6.7,1.5,21.9,4,36.1-0.2l0.9,4l0.1,0.5l0.2,1l0.5,2.1l1.3,5.7l0.3,1.5l0.5,2.1l0.7,3.1l0.6,2.6l0.3,1.5
				l1.2,5.2l0.6,2.6l0.1,0.4l0.1,0.5l0.1,0.6l1.3,8l0,0.2l0.2,1.3l0.3,1.8l1,6.2l0.3,1.5l0.3,1.5l0,0.2l0.5,2.9L151.2,342.9z"/>
			<g>
				<g>
					<path class="st1" d="M140.6,289.6c-5.9,2.5-12.9,3.3-19.5,3.3c-8,0-15.3-1.2-19.4-2c0.1-0.5,0.2-1,0.4-1.5
						c7.4,1.4,25.8,4.1,38.2-1.3l0.1,0.5L140.6,289.6z"/>
				</g>
				<g>
					<path class="st1" d="M142.8,298.9c-6.9,2.9-14.6,3.8-21.8,3.8c-9,0-17.2-1.5-21.5-2.5c0.1-0.5,0.2-1,0.3-1.5
						c7.7,1.7,27.6,5,42.6-1.3L142.8,298.9z"/>
				</g>
				<g>
					<path class="st1" d="M144.9,308.2c-7.7,3.1-16.2,4.2-23.9,4.2c-10,0-18.8-1.7-23.5-2.8c0.1-0.5,0.2-1,0.3-1.4
						c8,1.9,29.3,5.8,46.8-1.4L144.9,308.2z"/>
				</g>
				<g>
					<path class="st1" d="M146.9,317.5c-8.7,3.5-17.9,4.6-26.2,4.6c-10.5,0-19.7-1.8-24.7-3.1c0-0.5,0.1-1,0.1-1.5
						c8.7,2.2,30.8,6.4,50.5-1.5l0.1,0.4l0.1,0.5L146.9,317.5z"/>
				</g>
				<g>
					<path class="st1" d="M148.5,327c-9.5,3.7-19.3,4.9-28,4.9c-10.9,0-20.2-1.9-25.6-3.3l0.2-1.5c9.5,2.5,32,6.7,53.2-1.6l0,0.2
						L148.5,327z"/>
				</g>
				<g>
					<path class="st1" d="M150.1,336.4c-10.3,3.8-20.7,5.1-29.8,5.1c-11.2,0-20.8-1.9-26.6-3.5l0.2-1.5c10.3,2.7,33.1,6.9,56-1.7
						L150.1,336.4z"/>
				</g>
			</g>
			<path class="st1" d="M151.2,342.9c-17.2,10.8-43.3,9.7-58.4,2.6l0.5-3.7l0.1-1.1c4.1,1.8,13.5,4.9,28.6,4.8
				c14.3-0.1,23.8-4.5,28.4-7.3l0.5,2.9L151.2,342.9z"/>
		</g>
	</g>
	<g>
		<g>
			<g>
				<path class="st16" d="M133.5,197.3c0,0,2.3-2.9,4.1-0.5c1.7,2.4-0.7,9.6-4.9,7.9L133.5,197.3z"/>
				<circle class="st0" cx="135.2" cy="204.2" r="0.8"/>
				<g>
					<path class="st17" d="M133.5,202.4c0.2,0,0.3-0.1,0.3-0.2c0.7-2.2,3.1-3.1,3.1-3.1c0.2-0.1,0.3-0.3,0.2-0.4
						c-0.1-0.2-0.3-0.3-0.5-0.2c-0.1,0-2.8,1-3.5,3.6C133.1,202.2,133.2,202.4,133.5,202.4C133.4,202.4,133.5,202.4,133.5,202.4z"/>
				</g>
				<g>
					<path class="st17" d="M135.9,201.3c0.1,0,0.1,0,0.2-0.1c0.2-0.1,0.2-0.3,0.1-0.5c0,0-0.4-0.6-1.3-1c-0.2-0.1-0.4,0-0.5,0.2
						c-0.1,0.2,0,0.4,0.2,0.4c0.7,0.3,1,0.8,1,0.8C135.7,201.3,135.8,201.3,135.9,201.3z"/>
				</g>
			</g>
			<path class="st15" d="M115.5,212.4v8.8c0,0,4.1,3.2,7.3,3.4c3.2,0.3,4.3-3.5,4.3-3.5v-8.2L115.5,212.4z"/>
			<path class="st16" d="M115.5,213.2v3.5c2.1,2.4,6,3.2,11.6,2.4l0-5.4L115.5,213.2z"/>
			<path class="st15" d="M134.9,200.7c-0.1,0.9-0.2,1.7-0.4,2.6c-1,5.7-4.6,11.9-9.2,13c-9.9,2.2-14-5.5-15.6-11.3
				c-0.2-0.6,0.2-1.4,0-2.1c-0.3-1.8-1-3.8-1.2-5.8c-0.1-1.4-0.2-2.8-0.3-4c-0.2-3.5,1.9-6.7,5-7.9c4.5-1.8,11.5-3.2,18,0.6
				c2.4,1.4,3.9,4,4,6.9C135.3,194.8,135.2,197.7,134.9,200.7z"/>
			<g>
				<g>
					<g>
						<path class="st16" d="M122.8,205.1c-0.2,0-0.3-0.1-0.4-0.3c0-0.2,0.1-0.4,0.3-0.4l1.3-0.2l-1.8-4.8c-0.1-0.2,0-0.4,0.2-0.5
							c0.2-0.1,0.4,0,0.5,0.2l2.1,5.7L122.8,205.1C122.8,205.1,122.8,205.1,122.8,205.1z"/>
					</g>
				</g>
			</g>
			<path class="st9" d="M131,191c3.9,1.8,2.6,6.4,3.9,8.7c0.1,0.1,0.2,0.2,0.3,0.1c0.4-3.1,0.4-6,0.4-8.2c-0.1-2.9-1.7-5.6-4.2-7
				c-6.9-3.9-14.2-2.5-19-0.6c-3.3,1.3-5.5,4.5-5.3,8.1c0.1,1.3,0.1,2.7,0.3,4.1c0.6,0.4,2.2,0.6,2.3,1.6c0.2,2.7,0.3,4.6,0.9,4.4
				c1-0.3,1.6-3.6,0.5-5.7c0,0,0.9-1.4,4.5-2.8c4.6-1.8,9.1-4.4,9.1-4.4s1.8-1.1,2.4-2.2C127,186.9,128.1,189.6,131,191z"/>
			<ellipse class="st9" cx="128.3" cy="198.7" rx="1" ry="1.5"/>
			<ellipse class="st9" cx="117.7" cy="198.7" rx="1" ry="1.5"/>
			<path class="st9" d="M130.9,194.7c-0.8-0.2-2.4-0.4-4.1-0.3c-0.4,0-0.8,0.4-0.7,0.7l0,0c0,0.3,0.4,0.5,0.7,0.4
				c1.2-0.1,4.2-0.1,5.6,0.3c0-0.2-0.1-0.4-0.3-0.6C131.8,194.9,131.3,194.8,130.9,194.7z"/>
			<path class="st9" d="M115.2,194.9c0.8-0.2,2.4-0.4,4.1-0.4c0.4,0,0.8,0.3,0.7,0.7l0,0c0,0.3-0.3,0.5-0.7,0.5
				c-1.2-0.1-4.2,0-5.6,0.4c0-0.2,0.1-0.4,0.3-0.6C114.3,195.1,114.8,194.9,115.2,194.9z"/>
			<path class="st0" d="M127,207.4c-0.3,1.3-1.2,3.8-4.4,3.8c-3.2,0-4.1-2.3-4.4-3.8H127z"/>
			<g>
				<path class="st16" d="M122.7,213.5c0.9,0,1.7-0.5,1.8-0.5c0.2-0.1,0.2-0.3,0.1-0.5c-0.1-0.2-0.3-0.2-0.5-0.1l0,0
					c0,0-0.7,0.4-1.4,0.4c-0.8,0-1.4-0.4-1.4-0.4c-0.2-0.1-0.4,0-0.5,0.1c-0.1,0.2-0.1,0.4,0.1,0.5
					C120.9,213,121.7,213.5,122.7,213.5z"/>
			</g>
		</g>
		<g>
			<path class="st15" d="M109.6,197.3c0,0-2.7-3.3-4.3-0.9c-1.6,2.4,0.7,9.4,4.6,7.6L109.6,197.3z"/>
			<circle class="st0" cx="108.2" cy="204.2" r="0.8"/>
			<g>
				<path class="st16" d="M109,201.9c-0.1,0-0.3-0.1-0.3-0.2c-0.6-2.2-2.8-3-2.9-3c-0.2-0.1-0.3-0.3-0.2-0.4
					c0.1-0.2,0.3-0.3,0.4-0.2c0.1,0,2.6,1,3.3,3.5C109.4,201.6,109.3,201.8,109,201.9C109.1,201.8,109.1,201.9,109,201.9z"/>
			</g>
			<g>
				<g>
					<g>
						<path class="st16" d="M106.8,200.8c-0.1,0-0.1,0-0.2-0.1c-0.2-0.1-0.2-0.3-0.1-0.5c0,0,0.4-0.6,1.2-1c0.2-0.1,0.4,0,0.4,0.2
							c0.1,0.2,0,0.4-0.2,0.4c-0.6,0.3-1,0.7-1,0.8C107,200.7,106.9,200.8,106.8,200.8z"/>
					</g>
				</g>
			</g>
		</g>
	</g>
	<g>
		<g>
			<polygon class="st8" points="437.4,443.3 357.1,443.3 368.2,353.9 426.3,353.9 			"/>
			<g>
				<circle class="st18" cx="384.5" cy="358.4" r="2.7"/>
				<circle class="st18" cx="412.5" cy="358.4" r="2.7"/>
				<g>
					<path class="st0" d="M384.6,358.1L384.6,358.1c-0.6,0-1.1-0.6-1.1-1.2c0.1-2.8,0.6-10.1,2.1-17.4c2.7-12.8,7.1-19.3,13.2-19.3
						c6.1,0,10.5,6.5,12.9,19.3c1.4,7.3,1.7,14.6,1.8,17.4c0,0.6-0.5,1.2-1.1,1.2l0,0c-0.6,0-1.1-0.5-1.2-1.1
						c-0.3-10.6-2.9-34.5-12.4-34.5c-9.6,0-12.6,23.9-13.1,34.5C385.7,357.6,385.2,358.1,384.6,358.1z"/>
				</g>
			</g>
		</g>
		<g>
			<polygon class="st3" points="431.2,450.2 308.8,450.2 320,392.8 420,392.8 			"/>
			<g>
				<g>
					<circle class="st1" cx="345.8" cy="398" r="2.7"/>
					<circle class="st1" cx="393.6" cy="398" r="2.7"/>
				</g>
				<g>
					<path class="st0" d="M345.8,397.7L345.8,397.7c-0.7,0-1.3-0.7-1.2-1.4c0.2-2.4,0.9-7.7,3.4-13.1c4.3-9.6,12-14.7,22.2-14.7
						c10.2,0,17.7,5.1,21.8,14.7c2.3,5.4,2.8,10.7,3,13.1c0,0.7-0.5,1.4-1.3,1.4l0,0c-0.7,0-1.2-0.5-1.3-1.2
						c-0.1-2.2-0.7-7.3-2.8-12.3c-3.7-8.7-10.2-13.1-19.4-13.1c-9.2,0-15.9,4.4-19.8,13.2c-2.3,5-2.9,10-3.1,12.3
						C347,397.2,346.4,397.7,345.8,397.7z"/>
				</g>
			</g>
		</g>
		<g>
			<rect x="148.8" y="400.3" class="st3" width="68.1" height="51.8"/>
			<rect x="146.5" y="397.7" class="st3" width="72.7" height="8.6"/>
			<rect x="148.8" y="406.3" class="st1" width="68.1" height="4.7"/>
			<rect x="179.9" y="397.7" class="st0" width="6" height="54.4"/>
			<rect x="179.9" y="410.7" class="st19" width="6" height="41.4"/>
			<rect x="179.9" y="406.3" class="st20" width="6" height="4.7"/>
		</g>
	</g>
</g>
<g id="DESIGNED_BY_FREEPIK">
</g>
</svg>
