<?xml version="1.0" encoding="utf-8"?>
<!-- Generator: Adobe Illustrator 23.1.0, SVG Export Plug-In . SVG Version: 6.00 Build 0)  -->
<svg version="1.1" id="Layer_1" xmlns="http://www.w3.org/2000/svg" xmlns:xlink="http://www.w3.org/1999/xlink" x="0px" y="0px"
	 viewBox="0 0 1920 1080" style="enable-background:new 0 0 1920 1080;" xml:space="preserve">
<style type="text/css">
	.st0{fill:#73C6B6;}
	.st1{fill:#F2F3F4;}
	.st2{fill:#FFFFFF;stroke:#000000;stroke-miterlimit:10;}
	.st3{fill:#F8C471;}
</style>
<path class="st0" d="M1092,453c2.2-1.2,8.5,8,8.5,8c36.7,53.2,55,79.8,56.2,109.4c1.9,44.9-28.4,78.1-41.8,96.3
	c-91.6,124.4-354.4,163-408,77c-45.3-72.6,63.3-217,92.4-254.3c3.3,23.9,9.8,42,16.6,50.3c4.6,5.6,9.8,8.4,9.8,8.4
	c2.5-1.5,7.3-3.7,13.2-3.4c2.4,0.1,3.2,0.6,8,2c5.7,1.6,7.5,1.8,8.2,2.1c3.2,1.5,2.8,16.1-23.8,91.7c2.3,0,5.6,0,9.6,0
	c27.7,0.1,47.7,0.6,54.9,0.8c45.9,1.1,44.1-2.4,81.1-0.8c21,0.9,42.1-0.5,63,1.5c0,0,0.3,0,0.6,0.1c1.3-0.4,3.1-0.9,5.4-1.6
	c10.5-3.1,13.9-2.7,17-5.5c1.4-1.3,3.2-3.6,4-8c-26.7-47.8-27.1-66.7-20-74c8.7-9,29.9-1.4,46-18c0.8-0.9,5-5.2,8-12
	C1114.2,493.2,1088.1,455.1,1092,453z"/>
<path class="st0" d="M1400,428"/>
<path class="st0" d="M1218,511"/>
<path class="st0" d="M1306,429"/>
<path class="st0" d="M1205,665"/>
<path class="st0" d="M1182,338"/>
<path class="st0" d="M735,650"/>
<path class="st0" d="M854,417"/>
<path class="st0" d="M1123,315"/>
<path class="st0" d="M1039,377"/>
<path class="st0" d="M1295,302"/>
<path class="st1" d="M1264,407"/>
<path class="st1" d="M1295,545"/>
<path class="st1" d="M665,584"/>
<path class="st1" d="M1285,374"/>
<path class="st1" d="M683,530"/>
<path class="st0" d="M1079,439"/>
<path class="st2" d="M1295,545"/>
<path class="st0" d="M1359,647"/>
<path class="st0" d="M1382,569"/>
<path class="st0" d="M1308,600"/>
<path class="st0" d="M1241,551"/>
<path class="st0" d="M1225,518"/>
<path class="st0" d="M1278,522"/>
<path class="st0" d="M1311,552"/>
<path class="st0" d="M1398,500"/>
<path class="st0" d="M1200,634"/>
<path class="st0" d="M1208,648"/>
<path class="st0" d="M1223,538"/>
<path class="st0" d="M1249,525"/>
<path class="st0" d="M1188,624"/>
<path class="st0" d="M1205.9,596"/>
<path class="st0" d="M1163,453"/>
<path class="st3" d="M799,484c-14.1,36-23.4,30.8-56,87.2c-22.2,38.4-15.9,37.5-31.8,63.5c-6.6,10.8-68.8,110-135.1,100.3
	c0,0-12.2-1.8-23-8c-67.5-39.1-108.4-337.4,63-502c133.8-128.5,358.4-138.8,508-36c170.3,117,230.6,372,152,454
	c-49.2,51.4-167.7,50.3-172,37.3c-1.2-3.5,6.4-7,18-20.3c0,0,24.4-27.9,32.1-62.9c11.5-52-28.1-100.5-34.2-107.7
	c-29.4-30.7-52.7-52.1-61.7-57.8c-3.3-2.1-6.7-4-6.7-4c-5.8-3.2-12.2-6-19.6-8.6c-9.5-3.3-25-7.2-46-6c-0.2-2.7-0.4-6.9-1-12
	c-0.8-7-1.2-6.7-1-8c1.8-11.4,16.8-12,19-22c1.4-6.7-4.9-8-7-22c-1.3-8.8,1.1-10.5-1-16c-2.1-5.3-8.4-12.8-18-17c-1.7-0.7-7-2-7-2
	c0,0-13.2-1.5-25-2c-23-0.9-29.7,2.5-32,4c-5.7,3.9-8.6,9.3-8.6,9.3c-0.2,0.4-0.3,0.6-0.4,0.7c-3.7,7.1-0.9,14.3-2,21
	c-1.2,7.3-5.4,6.9-7,13c-4.3,16.9,24.7,38.9,22,42c-1.1,1.2-6.5-1.6-7.8,0.5c-0.4,0.6-0.1,1.2-0.2,1.5c-2.6,9.7-21,13.4-31,14
	c-12,0.8-14.4-2.4-24-1c-11.7,1.7-19.6,9-25,14C811.1,447.8,804.9,468.8,799,484z"/>
<path class="st0" d="M1169,421"/>
<path class="st0" d="M1032,306"/>
<path class="st0" d="M1036,346"/>
<path class="st0" d="M1084,381"/>
<path class="st0" d="M1094,321c-49.3-26.3-98.7-52.7-148-79"/>
<path class="st3" d="M719,407"/>
<path class="st3" d="M1186,389"/>
<path class="st3" d="M1339,419"/>
<path class="st3" d="M1261,417"/>
<path class="st3" d="M1265,332"/>
<path class="st3" d="M1181,322"/>
<path class="st3" d="M1259,387"/>
<path class="st3" d="M1418,378"/>
<path class="st3" d="M1229,392"/>
<path class="st3" d="M1333,387"/>
<path class="st3" d="M1247,366"/>
<path class="st3" d="M682,347"/>
<path class="st3" d="M1333,403"/>
<path class="st3" d="M1346,350"/>
</svg>
