<?xml version="1.0" encoding="utf-8"?>
<!-- Generator: Adobe Illustrator 19.0.0, SVG Export Plug-In . SVG Version: 6.00 Build 0)  -->
<svg version="1.1" id="Layer_1" xmlns="http://www.w3.org/2000/svg" xmlns:xlink="http://www.w3.org/1999/xlink" x="0px" y="0px"
	 viewBox="0 0 612 792" style="enable-background:new 0 0 612 792;" xml:space="preserve">
<style type="text/css">
	.st0{fill:#F8E69E;stroke:#FFFFFF;stroke-miterlimit:10;}
	.st1{fill:#4B4748;}
	.st2{fill:#EDEDED;}
	.st3{fill:#D3D3D3;}
	.st4{fill:#FFFFFF;}
	.st5{fill:none;stroke:#4B4748;stroke-miterlimit:10;}
	.st6{fill:#CEE3C1;}
	.st7{fill:#FDC771;stroke:#2AAAE2;stroke-miterlimit:10;}
	.st8{fill:#F7B33C;stroke:#2AAAE2;stroke-miterlimit:10;}
	.st9{fill:#5C5A56;stroke:#2AAAE2;stroke-miterlimit:10;}
	.st10{fill:#FEF6DF;stroke:#2AAAE2;stroke-miterlimit:10;}
	.st11{fill:#C6865C;stroke:#2AAAE2;stroke-miterlimit:10;}
	.st12{fill:#884B21;stroke:#2AAAE2;stroke-miterlimit:10;}
	.st13{fill:#884B21;}
	.st14{fill:#C9C9C9;}
	.st15{fill:#969696;}
	.st16{fill:none;stroke:#969696;stroke-miterlimit:10;}
	.st17{fill:#FEF6DF;}
	.st18{fill:#F7B33C;}
	.st19{fill:#1B4F72;}
	.st20{font-family:'MyriadPro-Regular';}
	.st21{font-size:53.8788px;}
</style>
<rect id="XMLID_1_" x="0.3" class="st0" width="612" height="792"/>
<g id="XMLID_25_">
	<path id="XMLID_56_" class="st1" d="M546.3,624.3c0,15.9-12.9,28.9-28.9,28.9H125.7c-15.9,0-28.9-12.9-28.9-28.9V146
		c0-15.9,12.9-28.9,28.9-28.9h391.7c15.9,0,28.9,12.9,28.9,28.9V624.3z"/>
	<rect id="XMLID_55_" x="511.1" y="148.2" class="st2" width="8.1" height="474.3"/>
	<rect id="XMLID_54_" x="519.2" y="152.7" class="st3" width="8.1" height="467"/>
	<rect id="XMLID_53_" x="123" y="139.8" class="st4" width="397.3" height="480.7"/>
	<circle id="XMLID_52_" class="st1" cx="136.2" cy="178.9" r="9.6"/>
	<circle id="XMLID_51_" class="st1" cx="136.2" cy="246" r="9.6"/>
	<circle id="XMLID_50_" class="st1" cx="136.2" cy="313" r="9.6"/>
	<circle id="XMLID_49_" class="st1" cx="136.2" cy="380.1" r="9.6"/>
	<circle id="XMLID_48_" class="st1" cx="136.2" cy="447.2" r="9.6"/>
	<circle id="XMLID_47_" class="st1" cx="136.2" cy="514.3" r="9.6"/>
	<circle id="XMLID_46_" class="st1" cx="136.2" cy="581.4" r="9.6"/>
	<rect id="XMLID_45_" x="461.9" y="160.3" class="st5" width="27.7" height="27.7"/>
	<rect id="XMLID_44_" x="426" y="160.3" class="st5" width="27.7" height="27.7"/>
	<rect id="XMLID_43_" x="390.2" y="160.3" class="st5" width="27.7" height="27.7"/>
	<g id="XMLID_40_">
		<line id="XMLID_42_" class="st1" x1="379.4" y1="174.1" x2="165.6" y2="174.1"/>
		<path id="XMLID_41_" class="st1" d="M379.4,174.7H165.6c-0.3,0-0.6-0.2-0.6-0.6s0.2-0.6,0.6-0.6h213.8c0.3,0,0.6,0.2,0.6,0.6
			S379.7,174.7,379.4,174.7z"/>
	</g>
	<g id="XMLID_38_">
		<path id="XMLID_39_" class="st6" d="M134.2,185H89.8c-3.4,0-6.1-2.7-6.1-6.1c0-3.4,2.7-6.1,6.1-6.1h44.4c3.4,0,6.1,2.7,6.1,6.1
			C140.3,182.3,137.6,185,134.2,185z"/>
	</g>
	<g id="XMLID_36_">
		<path id="XMLID_37_" class="st6" d="M134.2,251.9H89.8c-3.4,0-6.1-2.7-6.1-6.1c0-3.4,2.7-6.1,6.1-6.1h44.4c3.4,0,6.1,2.7,6.1,6.1
			C140.3,249.2,137.6,251.9,134.2,251.9z"/>
	</g>
	<g id="XMLID_34_">
		<path id="XMLID_35_" class="st6" d="M134.2,319.1H89.8c-3.4,0-6.1-2.7-6.1-6.1s2.7-6.1,6.1-6.1h44.4c3.4,0,6.1,2.7,6.1,6.1
			S137.6,319.1,134.2,319.1z"/>
	</g>
	<g id="XMLID_32_">
		<path id="XMLID_33_" class="st6" d="M134.2,386.2H89.8c-3.4,0-6.1-2.7-6.1-6.1c0-3.4,2.7-6.1,6.1-6.1h44.4c3.4,0,6.1,2.7,6.1,6.1
			C140.3,383.5,137.6,386.2,134.2,386.2z"/>
	</g>
	<g id="XMLID_30_">
		<path id="XMLID_31_" class="st6" d="M134.2,453.4H89.8c-3.4,0-6.1-2.7-6.1-6.1c0-3.4,2.7-6.1,6.1-6.1h44.4c3.4,0,6.1,2.7,6.1,6.1
			C140.3,450.6,137.6,453.4,134.2,453.4z"/>
	</g>
	<g id="XMLID_28_">
		<path id="XMLID_29_" class="st6" d="M134.2,521.1H89.8c-3.4,0-6.1-2.7-6.1-6.1c0-3.4,2.7-6.1,6.1-6.1h44.4c3.4,0,6.1,2.7,6.1,6.1
			C140.3,518.3,137.6,521.1,134.2,521.1z"/>
	</g>
	<g id="XMLID_26_">
		<path id="XMLID_27_" class="st6" d="M134.2,587.4H89.8c-3.4,0-6.1-2.7-6.1-6.1c0-3.4,2.7-6.1,6.1-6.1h44.4c3.4,0,6.1,2.7,6.1,6.1
			C140.3,584.6,137.6,587.4,134.2,587.4z"/>
	</g>
</g>
<g>
	<g>
		
			<rect x="366.2" y="505.8" transform="matrix(-0.3152 0.949 -0.949 -0.3152 1197.2291 162.3335)" class="st7" width="347.7" height="14.7"/>
		
			<rect x="512.4" y="333.6" transform="matrix(-0.949 -0.3152 0.3152 -0.949 859.4508 1153.8961)" class="st8" width="21.2" height="347.7"/>
	</g>
	<polygon class="st9" points="461.5,716.9 472.1,704.3 460.6,700.5 	"/>
	<polygon class="st10" points="458.9,669.4 460.6,700.5 472.1,704.3 492.2,680.4 	"/>
	
		<rect x="567.8" y="338.5" transform="matrix(-0.949 -0.3152 0.3152 -0.949 1033.7629 851.2001)" class="st11" width="35.9" height="6.9"/>
	
		<rect x="572.3" y="317.1" transform="matrix(-0.949 -0.3152 0.3152 -0.949 1046.8728 826.0996)" class="st12" width="35.9" height="22.6"/>
</g>
<g>
	<path class="st13" d="M564.8,573.2c-8.1-5.2-10.1-16.6-4.4-25.5l23.8-37.1c4.4-6.9,13.2-9.2,19.5-5.1c6.3,4.1,7.9,13,3.5,19.9
		l-18.1,28.2c-3.3,5.2-9.9,6.9-14.7,3.8c-4.8-3.1-6-9.8-2.6-15l14.5-22.6c0.3-0.4,0.8-0.6,1.3-0.3c0.4,0.3,0.6,0.8,0.3,1.3
		l-14.5,22.6c-2.8,4.3-1.9,9.9,2.1,12.5c3.9,2.5,9.4,1.1,12.2-3.3l18.1-28.2c3.9-6,2.6-13.8-2.9-17.3c-5.5-3.5-13.1-1.5-17,4.6
		l-23.8,37.1c-5.1,8-3.4,18.3,3.9,22.9c7.3,4.7,17.3,2,22.5-6l27.2-42.4c0.3-0.4,0.8-0.6,1.3-0.3c0.4,0.3,0.6,0.8,0.3,1.3
		l-27.2,42.4C584.2,575.5,573,578.4,564.8,573.2z"/>
</g>
<g id="XMLID_3_">
	<path id="XMLID_4_" class="st1" d="M88.5,700.7c-8.6,4.4-19.5,0.4-24.3-8.9l-20.1-39.2c-3.7-7.3-1.3-16,5.4-19.4
		c6.7-3.4,15.2-0.3,18.9,7l15.3,29.8c2.8,5.5,1,12.1-4.1,14.7c-5.1,2.6-11.5,0.2-14.3-5.2l-12.3-23.9c-0.2-0.5-0.1-1,0.4-1.2
		c0.5-0.2,1-0.1,1.2,0.4L67,678.5c2.4,4.6,7.7,6.6,11.8,4.4c4.2-2.1,5.6-7.6,3.3-12.2l-15.3-29.8c-3.3-6.4-10.7-9.1-16.5-6.2
		c-5.8,3-7.9,10.6-4.6,17l20.1,39.2c4.3,8.4,14.1,12.1,21.8,8.1c7.7-3.9,10.4-14,6.1-22.4l-23-44.8c-0.2-0.5-0.1-1,0.4-1.2
		c0.5-0.2,1-0.1,1.2,0.4l23,44.8C100.2,685.1,97.1,696.3,88.5,700.7z"/>
</g>
<g id="XMLID_18_">
	<path id="XMLID_19_" class="st13" d="M54.3,544.9c-7.8,5.7-19.2,3.4-25.3-5.1L3,504.2c-4.8-6.6-3.8-15.6,2.3-20
		c6.1-4.4,15-2.6,19.8,4l19.7,27.1c3.6,5,2.8,11.8-1.8,15.1c-4.6,3.3-11.3,2-14.9-3l-15.8-21.7c-0.3-0.4-0.2-1,0.2-1.3
		c0.4-0.3,1-0.2,1.3,0.2l15.8,21.7c3,4.2,8.6,5.3,12.4,2.6c3.8-2.7,4.4-8.4,1.4-12.6l-19.7-27.1c-4.2-5.8-11.9-7.4-17.2-3.6
		c-5.3,3.8-6.1,11.7-1.9,17.5l25.9,35.6c5.6,7.7,15.8,9.8,22.8,4.7c7-5.1,8.1-15.4,2.6-23.1l-29.6-40.7c-0.3-0.4-0.2-1,0.2-1.3
		c0.4-0.3,1-0.2,1.3,0.2l29.6,40.7C63.4,527.7,62.1,539.3,54.3,544.9z"/>
</g>
<g id="XMLID_5_">
	<path id="XMLID_12_" class="st14" d="M58.2,384.8c1.9-30.4,25.1-39.4,25.1-39.4l9.6-14.9L73.5,318l-4.4-2.8l-28.9-18.6l-9.6,14.9
		c0,0,1.4,24.8-25.4,39.1C4.9,351-8.1,371.2-8.1,371.2l28.9,19l0,0l0.7,0.5l0.9,0.6l0,0l22.5,14C44.9,405.3,57.9,385.1,58.2,384.8z"
		/>
	<path id="XMLID_11_" class="st1" d="M60.3,309.4l-36.1,56c-2.2,3.5-2.7,7.6-1.7,11.3L64.3,312L60.3,309.4z"/>
	<path id="XMLID_10_" class="st15" d="M64.3,312l-41.7,64.8c0.9,3.2,2.9,6,5.9,7.9c6.5,4.2,15.1,2.3,19.2-4.2l36.1-56L64.3,312z"/>
	<circle id="XMLID_9_" class="st14" cx="48.6" cy="348.5" r="5"/>
	<g id="XMLID_6_">
		<line id="XMLID_8_" class="st16" x1="54.8" y1="347" x2="42.3" y2="349.9"/>
		<line id="XMLID_7_" class="st16" x1="50" y1="354.7" x2="47.1" y2="342.2"/>
	</g>
</g>
<path class="st17" d="M115.1,135.7C115.1,135.7,115,135.7,115.1,135.7C115,135.8,115.1,135.8,115.1,135.7z"/>
<g id="XMLID_20_">
	<path id="XMLID_24_" class="st14" d="M490.2,23.9l-32,31.2c-4.4,4.2-4.4,11.2-0.2,15.6l7,7.2c-4.2-4.4-4.1-11.3,0.2-15.6l32-31.2
		c4.4-4.2,11.3-4.1,15.6,0.2l-7-7.2C501.5,19.7,494.6,19.6,490.2,23.9z"/>
	<path id="XMLID_23_" class="st3" d="M497.2,31l-32,31.2c-4.4,4.2-4.4,11.2-0.2,15.6l47.5,48.7l47.7-46.5l-47.5-48.7
		C508.5,26.9,501.5,26.8,497.2,31z"/>
	<path id="XMLID_22_" class="st15" d="M512.5,126.4l41.6,42.7c4.2,4.4,11.2,4.4,15.6,0.2l32-31.2c4.4-4.2,4.4-11.2,0.2-15.6
		l-41.6-42.7L512.5,126.4z"/>
	<path id="XMLID_21_" class="st4" d="M493,26l-32.8,31.9c-3.2,3.2-4.3,7.7-3.1,11.7l1.9,2c-2.3-4.1-1.7-9.5,1.9-13l32.8-31.9
		c3.6-3.5,9-4,13-1.6l-1.9-2C500.8,21.9,496.2,22.8,493,26z"/>
</g>
<g id="XMLID_16_">
	<path id="XMLID_15_" class="st17" d="M278.4,28.6c-2.2,1.8-4.4,3.6-7.1,4.6c-2.7,1-5.7,0.9-8.6,0.9c-3.1,0-6.1-0.1-7.8,1.2
		c-1.7,1.3-2.4,4.2-3.3,7.2c-0.7,2.8-1.5,5.7-3.1,8c-1.6,2.3-4,4-6.4,5.7c-2.6,1.8-5.1,3.6-5.7,5.6c-0.6,1.9,0.5,4.7,1.6,7.6
		c1.1,2.7,2.1,5.6,2.2,8.5c0.1,3-0.9,5.8-1.8,8.6c-1,2.9-1.9,5.7-1.3,7.6c0.7,2,3.2,3.7,5.9,5.4c2.4,1.5,4.9,3.1,6.6,5.4
		c1.7,2.3,2.6,5.1,3.5,7.9c0.9,3,1.8,5.9,3.6,7.1c1.7,1.2,4.7,1,7.8,0.9c2.9-0.2,5.9-0.3,8.7,0.5c2.7,0.8,5,2.6,7.3,4.3
		c2.6,1.9,5,3.7,7.2,3.7c2.2,0,4.6-2,7.1-4c1.5-1.2,3-2.5,4.7-3.4l-1.7-8.9c-3,0.8-6.1,1.3-9.4,1.4c-21.1,0.5-38.5-16.3-39-37.3
		c-0.4-20,14.6-36.7,34.1-38.8l-2.2-11.8C280.3,27,279.4,27.8,278.4,28.6z"/>
	<path id="XMLID_17_" class="st18" d="M274.6,20.2c-1.9,1.5-3.6,3-5.3,3.5c-1.8,0.6-4.1,0.6-6.6,0.6c-3.8,0-8.2-0.1-11.5,2.4
		c-3.3,2.5-4.4,6.7-5.4,10.5c-0.6,2.4-1.2,4.7-2.3,6.1c-1,1.5-2.9,2.8-4.9,4.2c-3.2,2.2-6.7,4.8-8,8.8c-1.2,3.9,0.3,7.7,1.7,11.4
		c0.9,2.4,1.8,4.6,1.8,6.5c0,1.9-0.7,4.2-1.5,6.6c-1.3,3.8-2.6,7.7-1.2,11.5c1.4,4,5.1,6.4,8.3,8.5c2.1,1.3,4,2.6,5.1,4
		c1.1,1.4,1.8,3.7,2.5,6c1.1,3.7,2.4,7.8,5.9,10.2c3.4,2.4,7.7,2.1,11.5,1.9c2.5-0.1,4.8-0.3,6.6,0.3c1.6,0.5,3.5,1.9,5.4,3.3
		c3.1,2.3,6.7,5,11,4.9c4.3-0.1,7.7-2.9,10.7-5.4c0.7-0.6,1.4-1.2,2.1-1.7l-0.8-4l-0.5-2.4c-1.7,1-3.2,2.2-4.7,3.4
		c-2.5,2-4.8,4-7.1,4c-2.2,0-4.7-1.8-7.2-3.7c-2.3-1.7-4.6-3.4-7.3-4.3c-2.8-0.8-5.8-0.7-8.7-0.5c-3.1,0.2-6.1,0.3-7.8-0.9
		c-1.7-1.2-2.6-4.1-3.6-7.1c-0.9-2.8-1.7-5.6-3.5-7.9c-1.7-2.3-4.2-3.9-6.6-5.4c-2.7-1.7-5.2-3.3-5.9-5.4c-0.7-1.9,0.3-4.7,1.3-7.6
		c0.9-2.8,1.9-5.7,1.8-8.6c-0.1-3-1.2-5.8-2.2-8.5c-1.1-2.9-2.2-5.6-1.6-7.6c0.6-2.1,3.1-3.8,5.7-5.6c2.3-1.6,4.8-3.4,6.4-5.7
		c1.6-2.4,2.4-5.2,3.1-8c0.8-3.1,1.6-5.9,3.3-7.2c1.7-1.3,4.6-1.2,7.8-1.2c2.9,0,5.9,0.1,8.6-0.9c2.6-0.9,4.9-2.8,7.1-4.6
		c1-0.8,1.9-1.6,2.8-2.2l-0.7-3.9l-0.5-2.4C278.1,17.4,276.3,18.9,274.6,20.2z"/>
</g>
<g>
	<path id="XMLID_13_" class="st17" d="M190.8,92.8c-1.6-1.8-3.2-3.8-4.1-6c-0.9-2.4-1-5-1-7.5c-0.1-2.7-0.1-5.3-1.2-6.7
		c-1.1-1.4-3.6-2-6.3-2.6c-2.4-0.6-4.9-1.1-7-2.5c-2-1.3-3.6-3.4-5-5.4c-1.6-2.2-3.2-4.3-5-4.8c-1.7-0.4-4,0.5-6.4,1.6
		c-2.3,1-4.7,2-7.2,2.2c-2.5,0.1-5-0.6-7.4-1.4c-2.5-0.8-4.9-1.5-6.5-0.9c-1.7,0.7-3,2.9-4.4,5.3c-1.3,2.1-2.5,4.3-4.4,5.9
		c-1.9,1.6-4.3,2.4-6.6,3.3c-2.6,0.9-5,1.8-5.9,3.3c-1,1.5-0.7,4.1-0.5,6.8c0.2,2.5,0.4,5.1-0.2,7.5c-0.6,2.3-2,4.4-3.4,6.4
		c-1.6,2.3-3.1,4.4-2.9,6.4c0.1,1.9,1.8,3.9,3.6,6c1.1,1.3,2.2,2.6,3.1,4l7.6-1.7c-0.8-2.6-1.3-5.3-1.4-8.1
		c-1-18.3,12.8-33.9,30.8-34.9c17.1-0.9,31.8,11.6,34.1,28.5l10-2.3C192.2,94.4,191.5,93.6,190.8,92.8z"/>
	<path id="XMLID_14_" class="st18" d="M194.6,91.4c-1.4-1.6-2.6-3.1-3.2-4.5c-0.6-1.5-0.6-3.6-0.7-5.7c-0.1-3.3-0.2-7.1-2.4-9.9
		c-2.3-2.8-5.9-3.7-9.1-4.4c-2.1-0.5-4-0.9-5.3-1.8c-1.3-0.8-2.5-2.4-3.7-4.1c-2-2.7-4.3-5.7-7.8-6.7c-3.4-0.9-6.6,0.5-9.7,1.8
		c-2,0.9-3.9,1.7-5.5,1.8c-1.6,0.1-3.6-0.5-5.7-1.1c-3.3-1-6.6-2-9.9-0.8c-3.4,1.3-5.3,4.6-7,7.5c-1.1,1.8-2.1,3.6-3.3,4.5
		c-1.2,1-3.1,1.7-5.1,2.4c-3.1,1.1-6.6,2.3-8.6,5.4c-1.9,3-1.6,6.8-1.3,10.1c0.2,2.2,0.4,4.2,0,5.8c-0.4,1.4-1.5,3.1-2.7,4.8
		c-1.9,2.8-4.1,5.9-3.9,9.7c0.2,3.7,2.7,6.6,4.9,9.2c0.5,0.6,1,1.2,1.5,1.8l3.4-0.8l2.1-0.5c-0.9-1.4-2-2.7-3.1-4
		c-1.8-2.1-3.5-4.1-3.6-6c-0.1-1.9,1.4-4.1,2.9-6.4c1.4-2,2.8-4.1,3.4-6.4c0.6-2.4,0.4-5,0.2-7.5c-0.2-2.7-0.5-5.3,0.5-6.8
		c1-1.5,3.4-2.4,5.9-3.3c2.3-0.8,4.7-1.7,6.6-3.3c1.9-1.6,3.2-3.8,4.4-5.9c1.4-2.4,2.7-4.6,4.4-5.3c1.6-0.6,4,0.1,6.5,0.9
		c2.4,0.7,4.9,1.5,7.4,1.4c2.5-0.1,4.9-1.2,7.2-2.2c2.4-1.1,4.7-2,6.4-1.6c1.8,0.5,3.3,2.6,5,4.8c1.5,2,3,4,5,5.4
		c2.1,1.4,4.6,1.9,7,2.5c2.6,0.6,5.1,1.2,6.3,2.6c1.1,1.4,1.2,4,1.2,6.7c0.1,2.5,0.1,5.1,1,7.5c0.9,2.3,2.5,4.2,4.1,6
		c0.7,0.8,1.4,1.6,2,2.4l3.3-0.8l2-0.5C197.1,94.3,195.8,92.8,194.6,91.4z"/>
</g>
<text id="XMLID_2_" transform="matrix(1.3499 0 0 1 189.689 237.6943)"><tspan x="0" y="0" class="st19 st20 st21">your</tspan><tspan x="0" y="64.7" class="st19 st20 st21">calculater</tspan><tspan x="0" y="194" class="st19 st20 st21">get all total</tspan><tspan x="0" y="258.6" class="st19 st20 st21">cost here</tspan></text>
</svg>
