<?xml version="1.0" encoding="utf-8"?>
<!-- Generator: Adobe Illustrator 19.0.0, SVG Export Plug-In . SVG Version: 6.00 Build 0)  -->
<svg version="1.1" id="Layer_1" xmlns="http://www.w3.org/2000/svg" xmlns:xlink="http://www.w3.org/1999/xlink" x="0px" y="0px"
	 viewBox="0 0 1920 792" style="enable-background:new 0 0 1920 792;" xml:space="preserve">
<style type="text/css">
	.st0{fill:#8F7C6E;}
	.st1{fill:#A18C7C;}
	.st2{fill:#473D3B;}
	.st3{fill:#1C1A1B;}
	.st4{fill:#5A4E4A;}
	.st5{fill:#C2B0A5;}
	.st6{fill:#1E191D;}
	.st7{fill:#887669;}
	.st8{fill:#6C5E53;}
	.st9{fill:#97D8E7;}
	.st10{fill:#065D64;}
	.st11{fill:#5CAEB3;}
	.st12{fill:#DBD8BB;}
	.st13{fill:#C4543D;}
	.st14{fill:#9A422F;}
	.st15{fill:#C0BDA3;}
	.st16{fill:#FFFFFF;}
	.st17{fill:#0A848F;}
	.st18{font-family:'MyriadPro-Regular';}
	.st19{font-size:74.0736px;}
</style>
<g id="XMLID_4_">
	<path id="XMLID_10_" class="st0" d="M564.1,165.7l-24.5,13.9c-4,2.3-6.3,7.1-5.6,12c18.6,132,39.4,270,58,402.1
		c0.8,6,5.8,10.2,11.3,9.8c85.8-6.8,157-11.1,235.7-19c5.8-0.6,10.1-6,9.7-12.3l-26.3-433.3L564.1,165.7"/>
	<polygon id="XMLID_13_" class="st1" points="538.8,192.3 557.9,181.8 582.5,378.5 565.3,382.6 	"/>
	<path id="XMLID_16_" class="st2" d="M847.3,548.7c0.2,4.1-2.6,7.6-6.4,8c-74.8,8.4-148.7,13.9-223.8,18.6c-3.7,0.2-6.9-2.7-7.4-6.6
		l0-0.1l-34-269.9l-15.7-124.9c-0.5-4.3,2.2-8.1,6.2-8.7c82-10.8,166.4-22.6,248.4-33.4c4-0.5,7.6,2.7,7.9,7.1
		c0.6,9.6,1.2,19.2,1.8,28.7c7.6,121.1,16.9,241,22.2,358.9C846.6,533.9,847,541.3,847.3,548.7z"/>
	<path id="XMLID_287_" class="st3" d="M732.9,159.9c-14.1-2-28.8,0.7-42.9,2.3c-7.2,0.8-14.4,1.8-21.7,2.8c-6.5,0.8-13.5,0.9-19,4.9
		c-1.8,1.3-1.4,4.6,0.6,5.4c5.9,2.4,12.2,0.9,18.3,0.1c7.6-1,15.3-1.9,22.9-3c14-2,28.9-3.1,42.2-8.7
		C735.1,163.1,734.7,160.2,732.9,159.9z"/>
	<path id="XMLID_17_" class="st3" d="M759.8,149.4c-6.2,0-6.2,10.4,0,10.4C766,159.7,766,149.4,759.8,149.4z"/>
	<path id="XMLID_20_" class="st1" d="M589.8,556.5c4.8-1.1,9.6-2.6,14.3-4.4c0.7,4.8,1,10,1.7,14.7c0.2,1.6,0.5,3.2,1,4.6
		c0.6,1.5,1.5,2.8,2.9,3.5c-3.1,7.4-6.4,15.1-10.2,22.2c-1.6-0.1-3.2-1.7-4-3.2c-0.8-1.6-1.1-3.3-1.4-5.1
		C592.3,578,591.6,567.5,589.8,556.5z"/>
	<path id="XMLID_281_" class="st4" d="M843.2,548.8c-18.3-1.9-37.5,1.1-55.9,2.6c-19.1,1.5-38.3,3.1-57.4,4.6l-56.3,4.6
		c-9.8,0.8-19.5,1.5-29.3,2.4c-8.9,0.8-19.2,0.5-27.7,3.2c-2.7,0.8-2.5,4.8,0.4,5.2c8.8,1.3,18.9-0.7,27.9-1.3
		c9.4-0.6,18.8-1.4,28.1-2.2c19.1-1.5,38.3-3,57.4-4.5c18.8-1.5,37.5-2.9,56.3-4.4c18.7-1.5,38.5-1.5,56.7-6.4
		C845.4,552,845.2,549,843.2,548.8z"/>
	<path id="XMLID_278_" class="st5" d="M761.6,545.8c-0.1-4.6-0.3-9.7-0.7-14.3c-0.2-2.4-2.1-4.2-4.3-4c-13.4,0.9-26.4,2.3-39.8,3.1
		c-2.3,0.2-4.1,2.4-3.8,4.9c0.5,4.4,1,9.8,1.5,14.1c0.3,2.3,2.1,3.9,4.2,3.9c13.5-0.4,25.4-1.5,39.3-3.2
		C760.1,550,761.6,548.1,761.6,545.8z"/>
	<path id="XMLID_275_" class="st6" d="M759.3,545c-0.1-3.8-0.3-8.1-0.7-11.9c-0.2-2-1.9-3.5-3.9-3.4c-12.1,0.7-23.7,1.8-35.7,2.5
		c-2.1,0.1-3.7,2-3.4,4.1c0.5,3.7,0.9,8.2,1.4,11.8c0.2,1.9,1.9,3.3,3.8,3.2c12.1-0.3,22.8-1.1,35.3-2.5
		C758,548.5,759.4,546.9,759.3,545z"/>
	<path id="XMLID_26_" class="st7" d="M554.5,260.1c-0.3,1.2-0.1,2.4,0,3.6c0.7,6.5,1.6,13.1,4.4,19.2c0.7,1.5,2,3.3,3.8,2.9
		c1.6-0.3,2.1-2.1,2.3-3.6c0.9-7.3-0.2-14.9-3.3-21.6c-0.4-0.9-0.9-1.8-1.7-2.5C557.7,256.1,555.1,257.6,554.5,260.1z"/>
	<path id="XMLID_29_" class="st7" d="M560,298.6c-0.3,1.1-0.1,2.2,0,3.3c0.7,6.1,1.6,12.3,4.4,18c0.7,1.4,2,3.1,3.8,2.7
		c1.6-0.3,2.1-2,2.3-3.4c0.9-6.9-0.2-13.9-3.3-20.3c-0.4-0.9-0.9-1.7-1.7-2.4C563.2,294.9,560.6,296.3,560,298.6z"/>
	<path id="XMLID_32_" class="st8" d="M558.1,298.6c-0.3,1.1-0.1,2.2,0,3.3c0.7,6.1,1.6,12.3,4.4,18c0.7,1.4,2,3.1,3.8,2.7
		c1.6-0.3,2.1-2,2.3-3.4c0.9-6.9-0.2-13.9-3.3-20.3c-0.4-0.9-0.9-1.7-1.7-2.4C561.3,294.9,558.6,296.3,558.1,298.6z"/>
	<path id="XMLID_33_" class="st9" d="M570.2,197.7l42.9,328.4c0.6,4.2,4.1,7.2,8,6.8l209.4-23.6c3.9-0.4,6.8-4.2,6.5-8.4
		l-21.4-328.9L570.2,197.7z"/>
	<path id="XMLID_34_" class="st10" d="M689.7,472.8l2.3,15.5c0.9,6,6,10.1,11.5,9.4l50.7-6.5c5.8-0.7,9.9-6.5,9.1-12.7l-2.1-17.3
		c-0.8-6.3-6.1-10.7-11.9-9.7l-51,8.3C692.7,460.7,688.8,466.5,689.7,472.8z"/>
	<path id="XMLID_51_" class="st11" d="M627.5,521.8l-43.1-329.5l-13.6,1.4l42.9,328.4c0.6,4.2,4.1,7.2,8,6.8l9.6-1.1
		C629.3,526.6,627.8,524.5,627.5,521.8z"/>
	<polygon id="XMLID_55_" class="st12" points="570.8,193.8 816.2,168 912,212.2 648.2,252.7 	"/>
	<polygon id="XMLID_58_" class="st13" points="570.8,193.8 648.2,252.7 687.8,246.6 609.7,189.7 	"/>
	<polygon id="XMLID_59_" class="st13" points="652.9,185.1 727.7,240.5 763.2,235.1 684.8,181.8 	"/>
	<polygon id="XMLID_60_" class="st13" points="816.2,168 912,212.2 874.2,218 780.4,171.7 	"/>
	<polygon id="XMLID_61_" class="st13" points="752.7,174.6 834.7,224.1 799.2,229.5 722,177.9 	"/>
	<path id="XMLID_64_" class="st14" d="M648.2,252.7c0,0,10,19.1,26.7,14c16.6-5.2,12.9-20.1,12.9-20.1L648.2,252.7z"/>
	<path id="XMLID_67_" class="st15" d="M687.8,246.6c0,0,8.3,16.8,25.2,14.2c16.9-2.6,14.7-20.3,14.7-20.3L687.8,246.6z"/>
	<path id="XMLID_70_" class="st14" d="M727.7,240.5c0,0,7,17,23.5,14.5c16.5-2.5,12.1-19.9,12.1-19.9L727.7,240.5z"/>
	<path id="XMLID_71_" class="st15" d="M763.2,235.1c0,0,5.8,17.2,21.6,14.7c15.8-2.4,14.4-20.3,14.4-20.3L763.2,235.1z"/>
	<path id="XMLID_74_" class="st14" d="M799.2,229.5c0,0,7,16.7,21.9,14.4s13.5-19.8,13.5-19.8L799.2,229.5z"/>
	<path id="XMLID_75_" class="st15" d="M834.7,224.1c0,0,6.3,17.1,23.9,14.4c17.6-2.7,15.6-20.5,15.6-20.5L834.7,224.1z"/>
	<path id="XMLID_78_" class="st14" d="M874.2,218c0,0,4.8,17.3,22.5,14.6c17.7-2.7,15.3-20.4,15.3-20.4L874.2,218z"/>
	<polygon id="XMLID_97_" class="st1" points="565.3,389.7 582.5,385.2 584.5,393.6 569,403.5 	"/>
	<path id="XMLID_100_" class="st8" d="M552.6,260.1c-0.3,1.2-0.1,2.4,0,3.6c0.7,6.5,1.6,13.1,4.4,19.2c0.7,1.5,2,3.3,3.8,2.9
		c1.6-0.3,2.1-2.1,2.3-3.6c0.9-7.3-0.2-14.9-3.3-21.6c-0.4-0.9-0.9-1.8-1.7-2.5C555.8,256.1,553.2,257.6,552.6,260.1z"/>
	<path id="XMLID_101_" class="st2" d="M560.6,270.8c-0.3-0.8-1.4-0.2-1.9,0.1c-0.3-0.9-0.7-1.8-1.3-2.4c-0.4-0.4-1.1-0.1-1,0.5
		c0,0.9,0.4,1.8,0.7,2.7c-0.6,0.3-1.1,0.6-1.4,1.1c-0.3,0.4-0.1,1,0.4,1.1c0.5,0,1.1-0.2,1.7-0.5c0.3,0.9,0.6,1.9,1.4,2.4
		c0.1,0.1,0.4,0,0.5-0.1c0.4-1,0-2.2-0.3-3.2C559.6,272.1,560.9,271.6,560.6,270.8z"/>
	<path id="XMLID_102_" class="st2" d="M565.1,309c-1.2,0.2-2.5,0.6-3.7,1c-1.1,0.4-0.6,2,0.5,1.9c1.2-0.2,2.5-0.5,3.7-0.9
		C566.8,310.6,566.3,308.8,565.1,309z"/>
	<path id="XMLID_106_" class="st16" d="M708.5,478c1.5-2.7,1.7-6.1-0.3-8.7c-2-2.7-5.6-3.6-8.3-2.2c-1-0.2-2.2,0.4-2.1,1.9
		c0,0.1,0,0.2,0,0.3c-0.2,0.4-0.1,0.7,0.1,1c0.4,6.3,1.5,13.5,3.5,19.5c-0.2,0.7,0.1,1.6,0.7,1.9c0.4,0.9,1.4,1,2.2,0.6
		c4.5,0.5,9.2-2.5,8.9-8C713.1,480.9,711.1,478.8,708.5,478z M705.8,471.7c1.5,2.7-0.1,5.5-2.5,6.8c-0.5-2.9-1-5.7-1.6-8.6
		C703.3,469.6,704.9,470,705.8,471.7z M708.2,487.7c-0.9,0.7-2,0.9-3,1c-0.3-2.3-0.7-4.6-1.2-6.9c0.3,0,0.6,0,0.9-0.2
		C708.7,479.7,711.8,485,708.2,487.7z"/>
	<path id="XMLID_110_" class="st16" d="M729.9,464.4c-0.7-1.1-2.4-0.8-2.4,0.7c0,3.1,1,6.1,1.2,9.3c0.1,1.3,0.1,2.6,0,4
		c-0.1,3,0.3,3.9-2.5,4.6c-2.5,0.6-2.6,0-3.8-2.1c-0.8-1.5-1.5-3.2-2.1-4.8c-1-2.7-1.5-5.5-2.3-8.3c-0.5-1.8-3.2-1.5-3.1,0.4
		c0.3,6.1,4.2,21.8,12.2,20.4C735.2,487.2,733.1,469.4,729.9,464.4z"/>
	<path id="XMLID_111_" class="st16" d="M749.9,459.3c-0.7-0.8-1.7-0.1-1.8,0.8c-0.5,4.7,2.2,10-0.5,14.5c-3.3,5.6-7.2-8.1-8.3-10.2
		c-0.6-1.1-1.9-0.5-2,0.6c-0.5,4.4,2.7,13.7,7.6,14.7c0,0.4,0.1,0.8,0.1,1.3c0.2,1.5,0.3,3,0.5,4.6c0.1,0.7,1,1.4,1.7,1.4
		c0.2,0,0.3,0,0.5-0.1c1-0.2,1.4-1.3,1.2-2.3c-0.3-1.6-0.6-3.1-0.9-4.7c0-0.2-0.1-0.4-0.1-0.6c0.1,0,0.2-0.1,0.3-0.1
		C753.3,476.2,753.4,463.5,749.9,459.3z"/>
	<path id="XMLID_114_" class="st1" d="M807,564.4l36.8-4.4c0,0,3.2,18-3,20.3c-6.1,2.3-35,3.3-35,3.3L807,564.4z"/>
	<rect id="XMLID_115_" x="798.3" y="565.4" class="st1" width="5.3" height="19.1"/>
	<path id="XMLID_140_" class="st17" d="M753.6,454.2c-9.7,0.5-19.5,1.8-29.1,3.1c-10.1,1.4-21.6,2-31,5.9c-0.3,0.1-0.3,0.5,0.1,0.5
		c9.5,0.3,19.5-2.4,28.9-3.7c10.4-1.5,20.9-2.6,31.4-4.2C754.7,455.6,754.5,454.2,753.6,454.2z"/>
</g>
<text id="XMLID_1_" transform="matrix(0.4731 -5.725740e-002 0.1202 0.9928 629.7 406.2293)" class="st16 st18 st19">Your Orders</text>
</svg>
