<?xml version="1.0" encoding="utf-8"?>
<!-- Generator: Adobe Illustrator 19.0.0, SVG Export Plug-In . SVG Version: 6.00 Build 0)  -->
<svg version="1.1" id="Layer_1" xmlns="http://www.w3.org/2000/svg" xmlns:xlink="http://www.w3.org/1999/xlink" x="0px" y="0px"
	 viewBox="0 0 1920 792" style="enable-background:new 0 0 1920 792;" xml:space="preserve">
<style type="text/css">
	.st0{fill:#F8E69E;stroke:#F8E69E;stroke-miterlimit:10;}
	.st1{fill:#F7C471;stroke:#F8E69E;stroke-miterlimit:10;}
</style>
<path id="XMLID_1_" class="st0" d="M1.3,0C97.5,44.7,164,93.2,207.2,129.4c37,31.1,42,40.6,65.9,51.8c78.7,36.6,150.7-8.7,269.4-40
	c37.3-9.8,159.9-41.1,291.8-28.2c168,16.4,174.4,87.3,301.2,80c129.3-7.4,148-82.6,288.2-83.5c98.6-0.6,116.6,36.4,202.4,36.5
	c69,0.1,170.3-23.8,295.3-143.5C1281.3,1.6,641.3,0.8,1.3,0z"/>
<path id="XMLID_3_" class="st1" d="M1.3,4.7c214.5,180.4,294,197.4,325.9,176.5c10.6-6.9,34.4-30.2,71.8-32.9
	c28.6-2.1,42.1,9.4,62.4,12.9c59.9,10.3,79.9-66.9,156.5-96.5C700.8,32.6,740,99.2,906,82.4c38.6-3.9,34.3-7.3,67.1-9.4
	c107.7-7,175.4,28.1,230.6,42.4c99.9,25.8,148.1-19.7,318.8-63.5c92.3-23.7,225.1-48.1,395.3-47.1"/>
<path id="XMLID_2_" class="st0" d="M348.4,163.5"/>
</svg>
