<?xml version="1.0" encoding="utf-8"?>
<!-- Generator: Adobe Illustrator 19.0.0, SVG Export Plug-In . SVG Version: 6.00 Build 0)  -->
<svg version="1.1" id="Layer_1" xmlns="http://www.w3.org/2000/svg" xmlns:xlink="http://www.w3.org/1999/xlink" x="0px" y="0px"
	 viewBox="0 0 612 792" style="enable-background:new 0 0 612 792;" xml:space="preserve">
<style type="text/css">
	.st0{fill:#F0B27A;stroke:#F0B27A;stroke-miterlimit:10;}
	.st1{fill:#F5CBA7;stroke:#F5CBA7;stroke-miterlimit:10;}
	.st2{fill:#F9E4D3;stroke:#F9E4D3;stroke-miterlimit:10;}
</style>
<path id="XMLID_1_" class="st0" d="M0.5,1c80.9,22.8,126.5,59.9,153,89c47.9,52.6,39.9,86.4,101,162c46.8,57.8,64.1,53.7,100,104
	c44.9,62.8,53.7,119.4,65,160c19.8,71.1,67.7,167.3,193,273c-204.3,0.7-408.7,1.3-613,2C-0.2,527.7,0.2,264.3,0.5,1z"/>
<path id="XMLID_2_" class="st1" d="M0,2.5c28.5,18.7,67.7,51.1,86,102c20,55.6-3.3,81.9,20,137c19.1,45.2,41.4,43.2,92,108
	c30.1,38.6,45.9,69.7,72,121c54.3,106.7,48.2,132.9,76,179c27.9,46.3,85,104.3,216,140c-186.3-0.3-372.7-0.7-559-1
	C2,526.5,1,264.5,0,2.5z"/>
<path id="XMLID_3_" class="st2" d="M2,788.8C1.3,526.6,0.7,264.4,0,2.2C0,1.4,0.1,1,0.2,1c1.7-0.3,13.3,44.5,16.7,57.8
	C42,155.5,37.7,208.5,61,278.3c32,95.7,71,88.1,103,194.9c17.5,58.3,8.4,71.8,22,114.7c17.4,54.9,60.3,129.4,178,201
	C243.3,788.8,122.7,788.8,2,788.8z"/>
</svg>
