<?xml version="1.0" encoding="utf-8"?>
<!-- Generator: Adobe Illustrator 19.0.0, SVG Export Plug-In . SVG Version: 6.00 Build 0)  -->
<svg version="1.1" xmlns="http://www.w3.org/2000/svg" xmlns:xlink="http://www.w3.org/1999/xlink" x="0px" y="0px"
	 viewBox="0 0 5000 5000" style="enable-background:new 0 0 5000 5000;" xml:space="preserve">
<style type="text/css">
	.st0{fill:#FAE5D3;}
	.st1{fill:#E55123;}
	.st2{fill:#FDFDFD;}
	.st3{fill:#EF5222;}
	.st4{fill:#E0F9FE;}
	.st5{fill:#1FADC3;}
	.st6{fill:#1496A4;}
	.st7{fill:#FFFFFF;}
	.st8{fill:#B73030;}
	.st9{fill:#DB3736;}
	.st10{fill:#E65455;}
	.st11{fill:#F4F6F7;}
	.st12{fill:#E54D25;}
	.st13{fill:#F4502A;}
	.st14{fill:#EBF8FF;}
	.st15{fill:#E55928;}
	.st16{fill:#F46438;}
	.st17{fill:#5FB7B8;}
	.st18{fill:#2798A6;}
	.st19{fill:#419AA0;}
	.st20{fill:#F46E75;}
	.st21{fill:#148897;}
	.st22{fill:#17AFBC;}
</style>
<g id="Layer_2">
	<rect x="2014.3" y="-13.3" class="st0" width="3007.9" height="5000"/>
</g>
<g id="Layer_1">
	<path class="st1" d="M3904.3,3315.9c-17.3-5.5-59.3-41.7-59.3-41.7l-187.3-141.3c-31.3-23.6-53.1-72.4-53.1-102.5v-492.1V2046
		c0-30.1,21.8-78.9,53.1-102.5l187.2-141.3c0,0,42.1-36.3,59.4-41.7c17.3-5.5,91.1-3.6,91.1-3.6c30.1,0,40.5,25.1,40.5,55.2v726.2
		v726c0,30.1-10.3,55.2-40.4,55.2C3995.4,3319.5,3921.6,3321.3,3904.3,3315.9z"/>
	<path class="st2" d="M3904.4,3316.5c0,0-7.1-2.3-22.8-13.3c-20-14-229.4-174.1-229.4-174.1s-45.6-36.5-47.4-97.8l0.3-493
		l-0.3-492.9c1.8-61.2,49.6-99.2,49.6-99.2s207.2-158.5,227.2-172.6c15.7-11,22.8-13.1,22.8-13.1c64.9-21.7,71.4,50.7,71.4,50.7
		l-0.9,727l0.9,727.2C3975.8,3265.5,3969.2,3338.3,3904.4,3316.5z"/>
	<path class="st3" d="M3897.7,3300.7L3660,3120.8c0,0-48.9-48.8-46.5-96.3l-0.5-486.2l0.5-485.9c-2.4-47.6,46.5-96.3,46.5-96.3
		l240.4-181.9c60-28.2,66.6,48.6,66.6,48.6v715.6v715.9c0,0-6.4,73.7-63,50.2C3901.8,3303.4,3899.6,3302.2,3897.7,3300.7z"/>
	<polygon class="st4" points="3630.6,3023.5 3630.6,2538.3 3630.6,2053.4 3943.3,1856.2 3943.3,2538.3 3943.3,3220.6 	"/>
	<path class="st5" d="M2865.2,2095.6l133-55.6c0.4-0.2,0.7-0.3,1.1-0.4c7.2-2.4,15.2,1.2,18.2,8.3l120.9,289.2
		c3,7.2-0.1,15.3-6.9,18.8c-0.3,0.2-0.7,0.3-1.1,0.5l-133,55.6c-0.2,0.1-0.3,0.1-0.5,0.2c-7.4,2.8-15.8-0.7-18.8-8.1l-120.9-289.2
		c-3.1-7.4,0.3-15.8,7.5-19.1C2864.9,2095.7,2865,2095.6,2865.2,2095.6z"/>
	<path class="st6" d="M2864.7,2095.8c-7.2,3.3-10.5,11.7-7.5,19.1l18.6,44.4l83.8,200.4l18.6,44.4c3.1,7.4,11.4,10.9,18.8,8.1
		c0.2-0.1,0.3-0.1,0.5-0.2l36.5-15.3l60-25.1v0l36.5-15.3c0.2-0.1,0.3-0.1,0.5-0.2c0,0,0,0,0,0c0.2-0.1,0.4-0.2,0.6-0.3
		c0,0,0,0,0.1,0c0,0,0.1,0,0.1-0.1c0.2-0.1,0.4-0.2,0.5-0.3c0.1,0,0.1-0.1,0.2-0.1c0.1-0.1,0.3-0.2,0.4-0.3c0.1,0,0.1-0.1,0.2-0.1
		c0.1-0.1,0.3-0.2,0.4-0.3c0.1-0.1,0.1-0.1,0.2-0.2c0.1-0.1,0.2-0.2,0.3-0.3c0.1-0.1,0.2-0.1,0.2-0.2c0.1-0.1,0.2-0.2,0.3-0.3
		c0.1-0.1,0.2-0.1,0.2-0.2c0.1-0.1,0.2-0.2,0.3-0.3c0.1-0.1,0.2-0.2,0.2-0.2c0.1-0.1,0.2-0.2,0.2-0.3c0.1-0.1,0.2-0.2,0.2-0.3
		c0.1-0.1,0.2-0.2,0.2-0.3c0.1-0.1,0.1-0.2,0.2-0.3c0.1-0.1,0.1-0.2,0.2-0.3c0.1-0.1,0.1-0.2,0.2-0.3c0.1-0.1,0.1-0.2,0.2-0.3
		c0.1-0.1,0.1-0.2,0.2-0.3c0.1-0.1,0.1-0.2,0.2-0.3c0.1-0.1,0.1-0.2,0.2-0.3c0.1-0.1,0.1-0.2,0.2-0.3c0.1-0.1,0.1-0.2,0.2-0.3
		c0.1-0.1,0.1-0.2,0.2-0.3c0.1-0.1,0.1-0.2,0.2-0.3c0-0.1,0.1-0.2,0.1-0.3c0.1-0.1,0.1-0.2,0.1-0.3c0-0.1,0.1-0.2,0.1-0.3
		c0-0.1,0.1-0.2,0.1-0.3c0-0.1,0.1-0.2,0.1-0.3c0-0.1,0.1-0.2,0.1-0.3c0-0.1,0.1-0.2,0.1-0.3c0-0.1,0.1-0.2,0.1-0.3
		c0-0.1,0.1-0.2,0.1-0.3c0-0.1,0.1-0.2,0.1-0.3c0-0.1,0-0.2,0.1-0.3c0-0.1,0-0.2,0.1-0.3c0-0.1,0-0.2,0.1-0.3c0-0.1,0-0.2,0.1-0.3
		c0-0.1,0-0.2,0-0.3c0-0.1,0-0.2,0-0.3c0-0.1,0-0.2,0-0.3c0-0.1,0-0.2,0-0.3c0-0.1,0-0.2,0-0.3c0-0.1,0-0.2,0-0.3c0-0.1,0-0.2,0-0.4
		c0-0.1,0-0.2,0-0.3c0-0.1,0-0.2,0-0.4c0-0.1,0-0.2,0-0.3c0-0.1,0-0.2,0-0.4c0-0.1,0-0.2,0-0.3c0-0.1,0-0.3-0.1-0.4
		c0-0.1,0-0.2-0.1-0.3c0-0.1-0.1-0.3-0.1-0.4c0-0.1,0-0.2-0.1-0.3c0-0.1-0.1-0.3-0.1-0.4c0-0.1-0.1-0.2-0.1-0.3
		c0-0.2-0.1-0.3-0.2-0.5c0-0.1-0.1-0.2-0.1-0.2c-0.1-0.2-0.2-0.5-0.3-0.7l0,0h0l-18.6-44.4l-83.8-200.4l-18.6-44.4
		c-0.1-0.2-0.2-0.5-0.3-0.7c0-0.1-0.1-0.1-0.1-0.2c-0.1-0.1-0.1-0.3-0.2-0.4c0-0.1-0.1-0.2-0.1-0.3c-0.1-0.1-0.1-0.3-0.2-0.4
		c-0.1-0.1-0.1-0.2-0.2-0.3c-0.1-0.1-0.1-0.2-0.2-0.3c-0.1-0.1-0.1-0.2-0.2-0.3c-0.1-0.1-0.1-0.2-0.2-0.3c-0.1-0.1-0.1-0.2-0.2-0.3
		c-0.1-0.1-0.2-0.2-0.2-0.3c-0.1-0.1-0.1-0.2-0.2-0.2c-0.1-0.1-0.2-0.2-0.2-0.3c-0.1-0.1-0.2-0.2-0.2-0.2c-0.1-0.1-0.2-0.2-0.3-0.3
		c-0.1-0.1-0.2-0.2-0.2-0.2c-0.1-0.1-0.2-0.2-0.3-0.2c-0.1-0.1-0.2-0.1-0.3-0.2c-0.1-0.1-0.2-0.2-0.3-0.2c-0.1-0.1-0.2-0.1-0.3-0.2
		c-0.1-0.1-0.2-0.1-0.3-0.2c-0.1-0.1-0.2-0.1-0.3-0.2c-0.1-0.1-0.2-0.1-0.3-0.2c-0.1-0.1-0.2-0.1-0.3-0.2c-0.1-0.1-0.2-0.1-0.3-0.2
		c-0.1-0.1-0.2-0.1-0.3-0.2c-0.1-0.1-0.2-0.1-0.3-0.2c-0.1-0.1-0.2-0.1-0.3-0.2c-0.1-0.1-0.2-0.1-0.3-0.2c-0.1-0.1-0.2-0.1-0.3-0.1
		c-0.1,0-0.2-0.1-0.3-0.1c-0.1,0-0.2-0.1-0.3-0.1c-0.1,0-0.2-0.1-0.3-0.1c-0.1,0-0.2-0.1-0.3-0.1c-0.1,0-0.2-0.1-0.3-0.1
		c-0.1,0-0.2-0.1-0.3-0.1c-0.1,0-0.2-0.1-0.3-0.1c-0.1,0-0.2-0.1-0.3-0.1c-0.1,0-0.2-0.1-0.3-0.1c-0.1,0-0.2-0.1-0.3-0.1
		c-0.1,0-0.2,0-0.3-0.1c-0.1,0-0.2,0-0.3-0.1c-0.1,0-0.2,0-0.3-0.1c-0.1,0-0.2,0-0.3,0c-0.1,0-0.2,0-0.4,0c-0.1,0-0.2,0-0.3,0
		c-0.1,0-0.2,0-0.4,0c-0.1,0-0.2,0-0.3,0c-0.1,0-0.2,0-0.4,0c-0.1,0-0.2,0-0.3,0c-0.1,0-0.3,0-0.4,0c-0.1,0-0.2,0-0.3,0
		c-0.1,0-0.3,0-0.4,0c-0.1,0-0.2,0-0.3,0c-0.1,0-0.3,0-0.4,0.1c-0.1,0-0.2,0-0.3,0c-0.2,0-0.3,0.1-0.5,0.1c-0.1,0-0.2,0-0.2,0
		c-0.2,0-0.3,0.1-0.5,0.1c-0.1,0-0.1,0-0.2,0c-0.2,0.1-0.4,0.1-0.6,0.2c0,0-0.1,0-0.1,0c0,0,0,0-0.1,0c-0.2,0.1-0.4,0.1-0.6,0.2
		c0,0,0,0,0,0c-0.2,0.1-0.3,0.1-0.5,0.2h0l-36.5,15.3l-60,25.1l-36.5,15.3C2865,2095.6,2864.9,2095.7,2864.7,2095.8z M2970.9,2068.1
		c4.1,4.6,8.9,8.8,14.4,12.5c11.4,7.6,23.8,11.8,35.6,12.6l87.7,209.7c-7.7,9-13.5,20.7-16,34.2c-1.5,7.8-1.7,15.5-0.9,22.7
		l-64.4,26.9c-4.6-5.7-10.2-10.9-16.8-15.3c-11.4-7.6-23.8-11.8-35.6-12.6l-87.7-209.6c7.7-9,13.5-20.8,16-34.2
		c1.2-6.5,1.6-12.9,1.2-19L2970.9,2068.1z"/>
	<path class="st6" d="M3056.9,2247.5c-0.6,2-1.3,4-2.1,6c-6.6,16-19,28.6-35,35.3c-33,13.8-71.2-1.8-85-34.9
		c-13.8-33,1.8-71.2,34.9-85c16-6.7,33.7-6.8,49.7-0.2c16,6.6,28.6,19,35.3,35C3060.5,2217.8,3061.2,2233.2,3056.9,2247.5z
		 M2934.4,2210.7c-4.1,13.5-3.7,28.5,2.2,42.5c6.5,15.5,18.6,27.6,34.2,34c15.6,6.4,32.7,6.3,48.2-0.2c15.5-6.5,27.6-18.6,34-34.2
		c6.4-15.6,6.3-32.7-0.2-48.2c-6.5-15.5-18.6-27.6-34.2-34s-32.7-6.3-48.2,0.2l0,0C2952.4,2178.3,2939.7,2193.3,2934.4,2210.7z"/>
	<circle class="st6" cx="2994.7" cy="2228.9" r="55.9"/>
	<path class="st7" d="M3030,2220.7c2.7,7.5,4.1,15.3,3.9,23.3l-16.7,7c0.4-4.7,0.2-9.6-0.3-14.8c-0.6-5.1-1.6-9.4-3-12.9
		c-1.2-2.9-2.4-4.8-3.7-5.8c-1.2-1-2.7-1.2-4.3-0.5c-1.1,0.5-1.8,1.3-2.2,2.6c-0.4,1.3-0.6,3.2-0.6,5.9c0,2.6,0,6.1,0.3,10.5
		c0.2,4.9-0.1,9.1-1,12.5c-0.9,3.4-2.3,6.3-4.2,8.5c-1.9,2.2-4.7,4.1-8.3,5.6c-5.5,2.3-10.6,2.3-15.2,0.1
		c-4.6-2.3-8.8-6.8-12.5-13.6l-11.2,4.7l-4.4-10.4l11.1-4.6c-2.4-6.8-3.6-14.2-3.5-22.2l16.8,0c-0.2,8.3,0.8,15.3,3.2,20.9
		c1.1,2.7,2.2,4.4,3.3,5.3c1.1,0.8,2.3,1,3.6,0.4c1.1-0.5,1.9-1.2,2.2-2.3c0.4-1.1,0.6-2.8,0.7-5.1c0.1-2.3,0-5.4-0.3-9.4
		c-0.4-8,0.3-14.3,2.2-18.6c1.9-4.4,5.3-7.6,10.3-9.7c5.6-2.4,11-2.5,16-0.4c5,2.1,9.4,6.4,13.1,12.9l13.5-5.6l4.4,10.4L3030,2220.7
		z"/>
	<path class="st5" d="M2980.7,2051.3l143.2-16c0.4,0,0.8-0.1,1.2-0.1c7.6-0.2,14.3,5.4,15.1,13.1l34.7,311.5
		c0.9,7.7-4.4,14.7-11.9,16.1c-0.4,0.1-0.8,0.1-1.2,0.2l-143.2,16c-0.2,0-0.3,0-0.5,0c-7.9,0.6-14.9-5.1-15.8-13.1l-34.7-311.5
		c-0.9-7.9,4.7-15.1,12.5-16.2C2980.3,2051.3,2980.5,2051.3,2980.7,2051.3z"/>
	<path class="st6" d="M2980.2,2051.3c-7.8,1.1-13.4,8.3-12.5,16.2l5.3,47.8l24.1,215.9l5.3,47.8c0.9,7.9,7.9,13.7,15.8,13.1
		c0.2,0,0.3,0,0.5,0l39.3-4.4l64.6-7.2v0l39.3-4.4c0.2,0,0.3,0,0.5-0.1c0,0,0,0,0,0c0.2,0,0.4-0.1,0.6-0.1c0,0,0,0,0.1,0
		c0,0,0.1,0,0.1,0c0.2,0,0.4-0.1,0.6-0.1c0.1,0,0.1,0,0.2,0c0.2,0,0.3-0.1,0.5-0.1c0.1,0,0.2,0,0.2-0.1c0.1,0,0.3-0.1,0.4-0.1
		c0.1,0,0.2-0.1,0.3-0.1c0.1,0,0.3-0.1,0.4-0.2c0.1,0,0.2-0.1,0.3-0.1c0.1-0.1,0.2-0.1,0.4-0.2c0.1,0,0.2-0.1,0.3-0.1
		c0.1-0.1,0.2-0.1,0.3-0.2c0.1-0.1,0.2-0.1,0.3-0.2c0.1-0.1,0.2-0.1,0.3-0.2c0.1-0.1,0.2-0.1,0.3-0.2c0.1-0.1,0.2-0.1,0.3-0.2
		c0.1-0.1,0.2-0.1,0.3-0.2c0.1-0.1,0.2-0.1,0.3-0.2c0.1-0.1,0.2-0.1,0.3-0.2c0.1-0.1,0.2-0.1,0.3-0.2c0.1-0.1,0.2-0.1,0.3-0.2
		c0.1-0.1,0.2-0.1,0.3-0.2c0.1-0.1,0.2-0.2,0.3-0.2c0.1-0.1,0.2-0.1,0.2-0.2c0.1-0.1,0.2-0.2,0.3-0.3c0.1-0.1,0.2-0.2,0.2-0.2
		c0.1-0.1,0.2-0.2,0.2-0.3c0.1-0.1,0.1-0.2,0.2-0.2c0.1-0.1,0.2-0.2,0.2-0.3c0.1-0.1,0.1-0.2,0.2-0.2c0.1-0.1,0.1-0.2,0.2-0.3
		c0.1-0.1,0.1-0.2,0.2-0.3c0.1-0.1,0.1-0.2,0.2-0.3c0.1-0.1,0.1-0.2,0.2-0.3c0.1-0.1,0.1-0.2,0.2-0.3c0.1-0.1,0.1-0.2,0.2-0.3
		c0.1-0.1,0.1-0.2,0.2-0.3c0.1-0.1,0.1-0.2,0.2-0.3c0.1-0.1,0.1-0.2,0.2-0.3c0.1-0.1,0.1-0.2,0.1-0.3c0-0.1,0.1-0.2,0.1-0.3
		c0-0.1,0.1-0.2,0.1-0.3c0-0.1,0.1-0.2,0.1-0.3c0-0.1,0.1-0.2,0.1-0.3c0-0.1,0.1-0.2,0.1-0.3c0-0.1,0.1-0.2,0.1-0.3
		c0-0.1,0.1-0.2,0.1-0.3c0-0.1,0.1-0.2,0.1-0.3c0-0.1,0.1-0.2,0.1-0.3c0-0.1,0.1-0.2,0.1-0.4c0-0.1,0-0.2,0.1-0.3
		c0-0.1,0-0.2,0.1-0.4c0-0.1,0-0.2,0.1-0.3c0-0.1,0-0.3,0-0.4c0-0.1,0-0.2,0-0.3c0-0.1,0-0.3,0-0.4c0-0.1,0-0.2,0-0.3
		c0-0.1,0-0.3,0-0.4c0-0.1,0-0.2,0-0.3c0-0.2,0-0.3,0-0.5c0-0.1,0-0.2,0-0.2c0-0.2,0-0.5-0.1-0.7l0,0l0,0l-5.3-47.8l-24.1-215.9
		l-5.3-47.8c0-0.2-0.1-0.5-0.1-0.7c0-0.1,0-0.2,0-0.2c0-0.2-0.1-0.3-0.1-0.5c0-0.1,0-0.2-0.1-0.3c0-0.1-0.1-0.3-0.1-0.4
		c0-0.1-0.1-0.2-0.1-0.3c0-0.1-0.1-0.3-0.1-0.4c0-0.1-0.1-0.2-0.1-0.3c0-0.1-0.1-0.2-0.1-0.4c0-0.1-0.1-0.2-0.1-0.3
		c0-0.1-0.1-0.2-0.1-0.4c0-0.1-0.1-0.2-0.1-0.3c-0.1-0.1-0.1-0.2-0.2-0.3c0-0.1-0.1-0.2-0.1-0.3c-0.1-0.1-0.1-0.2-0.2-0.3
		c-0.1-0.1-0.1-0.2-0.2-0.3c-0.1-0.1-0.1-0.2-0.2-0.3c-0.1-0.1-0.1-0.2-0.2-0.3c-0.1-0.1-0.1-0.2-0.2-0.3c-0.1-0.1-0.1-0.2-0.2-0.3
		c-0.1-0.1-0.1-0.2-0.2-0.3c-0.1-0.1-0.1-0.2-0.2-0.3c-0.1-0.1-0.1-0.2-0.2-0.3c-0.1-0.1-0.1-0.2-0.2-0.3c-0.1-0.1-0.1-0.2-0.2-0.3
		c-0.1-0.1-0.2-0.2-0.2-0.3c-0.1-0.1-0.2-0.2-0.2-0.2c-0.1-0.1-0.2-0.2-0.2-0.2c-0.1-0.1-0.2-0.2-0.2-0.2c-0.1-0.1-0.2-0.2-0.3-0.2
		c-0.1-0.1-0.2-0.1-0.3-0.2c-0.1-0.1-0.2-0.1-0.3-0.2c-0.1-0.1-0.2-0.1-0.3-0.2c-0.1-0.1-0.2-0.1-0.3-0.2c-0.1-0.1-0.2-0.1-0.3-0.2
		c-0.1-0.1-0.2-0.1-0.3-0.2c-0.1-0.1-0.2-0.1-0.3-0.2c-0.1-0.1-0.2-0.1-0.3-0.2c-0.1-0.1-0.2-0.1-0.3-0.2c-0.1-0.1-0.2-0.1-0.3-0.2
		c-0.1-0.1-0.2-0.1-0.3-0.2c-0.1-0.1-0.2-0.1-0.3-0.2c-0.1-0.1-0.2-0.1-0.3-0.1c-0.1,0-0.2-0.1-0.3-0.1c-0.1,0-0.2-0.1-0.3-0.1
		c-0.1,0-0.2-0.1-0.3-0.1c-0.1,0-0.2-0.1-0.3-0.1c-0.1,0-0.2-0.1-0.3-0.1c-0.1,0-0.2-0.1-0.4-0.1c-0.1,0-0.2-0.1-0.3-0.1
		c-0.1,0-0.3-0.1-0.4-0.1c-0.1,0-0.2,0-0.3-0.1c-0.1,0-0.3-0.1-0.4-0.1c-0.1,0-0.2,0-0.3-0.1c-0.1,0-0.3,0-0.4-0.1
		c-0.1,0-0.2,0-0.3,0c-0.2,0-0.3,0-0.5,0c-0.1,0-0.2,0-0.2,0c-0.2,0-0.3,0-0.5,0c-0.1,0-0.1,0-0.2,0c-0.2,0-0.4,0-0.6,0
		c0,0-0.1,0-0.1,0c0,0,0,0-0.1,0c-0.2,0-0.4,0-0.7,0c0,0,0,0,0,0c-0.2,0-0.3,0-0.5,0h0l-39.3,4.4l-64.6,7.2l-39.3,4.4
		C2980.5,2051.3,2980.3,2051.3,2980.2,2051.3z M3089.8,2054.6c2.7,5.5,6.1,11,10.3,16c8.8,10.5,19.5,18,30.6,22.1l25.2,225.9
		c-9.9,6.4-18.7,16.1-25,28.3c-3.6,7.1-6,14.4-7.3,21.5l-69.4,7.7c-2.8-6.7-6.8-13.3-11.8-19.4c-8.8-10.5-19.6-18-30.7-22.1
		l-25.2-225.8c9.9-6.4,18.8-16.1,25-28.3c3-5.9,5.2-11.9,6.5-17.9L3089.8,2054.6z"/>
	<path class="st6" d="M3121.9,2251c-1.1,1.8-2.4,3.5-3.7,5.1c-10.8,13.5-26.3,22.1-43.5,24c-35.6,4-67.8-21.8-71.7-57.3
		c-4-35.6,21.8-67.8,57.3-71.7c17.2-1.9,34.2,3,47.7,13.8c13.5,10.8,22.1,26.3,24,43.5C3133.7,2223.5,3130.1,2238.5,3121.9,2251z
		 M3014.7,2181.2c-7.7,11.8-11.5,26.3-9.9,41.4c1.9,16.7,10.1,31.7,23.3,42.2c13.1,10.5,29.6,15.3,46.3,13.4s31.7-10.1,42.2-23.3
		c10.5-13.1,15.3-29.6,13.4-46.3c-1.9-16.7-10.1-31.7-23.3-42.2s-29.6-15.3-46.3-13.4l0,0C3041.1,2155.2,3024.7,2166,3014.7,2181.2z
		"/>
	<circle class="st6" cx="3067.5" cy="2215.6" r="55.9"/>
	<path class="st7" d="M3103.6,2217.7c0.5,8-0.4,15.8-2.8,23.5l-18,2c1.7-4.4,2.9-9.2,3.8-14.3c0.9-5.1,1.1-9.5,0.7-13.2
		c-0.3-3.1-1-5.3-1.9-6.6c-0.9-1.3-2.2-1.9-4-1.7c-1.2,0.1-2.1,0.8-2.9,1.9c-0.7,1.1-1.5,2.9-2.2,5.5c-0.8,2.5-1.7,5.9-2.7,10.2
		c-1.2,4.8-2.7,8.7-4.5,11.7c-1.8,3.1-3.9,5.4-6.4,6.9c-2.5,1.6-5.7,2.6-9.6,3c-6,0.7-10.8-0.7-14.6-4.2c-3.8-3.5-6.5-9-8.2-16.5
		l-12,1.3l-1.3-11.2l11.9-1.3c-0.4-7.2,0.6-14.7,2.9-22.3l16.2,4.7c-2.6,7.9-3.5,14.9-2.8,21c0.3,2.9,0.9,4.9,1.7,6
		c0.8,1.1,1.9,1.6,3.3,1.4c1.2-0.1,2.1-0.7,2.8-1.6c0.7-0.9,1.4-2.5,2.1-4.7c0.7-2.2,1.5-5.2,2.4-9.1c1.8-7.9,4.3-13.6,7.3-17.3
		c3-3.7,7.3-5.8,12.6-6.4c6.1-0.7,11.2,0.7,15.4,4.1c4.2,3.4,7.2,8.8,8.9,16l14.5-1.6l1.3,11.2L3103.6,2217.7z"/>
	<path class="st7" d="M2913.4,2315.7c0.7,0.5,1.3,1,2,1.5c0.2,0.1,0.3,0.2,0.5,0.4c1.9,1.3,3.9,2.4,6.1,3.2c0.1,0,0.2,0.1,0.3,0.1
		c3.2,1.6,3.4,7.1,0.3,9.4c-5.4,4.1-8.7,9.7-10.6,16c-3.4,11.7,0.2,21.6,8.2,30.3c2,2.2,4.3,4.2,6.7,5.9c0.3,0.2,0.5,0.4,0.8,0.5
		c1.2,0.8,2.5,1.6,3.8,2.3c0.1,0,0.2,0.1,0.2,0.1c4,2.4,4.4,8.2,0.8,11.1c-0.1,0.1-0.3,0.2-0.4,0.3c-9.5,6.6-13,16.8-9.6,28.4
		c2.8,9.4,8,17.3,16.2,22.9c1.1,0.7,2.3,1.4,3.5,1.9c3,1.3,4.1,2.8,4,6.1c-0.1,2.4-1,4.3-3,5.8c-5.2,3.6-9.1,8.3-10.5,14.6
		c-1.1,4.8-0.6,9.5,1,14.2c2.5,7,6.7,12.9,11.8,18.2c2.4,2.5,8.8,6.6,13.9,9.4c2.8,1.5,11.4,4.3,14,5.1c8.4,2.6,16.6,4.9,24.7,7
		c27.4,7,53,11,76.3,13.1c72.9,6.4,122.4-6.6,130.9-8.7c2.5-0.6,11-5,13.2-4.8c0.3,0,2-0.2,2.8-0.5c0.2-0.1,0.4-0.2,0.4-0.2
		l19.4-192.8c-0.1-0.1-0.2-0.2-0.4-0.3c-0.3-0.2-0.5-0.5-0.8-0.7c-4.1-3.5-8.2-7.1-12.2-10.6c-0.5-0.4-0.8-0.8-1.2-1.3
		c-0.1-0.2-0.2-0.4-0.4-0.5c-6-6.7-12.3-11.9-18.5-16.1c-0.1-0.1-0.3-0.2-0.4-0.3c-26.1-17.2-52-15.2-62-16c-0.6,0-1.1-0.1-1.6-0.2
		c-18.6-1.4-43.1-5.9-60.6-9.4c-12.3-2.5-21.2-4.5-22.2-4.6c-7.2-0.7-15.2-1.5-23.5-2.4c-39.8-4.1-88.1-9.1-95-9.7
		c-5.6-0.5-11.1-1.2-16.7-1.5c-9.2-0.4-19.8,4.4-24,16.3C2897.3,2292.1,2902.1,2306.9,2913.4,2315.7z"/>
	<polygon class="st8" points="3240.7,2336.4 3276.3,2340.2 3261,2536.1 3222.3,2530.9 	"/>
	<path class="st9" d="M3261.6,2451.2l-11.3,112.6l516.9,52.2c10.7-30.7,20.3-68.2,24.8-111.2L3261.6,2451.2z"/>
	<path class="st10" d="M3788.7,2373.6l-514.1-51.9l-13,129.5l530.4,53.6C3796.3,2465.3,3796.2,2421.3,3788.7,2373.6z"/>
	<rect y="7.6" class="st11" width="2169.9" height="4994.3"/>
	<path class="st12" d="M1541,3220c16.8,9.4,48.9,13.8,71,9.8l1174.9-212c16.1-2.7,8.6-43.7,8.6-43.7l-547.7-182.7
		c-13.6-5.4-35.8-8.6-49.6-7.1l-1177.9,98.4c0,0-12.9,38,0.3,46.5L1541,3220z"/>
	<path class="st13" d="M1545.9,3182.5c16.8,9.4,48.9,13.8,71,9.8l1170.5-210.9c13.5-2.4,10.9-9.9-5.7-16.5l-528.9-211
		c-13.6-5.4-35.8-8.6-49.6-7.1l-1162,127.5c-21.4,2.3-28.5,10.2-15.5,17.4L1545.9,3182.5z"/>
	<path class="st14" d="M1374.2,3051c15.3,8.5,44.6,12.6,64.8,8.9l1070-171.8c12.3-2.2,9.9-9-5.2-15l-256.8-105.2
		c-12.4-4.9-32.7-7.8-45.3-6.4l-1073.7,125c-19.5,2.1-26,9.3-14.2,15.9L1374.2,3051z"/>
	<path class="st15" d="M991.6,2835.7c2.7,30.5,26.7,32.7,43,30.9l1151.9-129.4c12.3-1.4,21.8-15.1,21.1-30.7l-36.2-776.5
		c-0.7-15.6-11.4-23.1-23.9-23.1l-1155,1.5l-2.5-0.8c-16.4,0.1-44.4,6.3-43.9,31.5L991.6,2835.7z"/>
	<path class="st16" d="M1007.3,2837.1c0.9,17.9,15,31.1,31.3,29.3l1163.6-127.8c12.3-1.4,21.8-15.1,21.1-30.7l-36.2-776.5
		c-0.7-15.6-11.4-28.3-23.9-28.3l-1173.1,4.5c-16.4,0.1-29.1,14.9-28.2,32.9L1007.3,2837.1z"/>
	<polygon class="st4" points="1054.5,2804.8 2185.4,2688.1 2151.7,1964.6 1012.7,1977.7 	"/>
	<path class="st17" d="M2349.7,3021.8L2349.7,3021.8c-1.8-1.8-6.2-3.4-9.9-5c-43.4-18.8-86.1-37.2-128-55.4
		c-20.1-8.7-34.1-10.7-54.1-7.7c-90.7,13.6-185.1,27.8-283.7,42.5c-22.3,3.3-23.5,7.8-4.4,17c29.8,14.2,60.1,28.7,90.7,43.3l0,0l0,0
		c15,7.3,29.9,14.7,45.6,22c11.8,5.5,28.6,8,42.6,6.5c2.6-0.3,4.9-0.7,7.3-1.1c100.3-17.6,196.2-34.4,287.9-50.6
		C2357,3031,2358.5,3027.8,2349.7,3021.8z"/>
	<path class="st17" d="M2072.9,2941.8c47.7-7,94.4-13.9,140-20.6c9.8-1.4,9.8-1.8,0.3-5.9c-7.8-3.4-15.7-6.8-23.5-10.1
		c-8.5-3.6-9.9-3.8-18.9-2.6c-54.9,7.7-111.2,15.7-169,23.9c-40.3,5.7-81.3,11.5-123.1,17.4c-11.4,1.6-11.4,1.9-2.1,6.4
		c7.8,3.7,15.6,7.4,23.6,11.2c8.6,4,10.3,4.3,20.5,2.8C1972.6,2956.6,2023.3,2949.1,2072.9,2941.8z"/>
	<path class="st17" d="M1420.4,2941c-22.8,2.9-45.6,6-69.1,8.8c-8.5,1-9.4,2.7-3.5,5.7c8.8,4.5,17.1,9,25.5,13.6
		c4.7,2.6,9.8,3.4,16.9,2.4c47.6-6.4,94.3-12.7,140.1-18.8c6.5-0.9,7.3-2.4,2.4-4.9c-8.6-4.4-17.3-8.7-25.6-13
		c-5.5-2.9-11-3.6-18.8-2.6C1466.1,2935.2,1443.3,2938,1420.4,2941z"/>
	<path class="st17" d="M1311.8,2890.7c-19.6,2.3-39.3,4.6-59.1,6.9c-11.3,1.3-11.7,1.9-4.2,6c7.5,4.1,15.3,8.2,22.9,12.3
		c4.5,2.4,10,3.2,16.8,2.4c41.3-5,82-10,122-14.9c6.7-0.8,6.8-2.4,2.3-4.7c-8.1-4.1-16.1-8.1-23.7-12.2c-5.4-2.9-10.9-3.8-19.2-2.7
		C1350.7,2886.3,1331.2,2888.5,1311.8,2890.7z"/>
	<path class="st17" d="M2301.8,2827.3c-11.1,1.4-22.1,2.9-33.4,4.3c-5.5,0.7-6,1.8-0.2,4.1c8.8,3.5,17.4,7.1,25.9,10.7
		c5,2.1,9.5,2.9,14.7,2.2c22.9-3.1,45.6-6.1,68.1-9.1c4.6-0.6,4.6-1.8-0.1-3.8c-9-3.7-18.1-7.3-27.1-10.9c-4.9-2-9.2-2.4-13.6-1.8
		C2324.7,2824.4,2313.2,2825.8,2301.8,2827.3z"/>
	<path class="st17" d="M1528.5,2959.3c-15.2,2-30.4,4.1-45.9,6.2c-6.8,0.9-7.9,2.3-2.8,4.9c9.3,4.7,18.4,9.5,27.5,14.3
		c4.6,2.4,9.9,3.1,16.1,2.3c31.3-4.4,62.3-8.7,92.8-13.1c5.9-0.8,6.6-2.4,2.1-4.7c-9.2-4.7-18.4-9.3-27.6-13.9
		c-4.8-2.4-10-3.1-16.4-2.2C1559.3,2955.3,1543.9,2957.3,1528.5,2959.3z"/>
	<path class="st17" d="M1381.2,2938.9c14.3-1.8,28.3-3.7,42.6-5.4c7.3-0.9,8.1-2.4,3.1-5c-8.7-4.4-17.2-8.8-25.6-13.2
		c-4.6-2.4-9.8-3.1-16.4-2.3c-28.8,3.6-58,7.1-87.5,10.8c-6.4,0.8-7.5,2.2-3,4.5c8.8,4.6,17.5,9.3,26,13.9c4.6,2.5,9.7,3.3,16.6,2.3
		C1351.7,2942.6,1366.5,2940.8,1381.2,2938.9z"/>
	<path class="st17" d="M2298.6,2821.8c8.8-1.1,17.4-2.3,26.3-3.3c5.8-0.7,5.3-2-0.4-4.2c-8.4-3.3-16.6-6.6-24.7-9.9
		c-4.9-2-9.3-2.7-14.3-2.1c-18,2.3-36.3,4.5-54.8,6.7c-4.6,0.6-5.4,1.6-0.4,3.6c9,3.6,17.9,7.3,26.7,10.9c4.8,2,9,2.5,13.7,1.9
		C2280,2824.1,2289.4,2822.9,2298.6,2821.8z"/>
	<path class="st17" d="M2463,2884.5c7-1,13.8-2.1,20.9-3.1c4.7-0.6,4.6-1.8-0.6-3.9c-9.4-3.7-18.6-7.4-27.6-11.1
		c-5.2-2.1-9.6-2.9-14.5-2.1c-13.5,2-27.4,3.9-41.3,5.9c-4.7,0.7-4.7,1.9,0.3,3.9c9.2,3.8,18.5,7.5,27.7,11.3
		c5.3,2.2,9.9,2.9,14.9,2.1C2449.2,2886.5,2456.2,2885.5,2463,2884.5z"/>
	<path class="st17" d="M1688.6,2998.2c9.3-1.4,18.5-2.8,28-4.1c6.5-0.9,7.3-2.5,2.3-5c-9.4-4.7-18.9-9.4-28.3-14.1
		c-4.9-2.4-10.3-3.1-16.6-2.2c-18.8,2.7-37.8,5.4-57,8.1c-6.5,0.9-7.6,2.4-2.4,4.9c9.5,4.7,19,9.5,28.3,14.4
		c5.1,2.6,10.3,3.3,16.7,2.3C1669.1,3001,1678.9,2999.6,1688.6,2998.2z"/>
	<path class="st17" d="M1698.7,2905.1c-7.1,0.9-14.2,1.9-21.3,2.7c-5.4,0.7-6,2-1.9,4c9.2,4.5,18.4,9,27.8,13.5
		c4.9,2.3,10.2,2.9,16.1,2.1c13.9-1.9,27.8-3.8,41.7-5.6c6.4-0.8,7-2.4,1.9-4.8c-8.7-4.1-17.3-8.2-25.8-12.3
		c-5.2-2.5-10.7-3.4-17.4-2.4C1713,2903.3,1705.8,2904.2,1698.7,2905.1z"/>
	<path class="st17" d="M1921.5,2819.2c-6.2,0.7-12.4,1.5-18.7,2.2c-5,0.5-5.9,1.6-1.6,3.6c8.9,3.9,17.8,7.9,26.8,11.9
		c4.4,1.9,9,2.5,13.9,1.9c12.7-1.6,25.4-3.1,38-4.6c4.5-0.5,5-1.7,1.1-3.5c-9.1-4-18.3-8-27.5-12c-4.4-1.9-8.9-2.3-13.5-1.6
		C1934,2817.8,1927.7,2818.5,1921.5,2819.2z"/>
	<path class="st17" d="M1506.5,2867.9c-7,0.8-13.9,1.7-21.2,2.5c-6.7,0.7-8.4,2-3.3,4.5c9.1,4.3,18.1,8.7,27.2,13.1
		c3.9,1.9,8.4,2.4,13.4,1.8c15.4-1.8,30.6-3.7,45.6-5.6c5.1-0.6,6.2-2,2.2-3.9c-8.9-4.3-17.7-8.7-26.5-12.9c-4.2-2-8.9-2.8-14.7-2
		C1521.8,2866.1,1514.1,2867,1506.5,2867.9C1506.5,2867.9,1506.5,2867.9,1506.5,2867.9z"/>
	<path class="st17" d="M1560.8,2916c7.4-1,14.8-1.9,22.3-2.8c6-0.7,6.6-2.1,2.2-4.3c-9.1-4.5-18.1-9-27.2-13.4c-4.1-2-9-2.6-14.3-2
		c-15.1,1.8-30.2,3.7-45.5,5.6c-5.3,0.7-7,1.8-2.9,4c8.4,4.3,16.7,8.7,25.1,13c5.7,3,12,3.8,19.7,2.5
		C1546.8,2917.6,1554,2916.8,1560.8,2916z"/>
	<path class="st17" d="M2051.7,2888.7c-6.3,0.8-12.5,1.7-18.9,2.5c-4.8,0.6-4.9,1.8-1.1,3.7c9.1,4.6,19.8,8.9,30.3,13.3
		c3.5,1.5,7.5,2.1,11.1,1.6c13.8-1.9,27.4-3.7,40.7-5.7c4.6-0.7,3.3-2.2-0.7-4c-9.3-4.1-18.6-8.2-27.9-12.2c-4.6-2-9.1-2.6-14-1.9
		C2064.8,2887,2058.2,2887.8,2051.7,2888.7z"/>
	<path class="st17" d="M1555.5,2989.7c-7.8,1.1-15.6,2.2-23.6,3.3c-6.5,0.9-6.9,2.4-2.2,4.9c9.7,5,19.3,10,28.9,15.1
		c4.4,2.3,9.3,3.1,15.2,2.2c16.4-2.4,32.6-4.8,48.9-7.2c5.9-0.9,6.2-2.4,1.8-4.6c-9.8-5-19.4-9.9-28.9-14.8
		c-4.6-2.4-9.5-3.2-15.7-2.2C1571.8,2987.4,1563.6,2988.5,1555.5,2989.7z"/>
	<path class="st17" d="M1514.3,3023.8c8.4-1.2,16.7-2.5,25.1-3.7c6-0.9,6.6-2.4,2.2-4.7c-9.7-5.1-19.3-10.1-28.9-15.1
		c-4.5-2.4-9.6-3.2-16-2.3c-16.3,2.3-32.7,4.7-49.3,7c-6.6,0.9-7.4,2.5-2.7,5c9.4,5,18.8,10,28,15c4.9,2.7,10.3,3.6,17.2,2.5
		C1498,3026.1,1506.2,3025,1514.3,3023.8z"/>
	<path class="st17" d="M2337.6,2902.9c6-0.9,11.9-1.8,17.9-2.6c4.3-0.6,4.2-1.8-0.2-3.6c-10-4.1-20-8.3-29.8-12.4
		c-4.5-1.9-8.6-2.3-12.7-1.7c-11.7,1.7-23.5,3.3-35.3,5c-4.6,0.6-4.8,1.9,0,3.9c9.8,4.1,19.5,8.2,29.1,12.3
		c4.9,2.1,9.2,2.5,13.7,1.8C2326,2904.6,2331.9,2903.8,2337.6,2902.9z"/>
	<path class="st17" d="M1550.1,2924.3c-7.5,1-15,2-22.6,2.9c-6,0.7-7.3,2-2.7,4.4c9.5,4.7,18.9,9.5,28.3,14.3
		c3.9,2,8.5,2.6,13.7,1.9c15.7-2.1,31.3-4.2,46.8-6.3c5.9-0.8,6.1-2.3,1.6-4.5c-9.3-4.6-18.6-9.2-27.7-13.7
		c-4.2-2.1-8.8-2.7-14.3-1.9C1565.7,2922.3,1557.9,2923.3,1550.1,2924.3z"/>
	<path class="st17" d="M1807.7,2954c-7.1,1-14.2,2-21.3,3c-5.6,0.8-6.3,2.3-1.6,4.5c9.7,4.7,19.4,9.4,29.1,14.1
		c4.4,2.1,9.1,2.9,14.4,2.1c14.8-2.2,29.5-4.4,44.2-6.5c5.2-0.8,5.7-2.1,1.2-4.2c-10-4.7-20-9.5-29.9-14.2c-4.4-2.1-9-2.7-14.2-1.9
		C1822.4,2951.9,1815.1,2952.9,1807.7,2954z"/>
	<path class="st17" d="M1483.9,2925.8c7.6-1,15.2-2,22.8-2.9c5.7-0.7,6.6-2,2.4-4.1c-9.1-4.6-18.1-9.1-27-13.6
		c-4.2-2.2-9.2-3-15.2-2.2c-15.8,1.9-31.6,3.9-47.6,5.9c-5.2,0.6-6.1,1.9-2.4,3.9c9.4,4.8,18.8,9.7,28.2,14.5
		c3.9,2,8.5,2.5,13.7,1.8C1467.3,2927.9,1475.6,2926.8,1483.9,2925.8z"/>
	<path class="st17" d="M2045.6,2804.6c-5.9,0.7-11.8,1.4-17.8,2.1c-4.3,0.5-5.4,1.4-1.1,3.2c9.2,3.9,18.3,7.8,27.6,11.8
		c4.1,1.8,8.4,2.3,12.7,1.7c12.2-1.5,24.2-2.9,36.2-4.4c4.6-0.6,4.6-1.7,0.1-3.6c-8.9-3.7-17.7-7.4-26.2-11c-4.8-2-9-2.5-13.8-1.8
		C2057.5,2803.3,2051.5,2803.9,2045.6,2804.6z"/>
	<path class="st17" d="M2226.9,2830.9c5.7-0.7,11.3-1.5,17-2.2c4.5-0.5,5.2-1.5,0.5-3.4c-9.2-3.8-18.4-7.5-27.4-11.3
		c-4.5-1.9-8.8-2.3-13.1-1.8c-11.3,1.4-22.7,2.8-34.1,4.2c-4.9,0.6-4.8,1.8,0,3.7c8.8,3.6,17.5,7.2,26.1,10.9
		c5.2,2.2,9.7,2.7,14.6,2C2215.9,2832.3,2221.5,2831.6,2226.9,2830.9z"/>
	<path class="st17" d="M1829.9,2852.3c6.3-0.8,12.5-1.6,18.8-2.3c5.8-0.7,7-1.9,1.7-4.2c-8.7-3.8-17.2-7.7-25.5-11.5
		c-4.5-2.1-8.9-2.8-14.5-2.1c-12.9,1.6-26.1,3.1-39.3,4.6c-5.2,0.6-6.5,1.6-1.9,3.7c9,4.1,17.9,8.2,26.8,12.3
		c4.5,2.1,9.1,2.6,14.2,1.9C1816.7,2853.9,1823.3,2853.1,1829.9,2852.3C1829.9,2852.3,1829.9,2852.3,1829.9,2852.3z"/>
	<path class="st17" d="M1273.6,2952.6c8.3-1.1,16.5-2.1,24.7-3.1c6.6-0.8,7.8-2.2,3.3-4.6c-9.1-4.8-18-9.6-26.8-14.4
		c-4-2.2-9-2.8-14.9-2.1c-16.8,2-33.6,4.1-50.5,6.2c-6.5,0.8-8,2.3-3.6,4.7c8.9,4.8,17.7,9.7,26.6,14.6c4.1,2.2,9.1,2.9,15.3,2.1
		C1256.2,2954.8,1264.9,2953.7,1273.6,2952.6z"/>
	<path class="st17" d="M1651.9,2850.8c-6.6,0.8-13.2,1.6-20,2.3c-6,0.6-7.2,1.8-2.4,4.1c8.7,4.1,17.4,8.2,25.9,12.4
		c4.7,2.3,9.7,2.8,15.4,2.1c13.6-1.7,27.1-3.3,40.6-5c6.1-0.7,7.2-2,2-4.4c-8.7-3.9-17.1-7.9-25.3-11.9c-4.9-2.4-9.8-2.9-15.7-2.1
		C1665.8,2849.3,1658.8,2850,1651.9,2850.8z"/>
	<path class="st17" d="M2164.3,2790.7c-5.6,0.7-11.2,1.4-17,2c-4.5,0.5-5.3,1.4-0.7,3.3c9,3.7,18,7.4,26.8,11.1
		c4.5,1.9,8.8,2.3,13.1,1.8c11.3-1.4,22.6-2.7,33.7-4.1c4.3-0.5,4.8-1.6,0.4-3.4c-9-3.7-18-7.3-26.8-11c-4.4-1.8-8.5-2.2-12.8-1.7
		C2175.6,2789.4,2169.9,2790,2164.3,2790.7z"/>
	<path class="st17" d="M2221.4,2837.7c-5.9,0.8-11.9,1.5-17.9,2.3c-4,0.5-4.1,1.6-0.2,3.2c9.5,4,19,8,28.6,12
		c4.2,1.7,8.6,2.4,12.8,1.9c12-1.6,23.8-3.2,35.6-4.8c4.2-0.6,4-1.7-0.2-3.5c-9.4-3.9-18.7-7.7-27.9-11.5c-4.5-1.9-8.6-2.5-13.1-1.9
		C2233.3,2836.2,2227.3,2836.9,2221.4,2837.7z"/>
	<path class="st17" d="M1916.6,2870.5c6.2-0.8,12.3-1.6,18.6-2.4c5.5-0.6,6.4-1.8,1.5-4c-9-4-17.9-8-26.7-12c-4.3-1.9-8.9-2.7-14-2
		c-13.1,1.6-26.3,3.2-39.6,4.9c-5.4,0.6-5.3,1.9-0.9,3.9c9,4,17.9,8.1,26.7,12.1c4.9,2.2,9.5,2.8,14.9,2
		C1903.5,2872.2,1910.1,2871.4,1916.6,2870.5z"/>
	<path class="st17" d="M1849.1,2879.2c6.7-0.8,13.2-1.7,19.9-2.5c5.3-0.6,5.9-1.9,1.3-3.9c-9-4.1-18-8.1-26.7-12.2
		c-4.7-2.2-9.5-2.8-15-2.1c-13.2,1.6-26.5,3.3-39.9,4.9c-5.3,0.6-5.9,1.9-1.4,4c9.2,4.2,18.3,8.4,27.4,12.7c4.2,2,8.6,2.5,13.6,1.9
		C1835.2,2880.9,1842.2,2880,1849.1,2879.2z"/>
	<path class="st17" d="M1709.1,2897c7-0.9,14-1.8,21-2.7c5.2-0.6,5.7-1.9,1.5-3.9c-9.4-4.4-18.7-8.8-28-13.2
		c-3.9-1.8-8.3-2.4-12.9-1.8c-14.6,1.8-29.2,3.6-43.9,5.4c-5.2,0.6-5.8,1.9-1.7,3.9c9.3,4.5,18.6,8.9,27.9,13.4
		c3.9,1.9,8.3,2.4,13.2,1.8C1693.8,2898.9,1701.5,2898,1709.1,2897z"/>
	<path class="st17" d="M1635.6,2906.4c7.2-0.9,14.4-1.9,21.6-2.8c5.2-0.6,6.6-1.8,2.3-3.9c-9.6-4.6-19.1-9.2-28.6-13.8
		c-3.5-1.7-7.8-2.2-12.2-1.7c-15.2,1.8-30.6,3.7-45.9,5.6c-4.9,0.6-5.6,1.9-1.9,3.8c9.2,4.6,18.4,9.1,27.8,13.7
		c4.1,2,8.9,2.7,14.3,1.9C1620.4,2908.3,1628,2907.4,1635.6,2906.4z"/>
	<path class="st17" d="M2220.6,2784.1c-5.5,0.6-10.9,1.3-16.5,1.9c-4.3,0.5-4.1,1.5,0,3.1c9,3.6,17.9,7.3,26.8,10.9
		c4.4,1.8,8.6,2.3,12.9,1.8c11-1.3,22-2.7,32.9-4c4.6-0.6,4.5-1.7-0.2-3.6c-8.6-3.4-17.1-6.8-25.5-10.3c-4.9-2-9.3-2.5-14.1-1.9
		C2231.7,2782.9,2226.1,2783.4,2220.6,2784.1z"/>
	<path class="st17" d="M2080,2879.1c5.9-0.8,11.8-1.6,17.8-2.4c5.5-0.7,6.4-1.9,1-4.2c-9-3.9-17.9-7.7-26.7-11.6
		c-4.6-2-9.1-2.9-14.5-2.2c-12.2,1.6-24.6,3.2-37.1,4.8c-4.9,0.6-5.8,1.7-1.1,3.8c9.4,4.1,18.7,8.2,28,12.3c4.6,2,9.1,2.6,14,1.9
		C2067.5,2880.7,2073.8,2879.9,2080,2879.1z"/>
	<path class="st17" d="M1974.5,2869.5c-6.1,0.8-12.1,1.6-18.4,2.4c-5.5,0.6-6.5,1.8-1.4,4c9.2,4,18.4,8.1,27.3,12.3
		c5,2.3,9.7,2.8,15,2.1c12.5-1.7,24.9-3.4,37.4-5c5.2-0.7,6-2,1-4.1c-9.2-4-18.4-8-27.3-12.1c-4.9-2.2-9.5-2.7-14.6-1.9
		C1987.3,2867.9,1980.8,2868.7,1974.5,2869.5z"/>
	<path class="st17" d="M1908.6,2878c-6.5,0.8-13,1.7-19.6,2.5c-5.2,0.6-6.2,1.8-1.5,3.9c9.4,4.2,18.7,8.5,27.9,12.7
		c4.6,2.1,9.2,2.7,14.4,2c13.3-1.8,26.6-3.6,39.8-5.3c4.6-0.6,5.3-1.8,1-3.8c-9.6-4.3-19.1-8.6-28.6-12.8c-4.2-1.9-8.6-2.4-13.3-1.8
		C1922.2,2876.3,1915.4,2877.1,1908.6,2878z"/>
	<path class="st17" d="M2028.5,2916.2c6.4-0.9,12.9-1.8,19.3-2.7c5.2-0.8,5.8-2.1,0.7-4.4c-9.2-4-18.3-8.1-27.2-12.1
		c-4.8-2.2-9.4-3-14.9-2.2c-13,1.8-26.2,3.6-39.5,5.3c-4.9,0.7-5.2,1.8-0.9,3.8c9.6,4.3,19.1,8.6,28.6,13c4.7,2.2,9.4,2.8,14.5,2
		C2015.6,2918,2022,2917.1,2028.5,2916.2z"/>
	<path class="st17" d="M1619.4,2877.9c7.1-0.9,14.1-1.8,21.2-2.6c6.1-0.7,6.5-2.1,1.8-4.3c-8.8-4.1-17.4-8.3-25.9-12.4
		c-4.2-2-8.6-2.8-14.3-2.1c-14.3,1.7-28.8,3.4-43.4,5.1c-5.9,0.7-6.3,2-2.2,4c8.6,4.2,17.2,8.4,25.8,12.6c4.5,2.2,9.6,3,15.6,2.2
		C1605.1,2879.7,1612.3,2878.8,1619.4,2877.9z"/>
	<path class="st17" d="M2107.4,2846.2c6.2-0.8,12.4-1.6,18.6-2.4c4.1-0.5,4.3-1.6,0.4-3.2c-9.4-4-18.8-8-28.1-11.9
		c-4.2-1.8-8.3-2.3-12.6-1.8c-12.2,1.5-24.4,3-36.6,4.5c-4.7,0.6-5.1,1.8-0.6,3.7c9.2,3.9,18.3,7.9,27.5,11.8
		c4.2,1.8,8.4,2.4,12.8,1.8C2094.9,2847.7,2101.2,2847,2107.4,2846.2z"/>
	<path class="st17" d="M2275.6,2912c6.2-0.9,12.3-1.8,18.5-2.7c4.1-0.6,4-1.8,0-3.5c-10-4.3-20-8.5-29.9-12.7
		c-4.3-1.8-8.8-2.5-13.1-1.8c-12.3,1.7-24.7,3.5-37.1,5.3c-4.1,0.6-4.1,1.8,0,3.5c10,4.3,20,8.6,29.9,12.9c4.4,1.9,8.7,2.5,13.2,1.9
		C2263.2,2913.8,2269.4,2912.9,2275.6,2912C2275.6,2912,2275.6,2912,2275.6,2912z"/>
	<path class="st17" d="M2045.2,2854.1c6.1-0.8,12.2-1.6,18.4-2.3c4.9-0.6,5.3-1.7,0.7-3.7c-9.1-3.9-18-7.7-26.7-11.6
		c-4.6-2.1-9-2.7-14.2-2.1c-11.9,1.5-23.9,3-36.1,4.4c-5.6,0.7-6.3,1.9-1.1,4.1c8.8,3.8,17.4,7.6,26.1,11.4
		c4.7,2.1,9.3,2.8,14.6,2.1C2032.8,2855.6,2039.1,2854.9,2045.2,2854.1z"/>
	<path class="st17" d="M1428,3036.4c8.7-1.3,17.3-2.5,25.9-3.8c5.6-0.8,6.5-2.3,2.5-4.5c-10.1-5.4-20.1-10.8-30.1-16.2
		c-4.1-2.2-9-2.7-14.5-1.9c-17.2,2.4-34.4,4.9-51.9,7.3c-6.8,1-7,2.8-2.5,5.2c9.3,5.1,18.6,10.2,27.9,15.3c5,2.8,10.8,3.4,17.8,2.3
		C1411.3,3038.9,1419.7,3037.7,1428,3036.4C1428.1,3036.5,1428,3036.5,1428,3036.4z"/>
	<path class="st17" d="M1984.2,2811.8c-5.8,0.7-11.6,1.4-17.6,2c-5.2,0.5-6.3,1.6-1.5,3.7c8.7,3.8,17.5,7.6,26.2,11.4
		c4.7,2.1,9.4,2.6,14.5,2c11.9-1.5,23.8-2.9,35.7-4.3c5.5-0.7,5.5-1.9,0.4-4c-8.5-3.5-16.9-7.1-24.9-10.7c-5.3-2.4-9.9-2.8-15.4-2.1
		C1995.9,2810.5,1990,2811.1,1984.2,2811.8z"/>
	<path class="st17" d="M2105.4,2797.6c-5.5,0.7-11,1.3-16.7,1.9c-5,0.5-5.7,1.6-0.8,3.6c8.8,3.6,17.5,7.3,26.2,11
		c4.4,1.9,8.7,2.5,13.3,1.9c11.8-1.4,23.6-2.9,35.2-4.3c4.6-0.6,4.1-1.8-0.3-3.6c-8.8-3.6-17.6-7.2-26.2-10.9
		c-4.3-1.8-8.4-2.4-12.9-1.8C2117.4,2796.2,2111.4,2796.9,2105.4,2797.6z"/>
	<path class="st17" d="M1840.2,2886.8c-6.7,0.9-13.4,1.8-20.2,2.6c-5.1,0.6-5.6,1.9-1.4,3.8c9.3,4.3,18.6,8.7,28,13
		c4.5,2.1,9.4,2.8,14.7,2.1c13.5-1.8,26.9-3.6,40.3-5.4c5.6-0.7,6-2.1,1-4.4c-9.3-4.2-18.4-8.3-27.3-12.5c-4.6-2.1-9.1-2.7-14.3-1.9
		C1854.2,2885.1,1847.2,2885.9,1840.2,2886.8z"/>
	<path class="st17" d="M1779.9,2888c7.1-0.9,14.2-1.8,21.2-2.7c4.7-0.6,5.1-1.8,1.2-3.6c-9.4-4.4-18.7-8.7-28-13
		c-4.1-1.9-8.7-2.5-13.6-1.9c-13.9,1.7-27.8,3.4-41.8,5.1c-5.4,0.7-5.9,2-1.5,4.1c8.9,4.2,17.8,8.3,26.6,12.6
		c4.8,2.3,9.6,2.9,15.4,2.1C1766.1,2889.7,1773.1,2888.9,1779.9,2888C1779.9,2888,1779.9,2888,1779.9,2888z"/>
	<path class="st17" d="M2162.3,2845.3c-5.9,0.8-11.7,1.5-17.7,2.3c-4.7,0.6-5.4,1.7-0.8,3.6c9.3,4,18.6,7.9,28,11.9
		c4.6,2,9.2,2.5,13.8,1.9c11.8-1.6,23.5-3.2,35.2-4.7c4.5-0.6,5.1-1.7,0.4-3.7c-9.4-3.9-18.8-7.8-28-11.7c-4.6-2-8.8-2.4-13.3-1.8
		C2174.1,2843.8,2168.2,2844.5,2162.3,2845.3z"/>
	<path class="st17" d="M2168,2838.4c5.8-0.7,11.6-1.5,17.4-2.2c4.6-0.6,5.1-1.6,0.5-3.5c-9.3-3.8-18.4-7.6-27.5-11.4
		c-4.1-1.7-8.3-2.3-12.5-1.8c-12.1,1.5-24.2,3-36.4,4.5c-4.4,0.5-3.9,1.8,0.1,3.5c9.1,3.9,18.3,7.7,27.4,11.6
		c4.2,1.8,8.3,2.4,12.6,1.8C2155.8,2840,2161.9,2839.2,2168,2838.4z"/>
	<path class="st17" d="M2399.3,2893.9c5.4-0.8,10.7-1.6,16.2-2.4c4.7-0.6,5.3-1.8,0-4c-9.5-3.9-19-7.8-28.4-11.6
		c-4.6-1.9-9-2.6-13.5-2c-11.4,1.6-22.9,3.2-34.5,4.9c-4.1,0.6-4.6,1.6-0.1,3.5c9.9,4.1,19.9,8.3,29.9,12.4
		c4.5,1.9,8.6,2.4,12.8,1.8C2387.5,2895.6,2393.4,2894.7,2399.3,2893.9C2399.3,2893.9,2399.3,2893.9,2399.3,2893.9z"/>
	<path class="st17" d="M1186.7,2905.4c-8.2,1-16.4,2-24.8,2.9c-6.7,0.7-8.3,2.1-4.1,4.4c8.6,4.7,17.3,9.5,25.9,14.3
		c4.3,2.4,9.9,2.9,16.2,2.1c16.6-2,33.1-4.1,49.5-6c7.1-0.9,7.5-2.4,3-4.8c-8.5-4.4-16.7-8.9-24.8-13.3c-4.4-2.4-9.3-3.3-16.3-2.3
		C1203.2,2903.6,1194.9,2904.5,1186.7,2905.4z"/>
	<path class="st17" d="M1469.5,2896.2c7.2-0.9,14.4-1.8,21.6-2.6c6.7-0.8,8.2-2.2,3.1-4.7c-8.6-4.2-16.9-8.4-25.2-12.6
		c-4.4-2.2-9.1-3.1-15.7-2.3c-14.8,1.8-29.9,3.6-45.1,5.3c-6.7,0.8-7.1,2.2-2.5,4.4c8.5,4.2,16.9,8.5,25.1,12.8
		c4.9,2.6,10.3,3.2,16.9,2.3C1454.9,2898,1462.2,2897.1,1469.5,2896.2z"/>
	<path class="st17" d="M1812.8,2914.8c6.6-0.9,13.2-1.8,19.8-2.7c5.3-0.7,6.3-2,1.6-4.2c-9.4-4.4-18.8-8.7-28-13
		c-4.6-2.2-9.2-2.6-14.5-1.9c-13.6,1.8-27.4,3.6-41.4,5.3c-6.2,0.8-6.2,2.2-1.4,4.4c8.9,4.2,17.8,8.4,26.5,12.6
		c5.2,2.5,10.6,3.1,16.7,2.2C1799,2916.7,1806,2915.8,1812.8,2914.8C1812.9,2914.9,1812.8,2914.8,1812.8,2914.8z"/>
	<path class="st17" d="M2177,2871.8c-5.7,0.8-11.3,1.6-17.2,2.3c-5.2,0.6-6,1.8-0.8,4c9.4,4,18.6,8,27.9,12c4.7,2,9.4,2.7,14,2
		c12.3-1.7,24.4-3.4,36.4-5.1c4.7-0.7,4.2-2-0.5-3.9c-9.4-3.9-18.7-7.9-27.9-11.8c-4.6-2-8.8-2.6-13.5-1.9
		C2189.4,2870.1,2183.1,2870.9,2177,2871.8z"/>
	<path class="st17" d="M1731.4,2964.8c-7,1-14,2-21.2,3c-6.3,0.8-7.1,2.4-2,4.9c9.5,4.7,19,9.4,28.5,14.1c4.7,2.4,9.9,3,15.7,2.2
		c15-2.2,29.9-4.4,44.8-6.6c5.4-0.8,5.7-2.2,1.3-4.4c-9.8-4.7-19.6-9.5-29.2-14.2c-4.6-2.3-9.4-3-15.2-2.2
		C1746.7,2962.6,1739,2963.7,1731.4,2964.8z"/>
	<path class="st17" d="M1626.2,2914.4c-7.3,0.9-14.6,1.9-22,2.8c-5.8,0.7-7.2,2-2.5,4.3c9.3,4.6,18.5,9.1,27.7,13.8
		c4.6,2.3,9.6,2.9,15.3,2.1c14.7-2,29.3-3.9,43.8-5.9c6.3-0.8,6.4-2.4,1.6-4.7c-8.9-4.3-17.8-8.6-26.5-12.9
		c-5.1-2.5-10.3-3.2-16.7-2.2C1640.3,2912.7,1633.2,2913.5,1626.2,2914.4z"/>
	<path class="st17" d="M1721.9,2842.6c-6.5,0.8-12.9,1.6-19.5,2.3c-5.4,0.6-6.7,1.7-2.2,3.8c9,4.1,17.9,8.3,26.7,12.5
		c4.5,2.1,9.2,2.6,14.5,2c13.6-1.7,27-3.3,40.5-4.9c5.1-0.6,6.2-1.8,1.7-3.9c-9-4.1-18-8.2-26.7-12.3c-4.5-2.1-8.9-2.5-14-1.8
		C1735.9,2841,1728.9,2841.8,1721.9,2842.6z"/>
	<path class="st17" d="M1856.7,2826.8c-6.4,0.7-12.8,1.5-19.3,2.2c-4.9,0.5-5.2,1.7-1.2,3.5c9.2,4.1,18.3,8.2,27.5,12.4
		c3.8,1.7,8.1,2.3,12.4,1.7c13.4-1.6,26.7-3.2,39.9-4.8c4.6-0.6,5-1.8,0.9-3.6c-9.2-4.1-18.3-8.1-27.5-12.2
		c-3.7-1.6-7.8-2.2-12.2-1.7C1870.5,2825.2,1863.6,2826,1856.7,2826.8z"/>
	<path class="st17" d="M1325.2,2980.1c8-1.1,15.8-2.2,23.8-3.2c6.9-0.9,8.4-2.4,3.4-5.1c-9.1-4.8-18-9.6-26.7-14.4
		c-4.3-2.4-9.2-3.2-15.9-2.3c-16.7,2.2-33.6,4.4-50.7,6.5c-6.9,0.9-7.3,2.5-3.1,4.9c8.8,4.9,17.7,9.7,26.6,14.6
		c4.8,2.6,10.7,3.2,17.6,2.3C1308.5,2982.3,1316.9,2981.2,1325.2,2980.1z"/>
	<path class="st17" d="M1982.2,2862.1c6-0.8,12-1.6,18.1-2.3c5-0.6,5.8-1.8,1.4-3.7c-9.3-4.1-18.6-8.2-28-12.3
		c-3.8-1.6-8-2.2-12.3-1.7c-13.3,1.6-26.6,3.3-40,4.9c-4,0.5-4.2,1.6-0.7,3.1c9.5,4.3,19.1,8.5,28.7,12.8c4.3,1.9,8.6,2.3,13.1,1.7
		C1969.1,2863.8,1975.7,2863,1982.2,2862.1z"/>
	<path class="st17" d="M2143.1,2870.6c5.8-0.8,11.5-1.5,17.3-2.3c4.7-0.6,5-1.8,0.3-3.8c-9.4-4-18.8-8-28-11.9
		c-4.2-1.8-8.3-2.4-12.8-1.8c-12.4,1.6-24.9,3.2-37.6,4.8c-4.7,0.6-4.1,1.9-0.1,3.6c9,3.9,18.1,7.9,27.3,11.8
		c5.2,2.2,10.2,2.8,15.5,2C2130.9,2872.2,2137.1,2871.5,2143.1,2870.6C2143.1,2870.6,2143.1,2870.6,2143.1,2870.6z"/>
	<path class="st17" d="M2350.3,2871.5c5.8-0.8,11.6-1.6,17.3-2.4c4.1-0.6,4.1-1.8-0.2-3.6c-9.8-4.1-19.5-8.1-29.2-12.2
		c-4-1.7-8-2.1-11.9-1.6c-12,1.6-24,3.3-36.2,4.9c-4.3,0.6-4.7,1.7-0.3,3.5c9.5,4,19.1,8,28.6,12.1c4.7,2,9.3,2.5,13.8,1.9
		C2338.2,2873.3,2344.2,2872.4,2350.3,2871.5z"/>
	<path class="st17" d="M2157.6,2898.1c5.9-0.8,11.7-1.6,17.5-2.5c5-0.7,5.8-1.9,0.5-4.1c-9.5-4-18.7-8-27.9-12
		c-4.5-1.9-8.6-2.7-13.6-2c-12.3,1.7-24.8,3.4-37.4,5c-5.1,0.7-5,1.9-0.5,3.9c9.3,4,18.6,8.1,27.9,12.2c5,2.2,10,2.8,15.1,2
		C2145.3,2899.8,2151.5,2899,2157.6,2898.1C2157.6,2898.1,2157.6,2898.1,2157.6,2898.1z"/>
	<path class="st17" d="M1919.6,2906.5c-6.6,0.9-13.2,1.8-20,2.7c-5.4,0.7-6.1,1.9-1.3,4.1c9.6,4.4,19.1,8.8,28.6,13.2
		c4.3,2,9.1,2.7,14,2c13.7-1.9,27.2-3.8,40.6-5.7c5.6-0.8,5.2-2.3,0.2-4.5c-9.2-4.1-18.3-8.2-27.2-12.3c-5-2.3-9.7-2.9-15.1-2.1
		C1932.9,2904.8,1926.2,2905.6,1919.6,2906.5z"/>
	<path class="st17" d="M1850.6,2915.8c-6.8,0.9-13.6,1.9-20.6,2.8c-5.4,0.7-6.6,1.9-1.7,4.2c9.6,4.4,19.1,8.9,28.6,13.4
		c4.4,2.1,9.2,2.7,14.2,2c14.4-2,28.6-3.9,42.6-5.9c5-0.7,4.6-2.2,0.3-4.1c-9.6-4.4-19.1-8.8-28.6-13.2c-4.3-2-8.7-2.6-13.7-1.9
		C1864.9,2913.9,1857.8,2914.9,1850.6,2915.8C1850.7,2915.8,1850.7,2915.8,1850.6,2915.8z"/>
	<path class="st17" d="M1374.4,3007.9c8.3-1.2,16.6-2.3,24.8-3.5c6.6-0.9,8.5-2.5,3.4-5.2c-9.3-4.9-18.4-9.8-27.3-14.7
		c-4.5-2.5-9.5-3.1-16.1-2.2c-16.8,2.3-33.7,4.6-50.8,6.8c-6.9,0.9-7.6,2.5-3,4.9c9.2,4.9,18.2,9.9,27.2,15
		c4.5,2.5,10.1,3.3,16.7,2.4C1357.7,3010.2,1366,3009,1374.4,3007.9C1374.3,3007.9,1374.3,3007.9,1374.4,3007.9z"/>
	<path class="st17" d="M1631.6,2945.4c-7.4,1-14.8,2-22.4,3c-5.5,0.7-7.1,1.9-2.7,4.1c9.7,4.8,19.4,9.7,29.1,14.6
		c4.4,2.2,9.3,2.8,14.8,2.1c15.3-2.1,30.5-4.3,45.5-6.4c5.7-0.8,6.3-2.4,1.8-4.6c-9.5-4.7-18.9-9.4-28.4-14
		c-4.3-2.1-9.2-2.6-14.5-1.9C1647.1,2943.4,1639.3,2944.4,1631.6,2945.4z"/>
	<path class="st17" d="M1706.3,2935.3c-6.9,0.9-13.8,1.9-20.9,2.8c-6.2,0.8-7.6,2.1-2.6,4.6c9.2,4.5,18.4,9.1,27.8,13.6
		c4.5,2.2,9.9,3,15.6,2.2c14.9-2,29.6-4.1,44.2-6.2c5.1-0.7,6.1-2.1,1.6-4.2c-9.8-4.7-19.6-9.4-29.2-14.1c-4.4-2.2-9-2.5-14.1-1.8
		C1721.3,2933.3,1713.8,2934.3,1706.3,2935.3z"/>
	<path class="st17" d="M1419.6,2974c-7.7,1-15.4,2.1-23.3,3.1c-6.8,0.9-8.7,2.3-3.6,5c9.2,4.8,18.3,9.7,27.3,14.6
		c4.2,2.3,9.2,3.2,15.3,2.3c17.3-2.3,34.5-4.7,51.4-7.1c5.3-0.8,5.6-2.4,1.7-4.4c-9.6-5.1-19.3-10.1-28.8-15.1
		c-3.9-2.1-8.6-2.7-14.1-1.9C1437,2971.7,1428.3,2972.9,1419.6,2974C1419.7,2974,1419.7,2974,1419.6,2974z"/>
	<path class="st17" d="M1779.5,2925.4c-7,0.9-14,1.9-21.2,2.8c-5.7,0.7-6.5,2.1-1.7,4.3c9.3,4.4,18.6,8.9,27.8,13.4
		c5,2.5,10.4,3,16.1,2.2c14.3-2.1,28.5-4.1,42.5-6.2c4.6-0.7,5.4-1.9,1.2-3.8c-9.8-4.6-19.6-9.2-29.2-13.8
		c-4.4-2.1-8.8-2.5-13.8-1.8C1794.1,2923.5,1786.7,2924.5,1779.5,2925.4z"/>
	<path class="st17" d="M1547.1,2858c6.9-0.8,13.6-1.6,20.5-2.4c5.4-0.6,6-1.8,1.9-3.7c-4.7-2.2-9.4-4.5-13.9-6.7
		c-3.8-1.9-8.1-2.6-13.5-2c-13.6,1.6-27.3,3.1-41.2,4.7c-5.4,0.6-6.1,1.8-2.1,3.7c4.7,2.3,9.4,4.5,13.9,6.8c4.3,2.2,9,2.6,14.6,1.9
		C1533.8,2859.5,1540.5,2858.8,1547.1,2858C1547.1,2858,1547.1,2858,1547.1,2858z"/>
	<path class="st17" d="M1176.3,2901.1c7.5-0.9,14.9-1.8,22.5-2.6c6.7-0.7,7.4-2.1,3.2-4.3c-22.7-12-14.7-10.5-46.8-7.1
		c-8.9,1-17.6,2.1-26.6,3c-7.9,0.8-8.6,2.3-3.9,4.8c22,11.8,14.1,10.4,46.7,6.8C1173.1,2901.5,1174.7,2901.3,1176.3,2901.1
		C1176.4,2901.1,1176.3,2901.1,1176.3,2901.1z"/>
	<path class="st17" d="M2023.3,2788.6c-5.4,0.6-10.8,1.3-16.3,1.8c-4.5,0.5-5,1.5-0.9,3.2c5,2.1,9.9,4.2,14.8,6.3
		c3.8,1.6,7.6,2,11.6,1.6c11.3-1.3,22.6-2.7,33.9-4c4-0.5,4.1-1.4,0.8-3c-17.8-8.7-18.6-8.8-40.5-6.4
		C2025.6,2788.3,2024.4,2788.5,2023.3,2788.6C2023.3,2788.6,2023.3,2788.6,2023.3,2788.6z"/>
	<path class="st17" d="M2160.7,2786.6c5.1-0.6,10.2-1.2,15.4-1.8c4.5-0.5,4.8-1.5,0.3-3.3c-23.5-9.5-16.7-8.3-38.7-5.9
		c-6.4,0.7-12.5,1.5-18.9,2.1c-4.6,0.5-4.9,1.5-0.5,3.3c23.8,9.7,16.7,8.4,39,6C2158.5,2786.9,2159.6,2786.7,2160.7,2786.6z"/>
	<path class="st17" d="M1404.2,2874.6c7-0.8,13.7-1.7,20.9-2.4c7.3-0.7,7.4-2.2,2.6-4.6c-22.2-11-15.7-9.5-43.8-6.5
		c-8.6,0.9-16.9,2-25.5,2.9c-6.1,0.6-7.5,1.8-3.2,4c23.5,11.9,15.3,10.2,45.4,7C1401.8,2874.9,1403,2874.8,1404.2,2874.6z"/>
	<path class="st17" d="M1747.7,2834.6c6.4-0.7,12.7-1.5,19.1-2.2c4.6-0.5,4.9-1.6,1.3-3.3c-0.2-0.1-0.4-0.2-0.6-0.3
		c-23.4-10.6-16.5-9.1-42.4-6.4c-7.5,0.8-14.9,1.7-22.4,2.5c-5.1,0.6-5.5,1.7-1.4,3.5c23.9,10.9,16,9.5,42.5,6.6
		C1745.1,2835,1746.4,2834.8,1747.7,2834.6C1747.7,2834.6,1747.7,2834.6,1747.7,2834.6z"/>
	<path class="st17" d="M1871.6,2820.2c7.2-0.8,12.9-1.5,18.8-2.2c4.6-0.5,5.7-1.5,1.5-3.3c-5-2.2-9.9-4.3-14.8-6.5
		c-3.7-1.6-7.6-2.2-11.9-1.7c-12.1,1.4-24.2,2.8-36.4,4.1c-4.9,0.5-4.8,1.7-1,3.4c0.2,0.1,0.4,0.2,0.6,0.3
		C1852.1,2824.9,1843.3,2823.2,1871.6,2820.2z"/>
	<path class="st17" d="M1681,2842.4c7.9-0.9,14.1-1.7,20.4-2.4c5-0.5,6.1-1.6,1.9-3.5c-5-2.3-9.9-4.6-14.7-6.8
		c-3.7-1.7-7.8-2.2-12.4-1.7c-13,1.5-26,3-39.2,4.4c-4.7,0.5-5.5,1.6-2.1,3.3c0.4,0.2,0.8,0.4,1.2,0.6
		C1659.7,2847.5,1651.3,2845.5,1681,2842.4z"/>
	<path class="st17" d="M2214.7,2780.3c5-0.6,10-1.2,15.1-1.7c4.2-0.5,4.1-1.5,0.2-3.1c-4.7-1.9-9.4-3.8-14.1-5.7
		c-4.3-1.7-8.3-2.1-12.6-1.6c-9.9,1.2-20,2.3-30.2,3.4c-4.5,0.5-4.6,1.5-0.2,3.2c23.8,9.6,16.4,8.2,38.6,5.9
		C2212.5,2780.6,2213.6,2780.4,2214.7,2780.3C2214.7,2780.3,2214.7,2780.3,2214.7,2780.3z"/>
	<path class="st17" d="M1933.5,2813c5.4-0.6,10.7-1.3,16.2-1.9c5.3-0.5,6.2-1.6,1.5-3.7c-23.5-10.2-17.1-8.6-40.1-6.2
		c-6.8,0.7-13.2,1.6-20.1,2.2c-6.4,0.6-6.2,1.9-1,4.1c22.2,9.5,15.4,8.4,39.7,5.8C1931.1,2813.3,1932.3,2813.2,1933.5,2813z"/>
	<path class="st17" d="M1330.5,2883.2c7.5-0.9,14.9-1.7,22.3-2.6c5.4-0.6,6.2-1.8,2.5-3.7c-0.2-0.1-0.4-0.2-0.6-0.3
		c-23.1-11.7-15-10.2-45.6-6.9c-8.8,0.9-17.4,2-26.2,3c-5.9,0.6-6.8,2-3.1,4c4.6,2.4,9.2,4.8,13.8,7.2c4.3,2.2,9.4,2.7,15.4,1.9
		C1316.1,2884.8,1323.4,2884,1330.5,2883.2C1330.5,2883.2,1330.5,2883.2,1330.5,2883.2z"/>
	<path class="st17" d="M1254.8,2892c7.3-0.9,14.7-1.7,22-2.6c12.5-1.5,3-4.6-2.1-6.9c-5.9-2.6-7-7.8-23-6.4c-15.4,1.4-30,3.3-45.1,5
		c-6.1,0.7-6.9,2-3,4c23.5,12.4,14.6,10.7,46.5,7.3C1251.6,2892.4,1253.2,2892.2,1254.8,2892C1254.8,2892,1254.8,2892,1254.8,2892z"
		/>
	<path class="st17" d="M1991.9,2806.2c5.3-0.6,10.4-1.3,15.8-1.8c5.5-0.5,6.2-1.6,1.1-3.8c-22.9-9.5-16.1-8.4-39.6-5.9
		c-6.6,0.7-12.9,1.5-19.5,2.2c-5.2,0.5-5.9,1.7-1.3,3.6c23.6,10.3,17,8.5,39.9,6.1C1989.5,2806.5,1990.7,2806.4,1991.9,2806.2z"/>
	<path class="st17" d="M1616.2,2850c6.1-0.7,12.1-1.5,18.4-2.1c6-0.6,7.2-1.8,2.5-4c-23-10.9-16.9-9.3-42.8-6.6
		c-7.9,0.8-15.6,1.8-23.6,2.6c-6.4,0.7-6.3,2-1.8,4.1c23,10.9,15.3,9.4,43,6.4C1613.4,2850.3,1614.8,2850.1,1616.2,2850z"/>
	<path class="st17" d="M1477.6,2866.1c6.5-0.8,12.8-1.6,19.4-2.2c5.9-0.6,7-1.8,2.6-3.9c-23.6-11.4-15.4-9.9-45.3-6.8
		c-7.8,0.8-15.3,1.8-23.1,2.6c-6,0.6-7,1.9-2.7,4c23.8,11.7,14.9,10,44.7,6.8C1474.7,2866.4,1476.2,2866.3,1477.6,2866.1z"/>
	<path class="st17" d="M1811.1,2827.3c6-0.7,11.8-1.4,17.8-2.1c4.9-0.5,5.6-1.5,1.3-3.4c-5-2.2-9.9-4.4-14.8-6.6
		c-3.7-1.7-7.7-2.2-12.1-1.7c-12.1,1.4-24.2,2.8-36.5,4.1c-4.9,0.5-5.5,1.6-1.4,3.4c5,2.2,9.9,4.5,14.8,6.7
		c3.8,1.8,7.7,2.2,12.2,1.6C1798.6,2828.7,1804.9,2828,1811.1,2827.3z"/>
	<path class="st17" d="M2105.9,2793c5.3-0.6,10.5-1.3,15.8-1.8c4.4-0.5,4.6-1.4,0.4-3.1c-4.8-1.9-9.5-3.9-14.2-5.9
		c-3.8-1.6-7.7-2.3-12-1.8c-10.7,1.2-21.5,2.5-32.4,3.7c-4.4,0.5-4.5,1.5-0.5,3.2c4.8,2,9.5,3.9,14.1,5.9c4.4,1.9,8.4,2.3,12.9,1.7
		C2095.2,2794.1,2100.6,2793.6,2105.9,2793z"/>
	<polygon class="st18" points="2191.5,2739.1 1054,2865.1 1063.4,2882.5 2199.8,2757.6 	"/>
	<polygon class="st18" points="2089.4,2076.1 2053.8,2079.9 2069.1,2275.8 2107.8,2270.6 	"/>
	<path class="st19" d="M2194.5,2353.3c0,0-0.1,0-0.1,0c-2.4-0.1-3.4-3.5-2.2-7.6c0.5-1.9,12.6-42.4,30.6-84.6
		c13.9-32.5,33-69.5,56.3-89.7c15.3-13.4,32.1-19.4,50.8-18.8c17.8,0.6,33.8,7.3,48.6,20.8c12.6,11.6,25.2,29.1,37.8,53.6
		c26.1,50.6,44.5,115.6,45.4,118.8c1.1,4.1,0.1,7.4-2.3,7.4c0,0,0,0,0,0c-2.4,0-5.3-3.3-6.4-7.4c-0.2-0.8-17.7-66.6-42.4-116.3
		c-24.7-49.7-50.3-70.6-80.8-71.6c-17.6-0.6-33.2,5.2-47.5,17.8c-45,40.1-81,168.5-81.5,170.3
		C2199.7,2350.1,2196.8,2353.3,2194.5,2353.3z"/>
	<rect x="2456.8" y="2292.7" class="st8" width="236.1" height="60.6"/>
	<rect x="1995.1" y="2292.7" class="st10" width="559.6" height="558.9"/>
	<polygon class="st9" points="2625.4,2834 2554.6,2851.5 2554.6,2292.7 2625.4,2307.5 	"/>
	<polygon class="st20" points="2625.4,2834 2696.2,2834 2692.9,2292.7 2625.4,2307.5 	"/>
	<polygon class="st8" points="2554.6,2851.5 2625.4,2794.8 2696.2,2834 	"/>
	<path class="st4" d="M2173.7,2371L2173.7,2371c-14.6,0-26.6-12-26.6-26.6v0c0-14.6,12-26.6,26.6-26.6l0,0c14.6,0,26.6,12,26.6,26.6
		v0C2200.2,2359.1,2188.3,2371,2173.7,2371z"/>
	<path class="st4" d="M2438.5,2371L2438.5,2371c-14.6,0-26.6-12-26.6-26.6v0c0-14.6,12-26.6,26.6-26.6l0,0c14.6,0,26.6,12,26.6,26.6
		v0C2465,2359.1,2453.1,2371,2438.5,2371z"/>
	<path class="st19" d="M2173.7,2348.9c0,0-0.1,0-0.1,0c-2.4-0.1-3.4-3.5-2.2-7.6c0.5-1.9,12.6-42.4,30.6-84.6
		c13.9-32.5,33-69.5,56.3-89.7c15.3-13.4,32.1-19.4,50.8-18.8c17.8,0.6,33.8,7.3,48.6,20.8c12.6,11.6,25.2,29.1,37.8,53.6
		c26.1,50.6,44.5,115.6,45.4,118.8c1.1,4.1,0.1,7.4-2.3,7.4c0,0,0,0,0,0c-2.4,0-5.3-3.3-6.4-7.4c-0.2-0.8-17.7-66.6-42.4-116.3
		c-24.7-49.7-50.3-70.6-80.8-71.6c-17.6-0.6-33.2,5.2-47.5,17.8c-45,40.1-81,168.5-81.5,170.3
		C2178.9,2345.6,2176.1,2348.9,2173.7,2348.9z"/>
	<path class="st7" d="M2416.7,2055.4c-0.7,0.5-1.3,1-2,1.5c-0.2,0.1-0.3,0.2-0.5,0.4c-1.9,1.3-3.9,2.4-6.1,3.2
		c-0.1,0-0.2,0.1-0.3,0.1c-3.2,1.6-3.4,7.1-0.3,9.4c5.4,4.1,8.7,9.7,10.6,16c3.4,11.7-0.2,21.6-8.2,30.3c-2,2.2-4.3,4.2-6.7,5.9
		c-0.3,0.2-0.5,0.4-0.8,0.5c-1.2,0.8-2.5,1.6-3.8,2.3c-0.1,0-0.2,0.1-0.2,0.1c-4,2.4-4.4,8.2-0.8,11.1c0.1,0.1,0.3,0.2,0.4,0.3
		c9.5,6.6,13,16.8,9.6,28.4c-2.8,9.4-8,17.3-16.2,22.9c-1.1,0.7-2.3,1.4-3.5,1.9c-3,1.3-4.1,2.8-4,6.1c0.1,2.4,1,4.3,3,5.8
		c5.2,3.6,9.1,8.3,10.5,14.6c1.1,4.8,0.6,9.5-1,14.2c-2.5,7-6.7,12.9-11.8,18.2c-2.4,2.5-8.8,6.6-13.9,9.4c-2.8,1.5-11.4,4.3-14,5.1
		c-8.4,2.6-16.6,4.9-24.7,7c-27.4,7-53,11-76.3,13.1c-72.9,6.4-122.4-6.6-130.9-8.7c-2.5-0.6-11-5-13.2-4.8c-0.3,0-2-0.2-2.8-0.5
		c-0.2-0.1-0.4-0.2-0.4-0.2l-19.4-192.8c0.1-0.1,0.2-0.2,0.4-0.3c0.3-0.2,0.5-0.5,0.8-0.7c4.1-3.5,8.2-7.1,12.2-10.6
		c0.5-0.4,0.8-0.8,1.2-1.3c0.1-0.2,0.2-0.4,0.4-0.5c6-6.7,12.3-11.9,18.5-16.1c0.1-0.1,0.3-0.2,0.4-0.3c26.1-17.2,52-15.2,62-16
		c0.6,0,1.1-0.1,1.6-0.2c18.6-1.4,43.1-5.9,60.6-9.4c12.3-2.5,21.2-4.5,22.2-4.6c7.2-0.7,15.2-1.5,23.5-2.4
		c39.8-4.1,88.1-9.1,95-9.7c5.6-0.5,11.1-1.2,16.7-1.5c9.2-0.4,19.8,4.4,24,16.3C2432.8,2031.8,2428,2046.6,2416.7,2055.4z"/>
	<path class="st21" d="M2068.4,2190.9l11.3,112.6l-516.9,52.2c-10.7-30.7-20.3-68.2-24.8-111.2L2068.4,2190.9z"/>
	<path class="st22" d="M1541.3,2113.3l514.1-51.9l13,129.5l-530.4,53.6C1533.8,2205,1533.9,2161,1541.3,2113.3z"/>
</g>
<g id="Layer_3">
</g>
</svg>
