<?xml version="1.0" encoding="utf-8"?>
<!-- Generator: Adobe Illustrator 19.0.0, SVG Export Plug-In . SVG Version: 6.00 Build 0)  -->
<svg version="1.1" xmlns="http://www.w3.org/2000/svg" xmlns:xlink="http://www.w3.org/1999/xlink" x="0px" y="0px"
	 viewBox="0 0 500 500" style="enable-background:new 0 0 500 500;" xml:space="preserve">
<style type="text/css">
	.st0{fill:#FFFFFF;}
	.st1{opacity:0.45;}
	.st2{opacity:0.4;fill:url(#SVGID_1_);}
	.st3{fill:#E3E3E3;}
	.st4{opacity:0.36;fill:#979797;}
	.st5{fill:#E2E2E2;}
	.st6{fill:#979797;}
	.st7{clip-path:url(#SVGID_3_);fill:#F2CF4D;}
	.st8{fill:#D1A424;}
	.st9{fill:#383838;}
	.st10{fill:#4C4C4C;}
	.st11{fill:url(#SVGID_6_);}
	.st12{opacity:0.33;fill:#FFFFFF;}
	.st13{font-family:'Poppins';}
	.st14{font-size:5.7406px;}
	.st15{fill:#C23780;}
	.st16{fill:#DB4D9E;}
	.st17{fill:#C9C9C9;}
	.st18{clip-path:url(#SVGID_8_);}
	.st19{fill:#727272;}
	.st20{fill:#D6D6D6;}
	.st21{clip-path:url(#SVGID_10_);fill:#A0A0A0;}
	.st22{fill:#DDDDDD;}
	.st23{fill:#286C7F;}
	.st24{fill:#4C97A8;}
	.st25{opacity:0.4;fill:url(#SVGID_11_);}
	.st26{fill:#CACACA;}
	.st27{fill:#333333;}
	.st28{display:none;}
	.st29{display:inline;}
	.st30{fill:#1D262D;}
</style>
<g id="BACKGROUND">
</g>
<g id="OBJECTS">
	<g>
		<g>
			<g>
				<g>
					<g>
						<path class="st0" d="M225.2,407.1c-52.2-8.6-97.2-42.8-119.3-91c-6.3-13.8-10.4-28.6-12.6-43.6c-0.9-6.3-10.6-3.6-9.6,2.7
							c7.9,54.9,43.7,103.6,93.8,127.4c14.3,6.8,29.4,11.6,45,14.1C228.9,417.8,231.6,408.2,225.2,407.1L225.2,407.1z"/>
					</g>
				</g>
				<g>
					<g>
						<path class="st0" d="M406.6,272.5c-7.6,52.5-40.9,98.4-88.8,121.3c-13.7,6.6-28.4,10.9-43.4,13.4c-6.3,1-3.6,10.7,2.7,9.6
							c54.8-8.9,103-45.5,125.9-96.2c6.6-14.5,11.1-29.7,13.3-45.5C417.1,268.9,407.5,266.2,406.6,272.5L406.6,272.5z"/>
					</g>
				</g>
				<g>
					<g>
						<path class="st0" d="M302.2,101.8c53.1,18.7,92.5,65,103.2,120.2c1.2,6.3,10.9,3.6,9.6-2.7C403.7,160.7,361.2,112,304.9,92.2
							C298.8,90,296.2,99.7,302.2,101.8L302.2,101.8z"/>
					</g>
				</g>
				<g>
					<g>
						<path class="st0" d="M93.4,229.2c8.6-58.6,49.6-109,106-127.9c16.3-5.5,33.4-8.2,50.6-8.3c6.4,0,6.4-10,0-10
							c-63.1,0.3-122.2,36.4-150.4,93.1C91.7,192,86.4,209,83.8,226.6C82.9,232.9,92.5,235.6,93.4,229.2L93.4,229.2z"/>
					</g>
				</g>
			</g>
			<g>
				<g>
					<g>
						<path class="st0" d="M138.2,310.8c-26-48.3-17.6-108.9,20.5-148.4c3.6-3.7-2.1-9.4-5.7-5.7c-40.6,42.1-49.4,106.5-21.7,158.1
							C133.8,319.4,140.7,315.3,138.2,310.8L138.2,310.8z"/>
					</g>
				</g>
				<g>
					<g>
						<path class="st0" d="M311.9,360.3c-47.9,27-108.7,19.9-149-17.6c-3.8-3.5-9.4,2.1-5.7,5.7c42.9,39.9,107.6,47.6,158.7,18.8
							C320.5,364.7,316.4,357.8,311.9,360.3L311.9,360.3z"/>
					</g>
				</g>
				<g>
					<g>
						<path class="st0" d="M369.1,210c14.1,42.8,4.7,90.3-25,124.2c-3.4,3.9,2.3,9.5,5.7,5.7c31.6-36,42.1-86.4,27.1-131.9
							C375.3,203,367.5,205.1,369.1,210L369.1,210z"/>
					</g>
				</g>
				<g>
					<g>
						<path class="st0" d="M187,140.5c26.3-14.8,57.4-20,87.1-14c30.1,6.1,56.7,22.8,75.6,47c3.2,4,8.8-1.6,5.7-5.7
							c-31.2-39.8-83-59-132.6-49.1c-14,2.8-27.4,7.9-39.8,14.9C178.5,136.2,182.5,143.1,187,140.5L187,140.5z"/>
					</g>
				</g>
			</g>
		</g>
		<g class="st1">
			<circle class="st0" cx="103.8" cy="79.2" r="6.2"/>
			<circle class="st0" cx="236.7" cy="56" r="9"/>
			<circle class="st0" cx="44.3" cy="210.4" r="5.3"/>
			<circle class="st0" cx="72.4" cy="342.4" r="8"/>
			<circle class="st0" cx="121.2" cy="414.2" r="2.3"/>
			<circle class="st0" cx="251.7" cy="439.3" r="6"/>
			<circle class="st0" cx="365.6" cy="451.4" r="6.1"/>
			<circle class="st0" cx="459" cy="255.8" r="6"/>
			<circle class="st0" cx="452.3" cy="131" r="3.3"/>
			<circle class="st0" cx="414.9" cy="73.7" r="4.7"/>
			<circle class="st0" cx="81.7" cy="153.4" r="1.4"/>
			<circle class="st0" cx="78.8" cy="253.1" r="1.5"/>
			<circle class="st0" cx="109.1" cy="377.3" r="0.9"/>
			<circle class="st0" cx="189.3" cy="421.3" r="1"/>
			<circle class="st0" cx="437.3" cy="274.7" r="1.7"/>
			<circle class="st0" cx="383.5" cy="118.5" r="1.5"/>
			<ellipse class="st0" cx="359.5" cy="73" rx="3.1" ry="0"/>
		</g>
	</g>
	<g>
		<linearGradient id="SVGID_1_" gradientUnits="userSpaceOnUse" x1="490.7314" y1="308.0724" x2="350.5008" y2="273.3761">
			<stop  offset="0" style="stop-color:#61ABEB;stop-opacity:0"/>
			<stop  offset="0.1022" style="stop-color:#5EA5E2;stop-opacity:0.1022"/>
			<stop  offset="0.2686" style="stop-color:#5794CA;stop-opacity:0.2686"/>
			<stop  offset="0.4785" style="stop-color:#4C79A2;stop-opacity:0.4785"/>
			<stop  offset="0.7236" style="stop-color:#3C546B;stop-opacity:0.7236"/>
			<stop  offset="0.9956" style="stop-color:#272526;stop-opacity:0.9956"/>
			<stop  offset="1" style="stop-color:#272425"/>
		</linearGradient>
		<polyline class="st2" points="270.3,382.3 311.7,382.3 496.3,464.3 499,155.7 390.9,128.5 306.3,241.7 		"/>
		<rect x="210" y="338.9" class="st3" width="80" height="35.5"/>
		<rect x="210" y="338.9" class="st4" width="80" height="19"/>
		<path class="st0" d="M389.4,344.6H110.6c-6,0-10.8-4.9-10.8-10.8V139.8c0-6,4.9-10.8,10.8-10.8h278.7c6,0,10.8,4.9,10.8,10.8
			v193.9C400.2,339.7,395.3,344.6,389.4,344.6z"/>
		<path class="st5" d="M99.8,291.5v42.2c0,6,4.9,10.8,10.8,10.8h278.7c6,0,10.8-4.9,10.8-10.8v-42.2H99.8z"/>
		<rect x="118.3" y="141.6" class="st6" width="263.4" height="170.8"/>
		<g>
			<defs>
				<rect id="SVGID_2_" x="119.2" y="141.6" width="261.6" height="169.7"/>
			</defs>
			<clipPath id="SVGID_3_">
				<use xlink:href="#SVGID_2_"  style="overflow:visible;"/>
			</clipPath>
			<rect x="119.2" y="141.6" class="st7" width="261.6" height="169.7"/>
		</g>
		<g>
			<defs>
				<polygon id="SVGID_4_" points="380.8,311.3 119.3,311.3 380.8,141.6 				"/>
			</defs>
			<use xlink:href="#SVGID_4_"  style="overflow:visible;fill:#EDBE26;"/>
			<clipPath id="SVGID_5_">
				<use xlink:href="#SVGID_4_"  style="overflow:visible;"/>
			</clipPath>
		</g>
		<circle class="st6" cx="250" cy="327.4" r="12"/>
		<circle class="st0" cx="250" cy="327.2" r="9.5"/>
		<path class="st8" d="M304.2,298.9H200.8c-6,0-10.8-4.9-10.8-10.8V185.2c0-6,4.9-10.8,10.8-10.8h103.4c6,0,10.8,4.9,10.8,10.8V288
			C315,294,310.2,298.9,304.2,298.9z"/>
		<path class="st9" d="M186.2,388.5h127.5c2.7,0,5-2.2,5-5v-9c0-2.7-2.2-5-5-5H186.2c-2.7,0-5,2.2-5,5v9
			C181.3,386.3,183.5,388.5,186.2,388.5z"/>
		<path class="st10" d="M187.6,380.7h124.8c1.3,0,2.4-1.1,2.4-2.4v-5.2c0-1.3-1.1-2.4-2.4-2.4H187.6c-1.3,0-2.4,1.1-2.4,2.4v5.2
			C185.2,379.6,186.2,380.7,187.6,380.7z"/>
		<path class="st0" d="M301.7,297.4H198.3c-6,0-10.8-4.9-10.8-10.8V183.7c0-6,4.9-10.8,10.8-10.8h103.4c6,0,10.8,4.9,10.8,10.8
			v102.8C312.5,292.5,307.7,297.4,301.7,297.4z"/>
		<g>
			<linearGradient id="SVGID_6_" gradientUnits="userSpaceOnUse" x1="250" y1="283.1733" x2="250" y2="266.9316">
				<stop  offset="0" style="stop-color:#9E005D"/>
				<stop  offset="0.9946" style="stop-color:#D4145A"/>
			</linearGradient>
			<path class="st11" d="M281.5,281.5h-63c-3.2,0-5.7-2.6-5.7-5.7v-2.4c0-3.2,2.6-5.7,5.7-5.7h63c3.2,0,5.7,2.6,5.7,5.7v2.4
				C287.3,278.9,284.7,281.5,281.5,281.5z"/>
			<path class="st12" d="M260.5,275c8.2-0.4,16.4-0.6,24.4-2.6c0.8-0.2,1.6-0.4,2.3-0.7c-0.7-2.4-2.9-4.2-5.5-4.2h-63
				c-2.6,0-4.8,1.8-5.5,4.2C228.2,277,244.8,275.7,260.5,275z"/>
			<text transform="matrix(1 0 0 1 227.845 276.6035)" class="st0 st13 st14">Register Now</text>
		</g>
		<g>
			<circle class="st15" cx="250" cy="203.3" r="20.6"/>
			<circle class="st16" cx="250" cy="203.3" r="17.9"/>
			<g>
				<path class="st17" d="M284.9,240.9h-69.7c-3,0-5.5-2.5-5.5-5.5l0,0c0-3,2.5-5.5,5.5-5.5h69.7c3,0,5.5,2.5,5.5,5.5l0,0
					C290.4,238.4,287.9,240.9,284.9,240.9z"/>
				<path class="st17" d="M284.9,261.7h-69.7c-3,0-5.5-2.5-5.5-5.5l0,0c0-3,2.5-5.5,5.5-5.5h69.7c3,0,5.5,2.5,5.5,5.5l0,0
					C290.4,259.2,287.9,261.7,284.9,261.7z"/>
				<g>
					<defs>
						<circle id="SVGID_7_" cx="250" cy="203.3" r="20.6"/>
					</defs>
					<clipPath id="SVGID_8_">
						<use xlink:href="#SVGID_7_"  style="overflow:visible;"/>
					</clipPath>
					<g class="st18">
						<path class="st19" d="M250.2,187c0,0,7.2-1.6,8.3,4.5c1.1,6.1,9.4,7.2,6.2,13c-3.2,5.8,6.4,7.2-4.3,9.4s-9.2-2.7-9.2-2.7
							L250.2,187z"/>
						<path class="st19" d="M250.5,187c0,0-7.2-1.6-8.3,4.5c-1.1,6.1-9.4,7.2-6.2,13c3.2,5.8-6.4,7.2,4.3,9.4
							c10.6,2.2,9.2-2.7,9.2-2.7L250.5,187z"/>
						<path class="st0" d="M257,210.2c-5.8,0-4.3-6-4.3-6l-3-0.2l0,0h0l0,0l0,0l-3,0.2c0,0,1.5,6-4.3,6c-5.8,0-7.6,2.6-7.6,5.8
							c0,3.2,2.8,11.1,14.9,11.1l0,0l0,0h0l0,0c12.1,0,14.9-7.9,14.9-11.1C264.7,212.8,262.8,210.2,257,210.2z"/>
						<path class="st20" d="M246.9,206.5c0.3,0.2,0.6,0.3,0.9,0.4c1.5,0.5,3.3,0.6,4.8,0.1c-0.3-1.5,0.1-2.9,0.1-2.9l-3-0.2v0l0,0h0
							v0l-3,0.2C246.7,204.2,247,205.3,246.9,206.5z"/>
						<path class="st0" d="M243.6,196.3c0,4.5,2.8,9.6,6.3,9.6c3.5,0,6.3-5,6.3-9.6c0-4.5-1.9-8.2-6.3-8.2
							C245.8,188.1,243.6,191.8,243.6,196.3z"/>
						<path class="st19" d="M256.5,195.3c0,0-4.4-2.6-6.5-6.1c0,0-4.4,5.4-7.2,5.7c0,0,0.6-7.5,7.5-7.3
							C257.3,187.8,256.5,195.3,256.5,195.3z"/>
						<g>
							<defs>
								<path id="SVGID_9_" d="M257,210.2c-5.8,0-4.3-6-4.3-6l-3-0.2l0,0h0l0,0l0,0l-3,0.2c0,0,1.5,6-4.3,6c-5.8,0-7.6,2.6-7.6,5.8
									c0,3.2,2.8,11.1,14.9,11.1l0,0l0,0h0l0,0c12.1,0,14.9-7.9,14.9-11.1C264.7,212.8,262.8,210.2,257,210.2z"/>
							</defs>
							<clipPath id="SVGID_10_">
								<use xlink:href="#SVGID_9_"  style="overflow:visible;"/>
							</clipPath>
							<path class="st21" d="M235.2,210.8c0,0,15,9.6,29.9,0c0,0,4,10.9-1.6,15.2c-5.6,4.2-26.2,4.4-28.7-1.4
								C232.4,218.9,235.2,210.8,235.2,210.8z"/>
						</g>
					</g>
				</g>
				<path class="st22" d="M284.9,240h-69.7c-3,0-5.5-2.5-5.5-5.5l0,0c0-3,2.5-5.5,5.5-5.5h69.7c3,0,5.5,2.5,5.5,5.5l0,0
					C290.4,237.5,287.9,240,284.9,240z"/>
				<path class="st19" d="M278.4,235.7h-56.8c-0.7,0-1.4-0.6-1.4-1.4l0,0c0-0.7,0.6-1.4,1.4-1.4h56.8c0.7,0,1.4,0.6,1.4,1.4l0,0
					C279.8,235.1,279.2,235.7,278.4,235.7z"/>
				<path class="st22" d="M284.9,260.8h-69.7c-3,0-5.5-2.5-5.5-5.5l0,0c0-3,2.5-5.5,5.5-5.5h69.7c3,0,5.5,2.5,5.5,5.5l0,0
					C290.4,258.3,287.9,260.8,284.9,260.8z"/>
				<g>
					<circle class="st19" cx="221.4" cy="255.7" r="1.6"/>
					<circle class="st19" cx="227.5" cy="255.7" r="1.6"/>
					<circle class="st19" cx="233.5" cy="255.7" r="1.6"/>
					<circle class="st19" cx="239.6" cy="255.7" r="1.6"/>
					<circle class="st19" cx="245.7" cy="255.7" r="1.6"/>
					<circle class="st19" cx="251.8" cy="255.7" r="1.6"/>
				</g>
			</g>
		</g>
		<rect x="119.3" y="141.5" class="st23" width="261.8" height="15"/>
		<path class="st24" d="M209.9,153h-82.2c-1.9,0-3.5-1.6-3.5-3.5v-0.9c0-1.9,1.6-3.5,3.5-3.5h82.2c1.9,0,3.5,1.6,3.5,3.5v0.9
			C213.4,151.4,211.8,153,209.9,153z"/>
		<rect x="215.6" y="145.2" class="st0" width="130.8" height="7.8"/>
		<circle class="st0" cx="352.9" cy="149.2" r="3.2"/>
		<circle class="st0" cx="362" cy="149.2" r="3.2"/>
		<circle class="st0" cx="371" cy="149.2" r="3.2"/>
	</g>
	<g>
		<linearGradient id="SVGID_11_" gradientUnits="userSpaceOnUse" x1="464.7568" y1="384.7041" x2="406.6428" y2="370.3253">
			<stop  offset="0" style="stop-color:#61ABEB;stop-opacity:0"/>
			<stop  offset="0.1022" style="stop-color:#5EA5E2;stop-opacity:0.1022"/>
			<stop  offset="0.2686" style="stop-color:#5794CA;stop-opacity:0.2686"/>
			<stop  offset="0.4785" style="stop-color:#4C79A2;stop-opacity:0.4785"/>
			<stop  offset="0.7236" style="stop-color:#3C546B;stop-opacity:0.7236"/>
			<stop  offset="0.9956" style="stop-color:#272526;stop-opacity:0.9956"/>
			<stop  offset="1" style="stop-color:#272425"/>
		</linearGradient>
		<polyline class="st25" points="393,406.5 469.7,439 469.5,333.5 398.2,315.2 393,406.5 		"/>
		<g>
			<g>
				<path class="st26" d="M425.7,375.6c0,0,2.8-15.6-5.9-32.7c-2.9-5.7-5.2-10-6.9-13.1c3.3,17.5,0,35.9-14.1,44.5
					c-21.4,12.9-42.9,8.9-63.3-1.6c5.3,10.9,50.8,26.8,50.8,26.8l5.1,8.1l39.3-24L425.7,375.6z"/>
				<path class="st0" d="M398.9,374.1c14-8.5,17.3-27,14.1-44.5c-3.5-6.4-4.8-8.3-4.8-8.3s-13.6-14.6-21.2-1.4c0,0-12-6.8-16.7,2.2
					c0,0-7.8-4.3-14.7,4.1L344,308.5c-3.1-4.9-9.7-6.3-14.6-3.2c-4.9,3.2-6.4,9.8-3.2,14.7l27.7,42.4c0,0-18.6-2.7-18.9,8.1
					c0,0.7,0.2,1.3,0.5,2.1C356,383,377.4,387.1,398.9,374.1z"/>
			</g>
			<g>
				<g>
					<path class="st27" d="M426.4,375.9c2.6-15.4-3.9-29.8-10.9-43c-3.7-7-7.3-14.5-14.8-18c-6.2-2.9-11.5-1.1-15.2,4.6
						c0.5-0.1,1-0.3,1.5-0.4c-6.1-3.3-13.9-3.7-17.9,2.9c0.5-0.1,1-0.3,1.5-0.4c-5.9-3.2-12.2-0.7-16.4,4c0.6,0.1,1.2,0.2,1.8,0.2
						c-3.6-5.6-7.1-11.4-10.9-16.9c-4.9-7.3-15.7-8.8-20.6-0.4c-3.5,6.1-0.2,11.4,3.1,16.4c4.7,7.2,9.3,14.3,14,21.5
						c3.6,5.5,7.2,11.1,10.8,16.6c0.4-0.6,0.8-1.1,1.3-1.7c-5-0.7-11-0.7-15.5,1.7c-5.8,3.1-5.9,9.3-1.4,13.6
						c5.7,5.5,13.5,9.1,20.6,12.4c7.5,3.5,15.1,6.6,22.8,9.5c1.6,0.6,3.9,1,5.3,1.9c-1-0.7-0.2,0,0.1,0.6c0.4,0.9,1.1,1.7,1.6,2.5
						c0.9,1.5,1.9,3,2.8,4.5c0.3,0.5,1,0.7,1.5,0.4c13.1-8,26.2-16,39.3-24c0.5-0.3,0.7-1,0.4-1.5c-1.7-2.6-3.4-5.2-5.1-7.8
						c-0.8-1.2-2.7-0.1-1.9,1.1c1.7,2.6,3.4,5.2,5.1,7.8c0.1-0.5,0.3-1,0.4-1.5c-13.1,8-26.2,16-39.3,24c0.5,0.1,1,0.3,1.5,0.4
						c-1.5-2.4-3-6.2-5.1-8.1c-0.9-0.9-2.3-1.1-3.5-1.6c-8.1-2.9-16-6.2-23.8-9.7c-7.1-3.3-17.7-7.2-22.5-13.9
						c-6.9-9.6,11-10.8,16.1-10.1c0.9,0.1,1.9-0.7,1.3-1.7c-8.3-12.7-16.6-25.4-24.9-38.1c-0.9-1.4-2-2.8-2.8-4.3
						c-6.2-10.9,8.8-19.9,16-10c4.1,5.6,7.5,11.7,11.2,17.5c0.4,0.6,1.3,0.8,1.8,0.2c3.5-3.8,8.7-6.3,13.7-3.6
						c0.5,0.3,1.2,0.1,1.5-0.4c3.3-5.5,9.8-4.8,14.8-2.1c0.6,0.3,1.2,0.1,1.5-0.4c5.9-9.2,15.9-3.4,20.7,3.7
						c3.5,5.2,6.2,11.1,9,16.6c5.3,10.3,9.1,22.6,7.1,34.3C424,376.7,426.1,377.3,426.4,375.9z"/>
				</g>
			</g>
			<g>
				<g>
					<path class="st27" d="M385.9,320.6c4.6,7.7,9.2,15.7,12.4,24.2c0.5,1.3,2.7,0.8,2.2-0.6c-3.3-8.6-7.9-16.8-12.6-24.7
						C387.1,318.2,385.1,319.3,385.9,320.6L385.9,320.6z"/>
				</g>
			</g>
			<g>
				<g>
					<path class="st27" d="M369.4,323.3c4.6,7.7,9.2,15.7,12.4,24.2c0.5,1.3,2.7,0.8,2.2-0.6c-3.3-8.6-7.9-16.8-12.6-24.7
						C370.6,320.9,368.7,322,369.4,323.3L369.4,323.3z"/>
				</g>
			</g>
			<g>
				<g>
					<path class="st27" d="M354.3,327.1c4.6,7.7,9.2,15.7,12.4,24.2c0.5,1.3,2.7,0.8,2.2-0.6c-3.3-8.6-7.9-16.8-12.6-24.7
						C355.5,324.8,353.6,325.9,354.3,327.1L354.3,327.1z"/>
				</g>
			</g>
		</g>
	</g>
</g>
<g id="DESIGNED_BY_FREEPIK" class="st28">
	<g class="st29">
		<g id="XMLID_319_">
			<g id="XMLID_338_">
				<path id="XMLID_346_" class="st30" d="M260.1,465.5c-0.4,0.4-0.8,0.9-1.1,1.5l-0.5-0.2c-0.1-0.3-0.3-0.5-0.7-0.5
					c-0.3,0-0.6,0.3-0.5,0.7c0,0.3,0.3,0.6,0.7,0.5c0.1,0,0.1,0,0.2-0.1l0.5,0.2c-0.3,0.6-0.4,1.1-0.5,1.7l0.7,0.1
					c0.2-1.3,0.8-2.5,1.8-3.5L260.1,465.5z"/>
				<path id="XMLID_345_" class="st30" d="M265.6,463.2c-0.2,0-0.3,0-0.5,0l-0.1-0.6c0.2-0.1,0.3-0.4,0.3-0.6c0-0.4-0.4-0.7-0.8-0.6
					c-0.4,0-0.7,0.4-0.6,0.8c0,0.3,0.2,0.5,0.4,0.6l0.1,0.6c-0.7,0.1-1.4,0.3-2.1,0.6l0.3,0.7c0.9-0.4,1.9-0.7,3-0.7
					c0.5,0,1,0.1,1.5,0.2l0.2-0.7C266.7,463.2,266.1,463.2,265.6,463.2z"/>
				<path id="XMLID_344_" class="st30" d="M272.2,465.7c0.3,0,0.6-0.3,0.5-0.7c0-0.3-0.3-0.6-0.7-0.5c-0.3,0-0.5,0.3-0.5,0.6
					l-0.4,0.4c-0.4-0.4-0.9-0.8-1.4-1.1l-0.4,0.6c1.1,0.7,2,1.7,2.6,2.9l0.7-0.3c-0.3-0.6-0.6-1.1-0.9-1.5l0.4-0.4
					C272.1,465.7,272.1,465.7,272.2,465.7z"/>
				<path id="XMLID_343_" class="st30" d="M265,473.4c-0.4,0-0.8,0-1.2,0c-0.9,0-1.7-0.1-2.5-0.2c-0.4-0.1-0.8-0.2-1.3-0.3
					c1,1.9,3.1,3.1,5.4,3.1c2.9,0,5.3-1.9,5.9-4.5c-0.7,0.4-1.5,0.8-2.5,1.1C267.8,473,266.5,473.3,265,473.4z"/>
				<path id="XMLID_339_" class="st30" d="M265.6,464.7c-3.4,0-6.1,2.7-6.1,5.9c0,0.4,0,0.8,0.1,1.3c0.7,0.5,2.7,0.9,5.3,0.7
					c2.9-0.2,5.3-1,6.7-2.2c0-0.2,0-0.4,0-0.6C271.2,466.9,268.7,464.7,265.6,464.7z M263.4,471.2c-1,0-1.8-0.8-1.8-1.8
					c0-1,0.8-1.8,1.8-1.8c1,0,1.8,0.8,1.8,1.8C265.3,470.4,264.5,471.2,263.4,471.2z M268.2,470.3c-0.8,0-1.4-0.6-1.4-1.4
					s0.6-1.4,1.4-1.4c0.8,0,1.4,0.6,1.4,1.4S268.9,470.3,268.2,470.3z"/>
			</g>
			<path id="XMLID_336_" class="st30" d="M281.6,466.5c-0.3-0.1-0.8-0.3-1.4-0.2c-0.6,0.1-0.8,0.3-0.8,1v0.9h2.2v1.7h-2.2v5.5h-1.9
				v-5.5h-1.3v-1.7h1.3v-0.9c0-1.7,0.9-2.8,2.6-2.8c0.6,0,1.2,0.1,1.6,0.3L281.6,466.5z"/>
			<path id="XMLID_334_" class="st30" d="M286.3,469.9c-0.2,0-0.4,0-0.5,0c-0.9,0-1.5,0.5-1.5,1.6v3.9h-1.9v-7.2h1.9v0.8
				c0.5-0.7,1.1-1,2-1c0.4,0,0.8,0.1,1.1,0.3L286.3,469.9z"/>
			<path id="XMLID_331_" class="st30" d="M294,471.8c0,0.2,0,0.5,0,0.7h-5.1c0.2,1,0.9,1.5,1.8,1.5c0.6,0,1.3-0.3,1.8-0.7l1.1,1.2
				c-0.8,0.7-1.9,1.1-3.1,1.1c-2.2,0-3.7-1.5-3.7-3.8c0-2.3,1.5-3.8,3.6-3.8C292.5,468,294,469.5,294,471.8z M288.9,471.1h3.2
				c-0.2-0.9-0.7-1.4-1.6-1.4C289.6,469.7,289,470.2,288.9,471.1z"/>
			<path id="XMLID_328_" class="st30" d="M301.6,471.8c0,0.2,0,0.5,0,0.7h-5.1c0.2,1,0.9,1.5,1.8,1.5c0.6,0,1.3-0.3,1.8-0.7l1.1,1.2
				c-0.8,0.7-1.9,1.1-3.1,1.1c-2.2,0-3.7-1.5-3.7-3.8c0-2.3,1.5-3.8,3.6-3.8C300.2,468,301.6,469.5,301.6,471.8z M296.5,471.1h3.2
				c-0.2-0.9-0.7-1.4-1.6-1.4C297.2,469.7,296.7,470.2,296.5,471.1z"/>
			<path id="XMLID_325_" class="st30" d="M310,471.8c0,2.2-1.5,3.8-3.5,3.8c-1,0-1.6-0.4-2.1-0.9v3.7h-1.9v-10.1h1.9v0.8
				c0.5-0.6,1.2-1,2.1-1C308.5,468,310,469.6,310,471.8z M304.3,471.8c0,1.1,0.7,2,1.8,2c1.1,0,1.9-0.9,1.9-2c0-1.1-0.7-2-1.9-2
				C305,469.8,304.3,470.6,304.3,471.8z"/>
			<path id="XMLID_322_" class="st30" d="M313.1,465.8c0,0.7-0.5,1.2-1.2,1.2c-0.7,0-1.2-0.5-1.2-1.2c0-0.7,0.5-1.2,1.2-1.2
				C312.5,464.6,313.1,465.1,313.1,465.8z M312.8,475.4h-1.9v-7.2h1.9V475.4z"/>
			<path id="XMLID_320_" class="st30" d="M316,470.7l2.7-2.6h2.4l-3.5,3.4l3.5,3.8h-2.4l-2.7-2.9v2.9h-1.9v-10.7h1.9V470.7z"/>
		</g>
		<g>
			<path class="st30" d="M184.4,475.3v-1.1c-0.5,0.7-1.4,1.2-2.4,1.2c-1.8,0-3.1-1.4-3.1-3.7c0-2.3,1.3-3.7,3.1-3.7
				c1,0,1.8,0.5,2.4,1.2v-3.8h1.1v9.8H184.4z M184.4,473.4v-3.2c-0.4-0.6-1.2-1.1-2.1-1.1c-1.4,0-2.3,1.2-2.3,2.7
				c0,1.6,0.8,2.7,2.3,2.7C183.2,474.5,184,474,184.4,473.4z"/>
			<path class="st30" d="M186.9,471.7c0-2.1,1.5-3.7,3.5-3.7c2.1,0,3.4,1.7,3.4,3.8v0.3h-5.7c0.1,1.3,1,2.4,2.5,2.4
				c0.8,0,1.6-0.3,2.2-0.9l0.5,0.7c-0.7,0.7-1.7,1.1-2.8,1.1C188.4,475.5,186.9,474,186.9,471.7z M190.4,468.9
				c-1.5,0-2.3,1.3-2.3,2.4h4.6C192.7,470.3,192,468.9,190.4,468.9z"/>
			<path class="st30" d="M194.6,474.4l0.6-0.8c0.5,0.5,1.4,1,2.3,1c1.1,0,1.7-0.5,1.7-1.2c0-1.7-4.4-0.7-4.4-3.3c0-1.1,1-2,2.6-2
				c1.2,0,2.1,0.5,2.6,1l-0.5,0.8c-0.4-0.5-1.2-0.9-2.1-0.9c-1,0-1.6,0.5-1.6,1.1c0,1.6,4.4,0.5,4.4,3.3c0,1.2-1,2.1-2.8,2.1
				C196.3,475.5,195.3,475.1,194.6,474.4z"/>
			<path class="st30" d="M201.5,466.5c0-0.4,0.3-0.7,0.7-0.7c0.4,0,0.7,0.3,0.7,0.7c0,0.4-0.3,0.7-0.7,0.7
				C201.8,467.2,201.5,466.9,201.5,466.5z M201.7,475.3v-7.1h1.1v7.1H201.7z"/>
			<path class="st30" d="M204.6,477.1l0.6-0.8c0.6,0.7,1.3,1,2.3,1c1.2,0,2.3-0.6,2.3-2.1v-1c-0.5,0.7-1.4,1.3-2.4,1.3
				c-1.8,0-3.1-1.4-3.1-3.7c0-2.3,1.3-3.7,3.1-3.7c1,0,1.8,0.5,2.4,1.2v-1.1h1.1v6.9c0,2.3-1.6,3.1-3.4,3.1
				C206.2,478.2,205.4,477.9,204.6,477.1z M209.7,473.3v-3.1c-0.4-0.6-1.2-1.1-2.1-1.1c-1.4,0-2.3,1.1-2.3,2.7
				c0,1.6,0.8,2.7,2.3,2.7C208.5,474.4,209.3,473.9,209.7,473.3z"/>
			<path class="st30" d="M217.4,475.3v-4.6c0-1.2-0.6-1.6-1.6-1.6c-0.9,0-1.7,0.5-2.1,1.1v5.2h-1.1v-7.1h1.1v1
				c0.5-0.6,1.5-1.2,2.5-1.2c1.5,0,2.3,0.7,2.3,2.3v5H217.4z"/>
			<path class="st30" d="M219.9,471.7c0-2.1,1.5-3.7,3.5-3.7c2.1,0,3.4,1.7,3.4,3.8v0.3h-5.7c0.1,1.3,1,2.4,2.5,2.4
				c0.8,0,1.6-0.3,2.2-0.9l0.5,0.7c-0.7,0.7-1.7,1.1-2.8,1.1C221.4,475.5,219.9,474,219.9,471.7z M223.4,468.9
				c-1.5,0-2.3,1.3-2.3,2.4h4.6C225.7,470.3,225,468.9,223.4,468.9z"/>
			<path class="st30" d="M233.4,475.3v-1.1c-0.5,0.7-1.4,1.2-2.4,1.2c-1.8,0-3.1-1.4-3.1-3.7c0-2.3,1.3-3.7,3.1-3.7
				c1,0,1.8,0.5,2.4,1.2v-3.8h1.1v9.8H233.4z M233.4,473.4v-3.2c-0.4-0.6-1.2-1.1-2.1-1.1c-1.4,0-2.3,1.2-2.3,2.7
				c0,1.6,0.8,2.7,2.3,2.7C232.1,474.5,233,474,233.4,473.4z"/>
			<path class="st30" d="M239.7,475.3v-9.8h1.1v3.8c0.6-0.8,1.4-1.2,2.4-1.2c1.8,0,3.1,1.5,3.1,3.7c0,2.3-1.3,3.7-3.1,3.7
				c-1,0-1.9-0.5-2.4-1.2v1.1H239.7z M242.9,474.5c1.4,0,2.3-1.2,2.3-2.7c0-1.6-0.8-2.7-2.3-2.7c-0.9,0-1.7,0.5-2.1,1.1v3.2
				C241.2,474,242,474.5,242.9,474.5z"/>
			<path class="st30" d="M247.5,477.1c0.2,0.1,0.4,0.1,0.6,0.1c0.5,0,0.8-0.2,1.1-0.7l0.5-1.1l-3-7.1h1.2l2.4,5.8l2.3-5.8h1.2
				l-3.5,8.5c-0.4,1-1.1,1.4-2.1,1.4c-0.2,0-0.6,0-0.8-0.1L247.5,477.1z"/>
		</g>
	</g>
</g>
</svg>
