<?xml version="1.0" encoding="utf-8"?>
<!-- Generator: Adobe Illustrator 23.1.0, SVG Export Plug-In . SVG Version: 6.00 Build 0)  -->
<svg version="1.1" id="Layer_1" xmlns="http://www.w3.org/2000/svg" xmlns:xlink="http://www.w3.org/1999/xlink" x="0px" y="0px"
	 viewBox="0 0 1366 768" style="enable-background:new 0 0 1366 768;" xml:space="preserve">
<style type="text/css">
	.st0{fill:#45B39D;stroke:#000000;stroke-miterlimit:10;}
	.st1{fill:#FFFFFF;stroke:#000000;stroke-miterlimit:10;}
</style>
<path class="st0" d="M133.5,0.5c36.75,42.71,96.91,100.62,185,139.21c137.1,60.06,270.57,34.08,420,4.01
	c494.27-99.47,504.19-103.57,633-143.22c1.99-0.61,0.09,1.2,0,0"/>
<path class="st0" d="M0,537.5c71.84,8.81,169.61,24.61,283,55c246.15,65.98,451.45,170.05,449.5,175c-0.38,0.97-9.5,0.03-9.5,0
	c0-0.01,0.96-0.01,4,0c23.17-0.01-46.33,0.05-69.5,0c-67.87-0.14-65.16-0.63-78.5,0c-39.28,1.85-41.22,5.12-67.5,4
	c-1.35-0.06-18.23-1.02-51.99-2.96c-3.78-0.22-12.7-0.74-24.51-1.04c-21.13-0.55-36.4-0.19-46,0c0,0,0,0-167,0c-74,0-148,0-222,0"/>
<path class="st1" d="M499,103"/>
</svg>
