<?xml version="1.0" encoding="utf-8"?>
<!-- Generator: Adobe Illustrator 23.1.0, SVG Export Plug-In . SVG Version: 6.00 Build 0)  -->
<svg version="1.1" id="Layer_1" xmlns="http://www.w3.org/2000/svg" xmlns:xlink="http://www.w3.org/1999/xlink" x="0px" y="0px"
	 viewBox="0 0 1920 1080" style="enable-background:new 0 0 1920 1080;" xml:space="preserve">
<style type="text/css">
	.st0{fill:#9B59B6;}
	.st1{fill:#FFFFFF;}
	.st2{fill:#F8C471;}
	.st3{fill:#F2F3F4;}
</style>
<image style="overflow:visible;enable-background:new    ;" width="2328" height="3970" xlink:href="kids.jpg"  transform="matrix(0.2691 0 0 0.1584 613 143)">
</image>
<path class="st0" d="M759,541c-9-6.9-168.3,110.4-145,214.8c0.2,1,0.4,1.7,0.5,2.3C636.9,847,749.9,865.2,811.6,875
	c2.7,0.4,4.9,0.8,6.4,1c127,18.7,243.3-35.7,314-104c59.6-57.6,100.5-138.2,88-150c-8.8-8.3-47.2,14.2-57,20
	c-9.9,5.8-23.5,13.8-35,27c-27,31-10.9,54.5-28,78c-17.7,24.3-80.7,24.9-206,25c-40.4,0-46,0-46,0c-48.4-0.4-58.4-1.7-68.4-1
	c-6,0.4-5,0.8-8.6,1c-17.7,0.9-22.9-6.7-36-7c-15.6-0.3-25.8,10.1-28,7c-1.8-2.4,5.2-8.4,7-21c0.7-4.9,0.2-8,0-9
	c-0.8-4.5-2.4-5.9-3-9c-0.9-5.1,3.4-8.8,4-13c2.7-18.1,16.2-26.4,12-34c-1.3-2.3-4.1-3.7-10-6c-7.2-2.8-10.3-1.4-15-4l0,0
	c0,0-5.9-2.2-9-11c-4-11.3,28.1-54.2,47-86C749,563.8,761.5,542.9,759,541z"/>
<path class="st1" d="M658,502"/>
<path class="st0" d="M552,695"/>
<path class="st0" d="M591,594"/>
<path class="st0" d="M596,796"/>
<path class="st0" d="M613,806"/>
<path class="st2" d="M622.1,685.2C655.2,621.8,692.4,585,721,563c18-13.8,29-19.2,44-37c12.8-15.2,49.1-70.1,38-123
	c-0.7-3.4-1.5-6.4-2.7-9.3c-11.4-29-29.3-45.9-41.1-57.5c-17.7-17.5-4.9-11.1-61.2-95.2c-15.8-23.6-23.2-33.6-22-49
	c1.4-18.2,14.1-36.1,32-44c23.4-10.3,53.7-2.9,57,9c3.4,12.2-24,21.5-24.6,44.1c-0.3,12.6,9.1,20.6,16.6,31.9
	c32.2,49.1,43,48.4,64,84c11.7,19.8,22.5,44.1,50.8,62.9c0.1,0.1,0.2,0.1,0.2,0.1c0.5-0.1,14.5-1.3,21-5
	c13.5-7.7,1.8-30.8,13.4-53.3c12.3-23.9,42.7-31.5,52.6-33.7c12.2-2.8,24.8-2.2,50-1c20.8,1,31.2,1.4,42,5c12.9,4.2,34,11.6,42,29
	c8.5,18.4-7.3,39.1,4,50c6.1,5.9,14.2,3.5,16,9c2.2,6.6-6.7,17.7-17,22c-6.8,2.8-10.1,1.8-23.3,5.3c-2.8,0.7-5.9,1.9-9.7,3.7
	c-1.6,0.8-25.8,13.1-24,24c1.3,8.2,16.8,11.6,25,14c20.2,5.8,41.5,24.8,84,63c52.5,47.2,81.1,73.7,78,105c-0.5,5.3-1.9,9.9-4.6,19.3
	c-7.2,24.9-17.8,43.9-27.4,58.8c-32.4,50.2-61.5,66.8-56,76.9c2.9,5.3,14.6,4.6,38,3c27.8-1.9,46.6-3.2,58-9
	c32.8-16.8,31.7-85.8,13-326c-1.3-16.2-2.3-29.5-3-38c-10.2-26.1-19.5-63.5-4.6-99c4.1-9.7,10.1-13,14.6-26c7.2-20.5,3.1-35.8,0-68
	c-4.1-42.9,0.2-45.2-3-54c-16.8-46.8-154.9-28.8-307-29c-205.7-0.3-305.7-27.4-332,23c-17,32.6-22.1,134.2-21,149
	c0.1,1.4,0.6,7.4-1,15c-2,9-5.9,15.1-7,17c-8.9,15.1-2,40.3,1,63c3.6,27.3,0.1,39.9,0,61C583.8,486.2,591.3,550,622.1,685.2z"/>
<path class="st0" d="M754,342"/>
<path class="st3" d="M539,692"/>
<path class="st3" d="M1125,437"/>
<path class="st3" d="M1138,324"/>
<path class="st3" d="M1123,363"/>
<path class="st3" d="M1049,242"/>
<path class="st3" d="M800,225"/>
<path class="st3" d="M712,330"/>
<path class="st3" d="M603,409"/>
<path class="st3" d="M1310,434"/>
<path class="st0" d="M1434,686"/>
<path class="st3" d="M1321,293"/>
<path class="st3" d="M1367,373"/>
<path class="st3" d="M728,377"/>
</svg>
