<?xml version="1.0" encoding="utf-8"?>
<!-- Generator: Adobe Illustrator 23.1.0, SVG Export Plug-In . SVG Version: 6.00 Build 0)  -->
<svg version="1.1" id="Layer_1" xmlns="http://www.w3.org/2000/svg" xmlns:xlink="http://www.w3.org/1999/xlink" x="0px" y="0px"
	 viewBox="0 0 1920 1080" style="enable-background:new 0 0 1920 1080;" xml:space="preserve">
<style type="text/css">
	.st0{fill:#F0F3F4;}
	.st1{fill:#F0F3F4;stroke:#000000;stroke-miterlimit:10;}
</style>
<g>
	<path class="st0" d="M851.7,340.5c-15.5,0-28.2-12.6-28.2-28.2V58.7c0-15.5,12.6-28.2,28.2-28.2h253.6c15.5,0,28.2,12.6,28.2,28.2
		v253.6c0,15.5-12.6,28.2-28.2,28.2H851.7z"/>
	<path d="M1105.3,31c15.3,0,27.7,12.4,27.7,27.7v253.6c0,15.3-12.4,27.7-27.7,27.7H851.7c-15.3,0-27.7-12.4-27.7-27.7V58.7
		c0-15.3,12.4-27.7,27.7-27.7H1105.3 M1105.3,30H851.7C835.8,30,823,42.8,823,58.7v253.6c0,15.8,12.8,28.7,28.7,28.7h253.6
		c15.8,0,28.7-12.8,28.7-28.7V58.7C1134,42.8,1121.2,30,1105.3,30L1105.3,30z"/>
</g>
<image style="overflow:visible;" width="153" height="74" xlink:href="woodland.jpg"  transform="matrix(1.5229 0 0 1.8243 853 63)">
</image>
<g>
	<path class="st0" d="M147.4,677.5c-15.4,0-27.9-12.5-27.9-27.9V395.4c0-15.4,12.5-27.9,27.9-27.9h254.2c15.4,0,27.9,12.5,27.9,27.9
		v254.2c0,15.4-12.5,27.9-27.9,27.9H147.4z"/>
	<path d="M401.6,368c15.1,0,27.4,12.3,27.4,27.4v254.2c0,15.1-12.3,27.4-27.4,27.4H147.4c-15.1,0-27.4-12.3-27.4-27.4V395.4
		c0-15.1,12.3-27.4,27.4-27.4H401.6 M401.6,367H147.4c-15.7,0-28.4,12.7-28.4,28.4v254.2c0,15.7,12.7,28.4,28.4,28.4h254.2
		c15.7,0,28.4-12.7,28.4-28.4V395.4C430,379.7,417.3,367,401.6,367L401.6,367z"/>
</g>
<g>
	<path class="st0" d="M146,334.5c-15.2,0-27.5-12.4-27.5-27.5V52c0-15.2,12.4-27.5,27.5-27.5H401c15.2,0,27.5,12.4,27.5,27.5V307
		c0,15.2-12.4,27.5-27.5,27.5H146z"/>
	<path d="M401,25c14.9,0,27,12.1,27,27V307c0,14.9-12.1,27-27,27H146c-14.9,0-27-12.1-27-27V52c0-14.9,12.1-27,27-27H401 M401,24
		H146c-15.5,0-28,12.6-28,28V307c0,15.5,12.6,28,28,28H401c15.5,0,28-12.6,28-28V52C429,36.6,416.4,24,401,24L401,24z"/>
</g>
<image style="overflow:visible;" width="93" height="109" xlink:href="skult.jpg"  transform="matrix(2.043 0 0 1.4862 179 56)">
</image>
<path class="st1" d="M1176.6,703.5H921.4c-15.4,0-27.9-12.5-27.9-27.9V420.4c0-15.4,12.5-27.9,27.9-27.9h255.2
	c15.4,0,27.9,12.5,27.9,27.9v255.2C1204.5,691,1192,703.5,1176.6,703.5z"/>
<image style="overflow:visible;" width="183" height="81" xlink:href="pepeJens.jpg"  transform="matrix(1.3388 0 0 1.2963 926 434)">
</image>
<image style="overflow:visible;" width="112" height="89" xlink:href="kook.jpg"  transform="matrix(1.6339 0 0 1.5955 182 416)">
</image>
<path class="st1" d="M753.1,341.5H498.9c-15.7,0-28.4-12.7-28.4-28.4V58.9c0-15.7,12.7-28.4,28.4-28.4h254.2
	c15.7,0,28.4,12.7,28.4,28.4v254.2C781.5,328.8,768.8,341.5,753.1,341.5z"/>
<path class="st1" d="M785,677.5H531c-15.7,0-28.5-12.8-28.5-28.5V395c0-15.7,12.8-28.5,28.5-28.5h254c15.7,0,28.5,12.8,28.5,28.5
	v254C813.5,664.7,800.7,677.5,785,677.5z"/>
<image style="overflow:visible;" width="113" height="112" xlink:href="agani.jpg"  transform="matrix(2.0026 0 0 1.2768 545 415)">
</image>
<image style="overflow:visible;" width="197" height="90" xlink:href="Black berry.jpg"  transform="matrix(1.1117 0 0 1.3111 516 78)">
</image>
</svg>
