<?xml version="1.0" encoding="utf-8"?>
<!-- Generator: Adobe Illustrator 23.1.0, SVG Export Plug-In . SVG Version: 6.00 Build 0)  -->
<svg version="1.1" id="Layer_1" xmlns="http://www.w3.org/2000/svg" xmlns:xlink="http://www.w3.org/1999/xlink" x="0px" y="0px"
	 viewBox="0 0 1920 1080" style="enable-background:new 0 0 1920 1080;" xml:space="preserve">
<style type="text/css">
	.st0{fill:#CD6155;stroke:#000000;stroke-miterlimit:10;}
	.st1{fill:#FFFFFF;stroke:#000000;stroke-miterlimit:10;}
	.st2{fill:#F8C471;stroke:#000000;stroke-miterlimit:10;}
</style>
<image style="overflow:visible;" width="4284" height="3898" xlink:href="D21B401E.jpg"  transform="matrix(0.1398 0 0 0.1398 661 268)">
</image>
<path class="st0" d="M711,670c-2.5,0-13.6,52.2-5,85c24.6,93.2,133.9,214.3,277,203c154.1-12.2,250.9-170.5,244-280
	c-3.3-52.1-34-111.5-50-109c-13.5,2.1-17.8,48.8-19,94c-3.5,131.8-44.6,145.4-56.7,150c-3.7,1.4-3.4,0.6-36.3,0
	c-55.8-1.1-52.3,1.1-96,0c-49.3-1.2-56.7,6.2-75,0c-8.2-2.8-18-7.5-34-9c-18.2-1.7-22.9,2.8-29.4-1.7c-9.8-6.8-4.5-20.8-11.6-51.3
	c-3.9-16.6-10.7-36.5-15-36c-6.4,0.8,2.6,46.3-19.9,61.1c-6.8,4.5-14.3,5-19.1,4.9c-22.7-14.5-32.6-30.8-37-40
	c-5.5-11.4-8.1-23.6-11-37C712.3,682.5,712.2,670,711,670z"/>
<path class="st1" d="M1310,590"/>
<path class="st1" d="M1354,662"/>
<path class="st1" d="M978,826"/>
<path class="st0" d="M1259.9,570"/>
<path class="st0" d="M1417,709"/>
<path class="st2" d="M1259.9,808c-0.6-180-1.3-360-1.9-540c-199,0-398,0-597,0c-14.1,55-121.4,485.5,0,545
	c15.6,7.7,37.6,10.4,69.5,0c-13.4-57.6-17.4-104.9-18.5-138c-2.4-72.5,7.8-125.3-20-179c-2.6-5.1-16.6-31.4-14-33
	c1.7-1.1,10.7,8.7,22.3,21.2c8.5,9.2,10.4,11.9,11.8,11.3c6-2.5-12.8-60.2-9-61.5c3.8-1.4,24.9,58.6,40,56c6.8-1.2,7.2-14.2,15-15
	c10.3-1,15.8,21.5,30,22c8.2,0.3,13.5-6.9,16.5-4.4c4.1,3.4-4.6,17.5,0.2,21.5c1.5,1.2,3.4,0.6,8.3,0c12.6-1.7,15.6,0.1,19-1
	c12-4,7.4-38.7,13-80c2.2-16.6,5.2-27.6,11-49c11.1-41.1,16.7-61.7,30-77c15.7-18.1,46.1-39.2,69-34c4.1,0.9,13.4,4,27,4
	c10.6,0,15.6-1.7,20-2c22-1.3,50,34.1,60,71c5.5,20.2,2.6,30,4,50.1c1,13.8,6.7,20,5,31.9c-1.1,7.7-4.5,17.8-1,20
	c1.9,1.2,4.3-0.9,6.6,0.6c3.3,2,2.6,8.7,2.4,10.4c-1.8,18.7,1.8,77.2,7,78c3.3,0.5,10.6-21.2,20-28c0.4-0.3,2.8-2.3,6.4-3.9
	c4.8-2.1,7-3.6,9.2-3.4c6.1,0.5,8.1,9.8,10.4,9.3c3.5-0.7-2-23.3,5-49c0.8-2.9,5.7-20.3,10-20c8.2,0.6,0.8,72.2,20,78
	c14.7,4.5,38.8-31.8,41-30c2.9,2.3-41.1,57.5-31,79c5.1,10.8,15.7,10.9,27.8,30.1c3.9,6.2,7.8,14.1,11.5,27.5
	c16,58,5.9,108.3,5.9,108.3c-9.7,48.1-30.5,66.8-21.2,78.1C1206.2,819.4,1220.4,822.6,1259.9,808z"/>
<path class="st0" d="M342,259"/>
<path class="st0" d="M1354,705"/>
<line class="st0" x1="1094.6" y1="520" x2="1094.6" y2="520"/>
<path class="st0" d="M1447,380"/>
<path class="st0" d="M1341,716"/>
<path class="st0" d="M726,842"/>
<path class="st2" d="M1413,454"/>
<path class="st2" d="M1223,520"/>
<path class="st2" d="M1327,493"/>
<path class="st2" d="M1327,493"/>
<path class="st2" d="M1418,493"/>
</svg>
